G04 EAGLE Gerber RS-274X export*
G75*
%MOMM*%
%FSLAX34Y34*%
%LPD*%
%INSilkscreen Bottom*%
%IPPOS*%
%AMOC8*
5,1,8,0,0,1.08239X$1,22.5*%
G01*
%ADD10C,0.152400*%
%ADD11C,0.127000*%
%ADD12R,18.542000X0.762000*%
%ADD13R,30.988000X0.508000*%
%ADD14R,0.812800X7.239000*%
%ADD15R,0.812800X4.699000*%
%ADD16C,0.050800*%
%ADD17C,0.406400*%
%ADD18C,0.304800*%
%ADD19R,1.016000X1.016000*%


D10*
X501700Y356870D02*
X499160Y356870D01*
X501700Y356870D02*
X501840Y356868D01*
X501980Y356862D01*
X502120Y356853D01*
X502259Y356839D01*
X502398Y356822D01*
X502536Y356801D01*
X502674Y356776D01*
X502811Y356747D01*
X502947Y356715D01*
X503082Y356678D01*
X503216Y356638D01*
X503349Y356595D01*
X503481Y356547D01*
X503612Y356497D01*
X503741Y356442D01*
X503868Y356384D01*
X503994Y356323D01*
X504118Y356258D01*
X504240Y356189D01*
X504360Y356118D01*
X504478Y356043D01*
X504595Y355965D01*
X504709Y355883D01*
X504820Y355799D01*
X504929Y355711D01*
X505036Y355621D01*
X505141Y355527D01*
X505242Y355431D01*
X505341Y355332D01*
X505437Y355231D01*
X505531Y355126D01*
X505621Y355019D01*
X505709Y354910D01*
X505793Y354799D01*
X505875Y354685D01*
X505953Y354568D01*
X506028Y354450D01*
X506099Y354330D01*
X506168Y354208D01*
X506233Y354084D01*
X506294Y353958D01*
X506352Y353831D01*
X506407Y353702D01*
X506457Y353571D01*
X506505Y353439D01*
X506548Y353306D01*
X506588Y353172D01*
X506625Y353037D01*
X506657Y352901D01*
X506686Y352764D01*
X506711Y352626D01*
X506732Y352488D01*
X506749Y352349D01*
X506763Y352210D01*
X506772Y352070D01*
X506778Y351930D01*
X506780Y351790D01*
X349300Y356870D02*
X349160Y356868D01*
X349020Y356862D01*
X348880Y356853D01*
X348741Y356839D01*
X348602Y356822D01*
X348464Y356801D01*
X348326Y356776D01*
X348189Y356747D01*
X348053Y356715D01*
X347918Y356678D01*
X347784Y356638D01*
X347651Y356595D01*
X347519Y356547D01*
X347388Y356497D01*
X347259Y356442D01*
X347132Y356384D01*
X347006Y356323D01*
X346882Y356258D01*
X346760Y356189D01*
X346640Y356118D01*
X346522Y356043D01*
X346405Y355965D01*
X346291Y355883D01*
X346180Y355799D01*
X346071Y355711D01*
X345964Y355621D01*
X345859Y355527D01*
X345758Y355431D01*
X345659Y355332D01*
X345563Y355231D01*
X345469Y355126D01*
X345379Y355019D01*
X345291Y354910D01*
X345207Y354799D01*
X345125Y354685D01*
X345047Y354568D01*
X344972Y354450D01*
X344901Y354330D01*
X344832Y354208D01*
X344767Y354084D01*
X344706Y353958D01*
X344648Y353831D01*
X344593Y353702D01*
X344543Y353571D01*
X344495Y353439D01*
X344452Y353306D01*
X344412Y353172D01*
X344375Y353037D01*
X344343Y352901D01*
X344314Y352764D01*
X344289Y352626D01*
X344268Y352488D01*
X344251Y352349D01*
X344237Y352210D01*
X344228Y352070D01*
X344222Y351930D01*
X344220Y351790D01*
X529640Y254000D02*
X580440Y254000D01*
X580440Y284480D01*
X580440Y254000D02*
X580440Y252730D01*
X580440Y284480D02*
X580440Y289560D01*
X580440Y294640D01*
X270560Y294640D02*
X270560Y289560D01*
X270560Y284480D01*
X270560Y254000D01*
X270560Y252730D01*
X555040Y289560D02*
X580440Y289560D01*
X555040Y289560D02*
X529640Y289560D01*
X529640Y284480D01*
X528370Y284480D01*
X528370Y260350D02*
X528368Y260192D01*
X528362Y260033D01*
X528352Y259875D01*
X528338Y259718D01*
X528321Y259560D01*
X528299Y259404D01*
X528274Y259247D01*
X528244Y259092D01*
X528211Y258937D01*
X528174Y258783D01*
X528133Y258630D01*
X528088Y258478D01*
X528039Y258328D01*
X527987Y258178D01*
X527931Y258030D01*
X527871Y257883D01*
X527808Y257738D01*
X527741Y257595D01*
X527671Y257453D01*
X527597Y257313D01*
X527519Y257175D01*
X527438Y257039D01*
X527354Y256905D01*
X527267Y256773D01*
X527176Y256643D01*
X527082Y256516D01*
X526985Y256391D01*
X526884Y256268D01*
X526781Y256148D01*
X526675Y256031D01*
X526566Y255916D01*
X526454Y255804D01*
X526339Y255695D01*
X526222Y255589D01*
X526102Y255486D01*
X525979Y255385D01*
X525854Y255288D01*
X525727Y255194D01*
X525597Y255103D01*
X525465Y255016D01*
X525331Y254932D01*
X525195Y254851D01*
X525057Y254773D01*
X524917Y254699D01*
X524775Y254629D01*
X524632Y254562D01*
X524487Y254499D01*
X524340Y254439D01*
X524192Y254383D01*
X524042Y254331D01*
X523892Y254282D01*
X523740Y254237D01*
X523587Y254196D01*
X523433Y254159D01*
X523278Y254126D01*
X523123Y254096D01*
X522966Y254071D01*
X522810Y254049D01*
X522652Y254032D01*
X522495Y254018D01*
X522337Y254008D01*
X522178Y254002D01*
X522020Y254000D01*
X520750Y254000D02*
X529640Y254000D01*
X520750Y254000D02*
X518210Y254000D01*
X528370Y260350D02*
X528370Y284480D01*
X518210Y254000D02*
X518210Y246380D01*
X518210Y254000D02*
X332790Y254000D01*
X332790Y246380D02*
X518210Y246380D01*
X332790Y246380D02*
X332790Y254000D01*
X330250Y254000D01*
X321360Y254000D01*
X295960Y289560D02*
X270560Y289560D01*
X321360Y289560D02*
X529640Y289560D01*
X321360Y289560D02*
X295960Y289560D01*
X321360Y289560D02*
X321360Y284480D01*
X322630Y284480D02*
X322630Y260350D01*
X322630Y284480D02*
X321360Y284480D01*
X322630Y260350D02*
X322632Y260192D01*
X322638Y260033D01*
X322648Y259875D01*
X322662Y259718D01*
X322679Y259560D01*
X322701Y259404D01*
X322726Y259247D01*
X322756Y259092D01*
X322789Y258937D01*
X322826Y258783D01*
X322867Y258630D01*
X322912Y258478D01*
X322961Y258328D01*
X323013Y258178D01*
X323069Y258030D01*
X323129Y257883D01*
X323192Y257738D01*
X323259Y257595D01*
X323329Y257453D01*
X323403Y257313D01*
X323481Y257175D01*
X323562Y257039D01*
X323646Y256905D01*
X323733Y256773D01*
X323824Y256643D01*
X323918Y256516D01*
X324015Y256391D01*
X324116Y256268D01*
X324219Y256148D01*
X324325Y256031D01*
X324434Y255916D01*
X324546Y255804D01*
X324661Y255695D01*
X324778Y255589D01*
X324898Y255486D01*
X325021Y255385D01*
X325146Y255288D01*
X325273Y255194D01*
X325403Y255103D01*
X325535Y255016D01*
X325669Y254932D01*
X325805Y254851D01*
X325943Y254773D01*
X326083Y254699D01*
X326225Y254629D01*
X326368Y254562D01*
X326513Y254499D01*
X326660Y254439D01*
X326808Y254383D01*
X326958Y254331D01*
X327108Y254282D01*
X327260Y254237D01*
X327413Y254196D01*
X327567Y254159D01*
X327722Y254126D01*
X327877Y254096D01*
X328034Y254071D01*
X328190Y254049D01*
X328348Y254032D01*
X328505Y254018D01*
X328663Y254008D01*
X328822Y254002D01*
X328980Y254000D01*
X574090Y146050D02*
X580440Y152400D01*
X580440Y252730D01*
X574090Y146050D02*
X525830Y146050D01*
X520750Y151130D01*
X520750Y254000D01*
X330250Y254000D02*
X330250Y151130D01*
X325170Y146050D01*
X275640Y146050D01*
X270560Y151130D01*
X270560Y252730D01*
X270560Y254000D02*
X321360Y254000D01*
X502970Y294640D02*
X580440Y294640D01*
X506780Y300990D02*
X506780Y351790D01*
X506780Y300990D02*
X506782Y300832D01*
X506788Y300673D01*
X506798Y300515D01*
X506812Y300358D01*
X506829Y300200D01*
X506851Y300044D01*
X506876Y299887D01*
X506906Y299732D01*
X506939Y299577D01*
X506976Y299423D01*
X507017Y299270D01*
X507062Y299118D01*
X507111Y298968D01*
X507163Y298818D01*
X507219Y298670D01*
X507279Y298523D01*
X507342Y298378D01*
X507409Y298235D01*
X507479Y298093D01*
X507553Y297953D01*
X507631Y297815D01*
X507712Y297679D01*
X507796Y297545D01*
X507883Y297413D01*
X507974Y297283D01*
X508068Y297156D01*
X508165Y297031D01*
X508266Y296908D01*
X508369Y296788D01*
X508475Y296671D01*
X508584Y296556D01*
X508696Y296444D01*
X508811Y296335D01*
X508928Y296229D01*
X509048Y296126D01*
X509171Y296025D01*
X509296Y295928D01*
X509423Y295834D01*
X509553Y295743D01*
X509685Y295656D01*
X509819Y295572D01*
X509955Y295491D01*
X510093Y295413D01*
X510233Y295339D01*
X510375Y295269D01*
X510518Y295202D01*
X510663Y295139D01*
X510810Y295079D01*
X510958Y295023D01*
X511108Y294971D01*
X511258Y294922D01*
X511410Y294877D01*
X511563Y294836D01*
X511717Y294799D01*
X511872Y294766D01*
X512027Y294736D01*
X512184Y294711D01*
X512340Y294689D01*
X512498Y294672D01*
X512655Y294658D01*
X512813Y294648D01*
X512972Y294642D01*
X513130Y294640D01*
X348030Y294640D02*
X270560Y294640D01*
X344220Y300990D02*
X344220Y351790D01*
X344220Y300990D02*
X344218Y300832D01*
X344212Y300673D01*
X344202Y300515D01*
X344188Y300358D01*
X344171Y300200D01*
X344149Y300044D01*
X344124Y299887D01*
X344094Y299732D01*
X344061Y299577D01*
X344024Y299423D01*
X343983Y299270D01*
X343938Y299118D01*
X343889Y298968D01*
X343837Y298818D01*
X343781Y298670D01*
X343721Y298523D01*
X343658Y298378D01*
X343591Y298235D01*
X343521Y298093D01*
X343447Y297953D01*
X343369Y297815D01*
X343288Y297679D01*
X343204Y297545D01*
X343117Y297413D01*
X343026Y297283D01*
X342932Y297156D01*
X342835Y297031D01*
X342734Y296908D01*
X342631Y296788D01*
X342525Y296671D01*
X342416Y296556D01*
X342304Y296444D01*
X342189Y296335D01*
X342072Y296229D01*
X341952Y296126D01*
X341829Y296025D01*
X341704Y295928D01*
X341577Y295834D01*
X341447Y295743D01*
X341315Y295656D01*
X341181Y295572D01*
X341045Y295491D01*
X340907Y295413D01*
X340767Y295339D01*
X340625Y295269D01*
X340482Y295202D01*
X340337Y295139D01*
X340190Y295079D01*
X340042Y295023D01*
X339892Y294971D01*
X339742Y294922D01*
X339590Y294877D01*
X339437Y294836D01*
X339283Y294799D01*
X339128Y294766D01*
X338973Y294736D01*
X338816Y294711D01*
X338660Y294689D01*
X338502Y294672D01*
X338345Y294658D01*
X338187Y294648D01*
X338028Y294642D01*
X337870Y294640D01*
X348030Y294640D02*
X502970Y294640D01*
X499160Y356870D02*
X351840Y356870D01*
X349300Y356870D01*
X534212Y177800D02*
X534217Y178205D01*
X534232Y178610D01*
X534257Y179015D01*
X534292Y179418D01*
X534336Y179821D01*
X534391Y180223D01*
X534455Y180623D01*
X534529Y181021D01*
X534613Y181417D01*
X534707Y181812D01*
X534810Y182203D01*
X534923Y182593D01*
X535045Y182979D01*
X535177Y183362D01*
X535318Y183742D01*
X535469Y184118D01*
X535628Y184491D01*
X535797Y184859D01*
X535975Y185223D01*
X536161Y185583D01*
X536357Y185938D01*
X536561Y186288D01*
X536773Y186633D01*
X536994Y186972D01*
X537224Y187307D01*
X537461Y187635D01*
X537706Y187957D01*
X537960Y188274D01*
X538220Y188584D01*
X538489Y188887D01*
X538765Y189184D01*
X539048Y189474D01*
X539338Y189757D01*
X539635Y190033D01*
X539938Y190302D01*
X540248Y190562D01*
X540565Y190816D01*
X540887Y191061D01*
X541215Y191298D01*
X541550Y191528D01*
X541889Y191749D01*
X542234Y191961D01*
X542584Y192165D01*
X542939Y192361D01*
X543299Y192547D01*
X543663Y192725D01*
X544031Y192894D01*
X544404Y193053D01*
X544780Y193204D01*
X545160Y193345D01*
X545543Y193477D01*
X545929Y193599D01*
X546319Y193712D01*
X546710Y193815D01*
X547105Y193909D01*
X547501Y193993D01*
X547899Y194067D01*
X548299Y194131D01*
X548701Y194186D01*
X549104Y194230D01*
X549507Y194265D01*
X549912Y194290D01*
X550317Y194305D01*
X550722Y194310D01*
X551127Y194305D01*
X551532Y194290D01*
X551937Y194265D01*
X552340Y194230D01*
X552743Y194186D01*
X553145Y194131D01*
X553545Y194067D01*
X553943Y193993D01*
X554339Y193909D01*
X554734Y193815D01*
X555125Y193712D01*
X555515Y193599D01*
X555901Y193477D01*
X556284Y193345D01*
X556664Y193204D01*
X557040Y193053D01*
X557413Y192894D01*
X557781Y192725D01*
X558145Y192547D01*
X558505Y192361D01*
X558860Y192165D01*
X559210Y191961D01*
X559555Y191749D01*
X559894Y191528D01*
X560229Y191298D01*
X560557Y191061D01*
X560879Y190816D01*
X561196Y190562D01*
X561506Y190302D01*
X561809Y190033D01*
X562106Y189757D01*
X562396Y189474D01*
X562679Y189184D01*
X562955Y188887D01*
X563224Y188584D01*
X563484Y188274D01*
X563738Y187957D01*
X563983Y187635D01*
X564220Y187307D01*
X564450Y186972D01*
X564671Y186633D01*
X564883Y186288D01*
X565087Y185938D01*
X565283Y185583D01*
X565469Y185223D01*
X565647Y184859D01*
X565816Y184491D01*
X565975Y184118D01*
X566126Y183742D01*
X566267Y183362D01*
X566399Y182979D01*
X566521Y182593D01*
X566634Y182203D01*
X566737Y181812D01*
X566831Y181417D01*
X566915Y181021D01*
X566989Y180623D01*
X567053Y180223D01*
X567108Y179821D01*
X567152Y179418D01*
X567187Y179015D01*
X567212Y178610D01*
X567227Y178205D01*
X567232Y177800D01*
X567227Y177395D01*
X567212Y176990D01*
X567187Y176585D01*
X567152Y176182D01*
X567108Y175779D01*
X567053Y175377D01*
X566989Y174977D01*
X566915Y174579D01*
X566831Y174183D01*
X566737Y173788D01*
X566634Y173397D01*
X566521Y173007D01*
X566399Y172621D01*
X566267Y172238D01*
X566126Y171858D01*
X565975Y171482D01*
X565816Y171109D01*
X565647Y170741D01*
X565469Y170377D01*
X565283Y170017D01*
X565087Y169662D01*
X564883Y169312D01*
X564671Y168967D01*
X564450Y168628D01*
X564220Y168293D01*
X563983Y167965D01*
X563738Y167643D01*
X563484Y167326D01*
X563224Y167016D01*
X562955Y166713D01*
X562679Y166416D01*
X562396Y166126D01*
X562106Y165843D01*
X561809Y165567D01*
X561506Y165298D01*
X561196Y165038D01*
X560879Y164784D01*
X560557Y164539D01*
X560229Y164302D01*
X559894Y164072D01*
X559555Y163851D01*
X559210Y163639D01*
X558860Y163435D01*
X558505Y163239D01*
X558145Y163053D01*
X557781Y162875D01*
X557413Y162706D01*
X557040Y162547D01*
X556664Y162396D01*
X556284Y162255D01*
X555901Y162123D01*
X555515Y162001D01*
X555125Y161888D01*
X554734Y161785D01*
X554339Y161691D01*
X553943Y161607D01*
X553545Y161533D01*
X553145Y161469D01*
X552743Y161414D01*
X552340Y161370D01*
X551937Y161335D01*
X551532Y161310D01*
X551127Y161295D01*
X550722Y161290D01*
X550317Y161295D01*
X549912Y161310D01*
X549507Y161335D01*
X549104Y161370D01*
X548701Y161414D01*
X548299Y161469D01*
X547899Y161533D01*
X547501Y161607D01*
X547105Y161691D01*
X546710Y161785D01*
X546319Y161888D01*
X545929Y162001D01*
X545543Y162123D01*
X545160Y162255D01*
X544780Y162396D01*
X544404Y162547D01*
X544031Y162706D01*
X543663Y162875D01*
X543299Y163053D01*
X542939Y163239D01*
X542584Y163435D01*
X542234Y163639D01*
X541889Y163851D01*
X541550Y164072D01*
X541215Y164302D01*
X540887Y164539D01*
X540565Y164784D01*
X540248Y165038D01*
X539938Y165298D01*
X539635Y165567D01*
X539338Y165843D01*
X539048Y166126D01*
X538765Y166416D01*
X538489Y166713D01*
X538220Y167016D01*
X537960Y167326D01*
X537706Y167643D01*
X537461Y167965D01*
X537224Y168293D01*
X536994Y168628D01*
X536773Y168967D01*
X536561Y169312D01*
X536357Y169662D01*
X536161Y170017D01*
X535975Y170377D01*
X535797Y170741D01*
X535628Y171109D01*
X535469Y171482D01*
X535318Y171858D01*
X535177Y172238D01*
X535045Y172621D01*
X534923Y173007D01*
X534810Y173397D01*
X534707Y173788D01*
X534613Y174183D01*
X534529Y174579D01*
X534455Y174977D01*
X534391Y175377D01*
X534336Y175779D01*
X534292Y176182D01*
X534257Y176585D01*
X534232Y176990D01*
X534217Y177395D01*
X534212Y177800D01*
X283768Y177800D02*
X283773Y178205D01*
X283788Y178610D01*
X283813Y179015D01*
X283848Y179418D01*
X283892Y179821D01*
X283947Y180223D01*
X284011Y180623D01*
X284085Y181021D01*
X284169Y181417D01*
X284263Y181812D01*
X284366Y182203D01*
X284479Y182593D01*
X284601Y182979D01*
X284733Y183362D01*
X284874Y183742D01*
X285025Y184118D01*
X285184Y184491D01*
X285353Y184859D01*
X285531Y185223D01*
X285717Y185583D01*
X285913Y185938D01*
X286117Y186288D01*
X286329Y186633D01*
X286550Y186972D01*
X286780Y187307D01*
X287017Y187635D01*
X287262Y187957D01*
X287516Y188274D01*
X287776Y188584D01*
X288045Y188887D01*
X288321Y189184D01*
X288604Y189474D01*
X288894Y189757D01*
X289191Y190033D01*
X289494Y190302D01*
X289804Y190562D01*
X290121Y190816D01*
X290443Y191061D01*
X290771Y191298D01*
X291106Y191528D01*
X291445Y191749D01*
X291790Y191961D01*
X292140Y192165D01*
X292495Y192361D01*
X292855Y192547D01*
X293219Y192725D01*
X293587Y192894D01*
X293960Y193053D01*
X294336Y193204D01*
X294716Y193345D01*
X295099Y193477D01*
X295485Y193599D01*
X295875Y193712D01*
X296266Y193815D01*
X296661Y193909D01*
X297057Y193993D01*
X297455Y194067D01*
X297855Y194131D01*
X298257Y194186D01*
X298660Y194230D01*
X299063Y194265D01*
X299468Y194290D01*
X299873Y194305D01*
X300278Y194310D01*
X300683Y194305D01*
X301088Y194290D01*
X301493Y194265D01*
X301896Y194230D01*
X302299Y194186D01*
X302701Y194131D01*
X303101Y194067D01*
X303499Y193993D01*
X303895Y193909D01*
X304290Y193815D01*
X304681Y193712D01*
X305071Y193599D01*
X305457Y193477D01*
X305840Y193345D01*
X306220Y193204D01*
X306596Y193053D01*
X306969Y192894D01*
X307337Y192725D01*
X307701Y192547D01*
X308061Y192361D01*
X308416Y192165D01*
X308766Y191961D01*
X309111Y191749D01*
X309450Y191528D01*
X309785Y191298D01*
X310113Y191061D01*
X310435Y190816D01*
X310752Y190562D01*
X311062Y190302D01*
X311365Y190033D01*
X311662Y189757D01*
X311952Y189474D01*
X312235Y189184D01*
X312511Y188887D01*
X312780Y188584D01*
X313040Y188274D01*
X313294Y187957D01*
X313539Y187635D01*
X313776Y187307D01*
X314006Y186972D01*
X314227Y186633D01*
X314439Y186288D01*
X314643Y185938D01*
X314839Y185583D01*
X315025Y185223D01*
X315203Y184859D01*
X315372Y184491D01*
X315531Y184118D01*
X315682Y183742D01*
X315823Y183362D01*
X315955Y182979D01*
X316077Y182593D01*
X316190Y182203D01*
X316293Y181812D01*
X316387Y181417D01*
X316471Y181021D01*
X316545Y180623D01*
X316609Y180223D01*
X316664Y179821D01*
X316708Y179418D01*
X316743Y179015D01*
X316768Y178610D01*
X316783Y178205D01*
X316788Y177800D01*
X316783Y177395D01*
X316768Y176990D01*
X316743Y176585D01*
X316708Y176182D01*
X316664Y175779D01*
X316609Y175377D01*
X316545Y174977D01*
X316471Y174579D01*
X316387Y174183D01*
X316293Y173788D01*
X316190Y173397D01*
X316077Y173007D01*
X315955Y172621D01*
X315823Y172238D01*
X315682Y171858D01*
X315531Y171482D01*
X315372Y171109D01*
X315203Y170741D01*
X315025Y170377D01*
X314839Y170017D01*
X314643Y169662D01*
X314439Y169312D01*
X314227Y168967D01*
X314006Y168628D01*
X313776Y168293D01*
X313539Y167965D01*
X313294Y167643D01*
X313040Y167326D01*
X312780Y167016D01*
X312511Y166713D01*
X312235Y166416D01*
X311952Y166126D01*
X311662Y165843D01*
X311365Y165567D01*
X311062Y165298D01*
X310752Y165038D01*
X310435Y164784D01*
X310113Y164539D01*
X309785Y164302D01*
X309450Y164072D01*
X309111Y163851D01*
X308766Y163639D01*
X308416Y163435D01*
X308061Y163239D01*
X307701Y163053D01*
X307337Y162875D01*
X306969Y162706D01*
X306596Y162547D01*
X306220Y162396D01*
X305840Y162255D01*
X305457Y162123D01*
X305071Y162001D01*
X304681Y161888D01*
X304290Y161785D01*
X303895Y161691D01*
X303499Y161607D01*
X303101Y161533D01*
X302701Y161469D01*
X302299Y161414D01*
X301896Y161370D01*
X301493Y161335D01*
X301088Y161310D01*
X300683Y161295D01*
X300278Y161290D01*
X299873Y161295D01*
X299468Y161310D01*
X299063Y161335D01*
X298660Y161370D01*
X298257Y161414D01*
X297855Y161469D01*
X297455Y161533D01*
X297057Y161607D01*
X296661Y161691D01*
X296266Y161785D01*
X295875Y161888D01*
X295485Y162001D01*
X295099Y162123D01*
X294716Y162255D01*
X294336Y162396D01*
X293960Y162547D01*
X293587Y162706D01*
X293219Y162875D01*
X292855Y163053D01*
X292495Y163239D01*
X292140Y163435D01*
X291790Y163639D01*
X291445Y163851D01*
X291106Y164072D01*
X290771Y164302D01*
X290443Y164539D01*
X290121Y164784D01*
X289804Y165038D01*
X289494Y165298D01*
X289191Y165567D01*
X288894Y165843D01*
X288604Y166126D01*
X288321Y166416D01*
X288045Y166713D01*
X287776Y167016D01*
X287516Y167326D01*
X287262Y167643D01*
X287017Y167965D01*
X286780Y168293D01*
X286550Y168628D01*
X286329Y168967D01*
X286117Y169312D01*
X285913Y169662D01*
X285717Y170017D01*
X285531Y170377D01*
X285353Y170741D01*
X285184Y171109D01*
X285025Y171482D01*
X284874Y171858D01*
X284733Y172238D01*
X284601Y172621D01*
X284479Y173007D01*
X284366Y173397D01*
X284263Y173788D01*
X284169Y174183D01*
X284085Y174579D01*
X284011Y174977D01*
X283947Y175377D01*
X283892Y175779D01*
X283848Y176182D01*
X283813Y176585D01*
X283788Y176990D01*
X283773Y177395D01*
X283768Y177800D01*
D11*
X497890Y170815D02*
X501065Y168275D01*
X497890Y170815D02*
X497890Y159385D01*
X501065Y159385D02*
X494715Y159385D01*
X355015Y159385D02*
X351205Y159385D01*
X351105Y159387D01*
X351006Y159393D01*
X350906Y159403D01*
X350808Y159416D01*
X350709Y159434D01*
X350612Y159455D01*
X350516Y159480D01*
X350420Y159509D01*
X350326Y159542D01*
X350233Y159578D01*
X350142Y159618D01*
X350052Y159662D01*
X349964Y159709D01*
X349878Y159759D01*
X349794Y159813D01*
X349712Y159870D01*
X349633Y159930D01*
X349555Y159994D01*
X349481Y160060D01*
X349409Y160129D01*
X349340Y160201D01*
X349274Y160275D01*
X349210Y160353D01*
X349150Y160432D01*
X349093Y160514D01*
X349039Y160598D01*
X348989Y160684D01*
X348942Y160772D01*
X348898Y160862D01*
X348858Y160953D01*
X348822Y161046D01*
X348789Y161140D01*
X348760Y161236D01*
X348735Y161332D01*
X348714Y161429D01*
X348696Y161528D01*
X348683Y161626D01*
X348673Y161726D01*
X348667Y161825D01*
X348665Y161925D01*
X348665Y163195D01*
X348667Y163295D01*
X348673Y163394D01*
X348683Y163494D01*
X348696Y163592D01*
X348714Y163691D01*
X348735Y163788D01*
X348760Y163884D01*
X348789Y163980D01*
X348822Y164074D01*
X348858Y164167D01*
X348898Y164258D01*
X348942Y164348D01*
X348989Y164436D01*
X349039Y164522D01*
X349093Y164606D01*
X349150Y164688D01*
X349210Y164767D01*
X349274Y164845D01*
X349340Y164919D01*
X349409Y164991D01*
X349481Y165060D01*
X349555Y165126D01*
X349633Y165190D01*
X349712Y165250D01*
X349794Y165307D01*
X349878Y165361D01*
X349964Y165411D01*
X350052Y165458D01*
X350142Y165502D01*
X350233Y165542D01*
X350326Y165578D01*
X350420Y165611D01*
X350516Y165640D01*
X350612Y165665D01*
X350709Y165686D01*
X350808Y165704D01*
X350906Y165717D01*
X351006Y165727D01*
X351105Y165733D01*
X351205Y165735D01*
X355015Y165735D01*
X355015Y170815D01*
X348665Y170815D01*
X348665Y189865D02*
X352475Y189865D01*
X352575Y189867D01*
X352674Y189873D01*
X352774Y189883D01*
X352872Y189896D01*
X352971Y189914D01*
X353068Y189935D01*
X353164Y189960D01*
X353260Y189989D01*
X353354Y190022D01*
X353447Y190058D01*
X353538Y190098D01*
X353628Y190142D01*
X353716Y190189D01*
X353802Y190239D01*
X353886Y190293D01*
X353968Y190350D01*
X354047Y190410D01*
X354125Y190474D01*
X354199Y190540D01*
X354271Y190609D01*
X354340Y190681D01*
X354406Y190755D01*
X354470Y190833D01*
X354530Y190912D01*
X354587Y190994D01*
X354641Y191078D01*
X354691Y191164D01*
X354738Y191252D01*
X354782Y191342D01*
X354822Y191433D01*
X354858Y191526D01*
X354891Y191620D01*
X354920Y191716D01*
X354945Y191812D01*
X354966Y191909D01*
X354984Y192008D01*
X354997Y192106D01*
X355007Y192206D01*
X355013Y192305D01*
X355015Y192405D01*
X355015Y193040D01*
X355013Y193151D01*
X355007Y193261D01*
X354998Y193372D01*
X354984Y193482D01*
X354967Y193591D01*
X354946Y193700D01*
X354921Y193808D01*
X354892Y193915D01*
X354860Y194021D01*
X354824Y194126D01*
X354784Y194229D01*
X354741Y194331D01*
X354694Y194432D01*
X354643Y194531D01*
X354590Y194628D01*
X354533Y194722D01*
X354472Y194815D01*
X354409Y194906D01*
X354342Y194995D01*
X354272Y195081D01*
X354199Y195164D01*
X354124Y195246D01*
X354046Y195324D01*
X353964Y195399D01*
X353881Y195472D01*
X353795Y195542D01*
X353706Y195609D01*
X353615Y195672D01*
X353522Y195733D01*
X353428Y195790D01*
X353331Y195843D01*
X353232Y195894D01*
X353131Y195941D01*
X353029Y195984D01*
X352926Y196024D01*
X352821Y196060D01*
X352715Y196092D01*
X352608Y196121D01*
X352500Y196146D01*
X352391Y196167D01*
X352282Y196184D01*
X352172Y196198D01*
X352061Y196207D01*
X351951Y196213D01*
X351840Y196215D01*
X351729Y196213D01*
X351619Y196207D01*
X351508Y196198D01*
X351398Y196184D01*
X351289Y196167D01*
X351180Y196146D01*
X351072Y196121D01*
X350965Y196092D01*
X350859Y196060D01*
X350754Y196024D01*
X350651Y195984D01*
X350549Y195941D01*
X350448Y195894D01*
X350349Y195843D01*
X350253Y195790D01*
X350158Y195733D01*
X350065Y195672D01*
X349974Y195609D01*
X349885Y195542D01*
X349799Y195472D01*
X349716Y195399D01*
X349634Y195324D01*
X349556Y195246D01*
X349481Y195164D01*
X349408Y195081D01*
X349338Y194995D01*
X349271Y194906D01*
X349208Y194815D01*
X349147Y194722D01*
X349090Y194628D01*
X349037Y194531D01*
X348986Y194432D01*
X348939Y194331D01*
X348896Y194229D01*
X348856Y194126D01*
X348820Y194021D01*
X348788Y193915D01*
X348759Y193808D01*
X348734Y193700D01*
X348713Y193591D01*
X348696Y193482D01*
X348682Y193372D01*
X348673Y193261D01*
X348667Y193151D01*
X348665Y193040D01*
X348665Y189865D01*
X348667Y189725D01*
X348673Y189585D01*
X348682Y189445D01*
X348696Y189306D01*
X348713Y189167D01*
X348734Y189029D01*
X348759Y188891D01*
X348788Y188754D01*
X348820Y188618D01*
X348857Y188483D01*
X348897Y188349D01*
X348940Y188216D01*
X348988Y188084D01*
X349038Y187953D01*
X349093Y187824D01*
X349151Y187697D01*
X349212Y187571D01*
X349277Y187447D01*
X349346Y187325D01*
X349417Y187205D01*
X349492Y187087D01*
X349570Y186970D01*
X349652Y186856D01*
X349736Y186745D01*
X349824Y186636D01*
X349914Y186529D01*
X350008Y186424D01*
X350104Y186323D01*
X350203Y186224D01*
X350304Y186128D01*
X350409Y186034D01*
X350516Y185944D01*
X350625Y185856D01*
X350736Y185772D01*
X350850Y185690D01*
X350967Y185612D01*
X351085Y185537D01*
X351205Y185466D01*
X351327Y185397D01*
X351451Y185332D01*
X351577Y185271D01*
X351704Y185213D01*
X351833Y185158D01*
X351964Y185108D01*
X352096Y185060D01*
X352229Y185017D01*
X352363Y184977D01*
X352498Y184940D01*
X352634Y184908D01*
X352771Y184879D01*
X352909Y184854D01*
X353047Y184833D01*
X353186Y184816D01*
X353325Y184802D01*
X353465Y184793D01*
X353605Y184787D01*
X353745Y184785D01*
X497255Y191135D02*
X501065Y191135D01*
X497255Y191135D02*
X497155Y191133D01*
X497056Y191127D01*
X496956Y191117D01*
X496858Y191104D01*
X496759Y191086D01*
X496662Y191065D01*
X496566Y191040D01*
X496470Y191011D01*
X496376Y190978D01*
X496283Y190942D01*
X496192Y190902D01*
X496102Y190858D01*
X496014Y190811D01*
X495928Y190761D01*
X495844Y190707D01*
X495762Y190650D01*
X495683Y190590D01*
X495605Y190526D01*
X495531Y190460D01*
X495459Y190391D01*
X495390Y190319D01*
X495324Y190245D01*
X495260Y190167D01*
X495200Y190088D01*
X495143Y190006D01*
X495089Y189922D01*
X495039Y189836D01*
X494992Y189748D01*
X494948Y189658D01*
X494908Y189567D01*
X494872Y189474D01*
X494839Y189380D01*
X494810Y189284D01*
X494785Y189188D01*
X494764Y189091D01*
X494746Y188992D01*
X494733Y188894D01*
X494723Y188794D01*
X494717Y188695D01*
X494715Y188595D01*
X494715Y187960D01*
X494717Y187849D01*
X494723Y187739D01*
X494732Y187628D01*
X494746Y187518D01*
X494763Y187409D01*
X494784Y187300D01*
X494809Y187192D01*
X494838Y187085D01*
X494870Y186979D01*
X494906Y186874D01*
X494946Y186771D01*
X494989Y186669D01*
X495036Y186568D01*
X495087Y186469D01*
X495140Y186373D01*
X495197Y186278D01*
X495258Y186185D01*
X495321Y186094D01*
X495388Y186005D01*
X495458Y185919D01*
X495531Y185836D01*
X495606Y185754D01*
X495684Y185676D01*
X495766Y185601D01*
X495849Y185528D01*
X495935Y185458D01*
X496024Y185391D01*
X496115Y185328D01*
X496208Y185267D01*
X496303Y185210D01*
X496399Y185157D01*
X496498Y185106D01*
X496599Y185059D01*
X496701Y185016D01*
X496804Y184976D01*
X496909Y184940D01*
X497015Y184908D01*
X497122Y184879D01*
X497230Y184854D01*
X497339Y184833D01*
X497448Y184816D01*
X497558Y184802D01*
X497669Y184793D01*
X497779Y184787D01*
X497890Y184785D01*
X498001Y184787D01*
X498111Y184793D01*
X498222Y184802D01*
X498332Y184816D01*
X498441Y184833D01*
X498550Y184854D01*
X498658Y184879D01*
X498765Y184908D01*
X498871Y184940D01*
X498976Y184976D01*
X499079Y185016D01*
X499181Y185059D01*
X499282Y185106D01*
X499381Y185157D01*
X499477Y185210D01*
X499572Y185267D01*
X499665Y185328D01*
X499756Y185391D01*
X499845Y185458D01*
X499931Y185528D01*
X500014Y185601D01*
X500096Y185676D01*
X500174Y185754D01*
X500249Y185836D01*
X500322Y185919D01*
X500392Y186005D01*
X500459Y186094D01*
X500522Y186185D01*
X500583Y186278D01*
X500640Y186372D01*
X500693Y186469D01*
X500744Y186568D01*
X500791Y186669D01*
X500834Y186771D01*
X500874Y186874D01*
X500910Y186979D01*
X500942Y187085D01*
X500971Y187192D01*
X500996Y187300D01*
X501017Y187409D01*
X501034Y187518D01*
X501048Y187628D01*
X501057Y187739D01*
X501063Y187849D01*
X501065Y187960D01*
X501065Y191135D01*
X501063Y191275D01*
X501057Y191415D01*
X501048Y191555D01*
X501034Y191694D01*
X501017Y191833D01*
X500996Y191971D01*
X500971Y192109D01*
X500942Y192246D01*
X500910Y192382D01*
X500873Y192517D01*
X500833Y192651D01*
X500790Y192784D01*
X500742Y192916D01*
X500692Y193047D01*
X500637Y193176D01*
X500579Y193303D01*
X500518Y193429D01*
X500453Y193553D01*
X500384Y193675D01*
X500313Y193795D01*
X500238Y193913D01*
X500160Y194030D01*
X500078Y194144D01*
X499994Y194255D01*
X499906Y194364D01*
X499816Y194471D01*
X499722Y194576D01*
X499626Y194677D01*
X499527Y194776D01*
X499426Y194872D01*
X499321Y194966D01*
X499214Y195056D01*
X499105Y195144D01*
X498994Y195228D01*
X498880Y195310D01*
X498763Y195388D01*
X498645Y195463D01*
X498525Y195534D01*
X498403Y195603D01*
X498279Y195668D01*
X498153Y195729D01*
X498026Y195787D01*
X497897Y195842D01*
X497766Y195892D01*
X497634Y195940D01*
X497501Y195983D01*
X497367Y196023D01*
X497232Y196060D01*
X497096Y196092D01*
X496959Y196121D01*
X496821Y196146D01*
X496683Y196167D01*
X496544Y196184D01*
X496405Y196198D01*
X496265Y196207D01*
X496125Y196213D01*
X495985Y196215D01*
X287706Y207328D02*
X287704Y207432D01*
X287698Y207537D01*
X287689Y207641D01*
X287676Y207744D01*
X287658Y207847D01*
X287638Y207949D01*
X287613Y208051D01*
X287585Y208151D01*
X287553Y208251D01*
X287517Y208349D01*
X287478Y208446D01*
X287436Y208541D01*
X287390Y208635D01*
X287340Y208727D01*
X287288Y208817D01*
X287232Y208905D01*
X287172Y208991D01*
X287110Y209075D01*
X287045Y209156D01*
X286977Y209235D01*
X286905Y209312D01*
X286832Y209385D01*
X286755Y209457D01*
X286676Y209525D01*
X286595Y209590D01*
X286511Y209652D01*
X286425Y209712D01*
X286337Y209768D01*
X286247Y209820D01*
X286155Y209870D01*
X286061Y209916D01*
X285966Y209958D01*
X285869Y209997D01*
X285771Y210033D01*
X285671Y210065D01*
X285571Y210093D01*
X285469Y210118D01*
X285367Y210138D01*
X285264Y210156D01*
X285161Y210169D01*
X285057Y210178D01*
X284952Y210184D01*
X284848Y210186D01*
X287705Y207328D02*
X287703Y207210D01*
X287697Y207091D01*
X287688Y206973D01*
X287675Y206856D01*
X287657Y206739D01*
X287637Y206622D01*
X287612Y206506D01*
X287584Y206391D01*
X287551Y206278D01*
X287516Y206165D01*
X287476Y206053D01*
X287434Y205943D01*
X287387Y205834D01*
X287337Y205726D01*
X287284Y205621D01*
X287227Y205517D01*
X287167Y205415D01*
X287104Y205315D01*
X287037Y205217D01*
X286968Y205121D01*
X286895Y205028D01*
X286819Y204937D01*
X286741Y204848D01*
X286659Y204762D01*
X286575Y204679D01*
X286489Y204598D01*
X286399Y204521D01*
X286308Y204446D01*
X286214Y204374D01*
X286117Y204305D01*
X286019Y204240D01*
X285918Y204177D01*
X285815Y204118D01*
X285711Y204062D01*
X285605Y204010D01*
X285497Y203961D01*
X285388Y203916D01*
X285277Y203874D01*
X285165Y203836D01*
X282626Y209233D02*
X282701Y209309D01*
X282780Y209384D01*
X282861Y209455D01*
X282945Y209524D01*
X283031Y209589D01*
X283119Y209651D01*
X283209Y209711D01*
X283301Y209767D01*
X283396Y209820D01*
X283492Y209869D01*
X283590Y209915D01*
X283689Y209958D01*
X283790Y209997D01*
X283892Y210032D01*
X283995Y210064D01*
X284099Y210092D01*
X284204Y210117D01*
X284311Y210138D01*
X284417Y210155D01*
X284524Y210168D01*
X284632Y210177D01*
X284740Y210183D01*
X284848Y210185D01*
X282625Y209233D02*
X276275Y203835D01*
X276275Y210185D01*
X276275Y214645D02*
X276275Y215280D01*
X276275Y214645D02*
X276910Y214645D01*
X276910Y215280D01*
X276275Y215280D01*
X273735Y214327D01*
X276275Y219837D02*
X276275Y223647D01*
X276277Y223747D01*
X276283Y223846D01*
X276293Y223946D01*
X276306Y224044D01*
X276324Y224143D01*
X276345Y224240D01*
X276370Y224336D01*
X276399Y224432D01*
X276432Y224526D01*
X276468Y224619D01*
X276508Y224710D01*
X276552Y224800D01*
X276599Y224888D01*
X276649Y224974D01*
X276703Y225058D01*
X276760Y225140D01*
X276820Y225219D01*
X276884Y225297D01*
X276950Y225371D01*
X277019Y225443D01*
X277091Y225512D01*
X277165Y225578D01*
X277243Y225642D01*
X277322Y225702D01*
X277404Y225759D01*
X277488Y225813D01*
X277574Y225863D01*
X277662Y225910D01*
X277752Y225954D01*
X277843Y225994D01*
X277936Y226030D01*
X278030Y226063D01*
X278126Y226092D01*
X278222Y226117D01*
X278319Y226138D01*
X278418Y226156D01*
X278516Y226169D01*
X278616Y226179D01*
X278715Y226185D01*
X278815Y226187D01*
X280085Y226187D01*
X280185Y226185D01*
X280284Y226179D01*
X280384Y226169D01*
X280482Y226156D01*
X280581Y226138D01*
X280678Y226117D01*
X280774Y226092D01*
X280870Y226063D01*
X280964Y226030D01*
X281057Y225994D01*
X281148Y225954D01*
X281238Y225910D01*
X281326Y225863D01*
X281412Y225813D01*
X281496Y225759D01*
X281578Y225702D01*
X281657Y225642D01*
X281735Y225578D01*
X281809Y225512D01*
X281881Y225443D01*
X281950Y225371D01*
X282016Y225297D01*
X282080Y225219D01*
X282140Y225140D01*
X282197Y225058D01*
X282251Y224974D01*
X282301Y224888D01*
X282348Y224800D01*
X282392Y224710D01*
X282432Y224619D01*
X282468Y224526D01*
X282501Y224432D01*
X282530Y224336D01*
X282555Y224240D01*
X282576Y224143D01*
X282594Y224044D01*
X282607Y223946D01*
X282617Y223846D01*
X282623Y223747D01*
X282625Y223647D01*
X282625Y219837D01*
X287705Y219837D01*
X287705Y226187D01*
X287705Y233807D02*
X278815Y231267D01*
X278815Y237617D01*
X281355Y235712D02*
X276275Y235712D01*
X501065Y263525D02*
X501065Y274955D01*
X495985Y274955D01*
X495985Y269875D02*
X501065Y269875D01*
X491565Y269240D02*
X491562Y269465D01*
X491554Y269690D01*
X491541Y269914D01*
X491522Y270138D01*
X491498Y270362D01*
X491469Y270585D01*
X491434Y270807D01*
X491394Y271028D01*
X491348Y271248D01*
X491298Y271467D01*
X491242Y271685D01*
X491181Y271902D01*
X491115Y272117D01*
X491044Y272330D01*
X490967Y272541D01*
X490886Y272751D01*
X490800Y272959D01*
X490709Y273164D01*
X490613Y273367D01*
X490613Y273368D02*
X490581Y273456D01*
X490545Y273543D01*
X490506Y273629D01*
X490463Y273713D01*
X490417Y273795D01*
X490368Y273875D01*
X490316Y273953D01*
X490260Y274029D01*
X490202Y274103D01*
X490140Y274174D01*
X490076Y274243D01*
X490009Y274309D01*
X489940Y274372D01*
X489868Y274433D01*
X489794Y274491D01*
X489717Y274545D01*
X489639Y274597D01*
X489558Y274645D01*
X489476Y274690D01*
X489391Y274732D01*
X489305Y274770D01*
X489218Y274805D01*
X489130Y274837D01*
X489040Y274864D01*
X488949Y274889D01*
X488857Y274909D01*
X488765Y274926D01*
X488671Y274939D01*
X488578Y274948D01*
X488484Y274954D01*
X488390Y274956D01*
X488296Y274954D01*
X488202Y274948D01*
X488109Y274939D01*
X488015Y274926D01*
X487923Y274909D01*
X487831Y274889D01*
X487740Y274864D01*
X487650Y274837D01*
X487562Y274805D01*
X487475Y274770D01*
X487389Y274732D01*
X487304Y274690D01*
X487222Y274645D01*
X487141Y274597D01*
X487063Y274545D01*
X486986Y274491D01*
X486912Y274433D01*
X486840Y274372D01*
X486771Y274309D01*
X486704Y274243D01*
X486640Y274174D01*
X486578Y274103D01*
X486520Y274029D01*
X486464Y273953D01*
X486412Y273875D01*
X486363Y273795D01*
X486317Y273713D01*
X486274Y273629D01*
X486235Y273543D01*
X486199Y273456D01*
X486167Y273368D01*
X486168Y273367D02*
X486072Y273164D01*
X485981Y272959D01*
X485895Y272751D01*
X485814Y272541D01*
X485737Y272330D01*
X485666Y272117D01*
X485600Y271902D01*
X485539Y271685D01*
X485483Y271467D01*
X485433Y271248D01*
X485387Y271028D01*
X485347Y270807D01*
X485312Y270585D01*
X485283Y270362D01*
X485259Y270138D01*
X485240Y269914D01*
X485227Y269690D01*
X485219Y269465D01*
X485216Y269240D01*
X491565Y269240D02*
X491562Y269015D01*
X491554Y268790D01*
X491541Y268566D01*
X491522Y268342D01*
X491498Y268118D01*
X491469Y267895D01*
X491434Y267673D01*
X491394Y267452D01*
X491348Y267232D01*
X491298Y267013D01*
X491242Y266795D01*
X491181Y266578D01*
X491115Y266363D01*
X491044Y266150D01*
X490967Y265939D01*
X490886Y265729D01*
X490800Y265521D01*
X490709Y265316D01*
X490613Y265113D01*
X490581Y265025D01*
X490545Y264938D01*
X490506Y264852D01*
X490463Y264768D01*
X490417Y264686D01*
X490368Y264606D01*
X490316Y264528D01*
X490260Y264452D01*
X490202Y264378D01*
X490140Y264307D01*
X490076Y264238D01*
X490009Y264172D01*
X489940Y264109D01*
X489868Y264048D01*
X489794Y263990D01*
X489717Y263936D01*
X489639Y263884D01*
X489558Y263836D01*
X489476Y263791D01*
X489391Y263749D01*
X489305Y263711D01*
X489218Y263676D01*
X489130Y263644D01*
X489040Y263617D01*
X488949Y263592D01*
X488857Y263572D01*
X488765Y263555D01*
X488671Y263542D01*
X488578Y263533D01*
X488484Y263527D01*
X488390Y263525D01*
X486168Y265113D02*
X486072Y265316D01*
X485981Y265521D01*
X485895Y265729D01*
X485814Y265939D01*
X485737Y266150D01*
X485666Y266363D01*
X485600Y266578D01*
X485539Y266795D01*
X485483Y267013D01*
X485433Y267232D01*
X485387Y267452D01*
X485347Y267673D01*
X485312Y267895D01*
X485283Y268118D01*
X485259Y268342D01*
X485240Y268566D01*
X485227Y268790D01*
X485219Y269015D01*
X485216Y269240D01*
X486167Y265113D02*
X486199Y265025D01*
X486235Y264938D01*
X486274Y264852D01*
X486317Y264768D01*
X486363Y264686D01*
X486412Y264606D01*
X486464Y264528D01*
X486520Y264452D01*
X486578Y264378D01*
X486640Y264307D01*
X486704Y264238D01*
X486771Y264172D01*
X486840Y264109D01*
X486912Y264048D01*
X486986Y263990D01*
X487063Y263936D01*
X487141Y263884D01*
X487222Y263836D01*
X487304Y263791D01*
X487389Y263749D01*
X487475Y263711D01*
X487562Y263676D01*
X487650Y263644D01*
X487740Y263617D01*
X487831Y263592D01*
X487923Y263572D01*
X488015Y263555D01*
X488109Y263542D01*
X488202Y263533D01*
X488296Y263527D01*
X488390Y263525D01*
X490930Y266065D02*
X485850Y272415D01*
X477595Y268605D02*
X473785Y268605D01*
X477595Y268605D02*
X477695Y268607D01*
X477794Y268613D01*
X477894Y268623D01*
X477992Y268636D01*
X478091Y268654D01*
X478188Y268675D01*
X478284Y268700D01*
X478380Y268729D01*
X478474Y268762D01*
X478567Y268798D01*
X478658Y268838D01*
X478748Y268882D01*
X478836Y268929D01*
X478922Y268979D01*
X479006Y269033D01*
X479088Y269090D01*
X479167Y269150D01*
X479245Y269214D01*
X479319Y269280D01*
X479391Y269349D01*
X479460Y269421D01*
X479526Y269495D01*
X479590Y269573D01*
X479650Y269652D01*
X479707Y269734D01*
X479761Y269818D01*
X479811Y269904D01*
X479858Y269992D01*
X479902Y270082D01*
X479942Y270173D01*
X479978Y270266D01*
X480011Y270360D01*
X480040Y270456D01*
X480065Y270552D01*
X480086Y270649D01*
X480104Y270748D01*
X480117Y270846D01*
X480127Y270946D01*
X480133Y271045D01*
X480135Y271145D01*
X480135Y271780D01*
X480133Y271891D01*
X480127Y272001D01*
X480118Y272112D01*
X480104Y272222D01*
X480087Y272331D01*
X480066Y272440D01*
X480041Y272548D01*
X480012Y272655D01*
X479980Y272761D01*
X479944Y272866D01*
X479904Y272969D01*
X479861Y273071D01*
X479814Y273172D01*
X479763Y273271D01*
X479710Y273368D01*
X479653Y273462D01*
X479592Y273555D01*
X479529Y273646D01*
X479462Y273735D01*
X479392Y273821D01*
X479319Y273904D01*
X479244Y273986D01*
X479166Y274064D01*
X479084Y274139D01*
X479001Y274212D01*
X478915Y274282D01*
X478826Y274349D01*
X478735Y274412D01*
X478642Y274473D01*
X478548Y274530D01*
X478451Y274583D01*
X478352Y274634D01*
X478251Y274681D01*
X478149Y274724D01*
X478046Y274764D01*
X477941Y274800D01*
X477835Y274832D01*
X477728Y274861D01*
X477620Y274886D01*
X477511Y274907D01*
X477402Y274924D01*
X477292Y274938D01*
X477181Y274947D01*
X477071Y274953D01*
X476960Y274955D01*
X476849Y274953D01*
X476739Y274947D01*
X476628Y274938D01*
X476518Y274924D01*
X476409Y274907D01*
X476300Y274886D01*
X476192Y274861D01*
X476085Y274832D01*
X475979Y274800D01*
X475874Y274764D01*
X475771Y274724D01*
X475669Y274681D01*
X475568Y274634D01*
X475469Y274583D01*
X475373Y274530D01*
X475278Y274473D01*
X475185Y274412D01*
X475094Y274349D01*
X475005Y274282D01*
X474919Y274212D01*
X474836Y274139D01*
X474754Y274064D01*
X474676Y273986D01*
X474601Y273904D01*
X474528Y273821D01*
X474458Y273735D01*
X474391Y273646D01*
X474328Y273555D01*
X474267Y273462D01*
X474210Y273368D01*
X474157Y273271D01*
X474106Y273172D01*
X474059Y273071D01*
X474016Y272969D01*
X473976Y272866D01*
X473940Y272761D01*
X473908Y272655D01*
X473879Y272548D01*
X473854Y272440D01*
X473833Y272331D01*
X473816Y272222D01*
X473802Y272112D01*
X473793Y272001D01*
X473787Y271891D01*
X473785Y271780D01*
X473785Y268605D01*
X473787Y268465D01*
X473793Y268325D01*
X473802Y268185D01*
X473816Y268046D01*
X473833Y267907D01*
X473854Y267769D01*
X473879Y267631D01*
X473908Y267494D01*
X473940Y267358D01*
X473977Y267223D01*
X474017Y267089D01*
X474060Y266956D01*
X474108Y266824D01*
X474158Y266693D01*
X474213Y266564D01*
X474271Y266437D01*
X474332Y266311D01*
X474397Y266187D01*
X474466Y266065D01*
X474537Y265945D01*
X474612Y265827D01*
X474690Y265710D01*
X474772Y265596D01*
X474856Y265485D01*
X474944Y265376D01*
X475034Y265269D01*
X475128Y265164D01*
X475224Y265063D01*
X475323Y264964D01*
X475424Y264868D01*
X475529Y264774D01*
X475636Y264684D01*
X475745Y264596D01*
X475856Y264512D01*
X475970Y264430D01*
X476087Y264352D01*
X476205Y264277D01*
X476325Y264206D01*
X476447Y264137D01*
X476571Y264072D01*
X476697Y264011D01*
X476824Y263953D01*
X476953Y263898D01*
X477084Y263848D01*
X477216Y263800D01*
X477349Y263757D01*
X477483Y263717D01*
X477618Y263680D01*
X477754Y263648D01*
X477891Y263619D01*
X478029Y263594D01*
X478167Y263573D01*
X478306Y263556D01*
X478445Y263542D01*
X478585Y263533D01*
X478725Y263527D01*
X478865Y263525D01*
D12*
X425500Y250190D03*
D13*
X425500Y292100D03*
D14*
X480364Y210185D03*
D15*
X466648Y222885D03*
D14*
X452932Y210185D03*
D15*
X439216Y222885D03*
D14*
X425500Y210185D03*
D15*
X411784Y222885D03*
D14*
X398068Y210185D03*
D15*
X384352Y222885D03*
D14*
X370636Y210185D03*
D10*
X495858Y499110D02*
X495858Y593090D01*
X460552Y596900D02*
X460430Y596898D01*
X460308Y596892D01*
X460186Y596882D01*
X460065Y596869D01*
X459944Y596851D01*
X459824Y596830D01*
X459704Y596804D01*
X459586Y596775D01*
X459468Y596743D01*
X459351Y596706D01*
X459236Y596666D01*
X459122Y596622D01*
X459010Y596574D01*
X458899Y596523D01*
X458790Y596468D01*
X458682Y596410D01*
X458577Y596348D01*
X458474Y596283D01*
X458372Y596215D01*
X458273Y596143D01*
X458177Y596069D01*
X458082Y595991D01*
X457991Y595910D01*
X457901Y595827D01*
X457815Y595741D01*
X457732Y595651D01*
X457651Y595560D01*
X457573Y595465D01*
X457499Y595369D01*
X457427Y595270D01*
X457359Y595168D01*
X457294Y595065D01*
X457232Y594960D01*
X457174Y594852D01*
X457119Y594743D01*
X457068Y594632D01*
X457020Y594520D01*
X456976Y594406D01*
X456936Y594291D01*
X456899Y594174D01*
X456867Y594056D01*
X456838Y593938D01*
X456812Y593818D01*
X456791Y593698D01*
X456773Y593577D01*
X456760Y593456D01*
X456750Y593334D01*
X456744Y593212D01*
X456742Y593090D01*
X495858Y499110D02*
X495856Y498988D01*
X495850Y498866D01*
X495840Y498744D01*
X495827Y498623D01*
X495809Y498502D01*
X495788Y498382D01*
X495762Y498262D01*
X495733Y498144D01*
X495701Y498026D01*
X495664Y497909D01*
X495624Y497794D01*
X495580Y497680D01*
X495532Y497568D01*
X495481Y497457D01*
X495426Y497348D01*
X495368Y497240D01*
X495306Y497135D01*
X495241Y497032D01*
X495173Y496930D01*
X495101Y496831D01*
X495027Y496735D01*
X494949Y496640D01*
X494868Y496549D01*
X494785Y496459D01*
X494699Y496373D01*
X494609Y496290D01*
X494518Y496209D01*
X494423Y496131D01*
X494327Y496057D01*
X494228Y495985D01*
X494126Y495917D01*
X494023Y495852D01*
X493918Y495790D01*
X493810Y495732D01*
X493701Y495677D01*
X493590Y495626D01*
X493478Y495578D01*
X493364Y495534D01*
X493249Y495494D01*
X493132Y495457D01*
X493014Y495425D01*
X492896Y495396D01*
X492776Y495370D01*
X492656Y495349D01*
X492535Y495331D01*
X492414Y495318D01*
X492292Y495308D01*
X492170Y495302D01*
X492048Y495300D01*
X495858Y593090D02*
X495856Y593212D01*
X495850Y593334D01*
X495840Y593456D01*
X495827Y593577D01*
X495809Y593698D01*
X495788Y593818D01*
X495762Y593938D01*
X495733Y594056D01*
X495701Y594174D01*
X495664Y594291D01*
X495624Y594406D01*
X495580Y594520D01*
X495532Y594632D01*
X495481Y594743D01*
X495426Y594852D01*
X495368Y594960D01*
X495306Y595065D01*
X495241Y595168D01*
X495173Y595270D01*
X495101Y595369D01*
X495027Y595465D01*
X494949Y595560D01*
X494868Y595651D01*
X494785Y595741D01*
X494699Y595827D01*
X494609Y595910D01*
X494518Y595991D01*
X494423Y596069D01*
X494327Y596143D01*
X494228Y596215D01*
X494126Y596283D01*
X494023Y596348D01*
X493918Y596410D01*
X493810Y596468D01*
X493701Y596523D01*
X493590Y596574D01*
X493478Y596622D01*
X493364Y596666D01*
X493249Y596706D01*
X493132Y596743D01*
X493014Y596775D01*
X492896Y596804D01*
X492776Y596830D01*
X492656Y596851D01*
X492535Y596869D01*
X492414Y596882D01*
X492292Y596892D01*
X492170Y596898D01*
X492048Y596900D01*
X456742Y499110D02*
X456744Y498988D01*
X456750Y498866D01*
X456760Y498744D01*
X456773Y498623D01*
X456791Y498502D01*
X456812Y498382D01*
X456838Y498262D01*
X456867Y498144D01*
X456899Y498026D01*
X456936Y497909D01*
X456976Y497794D01*
X457020Y497680D01*
X457068Y497568D01*
X457119Y497457D01*
X457174Y497348D01*
X457232Y497240D01*
X457294Y497135D01*
X457359Y497032D01*
X457427Y496930D01*
X457499Y496831D01*
X457573Y496735D01*
X457651Y496640D01*
X457732Y496549D01*
X457815Y496459D01*
X457901Y496373D01*
X457991Y496290D01*
X458082Y496209D01*
X458177Y496131D01*
X458273Y496057D01*
X458372Y495985D01*
X458474Y495917D01*
X458577Y495852D01*
X458682Y495790D01*
X458790Y495732D01*
X458899Y495677D01*
X459010Y495626D01*
X459122Y495578D01*
X459236Y495534D01*
X459351Y495494D01*
X459468Y495457D01*
X459586Y495425D01*
X459704Y495396D01*
X459824Y495370D01*
X459944Y495349D01*
X460065Y495331D01*
X460186Y495318D01*
X460308Y495308D01*
X460430Y495302D01*
X460552Y495300D01*
X456742Y499110D02*
X456742Y593090D01*
X460552Y596900D02*
X492048Y596900D01*
X492048Y495300D02*
X460552Y495300D01*
X471220Y495300D02*
X471222Y495441D01*
X471228Y495582D01*
X471238Y495723D01*
X471251Y495864D01*
X471269Y496004D01*
X471291Y496143D01*
X471316Y496282D01*
X471345Y496421D01*
X471378Y496558D01*
X471415Y496694D01*
X471456Y496829D01*
X471500Y496964D01*
X471548Y497096D01*
X471600Y497228D01*
X471655Y497358D01*
X471714Y497486D01*
X471777Y497613D01*
X471843Y497737D01*
X471912Y497860D01*
X471985Y497981D01*
X472061Y498100D01*
X472141Y498217D01*
X472224Y498331D01*
X472309Y498444D01*
X472398Y498553D01*
X472490Y498661D01*
X472585Y498765D01*
X472683Y498867D01*
X472784Y498966D01*
X472887Y499063D01*
X472993Y499156D01*
X473101Y499246D01*
X473212Y499334D01*
X473325Y499418D01*
X473441Y499499D01*
X473559Y499577D01*
X473679Y499652D01*
X473801Y499723D01*
X473925Y499791D01*
X474051Y499855D01*
X474178Y499916D01*
X474307Y499973D01*
X474438Y500026D01*
X474570Y500076D01*
X474703Y500123D01*
X474838Y500165D01*
X474974Y500204D01*
X475111Y500239D01*
X475248Y500270D01*
X475387Y500297D01*
X475526Y500321D01*
X475666Y500340D01*
X475806Y500356D01*
X475947Y500368D01*
X476088Y500376D01*
X476229Y500380D01*
X476371Y500380D01*
X476512Y500376D01*
X476653Y500368D01*
X476794Y500356D01*
X476934Y500340D01*
X477074Y500321D01*
X477213Y500297D01*
X477352Y500270D01*
X477489Y500239D01*
X477626Y500204D01*
X477762Y500165D01*
X477897Y500123D01*
X478030Y500076D01*
X478162Y500026D01*
X478293Y499973D01*
X478422Y499916D01*
X478549Y499855D01*
X478675Y499791D01*
X478799Y499723D01*
X478921Y499652D01*
X479041Y499577D01*
X479159Y499499D01*
X479275Y499418D01*
X479388Y499334D01*
X479499Y499246D01*
X479607Y499156D01*
X479713Y499063D01*
X479816Y498966D01*
X479917Y498867D01*
X480015Y498765D01*
X480110Y498661D01*
X480202Y498553D01*
X480291Y498444D01*
X480376Y498331D01*
X480459Y498217D01*
X480539Y498100D01*
X480615Y497981D01*
X480688Y497860D01*
X480757Y497737D01*
X480823Y497613D01*
X480886Y497486D01*
X480945Y497358D01*
X481000Y497228D01*
X481052Y497096D01*
X481100Y496964D01*
X481144Y496829D01*
X481185Y496694D01*
X481222Y496558D01*
X481255Y496421D01*
X481284Y496282D01*
X481309Y496143D01*
X481331Y496004D01*
X481349Y495864D01*
X481362Y495723D01*
X481372Y495582D01*
X481378Y495441D01*
X481380Y495300D01*
D16*
X460298Y495300D02*
X460298Y596900D01*
D17*
X558312Y711500D02*
X558312Y736900D01*
X558312Y813100D01*
X393212Y813100D02*
X393212Y736900D01*
X393212Y711500D01*
X558312Y711500D01*
D18*
X558312Y736900D02*
X393212Y736900D01*
D17*
X393212Y813100D02*
X558312Y813100D01*
D19*
X534436Y775000D03*
X494812Y775000D03*
X455188Y775000D03*
X415564Y775000D03*
M02*
