G04 EAGLE Gerber RS-274X export*
G75*
%MOMM*%
%FSLAX34Y34*%
%LPD*%
%INSoldermask Bottom*%
%IPPOS*%
%AMOC8*
5,1,8,0,0,1.08239X$1,22.5*%
G01*
%ADD10R,1.703200X1.503200*%
%ADD11R,1.503200X1.703200*%
%ADD12P,1.869504X8X202.500000*%
%ADD13C,3.505200*%
%ADD14R,2.235200X0.863600*%
%ADD15C,2.717800*%


D10*
X326600Y593700D03*
X326600Y574700D03*
D11*
X461800Y635000D03*
X480800Y635000D03*
D10*
X377400Y555600D03*
X377400Y536600D03*
D11*
X378800Y431800D03*
X359800Y431800D03*
D10*
X319300Y504800D03*
X319300Y485800D03*
D12*
X480364Y165100D03*
X452932Y165100D03*
X425500Y165100D03*
X398068Y165100D03*
X370636Y165100D03*
X466648Y190500D03*
X439216Y190500D03*
X411784Y190500D03*
X384352Y190500D03*
D13*
X550722Y177800D03*
X300278Y177800D03*
D14*
X445566Y501650D03*
X507034Y501650D03*
X445566Y514350D03*
X445566Y527050D03*
X507034Y514350D03*
X507034Y527050D03*
X445566Y539750D03*
X507034Y539750D03*
X445566Y552450D03*
X507034Y552450D03*
X445566Y565150D03*
X445566Y577850D03*
X507034Y565150D03*
X507034Y577850D03*
X445566Y590550D03*
X507034Y590550D03*
D15*
X455188Y762427D02*
X455188Y787573D01*
X494812Y787573D02*
X494812Y762427D01*
X534436Y762427D02*
X534436Y787573D01*
X415564Y787573D02*
X415564Y762427D01*
M02*
