%TF.GenerationSoftware,Altium Limited,Altium Designer,25.8.1 (18)*%
G04 Layer_Physical_Order=1*
G04 Layer_Color=255*
%FSLAX45Y45*%
%MOMM*%
%TF.SameCoordinates,0F1D7CA1-D0BB-481A-9C26-AB2C8EFFB1FF*%
%TF.FilePolarity,Positive*%
%TF.FileFunction,Copper,L1,Top,Signal*%
%TF.Part,Single*%
G01*
G75*
%TA.AperFunction,SMDPad,CuDef*%
%ADD10R,1.00000X1.25000*%
%ADD11R,0.60000X1.35000*%
%ADD12R,2.50000X4.40000*%
%ADD13R,1.50000X1.00000*%
%ADD14R,1.00000X1.50000*%
%ADD15R,1.52500X0.65000*%
%ADD16R,1.25000X1.00000*%
%ADD17R,4.50000X2.10000*%
%ADD18R,2.00000X4.10000*%
%ADD19R,4.40000X2.50000*%
%ADD20R,4.10000X2.00000*%
%ADD21R,0.65000X1.52500*%
%ADD22R,1.80000X1.34000*%
%ADD23R,0.85000X1.35000*%
%ADD24R,2.30000X3.30000*%
%ADD25R,3.30000X2.30000*%
%ADD26R,5.20000X3.85000*%
%TA.AperFunction,Conductor*%
%ADD27C,0.60000*%
%ADD28C,1.00000*%
%ADD29C,0.25400*%
%TA.AperFunction,ComponentPad*%
%ADD30C,1.40000*%
%ADD31C,1.52000*%
%ADD32C,1.60000*%
%ADD33C,3.00000*%
%ADD34R,1.52000X1.52000*%
%ADD35R,1.60000X1.60000*%
%ADD36C,2.00000*%
%ADD37R,1.40000X1.40000*%
%ADD38C,4.80000*%
%ADD39R,2.00000X2.00000*%
%TA.AperFunction,ViaPad*%
%ADD40C,1.27000*%
D10*
X15660001Y12540000D02*
D03*
X15460001D02*
D03*
X14970000Y11170000D02*
D03*
X11419998Y12850000D02*
D03*
X8989998Y11410000D02*
D03*
X11220002Y12850000D02*
D03*
X8790002Y11410000D02*
D03*
X15170000Y11170000D02*
D03*
D11*
X14425000Y13589999D02*
D03*
X14614999D02*
D03*
X14520000Y13830000D02*
D03*
D12*
X12340000Y14480000D02*
D03*
Y15320000D02*
D03*
D13*
X13480000Y12854997D02*
D03*
X9000000Y12444998D02*
D03*
Y12155002D02*
D03*
X13480000Y12565002D02*
D03*
D14*
X11044998Y14230000D02*
D03*
X10755002D02*
D03*
D15*
X10901200Y13600500D02*
D03*
X10358800D02*
D03*
Y13219501D02*
D03*
Y13346500D02*
D03*
X16051199Y11937500D02*
D03*
X9742400Y15267000D02*
D03*
X9200000Y15013000D02*
D03*
Y14886000D02*
D03*
X10358800Y13473500D02*
D03*
X9200000Y15267000D02*
D03*
Y15139999D02*
D03*
X10901200Y13473500D02*
D03*
Y13346500D02*
D03*
Y13219501D02*
D03*
X15508800Y12064500D02*
D03*
Y11937500D02*
D03*
Y11810500D02*
D03*
Y11683500D02*
D03*
Y11556500D02*
D03*
Y11429500D02*
D03*
Y11302500D02*
D03*
Y11175500D02*
D03*
X16051199D02*
D03*
Y11302500D02*
D03*
Y11429500D02*
D03*
Y11556500D02*
D03*
Y11683500D02*
D03*
Y11810500D02*
D03*
Y12064500D02*
D03*
X9742400Y15139999D02*
D03*
Y15013000D02*
D03*
Y14886000D02*
D03*
D16*
X16320000Y12290000D02*
D03*
X9750000Y14230002D02*
D03*
X16320000Y12090000D02*
D03*
X9750000Y14429997D02*
D03*
X15160001Y12170000D02*
D03*
Y11970000D02*
D03*
X15170000Y11650000D02*
D03*
Y11450000D02*
D03*
D17*
X12105000Y11690000D02*
D03*
X13014999D02*
D03*
D18*
X8210000Y15285001D02*
D03*
Y14414999D02*
D03*
D19*
X8720000Y13380000D02*
D03*
X7880000D02*
D03*
D20*
X10345000Y12050000D02*
D03*
X7925000Y10130000D02*
D03*
X8795000D02*
D03*
X11215000Y12050000D02*
D03*
D21*
X8440500Y10858800D02*
D03*
X8059500Y11401200D02*
D03*
X8186500Y10858800D02*
D03*
X8313500D02*
D03*
X8059500D02*
D03*
X8186500Y11401200D02*
D03*
X8313500D02*
D03*
X8440500D02*
D03*
D22*
X14510001Y14137000D02*
D03*
Y14423000D02*
D03*
D23*
X14592500Y13310001D02*
D03*
X14427499D02*
D03*
D24*
X7875000Y12170000D02*
D03*
X8465000D02*
D03*
D25*
X10760000Y15335001D02*
D03*
Y14745000D02*
D03*
D26*
X12540000Y12580000D02*
D03*
Y13580000D02*
D03*
D27*
X12340000Y14480000D02*
X12350000Y14470000D01*
Y14060001D02*
Y14470000D01*
X14614999Y13589999D02*
X14830000D01*
X13480000Y12854997D02*
Y13160001D01*
X11419998Y12850000D02*
X11640000D01*
X11044998Y14230000D02*
X11280000D01*
X10900000Y13810001D02*
X10900600Y13809399D01*
X10359400Y13809399D02*
X10360000Y13810001D01*
X10900600Y13601100D02*
Y13809399D01*
Y13601100D02*
X10901200Y13600500D01*
X10359400Y13601100D02*
Y13809399D01*
X10358800Y13219501D02*
Y13346500D01*
Y13473500D01*
Y13600500D02*
X10359400Y13601100D01*
X10358800Y13473500D02*
Y13600500D01*
X16320000Y12290000D02*
X16325000Y12285000D01*
X16535001D02*
X16539999Y12280000D01*
X16325000Y12285000D02*
X16535001D01*
X15214999Y12545000D02*
X15455000D01*
X15460001Y12540000D01*
X15210001Y12550000D02*
X15214999Y12545000D01*
X16328751Y11938750D02*
X16330000Y11940000D01*
X16052451Y11938750D02*
X16328751D01*
X16051199Y11937500D02*
X16052451Y11938750D01*
X14964999Y11165000D02*
X14970000Y11170000D01*
X11680000Y11670000D02*
X12085000D01*
X12105000Y11690000D01*
X14785001Y11165000D02*
X14964999D01*
X14780000Y11160000D02*
X14785001Y11165000D01*
X9741200Y15268201D02*
Y15468800D01*
Y15268201D02*
X9742400Y15267000D01*
X9740000Y15470000D02*
X9741200Y15468800D01*
X9750000Y14039999D02*
Y14230002D01*
X9940000Y12230000D02*
X9952820Y12217180D01*
X8730000Y13370000D02*
X9300000D01*
X9002501Y12447499D02*
X9277499D01*
X9280000Y12450000D01*
X9200000Y15267000D02*
Y15470000D01*
Y15139999D02*
Y15267000D01*
X8005000Y15285001D02*
X8210000D01*
X7510000Y15189999D02*
X7520000Y15180000D01*
X7510000Y15189999D02*
X7512500Y15187500D01*
X7900000Y15180000D02*
X8005000Y15285001D01*
X9200000Y14886000D02*
Y15013000D01*
Y15139999D01*
X9000000Y12444998D02*
X9002501Y12447499D01*
X8720000Y13380000D02*
X8730000Y13370000D01*
X7520000Y15180000D02*
X7900000D01*
X10072820Y12217180D02*
X10240000Y12050000D01*
X10345000D01*
X9952820Y12217180D02*
X10072820D01*
X8989998Y11410000D02*
X9190000D01*
X8058900Y11400600D02*
X8059500Y11401200D01*
X7840600Y11400600D02*
X8058900D01*
X7840000Y11400000D02*
X7840600Y11400600D01*
X8058900Y10859400D02*
X8059500Y10858800D01*
X8186500D01*
X7840600Y10859400D02*
X8058900D01*
X8186500Y10858800D02*
X8313500D01*
X8440500D01*
X7905000Y10150000D02*
X7925000Y10130000D01*
X7840000Y10860000D02*
X7840600Y10859400D01*
X7590000Y10150000D02*
X7905000D01*
X7875000Y12170000D02*
Y13375000D01*
X7880000Y13380000D01*
X9742400Y14429997D02*
X9746200Y14433798D01*
X8224998Y14429997D02*
X9742400D01*
X8210000Y14414999D02*
X8224998Y14429997D01*
X8200000Y14425000D02*
X8210000Y14414999D01*
X7735000Y14425000D02*
X8200000D01*
X8785602Y11405600D02*
X8790002Y11401200D01*
Y10134998D02*
Y11401200D01*
Y10134998D02*
X8795000Y10130000D01*
X8790000Y10125000D02*
X8795000Y10130000D01*
X8790000Y9805000D02*
Y10125000D01*
X14510001Y14800000D02*
X14770000D01*
X14510001Y14423000D02*
Y14800000D01*
X15360001Y13610001D02*
Y14210001D01*
X14770000Y14800000D02*
X15360001Y14210001D01*
X16307500Y12090000D02*
X16320000D01*
X16282001Y12064500D02*
X16307500Y12090000D01*
X16051199Y12064500D02*
X16282001D01*
X16055600Y12815601D02*
X16060001Y12820000D01*
X16055600Y12067000D02*
Y12815601D01*
X16053101Y12064500D02*
X16055600Y12067000D01*
X16051199Y12064500D02*
X16053101D01*
X13439999Y13580000D02*
Y13700000D01*
X12540000Y13580000D02*
X13439999D01*
X13430000Y13710001D02*
X13439999Y13700000D01*
X11650000Y13580000D02*
X12540000D01*
X11543500Y13473500D02*
X11650000Y13580000D01*
X10901200Y13473500D02*
X11543500D01*
X13760001Y11960000D02*
Y13260001D01*
X13489999Y11690000D02*
X13760001Y11960000D01*
X13439999Y13580000D02*
X13760001Y13260001D01*
X13014999Y11690000D02*
X13489999D01*
X13014999Y11445000D02*
Y11690000D01*
X12390000Y10820000D02*
X13014999Y11445000D01*
X12390000Y10400000D02*
Y10820000D01*
X14230000Y12760000D02*
X14592500Y13122501D01*
X14230000Y12490000D02*
Y12760000D01*
X14510001Y14137000D02*
X14803000D01*
X15020000Y13920000D01*
Y13339999D02*
Y13920000D01*
Y13339999D02*
X15142999Y13217000D01*
X15357001D01*
X14592500Y13122501D02*
Y13310001D01*
X14425000Y13552499D02*
Y13589999D01*
Y13552499D02*
X14427499Y13550000D01*
Y13310001D02*
Y13550000D01*
X14510001Y14137000D02*
X14520000Y14127000D01*
Y13830000D02*
Y14127000D01*
X15750000Y13610001D02*
X16560001D01*
X15357001Y13217000D02*
X15750000Y13610001D01*
X11220002Y12850000D02*
Y13099998D01*
X11100500Y13219501D02*
X11220002Y13099998D01*
X10901200Y13219501D02*
X11100500D01*
X11230000Y9540000D02*
Y10100000D01*
Y9540000D02*
X11420000Y9350000D01*
X17050000D01*
X17130000Y9430000D01*
Y14650000D01*
X16950000Y14830000D02*
X17130000Y14650000D01*
X16560001Y14830000D02*
X16950000D01*
X13470000Y13880000D02*
X13900000Y13450000D01*
Y11610000D02*
Y13450000D01*
X11940000Y13880000D02*
X13470000D01*
X11840000Y13980000D02*
X11940000Y13880000D01*
X8345000Y13750000D02*
X9860000D01*
X10090000Y13980000D02*
X11840000D01*
X9860000Y13750000D02*
X10090000Y13980000D01*
X12989999Y10100000D02*
X13139999Y10250000D01*
Y10850000D01*
X13900000Y11610000D01*
X7975000Y13380000D02*
X8345000Y13750000D01*
X7880000Y13380000D02*
X7975000D01*
X14060001Y11170000D02*
Y14270000D01*
X13289999Y10400000D02*
X14060001Y11170000D01*
X13010001Y15320000D02*
X14060001Y14270000D01*
X12340000Y15320000D02*
X13010001D01*
X12225148Y12634853D02*
X12485147D01*
X12554998Y12565002D01*
X10901200Y13346500D02*
X11513500D01*
X12225148Y12634853D01*
X12554998Y12565002D02*
X13480000D01*
X10755002Y14230000D02*
Y14740002D01*
X10760000Y14745000D01*
X9742400Y15013000D02*
X10017000D01*
X10285000Y14745000D01*
X10760000D01*
X12325000Y15335001D02*
X12340000Y15320000D01*
X10760000Y15335001D02*
X12325000D01*
X10285000D02*
X10760000D01*
X10090000Y15139999D02*
X10285000Y15335001D01*
X9742400Y15139999D02*
X10090000D01*
X9742400Y14886000D02*
X9743700D01*
X9746200Y14883501D01*
Y14433798D02*
Y14883501D01*
X7460000Y14150000D02*
X7735000Y14425000D01*
X7460000Y14150000D02*
X7460000Y9370000D01*
X7570000Y9260000D02*
X9670000D01*
X7460000Y9370000D02*
X7570000Y9260000D01*
X9670000D02*
X10340000Y9930000D01*
X10990000D01*
X11080000Y10020000D01*
Y10490000D01*
X11000000Y10570000D02*
X11080000Y10490000D01*
X10800000Y10570000D02*
X11000000D01*
X10630000Y10400000D02*
X10800000Y10570000D01*
X8825000Y9770000D02*
X9830000D01*
X10328600Y10268600D01*
X10798600D01*
X8479998Y12155002D02*
X9000000D01*
X8465000Y12170000D02*
X8479998Y12155002D01*
X7875000Y11835000D02*
Y12170000D01*
Y11835000D02*
X8184000Y11526000D01*
Y11403700D02*
Y11526000D01*
Y11403700D02*
X8186500Y11401200D01*
X8465000Y11715000D02*
Y12170000D01*
X8313500Y11563500D02*
X8465000Y11715000D01*
X8313500Y11401200D02*
Y11563500D01*
X8440500Y11403100D02*
X8443000Y11405600D01*
X8440500Y11401200D02*
Y11403100D01*
X8443000Y11405600D02*
X8785602D01*
X8790000Y9805000D02*
X8825000Y9770000D01*
X10798600Y10268600D02*
X10930000Y10400000D01*
D28*
X11215000Y12844998D02*
X11220001Y12849998D01*
X11215000Y12050000D02*
Y12844998D01*
Y12050000D02*
X11225000Y12040000D01*
Y11090000D02*
Y12040000D01*
X11227500Y10402500D02*
Y11087500D01*
Y10402500D02*
X11230000Y10400000D01*
X11225000Y11090000D02*
X11227500Y11087500D01*
D29*
X16489999Y10640000D02*
X16870000Y11020000D01*
X15821001Y10414000D02*
X15836307Y10429307D01*
X15930000Y10640000D02*
X16489999D01*
X16870000Y11020000D02*
Y11740000D01*
X16051199Y11810500D02*
X16799500D01*
X15836307Y10429307D02*
Y10546307D01*
X15930000Y10640000D01*
X16799500Y11810500D02*
X16870000Y11740000D01*
X15547000Y10414000D02*
X15553999Y10421000D01*
Y10574000D02*
X15710001Y10730000D01*
X16420000D02*
X16770000Y11080000D01*
X16676500Y11683500D02*
X16770000Y11590000D01*
X15553999Y10421000D02*
Y10574000D01*
X15710001Y10730000D02*
X16420000D01*
X16770000Y11080000D02*
Y11590000D01*
X16051199Y11683500D02*
X16676500D01*
X14039999Y10930000D02*
X15570000D01*
X13489999Y10060000D02*
Y10380000D01*
X14039999Y10930000D01*
X15570000D02*
X15689999Y11050000D01*
Y11430000D01*
X14120000Y10840000D02*
X15630000D01*
X13589999Y10310000D02*
X14120000Y10840000D01*
X13589999Y10020000D02*
Y10310000D01*
X15630000Y10840000D02*
X15860001Y11070000D01*
X12920000Y9950000D02*
X13380000D01*
X12830000Y10040000D02*
X12920000Y9950000D01*
X13380000D02*
X13489999Y10060000D01*
X12780000Y9870000D02*
X13439999D01*
X13589999Y10020000D01*
X12690000Y9960000D02*
X12780000Y9870000D01*
X12830000Y10040000D02*
Y10160000D01*
X12974719Y10304719D01*
Y10384719D01*
X12989999Y10400000D01*
X12690000Y9960000D02*
Y10100000D01*
X15860001Y11070000D02*
Y11400000D01*
X15889500Y11429500D01*
X16051199D01*
X15816499Y11556500D02*
X16051199D01*
X15689999Y11430000D02*
X15816499Y11556500D01*
X15369501Y11429500D02*
X15508800D01*
X15300000Y11360000D02*
X15369501Y11429500D01*
X15300000Y11234679D02*
Y11360000D01*
X15285121Y11219800D02*
X15300000Y11234679D01*
X15207300Y11219800D02*
X15285121D01*
X15170000Y11182500D02*
X15207300Y11219800D01*
X15170000Y11170000D02*
Y11182500D01*
X15376500Y11556500D02*
X15508800D01*
X15270000Y11450000D02*
X15376500Y11556500D01*
X15170000Y11450000D02*
X15270000D01*
X15170000Y11650000D02*
X15203500Y11683500D01*
X15508800D01*
X15660001Y12044879D02*
Y12540000D01*
X15645120Y12030000D02*
X15660001Y12044879D01*
X15645050Y12030000D02*
X15645120D01*
X15552550Y11937500D02*
X15645050Y12030000D01*
X15508800Y11937500D02*
X15552550D01*
X15172501Y11970000D02*
X15332001Y11810500D01*
X15508800D01*
X15160001Y11970000D02*
X15172501D01*
X15160001Y12170000D02*
X15289999D01*
X15395500Y12064500D01*
X15508800D01*
D30*
X14999001Y10414000D02*
D03*
X15821001D02*
D03*
X15547000D02*
D03*
X15273000D02*
D03*
X15958000Y10160000D02*
D03*
X15684000D02*
D03*
X15410001D02*
D03*
X15136000D02*
D03*
D31*
X12390000Y10100000D02*
D03*
X10630000D02*
D03*
X12690000Y10400000D02*
D03*
X12989999D02*
D03*
X13289999D02*
D03*
X12690000Y10100000D02*
D03*
X12989999D02*
D03*
X12390000Y10400000D02*
D03*
X10930000Y10100000D02*
D03*
Y10400000D02*
D03*
X10630000D02*
D03*
X11230000D02*
D03*
D32*
X10475000Y10990000D02*
D03*
D33*
X12606000Y9668000D02*
D03*
X13074001D02*
D03*
X10930000D02*
D03*
D34*
X13289999Y10100000D02*
D03*
X11230000D02*
D03*
D35*
X11225000Y11090000D02*
D03*
D36*
X15360001Y13610001D02*
D03*
X16560001Y14830000D02*
D03*
X15360001D02*
D03*
X16560001Y13610001D02*
D03*
D37*
X16095000Y10414000D02*
D03*
D38*
X16797000Y10287000D02*
D03*
X14297000D02*
D03*
D39*
X15960001Y13410001D02*
D03*
D40*
X16400000Y15539999D02*
D03*
X16989999Y15130000D02*
D03*
X15489999Y15530000D02*
D03*
X13960001Y14739999D02*
D03*
X16950000Y14310001D02*
D03*
X13520000Y14300000D02*
D03*
X13080000Y15550000D02*
D03*
X13110001Y14750000D02*
D03*
X13070000Y14270000D02*
D03*
X14830000Y13589999D02*
D03*
X16980000Y13560001D02*
D03*
X13480000Y13160001D02*
D03*
X12350000Y14060001D02*
D03*
X11640000Y13750000D02*
D03*
X11490000Y14639999D02*
D03*
X11300000Y15539999D02*
D03*
X11280000Y14230000D02*
D03*
X10360000Y13810001D02*
D03*
X10900000D02*
D03*
X11240000Y13739999D02*
D03*
X16960001Y12830000D02*
D03*
X16530000Y12780000D02*
D03*
X16539999Y12280000D02*
D03*
X15210001Y12550000D02*
D03*
X16970000Y12190000D02*
D03*
X16989999Y11380000D02*
D03*
Y10800000D02*
D03*
X16330000Y11940000D02*
D03*
X14639999Y12690000D02*
D03*
X14650000Y12230000D02*
D03*
X14270000Y11380000D02*
D03*
X11640000Y12850000D02*
D03*
X10370000Y12810001D02*
D03*
X11680000Y11670000D02*
D03*
X10920000Y12830000D02*
D03*
X14780000Y11160000D02*
D03*
X14910001Y10680000D02*
D03*
X13839999Y9720000D02*
D03*
X11830000Y11120000D02*
D03*
Y10480000D02*
D03*
X10160000Y14280000D02*
D03*
X9740000Y15470000D02*
D03*
X9130000Y14089999D02*
D03*
X9750000Y14039999D02*
D03*
X10090000Y13350000D02*
D03*
X9980000Y12580000D02*
D03*
X9420000Y12910001D02*
D03*
X9300000Y13370000D02*
D03*
X9280000Y12450000D02*
D03*
X9200000Y15470000D02*
D03*
X7510000Y15189999D02*
D03*
X9010000Y14610001D02*
D03*
X9050000Y12889999D02*
D03*
X9870000Y11630000D02*
D03*
X9940000Y12230000D02*
D03*
X9390000Y12130000D02*
D03*
X9190000Y11410000D02*
D03*
X9640000Y11100000D02*
D03*
X9340000Y10540000D02*
D03*
X9510000Y9470000D02*
D03*
X9720000Y10140000D02*
D03*
X9080000Y10970000D02*
D03*
X8760000Y9430000D02*
D03*
X7840000Y11400000D02*
D03*
Y10860000D02*
D03*
X7590000Y11590000D02*
D03*
Y10150000D02*
D03*
X7690000Y9430000D02*
D03*
X16060001Y12820000D02*
D03*
X14510001Y14800000D02*
D03*
X13430000Y13710001D02*
D03*
X14230000Y12490000D02*
D03*
%TF.MD5,1261f641fa81cb2eba990dc1a0a81f5c*%
M02*
