G04*
G04 #@! TF.GenerationSoftware,Altium Limited,Altium Designer,25.8.1 (18)*
G04*
G04 Layer_Color=8421504*
%FSLAX44Y44*%
%MOMM*%
G71*
G04*
G04 #@! TF.SameCoordinates,3D28AD71-2A70-4CFD-9337-590B9DAEE029*
G04*
G04*
G04 #@! TF.FilePolarity,Positive*
G04*
G01*
G75*
%ADD15R,4.1000X2.0000*%
%ADD16R,0.6500X1.5250*%
%ADD17R,1.0000X1.2500*%
%ADD18R,2.3000X3.3000*%
%ADD19R,1.5000X1.0000*%
%ADD20R,4.5000X2.1000*%
%ADD21R,4.4000X2.5000*%
%ADD22R,2.0000X4.1000*%
%ADD23R,1.2500X1.0000*%
%ADD24R,1.5250X0.6500*%
%ADD25R,5.2000X3.8500*%
%ADD26R,1.0000X1.5000*%
%ADD27R,2.5000X4.4000*%
%ADD28R,3.3000X2.3000*%
%ADD29R,0.8500X1.3500*%
%ADD30R,1.8000X1.3400*%
%ADD31R,0.6000X1.3500*%
D15*
X156870Y103680D02*
D03*
X69870D02*
D03*
X398870Y295680D02*
D03*
X311870D02*
D03*
D16*
X121420Y230800D02*
D03*
X108720D02*
D03*
X96020D02*
D03*
X83320Y176560D02*
D03*
X108720D02*
D03*
X96020D02*
D03*
X83320Y230800D02*
D03*
X121420Y176560D02*
D03*
D17*
X156370Y231680D02*
D03*
X176370D02*
D03*
X399370Y375680D02*
D03*
X419370D02*
D03*
X794370Y207680D02*
D03*
X774370D02*
D03*
X823370Y344680D02*
D03*
X843370D02*
D03*
D18*
X123870Y307680D02*
D03*
X64870D02*
D03*
D19*
X177370Y306180D02*
D03*
Y335180D02*
D03*
X625370Y347180D02*
D03*
Y376180D02*
D03*
D20*
X578870Y259680D02*
D03*
X487870D02*
D03*
D21*
X65370Y428680D02*
D03*
X149370D02*
D03*
D22*
X98370Y532180D02*
D03*
Y619180D02*
D03*
D23*
X252370Y533680D02*
D03*
Y513680D02*
D03*
X793370Y287680D02*
D03*
Y307680D02*
D03*
X794370Y235680D02*
D03*
Y255680D02*
D03*
X909370Y299680D02*
D03*
Y319680D02*
D03*
D24*
X251610Y579280D02*
D03*
Y591980D02*
D03*
Y604680D02*
D03*
X197370D02*
D03*
Y617380D02*
D03*
Y579280D02*
D03*
Y591980D02*
D03*
X251610Y617380D02*
D03*
X367490Y412630D02*
D03*
Y425330D02*
D03*
Y438030D02*
D03*
X313250D02*
D03*
Y425330D02*
D03*
Y412630D02*
D03*
Y450730D02*
D03*
X367490D02*
D03*
X882490Y297130D02*
D03*
Y271730D02*
D03*
Y259030D02*
D03*
Y246330D02*
D03*
Y233630D02*
D03*
Y220930D02*
D03*
Y208230D02*
D03*
X828250D02*
D03*
Y220930D02*
D03*
Y233630D02*
D03*
Y246330D02*
D03*
Y259030D02*
D03*
Y271730D02*
D03*
Y284430D02*
D03*
Y297130D02*
D03*
X882490Y284430D02*
D03*
D25*
X531370Y448680D02*
D03*
Y348680D02*
D03*
D26*
X352870Y513680D02*
D03*
X381870D02*
D03*
D27*
X511370Y622680D02*
D03*
Y538680D02*
D03*
D28*
X353370Y565180D02*
D03*
Y624180D02*
D03*
D29*
X720120Y421680D02*
D03*
X736620D02*
D03*
D30*
X728370Y532980D02*
D03*
Y504380D02*
D03*
D31*
X729370Y473680D02*
D03*
X738870Y449680D02*
D03*
X719870D02*
D03*
M02*
