G04*
G04 #@! TF.GenerationSoftware,Altium Limited,Altium Designer,25.8.1 (18)*
G04*
G04 Layer_Physical_Order=2*
G04 Layer_Color=16711680*
%FSLAX44Y44*%
%MOMM*%
G71*
G04*
G04 #@! TF.SameCoordinates,3D28AD71-2A70-4CFD-9337-590B9DAEE029*
G04*
G04*
G04 #@! TF.FilePolarity,Positive*
G04*
G01*
G75*
%ADD43R,1.6000X1.6000*%
%ADD44C,1.6000*%
%ADD48R,2.0000X2.0000*%
%ADD49C,2.0000*%
%ADD52C,0.6000*%
%ADD53C,1.0000*%
%ADD54C,1.5200*%
%ADD55R,1.5200X1.5200*%
%ADD56C,3.0000*%
%ADD57C,4.8000*%
%ADD58C,1.4000*%
%ADD59R,1.4000X1.4000*%
%ADD60C,1.2700*%
G36*
X979379Y659704D02*
X984001Y657789D01*
X988161Y655010D01*
X991699Y651471D01*
X994479Y647311D01*
X996394Y642689D01*
X997370Y637782D01*
Y635280D01*
Y36080D01*
Y33578D01*
X996394Y28671D01*
X994479Y24049D01*
X991699Y19888D01*
X988161Y16351D01*
X984001Y13571D01*
X979379Y11656D01*
X974472Y10680D01*
X30268D01*
X25361Y11656D01*
X20739Y13571D01*
X16578Y16351D01*
X13040Y19888D01*
X10261Y24049D01*
X8346Y28671D01*
X7370Y33578D01*
Y36080D01*
Y635280D01*
Y637782D01*
X8346Y642689D01*
X10261Y647311D01*
X13040Y651471D01*
X16578Y655010D01*
X20739Y657789D01*
X25361Y659704D01*
X30268Y660680D01*
X974472D01*
X979379Y659704D01*
D02*
G37*
%LPC*%
G36*
X586640Y654543D02*
Y646950D01*
X594233D01*
X593654Y649111D01*
X592484Y651139D01*
X590829Y652794D01*
X588801Y653964D01*
X586640Y654543D01*
D02*
G37*
G36*
X584100D02*
X581939Y653964D01*
X579911Y652794D01*
X578256Y651139D01*
X577086Y649111D01*
X576507Y646950D01*
X584100D01*
Y654543D01*
D02*
G37*
G36*
X918640Y653543D02*
Y645950D01*
X926233D01*
X925654Y648111D01*
X924484Y650139D01*
X922829Y651794D01*
X920801Y652964D01*
X918640Y653543D01*
D02*
G37*
G36*
X916100D02*
X913939Y652964D01*
X911911Y651794D01*
X910256Y650139D01*
X909086Y648111D01*
X908507Y645950D01*
X916100D01*
Y653543D01*
D02*
G37*
G36*
X408640D02*
Y645950D01*
X416233D01*
X415654Y648111D01*
X414484Y650139D01*
X412829Y651794D01*
X410801Y652964D01*
X408640Y653543D01*
D02*
G37*
G36*
X406100D02*
X403939Y652964D01*
X401911Y651794D01*
X400256Y650139D01*
X399086Y648111D01*
X398507Y645950D01*
X406100D01*
Y653543D01*
D02*
G37*
G36*
X827640Y652543D02*
Y644950D01*
X835233D01*
X834654Y647111D01*
X833484Y649139D01*
X831829Y650794D01*
X829801Y651964D01*
X827640Y652543D01*
D02*
G37*
G36*
X825100D02*
X822939Y651964D01*
X820911Y650794D01*
X819256Y649139D01*
X818086Y647111D01*
X817507Y644950D01*
X825100D01*
Y652543D01*
D02*
G37*
G36*
X252640Y646543D02*
Y638950D01*
X260233D01*
X259654Y641111D01*
X258484Y643139D01*
X256829Y644794D01*
X254801Y645964D01*
X252640Y646543D01*
D02*
G37*
G36*
X250100D02*
X247939Y645964D01*
X245911Y644794D01*
X244256Y643139D01*
X243086Y641111D01*
X242507Y638950D01*
X250100D01*
Y646543D01*
D02*
G37*
G36*
X198640D02*
Y638950D01*
X206233D01*
X205654Y641111D01*
X204484Y643139D01*
X202829Y644794D01*
X200801Y645964D01*
X198640Y646543D01*
D02*
G37*
G36*
X196100D02*
X193939Y645964D01*
X191911Y644794D01*
X190256Y643139D01*
X189086Y641111D01*
X188507Y638950D01*
X196100D01*
Y646543D01*
D02*
G37*
G36*
X594233Y644410D02*
X586640D01*
Y636817D01*
X588801Y637396D01*
X590829Y638566D01*
X592484Y640221D01*
X593654Y642249D01*
X594233Y644410D01*
D02*
G37*
G36*
X584100D02*
X576507D01*
X577086Y642249D01*
X578256Y640221D01*
X579911Y638566D01*
X581939Y637396D01*
X584100Y636817D01*
Y644410D01*
D02*
G37*
G36*
X926233Y643410D02*
X918640D01*
Y635817D01*
X920801Y636396D01*
X922829Y637566D01*
X924484Y639221D01*
X925654Y641249D01*
X926233Y643410D01*
D02*
G37*
G36*
X916100D02*
X908507D01*
X909086Y641249D01*
X910256Y639221D01*
X911911Y637566D01*
X913939Y636396D01*
X916100Y635817D01*
Y643410D01*
D02*
G37*
G36*
X416233D02*
X408640D01*
Y635817D01*
X410801Y636396D01*
X412829Y637566D01*
X414484Y639221D01*
X415654Y641249D01*
X416233Y643410D01*
D02*
G37*
G36*
X406100D02*
X398507D01*
X399086Y641249D01*
X400256Y639221D01*
X401911Y637566D01*
X403939Y636396D01*
X406100Y635817D01*
Y643410D01*
D02*
G37*
G36*
X835233Y642410D02*
X827640D01*
Y634817D01*
X829801Y635396D01*
X831829Y636566D01*
X833484Y638221D01*
X834654Y640249D01*
X835233Y642410D01*
D02*
G37*
G36*
X825100D02*
X817507D01*
X818086Y640249D01*
X819256Y638221D01*
X820911Y636566D01*
X822939Y635396D01*
X825100Y634817D01*
Y642410D01*
D02*
G37*
G36*
X260233Y636410D02*
X252640D01*
Y628817D01*
X254801Y629396D01*
X256829Y630566D01*
X258484Y632221D01*
X259654Y634249D01*
X260233Y636410D01*
D02*
G37*
G36*
X250100D02*
X242507D01*
X243086Y634249D01*
X244256Y632221D01*
X245911Y630566D01*
X247939Y629396D01*
X250100Y628817D01*
Y636410D01*
D02*
G37*
G36*
X206233D02*
X198640D01*
Y628817D01*
X200801Y629396D01*
X202829Y630566D01*
X204484Y632221D01*
X205654Y634249D01*
X206233Y636410D01*
D02*
G37*
G36*
X196100D02*
X188507D01*
X189086Y634249D01*
X190256Y632221D01*
X191911Y630566D01*
X193939Y629396D01*
X196100Y628817D01*
Y636410D01*
D02*
G37*
G36*
X29640Y618543D02*
Y610950D01*
X37233D01*
X36654Y613111D01*
X35484Y615139D01*
X33829Y616794D01*
X31801Y617964D01*
X29640Y618543D01*
D02*
G37*
G36*
X27100D02*
X24939Y617964D01*
X22911Y616794D01*
X21256Y615139D01*
X20086Y613111D01*
X19507Y610950D01*
X27100D01*
Y618543D01*
D02*
G37*
G36*
X977640Y612543D02*
Y604950D01*
X985233D01*
X984654Y607111D01*
X983484Y609139D01*
X981829Y610794D01*
X979801Y611964D01*
X977640Y612543D01*
D02*
G37*
G36*
X975100D02*
X972939Y611964D01*
X970911Y610794D01*
X969256Y609139D01*
X968086Y607111D01*
X967507Y604950D01*
X975100D01*
Y612543D01*
D02*
G37*
G36*
X37233Y608410D02*
X29640D01*
Y600817D01*
X31801Y601396D01*
X33829Y602566D01*
X35484Y604221D01*
X36654Y606249D01*
X37233Y608410D01*
D02*
G37*
G36*
X27100D02*
X19507D01*
X20086Y606249D01*
X21256Y604221D01*
X22911Y602566D01*
X24939Y601396D01*
X27100Y600817D01*
Y608410D01*
D02*
G37*
G36*
X985233Y602410D02*
X977640D01*
Y594817D01*
X979801Y595396D01*
X981829Y596566D01*
X983484Y598221D01*
X984654Y600249D01*
X985233Y602410D01*
D02*
G37*
G36*
X975100D02*
X967507D01*
X968086Y600249D01*
X969256Y598221D01*
X970911Y596566D01*
X972939Y595396D01*
X975100Y594817D01*
Y602410D01*
D02*
G37*
G36*
X589640Y574543D02*
Y566950D01*
X597233D01*
X596654Y569111D01*
X595484Y571139D01*
X593829Y572794D01*
X591801Y573964D01*
X589640Y574543D01*
D02*
G37*
G36*
X587100D02*
X584939Y573964D01*
X582911Y572794D01*
X581256Y571139D01*
X580086Y569111D01*
X579507Y566950D01*
X587100D01*
Y574543D01*
D02*
G37*
G36*
X674640Y573543D02*
Y565950D01*
X682233D01*
X681654Y568111D01*
X680484Y570139D01*
X678829Y571794D01*
X676801Y572964D01*
X674640Y573543D01*
D02*
G37*
G36*
X672100D02*
X669939Y572964D01*
X667911Y571794D01*
X666256Y570139D01*
X665086Y568111D01*
X664507Y565950D01*
X672100D01*
Y573543D01*
D02*
G37*
G36*
X935021Y586220D02*
X931719D01*
X928530Y585365D01*
X925670Y583714D01*
X923335Y581380D01*
X921685Y578520D01*
X920830Y575331D01*
Y572029D01*
X921685Y568840D01*
X923335Y565980D01*
X925670Y563646D01*
X928530Y561995D01*
X931719Y561140D01*
X935021D01*
X938210Y561995D01*
X941070Y563646D01*
X943404Y565980D01*
X945055Y568840D01*
X945910Y572029D01*
Y575331D01*
X945055Y578520D01*
X943404Y581380D01*
X941070Y583714D01*
X938210Y585365D01*
X935021Y586220D01*
D02*
G37*
G36*
X815021D02*
X811719D01*
X808530Y585365D01*
X805670Y583714D01*
X803335Y581380D01*
X801685Y578520D01*
X800830Y575331D01*
Y572029D01*
X801685Y568840D01*
X803335Y565980D01*
X805670Y563646D01*
X808530Y561995D01*
X811719Y561140D01*
X815021D01*
X818210Y561995D01*
X821070Y563646D01*
X823404Y565980D01*
X825055Y568840D01*
X825910Y572029D01*
Y575331D01*
X825055Y578520D01*
X823404Y581380D01*
X821070Y583714D01*
X818210Y585365D01*
X815021Y586220D01*
D02*
G37*
G36*
X597233Y564410D02*
X589640D01*
Y556817D01*
X591801Y557396D01*
X593829Y558566D01*
X595484Y560221D01*
X596654Y562249D01*
X597233Y564410D01*
D02*
G37*
G36*
X587100D02*
X579507D01*
X580086Y562249D01*
X581256Y560221D01*
X582911Y558566D01*
X584939Y557396D01*
X587100Y556817D01*
Y564410D01*
D02*
G37*
G36*
X427640Y563543D02*
Y555950D01*
X435233D01*
X434654Y558111D01*
X433484Y560139D01*
X431829Y561794D01*
X429801Y562964D01*
X427640Y563543D01*
D02*
G37*
G36*
X425100D02*
X422939Y562964D01*
X420911Y561794D01*
X419256Y560139D01*
X418086Y558111D01*
X417507Y555950D01*
X425100D01*
Y563543D01*
D02*
G37*
G36*
X682233Y563410D02*
X674640D01*
Y555817D01*
X676801Y556396D01*
X678829Y557566D01*
X680484Y559221D01*
X681654Y561249D01*
X682233Y563410D01*
D02*
G37*
G36*
X672100D02*
X664507D01*
X665086Y561249D01*
X666256Y559221D01*
X667911Y557566D01*
X669939Y556396D01*
X672100Y555817D01*
Y563410D01*
D02*
G37*
G36*
X179640Y560543D02*
Y552950D01*
X187233D01*
X186654Y555111D01*
X185484Y557139D01*
X183829Y558794D01*
X181801Y559964D01*
X179640Y560543D01*
D02*
G37*
G36*
X177100D02*
X174939Y559964D01*
X172911Y558794D01*
X171256Y557139D01*
X170086Y555111D01*
X169507Y552950D01*
X177100D01*
Y560543D01*
D02*
G37*
G36*
X435233Y553410D02*
X427640D01*
Y545817D01*
X429801Y546396D01*
X431829Y547566D01*
X433484Y549221D01*
X434654Y551249D01*
X435233Y553410D01*
D02*
G37*
G36*
X425100D02*
X417507D01*
X418086Y551249D01*
X419256Y549221D01*
X420911Y547566D01*
X422939Y546396D01*
X425100Y545817D01*
Y553410D01*
D02*
G37*
G36*
X187233Y550410D02*
X179640D01*
Y542817D01*
X181801Y543396D01*
X183829Y544566D01*
X185484Y546221D01*
X186654Y548249D01*
X187233Y550410D01*
D02*
G37*
G36*
X177100D02*
X169507D01*
X170086Y548249D01*
X171256Y546221D01*
X172911Y544566D01*
X174939Y543396D01*
X177100Y542817D01*
Y550410D01*
D02*
G37*
G36*
X973640Y530543D02*
Y522950D01*
X981233D01*
X980654Y525111D01*
X979484Y527139D01*
X977829Y528794D01*
X975801Y529964D01*
X973640Y530543D01*
D02*
G37*
G36*
X971100D02*
X968939Y529964D01*
X966911Y528794D01*
X965256Y527139D01*
X964086Y525111D01*
X963507Y522950D01*
X971100D01*
Y530543D01*
D02*
G37*
G36*
X630640Y529543D02*
Y521950D01*
X638233D01*
X637654Y524111D01*
X636484Y526139D01*
X634829Y527794D01*
X632801Y528964D01*
X630640Y529543D01*
D02*
G37*
G36*
X628100D02*
X625939Y528964D01*
X623911Y527794D01*
X622256Y526139D01*
X621086Y524111D01*
X620507Y521950D01*
X628100D01*
Y529543D01*
D02*
G37*
G36*
X294640Y527543D02*
Y519950D01*
X302233D01*
X301654Y522111D01*
X300484Y524139D01*
X298829Y525794D01*
X296801Y526964D01*
X294640Y527543D01*
D02*
G37*
G36*
X292100D02*
X289939Y526964D01*
X287911Y525794D01*
X286256Y524139D01*
X285086Y522111D01*
X284507Y519950D01*
X292100D01*
Y527543D01*
D02*
G37*
G36*
X585640Y526543D02*
Y518950D01*
X593233D01*
X592654Y521111D01*
X591484Y523139D01*
X589829Y524794D01*
X587801Y525964D01*
X585640Y526543D01*
D02*
G37*
G36*
X583100D02*
X580939Y525964D01*
X578911Y524794D01*
X577256Y523139D01*
X576086Y521111D01*
X575507Y518950D01*
X583100D01*
Y526543D01*
D02*
G37*
G36*
X406640Y522543D02*
Y514950D01*
X414233D01*
X413654Y517111D01*
X412484Y519139D01*
X410829Y520794D01*
X408801Y521964D01*
X406640Y522543D01*
D02*
G37*
G36*
X404100D02*
X401939Y521964D01*
X399911Y520794D01*
X398256Y519139D01*
X397086Y517111D01*
X396507Y514950D01*
X404100D01*
Y522543D01*
D02*
G37*
G36*
X981233Y520410D02*
X973640D01*
Y512817D01*
X975801Y513396D01*
X977829Y514566D01*
X979484Y516221D01*
X980654Y518249D01*
X981233Y520410D01*
D02*
G37*
G36*
X971100D02*
X963507D01*
X964086Y518249D01*
X965256Y516221D01*
X966911Y514566D01*
X968939Y513396D01*
X971100Y512817D01*
Y520410D01*
D02*
G37*
G36*
X638233Y519410D02*
X630640D01*
Y511817D01*
X632801Y512396D01*
X634829Y513566D01*
X636484Y515221D01*
X637654Y517249D01*
X638233Y519410D01*
D02*
G37*
G36*
X628100D02*
X620507D01*
X621086Y517249D01*
X622256Y515221D01*
X623911Y513566D01*
X625939Y512396D01*
X628100Y511817D01*
Y519410D01*
D02*
G37*
G36*
X302233Y517410D02*
X294640D01*
Y509817D01*
X296801Y510396D01*
X298829Y511566D01*
X300484Y513221D01*
X301654Y515249D01*
X302233Y517410D01*
D02*
G37*
G36*
X292100D02*
X284507D01*
X285086Y515249D01*
X286256Y513221D01*
X287911Y511566D01*
X289939Y510396D01*
X292100Y509817D01*
Y517410D01*
D02*
G37*
G36*
X593233Y516410D02*
X585640D01*
Y508817D01*
X587801Y509396D01*
X589829Y510566D01*
X591484Y512221D01*
X592654Y514249D01*
X593233Y516410D01*
D02*
G37*
G36*
X583100D02*
X575507D01*
X576086Y514249D01*
X577256Y512221D01*
X578911Y510566D01*
X580939Y509396D01*
X583100Y508817D01*
Y516410D01*
D02*
G37*
G36*
X414233Y512410D02*
X406640D01*
Y504817D01*
X408801Y505396D01*
X410829Y506566D01*
X412484Y508221D01*
X413654Y510249D01*
X414233Y512410D01*
D02*
G37*
G36*
X404100D02*
X396507D01*
X397086Y510249D01*
X398256Y508221D01*
X399911Y506566D01*
X401939Y505396D01*
X404100Y504817D01*
Y512410D01*
D02*
G37*
G36*
X191640Y508543D02*
Y500950D01*
X199233D01*
X198654Y503111D01*
X197484Y505139D01*
X195829Y506794D01*
X193801Y507964D01*
X191640Y508543D01*
D02*
G37*
G36*
X189100D02*
X186939Y507964D01*
X184911Y506794D01*
X183256Y505139D01*
X182086Y503111D01*
X181507Y500950D01*
X189100D01*
Y508543D01*
D02*
G37*
G36*
X513640Y505543D02*
Y497950D01*
X521233D01*
X520654Y500111D01*
X519484Y502139D01*
X517829Y503794D01*
X515801Y504964D01*
X513640Y505543D01*
D02*
G37*
G36*
X511100D02*
X508939Y504964D01*
X506911Y503794D01*
X505256Y502139D01*
X504086Y500111D01*
X503507Y497950D01*
X511100D01*
Y505543D01*
D02*
G37*
G36*
X253640Y503543D02*
Y495950D01*
X261233D01*
X260654Y498111D01*
X259484Y500139D01*
X257829Y501794D01*
X255801Y502964D01*
X253640Y503543D01*
D02*
G37*
G36*
X251100D02*
X248939Y502964D01*
X246911Y501794D01*
X245256Y500139D01*
X244086Y498111D01*
X243507Y495950D01*
X251100D01*
Y503543D01*
D02*
G37*
G36*
X199233Y498410D02*
X191640D01*
Y490817D01*
X193801Y491396D01*
X195829Y492566D01*
X197484Y494221D01*
X198654Y496249D01*
X199233Y498410D01*
D02*
G37*
G36*
X189100D02*
X181507D01*
X182086Y496249D01*
X183256Y494221D01*
X184911Y492566D01*
X186939Y491396D01*
X189100Y490817D01*
Y498410D01*
D02*
G37*
G36*
X521233Y495410D02*
X513640D01*
Y487817D01*
X515801Y488396D01*
X517829Y489566D01*
X519484Y491221D01*
X520654Y493249D01*
X521233Y495410D01*
D02*
G37*
G36*
X511100D02*
X503507D01*
X504086Y493249D01*
X505256Y491221D01*
X506911Y489566D01*
X508939Y488396D01*
X511100Y487817D01*
Y495410D01*
D02*
G37*
G36*
X261233Y493410D02*
X253640D01*
Y485817D01*
X255801Y486396D01*
X257829Y487566D01*
X259484Y489221D01*
X260654Y491249D01*
X261233Y493410D01*
D02*
G37*
G36*
X251100D02*
X243507D01*
X244086Y491249D01*
X245256Y489221D01*
X246911Y487566D01*
X248939Y486396D01*
X251100Y485817D01*
Y493410D01*
D02*
G37*
G36*
X368640Y480543D02*
Y472950D01*
X376233D01*
X375654Y475111D01*
X374484Y477139D01*
X372829Y478794D01*
X370801Y479964D01*
X368640Y480543D01*
D02*
G37*
G36*
X366100D02*
X363939Y479964D01*
X361911Y478794D01*
X360256Y477139D01*
X359086Y475111D01*
X358507Y472950D01*
X366100D01*
Y480543D01*
D02*
G37*
G36*
X314640D02*
Y472950D01*
X322233D01*
X321654Y475111D01*
X320484Y477139D01*
X318829Y478794D01*
X316801Y479964D01*
X314640Y480543D01*
D02*
G37*
G36*
X312100D02*
X309939Y479964D01*
X307911Y478794D01*
X306256Y477139D01*
X305086Y475111D01*
X304507Y472950D01*
X312100D01*
Y480543D01*
D02*
G37*
G36*
X442640Y474543D02*
Y466950D01*
X450233D01*
X449654Y469111D01*
X448484Y471139D01*
X446829Y472794D01*
X444801Y473964D01*
X442640Y474543D01*
D02*
G37*
G36*
X440100D02*
X437939Y473964D01*
X435911Y472794D01*
X434256Y471139D01*
X433086Y469111D01*
X432507Y466950D01*
X440100D01*
Y474543D01*
D02*
G37*
G36*
X402640Y473543D02*
Y465950D01*
X410233D01*
X409654Y468111D01*
X408484Y470139D01*
X406829Y471794D01*
X404801Y472964D01*
X402640Y473543D01*
D02*
G37*
G36*
X400100D02*
X397939Y472964D01*
X395911Y471794D01*
X394256Y470139D01*
X393086Y468111D01*
X392507Y465950D01*
X400100D01*
Y473543D01*
D02*
G37*
G36*
X376233Y470410D02*
X368640D01*
Y462817D01*
X370801Y463396D01*
X372829Y464566D01*
X374484Y466221D01*
X375654Y468249D01*
X376233Y470410D01*
D02*
G37*
G36*
X366100D02*
X358507D01*
X359086Y468249D01*
X360256Y466221D01*
X361911Y464566D01*
X363939Y463396D01*
X366100Y462817D01*
Y470410D01*
D02*
G37*
G36*
X322233D02*
X314640D01*
Y462817D01*
X316801Y463396D01*
X318829Y464566D01*
X320484Y466221D01*
X321654Y468249D01*
X322233Y470410D01*
D02*
G37*
G36*
X312100D02*
X304507D01*
X305086Y468249D01*
X306256Y466221D01*
X307911Y464566D01*
X309939Y463396D01*
X312100Y462817D01*
Y470410D01*
D02*
G37*
G36*
X450233Y464410D02*
X442640D01*
Y456817D01*
X444801Y457396D01*
X446829Y458566D01*
X448484Y460221D01*
X449654Y462249D01*
X450233Y464410D01*
D02*
G37*
G36*
X440100D02*
X432507D01*
X433086Y462249D01*
X434256Y460221D01*
X435911Y458566D01*
X437939Y457396D01*
X440100Y456817D01*
Y464410D01*
D02*
G37*
G36*
X410233Y463410D02*
X402640D01*
Y455817D01*
X404801Y456396D01*
X406829Y457566D01*
X408484Y459221D01*
X409654Y461249D01*
X410233Y463410D01*
D02*
G37*
G36*
X400100D02*
X392507D01*
X393086Y461249D01*
X394256Y459221D01*
X395911Y457566D01*
X397939Y456396D01*
X400100Y455817D01*
Y463410D01*
D02*
G37*
G36*
X729540Y579570D02*
X727200D01*
X724939Y578964D01*
X722911Y577794D01*
X721256Y576139D01*
X720086Y574111D01*
X719480Y571850D01*
Y569510D01*
X719634Y568933D01*
X621272Y470570D01*
X619200D01*
X616939Y469964D01*
X614911Y468794D01*
X613256Y467139D01*
X612086Y465111D01*
X611480Y462850D01*
Y460510D01*
X612086Y458249D01*
X613256Y456221D01*
X614911Y454566D01*
X616939Y453396D01*
X619200Y452790D01*
X621540D01*
X623801Y453396D01*
X625829Y454566D01*
X627484Y456221D01*
X628654Y458249D01*
X629260Y460510D01*
Y462582D01*
X728468Y561790D01*
X729540D01*
X731801Y562396D01*
X733829Y563566D01*
X735484Y565221D01*
X736654Y567249D01*
X737260Y569510D01*
Y571850D01*
X736654Y574111D01*
X735484Y576139D01*
X733829Y577794D01*
X731801Y578964D01*
X729540Y579570D01*
D02*
G37*
G36*
X761640Y458543D02*
Y450950D01*
X769233D01*
X768654Y453111D01*
X767484Y455139D01*
X765829Y456794D01*
X763801Y457964D01*
X761640Y458543D01*
D02*
G37*
G36*
X759100D02*
X756939Y457964D01*
X754911Y456794D01*
X753256Y455139D01*
X752086Y453111D01*
X751507Y450950D01*
X759100D01*
Y458543D01*
D02*
G37*
G36*
X976640Y455543D02*
Y447950D01*
X984233D01*
X983654Y450111D01*
X982484Y452139D01*
X980829Y453794D01*
X978801Y454964D01*
X976640Y455543D01*
D02*
G37*
G36*
X974100D02*
X971939Y454964D01*
X969911Y453794D01*
X968256Y452139D01*
X967086Y450111D01*
X966507Y447950D01*
X974100D01*
Y455543D01*
D02*
G37*
G36*
X769233Y448410D02*
X761640D01*
Y440817D01*
X763801Y441396D01*
X765829Y442566D01*
X767484Y444221D01*
X768654Y446249D01*
X769233Y448410D01*
D02*
G37*
G36*
X759100D02*
X751507D01*
X752086Y446249D01*
X753256Y444221D01*
X754911Y442566D01*
X756939Y441396D01*
X759100Y440817D01*
Y448410D01*
D02*
G37*
G36*
X935021Y464220D02*
X931719D01*
X928530Y463365D01*
X925670Y461715D01*
X923335Y459380D01*
X921685Y456520D01*
X920830Y453331D01*
Y450029D01*
X921685Y446840D01*
X923335Y443980D01*
X925670Y441646D01*
X928530Y439995D01*
X931719Y439140D01*
X935021D01*
X938210Y439995D01*
X941070Y441646D01*
X943404Y443980D01*
X945055Y446840D01*
X945910Y450029D01*
Y453331D01*
X945055Y456520D01*
X943404Y459380D01*
X941070Y461715D01*
X938210Y463365D01*
X935021Y464220D01*
D02*
G37*
G36*
X984233Y445410D02*
X976640D01*
Y437817D01*
X978801Y438396D01*
X980829Y439566D01*
X982484Y441221D01*
X983654Y443249D01*
X984233Y445410D01*
D02*
G37*
G36*
X974100D02*
X966507D01*
X967086Y443249D01*
X968256Y441221D01*
X969911Y439566D01*
X971939Y438396D01*
X974100Y437817D01*
Y445410D01*
D02*
G37*
G36*
X208640Y436543D02*
Y428950D01*
X216233D01*
X215654Y431111D01*
X214484Y433139D01*
X212829Y434794D01*
X210801Y435964D01*
X208640Y436543D01*
D02*
G37*
G36*
X206100D02*
X203939Y435964D01*
X201911Y434794D01*
X200256Y433139D01*
X199086Y431111D01*
X198507Y428950D01*
X206100D01*
Y436543D01*
D02*
G37*
G36*
X287640Y434543D02*
Y426950D01*
X295233D01*
X294654Y429111D01*
X293484Y431139D01*
X291829Y432794D01*
X289801Y433964D01*
X287640Y434543D01*
D02*
G37*
G36*
X285100D02*
X282939Y433964D01*
X280911Y432794D01*
X279256Y431139D01*
X278086Y429111D01*
X277507Y426950D01*
X285100D01*
Y434543D01*
D02*
G37*
G36*
X866370Y621285D02*
X424370D01*
X422402Y621026D01*
X421864Y620803D01*
X420568Y620266D01*
X418992Y619058D01*
X238992Y439058D01*
X237784Y437482D01*
X237247Y436186D01*
X237024Y435648D01*
X236765Y433680D01*
Y241680D01*
X237024Y239712D01*
X237247Y239174D01*
X237784Y237878D01*
X238992Y236302D01*
X260992Y214302D01*
X262568Y213094D01*
X263864Y212557D01*
X264402Y212334D01*
X266370Y212075D01*
X376720D01*
X389330Y199465D01*
Y189140D01*
X410410D01*
Y210220D01*
X400085D01*
X385248Y225058D01*
X383672Y226266D01*
X382375Y226803D01*
X381838Y227026D01*
X379870Y227285D01*
X269520D01*
X251975Y244830D01*
Y430530D01*
X427520Y606075D01*
X863220D01*
X865765Y603530D01*
Y444220D01*
X860830D01*
Y419140D01*
X885910D01*
Y444220D01*
X880975D01*
Y606680D01*
X880716Y608648D01*
X880271Y609723D01*
X879956Y610482D01*
X878748Y612058D01*
X871748Y619058D01*
X870173Y620266D01*
X868876Y620803D01*
X868338Y621026D01*
X866370Y621285D01*
D02*
G37*
G36*
X216233Y426410D02*
X208640D01*
Y418817D01*
X210801Y419396D01*
X212829Y420566D01*
X214484Y422221D01*
X215654Y424249D01*
X216233Y426410D01*
D02*
G37*
G36*
X206100D02*
X198507D01*
X199086Y424249D01*
X200256Y422221D01*
X201911Y420566D01*
X203939Y419396D01*
X206100Y418817D01*
Y426410D01*
D02*
G37*
G36*
X295233Y424410D02*
X287640D01*
Y416817D01*
X289801Y417396D01*
X291829Y418566D01*
X293484Y420221D01*
X294654Y422249D01*
X295233Y424410D01*
D02*
G37*
G36*
X285100D02*
X277507D01*
X278086Y422249D01*
X279256Y420221D01*
X280911Y418566D01*
X282939Y417396D01*
X285100Y416817D01*
Y424410D01*
D02*
G37*
G36*
X626640Y415543D02*
Y407950D01*
X634233D01*
X633654Y410111D01*
X632484Y412139D01*
X630829Y413794D01*
X628801Y414964D01*
X626640Y415543D01*
D02*
G37*
G36*
X624100D02*
X621939Y414964D01*
X619911Y413794D01*
X618256Y412139D01*
X617086Y410111D01*
X616507Y407950D01*
X624100D01*
Y415543D01*
D02*
G37*
G36*
X634233Y405410D02*
X626640D01*
Y397817D01*
X628801Y398396D01*
X630829Y399566D01*
X632484Y401221D01*
X633654Y403249D01*
X634233Y405410D01*
D02*
G37*
G36*
X624100D02*
X616507D01*
X617086Y403249D01*
X618256Y401221D01*
X619911Y399566D01*
X621939Y398396D01*
X624100Y397817D01*
Y405410D01*
D02*
G37*
G36*
X220640Y390543D02*
Y382950D01*
X228233D01*
X227654Y385111D01*
X226484Y387139D01*
X224829Y388794D01*
X222801Y389964D01*
X220640Y390543D01*
D02*
G37*
G36*
X218100D02*
X215939Y389964D01*
X213911Y388794D01*
X212256Y387139D01*
X211086Y385111D01*
X210507Y382950D01*
X218100D01*
Y390543D01*
D02*
G37*
G36*
X183640Y388543D02*
Y380950D01*
X191233D01*
X190654Y383111D01*
X189484Y385139D01*
X187829Y386794D01*
X185801Y387964D01*
X183640Y388543D01*
D02*
G37*
G36*
X181100D02*
X178939Y387964D01*
X176911Y386794D01*
X175256Y385139D01*
X174086Y383111D01*
X173507Y380950D01*
X181100D01*
Y388543D01*
D02*
G37*
G36*
X442640Y384543D02*
Y376950D01*
X450233D01*
X449654Y379111D01*
X448484Y381139D01*
X446829Y382794D01*
X444801Y383964D01*
X442640Y384543D01*
D02*
G37*
G36*
X440100D02*
X437939Y383964D01*
X435911Y382794D01*
X434256Y381139D01*
X433086Y379111D01*
X432507Y376950D01*
X440100D01*
Y384543D01*
D02*
G37*
G36*
X974640Y382543D02*
Y374950D01*
X982233D01*
X981654Y377111D01*
X980484Y379139D01*
X978829Y380794D01*
X976801Y381964D01*
X974640Y382543D01*
D02*
G37*
G36*
X972100D02*
X969939Y381964D01*
X967911Y380794D01*
X966256Y379139D01*
X965086Y377111D01*
X964507Y374950D01*
X972100D01*
Y382543D01*
D02*
G37*
G36*
X370640D02*
Y374950D01*
X378233D01*
X377654Y377111D01*
X376484Y379139D01*
X374829Y380794D01*
X372801Y381964D01*
X370640Y382543D01*
D02*
G37*
G36*
X368100D02*
X365939Y381964D01*
X363911Y380794D01*
X362256Y379139D01*
X361086Y377111D01*
X360507Y374950D01*
X368100D01*
Y382543D01*
D02*
G37*
G36*
X315640Y380543D02*
Y372950D01*
X323233D01*
X322654Y375111D01*
X321484Y377139D01*
X319829Y378794D01*
X317801Y379964D01*
X315640Y380543D01*
D02*
G37*
G36*
X313100D02*
X310939Y379964D01*
X308911Y378794D01*
X307256Y377139D01*
X306086Y375111D01*
X305507Y372950D01*
X313100D01*
Y380543D01*
D02*
G37*
G36*
X228233Y380410D02*
X220640D01*
Y372817D01*
X222801Y373396D01*
X224829Y374566D01*
X226484Y376221D01*
X227654Y378249D01*
X228233Y380410D01*
D02*
G37*
G36*
X218100D02*
X210507D01*
X211086Y378249D01*
X212256Y376221D01*
X213911Y374566D01*
X215939Y373396D01*
X218100Y372817D01*
Y380410D01*
D02*
G37*
G36*
X191233Y378410D02*
X183640D01*
Y370817D01*
X185801Y371396D01*
X187829Y372566D01*
X189484Y374221D01*
X190654Y376249D01*
X191233Y378410D01*
D02*
G37*
G36*
X181100D02*
X173507D01*
X174086Y376249D01*
X175256Y374221D01*
X176911Y372566D01*
X178939Y371396D01*
X181100Y370817D01*
Y378410D01*
D02*
G37*
G36*
X931640Y377543D02*
Y369950D01*
X939233D01*
X938654Y372111D01*
X937484Y374139D01*
X935829Y375794D01*
X933801Y376964D01*
X931640Y377543D01*
D02*
G37*
G36*
X929100D02*
X926939Y376964D01*
X924911Y375794D01*
X923256Y374139D01*
X922086Y372111D01*
X921507Y369950D01*
X929100D01*
Y377543D01*
D02*
G37*
G36*
X450233Y374410D02*
X442640D01*
Y366817D01*
X444801Y367396D01*
X446829Y368566D01*
X448484Y370221D01*
X449654Y372249D01*
X450233Y374410D01*
D02*
G37*
G36*
X440100D02*
X432507D01*
X433086Y372249D01*
X434256Y370221D01*
X435911Y368566D01*
X437939Y367396D01*
X440100Y366817D01*
Y374410D01*
D02*
G37*
G36*
X982233Y372410D02*
X974640D01*
Y364817D01*
X976801Y365396D01*
X978829Y366566D01*
X980484Y368221D01*
X981654Y370249D01*
X982233Y372410D01*
D02*
G37*
G36*
X972100D02*
X964507D01*
X965086Y370249D01*
X966256Y368221D01*
X967911Y366566D01*
X969939Y365396D01*
X972100Y364817D01*
Y372410D01*
D02*
G37*
G36*
X378233D02*
X370640D01*
Y364817D01*
X372801Y365396D01*
X374829Y366566D01*
X376484Y368221D01*
X377654Y370249D01*
X378233Y372410D01*
D02*
G37*
G36*
X368100D02*
X360507D01*
X361086Y370249D01*
X362256Y368221D01*
X363911Y366566D01*
X365939Y365396D01*
X368100Y364817D01*
Y372410D01*
D02*
G37*
G36*
X815021Y464220D02*
X811719D01*
X808530Y463365D01*
X805670Y461715D01*
X803335Y459380D01*
X801685Y456520D01*
X800830Y453331D01*
Y450029D01*
X801685Y446840D01*
X803335Y443980D01*
X805670Y441646D01*
X807721Y440461D01*
Y427680D01*
X807721Y427680D01*
X808151Y425518D01*
X809376Y423686D01*
X831376Y401686D01*
X831376Y401686D01*
X832474Y400952D01*
X833208Y400462D01*
X835370Y400032D01*
X835370Y400032D01*
X848030D01*
X874480Y373582D01*
Y371510D01*
X875086Y369249D01*
X876256Y367221D01*
X877911Y365566D01*
X879939Y364396D01*
X882200Y363790D01*
X884540D01*
X886801Y364396D01*
X888829Y365566D01*
X890484Y367221D01*
X891654Y369249D01*
X892260Y371510D01*
Y373850D01*
X891654Y376111D01*
X890484Y378139D01*
X888829Y379794D01*
X886801Y380964D01*
X884540Y381570D01*
X882468D01*
X854364Y409674D01*
X852532Y410899D01*
X850370Y411329D01*
X850370Y411329D01*
X837710D01*
X819018Y430020D01*
Y440461D01*
X821070Y441646D01*
X823404Y443980D01*
X825055Y446840D01*
X825910Y450029D01*
Y453331D01*
X825055Y456520D01*
X823404Y459380D01*
X821070Y461715D01*
X818210Y463365D01*
X815021Y464220D01*
D02*
G37*
G36*
X323233Y370410D02*
X315640D01*
Y362817D01*
X317801Y363396D01*
X319829Y364566D01*
X321484Y366221D01*
X322654Y368249D01*
X323233Y370410D01*
D02*
G37*
G36*
X313100D02*
X305507D01*
X306086Y368249D01*
X307256Y366221D01*
X308911Y364566D01*
X310939Y363396D01*
X313100Y362817D01*
Y370410D01*
D02*
G37*
G36*
X742640Y368543D02*
Y360950D01*
X750233D01*
X749654Y363111D01*
X748484Y365139D01*
X746829Y366794D01*
X744801Y367964D01*
X742640Y368543D01*
D02*
G37*
G36*
X740100D02*
X737939Y367964D01*
X735911Y366794D01*
X734256Y365139D01*
X733086Y363111D01*
X732507Y360950D01*
X740100D01*
Y368543D01*
D02*
G37*
G36*
X939233Y367410D02*
X931640D01*
Y359817D01*
X933801Y360396D01*
X935829Y361566D01*
X937484Y363221D01*
X938654Y365249D01*
X939233Y367410D01*
D02*
G37*
G36*
X929100D02*
X921507D01*
X922086Y365249D01*
X923256Y363221D01*
X924911Y361566D01*
X926939Y360396D01*
X929100Y359817D01*
Y367410D01*
D02*
G37*
G36*
X750233Y358410D02*
X742640D01*
Y350817D01*
X744801Y351396D01*
X746829Y352566D01*
X748484Y354221D01*
X749654Y356249D01*
X750233Y358410D01*
D02*
G37*
G36*
X740100D02*
X732507D01*
X733086Y356249D01*
X734256Y354221D01*
X735911Y352566D01*
X737939Y351396D01*
X740100Y350817D01*
Y358410D01*
D02*
G37*
G36*
X276640Y357543D02*
Y349950D01*
X284233D01*
X283654Y352111D01*
X282484Y354139D01*
X280829Y355794D01*
X278801Y356964D01*
X276640Y357543D01*
D02*
G37*
G36*
X274100D02*
X271939Y356964D01*
X269911Y355794D01*
X268256Y354139D01*
X267086Y352111D01*
X266507Y349950D01*
X274100D01*
Y357543D01*
D02*
G37*
G36*
X799640Y354543D02*
Y346950D01*
X807233D01*
X806654Y349111D01*
X805484Y351139D01*
X803829Y352794D01*
X801801Y353964D01*
X799640Y354543D01*
D02*
G37*
G36*
X797100D02*
X794939Y353964D01*
X792911Y352794D01*
X791256Y351139D01*
X790086Y349111D01*
X789507Y346950D01*
X797100D01*
Y354543D01*
D02*
G37*
G36*
X284233Y347410D02*
X276640D01*
Y339817D01*
X278801Y340396D01*
X280829Y341566D01*
X282484Y343221D01*
X283654Y345249D01*
X284233Y347410D01*
D02*
G37*
G36*
X274100D02*
X266507D01*
X267086Y345249D01*
X268256Y343221D01*
X269911Y341566D01*
X271939Y340396D01*
X274100Y339817D01*
Y347410D01*
D02*
G37*
G36*
X206640Y344543D02*
Y336950D01*
X214233D01*
X213654Y339111D01*
X212484Y341139D01*
X210829Y342794D01*
X208801Y343964D01*
X206640Y344543D01*
D02*
G37*
G36*
X204100D02*
X201939Y343964D01*
X199911Y342794D01*
X198256Y341139D01*
X197086Y339111D01*
X196507Y336950D01*
X204100D01*
Y344543D01*
D02*
G37*
G36*
X807233Y344410D02*
X799640D01*
Y336817D01*
X801801Y337396D01*
X803829Y338566D01*
X805484Y340221D01*
X806654Y342249D01*
X807233Y344410D01*
D02*
G37*
G36*
X797100D02*
X789507D01*
X790086Y342249D01*
X791256Y340221D01*
X792911Y338566D01*
X794939Y337396D01*
X797100Y336817D01*
Y344410D01*
D02*
G37*
G36*
X214233Y334410D02*
X206640D01*
Y326817D01*
X208801Y327396D01*
X210829Y328566D01*
X212484Y330221D01*
X213654Y332249D01*
X214233Y334410D01*
D02*
G37*
G36*
X204100D02*
X196507D01*
X197086Y332249D01*
X198256Y330221D01*
X199911Y328566D01*
X201939Y327396D01*
X204100Y326817D01*
Y334410D01*
D02*
G37*
G36*
X932640Y327543D02*
Y319950D01*
X940233D01*
X939654Y322111D01*
X938484Y324139D01*
X936829Y325794D01*
X934801Y326964D01*
X932640Y327543D01*
D02*
G37*
G36*
X930100D02*
X927939Y326964D01*
X925911Y325794D01*
X924256Y324139D01*
X923086Y322111D01*
X922507Y319950D01*
X930100D01*
Y327543D01*
D02*
G37*
G36*
X743640Y322543D02*
Y314950D01*
X751233D01*
X750654Y317111D01*
X749484Y319139D01*
X747829Y320794D01*
X745801Y321964D01*
X743640Y322543D01*
D02*
G37*
G36*
X741100D02*
X738939Y321964D01*
X736911Y320794D01*
X735256Y319139D01*
X734086Y317111D01*
X733507Y314950D01*
X741100D01*
Y322543D01*
D02*
G37*
G36*
X272640D02*
Y314950D01*
X280233D01*
X279654Y317111D01*
X278484Y319139D01*
X276829Y320794D01*
X274801Y321964D01*
X272640Y322543D01*
D02*
G37*
G36*
X270100D02*
X267939Y321964D01*
X265911Y320794D01*
X264256Y319139D01*
X263086Y317111D01*
X262507Y314950D01*
X270100D01*
Y322543D01*
D02*
G37*
G36*
X975640Y318543D02*
Y310950D01*
X983233D01*
X982654Y313111D01*
X981484Y315139D01*
X979829Y316794D01*
X977801Y317964D01*
X975640Y318543D01*
D02*
G37*
G36*
X973100D02*
X970939Y317964D01*
X968911Y316794D01*
X967256Y315139D01*
X966086Y313111D01*
X965507Y310950D01*
X973100D01*
Y318543D01*
D02*
G37*
G36*
X940233Y317410D02*
X932640D01*
Y309817D01*
X934801Y310396D01*
X936829Y311566D01*
X938484Y313221D01*
X939654Y315249D01*
X940233Y317410D01*
D02*
G37*
G36*
X930100D02*
X922507D01*
X923086Y315249D01*
X924256Y313221D01*
X925911Y311566D01*
X927939Y310396D01*
X930100Y309817D01*
Y317410D01*
D02*
G37*
G36*
X217640Y312543D02*
Y304950D01*
X225233D01*
X224654Y307111D01*
X223484Y309139D01*
X221829Y310794D01*
X219801Y311964D01*
X217640Y312543D01*
D02*
G37*
G36*
X215100D02*
X212939Y311964D01*
X210911Y310794D01*
X209256Y309139D01*
X208086Y307111D01*
X207507Y304950D01*
X215100D01*
Y312543D01*
D02*
G37*
G36*
X751233Y312410D02*
X743640D01*
Y304817D01*
X745801Y305396D01*
X747829Y306566D01*
X749484Y308221D01*
X750654Y310249D01*
X751233Y312410D01*
D02*
G37*
G36*
X741100D02*
X733507D01*
X734086Y310249D01*
X735256Y308221D01*
X736911Y306566D01*
X738939Y305396D01*
X741100Y304817D01*
Y312410D01*
D02*
G37*
G36*
X280233D02*
X272640D01*
Y304817D01*
X274801Y305396D01*
X276829Y306566D01*
X278484Y308221D01*
X279654Y310249D01*
X280233Y312410D01*
D02*
G37*
G36*
X270100D02*
X262507D01*
X263086Y310249D01*
X264256Y308221D01*
X265911Y306566D01*
X267939Y305396D01*
X270100Y304817D01*
Y312410D01*
D02*
G37*
G36*
X983233Y308410D02*
X975640D01*
Y300817D01*
X977801Y301396D01*
X979829Y302566D01*
X981484Y304221D01*
X982654Y306249D01*
X983233Y308410D01*
D02*
G37*
G36*
X973100D02*
X965507D01*
X966086Y306249D01*
X967256Y304221D01*
X968911Y302566D01*
X970939Y301396D01*
X973100Y300817D01*
Y308410D01*
D02*
G37*
G36*
X225233Y302410D02*
X217640D01*
Y294817D01*
X219801Y295396D01*
X221829Y296566D01*
X223484Y298221D01*
X224654Y300249D01*
X225233Y302410D01*
D02*
G37*
G36*
X215100D02*
X207507D01*
X208086Y300249D01*
X209256Y298221D01*
X210911Y296566D01*
X212939Y295396D01*
X215100Y294817D01*
Y302410D01*
D02*
G37*
G36*
X911640Y293543D02*
Y285950D01*
X919233D01*
X918654Y288111D01*
X917484Y290139D01*
X915829Y291794D01*
X913801Y292964D01*
X911640Y293543D01*
D02*
G37*
G36*
X909100D02*
X906939Y292964D01*
X904911Y291794D01*
X903256Y290139D01*
X902086Y288111D01*
X901507Y285950D01*
X909100D01*
Y293543D01*
D02*
G37*
G36*
X919233Y283410D02*
X911640D01*
Y275817D01*
X913801Y276396D01*
X915829Y277566D01*
X917484Y279221D01*
X918654Y281249D01*
X919233Y283410D01*
D02*
G37*
G36*
X909100D02*
X901507D01*
X902086Y281249D01*
X903256Y279221D01*
X904911Y277566D01*
X906939Y276396D01*
X909100Y275817D01*
Y283410D01*
D02*
G37*
G36*
X446640Y266543D02*
Y258950D01*
X454233D01*
X453654Y261111D01*
X452484Y263139D01*
X450829Y264794D01*
X448801Y265964D01*
X446640Y266543D01*
D02*
G37*
G36*
X444100D02*
X441939Y265964D01*
X439911Y264794D01*
X438256Y263139D01*
X437086Y261111D01*
X436507Y258950D01*
X444100D01*
Y266543D01*
D02*
G37*
G36*
X265640Y262543D02*
Y254950D01*
X273233D01*
X272654Y257111D01*
X271484Y259139D01*
X269829Y260794D01*
X267801Y261964D01*
X265640Y262543D01*
D02*
G37*
G36*
X263100D02*
X260939Y261964D01*
X258911Y260794D01*
X257256Y259139D01*
X256086Y257111D01*
X255507Y254950D01*
X263100D01*
Y262543D01*
D02*
G37*
G36*
X37640Y258543D02*
Y250950D01*
X45233D01*
X44654Y253111D01*
X43484Y255139D01*
X41829Y256794D01*
X39801Y257964D01*
X37640Y258543D01*
D02*
G37*
G36*
X35100D02*
X32939Y257964D01*
X30911Y256794D01*
X29256Y255139D01*
X28086Y253111D01*
X27507Y250950D01*
X35100D01*
Y258543D01*
D02*
G37*
G36*
X740098Y285220D02*
X736643D01*
X733254Y284546D01*
X730062Y283224D01*
X727189Y281304D01*
X724746Y278861D01*
X722826Y275988D01*
X721504Y272796D01*
X720830Y269408D01*
Y265952D01*
X721504Y262564D01*
X722826Y259372D01*
X724746Y256499D01*
X727189Y254056D01*
X730062Y252136D01*
X733254Y250814D01*
X736643Y250140D01*
X740098D01*
X743486Y250814D01*
X746678Y252136D01*
X749551Y254056D01*
X751994Y256499D01*
X753914Y259372D01*
X755236Y262564D01*
X755910Y265952D01*
Y269408D01*
X755236Y272796D01*
X753914Y275988D01*
X751994Y278861D01*
X749551Y281304D01*
X746678Y283224D01*
X743486Y284546D01*
X740098Y285220D01*
D02*
G37*
G36*
X209097D02*
X205643D01*
X202254Y284546D01*
X199062Y283224D01*
X196189Y281304D01*
X193746Y278861D01*
X191826Y275988D01*
X190504Y272796D01*
X189830Y269408D01*
Y265952D01*
X190504Y262564D01*
X191826Y259372D01*
X193746Y256499D01*
X196189Y254056D01*
X199062Y252136D01*
X202254Y250814D01*
X205643Y250140D01*
X209097D01*
X212486Y250814D01*
X215678Y252136D01*
X218551Y254056D01*
X220994Y256499D01*
X222914Y259372D01*
X224236Y262564D01*
X224910Y265952D01*
Y269408D01*
X224236Y272796D01*
X222914Y275988D01*
X220994Y278861D01*
X218551Y281304D01*
X215678Y283224D01*
X212486Y284546D01*
X209097Y285220D01*
D02*
G37*
G36*
X454233Y256410D02*
X446640D01*
Y248817D01*
X448801Y249396D01*
X450829Y250566D01*
X452484Y252221D01*
X453654Y254249D01*
X454233Y256410D01*
D02*
G37*
G36*
X444100D02*
X436507D01*
X437086Y254249D01*
X438256Y252221D01*
X439911Y250566D01*
X441939Y249396D01*
X444100Y248817D01*
Y256410D01*
D02*
G37*
G36*
X273233Y252410D02*
X265640D01*
Y244817D01*
X267801Y245396D01*
X269829Y246566D01*
X271484Y248221D01*
X272654Y250249D01*
X273233Y252410D01*
D02*
G37*
G36*
X263100D02*
X255507D01*
X256086Y250249D01*
X257256Y248221D01*
X258911Y246566D01*
X260939Y245396D01*
X263100Y244817D01*
Y252410D01*
D02*
G37*
G36*
X45233Y248410D02*
X37640D01*
Y240817D01*
X39801Y241396D01*
X41829Y242566D01*
X43484Y244221D01*
X44654Y246249D01*
X45233Y248410D01*
D02*
G37*
G36*
X35100D02*
X27507D01*
X28086Y246249D01*
X29256Y244221D01*
X30911Y242566D01*
X32939Y241396D01*
X35100Y240817D01*
Y248410D01*
D02*
G37*
G36*
X197640Y240543D02*
Y232950D01*
X205233D01*
X204654Y235111D01*
X203484Y237139D01*
X201829Y238794D01*
X199801Y239964D01*
X197640Y240543D01*
D02*
G37*
G36*
X195100D02*
X192939Y239964D01*
X190911Y238794D01*
X189256Y237139D01*
X188086Y235111D01*
X187507Y232950D01*
X195100D01*
Y240543D01*
D02*
G37*
G36*
X62640Y239543D02*
Y231950D01*
X70233D01*
X69654Y234111D01*
X68484Y236139D01*
X66829Y237794D01*
X64801Y238964D01*
X62640Y239543D01*
D02*
G37*
G36*
X60100D02*
X57939Y238964D01*
X55911Y237794D01*
X54256Y236139D01*
X53086Y234111D01*
X52507Y231950D01*
X60100D01*
Y239543D01*
D02*
G37*
G36*
X977640Y237543D02*
Y229950D01*
X985233D01*
X984654Y232111D01*
X983484Y234139D01*
X981829Y235794D01*
X979801Y236964D01*
X977640Y237543D01*
D02*
G37*
G36*
X975100D02*
X972939Y236964D01*
X970911Y235794D01*
X969256Y234139D01*
X968086Y232111D01*
X967507Y229950D01*
X975100D01*
Y237543D01*
D02*
G37*
G36*
X705640D02*
Y229950D01*
X713233D01*
X712654Y232111D01*
X711484Y234139D01*
X709829Y235794D01*
X707801Y236964D01*
X705640Y237543D01*
D02*
G37*
G36*
X703100D02*
X700939Y236964D01*
X698911Y235794D01*
X697256Y234139D01*
X696086Y232111D01*
X695507Y229950D01*
X703100D01*
Y237543D01*
D02*
G37*
G36*
X205233Y230410D02*
X197640D01*
Y222817D01*
X199801Y223396D01*
X201829Y224566D01*
X203484Y226221D01*
X204654Y228249D01*
X205233Y230410D01*
D02*
G37*
G36*
X195100D02*
X187507D01*
X188086Y228249D01*
X189256Y226221D01*
X190911Y224566D01*
X192939Y223396D01*
X195100Y222817D01*
Y230410D01*
D02*
G37*
G36*
X70233Y229410D02*
X62640D01*
Y221817D01*
X64801Y222396D01*
X66829Y223566D01*
X68484Y225221D01*
X69654Y227249D01*
X70233Y229410D01*
D02*
G37*
G36*
X60100D02*
X52507D01*
X53086Y227249D01*
X54256Y225221D01*
X55911Y223566D01*
X57939Y222396D01*
X60100Y221817D01*
Y229410D01*
D02*
G37*
G36*
X985233Y227410D02*
X977640D01*
Y219817D01*
X979801Y220396D01*
X981829Y221566D01*
X983484Y223221D01*
X984654Y225249D01*
X985233Y227410D01*
D02*
G37*
G36*
X975100D02*
X967507D01*
X968086Y225249D01*
X969256Y223221D01*
X970911Y221566D01*
X972939Y220396D01*
X975100Y219817D01*
Y227410D01*
D02*
G37*
G36*
X713233D02*
X705640D01*
Y219817D01*
X707801Y220396D01*
X709829Y221566D01*
X711484Y223221D01*
X712654Y225249D01*
X713233Y227410D01*
D02*
G37*
G36*
X703100D02*
X695507D01*
X696086Y225249D01*
X697256Y223221D01*
X698911Y221566D01*
X700939Y220396D01*
X703100Y219817D01*
Y227410D01*
D02*
G37*
G36*
X756640Y215543D02*
Y207950D01*
X764233D01*
X763654Y210111D01*
X762484Y212139D01*
X760829Y213794D01*
X758801Y214964D01*
X756640Y215543D01*
D02*
G37*
G36*
X754100D02*
X751939Y214964D01*
X749911Y213794D01*
X748256Y212139D01*
X747086Y210111D01*
X746507Y207950D01*
X754100D01*
Y215543D01*
D02*
G37*
G36*
X461640Y211543D02*
Y203950D01*
X469233D01*
X468654Y206111D01*
X467484Y208139D01*
X465829Y209794D01*
X463801Y210964D01*
X461640Y211543D01*
D02*
G37*
G36*
X459100D02*
X456939Y210964D01*
X454911Y209794D01*
X453256Y208139D01*
X452086Y206111D01*
X451507Y203950D01*
X459100D01*
Y211543D01*
D02*
G37*
G36*
X242640Y209543D02*
Y201950D01*
X250233D01*
X249654Y204111D01*
X248484Y206139D01*
X246829Y207794D01*
X244801Y208964D01*
X242640Y209543D01*
D02*
G37*
G36*
X240100D02*
X237939Y208964D01*
X235911Y207794D01*
X234256Y206139D01*
X233086Y204111D01*
X232507Y201950D01*
X240100D01*
Y209543D01*
D02*
G37*
G36*
X764233Y205410D02*
X756640D01*
Y197817D01*
X758801Y198396D01*
X760829Y199566D01*
X762484Y201221D01*
X763654Y203249D01*
X764233Y205410D01*
D02*
G37*
G36*
X754100D02*
X746507D01*
X747086Y203249D01*
X748256Y201221D01*
X749911Y199566D01*
X751939Y198396D01*
X754100Y197817D01*
Y205410D01*
D02*
G37*
G36*
X469233Y201410D02*
X461640D01*
Y193817D01*
X463801Y194396D01*
X465829Y195566D01*
X467484Y197221D01*
X468654Y199249D01*
X469233Y201410D01*
D02*
G37*
G36*
X459100D02*
X451507D01*
X452086Y199249D01*
X453256Y197221D01*
X454911Y195566D01*
X456939Y194396D01*
X459100Y193817D01*
Y201410D01*
D02*
G37*
G36*
X250233Y199410D02*
X242640D01*
Y191817D01*
X244801Y192396D01*
X246829Y193566D01*
X248484Y195221D01*
X249654Y197249D01*
X250233Y199410D01*
D02*
G37*
G36*
X240100D02*
X232507D01*
X233086Y197249D01*
X234256Y195221D01*
X235911Y193566D01*
X237939Y192396D01*
X240100Y191817D01*
Y199410D01*
D02*
G37*
G36*
X326258Y200220D02*
X326140D01*
Y190950D01*
X335410D01*
Y191068D01*
X334692Y193748D01*
X333304Y196152D01*
X331342Y198114D01*
X328938Y199502D01*
X326258Y200220D01*
D02*
G37*
G36*
X323600D02*
X323482D01*
X320802Y199502D01*
X318398Y198114D01*
X316436Y196152D01*
X315048Y193748D01*
X314330Y191068D01*
Y190950D01*
X323600D01*
Y200220D01*
D02*
G37*
G36*
X186640Y196543D02*
Y188950D01*
X194233D01*
X193654Y191111D01*
X192484Y193139D01*
X190829Y194794D01*
X188801Y195964D01*
X186640Y196543D01*
D02*
G37*
G36*
X184100D02*
X181939Y195964D01*
X179911Y194794D01*
X178256Y193139D01*
X177086Y191111D01*
X176507Y188950D01*
X184100D01*
Y196543D01*
D02*
G37*
G36*
X335410Y188410D02*
X326140D01*
Y179140D01*
X326258D01*
X328938Y179858D01*
X331342Y181246D01*
X333304Y183208D01*
X334692Y185612D01*
X335410Y188292D01*
Y188410D01*
D02*
G37*
G36*
X323600D02*
X314330D01*
Y188292D01*
X315048Y185612D01*
X316436Y183208D01*
X318398Y181246D01*
X320802Y179858D01*
X323482Y179140D01*
X323600D01*
Y188410D01*
D02*
G37*
G36*
X194233Y186410D02*
X186640D01*
Y178817D01*
X188801Y179396D01*
X190829Y180566D01*
X192484Y182221D01*
X193654Y184249D01*
X194233Y186410D01*
D02*
G37*
G36*
X184100D02*
X176507D01*
X177086Y184249D01*
X178256Y182221D01*
X179911Y180566D01*
X181939Y179396D01*
X184100Y178817D01*
Y186410D01*
D02*
G37*
G36*
X62640Y185543D02*
Y177950D01*
X70233D01*
X69654Y180111D01*
X68484Y182139D01*
X66829Y183794D01*
X64801Y184964D01*
X62640Y185543D01*
D02*
G37*
G36*
X60100D02*
X57939Y184964D01*
X55911Y183794D01*
X54256Y182139D01*
X53086Y180111D01*
X52507Y177950D01*
X60100D01*
Y185543D01*
D02*
G37*
G36*
X977640Y179543D02*
Y171950D01*
X985233D01*
X984654Y174111D01*
X983484Y176139D01*
X981829Y177794D01*
X979801Y178964D01*
X977640Y179543D01*
D02*
G37*
G36*
X975100D02*
X972939Y178964D01*
X970911Y177794D01*
X969256Y176139D01*
X968086Y174111D01*
X967507Y171950D01*
X975100D01*
Y179543D01*
D02*
G37*
G36*
X70233Y175410D02*
X62640D01*
Y167817D01*
X64801Y168396D01*
X66829Y169566D01*
X68484Y171221D01*
X69654Y173249D01*
X70233Y175410D01*
D02*
G37*
G36*
X60100D02*
X52507D01*
X53086Y173249D01*
X54256Y171221D01*
X55911Y169566D01*
X57939Y168396D01*
X60100Y167817D01*
Y175410D01*
D02*
G37*
G36*
X985233Y169410D02*
X977640D01*
Y161817D01*
X979801Y162396D01*
X981829Y163566D01*
X983484Y165221D01*
X984654Y167249D01*
X985233Y169410D01*
D02*
G37*
G36*
X975100D02*
X967507D01*
X968086Y167249D01*
X969256Y165221D01*
X970911Y163566D01*
X972939Y162396D01*
X975100Y161817D01*
Y169410D01*
D02*
G37*
G36*
X769640Y167543D02*
Y159950D01*
X777233D01*
X776654Y162111D01*
X775484Y164139D01*
X773829Y165794D01*
X771801Y166964D01*
X769640Y167543D01*
D02*
G37*
G36*
X767100D02*
X764939Y166964D01*
X762911Y165794D01*
X761256Y164139D01*
X760086Y162111D01*
X759507Y159950D01*
X767100D01*
Y167543D01*
D02*
G37*
G36*
X777233Y157410D02*
X769640D01*
Y149817D01*
X771801Y150396D01*
X773829Y151566D01*
X775484Y153221D01*
X776654Y155249D01*
X777233Y157410D01*
D02*
G37*
G36*
X767100D02*
X759507D01*
X760086Y155249D01*
X761256Y153221D01*
X762911Y151566D01*
X764939Y150396D01*
X767100Y149817D01*
Y157410D01*
D02*
G37*
G36*
X212640Y153543D02*
Y145950D01*
X220233D01*
X219654Y148111D01*
X218484Y150139D01*
X216829Y151794D01*
X214801Y152964D01*
X212640Y153543D01*
D02*
G37*
G36*
X210100D02*
X207939Y152964D01*
X205911Y151794D01*
X204256Y150139D01*
X203086Y148111D01*
X202507Y145950D01*
X210100D01*
Y153543D01*
D02*
G37*
G36*
X461640Y147543D02*
Y139950D01*
X469233D01*
X468654Y142111D01*
X467484Y144139D01*
X465829Y145794D01*
X463801Y146964D01*
X461640Y147543D01*
D02*
G37*
G36*
X459100D02*
X456939Y146964D01*
X454911Y145794D01*
X453256Y144139D01*
X452086Y142111D01*
X451507Y139950D01*
X459100D01*
Y147543D01*
D02*
G37*
G36*
X220233Y143410D02*
X212640D01*
Y135817D01*
X214801Y136396D01*
X216829Y137566D01*
X218484Y139221D01*
X219654Y141249D01*
X220233Y143410D01*
D02*
G37*
G36*
X210100D02*
X202507D01*
X203086Y141249D01*
X204256Y139221D01*
X205911Y137566D01*
X207939Y136396D01*
X210100Y135817D01*
Y143410D01*
D02*
G37*
G36*
X778540Y141616D02*
Y133350D01*
X786806D01*
X786160Y135762D01*
X784904Y137938D01*
X783128Y139714D01*
X780952Y140970D01*
X778540Y141616D01*
D02*
G37*
G36*
X776000D02*
X773588Y140970D01*
X771412Y139714D01*
X769636Y137938D01*
X768380Y135762D01*
X767734Y133350D01*
X776000D01*
Y141616D01*
D02*
G37*
G36*
X469233Y137410D02*
X461640D01*
Y129817D01*
X463801Y130396D01*
X465829Y131566D01*
X467484Y133221D01*
X468654Y135249D01*
X469233Y137410D01*
D02*
G37*
G36*
X459100D02*
X451507D01*
X452086Y135249D01*
X453256Y133221D01*
X454911Y131566D01*
X456939Y130396D01*
X459100Y129817D01*
Y137410D01*
D02*
G37*
G36*
X786806Y130810D02*
X778540D01*
Y122544D01*
X780952Y123190D01*
X783128Y124446D01*
X784904Y126222D01*
X786160Y128398D01*
X786806Y130810D01*
D02*
G37*
G36*
X776000D02*
X767734D01*
X768380Y128398D01*
X769636Y126222D01*
X771412Y124446D01*
X773588Y123190D01*
X776000Y122544D01*
Y130810D01*
D02*
G37*
G36*
X896410Y141620D02*
X877330D01*
Y122540D01*
X896410D01*
Y141620D01*
D02*
G37*
G36*
X860726D02*
X858214D01*
X855788Y140970D01*
X853612Y139714D01*
X851836Y137938D01*
X850580Y135762D01*
X849930Y133336D01*
Y130824D01*
X850580Y128398D01*
X851836Y126222D01*
X853612Y124446D01*
X855788Y123190D01*
X858214Y122540D01*
X860726D01*
X863152Y123190D01*
X865328Y124446D01*
X867104Y126222D01*
X868360Y128398D01*
X869010Y130824D01*
Y133336D01*
X868360Y135762D01*
X867104Y137938D01*
X865328Y139714D01*
X863152Y140970D01*
X860726Y141620D01*
D02*
G37*
G36*
X833326D02*
X830814D01*
X828388Y140970D01*
X826212Y139714D01*
X824436Y137938D01*
X823180Y135762D01*
X822530Y133336D01*
Y130824D01*
X823180Y128398D01*
X824436Y126222D01*
X826212Y124446D01*
X828388Y123190D01*
X830814Y122540D01*
X833326D01*
X835752Y123190D01*
X837928Y124446D01*
X839704Y126222D01*
X840960Y128398D01*
X841610Y130824D01*
Y133336D01*
X840960Y135762D01*
X839704Y137938D01*
X837928Y139714D01*
X835752Y140970D01*
X833326Y141620D01*
D02*
G37*
G36*
X805926D02*
X803414D01*
X800988Y140970D01*
X798812Y139714D01*
X797036Y137938D01*
X795780Y135762D01*
X795130Y133336D01*
Y130824D01*
X795780Y128398D01*
X797036Y126222D01*
X798812Y124446D01*
X800988Y123190D01*
X803414Y122540D01*
X805926D01*
X808352Y123190D01*
X810528Y124446D01*
X812304Y126222D01*
X813560Y128398D01*
X814210Y130824D01*
Y133336D01*
X813560Y135762D01*
X812304Y137938D01*
X810528Y139714D01*
X808352Y140970D01*
X805926Y141620D01*
D02*
G37*
G36*
X607705Y140820D02*
X605035D01*
X602456Y140129D01*
X600144Y138794D01*
X598256Y136906D01*
X596921Y134594D01*
X596230Y132015D01*
Y129345D01*
X596921Y126766D01*
X598256Y124454D01*
X600144Y122566D01*
X602456Y121231D01*
X605035Y120540D01*
X607705D01*
X610284Y121231D01*
X612596Y122566D01*
X614484Y124454D01*
X615819Y126766D01*
X616510Y129345D01*
Y132015D01*
X615819Y134594D01*
X614484Y136906D01*
X612596Y138794D01*
X610284Y140129D01*
X607705Y140820D01*
D02*
G37*
G36*
X577705D02*
X575035D01*
X572456Y140129D01*
X570144Y138794D01*
X568256Y136906D01*
X566921Y134594D01*
X566230Y132015D01*
Y129345D01*
X566921Y126766D01*
X568256Y124454D01*
X570144Y122566D01*
X572456Y121231D01*
X575035Y120540D01*
X577705D01*
X580284Y121231D01*
X582596Y122566D01*
X584484Y124454D01*
X585819Y126766D01*
X586510Y129345D01*
Y132015D01*
X585819Y134594D01*
X584484Y136906D01*
X582596Y138794D01*
X580284Y140129D01*
X577705Y140820D01*
D02*
G37*
G36*
X701540Y348570D02*
X699200D01*
X696939Y347964D01*
X694911Y346794D01*
X693256Y345139D01*
X692086Y343111D01*
X691480Y340850D01*
Y338510D01*
X692086Y336249D01*
X693256Y334221D01*
X694722Y332756D01*
Y304020D01*
X542376Y151674D01*
X541151Y149842D01*
X540721Y147680D01*
X540721Y147680D01*
Y139128D01*
X540144Y138794D01*
X538256Y136906D01*
X536921Y134594D01*
X536230Y132015D01*
Y129345D01*
X536921Y126766D01*
X538256Y124454D01*
X540144Y122566D01*
X542456Y121231D01*
X545035Y120540D01*
X547705D01*
X550284Y121231D01*
X552596Y122566D01*
X554484Y124454D01*
X555819Y126766D01*
X556510Y129345D01*
Y132015D01*
X555819Y134594D01*
X554484Y136906D01*
X552596Y138794D01*
X552019Y139128D01*
Y145340D01*
X704364Y297686D01*
X704364Y297686D01*
X705589Y299518D01*
X706019Y301680D01*
X706019Y301680D01*
Y332756D01*
X707484Y334221D01*
X708654Y336249D01*
X709260Y338510D01*
Y340850D01*
X708654Y343111D01*
X707484Y345139D01*
X705829Y346794D01*
X703801Y347964D01*
X701540Y348570D01*
D02*
G37*
G36*
X517705Y140820D02*
X515035D01*
X512456Y140129D01*
X510144Y138794D01*
X508256Y136906D01*
X506921Y134594D01*
X506230Y132015D01*
Y129345D01*
X506921Y126766D01*
X508256Y124454D01*
X510144Y122566D01*
X512456Y121231D01*
X515035Y120540D01*
X517705D01*
X520284Y121231D01*
X522596Y122566D01*
X524484Y124454D01*
X525819Y126766D01*
X526510Y129345D01*
Y132015D01*
X525819Y134594D01*
X524484Y136906D01*
X522596Y138794D01*
X520284Y140129D01*
X517705Y140820D01*
D02*
G37*
G36*
X401705D02*
X399035D01*
X396456Y140129D01*
X394144Y138794D01*
X392256Y136906D01*
X390921Y134594D01*
X390230Y132015D01*
Y129345D01*
X390921Y126766D01*
X392256Y124454D01*
X394144Y122566D01*
X396456Y121231D01*
X399035Y120540D01*
X401705D01*
X404284Y121231D01*
X406596Y122566D01*
X408484Y124454D01*
X409819Y126766D01*
X410510Y129345D01*
Y132015D01*
X409819Y134594D01*
X408484Y136906D01*
X406596Y138794D01*
X404284Y140129D01*
X401705Y140820D01*
D02*
G37*
G36*
X371705D02*
X369035D01*
X366456Y140129D01*
X364144Y138794D01*
X362256Y136906D01*
X360921Y134594D01*
X360230Y132015D01*
Y129345D01*
X360921Y126766D01*
X362256Y124454D01*
X364144Y122566D01*
X366456Y121231D01*
X369035Y120540D01*
X371705D01*
X374284Y121231D01*
X376596Y122566D01*
X378484Y124454D01*
X379819Y126766D01*
X380510Y129345D01*
Y132015D01*
X379819Y134594D01*
X378484Y136906D01*
X376596Y138794D01*
X374284Y140129D01*
X371705Y140820D01*
D02*
G37*
G36*
X341705D02*
X339035D01*
X336456Y140129D01*
X334144Y138794D01*
X332256Y136906D01*
X330921Y134594D01*
X330230Y132015D01*
Y129345D01*
X330921Y126766D01*
X332256Y124454D01*
X334144Y122566D01*
X336456Y121231D01*
X339035Y120540D01*
X341705D01*
X344284Y121231D01*
X346596Y122566D01*
X348484Y124454D01*
X349819Y126766D01*
X350510Y129345D01*
Y132015D01*
X349819Y134594D01*
X348484Y136906D01*
X346596Y138794D01*
X344284Y140129D01*
X341705Y140820D01*
D02*
G37*
G36*
X37640Y114543D02*
Y106950D01*
X45233D01*
X44654Y109111D01*
X43484Y111139D01*
X41829Y112794D01*
X39801Y113964D01*
X37640Y114543D01*
D02*
G37*
G36*
X35100D02*
X32939Y113964D01*
X30911Y112794D01*
X29256Y111139D01*
X28086Y109111D01*
X27507Y106950D01*
X35100D01*
Y114543D01*
D02*
G37*
G36*
X250640Y113543D02*
Y105950D01*
X258233D01*
X257654Y108111D01*
X256484Y110139D01*
X254829Y111794D01*
X252801Y112964D01*
X250640Y113543D01*
D02*
G37*
G36*
X248100D02*
X245939Y112964D01*
X243911Y111794D01*
X242256Y110139D01*
X241086Y108111D01*
X240507Y105950D01*
X248100D01*
Y113543D01*
D02*
G37*
G36*
X517705Y110820D02*
X517640D01*
Y101950D01*
X526510D01*
Y102015D01*
X525819Y104594D01*
X524484Y106906D01*
X522596Y108794D01*
X520284Y110129D01*
X517705Y110820D01*
D02*
G37*
G36*
X515100D02*
X515035D01*
X512456Y110129D01*
X510144Y108794D01*
X508256Y106906D01*
X506921Y104594D01*
X506230Y102015D01*
Y101950D01*
X515100D01*
Y110820D01*
D02*
G37*
G36*
X341705D02*
X341640D01*
Y101950D01*
X350510D01*
Y102015D01*
X349819Y104594D01*
X348484Y106906D01*
X346596Y108794D01*
X344284Y110129D01*
X341705Y110820D01*
D02*
G37*
G36*
X339100D02*
X339035D01*
X336456Y110129D01*
X334144Y108794D01*
X332256Y106906D01*
X330921Y104594D01*
X330230Y102015D01*
Y101950D01*
X339100D01*
Y110820D01*
D02*
G37*
G36*
X874426Y116220D02*
X871914D01*
X869488Y115570D01*
X867312Y114314D01*
X865536Y112538D01*
X864280Y110362D01*
X863630Y107936D01*
Y105424D01*
X864280Y102998D01*
X865536Y100822D01*
X867312Y99046D01*
X869488Y97790D01*
X871914Y97140D01*
X874426D01*
X876852Y97790D01*
X879028Y99046D01*
X880804Y100822D01*
X882060Y102998D01*
X882710Y105424D01*
Y107936D01*
X882060Y110362D01*
X880804Y112538D01*
X879028Y114314D01*
X876852Y115570D01*
X874426Y116220D01*
D02*
G37*
G36*
X847026D02*
X844514D01*
X842088Y115570D01*
X839912Y114314D01*
X838136Y112538D01*
X836880Y110362D01*
X836230Y107936D01*
Y105424D01*
X836880Y102998D01*
X838136Y100822D01*
X839912Y99046D01*
X842088Y97790D01*
X844514Y97140D01*
X847026D01*
X849452Y97790D01*
X851628Y99046D01*
X853404Y100822D01*
X854660Y102998D01*
X855310Y105424D01*
Y107936D01*
X854660Y110362D01*
X853404Y112538D01*
X851628Y114314D01*
X849452Y115570D01*
X847026Y116220D01*
D02*
G37*
G36*
X819626D02*
X817114D01*
X814688Y115570D01*
X812512Y114314D01*
X810736Y112538D01*
X809480Y110362D01*
X808830Y107936D01*
Y105424D01*
X809480Y102998D01*
X810736Y100822D01*
X812512Y99046D01*
X814688Y97790D01*
X817114Y97140D01*
X819626D01*
X822052Y97790D01*
X824228Y99046D01*
X826004Y100822D01*
X827260Y102998D01*
X827910Y105424D01*
Y107936D01*
X827260Y110362D01*
X826004Y112538D01*
X824228Y114314D01*
X822052Y115570D01*
X819626Y116220D01*
D02*
G37*
G36*
X792226D02*
X789714D01*
X787288Y115570D01*
X785112Y114314D01*
X783336Y112538D01*
X782080Y110362D01*
X781430Y107936D01*
Y105424D01*
X782080Y102998D01*
X783336Y100822D01*
X785112Y99046D01*
X787288Y97790D01*
X789714Y97140D01*
X792226D01*
X794652Y97790D01*
X796828Y99046D01*
X798604Y100822D01*
X799860Y102998D01*
X800510Y105424D01*
Y107936D01*
X799860Y110362D01*
X798604Y112538D01*
X796828Y114314D01*
X794652Y115570D01*
X792226Y116220D01*
D02*
G37*
G36*
X45233Y104410D02*
X37640D01*
Y96817D01*
X39801Y97396D01*
X41829Y98566D01*
X43484Y100221D01*
X44654Y102249D01*
X45233Y104410D01*
D02*
G37*
G36*
X35100D02*
X27507D01*
X28086Y102249D01*
X29256Y100221D01*
X30911Y98566D01*
X32939Y97396D01*
X35100Y96817D01*
Y104410D01*
D02*
G37*
G36*
X258233Y103410D02*
X250640D01*
Y95817D01*
X252801Y96396D01*
X254829Y97566D01*
X256484Y99221D01*
X257654Y101249D01*
X258233Y103410D01*
D02*
G37*
G36*
X248100D02*
X240507D01*
X241086Y101249D01*
X242256Y99221D01*
X243911Y97566D01*
X245939Y96396D01*
X248100Y95817D01*
Y103410D01*
D02*
G37*
G36*
X959159Y145920D02*
X954981D01*
X950855Y145267D01*
X946882Y143976D01*
X943160Y142079D01*
X939780Y139624D01*
X936826Y136670D01*
X934371Y133290D01*
X932474Y129568D01*
X931183Y125595D01*
X930530Y121469D01*
Y117291D01*
X931183Y113165D01*
X932474Y109192D01*
X934371Y105470D01*
X936826Y102090D01*
X939780Y99136D01*
X943160Y96681D01*
X946882Y94784D01*
X950855Y93493D01*
X954981Y92840D01*
X959159D01*
X963285Y93493D01*
X967258Y94784D01*
X970980Y96681D01*
X974360Y99136D01*
X977314Y102090D01*
X979769Y105470D01*
X981666Y109192D01*
X982956Y113165D01*
X983610Y117291D01*
Y121469D01*
X982956Y125595D01*
X981666Y129568D01*
X979769Y133290D01*
X977314Y136670D01*
X974360Y139624D01*
X970980Y142079D01*
X967258Y143976D01*
X963285Y145267D01*
X959159Y145920D01*
D02*
G37*
G36*
X709159D02*
X704981D01*
X700855Y145267D01*
X696882Y143976D01*
X693160Y142079D01*
X689780Y139624D01*
X686826Y136670D01*
X684371Y133290D01*
X682474Y129568D01*
X681183Y125595D01*
X680530Y121469D01*
Y117291D01*
X681183Y113165D01*
X682474Y109192D01*
X684371Y105470D01*
X686826Y102090D01*
X689780Y99136D01*
X693160Y96681D01*
X696882Y94784D01*
X700855Y93493D01*
X704981Y92840D01*
X709159D01*
X713285Y93493D01*
X717258Y94784D01*
X720980Y96681D01*
X724360Y99136D01*
X727314Y102090D01*
X729769Y105470D01*
X731666Y109192D01*
X732956Y113165D01*
X733610Y117291D01*
Y121469D01*
X732956Y125595D01*
X731666Y129568D01*
X729769Y133290D01*
X727314Y136670D01*
X724360Y139624D01*
X720980Y142079D01*
X717258Y143976D01*
X713285Y145267D01*
X709159Y145920D01*
D02*
G37*
G36*
X616510Y110820D02*
X596230D01*
Y90540D01*
X616510D01*
Y110820D01*
D02*
G37*
G36*
X577705D02*
X575035D01*
X572456Y110129D01*
X570144Y108794D01*
X568256Y106906D01*
X566921Y104594D01*
X566230Y102015D01*
Y99345D01*
X566921Y96766D01*
X568256Y94454D01*
X570144Y92566D01*
X572456Y91231D01*
X575035Y90540D01*
X577705D01*
X580284Y91231D01*
X582596Y92566D01*
X584484Y94454D01*
X585819Y96766D01*
X586510Y99345D01*
Y102015D01*
X585819Y104594D01*
X584484Y106906D01*
X582596Y108794D01*
X580284Y110129D01*
X577705Y110820D01*
D02*
G37*
G36*
X547705D02*
X545035D01*
X542456Y110129D01*
X540144Y108794D01*
X538256Y106906D01*
X536921Y104594D01*
X536230Y102015D01*
Y99345D01*
X536921Y96766D01*
X538256Y94454D01*
X540144Y92566D01*
X542456Y91231D01*
X545035Y90540D01*
X547705D01*
X550284Y91231D01*
X552596Y92566D01*
X554484Y94454D01*
X555819Y96766D01*
X556510Y99345D01*
Y102015D01*
X555819Y104594D01*
X554484Y106906D01*
X552596Y108794D01*
X550284Y110129D01*
X547705Y110820D01*
D02*
G37*
G36*
X526510Y99410D02*
X517640D01*
Y90540D01*
X517705D01*
X520284Y91231D01*
X522596Y92566D01*
X524484Y94454D01*
X525819Y96766D01*
X526510Y99345D01*
Y99410D01*
D02*
G37*
G36*
X515100D02*
X506230D01*
Y99345D01*
X506921Y96766D01*
X508256Y94454D01*
X510144Y92566D01*
X512456Y91231D01*
X515035Y90540D01*
X515100D01*
Y99410D01*
D02*
G37*
G36*
X410510Y110820D02*
X390230D01*
Y90540D01*
X410510D01*
Y110820D01*
D02*
G37*
G36*
X371705D02*
X369035D01*
X366456Y110129D01*
X364144Y108794D01*
X362256Y106906D01*
X360921Y104594D01*
X360230Y102015D01*
Y99345D01*
X360921Y96766D01*
X362256Y94454D01*
X364144Y92566D01*
X366456Y91231D01*
X369035Y90540D01*
X371705D01*
X374284Y91231D01*
X376596Y92566D01*
X378484Y94454D01*
X379819Y96766D01*
X380510Y99345D01*
Y102015D01*
X379819Y104594D01*
X378484Y106906D01*
X376596Y108794D01*
X374284Y110129D01*
X371705Y110820D01*
D02*
G37*
G36*
X350510Y99410D02*
X341640D01*
Y90540D01*
X341705D01*
X344284Y91231D01*
X346596Y92566D01*
X348484Y94454D01*
X349819Y96766D01*
X350510Y99345D01*
Y99410D01*
D02*
G37*
G36*
X339100D02*
X330230D01*
Y99345D01*
X330921Y96766D01*
X332256Y94454D01*
X334144Y92566D01*
X336456Y91231D01*
X339035Y90540D01*
X339100D01*
Y99410D01*
D02*
G37*
G36*
X662640Y71543D02*
Y63950D01*
X670233D01*
X669654Y66111D01*
X668484Y68139D01*
X666829Y69794D01*
X664801Y70964D01*
X662640Y71543D01*
D02*
G37*
G36*
X660100D02*
X657939Y70964D01*
X655911Y69794D01*
X654256Y68139D01*
X653086Y66111D01*
X652507Y63950D01*
X660100D01*
Y71543D01*
D02*
G37*
G36*
X670233Y61410D02*
X662640D01*
Y53817D01*
X664801Y54396D01*
X666829Y55566D01*
X668484Y57221D01*
X669654Y59249D01*
X670233Y61410D01*
D02*
G37*
G36*
X660100D02*
X652507D01*
X653086Y59249D01*
X654256Y57221D01*
X655911Y55566D01*
X657939Y54396D01*
X660100Y53817D01*
Y61410D01*
D02*
G37*
G36*
X586497Y75020D02*
X583042D01*
X579654Y74346D01*
X576462Y73024D01*
X573589Y71104D01*
X571146Y68661D01*
X569226Y65788D01*
X567904Y62596D01*
X567230Y59208D01*
Y55753D01*
X567904Y52364D01*
X569226Y49172D01*
X571146Y46299D01*
X573589Y43856D01*
X576462Y41936D01*
X579654Y40614D01*
X583042Y39940D01*
X586497D01*
X589886Y40614D01*
X593078Y41936D01*
X595951Y43856D01*
X598394Y46299D01*
X600314Y49172D01*
X601636Y52364D01*
X602310Y55753D01*
Y59208D01*
X601636Y62596D01*
X600314Y65788D01*
X598394Y68661D01*
X595951Y71104D01*
X593078Y73024D01*
X589886Y74346D01*
X586497Y75020D01*
D02*
G37*
G36*
X539697D02*
X536242D01*
X532854Y74346D01*
X529662Y73024D01*
X526789Y71104D01*
X524346Y68661D01*
X522426Y65788D01*
X521104Y62596D01*
X520430Y59208D01*
Y55753D01*
X521104Y52364D01*
X522426Y49172D01*
X524346Y46299D01*
X526789Y43856D01*
X529662Y41936D01*
X532854Y40614D01*
X536242Y39940D01*
X539697D01*
X543086Y40614D01*
X546278Y41936D01*
X549151Y43856D01*
X551594Y46299D01*
X553514Y49172D01*
X554836Y52364D01*
X555510Y55753D01*
Y59208D01*
X554836Y62596D01*
X553514Y65788D01*
X551594Y68661D01*
X549151Y71104D01*
X546278Y73024D01*
X543086Y74346D01*
X539697Y75020D01*
D02*
G37*
G36*
X372098D02*
X368643D01*
X365254Y74346D01*
X362062Y73024D01*
X359189Y71104D01*
X356746Y68661D01*
X354826Y65788D01*
X353504Y62596D01*
X352830Y59208D01*
Y55753D01*
X353504Y52364D01*
X354826Y49172D01*
X356746Y46299D01*
X359189Y43856D01*
X362062Y41936D01*
X365254Y40614D01*
X368643Y39940D01*
X372098D01*
X375486Y40614D01*
X378678Y41936D01*
X381551Y43856D01*
X383994Y46299D01*
X385914Y49172D01*
X387236Y52364D01*
X387910Y55753D01*
Y59208D01*
X387236Y62596D01*
X385914Y65788D01*
X383994Y68661D01*
X381551Y71104D01*
X378678Y73024D01*
X375486Y74346D01*
X372098Y75020D01*
D02*
G37*
G36*
X229640Y46543D02*
Y38950D01*
X237233D01*
X236654Y41111D01*
X235484Y43139D01*
X233829Y44794D01*
X231801Y45964D01*
X229640Y46543D01*
D02*
G37*
G36*
X227100D02*
X224939Y45964D01*
X222911Y44794D01*
X221256Y43139D01*
X220086Y41111D01*
X219507Y38950D01*
X227100D01*
Y46543D01*
D02*
G37*
G36*
X154640Y42543D02*
Y34950D01*
X162233D01*
X161654Y37111D01*
X160484Y39139D01*
X158829Y40794D01*
X156801Y41964D01*
X154640Y42543D01*
D02*
G37*
G36*
X152100D02*
X149939Y41964D01*
X147911Y40794D01*
X146256Y39139D01*
X145086Y37111D01*
X144507Y34950D01*
X152100D01*
Y42543D01*
D02*
G37*
G36*
X47640D02*
Y34950D01*
X55233D01*
X54654Y37111D01*
X53484Y39139D01*
X51829Y40794D01*
X49801Y41964D01*
X47640Y42543D01*
D02*
G37*
G36*
X45100D02*
X42939Y41964D01*
X40911Y40794D01*
X39256Y39139D01*
X38086Y37111D01*
X37507Y34950D01*
X45100D01*
Y42543D01*
D02*
G37*
G36*
X237233Y36410D02*
X229640D01*
Y28817D01*
X231801Y29396D01*
X233829Y30566D01*
X235484Y32221D01*
X236654Y34249D01*
X237233Y36410D01*
D02*
G37*
G36*
X227100D02*
X219507D01*
X220086Y34249D01*
X221256Y32221D01*
X222911Y30566D01*
X224939Y29396D01*
X227100Y28817D01*
Y36410D01*
D02*
G37*
G36*
X162233Y32410D02*
X154640D01*
Y24817D01*
X156801Y25396D01*
X158829Y26566D01*
X160484Y28221D01*
X161654Y30249D01*
X162233Y32410D01*
D02*
G37*
G36*
X152100D02*
X144507D01*
X145086Y30249D01*
X146256Y28221D01*
X147911Y26566D01*
X149939Y25396D01*
X152100Y24817D01*
Y32410D01*
D02*
G37*
G36*
X55233D02*
X47640D01*
Y24817D01*
X49801Y25396D01*
X51829Y26566D01*
X53484Y28221D01*
X54654Y30249D01*
X55233Y32410D01*
D02*
G37*
G36*
X45100D02*
X37507D01*
X38086Y30249D01*
X39256Y28221D01*
X40911Y26566D01*
X42939Y25396D01*
X45100Y24817D01*
Y32410D01*
D02*
G37*
%LPD*%
D43*
X399870Y199680D02*
D03*
D44*
X324870Y189680D02*
D03*
D48*
X873370Y431680D02*
D03*
D49*
X933370Y451680D02*
D03*
X813370Y573680D02*
D03*
X933370D02*
D03*
X813370Y451680D02*
D03*
D52*
X546370Y130680D02*
Y147680D01*
X700370Y301680D01*
Y339680D01*
X620370Y461680D02*
X728370Y569680D01*
Y570680D01*
X813370Y427680D02*
Y451680D01*
X850370Y405680D02*
X883370Y372680D01*
X835370Y405680D02*
X850370D01*
X813370Y427680D02*
X835370Y405680D01*
D53*
X244370Y241680D02*
X266370Y219680D01*
X379870D01*
X399870Y199680D01*
X244370Y241680D02*
Y433680D01*
X424370Y613680D01*
X866370D01*
X873370Y431680D02*
Y606680D01*
X866370Y613680D02*
X873370Y606680D01*
D54*
X400370Y130680D02*
D03*
X340370D02*
D03*
X370370D02*
D03*
Y100680D02*
D03*
X340370D02*
D03*
X516370Y130680D02*
D03*
X576370Y100680D02*
D03*
X546370D02*
D03*
X606370Y130680D02*
D03*
X576370D02*
D03*
X546370D02*
D03*
X516370Y100680D02*
D03*
D55*
X400370D02*
D03*
X606370D02*
D03*
D56*
X370370Y57480D02*
D03*
X584770D02*
D03*
X537970D02*
D03*
D57*
X707070Y119380D02*
D03*
X957070D02*
D03*
D58*
X790970Y106680D02*
D03*
X818370D02*
D03*
X845770D02*
D03*
X873170D02*
D03*
X804670Y132080D02*
D03*
X832070D02*
D03*
X859470D02*
D03*
X777270D02*
D03*
D59*
X886870D02*
D03*
D60*
X46370Y33680D02*
D03*
X153370D02*
D03*
X228370Y37680D02*
D03*
X249370Y104680D02*
D03*
X36370Y105680D02*
D03*
X211370Y144680D02*
D03*
X61370Y176680D02*
D03*
X185370Y187680D02*
D03*
X28370Y609680D02*
D03*
X36370Y249680D02*
D03*
X61370Y230680D02*
D03*
X178370Y551680D02*
D03*
X182370Y379680D02*
D03*
X190370Y499680D02*
D03*
X196370Y231680D02*
D03*
X197370Y637680D02*
D03*
X205370Y335680D02*
D03*
X207370Y427680D02*
D03*
X216370Y303680D02*
D03*
X219370Y381680D02*
D03*
X241370Y200680D02*
D03*
X251370Y637680D02*
D03*
X252370Y494680D02*
D03*
X264370Y253680D02*
D03*
X271370Y313680D02*
D03*
X275370Y348680D02*
D03*
X286370Y425680D02*
D03*
X293370Y518680D02*
D03*
X313370Y471680D02*
D03*
X314370Y371680D02*
D03*
X367370Y471680D02*
D03*
X369370Y373680D02*
D03*
X401370Y464680D02*
D03*
X405370Y513680D02*
D03*
X407370Y644680D02*
D03*
X426370Y554680D02*
D03*
X441370Y375680D02*
D03*
Y465680D02*
D03*
X445370Y257680D02*
D03*
X460370Y202680D02*
D03*
Y138680D02*
D03*
X661370Y62680D02*
D03*
X704370Y228680D02*
D03*
X755370Y206680D02*
D03*
X768370Y158680D02*
D03*
X910370Y284680D02*
D03*
X976370Y228680D02*
D03*
Y170680D02*
D03*
X512370Y496680D02*
D03*
X584370Y517680D02*
D03*
X585370Y645680D02*
D03*
X588370Y565680D02*
D03*
X620370Y461680D02*
D03*
X625370Y406680D02*
D03*
X629370Y520680D02*
D03*
X673370Y564680D02*
D03*
X700370Y339680D02*
D03*
X728370Y570680D02*
D03*
X741370Y359680D02*
D03*
X742370Y313680D02*
D03*
X760370Y449680D02*
D03*
X798370Y345680D02*
D03*
X826370Y643680D02*
D03*
X883370Y372680D02*
D03*
X917370Y644680D02*
D03*
X930370Y368680D02*
D03*
X931370Y318680D02*
D03*
X972370Y521680D02*
D03*
X973370Y373680D02*
D03*
X974370Y309680D02*
D03*
X975370Y446680D02*
D03*
X976370Y603680D02*
D03*
M02*
