%TF.GenerationSoftware,Altium Limited,Altium Designer,25.8.1 (18)*%
G04 Layer_Color=8421504*
%FSLAX45Y45*%
%MOMM*%
%TF.SameCoordinates,0F1D7CA1-D0BB-481A-9C26-AB2C8EFFB1FF*%
%TF.FilePolarity,Positive*%
%TF.FileFunction,Paste,Top*%
%TF.Part,Single*%
G01*
G75*
%TA.AperFunction,SMDPad,CuDef*%
%ADD10R,1.00000X1.25000*%
%ADD11R,0.60000X1.35000*%
%ADD12R,2.50000X4.40000*%
%ADD13R,1.50000X1.00000*%
%ADD14R,1.00000X1.50000*%
%ADD15R,1.52500X0.65000*%
%ADD16R,1.25000X1.00000*%
%ADD17R,4.50000X2.10000*%
%ADD18R,2.00000X4.10000*%
%ADD19R,4.40000X2.50000*%
%ADD20R,4.10000X2.00000*%
%ADD21R,0.65000X1.52500*%
%ADD22R,1.80000X1.34000*%
%ADD23R,0.85000X1.35000*%
%ADD24R,2.30000X3.30000*%
%ADD25R,3.30000X2.30000*%
%ADD26R,5.20000X3.85000*%
D10*
X15660001Y12540000D02*
D03*
X15460001D02*
D03*
X14970000Y11170000D02*
D03*
X11419998Y12850000D02*
D03*
X8989998Y11410000D02*
D03*
X11220002Y12850000D02*
D03*
X8790002Y11410000D02*
D03*
X15170000Y11170000D02*
D03*
D11*
X14425000Y13589999D02*
D03*
X14614999D02*
D03*
X14520000Y13830000D02*
D03*
D12*
X12340000Y14480000D02*
D03*
Y15320000D02*
D03*
D13*
X13480000Y12854997D02*
D03*
X9000000Y12444998D02*
D03*
Y12155002D02*
D03*
X13480000Y12565002D02*
D03*
D14*
X11044998Y14230000D02*
D03*
X10755002D02*
D03*
D15*
X10901200Y13600500D02*
D03*
X10358800D02*
D03*
Y13219501D02*
D03*
Y13346500D02*
D03*
X16051199Y11937500D02*
D03*
X9742400Y15267000D02*
D03*
X9200000Y15013000D02*
D03*
Y14886000D02*
D03*
X10358800Y13473500D02*
D03*
X9200000Y15267000D02*
D03*
Y15139999D02*
D03*
X10901200Y13473500D02*
D03*
Y13346500D02*
D03*
Y13219501D02*
D03*
X15508800Y12064500D02*
D03*
Y11937500D02*
D03*
Y11810500D02*
D03*
Y11683500D02*
D03*
Y11556500D02*
D03*
Y11429500D02*
D03*
Y11302500D02*
D03*
Y11175500D02*
D03*
X16051199D02*
D03*
Y11302500D02*
D03*
Y11429500D02*
D03*
Y11556500D02*
D03*
Y11683500D02*
D03*
Y11810500D02*
D03*
Y12064500D02*
D03*
X9742400Y15139999D02*
D03*
Y15013000D02*
D03*
Y14886000D02*
D03*
D16*
X16320000Y12290000D02*
D03*
X9750000Y14230002D02*
D03*
X16320000Y12090000D02*
D03*
X9750000Y14429997D02*
D03*
X15160001Y12170000D02*
D03*
Y11970000D02*
D03*
X15170000Y11650000D02*
D03*
Y11450000D02*
D03*
D17*
X12105000Y11690000D02*
D03*
X13014999D02*
D03*
D18*
X8210000Y15285001D02*
D03*
Y14414999D02*
D03*
D19*
X8720000Y13380000D02*
D03*
X7880000D02*
D03*
D20*
X10345000Y12050000D02*
D03*
X7925000Y10130000D02*
D03*
X8795000D02*
D03*
X11215000Y12050000D02*
D03*
D21*
X8440500Y10858800D02*
D03*
X8059500Y11401200D02*
D03*
X8186500Y10858800D02*
D03*
X8313500D02*
D03*
X8059500D02*
D03*
X8186500Y11401200D02*
D03*
X8313500D02*
D03*
X8440500D02*
D03*
D22*
X14510001Y14137000D02*
D03*
Y14423000D02*
D03*
D23*
X14592500Y13310001D02*
D03*
X14427499D02*
D03*
D24*
X7875000Y12170000D02*
D03*
X8465000D02*
D03*
D25*
X10760000Y15335001D02*
D03*
Y14745000D02*
D03*
D26*
X12540000Y12580000D02*
D03*
Y13580000D02*
D03*
%TF.MD5,4d1bcd838b180c72e875dbb3deb486c6*%
M02*
