%TF.GenerationSoftware,Altium Limited,Altium Designer,25.8.1 (18)*%
G04 Layer_Color=65535*
%FSLAX45Y45*%
%MOMM*%
%TF.SameCoordinates,0F1D7CA1-D0BB-481A-9C26-AB2C8EFFB1FF*%
%TF.FilePolarity,Positive*%
%TF.FileFunction,Legend,Top*%
%TF.Part,Single*%
G01*
G75*
%TA.AperFunction,NonConductor*%
%ADD41C,0.25000*%
%ADD42C,0.20000*%
%ADD43C,0.10000*%
%ADD44C,0.12700*%
%ADD45C,0.25400*%
G36*
X13382001Y15410001D02*
X13373199D01*
Y15427600D01*
X13377600D01*
Y15453999D01*
X13382001D01*
Y15484801D01*
X13386400D01*
Y15506799D01*
X13390800D01*
Y15533200D01*
X13395200D01*
Y15537601D01*
X13403999D01*
Y15533200D01*
X13408400D01*
Y15528799D01*
X13417200D01*
Y15524400D01*
X13421600D01*
Y15520000D01*
X13430400D01*
Y15515601D01*
X13434801D01*
Y15511200D01*
X13439200D01*
Y15506799D01*
X13448000D01*
Y15502400D01*
X13452400D01*
Y15498000D01*
X13461200D01*
Y15493600D01*
X13465601D01*
Y15489200D01*
X13474400D01*
Y15484801D01*
X13478799D01*
Y15480400D01*
X13487601D01*
Y15471600D01*
X13483200D01*
Y15467200D01*
X13474400D01*
Y15462801D01*
X13465601D01*
Y15458400D01*
X13456799D01*
Y15453999D01*
X13448000D01*
Y15449600D01*
X13439200D01*
Y15445200D01*
X13434801D01*
Y15440800D01*
X13425999D01*
Y15436400D01*
X13417200D01*
Y15432001D01*
X13408400D01*
Y15427600D01*
X13403999D01*
Y15423199D01*
X13395200D01*
Y15418800D01*
X13390800D01*
Y15414400D01*
X13382001D01*
Y15410001D01*
D02*
G37*
G36*
X13619600Y15388000D02*
X13689999D01*
Y15392400D01*
X13698801D01*
Y15396800D01*
X13703200D01*
Y15401199D01*
X13707600D01*
Y15405600D01*
X13712000D01*
Y15423199D01*
X13707600D01*
Y15432001D01*
X13698801D01*
Y15436400D01*
X13685600D01*
Y15440800D01*
X13663600D01*
Y15445200D01*
X13641600D01*
Y15449600D01*
X13619600D01*
Y15453999D01*
X13597600D01*
Y15458400D01*
X13593201D01*
Y15462801D01*
X13580000D01*
Y15467200D01*
X13575600D01*
Y15471600D01*
X13571201D01*
Y15475999D01*
X13566800D01*
Y15480400D01*
X13562399D01*
Y15484801D01*
X13558000D01*
Y15493600D01*
X13553600D01*
Y15537601D01*
X13558000D01*
Y15550800D01*
X13562399D01*
Y15559599D01*
X13566800D01*
Y15568401D01*
X13571201D01*
Y15572800D01*
X13575600D01*
Y15577200D01*
X13580000D01*
Y15581599D01*
X13584399D01*
Y15586000D01*
X13593201D01*
Y15590401D01*
X13597600D01*
Y15594800D01*
X13610800D01*
Y15599200D01*
X13628400D01*
Y15603600D01*
X13672400D01*
Y15608000D01*
X13685600D01*
Y15603600D01*
X13720799D01*
Y15599200D01*
X13738400D01*
Y15594800D01*
X13747200D01*
Y15590401D01*
X13756000D01*
Y15586000D01*
X13760400D01*
Y15581599D01*
X13764799D01*
Y15577200D01*
X13769200D01*
Y15568401D01*
X13773599D01*
Y15555200D01*
X13778000D01*
Y15520000D01*
X13729601D01*
Y15533200D01*
X13725200D01*
Y15542000D01*
X13720799D01*
Y15546400D01*
X13716400D01*
Y15550800D01*
X13707600D01*
Y15555200D01*
X13628400D01*
Y15550800D01*
X13619600D01*
Y15546400D01*
X13615199D01*
Y15542000D01*
X13610800D01*
Y15533200D01*
X13606400D01*
Y15520000D01*
X13610800D01*
Y15515601D01*
X13615199D01*
Y15511200D01*
X13624001D01*
Y15506799D01*
X13641600D01*
Y15502400D01*
X13667999D01*
Y15498000D01*
X13685600D01*
Y15493600D01*
X13707600D01*
Y15489200D01*
X13725200D01*
Y15484801D01*
X13729601D01*
Y15480400D01*
X13742799D01*
Y15475999D01*
X13747200D01*
Y15471600D01*
X13751601D01*
Y15467200D01*
X13756000D01*
Y15462801D01*
X13760400D01*
Y15449600D01*
X13764799D01*
Y15401199D01*
X13760400D01*
Y15388000D01*
X13756000D01*
Y15379201D01*
X13751601D01*
Y15374800D01*
X13747200D01*
Y15366000D01*
X13738400D01*
Y15361600D01*
X13734000D01*
Y15357201D01*
X13729601D01*
Y15352800D01*
X13720799D01*
Y15348399D01*
X13703200D01*
Y15344000D01*
X13685600D01*
Y15339600D01*
X13597600D01*
Y15344000D01*
X13580000D01*
Y15348399D01*
X13566800D01*
Y15352800D01*
X13562399D01*
Y15357201D01*
X13558000D01*
Y15361600D01*
X13553600D01*
Y15366000D01*
X13549200D01*
Y15370399D01*
X13544800D01*
Y15379201D01*
X13540401D01*
Y15388000D01*
X13536000D01*
Y15423199D01*
X13544800D01*
Y15427600D01*
X13580000D01*
Y15423199D01*
X13584399D01*
Y15414400D01*
X13588800D01*
Y15405600D01*
X13593201D01*
Y15396800D01*
X13597600D01*
Y15392400D01*
X13606400D01*
Y15388000D01*
X13615199D01*
X13619600D01*
D02*
G37*
G36*
X13839600Y15366000D02*
Y15348399D01*
X13835201D01*
Y15344000D01*
X13786800D01*
Y15357201D01*
X13791200D01*
Y15396800D01*
X13795599D01*
Y15423199D01*
X13800000D01*
Y15458400D01*
X13804401D01*
Y15484801D01*
X13808800D01*
Y15520000D01*
X13813200D01*
Y15550800D01*
X13817599D01*
Y15581599D01*
X13822000D01*
Y15599200D01*
X13870399D01*
Y15555200D01*
X13866000D01*
Y15528799D01*
X13861600D01*
Y15502400D01*
X13857201D01*
Y15471600D01*
X13852800D01*
Y15432001D01*
X13848399D01*
Y15405600D01*
X13844000D01*
Y15374800D01*
X13839600D01*
Y15370399D01*
Y15366000D01*
D02*
G37*
G36*
X14112399Y15511200D02*
X14099200D01*
Y15515601D01*
X14094800D01*
Y15533200D01*
X14090401D01*
Y15537601D01*
X14086000D01*
Y15542000D01*
X14081599D01*
Y15546400D01*
X14077200D01*
Y15550800D01*
X14068401D01*
Y15555200D01*
X14037601D01*
Y15559599D01*
X14020000D01*
Y15555200D01*
X13989200D01*
Y15550800D01*
X13980400D01*
Y15546400D01*
X13975999D01*
Y15542000D01*
X13967200D01*
Y15537601D01*
X13962801D01*
Y15528799D01*
X13958400D01*
Y15524400D01*
X13953999D01*
Y15515601D01*
X13949600D01*
Y15506799D01*
X13945200D01*
Y15489200D01*
X13940800D01*
Y15423199D01*
X13945200D01*
Y15410001D01*
X13949600D01*
Y15405600D01*
X13953999D01*
Y15401199D01*
X13958400D01*
Y15396800D01*
X13967200D01*
Y15392400D01*
X13971600D01*
Y15388000D01*
X14024400D01*
Y15392400D01*
X14033200D01*
Y15396800D01*
X14042000D01*
Y15401199D01*
X14046400D01*
Y15405600D01*
X14050800D01*
Y15410001D01*
X14055200D01*
Y15414400D01*
X14059599D01*
Y15418800D01*
X14064000D01*
Y15423199D01*
X14068401D01*
Y15427600D01*
X14072800D01*
Y15436400D01*
X14011200D01*
Y15440800D01*
X14006799D01*
Y15449600D01*
X14011200D01*
Y15480400D01*
X14143201D01*
Y15467200D01*
X14138800D01*
Y15445200D01*
X14134399D01*
Y15410001D01*
X14130000D01*
Y15379201D01*
X14125600D01*
Y15348399D01*
X14121201D01*
Y15344000D01*
X14072800D01*
Y15357201D01*
X14077200D01*
Y15383600D01*
X14081599D01*
Y15388000D01*
X14072800D01*
Y15383600D01*
X14068401D01*
Y15379201D01*
X14064000D01*
Y15374800D01*
X14059599D01*
Y15370399D01*
X14055200D01*
Y15366000D01*
X14050800D01*
Y15361600D01*
X14042000D01*
Y15357201D01*
X14037601D01*
Y15352800D01*
X14028799D01*
Y15348399D01*
X14020000D01*
Y15344000D01*
X14006799D01*
Y15339600D01*
X13949600D01*
Y15344000D01*
X13932001D01*
Y15348399D01*
X13923199D01*
Y15352800D01*
X13918800D01*
Y15357201D01*
X13914400D01*
Y15361600D01*
X13910001D01*
Y15366000D01*
X13905600D01*
Y15370399D01*
X13901199D01*
Y15379201D01*
X13896800D01*
Y15383600D01*
X13892400D01*
Y15396800D01*
X13888000D01*
Y15418800D01*
X13883600D01*
Y15462801D01*
X13888000D01*
Y15493600D01*
X13892400D01*
Y15506799D01*
X13896800D01*
Y15520000D01*
X13901199D01*
Y15528799D01*
X13905600D01*
Y15537601D01*
X13910001D01*
Y15546400D01*
X13914400D01*
Y15555200D01*
X13918800D01*
Y15559599D01*
X13923199D01*
Y15564000D01*
X13927600D01*
Y15568401D01*
X13932001D01*
Y15572800D01*
X13936400D01*
Y15577200D01*
X13940800D01*
Y15581599D01*
X13945200D01*
Y15586000D01*
X13953999D01*
Y15590401D01*
X13962801D01*
Y15594800D01*
X13975999D01*
Y15599200D01*
X13989200D01*
Y15603600D01*
X14033200D01*
Y15608000D01*
X14042000D01*
Y15603600D01*
X14081599D01*
Y15599200D01*
X14099200D01*
Y15594800D01*
X14112399D01*
Y15590401D01*
X14116800D01*
Y15586000D01*
X14125600D01*
Y15581599D01*
X14130000D01*
Y15572800D01*
X14134399D01*
Y15568401D01*
X14138800D01*
Y15559599D01*
X14143201D01*
Y15537601D01*
X14147600D01*
Y15520000D01*
X14143201D01*
Y15511200D01*
X14116800D01*
X14112399D01*
D02*
G37*
G36*
X14213600Y15383600D02*
Y15352800D01*
X14209200D01*
Y15344000D01*
X14160800D01*
Y15379201D01*
X14165199D01*
Y15414400D01*
X14169600D01*
Y15436400D01*
X14174001D01*
Y15471600D01*
X14178400D01*
Y15506799D01*
X14182800D01*
Y15533200D01*
X14187199D01*
Y15568401D01*
X14191600D01*
Y15594800D01*
X14196001D01*
Y15599200D01*
X14244400D01*
Y15581599D01*
X14239999D01*
Y15546400D01*
X14235600D01*
Y15506799D01*
X14231200D01*
Y15498000D01*
X14235600D01*
Y15493600D01*
X14358800D01*
Y15506799D01*
X14363200D01*
Y15537601D01*
X14367599D01*
Y15568401D01*
X14372000D01*
Y15594800D01*
X14376401D01*
Y15599200D01*
X14424800D01*
Y15577200D01*
X14420399D01*
Y15546400D01*
X14416000D01*
Y15511200D01*
X14411600D01*
Y15489200D01*
X14407201D01*
Y15453999D01*
X14402800D01*
Y15414400D01*
X14398399D01*
Y15383600D01*
X14394000D01*
Y15357201D01*
X14389600D01*
Y15344000D01*
X14341200D01*
Y15379201D01*
X14345599D01*
Y15410001D01*
X14350000D01*
Y15440800D01*
X14354401D01*
Y15445200D01*
X14350000D01*
Y15449600D01*
X14226801D01*
Y15445200D01*
X14222400D01*
Y15423199D01*
X14217999D01*
Y15388000D01*
X14213600D01*
Y15383600D01*
D02*
G37*
G36*
X14446800Y15458400D02*
Y15493600D01*
X14451199D01*
Y15520000D01*
X14455600D01*
Y15555200D01*
X14460001D01*
Y15581599D01*
X14464400D01*
Y15599200D01*
X14512801D01*
Y15564000D01*
X14508400D01*
Y15528799D01*
X14503999D01*
Y15502400D01*
X14499600D01*
Y15471600D01*
X14495200D01*
Y15436400D01*
X14490800D01*
Y15410001D01*
X14486400D01*
Y15374800D01*
X14482001D01*
Y15348399D01*
X14477600D01*
Y15344000D01*
X14429201D01*
Y15361600D01*
X14433600D01*
Y15396800D01*
X14438000D01*
Y15432001D01*
X14442400D01*
Y15458400D01*
X14446800D01*
D02*
G37*
G36*
X14710800Y15594800D02*
X14728400D01*
Y15590401D01*
X14737199D01*
Y15586000D01*
X14746001D01*
Y15581599D01*
X14750400D01*
Y15577200D01*
X14754800D01*
Y15572800D01*
X14759200D01*
Y15564000D01*
X14763600D01*
Y15555200D01*
X14767999D01*
Y15511200D01*
X14763600D01*
Y15493600D01*
X14759200D01*
Y15484801D01*
X14754800D01*
Y15475999D01*
X14750400D01*
Y15471600D01*
X14746001D01*
Y15467200D01*
X14741600D01*
Y15462801D01*
X14737199D01*
Y15458400D01*
X14732800D01*
Y15453999D01*
X14728400D01*
Y15449600D01*
X14719600D01*
Y15445200D01*
X14710800D01*
Y15440800D01*
X14693201D01*
Y15436400D01*
X14684399D01*
Y15427600D01*
X14688800D01*
Y15418800D01*
X14693201D01*
Y15414400D01*
X14697600D01*
Y15405600D01*
X14702000D01*
Y15401199D01*
X14706400D01*
Y15392400D01*
X14710800D01*
Y15383600D01*
X14715199D01*
Y15379201D01*
X14719600D01*
Y15370399D01*
X14724001D01*
Y15366000D01*
X14728400D01*
Y15357201D01*
X14732800D01*
Y15352800D01*
X14737199D01*
Y15344000D01*
X14675600D01*
Y15348399D01*
X14671201D01*
Y15352800D01*
X14666800D01*
Y15361600D01*
X14662399D01*
Y15370399D01*
X14658000D01*
Y15374800D01*
X14653600D01*
Y15383600D01*
X14649200D01*
Y15392400D01*
X14644800D01*
Y15396800D01*
X14640401D01*
Y15405600D01*
X14636000D01*
Y15410001D01*
X14631599D01*
Y15418800D01*
X14627200D01*
Y15427600D01*
X14622800D01*
Y15432001D01*
X14618401D01*
Y15436400D01*
X14587601D01*
Y15432001D01*
X14583200D01*
Y15427600D01*
X14578799D01*
Y15392400D01*
X14574400D01*
Y15361600D01*
X14570000D01*
Y15344000D01*
X14517200D01*
Y15357201D01*
X14521600D01*
Y15379201D01*
X14525999D01*
Y15414400D01*
X14530400D01*
Y15453999D01*
X14534801D01*
Y15475999D01*
X14539200D01*
Y15511200D01*
X14543600D01*
Y15520000D01*
Y15524400D01*
Y15542000D01*
X14548000D01*
Y15572800D01*
X14552400D01*
Y15594800D01*
X14556799D01*
Y15599200D01*
X14710800D01*
Y15594800D01*
D02*
G37*
%LPC*%
G36*
X14675600Y15555200D02*
X14600800D01*
Y15546400D01*
X14596400D01*
Y15524400D01*
X14592000D01*
Y15498000D01*
Y15493600D01*
Y15480400D01*
X14680000D01*
Y15484801D01*
X14693201D01*
Y15489200D01*
X14697600D01*
Y15493600D01*
X14706400D01*
Y15502400D01*
X14710800D01*
Y15520000D01*
X14715199D01*
Y15528799D01*
X14710800D01*
Y15542000D01*
X14706400D01*
Y15546400D01*
X14697600D01*
Y15550800D01*
X14675600D01*
Y15555200D01*
D02*
G37*
%LPD*%
D41*
X14352499Y13589999D02*
G03*
X14352499Y13589999I-12500J0D01*
G01*
X14522501Y14545000D02*
G03*
X14522501Y14545000I-12500J0D01*
G01*
X9012500Y12035000D02*
G03*
X9012500Y12035000I-12500J0D01*
G01*
Y13380000D02*
G03*
X9012500Y13380000I-12500J0D01*
G01*
X10647500Y14230000D02*
G03*
X10647500Y14230000I-12500J0D01*
G01*
X8222500Y15545000D02*
G03*
X8222500Y15545000I-12500J0D01*
G01*
X7677500Y10130000D02*
G03*
X7677500Y10130000I-12500J0D01*
G01*
X10097500Y12050000D02*
G03*
X10097500Y12050000I-12500J0D01*
G01*
X13492500Y12445000D02*
G03*
X13492500Y12445000I-12500J0D01*
G01*
X12352500Y14200000D02*
G03*
X12352500Y14200000I-12500J0D01*
G01*
X15972501Y13095000D02*
G03*
X15972501Y13095000I-12500J0D01*
G01*
D42*
X8655000Y12170000D02*
G03*
X8655000Y12170000I-5000J0D01*
G01*
X10765000Y14560001D02*
G03*
X10765000Y14560001I-5000J0D01*
G01*
X15547501Y12612500D02*
X15572501D01*
X15547501Y12467500D02*
X15572501D01*
X14370000Y13700000D02*
Y13780000D01*
X14450000D01*
X14670000Y13700000D02*
Y13780000D01*
X14589999D02*
X14670000D01*
X14607500Y14241499D02*
Y14318500D01*
X14412500Y14241499D02*
Y14318500D01*
X14500000Y13252499D02*
X14520000D01*
X14500000Y13367500D02*
X14520000D01*
X12045000Y12205000D02*
X12817500D01*
X12045000Y11175000D02*
X13239999D01*
X10025000Y10770000D02*
X11675000D01*
X10025000D02*
Y11310000D01*
X11675000D01*
Y10770000D02*
Y11310000D01*
X8905000Y12261502D02*
Y12338498D01*
X9095000Y12261502D02*
Y12338498D01*
X8825000Y13542500D02*
Y13905000D01*
Y12855000D02*
Y13217500D01*
X7875000Y12855000D02*
X8825000D01*
X7875000Y13905000D02*
X8825000D01*
X7775000Y12955000D02*
X7875000Y12855000D01*
X7775000Y13805000D02*
X7875000Y13905000D01*
X7775000Y12955000D02*
Y13216499D01*
Y13543500D02*
Y13805000D01*
X10861502Y14325000D02*
X10938498D01*
X10861502Y14135001D02*
X10938498D01*
X11209500Y12950000D02*
X11430500D01*
X11209500Y12750000D02*
X11430500D01*
X7785000Y14325000D02*
X8010000D01*
X8410000D02*
X8635000D01*
X7685000Y14425000D02*
X7785000Y14325000D01*
X8635000D02*
X8735000Y14425000D01*
X7685000D02*
Y15375000D01*
X8735000Y14425000D02*
Y15375000D01*
X8347500D02*
X8735000D01*
X7685000D02*
X8072500D01*
X8885000Y9705000D02*
Y9930000D01*
Y10330000D02*
Y10555000D01*
X8785000Y9605000D02*
X8885000Y9705000D01*
X8785000Y10655000D02*
X8885000Y10555000D01*
X7835000Y9605000D02*
X8785000D01*
X7835000Y10655000D02*
X8785000D01*
X7835000Y10267500D02*
Y10655000D01*
Y9605000D02*
Y9992500D01*
X11305000Y11625000D02*
Y11850000D01*
Y12250000D02*
Y12475000D01*
X11205000Y11525000D02*
X11305000Y11625000D01*
X11205000Y12575000D02*
X11305000Y12475000D01*
X10255000Y11525000D02*
X11205000D01*
X10255000Y12575000D02*
X11205000D01*
X10255000Y12187500D02*
Y12575000D01*
Y11525000D02*
Y11912500D01*
X13575000Y12671502D02*
Y12748498D01*
X13385001Y12671502D02*
Y12748498D01*
X11915000Y12455000D02*
Y13705000D01*
X13164999Y12455000D02*
Y13705000D01*
X10825000Y13152000D02*
X10977500D01*
X10790000Y13164999D02*
Y13655000D01*
X10470000D02*
X10790000D01*
X10470000Y13164999D02*
Y13655000D01*
Y13164999D02*
X10790000D01*
X12503500Y15425000D02*
X12765000D01*
X11915000D02*
X12176500D01*
X12765000D02*
X12864999Y15325000D01*
X11815000D02*
X11915000Y15425000D01*
X12864999Y14375000D02*
Y15325000D01*
X11815000Y14375000D02*
Y15325000D01*
Y14375000D02*
X12177500D01*
X12502500D02*
X12864999D01*
X15620000Y12115000D02*
X15939999D01*
Y11125000D02*
Y12115000D01*
X15620000Y11125000D02*
X15939999D01*
X15620000D02*
Y12115000D01*
X15432500Y12132000D02*
X15585001D01*
X14727000Y8610000D02*
Y9220000D01*
Y8610000D02*
X16367000D01*
Y9220000D01*
X14647000Y9830000D02*
X15547000D01*
X14647000D02*
Y10580000D01*
X14012000D02*
X14647000D01*
X14012000Y9220000D02*
Y10580000D01*
Y9220000D02*
X17082001D01*
Y10580000D01*
X16447000D02*
X17082001D01*
X16447000Y9830000D02*
Y10580000D01*
X15547000Y9830000D02*
X16447000D01*
X15135001Y13155000D02*
X16785001D01*
Y15405000D01*
X15135001D02*
X16785001D01*
X15135001Y13155000D02*
Y15405000D01*
X9650000Y14219501D02*
Y14440500D01*
X9850000Y14219501D02*
Y14440500D01*
X9666200Y14818500D02*
X9818700D01*
X9631200Y14831500D02*
Y15321500D01*
X9311200D02*
X9631200D01*
X9311200Y14831500D02*
Y15321500D01*
Y14831500D02*
X9631200D01*
X8779500Y11310000D02*
X9000500D01*
X8779500Y11510000D02*
X9000500D01*
X8508000Y11325000D02*
Y11477500D01*
X8005000Y11290000D02*
X8495000D01*
X8005000Y10970000D02*
Y11290000D01*
Y10970000D02*
X8495000D01*
Y11290000D01*
X15232500Y12057500D02*
Y12082500D01*
X15087500Y12057500D02*
Y12082500D01*
X16392500Y12177500D02*
Y12202500D01*
X16247501Y12177500D02*
Y12202500D01*
X15242500Y11537500D02*
Y11562500D01*
X15097501Y11537500D02*
Y11562500D01*
X15057500Y11097500D02*
X15082500D01*
X15057500Y11242500D02*
X15082500D01*
X13606645Y15259969D02*
X13539999D01*
Y15160001D01*
X13606645D01*
X13539999Y15209984D02*
X13573322D01*
X13639967Y15160001D02*
Y15226645D01*
X13656628D01*
X13673289Y15209984D01*
Y15160001D01*
Y15209984D01*
X13689952Y15226645D01*
X13706613Y15209984D01*
Y15160001D01*
X13739935Y15259969D02*
Y15160001D01*
X13789919D01*
X13806580Y15176662D01*
Y15193323D01*
Y15209984D01*
X13789919Y15226645D01*
X13739935D01*
X13839903D02*
Y15176662D01*
X13856564Y15160001D01*
X13906548D01*
Y15226645D01*
X13956532Y15243306D02*
Y15226645D01*
X13939871D01*
X13973193D01*
X13956532D01*
Y15176662D01*
X13973193Y15160001D01*
X14023177D02*
X14056500D01*
X14039839D01*
Y15226645D01*
X14023177D01*
X14173129Y15259969D02*
Y15160001D01*
X14123145D01*
X14106483Y15176662D01*
Y15209984D01*
X14123145Y15226645D01*
X14173129D01*
X14223112D02*
X14256436D01*
X14273097Y15209984D01*
Y15160001D01*
X14223112D01*
X14206451Y15176662D01*
X14223112Y15193323D01*
X14273097D01*
X14406387Y15226645D02*
X14439709Y15160001D01*
X14473032Y15226645D01*
X14556339Y15160001D02*
Y15259969D01*
X14506355Y15209984D01*
X14573000D01*
X14606323Y15160001D02*
Y15176662D01*
X14622984D01*
Y15160001D01*
X14606323D01*
X14689629Y15243306D02*
X14706291Y15259969D01*
X14739613D01*
X14756274Y15243306D01*
Y15226645D01*
X14739613Y15209984D01*
X14722952D01*
X14739613D01*
X14756274Y15193323D01*
Y15176662D01*
X14739613Y15160001D01*
X14706291D01*
X14689629Y15176662D01*
X13680000Y14980000D02*
X13713322D01*
X13696661D01*
Y15079968D01*
X13680000Y15063306D01*
X13763306Y14996661D02*
X13779968Y14980000D01*
X13813290D01*
X13829951Y14996661D01*
Y15063306D01*
X13813290Y15079968D01*
X13779968D01*
X13763306Y15063306D01*
Y15046645D01*
X13779968Y15029984D01*
X13829951D01*
X13863274Y14980000D02*
X13929919Y15046645D01*
X13963242Y15063306D02*
X13979903Y15079968D01*
X14013226D01*
X14029887Y15063306D01*
Y14996661D01*
X14013226Y14980000D01*
X13979903D01*
X13963242Y14996661D01*
Y15063306D01*
X14063210D02*
X14079871Y15079968D01*
X14113194D01*
X14129855Y15063306D01*
Y15046645D01*
X14113194Y15029984D01*
X14129855Y15013322D01*
Y14996661D01*
X14113194Y14980000D01*
X14079871D01*
X14063210Y14996661D01*
Y15013322D01*
X14079871Y15029984D01*
X14063210Y15046645D01*
Y15063306D01*
X14079871Y15029984D02*
X14113194D01*
X14163177Y14980000D02*
X14229823Y15046645D01*
X14329790Y14980000D02*
X14263145D01*
X14329790Y15046645D01*
Y15063306D01*
X14313129Y15079968D01*
X14279807D01*
X14263145Y15063306D01*
X14363113D02*
X14379774Y15079968D01*
X14413097D01*
X14429758Y15063306D01*
Y14996661D01*
X14413097Y14980000D01*
X14379774D01*
X14363113Y14996661D01*
Y15063306D01*
X14529726Y14980000D02*
X14463081D01*
X14529726Y15046645D01*
Y15063306D01*
X14513065Y15079968D01*
X14479742D01*
X14463081Y15063306D01*
X14629694Y15079968D02*
X14563049D01*
Y15029984D01*
X14596371Y15046645D01*
X14613033D01*
X14629694Y15029984D01*
Y14996661D01*
X14613033Y14980000D01*
X14579710D01*
X14563049Y14996661D01*
D43*
X16095000Y10634000D02*
G03*
X16095000Y10644000I0J5000D01*
G01*
D02*
G03*
X16095000Y10634000I0J-5000D01*
G01*
X7845000Y12495000D02*
X8495000D01*
X7845000Y11845000D02*
X8495000D01*
X11085000Y14714999D02*
Y15364999D01*
X10435000Y14714999D02*
Y15364999D01*
D44*
X13689999Y10100000D02*
X13789999Y10150000D01*
X13689999Y10100000D02*
X13789999Y10050000D01*
Y10150000D01*
X12057500Y9228000D02*
Y10452000D01*
Y9228000D02*
X13622501D01*
Y10452000D01*
X11562500Y9228000D02*
Y10452000D01*
X10297500Y9228000D02*
X11562500D01*
X10297500D02*
Y10452000D01*
X11730000Y10050000D02*
Y10150000D01*
X11630000Y10100000D02*
X11730000Y10050000D01*
X11630000Y10100000D02*
X11730000Y10150000D01*
D45*
X7718173Y10344678D02*
X7709443Y10335947D01*
Y10318486D01*
X7718173Y10309756D01*
X7753095D01*
X7761826Y10318486D01*
Y10335947D01*
X7753095Y10344678D01*
X7709443Y10362139D02*
Y10379600D01*
Y10370869D01*
X7761826D01*
Y10362139D01*
Y10379600D01*
Y10405791D02*
X7709443D01*
X7761826Y10440713D01*
X7709443D01*
X7770556Y10458174D02*
Y10493096D01*
X7761826Y10510557D02*
X7726904D01*
X7709443Y10528018D01*
X7726904Y10545479D01*
X7761826D01*
X7735634D01*
Y10510557D01*
X7709443Y10562940D02*
X7761826D01*
Y10597862D01*
X7709443Y10615323D02*
Y10650245D01*
Y10632784D01*
X7761826D01*
X10570869Y12701826D02*
X10562138Y12710557D01*
X10544677D01*
X10535947Y12701826D01*
Y12666904D01*
X10544677Y12658174D01*
X10562138D01*
X10570869Y12666904D01*
X10588330Y12710557D02*
X10605791D01*
X10597060D01*
Y12658174D01*
X10588330D01*
X10605791D01*
X10631982D02*
Y12710557D01*
X10666904Y12658174D01*
Y12710557D01*
X10684365Y12649443D02*
X10719287D01*
X10771670Y12710557D02*
X10736748D01*
Y12684365D01*
X10754209Y12693096D01*
X10762940D01*
X10771670Y12684365D01*
Y12666904D01*
X10762940Y12658174D01*
X10745479D01*
X10736748Y12666904D01*
X10789131Y12710557D02*
Y12675635D01*
X10806592Y12658174D01*
X10824053Y12675635D01*
Y12710557D01*
X10046347Y11423808D02*
Y11476191D01*
X10072539D01*
X10081269Y11467461D01*
Y11450000D01*
X10072539Y11441269D01*
X10046347D01*
X10063808D02*
X10081269Y11423808D01*
X10098730Y11467461D02*
X10107461Y11476191D01*
X10124922D01*
X10133652Y11467461D01*
Y11458730D01*
X10124922Y11450000D01*
X10116191D01*
X10124922D01*
X10133652Y11441269D01*
Y11432539D01*
X10124922Y11423808D01*
X10107461D01*
X10098730Y11432539D01*
X14686348Y13283809D02*
Y13336192D01*
X14712540D01*
X14721271Y13327461D01*
Y13310001D01*
X14712540Y13301270D01*
X14686348D01*
X14703809D02*
X14721271Y13283809D01*
X14773653D02*
X14738730D01*
X14773653Y13318732D01*
Y13327461D01*
X14764922Y13336192D01*
X14747461D01*
X14738730Y13327461D01*
X14221269Y13682539D02*
Y13717461D01*
X14212540Y13726192D01*
X14195078D01*
X14186348Y13717461D01*
Y13682539D01*
X14195078Y13673808D01*
X14212540D01*
X14203809Y13691270D02*
X14221269Y13673808D01*
X14212540D02*
X14221269Y13682539D01*
X14273653Y13673808D02*
X14238730D01*
X14273653Y13708731D01*
Y13717461D01*
X14264922Y13726192D01*
X14247461D01*
X14238730Y13717461D01*
X8035947Y12620557D02*
Y12568174D01*
X8070869D01*
X8088330D02*
X8105791D01*
X8097060D01*
Y12620557D01*
X8088330Y12611826D01*
X8131982Y12559443D02*
X8166904D01*
X8184365Y12568174D02*
Y12603096D01*
X8201826Y12620557D01*
X8219287Y12603096D01*
Y12568174D01*
Y12594365D01*
X8184365D01*
X8236748Y12620557D02*
Y12568174D01*
X8271670D01*
X8289131Y12620557D02*
X8324053D01*
X8306592D01*
Y12568174D01*
X12922137Y13800557D02*
Y13748174D01*
X12957060D01*
X12974521D02*
X12991982D01*
X12983252D01*
Y13800557D01*
X12974521Y13791826D01*
X13018175Y13739442D02*
X13053096D01*
X13105479Y13800557D02*
X13070557D01*
Y13774365D01*
X13088017Y13783096D01*
X13096748D01*
X13105479Y13774365D01*
Y13756905D01*
X13096748Y13748174D01*
X13079288D01*
X13070557Y13756905D01*
X13122940Y13800557D02*
Y13765636D01*
X13140401Y13748174D01*
X13157861Y13765636D01*
Y13800557D01*
X10525947Y15580557D02*
Y15528174D01*
X10560869D01*
X10578330D02*
X10595791D01*
X10587060D01*
Y15580557D01*
X10578330Y15571826D01*
X10621982Y15519443D02*
X10656904D01*
X10674365Y15580557D02*
Y15528174D01*
Y15545634D01*
X10709287Y15580557D01*
X10683096Y15554366D01*
X10709287Y15528174D01*
X10761670Y15580557D02*
X10726748D01*
Y15528174D01*
X10761670D01*
X10726748Y15554366D02*
X10744209D01*
X10779131Y15580557D02*
Y15571826D01*
X10796592Y15554366D01*
X10814053Y15571826D01*
Y15580557D01*
X10796592Y15554366D02*
Y15528174D01*
X15140939Y15554002D02*
Y15501620D01*
Y15519081D01*
X15175862Y15554002D01*
X15149670Y15527811D01*
X15175862Y15501620D01*
X15228246D02*
X15193323D01*
X15228246Y15536542D01*
Y15545271D01*
X15219514Y15554002D01*
X15202052D01*
X15193323Y15545271D01*
X12011270Y10716191D02*
X11993809D01*
X12002539D01*
Y10672539D01*
X11993809Y10663808D01*
X11985078D01*
X11976348Y10672539D01*
X12028731Y10707461D02*
X12037461Y10716191D01*
X12054922D01*
X12063653Y10707461D01*
Y10698730D01*
X12054922Y10690000D01*
X12046192D01*
X12054922D01*
X12063653Y10681269D01*
Y10672539D01*
X12054922Y10663808D01*
X12037461D01*
X12028731Y10672539D01*
X10241270Y10646192D02*
X10223809D01*
X10232539D01*
Y10602539D01*
X10223809Y10593809D01*
X10215078D01*
X10206348Y10602539D01*
X10293653Y10593809D02*
X10258731D01*
X10293653Y10628731D01*
Y10637461D01*
X10284922Y10646192D01*
X10267461D01*
X10258731Y10637461D01*
X14180000Y10766192D02*
X14162540D01*
X14171271D01*
Y10722539D01*
X14162540Y10713809D01*
X14153809D01*
X14145078Y10722539D01*
X14197461Y10713809D02*
X14214922D01*
X14206192D01*
Y10766192D01*
X14197461Y10757461D01*
X15864278Y11000557D02*
X15881738D01*
X15873007D01*
Y10948174D01*
X15864278D01*
X15881738D01*
X15942851Y10991826D02*
X15934122Y11000557D01*
X15916660D01*
X15907928Y10991826D01*
Y10956904D01*
X15916660Y10948174D01*
X15934122D01*
X15942851Y10956904D01*
X15960312Y10939443D02*
X15995235D01*
X16047617Y10991826D02*
X16038887Y11000557D01*
X16021426D01*
X16012695Y10991826D01*
Y10983096D01*
X16021426Y10974365D01*
X16038887D01*
X16047617Y10965635D01*
Y10956904D01*
X16038887Y10948174D01*
X16021426D01*
X16012695Y10956904D01*
X16100000Y11000557D02*
X16065079D01*
Y10948174D01*
X16100000D01*
X16065079Y10974365D02*
X16082539D01*
X16117461Y10948174D02*
Y11000557D01*
X16143652D01*
X16152383Y10991826D01*
Y10974365D01*
X16143652Y10965635D01*
X16117461D01*
X16134921D02*
X16152383Y10948174D01*
X16169844Y11000557D02*
X16187305D01*
X16178574D01*
Y10948174D01*
X16169844D01*
X16187305D01*
X16213496D02*
Y10983096D01*
X16230957Y11000557D01*
X16248418Y10983096D01*
Y10948174D01*
Y10974365D01*
X16213496D01*
X16265878Y11000557D02*
Y10948174D01*
X16300801D01*
X16318262D02*
X16335722D01*
X16326993D01*
Y11000557D01*
X16318262Y10991826D01*
X7889443Y10985947D02*
Y11003408D01*
Y10994678D01*
X7941826D01*
Y10985947D01*
Y11003408D01*
X7898174Y11064521D02*
X7889443Y11055791D01*
Y11038330D01*
X7898174Y11029599D01*
X7933096D01*
X7941826Y11038330D01*
Y11055791D01*
X7933096Y11064521D01*
X7950557Y11081982D02*
Y11116904D01*
X7941826Y11134365D02*
X7906904D01*
X7889443Y11151826D01*
X7906904Y11169287D01*
X7941826D01*
X7915635D01*
Y11134365D01*
X7889443Y11186748D02*
X7941826D01*
Y11221670D01*
X7889443Y11239131D02*
Y11274053D01*
Y11256592D01*
X7941826D01*
X10512138Y13890556D02*
X10529599D01*
X10520869D01*
Y13838174D01*
X10512138D01*
X10529599D01*
X10590713Y13881825D02*
X10581982Y13890556D01*
X10564521D01*
X10555791Y13881825D01*
Y13846904D01*
X10564521Y13838174D01*
X10581982D01*
X10590713Y13846904D01*
X10608174Y13829443D02*
X10643096D01*
X10695479Y13890556D02*
X10660557D01*
Y13864365D01*
X10678018Y13873096D01*
X10686748D01*
X10695479Y13864365D01*
Y13846904D01*
X10686748Y13838174D01*
X10669287D01*
X10660557Y13846904D01*
X10712940Y13890556D02*
Y13855635D01*
X10730401Y13838174D01*
X10747862Y13855635D01*
Y13890556D01*
X9345947Y15600557D02*
X9363408D01*
X9354678D01*
Y15548174D01*
X9345947D01*
X9363408D01*
X9424521Y15591826D02*
X9415791Y15600557D01*
X9398330D01*
X9389599Y15591826D01*
Y15556905D01*
X9398330Y15548174D01*
X9415791D01*
X9424521Y15556905D01*
X9441982Y15539442D02*
X9476904D01*
X9494365Y15600557D02*
Y15548174D01*
Y15565636D01*
X9529287Y15600557D01*
X9503096Y15574365D01*
X9529287Y15548174D01*
X9581670Y15600557D02*
X9546748D01*
Y15548174D01*
X9581670D01*
X9546748Y15574365D02*
X9564209D01*
X9599131Y15600557D02*
Y15591826D01*
X9616592Y15574365D01*
X9634053Y15591826D01*
Y15600557D01*
X9616592Y15574365D02*
Y15548174D01*
X14266348Y14306190D02*
Y14253809D01*
X14292538D01*
X14301270Y14262540D01*
Y14297461D01*
X14292538Y14306190D01*
X14266348D01*
X14353653D02*
X14318732D01*
Y14280000D01*
X14336192Y14288730D01*
X14344922D01*
X14353653Y14280000D01*
Y14262540D01*
X14344922Y14253809D01*
X14327461D01*
X14318732Y14262540D01*
X8845947Y12630557D02*
Y12578174D01*
X8872138D01*
X8880869Y12586904D01*
Y12621826D01*
X8872138Y12630557D01*
X8845947D01*
X8898330Y12578174D02*
X8915791D01*
X8907060D01*
Y12630557D01*
X8898330Y12621826D01*
X8941982Y12569443D02*
X8976904D01*
X8994365Y12578174D02*
Y12613096D01*
X9011826Y12630557D01*
X9029287Y12613096D01*
Y12578174D01*
Y12604365D01*
X8994365D01*
X9046748Y12630557D02*
Y12578174D01*
X9081670D01*
X9099131Y12630557D02*
X9134053D01*
X9116592D01*
Y12578174D01*
X13382138Y12380557D02*
Y12328174D01*
X13408330D01*
X13417059Y12336904D01*
Y12371826D01*
X13408330Y12380557D01*
X13382138D01*
X13434521Y12328174D02*
X13451982D01*
X13443253D01*
Y12380557D01*
X13434521Y12371826D01*
X13478174Y12319443D02*
X13513097D01*
X13565479Y12380557D02*
X13530557D01*
Y12354365D01*
X13548018Y12363096D01*
X13556747D01*
X13565479Y12354365D01*
Y12336904D01*
X13556747Y12328174D01*
X13539287D01*
X13530557Y12336904D01*
X13582941Y12380557D02*
Y12345635D01*
X13600401Y12328174D01*
X13617862Y12345635D01*
Y12380557D01*
X10925947Y14440556D02*
Y14388174D01*
X10952138D01*
X10960869Y14396904D01*
Y14431825D01*
X10952138Y14440556D01*
X10925947D01*
X10978330Y14388174D02*
X10995791D01*
X10987060D01*
Y14440556D01*
X10978330Y14431825D01*
X11021982Y14379443D02*
X11056904D01*
X11074365Y14440556D02*
Y14388174D01*
Y14405635D01*
X11109287Y14440556D01*
X11083096Y14414365D01*
X11109287Y14388174D01*
X11161670Y14440556D02*
X11126748D01*
Y14388174D01*
X11161670D01*
X11126748Y14414365D02*
X11144209D01*
X11179131Y14440556D02*
Y14431825D01*
X11196592Y14414365D01*
X11214053Y14431825D01*
Y14440556D01*
X11196592Y14414365D02*
Y14388174D01*
X14959962Y11382212D02*
X14951231Y11390943D01*
X14933771D01*
X14925040Y11382212D01*
Y11347290D01*
X14933771Y11338560D01*
X14951231D01*
X14959962Y11347290D01*
X14977423Y11338560D02*
X14994884D01*
X14986153D01*
Y11390943D01*
X14977423Y11382212D01*
X15047267Y11338560D02*
Y11390943D01*
X15021075Y11364751D01*
X15055997D01*
X16288382Y12479492D02*
X16279651Y12488223D01*
X16262190D01*
X16253461Y12479492D01*
Y12444570D01*
X16262190Y12435840D01*
X16279651D01*
X16288382Y12444570D01*
X16305843Y12435840D02*
X16323305D01*
X16314574D01*
Y12488223D01*
X16305843Y12479492D01*
X16349495D02*
X16358226Y12488223D01*
X16375687D01*
X16384418Y12479492D01*
Y12470762D01*
X16375687Y12462031D01*
X16366956D01*
X16375687D01*
X16384418Y12453301D01*
Y12444570D01*
X16375687Y12435840D01*
X16358226D01*
X16349495Y12444570D01*
X15137762Y11839412D02*
X15129031Y11848143D01*
X15111571D01*
X15102840Y11839412D01*
Y11804490D01*
X15111571Y11795760D01*
X15129031D01*
X15137762Y11804490D01*
X15155223Y11795760D02*
X15172684D01*
X15163953D01*
Y11848143D01*
X15155223Y11839412D01*
X15233797Y11795760D02*
X15198875D01*
X15233797Y11830682D01*
Y11839412D01*
X15225067Y11848143D01*
X15207607D01*
X15198875Y11839412D01*
X15528174Y12747461D02*
X15519443Y12756191D01*
X15501982D01*
X15493253Y12747461D01*
Y12712539D01*
X15501982Y12703808D01*
X15519443D01*
X15528174Y12712539D01*
X15545634Y12703808D02*
X15563097D01*
X15554366D01*
Y12756191D01*
X15545634Y12747461D01*
X15589287Y12703808D02*
X15606747D01*
X15598018D01*
Y12756191D01*
X15589287Y12747461D01*
X15127602Y12360112D02*
X15118871Y12368843D01*
X15101410D01*
X15092680Y12360112D01*
Y12325190D01*
X15101410Y12316460D01*
X15118871D01*
X15127602Y12325190D01*
X15145062Y12316460D02*
X15162524D01*
X15153793D01*
Y12368843D01*
X15145062Y12360112D01*
X15188715D02*
X15197446Y12368843D01*
X15214906D01*
X15223637Y12360112D01*
Y12325190D01*
X15214906Y12316460D01*
X15197446D01*
X15188715Y12325190D01*
Y12360112D01*
X8144121Y14021826D02*
X8135390Y14030557D01*
X8117929D01*
X8109199Y14021826D01*
Y13986903D01*
X8117929Y13978174D01*
X8135390D01*
X8144121Y13986903D01*
X8187773Y14030557D02*
X8170312D01*
X8161582Y14021826D01*
Y13986903D01*
X8170312Y13978174D01*
X8187773D01*
X8196504Y13986903D01*
Y14021826D01*
X8187773Y14030557D01*
X8213965D02*
Y13986903D01*
X8222695Y13978174D01*
X8240156D01*
X8248886Y13986903D01*
Y14030557D01*
X8266347D02*
X8301269D01*
X8283808D01*
Y13978174D01*
X8318730Y13969443D02*
X8353652D01*
X8371113Y13978174D02*
Y14013097D01*
X8388574Y14030557D01*
X8406035Y14013097D01*
Y13978174D01*
Y14004366D01*
X8371113D01*
X8423496Y14030557D02*
Y13978174D01*
X8458418D01*
X8475879Y14030557D02*
X8510801D01*
X8493340D01*
Y13978174D01*
X8760869Y11671826D02*
X8752138Y11680557D01*
X8734677D01*
X8725947Y11671826D01*
Y11636904D01*
X8734677Y11628174D01*
X8752138D01*
X8760869Y11636904D01*
X8778330Y11628174D02*
X8795791D01*
X8787060D01*
Y11680557D01*
X8778330Y11671826D01*
X8821982Y11619443D02*
X8856904D01*
X8874365Y11628174D02*
Y11663096D01*
X8891826Y11680557D01*
X8909287Y11663096D01*
Y11628174D01*
Y11654365D01*
X8874365D01*
X8926748Y11680557D02*
Y11628174D01*
X8961670D01*
X8979131Y11680557D02*
X9014053D01*
X8996592D01*
Y11628174D01*
X11770312Y12321826D02*
X11761582Y12330557D01*
X11744121D01*
X11735390Y12321826D01*
Y12286904D01*
X11744121Y12278174D01*
X11761582D01*
X11770312Y12286904D01*
X11813965Y12330557D02*
X11796504D01*
X11787773Y12321826D01*
Y12286904D01*
X11796504Y12278174D01*
X11813965D01*
X11822695Y12286904D01*
Y12321826D01*
X11813965Y12330557D01*
X11840156D02*
Y12286904D01*
X11848887Y12278174D01*
X11866348D01*
X11875078Y12286904D01*
Y12330557D01*
X11892539D02*
X11927461D01*
X11910000D01*
Y12278174D01*
X11944922Y12269443D02*
X11979844D01*
X12032227Y12330557D02*
X11997305D01*
Y12304365D01*
X12014766Y12313096D01*
X12023496D01*
X12032227Y12304365D01*
Y12286904D01*
X12023496Y12278174D01*
X12006035D01*
X11997305Y12286904D01*
X12049688Y12330557D02*
Y12295635D01*
X12067149Y12278174D01*
X12084610Y12295635D01*
Y12330557D01*
X11320869Y13091826D02*
X11312138Y13100557D01*
X11294677D01*
X11285947Y13091826D01*
Y13056905D01*
X11294677Y13048174D01*
X11312138D01*
X11320869Y13056905D01*
X11338330Y13048174D02*
X11355791D01*
X11347060D01*
Y13100557D01*
X11338330Y13091826D01*
X11381982D02*
X11390713Y13100557D01*
X11408174D01*
X11416904Y13091826D01*
Y13083096D01*
X11399443Y13065636D01*
Y13056905D02*
Y13048174D01*
X11434365Y13039442D02*
X11469287D01*
X11521670Y13100557D02*
X11486748D01*
Y13074365D01*
X11504209Y13083096D01*
X11512940D01*
X11521670Y13074365D01*
Y13056905D01*
X11512940Y13048174D01*
X11495479D01*
X11486748Y13056905D01*
X11539131Y13100557D02*
Y13065636D01*
X11556592Y13048174D01*
X11574053Y13065636D01*
Y13100557D01*
X11774121Y15551826D02*
X11765390Y15560558D01*
X11747929D01*
X11739199Y15551826D01*
Y15516904D01*
X11747929Y15508174D01*
X11765390D01*
X11774121Y15516904D01*
X11817773Y15560558D02*
X11800312D01*
X11791582Y15551826D01*
Y15516904D01*
X11800312Y15508174D01*
X11817773D01*
X11826504Y15516904D01*
Y15551826D01*
X11817773Y15560558D01*
X11843965D02*
Y15516904D01*
X11852695Y15508174D01*
X11870156D01*
X11878887Y15516904D01*
Y15560558D01*
X11896348D02*
X11931270D01*
X11913809D01*
Y15508174D01*
X11948730Y15499443D02*
X11983652D01*
X12001113Y15560558D02*
Y15508174D01*
Y15525635D01*
X12036035Y15560558D01*
X12009844Y15534364D01*
X12036035Y15508174D01*
X12088418Y15560558D02*
X12053496D01*
Y15508174D01*
X12088418D01*
X12053496Y15534364D02*
X12070957D01*
X12105879Y15560558D02*
Y15551826D01*
X12123340Y15534364D01*
X12140801Y15551826D01*
Y15560558D01*
X12123340Y15534364D02*
Y15508174D01*
X8434677Y15541826D02*
X8425947Y15550557D01*
X8408486D01*
X8399755Y15541826D01*
Y15506905D01*
X8408486Y15498174D01*
X8425947D01*
X8434677Y15506905D01*
X8452138Y15550557D02*
X8469599D01*
X8460869D01*
Y15498174D01*
X8452138D01*
X8469599D01*
X8495791D02*
Y15550557D01*
X8530713Y15498174D01*
Y15550557D01*
X8548174Y15489442D02*
X8583096D01*
X8600557Y15550557D02*
Y15498174D01*
Y15515636D01*
X8635479Y15550557D01*
X8609287Y15524365D01*
X8635479Y15498174D01*
X8687861Y15550557D02*
X8652940D01*
Y15498174D01*
X8687861D01*
X8652940Y15524365D02*
X8670400D01*
X8705322Y15550557D02*
Y15541826D01*
X8722783Y15524365D01*
X8740244Y15541826D01*
Y15550557D01*
X8722783Y15524365D02*
Y15498174D01*
X9440869Y14591826D02*
X9432138Y14600557D01*
X9414677D01*
X9405947Y14591826D01*
Y14556905D01*
X9414677Y14548174D01*
X9432138D01*
X9440869Y14556905D01*
X9458330Y14548174D02*
X9475791D01*
X9467060D01*
Y14600557D01*
X9458330Y14591826D01*
X9501982Y14539442D02*
X9536904D01*
X9554365Y14600557D02*
Y14548174D01*
Y14565636D01*
X9589287Y14600557D01*
X9563096Y14574365D01*
X9589287Y14548174D01*
X9641670Y14600557D02*
X9606748D01*
Y14548174D01*
X9641670D01*
X9606748Y14574365D02*
X9624209D01*
X9659131Y14600557D02*
Y14591826D01*
X9676592Y14574365D01*
X9694053Y14591826D01*
Y14600557D01*
X9676592Y14574365D02*
Y14548174D01*
%TF.MD5,9a87fd23c03a221375608dd4fd96aecd*%
M02*
