%TF.GenerationSoftware,Altium Limited,Altium Designer,25.8.1 (18)*%
G04 Layer_Physical_Order=2*
G04 Layer_Color=16711680*
%FSLAX45Y45*%
%MOMM*%
%TF.SameCoordinates,0F1D7CA1-D0BB-481A-9C26-AB2C8EFFB1FF*%
%TF.FilePolarity,Positive*%
%TF.FileFunction,Copper,L2,Bot,Signal*%
%TF.Part,Single*%
G01*
G75*
%TA.AperFunction,Conductor*%
%ADD27C,0.60000*%
%ADD28C,1.00000*%
%TA.AperFunction,ComponentPad*%
%ADD30C,1.40000*%
%ADD31C,1.52000*%
%ADD32C,1.60000*%
%ADD33C,3.00000*%
%ADD34R,1.52000X1.52000*%
%ADD35R,1.60000X1.60000*%
%ADD36C,2.00000*%
%ADD37R,1.40000X1.40000*%
%ADD38C,4.80000*%
%ADD39R,2.00000X2.00000*%
%TA.AperFunction,ViaPad*%
%ADD40C,1.27000*%
G36*
X17020090Y15690239D02*
X17066315Y15671092D01*
X17107915Y15643295D01*
X17143294Y15607915D01*
X17171092Y15566315D01*
X17190239Y15520090D01*
X17200000Y15471017D01*
Y15446001D01*
Y9454000D01*
Y9428983D01*
X17190239Y9379911D01*
X17171092Y9333686D01*
X17143294Y9292084D01*
X17107915Y9256705D01*
X17066315Y9228908D01*
X17020090Y9209761D01*
X16971017Y9200000D01*
X7528983D01*
X7479911Y9209761D01*
X7433686Y9228908D01*
X7392084Y9256705D01*
X7356705Y9292084D01*
X7328908Y9333686D01*
X7309761Y9379911D01*
X7300000Y9428983D01*
Y9454000D01*
Y15446001D01*
Y15471017D01*
X7309761Y15520090D01*
X7328908Y15566315D01*
X7356705Y15607915D01*
X7392084Y15643295D01*
X7433686Y15671092D01*
X7479911Y15690239D01*
X7528983Y15700000D01*
X16971017D01*
X17020090Y15690239D01*
D02*
G37*
%LPC*%
G36*
X13092700Y15638634D02*
Y15562700D01*
X13168633D01*
X13162842Y15584314D01*
X13151138Y15604585D01*
X13134586Y15621138D01*
X13114314Y15632841D01*
X13092700Y15638634D01*
D02*
G37*
G36*
X13067300D02*
X13045686Y15632841D01*
X13025414Y15621138D01*
X13008862Y15604585D01*
X12997157Y15584314D01*
X12991367Y15562700D01*
X13067300D01*
Y15638634D01*
D02*
G37*
G36*
X16412700Y15628633D02*
Y15552699D01*
X16488634D01*
X16482841Y15574313D01*
X16471138Y15594586D01*
X16454585Y15611137D01*
X16434314Y15622841D01*
X16412700Y15628633D01*
D02*
G37*
G36*
X16387300D02*
X16365686Y15622841D01*
X16345415Y15611137D01*
X16328862Y15594586D01*
X16317159Y15574313D01*
X16311366Y15552699D01*
X16387300D01*
Y15628633D01*
D02*
G37*
G36*
X11312700D02*
Y15552699D01*
X11388633D01*
X11382842Y15574313D01*
X11371138Y15594586D01*
X11354586Y15611137D01*
X11334314Y15622841D01*
X11312700Y15628633D01*
D02*
G37*
G36*
X11287300D02*
X11265686Y15622841D01*
X11245414Y15611137D01*
X11228862Y15594586D01*
X11217158Y15574313D01*
X11211367Y15552699D01*
X11287300D01*
Y15628633D01*
D02*
G37*
G36*
X15502699Y15618633D02*
Y15542700D01*
X15578633D01*
X15572842Y15564314D01*
X15561137Y15584586D01*
X15544586Y15601138D01*
X15524313Y15612842D01*
X15502699Y15618633D01*
D02*
G37*
G36*
X15477299D02*
X15455685Y15612842D01*
X15435414Y15601138D01*
X15418861Y15584586D01*
X15407158Y15564314D01*
X15401367Y15542700D01*
X15477299D01*
Y15618633D01*
D02*
G37*
G36*
X9752700Y15558633D02*
Y15482700D01*
X9828633D01*
X9822842Y15504314D01*
X9811138Y15524586D01*
X9794586Y15541138D01*
X9774314Y15552843D01*
X9752700Y15558633D01*
D02*
G37*
G36*
X9727300D02*
X9705686Y15552843D01*
X9685414Y15541138D01*
X9668862Y15524586D01*
X9657158Y15504314D01*
X9651367Y15482700D01*
X9727300D01*
Y15558633D01*
D02*
G37*
G36*
X9212700D02*
Y15482700D01*
X9288633D01*
X9282841Y15504314D01*
X9271138Y15524586D01*
X9254586Y15541138D01*
X9234314Y15552843D01*
X9212700Y15558633D01*
D02*
G37*
G36*
X9187300D02*
X9165686Y15552843D01*
X9145414Y15541138D01*
X9128862Y15524586D01*
X9117158Y15504314D01*
X9111367Y15482700D01*
X9187300D01*
Y15558633D01*
D02*
G37*
G36*
X13168633Y15537300D02*
X13092700D01*
Y15461366D01*
X13114314Y15467159D01*
X13134586Y15478862D01*
X13151138Y15495415D01*
X13162842Y15515686D01*
X13168633Y15537300D01*
D02*
G37*
G36*
X13067300D02*
X12991367D01*
X12997157Y15515686D01*
X13008862Y15495415D01*
X13025414Y15478862D01*
X13045686Y15467159D01*
X13067300Y15461366D01*
Y15537300D01*
D02*
G37*
G36*
X16488634Y15527299D02*
X16412700D01*
Y15451367D01*
X16434314Y15457158D01*
X16454585Y15468861D01*
X16471138Y15485414D01*
X16482841Y15505685D01*
X16488634Y15527299D01*
D02*
G37*
G36*
X16387300D02*
X16311366D01*
X16317159Y15505685D01*
X16328862Y15485414D01*
X16345415Y15468861D01*
X16365686Y15457158D01*
X16387300Y15451367D01*
Y15527299D01*
D02*
G37*
G36*
X11388633D02*
X11312700D01*
Y15451367D01*
X11334314Y15457158D01*
X11354586Y15468861D01*
X11371138Y15485414D01*
X11382842Y15505685D01*
X11388633Y15527299D01*
D02*
G37*
G36*
X11287300D02*
X11211367D01*
X11217158Y15505685D01*
X11228862Y15485414D01*
X11245414Y15468861D01*
X11265686Y15457158D01*
X11287300Y15451367D01*
Y15527299D01*
D02*
G37*
G36*
X15578633Y15517300D02*
X15502699D01*
Y15441367D01*
X15524313Y15447157D01*
X15544586Y15458862D01*
X15561137Y15475414D01*
X15572842Y15495686D01*
X15578633Y15517300D01*
D02*
G37*
G36*
X15477299D02*
X15401367D01*
X15407158Y15495686D01*
X15418861Y15475414D01*
X15435414Y15458862D01*
X15455685Y15447157D01*
X15477299Y15441367D01*
Y15517300D01*
D02*
G37*
G36*
X9828633Y15457300D02*
X9752700D01*
Y15381367D01*
X9774314Y15387158D01*
X9794586Y15398862D01*
X9811138Y15415414D01*
X9822842Y15435686D01*
X9828633Y15457300D01*
D02*
G37*
G36*
X9727300D02*
X9651367D01*
X9657158Y15435686D01*
X9668862Y15415414D01*
X9685414Y15398862D01*
X9705686Y15387158D01*
X9727300Y15381367D01*
Y15457300D01*
D02*
G37*
G36*
X9288633D02*
X9212700D01*
Y15381367D01*
X9234314Y15387158D01*
X9254586Y15398862D01*
X9271138Y15415414D01*
X9282841Y15435686D01*
X9288633Y15457300D01*
D02*
G37*
G36*
X9187300D02*
X9111367D01*
X9117158Y15435686D01*
X9128862Y15415414D01*
X9145414Y15398862D01*
X9165686Y15387158D01*
X9187300Y15381367D01*
Y15457300D01*
D02*
G37*
G36*
X7522700Y15278633D02*
Y15202699D01*
X7598633D01*
X7592842Y15224313D01*
X7581138Y15244586D01*
X7564586Y15261137D01*
X7544314Y15272842D01*
X7522700Y15278633D01*
D02*
G37*
G36*
X7497300D02*
X7475686Y15272842D01*
X7455414Y15261137D01*
X7438862Y15244586D01*
X7427158Y15224313D01*
X7421367Y15202699D01*
X7497300D01*
Y15278633D01*
D02*
G37*
G36*
X17002699Y15218633D02*
Y15142700D01*
X17078633D01*
X17072842Y15164314D01*
X17061137Y15184586D01*
X17044586Y15201138D01*
X17024313Y15212842D01*
X17002699Y15218633D01*
D02*
G37*
G36*
X16977299D02*
X16955685Y15212842D01*
X16935414Y15201138D01*
X16918861Y15184586D01*
X16907158Y15164314D01*
X16901367Y15142700D01*
X16977299D01*
Y15218633D01*
D02*
G37*
G36*
X7598633Y15177299D02*
X7522700D01*
Y15101367D01*
X7544314Y15107159D01*
X7564586Y15118861D01*
X7581138Y15135414D01*
X7592842Y15155685D01*
X7598633Y15177299D01*
D02*
G37*
G36*
X7497300D02*
X7421367D01*
X7427158Y15155685D01*
X7438862Y15135414D01*
X7455414Y15118861D01*
X7475686Y15107159D01*
X7497300Y15101367D01*
Y15177299D01*
D02*
G37*
G36*
X17078633Y15117300D02*
X17002699D01*
Y15041367D01*
X17024313Y15047157D01*
X17044586Y15058862D01*
X17061137Y15075414D01*
X17072842Y15095686D01*
X17078633Y15117300D01*
D02*
G37*
G36*
X16977299D02*
X16901367D01*
X16907158Y15095686D01*
X16918861Y15075414D01*
X16935414Y15058862D01*
X16955685Y15047157D01*
X16977299Y15041367D01*
Y15117300D01*
D02*
G37*
G36*
X13122701Y14838634D02*
Y14762700D01*
X13198633D01*
X13192842Y14784314D01*
X13181139Y14804585D01*
X13164586Y14821138D01*
X13144315Y14832841D01*
X13122701Y14838634D01*
D02*
G37*
G36*
X13097301D02*
X13075687Y14832841D01*
X13055414Y14821138D01*
X13038863Y14804585D01*
X13027158Y14784314D01*
X13021367Y14762700D01*
X13097301D01*
Y14838634D01*
D02*
G37*
G36*
X13972701Y14828633D02*
Y14752699D01*
X14048633D01*
X14042842Y14774313D01*
X14031139Y14794586D01*
X14014586Y14811137D01*
X13994315Y14822842D01*
X13972701Y14828633D01*
D02*
G37*
G36*
X13947301D02*
X13925687Y14822842D01*
X13905414Y14811137D01*
X13888863Y14794586D01*
X13877158Y14774313D01*
X13871367Y14752699D01*
X13947301D01*
Y14828633D01*
D02*
G37*
G36*
X16576509Y14955400D02*
X16543491D01*
X16511597Y14946854D01*
X16483003Y14930345D01*
X16459656Y14906998D01*
X16443146Y14878403D01*
X16434599Y14846509D01*
Y14813490D01*
X16443146Y14781598D01*
X16459656Y14753003D01*
X16483003Y14729655D01*
X16511597Y14713145D01*
X16543491Y14704601D01*
X16576509D01*
X16608401Y14713145D01*
X16636996Y14729655D01*
X16660345Y14753003D01*
X16676854Y14781598D01*
X16685400Y14813490D01*
Y14846509D01*
X16676854Y14878403D01*
X16660345Y14906998D01*
X16636996Y14930345D01*
X16608401Y14946854D01*
X16576509Y14955400D01*
D02*
G37*
G36*
X15376509D02*
X15343491D01*
X15311597Y14946854D01*
X15283002Y14930345D01*
X15259656Y14906998D01*
X15243146Y14878403D01*
X15234599Y14846509D01*
Y14813490D01*
X15243146Y14781598D01*
X15259656Y14753003D01*
X15283002Y14729655D01*
X15311597Y14713145D01*
X15343491Y14704601D01*
X15376509D01*
X15408401Y14713145D01*
X15436996Y14729655D01*
X15460345Y14753003D01*
X15476854Y14781598D01*
X15485400Y14813490D01*
Y14846509D01*
X15476854Y14878403D01*
X15460345Y14906998D01*
X15436996Y14930345D01*
X15408401Y14946854D01*
X15376509Y14955400D01*
D02*
G37*
G36*
X13198633Y14737300D02*
X13122701D01*
Y14661366D01*
X13144315Y14667159D01*
X13164586Y14678862D01*
X13181139Y14695415D01*
X13192842Y14715686D01*
X13198633Y14737300D01*
D02*
G37*
G36*
X13097301D02*
X13021367D01*
X13027158Y14715686D01*
X13038863Y14695415D01*
X13055414Y14678862D01*
X13075687Y14667159D01*
X13097301Y14661366D01*
Y14737300D01*
D02*
G37*
G36*
X11502700Y14728633D02*
Y14652699D01*
X11578633D01*
X11572841Y14674313D01*
X11561138Y14694586D01*
X11544586Y14711137D01*
X11524314Y14722842D01*
X11502700Y14728633D01*
D02*
G37*
G36*
X11477300D02*
X11455686Y14722842D01*
X11435414Y14711137D01*
X11418862Y14694586D01*
X11407158Y14674313D01*
X11401367Y14652699D01*
X11477300D01*
Y14728633D01*
D02*
G37*
G36*
X14048633Y14727299D02*
X13972701D01*
Y14651367D01*
X13994315Y14657158D01*
X14014586Y14668861D01*
X14031139Y14685414D01*
X14042842Y14705685D01*
X14048633Y14727299D01*
D02*
G37*
G36*
X13947301D02*
X13871367D01*
X13877158Y14705685D01*
X13888863Y14685414D01*
X13905414Y14668861D01*
X13925687Y14657158D01*
X13947301Y14651367D01*
Y14727299D01*
D02*
G37*
G36*
X9022700Y14698633D02*
Y14622701D01*
X9098633D01*
X9092842Y14644315D01*
X9081138Y14664586D01*
X9064586Y14681139D01*
X9044314Y14692842D01*
X9022700Y14698633D01*
D02*
G37*
G36*
X8997300D02*
X8975686Y14692842D01*
X8955414Y14681139D01*
X8938862Y14664586D01*
X8927158Y14644315D01*
X8921367Y14622701D01*
X8997300D01*
Y14698633D01*
D02*
G37*
G36*
X11578633Y14627299D02*
X11502700D01*
Y14551367D01*
X11524314Y14557158D01*
X11544586Y14568861D01*
X11561138Y14585414D01*
X11572841Y14605685D01*
X11578633Y14627299D01*
D02*
G37*
G36*
X11477300D02*
X11401367D01*
X11407158Y14605685D01*
X11418862Y14585414D01*
X11435414Y14568861D01*
X11455686Y14557158D01*
X11477300Y14551367D01*
Y14627299D01*
D02*
G37*
G36*
X9098633Y14597301D02*
X9022700D01*
Y14521367D01*
X9044314Y14527158D01*
X9064586Y14538863D01*
X9081138Y14555414D01*
X9092842Y14575687D01*
X9098633Y14597301D01*
D02*
G37*
G36*
X8997300D02*
X8921367D01*
X8927158Y14575687D01*
X8938862Y14555414D01*
X8955414Y14538863D01*
X8975686Y14527158D01*
X8997300Y14521367D01*
Y14597301D01*
D02*
G37*
G36*
X16962700Y14398633D02*
Y14322701D01*
X17038634D01*
X17032841Y14344315D01*
X17021138Y14364586D01*
X17004585Y14381139D01*
X16984314Y14392842D01*
X16962700Y14398633D01*
D02*
G37*
G36*
X16937300D02*
X16915686Y14392842D01*
X16895415Y14381139D01*
X16878862Y14364586D01*
X16867159Y14344315D01*
X16861366Y14322701D01*
X16937300D01*
Y14398633D01*
D02*
G37*
G36*
X13532700Y14388634D02*
Y14312700D01*
X13608633D01*
X13602841Y14334314D01*
X13591138Y14354585D01*
X13574586Y14371138D01*
X13554314Y14382841D01*
X13532700Y14388634D01*
D02*
G37*
G36*
X13507300D02*
X13485686Y14382841D01*
X13465414Y14371138D01*
X13448862Y14354585D01*
X13437158Y14334314D01*
X13431367Y14312700D01*
X13507300D01*
Y14388634D01*
D02*
G37*
G36*
X10172700Y14368633D02*
Y14292700D01*
X10248633D01*
X10242842Y14314314D01*
X10231138Y14334586D01*
X10214586Y14351138D01*
X10194314Y14362840D01*
X10172700Y14368633D01*
D02*
G37*
G36*
X10147300D02*
X10125686Y14362840D01*
X10105414Y14351138D01*
X10088862Y14334586D01*
X10077158Y14314314D01*
X10071367Y14292700D01*
X10147300D01*
Y14368633D01*
D02*
G37*
G36*
X13082700Y14358633D02*
Y14282700D01*
X13158633D01*
X13152843Y14304314D01*
X13141138Y14324586D01*
X13124586Y14341138D01*
X13104314Y14352841D01*
X13082700Y14358633D01*
D02*
G37*
G36*
X13057300D02*
X13035686Y14352841D01*
X13015414Y14341138D01*
X12998862Y14324586D01*
X12987158Y14304314D01*
X12981367Y14282700D01*
X13057300D01*
Y14358633D01*
D02*
G37*
G36*
X11292700Y14318633D02*
Y14242700D01*
X11368633D01*
X11362842Y14264314D01*
X11351138Y14284586D01*
X11334586Y14301138D01*
X11314314Y14312842D01*
X11292700Y14318633D01*
D02*
G37*
G36*
X11267300D02*
X11245686Y14312842D01*
X11225414Y14301138D01*
X11208862Y14284586D01*
X11197158Y14264314D01*
X11191367Y14242700D01*
X11267300D01*
Y14318633D01*
D02*
G37*
G36*
X17038634Y14297301D02*
X16962700D01*
Y14221367D01*
X16984314Y14227158D01*
X17004585Y14238863D01*
X17021138Y14255414D01*
X17032841Y14275687D01*
X17038634Y14297301D01*
D02*
G37*
G36*
X16937300D02*
X16861366D01*
X16867159Y14275687D01*
X16878862Y14255414D01*
X16895415Y14238863D01*
X16915686Y14227158D01*
X16937300Y14221367D01*
Y14297301D01*
D02*
G37*
G36*
X13608633Y14287300D02*
X13532700D01*
Y14211366D01*
X13554314Y14217159D01*
X13574586Y14228862D01*
X13591138Y14245415D01*
X13602841Y14265686D01*
X13608633Y14287300D01*
D02*
G37*
G36*
X13507300D02*
X13431367D01*
X13437158Y14265686D01*
X13448862Y14245415D01*
X13465414Y14228862D01*
X13485686Y14217159D01*
X13507300Y14211366D01*
Y14287300D01*
D02*
G37*
G36*
X10248633Y14267300D02*
X10172700D01*
Y14191367D01*
X10194314Y14197157D01*
X10214586Y14208862D01*
X10231138Y14225414D01*
X10242842Y14245686D01*
X10248633Y14267300D01*
D02*
G37*
G36*
X10147300D02*
X10071367D01*
X10077158Y14245686D01*
X10088862Y14225414D01*
X10105414Y14208862D01*
X10125686Y14197157D01*
X10147300Y14191367D01*
Y14267300D01*
D02*
G37*
G36*
X13158633Y14257300D02*
X13082700D01*
Y14181367D01*
X13104314Y14187158D01*
X13124586Y14198862D01*
X13141138Y14215414D01*
X13152843Y14235686D01*
X13158633Y14257300D01*
D02*
G37*
G36*
X13057300D02*
X12981367D01*
X12987158Y14235686D01*
X12998862Y14215414D01*
X13015414Y14198862D01*
X13035686Y14187158D01*
X13057300Y14181367D01*
Y14257300D01*
D02*
G37*
G36*
X11368633Y14217300D02*
X11292700D01*
Y14141367D01*
X11314314Y14147157D01*
X11334586Y14158862D01*
X11351138Y14175414D01*
X11362842Y14195686D01*
X11368633Y14217300D01*
D02*
G37*
G36*
X11267300D02*
X11191367D01*
X11197158Y14195686D01*
X11208862Y14175414D01*
X11225414Y14158862D01*
X11245686Y14147157D01*
X11267300Y14141367D01*
Y14217300D01*
D02*
G37*
G36*
X9142700Y14178633D02*
Y14102699D01*
X9218633D01*
X9212842Y14124313D01*
X9201138Y14144586D01*
X9184586Y14161137D01*
X9164314Y14172842D01*
X9142700Y14178633D01*
D02*
G37*
G36*
X9117300D02*
X9095686Y14172842D01*
X9075414Y14161137D01*
X9058862Y14144586D01*
X9047158Y14124313D01*
X9041367Y14102699D01*
X9117300D01*
Y14178633D01*
D02*
G37*
G36*
X12362700Y14148633D02*
Y14072701D01*
X12438633D01*
X12432842Y14094315D01*
X12421138Y14114586D01*
X12404586Y14131139D01*
X12384314Y14142842D01*
X12362700Y14148633D01*
D02*
G37*
G36*
X12337300D02*
X12315686Y14142842D01*
X12295414Y14131139D01*
X12278862Y14114586D01*
X12267158Y14094315D01*
X12261367Y14072701D01*
X12337300D01*
Y14148633D01*
D02*
G37*
G36*
X9762700Y14128633D02*
Y14052699D01*
X9838633D01*
X9832842Y14074313D01*
X9821138Y14094586D01*
X9804586Y14111137D01*
X9784314Y14122842D01*
X9762700Y14128633D01*
D02*
G37*
G36*
X9737300D02*
X9715686Y14122842D01*
X9695414Y14111137D01*
X9678862Y14094586D01*
X9667158Y14074313D01*
X9661367Y14052699D01*
X9737300D01*
Y14128633D01*
D02*
G37*
G36*
X9218633Y14077299D02*
X9142700D01*
Y14001367D01*
X9164314Y14007158D01*
X9184586Y14018861D01*
X9201138Y14035414D01*
X9212842Y14055685D01*
X9218633Y14077299D01*
D02*
G37*
G36*
X9117300D02*
X9041367D01*
X9047158Y14055685D01*
X9058862Y14035414D01*
X9075414Y14018861D01*
X9095686Y14007158D01*
X9117300Y14001367D01*
Y14077299D01*
D02*
G37*
G36*
X12438633Y14047301D02*
X12362700D01*
Y13971367D01*
X12384314Y13977158D01*
X12404586Y13988863D01*
X12421138Y14005414D01*
X12432842Y14025687D01*
X12438633Y14047301D01*
D02*
G37*
G36*
X12337300D02*
X12261367D01*
X12267158Y14025687D01*
X12278862Y14005414D01*
X12295414Y13988863D01*
X12315686Y13977158D01*
X12337300Y13971367D01*
Y14047301D01*
D02*
G37*
G36*
X9838633Y14027299D02*
X9762700D01*
Y13951367D01*
X9784314Y13957159D01*
X9804586Y13968861D01*
X9821138Y13985414D01*
X9832842Y14005685D01*
X9838633Y14027299D01*
D02*
G37*
G36*
X9737300D02*
X9661367D01*
X9667158Y14005685D01*
X9678862Y13985414D01*
X9695414Y13968861D01*
X9715686Y13957159D01*
X9737300Y13951367D01*
Y14027299D01*
D02*
G37*
G36*
X10912700Y13898633D02*
Y13822701D01*
X10988633D01*
X10982841Y13844315D01*
X10971138Y13864586D01*
X10954586Y13881139D01*
X10934314Y13892842D01*
X10912700Y13898633D01*
D02*
G37*
G36*
X10887300D02*
X10865686Y13892842D01*
X10845414Y13881139D01*
X10828862Y13864586D01*
X10817158Y13844315D01*
X10811367Y13822701D01*
X10887300D01*
Y13898633D01*
D02*
G37*
G36*
X10372700D02*
Y13822701D01*
X10448633D01*
X10442841Y13844315D01*
X10431138Y13864586D01*
X10414586Y13881139D01*
X10394314Y13892842D01*
X10372700Y13898633D01*
D02*
G37*
G36*
X10347300D02*
X10325686Y13892842D01*
X10305414Y13881139D01*
X10288862Y13864586D01*
X10277158Y13844315D01*
X10271367Y13822701D01*
X10347300D01*
Y13898633D01*
D02*
G37*
G36*
X11652700Y13838634D02*
Y13762700D01*
X11728633D01*
X11722842Y13784314D01*
X11711138Y13804585D01*
X11694586Y13821138D01*
X11674314Y13832841D01*
X11652700Y13838634D01*
D02*
G37*
G36*
X11627300D02*
X11605686Y13832841D01*
X11585414Y13821138D01*
X11568862Y13804585D01*
X11557158Y13784314D01*
X11551367Y13762700D01*
X11627300D01*
Y13838634D01*
D02*
G37*
G36*
X11252700Y13828633D02*
Y13752699D01*
X11328633D01*
X11322842Y13774313D01*
X11311138Y13794586D01*
X11294586Y13811137D01*
X11274314Y13822842D01*
X11252700Y13828633D01*
D02*
G37*
G36*
X11227300D02*
X11205686Y13822842D01*
X11185414Y13811137D01*
X11168862Y13794586D01*
X11157159Y13774313D01*
X11151367Y13752699D01*
X11227300D01*
Y13828633D01*
D02*
G37*
G36*
X10988633Y13797301D02*
X10912700D01*
Y13721367D01*
X10934314Y13727159D01*
X10954586Y13738863D01*
X10971138Y13755414D01*
X10982841Y13775687D01*
X10988633Y13797301D01*
D02*
G37*
G36*
X10887300D02*
X10811367D01*
X10817158Y13775687D01*
X10828862Y13755414D01*
X10845414Y13738863D01*
X10865686Y13727159D01*
X10887300Y13721367D01*
Y13797301D01*
D02*
G37*
G36*
X10448633D02*
X10372700D01*
Y13721367D01*
X10394314Y13727159D01*
X10414586Y13738863D01*
X10431138Y13755414D01*
X10442841Y13775687D01*
X10448633Y13797301D01*
D02*
G37*
G36*
X10347300D02*
X10271367D01*
X10277158Y13775687D01*
X10288862Y13755414D01*
X10305414Y13738863D01*
X10325686Y13727159D01*
X10347300Y13721367D01*
Y13797301D01*
D02*
G37*
G36*
X11728633Y13737300D02*
X11652700D01*
Y13661366D01*
X11674314Y13667159D01*
X11694586Y13678862D01*
X11711138Y13695415D01*
X11722842Y13715686D01*
X11728633Y13737300D01*
D02*
G37*
G36*
X11627300D02*
X11551367D01*
X11557158Y13715686D01*
X11568862Y13695415D01*
X11585414Y13678862D01*
X11605686Y13667159D01*
X11627300Y13661366D01*
Y13737300D01*
D02*
G37*
G36*
X11328633Y13727299D02*
X11252700D01*
Y13651367D01*
X11274314Y13657158D01*
X11294586Y13668861D01*
X11311138Y13685414D01*
X11322842Y13705685D01*
X11328633Y13727299D01*
D02*
G37*
G36*
X11227300D02*
X11151367D01*
X11157159Y13705685D01*
X11168862Y13685414D01*
X11185414Y13668861D01*
X11205686Y13657158D01*
X11227300Y13651367D01*
Y13727299D01*
D02*
G37*
G36*
X14521703Y14888901D02*
X14498296D01*
X14475687Y14882841D01*
X14455414Y14871138D01*
X14438863Y14854585D01*
X14427158Y14834314D01*
X14421100Y14811703D01*
Y14788297D01*
X14422646Y14782527D01*
X13439018Y13798900D01*
X13418295D01*
X13395686Y13792842D01*
X13375414Y13781139D01*
X13358862Y13764586D01*
X13347157Y13744315D01*
X13341100Y13721704D01*
Y13698296D01*
X13347157Y13675687D01*
X13358862Y13655414D01*
X13375414Y13638863D01*
X13395686Y13627158D01*
X13418295Y13621100D01*
X13441704D01*
X13464314Y13627158D01*
X13484586Y13638863D01*
X13501138Y13655414D01*
X13512842Y13675687D01*
X13518900Y13698296D01*
Y13719019D01*
X14510982Y14711099D01*
X14521703D01*
X14544315Y14717159D01*
X14564586Y14728862D01*
X14581137Y14745415D01*
X14592841Y14765686D01*
X14598900Y14788297D01*
Y14811703D01*
X14592841Y14834314D01*
X14581137Y14854585D01*
X14564586Y14871138D01*
X14544315Y14882841D01*
X14521703Y14888901D01*
D02*
G37*
G36*
X14842700Y13678633D02*
Y13602699D01*
X14918633D01*
X14912840Y13624313D01*
X14901138Y13644586D01*
X14884586Y13661137D01*
X14864314Y13672842D01*
X14842700Y13678633D01*
D02*
G37*
G36*
X14817300D02*
X14795686Y13672842D01*
X14775414Y13661137D01*
X14758862Y13644586D01*
X14747157Y13624313D01*
X14741367Y13602699D01*
X14817300D01*
Y13678633D01*
D02*
G37*
G36*
X16992700Y13648633D02*
Y13572701D01*
X17068633D01*
X17062842Y13594315D01*
X17051138Y13614586D01*
X17034586Y13631139D01*
X17014314Y13642842D01*
X16992700Y13648633D01*
D02*
G37*
G36*
X16967300D02*
X16945686Y13642842D01*
X16925414Y13631139D01*
X16908862Y13614586D01*
X16897157Y13594315D01*
X16891367Y13572701D01*
X16967300D01*
Y13648633D01*
D02*
G37*
G36*
X14918633Y13577299D02*
X14842700D01*
Y13501367D01*
X14864314Y13507158D01*
X14884586Y13518861D01*
X14901138Y13535414D01*
X14912840Y13555685D01*
X14918633Y13577299D01*
D02*
G37*
G36*
X14817300D02*
X14741367D01*
X14747157Y13555685D01*
X14758862Y13535414D01*
X14775414Y13518861D01*
X14795686Y13507158D01*
X14817300Y13501367D01*
Y13577299D01*
D02*
G37*
G36*
X16576509Y13735400D02*
X16543491D01*
X16511597Y13726854D01*
X16483003Y13710345D01*
X16459656Y13686998D01*
X16443146Y13658403D01*
X16434599Y13626509D01*
Y13593491D01*
X16443146Y13561598D01*
X16459656Y13533003D01*
X16483003Y13509656D01*
X16511597Y13493146D01*
X16543491Y13484599D01*
X16576509D01*
X16608401Y13493146D01*
X16636996Y13509656D01*
X16660345Y13533003D01*
X16676854Y13561598D01*
X16685400Y13593491D01*
Y13626509D01*
X16676854Y13658403D01*
X16660345Y13686998D01*
X16636996Y13710345D01*
X16608401Y13726854D01*
X16576509Y13735400D01*
D02*
G37*
G36*
X17068633Y13547301D02*
X16992700D01*
Y13471367D01*
X17014314Y13477158D01*
X17034586Y13488863D01*
X17051138Y13505414D01*
X17062842Y13525687D01*
X17068633Y13547301D01*
D02*
G37*
G36*
X16967300D02*
X16891367D01*
X16897157Y13525687D01*
X16908862Y13505414D01*
X16925414Y13488863D01*
X16945686Y13477158D01*
X16967300Y13471367D01*
Y13547301D01*
D02*
G37*
G36*
X9312700Y13458633D02*
Y13382700D01*
X9388633D01*
X9382842Y13404314D01*
X9371138Y13424586D01*
X9354586Y13441138D01*
X9334314Y13452843D01*
X9312700Y13458633D01*
D02*
G37*
G36*
X9287300D02*
X9265686Y13452843D01*
X9245414Y13441138D01*
X9228862Y13424586D01*
X9217158Y13404314D01*
X9211367Y13382700D01*
X9287300D01*
Y13458633D01*
D02*
G37*
G36*
X10102700Y13438634D02*
Y13362700D01*
X10178633D01*
X10172841Y13384314D01*
X10161138Y13404585D01*
X10144586Y13421138D01*
X10124314Y13432841D01*
X10102700Y13438634D01*
D02*
G37*
G36*
X10077300D02*
X10055686Y13432841D01*
X10035414Y13421138D01*
X10018862Y13404585D01*
X10007158Y13384314D01*
X10001367Y13362700D01*
X10077300D01*
Y13438634D01*
D02*
G37*
G36*
X15889999Y15306052D02*
X11470000D01*
X11450316Y15303459D01*
X11444944Y15301234D01*
X11431975Y15295862D01*
X11416224Y15283775D01*
X9616224Y13483775D01*
X9604138Y13468025D01*
X9598766Y13455057D01*
X9596541Y13449684D01*
X9593949Y13430000D01*
Y11510000D01*
X9596541Y11490317D01*
X9598766Y11484945D01*
X9604138Y11471975D01*
X9616224Y11456224D01*
X9836224Y11236224D01*
X9851975Y11224138D01*
X9864944Y11218766D01*
X9870317Y11216541D01*
X9890000Y11213949D01*
X10993499D01*
X11119600Y11087848D01*
Y10984600D01*
X11330400D01*
Y11195400D01*
X11227152D01*
X11078776Y11343776D01*
X11063025Y11355862D01*
X11050055Y11361234D01*
X11044683Y11363459D01*
X11025000Y11366051D01*
X9921501D01*
X9746051Y11541501D01*
Y13398499D01*
X11501501Y15153949D01*
X15858499D01*
X15883949Y15128499D01*
Y13535400D01*
X15834599D01*
Y13284599D01*
X16085400D01*
Y13535400D01*
X16036050D01*
Y15160001D01*
X16033459Y15179684D01*
X16029008Y15190428D01*
X16025862Y15198026D01*
X16013776Y15213776D01*
X15943776Y15283775D01*
X15928024Y15295862D01*
X15915056Y15301234D01*
X15909683Y15303459D01*
X15889999Y15306052D01*
D02*
G37*
G36*
X9388633Y13357300D02*
X9312700D01*
Y13281367D01*
X9334314Y13287158D01*
X9354586Y13298862D01*
X9371138Y13315414D01*
X9382842Y13335686D01*
X9388633Y13357300D01*
D02*
G37*
G36*
X9287300D02*
X9211367D01*
X9217158Y13335686D01*
X9228862Y13315414D01*
X9245414Y13298862D01*
X9265686Y13287158D01*
X9287300Y13281367D01*
Y13357300D01*
D02*
G37*
G36*
X10178633Y13337300D02*
X10102700D01*
Y13261366D01*
X10124314Y13267159D01*
X10144586Y13278862D01*
X10161138Y13295415D01*
X10172841Y13315686D01*
X10178633Y13337300D01*
D02*
G37*
G36*
X10077300D02*
X10001367D01*
X10007158Y13315686D01*
X10018862Y13295415D01*
X10035414Y13278862D01*
X10055686Y13267159D01*
X10077300Y13261366D01*
Y13337300D01*
D02*
G37*
G36*
X13492700Y13248633D02*
Y13172701D01*
X13568633D01*
X13562842Y13194315D01*
X13551138Y13214586D01*
X13534586Y13231139D01*
X13514314Y13242842D01*
X13492700Y13248633D01*
D02*
G37*
G36*
X13467300D02*
X13445686Y13242842D01*
X13425414Y13231139D01*
X13408862Y13214586D01*
X13397157Y13194315D01*
X13391367Y13172701D01*
X13467300D01*
Y13248633D01*
D02*
G37*
G36*
X13568633Y13147301D02*
X13492700D01*
Y13071367D01*
X13514314Y13077159D01*
X13534586Y13088863D01*
X13551138Y13105414D01*
X13562842Y13125687D01*
X13568633Y13147301D01*
D02*
G37*
G36*
X13467300D02*
X13391367D01*
X13397157Y13125687D01*
X13408862Y13105414D01*
X13425414Y13088863D01*
X13445686Y13077159D01*
X13467300Y13071367D01*
Y13147301D01*
D02*
G37*
G36*
X9432700Y12998633D02*
Y12922701D01*
X9508633D01*
X9502842Y12944315D01*
X9491138Y12964586D01*
X9474586Y12981139D01*
X9454314Y12992842D01*
X9432700Y12998633D01*
D02*
G37*
G36*
X9407300D02*
X9385686Y12992842D01*
X9365414Y12981139D01*
X9348862Y12964586D01*
X9337158Y12944315D01*
X9331367Y12922701D01*
X9407300D01*
Y12998633D01*
D02*
G37*
G36*
X9062700Y12978633D02*
Y12902699D01*
X9138633D01*
X9132842Y12924313D01*
X9121138Y12944586D01*
X9104586Y12961137D01*
X9084314Y12972841D01*
X9062700Y12978633D01*
D02*
G37*
G36*
X9037300D02*
X9015686Y12972841D01*
X8995414Y12961137D01*
X8978862Y12944586D01*
X8967158Y12924313D01*
X8961367Y12902699D01*
X9037300D01*
Y12978633D01*
D02*
G37*
G36*
X11652700Y12938634D02*
Y12862700D01*
X11728633D01*
X11722842Y12884314D01*
X11711138Y12904585D01*
X11694586Y12921138D01*
X11674314Y12932841D01*
X11652700Y12938634D01*
D02*
G37*
G36*
X11627300D02*
X11605686Y12932841D01*
X11585414Y12921138D01*
X11568862Y12904585D01*
X11557158Y12884314D01*
X11551367Y12862700D01*
X11627300D01*
Y12938634D01*
D02*
G37*
G36*
X16972701Y12918633D02*
Y12842700D01*
X17048633D01*
X17042842Y12864314D01*
X17031139Y12884586D01*
X17014586Y12901138D01*
X16994315Y12912842D01*
X16972701Y12918633D01*
D02*
G37*
G36*
X16947301D02*
X16925687Y12912842D01*
X16905414Y12901138D01*
X16888863Y12884586D01*
X16877159Y12864314D01*
X16871367Y12842700D01*
X16947301D01*
Y12918633D01*
D02*
G37*
G36*
X10932700D02*
Y12842700D01*
X11008633D01*
X11002842Y12864314D01*
X10991138Y12884586D01*
X10974586Y12901138D01*
X10954314Y12912842D01*
X10932700Y12918633D01*
D02*
G37*
G36*
X10907300D02*
X10885686Y12912842D01*
X10865414Y12901138D01*
X10848862Y12884586D01*
X10837158Y12864314D01*
X10831367Y12842700D01*
X10907300D01*
Y12918633D01*
D02*
G37*
G36*
X10382700Y12898633D02*
Y12822701D01*
X10458633D01*
X10452842Y12844315D01*
X10441138Y12864586D01*
X10424586Y12881139D01*
X10404314Y12892842D01*
X10382700Y12898633D01*
D02*
G37*
G36*
X10357300D02*
X10335686Y12892842D01*
X10315414Y12881139D01*
X10298862Y12864586D01*
X10287158Y12844315D01*
X10281367Y12822701D01*
X10357300D01*
Y12898633D01*
D02*
G37*
G36*
X9508633Y12897301D02*
X9432700D01*
Y12821367D01*
X9454314Y12827158D01*
X9474586Y12838863D01*
X9491138Y12855414D01*
X9502842Y12875687D01*
X9508633Y12897301D01*
D02*
G37*
G36*
X9407300D02*
X9331367D01*
X9337158Y12875687D01*
X9348862Y12855414D01*
X9365414Y12838863D01*
X9385686Y12827158D01*
X9407300Y12821367D01*
Y12897301D01*
D02*
G37*
G36*
X9138633Y12877299D02*
X9062700D01*
Y12801367D01*
X9084314Y12807158D01*
X9104586Y12818861D01*
X9121138Y12835414D01*
X9132842Y12855685D01*
X9138633Y12877299D01*
D02*
G37*
G36*
X9037300D02*
X8961367D01*
X8967158Y12855685D01*
X8978862Y12835414D01*
X8995414Y12818861D01*
X9015686Y12807158D01*
X9037300Y12801367D01*
Y12877299D01*
D02*
G37*
G36*
X16542700Y12868633D02*
Y12792700D01*
X16618633D01*
X16612842Y12814314D01*
X16601138Y12834586D01*
X16584586Y12851138D01*
X16564314Y12862842D01*
X16542700Y12868633D01*
D02*
G37*
G36*
X16517300D02*
X16495686Y12862842D01*
X16475414Y12851138D01*
X16458862Y12834586D01*
X16447157Y12814314D01*
X16441367Y12792700D01*
X16517300D01*
Y12868633D01*
D02*
G37*
G36*
X11728633Y12837300D02*
X11652700D01*
Y12761367D01*
X11674314Y12767158D01*
X11694586Y12778862D01*
X11711138Y12795414D01*
X11722842Y12815686D01*
X11728633Y12837300D01*
D02*
G37*
G36*
X11627300D02*
X11551367D01*
X11557158Y12815686D01*
X11568862Y12795414D01*
X11585414Y12778862D01*
X11605686Y12767158D01*
X11627300Y12761367D01*
Y12837300D01*
D02*
G37*
G36*
X17048633Y12817300D02*
X16972701D01*
Y12741367D01*
X16994315Y12747158D01*
X17014586Y12758862D01*
X17031139Y12775414D01*
X17042842Y12795686D01*
X17048633Y12817300D01*
D02*
G37*
G36*
X16947301D02*
X16871367D01*
X16877159Y12795686D01*
X16888863Y12775414D01*
X16905414Y12758862D01*
X16925687Y12747158D01*
X16947301Y12741367D01*
Y12817300D01*
D02*
G37*
G36*
X11008633D02*
X10932700D01*
Y12741367D01*
X10954314Y12747158D01*
X10974586Y12758862D01*
X10991138Y12775414D01*
X11002842Y12795686D01*
X11008633Y12817300D01*
D02*
G37*
G36*
X10907300D02*
X10831367D01*
X10837158Y12795686D01*
X10848862Y12775414D01*
X10865414Y12758862D01*
X10885686Y12747158D01*
X10907300Y12741367D01*
Y12817300D01*
D02*
G37*
G36*
X15376509Y13735400D02*
X15343491D01*
X15311597Y13726854D01*
X15283002Y13710345D01*
X15259656Y13686998D01*
X15243146Y13658403D01*
X15234599Y13626509D01*
Y13593491D01*
X15243146Y13561598D01*
X15259656Y13533003D01*
X15283002Y13509656D01*
X15303514Y13497812D01*
Y13370003D01*
X15303514Y13370000D01*
X15307814Y13348386D01*
X15320059Y13330058D01*
X15540057Y13110060D01*
X15540059Y13110059D01*
X15551044Y13102719D01*
X15558385Y13097815D01*
X15580000Y13093515D01*
X15580000Y13093515D01*
X15706602D01*
X15971100Y12829018D01*
Y12808296D01*
X15977158Y12785686D01*
X15988863Y12765414D01*
X16005414Y12748862D01*
X16025687Y12737158D01*
X16048296Y12731100D01*
X16071704D01*
X16094315Y12737158D01*
X16114586Y12748862D01*
X16131139Y12765414D01*
X16142841Y12785686D01*
X16148900Y12808296D01*
Y12831705D01*
X16142841Y12854314D01*
X16131139Y12874586D01*
X16114586Y12891138D01*
X16094315Y12902843D01*
X16071704Y12908900D01*
X16050983D01*
X15769942Y13189941D01*
X15751616Y13202187D01*
X15730000Y13206487D01*
X15729999Y13206485D01*
X15603397D01*
X15416486Y13393398D01*
Y13497812D01*
X15436996Y13509656D01*
X15460345Y13533003D01*
X15476854Y13561598D01*
X15485400Y13593491D01*
Y13626509D01*
X15476854Y13658403D01*
X15460345Y13686998D01*
X15436996Y13710345D01*
X15408401Y13726854D01*
X15376509Y13735400D01*
D02*
G37*
G36*
X10458633Y12797300D02*
X10382700D01*
Y12721367D01*
X10404314Y12727158D01*
X10424586Y12738862D01*
X10441138Y12755414D01*
X10452842Y12775686D01*
X10458633Y12797300D01*
D02*
G37*
G36*
X10357300D02*
X10281367D01*
X10287158Y12775686D01*
X10298862Y12755414D01*
X10315414Y12738862D01*
X10335686Y12727158D01*
X10357300Y12721367D01*
Y12797300D01*
D02*
G37*
G36*
X14652699Y12778633D02*
Y12702700D01*
X14728633D01*
X14722842Y12724314D01*
X14711137Y12744586D01*
X14694586Y12761138D01*
X14674313Y12772842D01*
X14652699Y12778633D01*
D02*
G37*
G36*
X14627299D02*
X14605685Y12772842D01*
X14585414Y12761138D01*
X14568861Y12744586D01*
X14557158Y12724314D01*
X14551367Y12702700D01*
X14627299D01*
Y12778633D01*
D02*
G37*
G36*
X16618633Y12767300D02*
X16542700D01*
Y12691367D01*
X16564314Y12697159D01*
X16584586Y12708862D01*
X16601138Y12725414D01*
X16612842Y12745686D01*
X16618633Y12767300D01*
D02*
G37*
G36*
X16517300D02*
X16441367D01*
X16447157Y12745686D01*
X16458862Y12725414D01*
X16475414Y12708862D01*
X16495686Y12697159D01*
X16517300Y12691367D01*
Y12767300D01*
D02*
G37*
G36*
X14728633Y12677300D02*
X14652699D01*
Y12601367D01*
X14674313Y12607158D01*
X14694586Y12618862D01*
X14711137Y12635414D01*
X14722842Y12655686D01*
X14728633Y12677300D01*
D02*
G37*
G36*
X14627299D02*
X14551367D01*
X14557158Y12655686D01*
X14568861Y12635414D01*
X14585414Y12618862D01*
X14605685Y12607158D01*
X14627299Y12601367D01*
Y12677300D01*
D02*
G37*
G36*
X9992700Y12668633D02*
Y12592700D01*
X10068633D01*
X10062842Y12614314D01*
X10051138Y12634586D01*
X10034586Y12651138D01*
X10014314Y12662842D01*
X9992700Y12668633D01*
D02*
G37*
G36*
X9967300D02*
X9945686Y12662842D01*
X9925414Y12651138D01*
X9908862Y12634586D01*
X9897159Y12614314D01*
X9891367Y12592700D01*
X9967300D01*
Y12668633D01*
D02*
G37*
G36*
X15222701Y12638633D02*
Y12562700D01*
X15298633D01*
X15292841Y12584314D01*
X15281139Y12604586D01*
X15264586Y12621138D01*
X15244315Y12632841D01*
X15222701Y12638633D01*
D02*
G37*
G36*
X15197301D02*
X15175687Y12632841D01*
X15155414Y12621138D01*
X15138863Y12604586D01*
X15127158Y12584314D01*
X15121367Y12562700D01*
X15197301D01*
Y12638633D01*
D02*
G37*
G36*
X10068633Y12567300D02*
X9992700D01*
Y12491367D01*
X10014314Y12497158D01*
X10034586Y12508862D01*
X10051138Y12525414D01*
X10062842Y12545686D01*
X10068633Y12567300D01*
D02*
G37*
G36*
X9967300D02*
X9891367D01*
X9897159Y12545686D01*
X9908862Y12525414D01*
X9925414Y12508862D01*
X9945686Y12497158D01*
X9967300Y12491367D01*
Y12567300D01*
D02*
G37*
G36*
X9292700Y12538633D02*
Y12462700D01*
X9368633D01*
X9362842Y12484314D01*
X9351138Y12504586D01*
X9334586Y12521138D01*
X9314314Y12532842D01*
X9292700Y12538633D01*
D02*
G37*
G36*
X9267300D02*
X9245686Y12532842D01*
X9225414Y12521138D01*
X9208862Y12504586D01*
X9197158Y12484314D01*
X9191367Y12462700D01*
X9267300D01*
Y12538633D01*
D02*
G37*
G36*
X15298633Y12537300D02*
X15222701D01*
Y12461367D01*
X15244315Y12467158D01*
X15264586Y12478862D01*
X15281139Y12495414D01*
X15292841Y12515686D01*
X15298633Y12537300D01*
D02*
G37*
G36*
X15197301D02*
X15121367D01*
X15127158Y12515686D01*
X15138863Y12495414D01*
X15155414Y12478862D01*
X15175687Y12467158D01*
X15197301Y12461367D01*
Y12537300D01*
D02*
G37*
G36*
X9368633Y12437300D02*
X9292700D01*
Y12361367D01*
X9314314Y12367158D01*
X9334586Y12378862D01*
X9351138Y12395414D01*
X9362842Y12415686D01*
X9368633Y12437300D01*
D02*
G37*
G36*
X9267300D02*
X9191367D01*
X9197158Y12415686D01*
X9208862Y12395414D01*
X9225414Y12378862D01*
X9245686Y12367158D01*
X9267300Y12361367D01*
Y12437300D01*
D02*
G37*
G36*
X16552699Y12368633D02*
Y12292700D01*
X16628633D01*
X16622842Y12314314D01*
X16611137Y12334586D01*
X16594586Y12351138D01*
X16574313Y12362841D01*
X16552699Y12368633D01*
D02*
G37*
G36*
X16527299D02*
X16505685Y12362841D01*
X16485414Y12351138D01*
X16468861Y12334586D01*
X16457158Y12314314D01*
X16451367Y12292700D01*
X16527299D01*
Y12368633D01*
D02*
G37*
G36*
X14662700Y12318633D02*
Y12242700D01*
X14738634D01*
X14732841Y12264314D01*
X14721138Y12284586D01*
X14704585Y12301138D01*
X14684314Y12312842D01*
X14662700Y12318633D01*
D02*
G37*
G36*
X14637300D02*
X14615686Y12312842D01*
X14595415Y12301138D01*
X14578862Y12284586D01*
X14567159Y12264314D01*
X14561366Y12242700D01*
X14637300D01*
Y12318633D01*
D02*
G37*
G36*
X9952700D02*
Y12242700D01*
X10028633D01*
X10022842Y12264314D01*
X10011138Y12284586D01*
X9994586Y12301138D01*
X9974314Y12312842D01*
X9952700Y12318633D01*
D02*
G37*
G36*
X9927300D02*
X9905686Y12312842D01*
X9885414Y12301138D01*
X9868862Y12284586D01*
X9857158Y12264314D01*
X9851367Y12242700D01*
X9927300D01*
Y12318633D01*
D02*
G37*
G36*
X16982700Y12278633D02*
Y12202700D01*
X17058633D01*
X17052843Y12224314D01*
X17041138Y12244586D01*
X17024586Y12261138D01*
X17004314Y12272842D01*
X16982700Y12278633D01*
D02*
G37*
G36*
X16957300D02*
X16935686Y12272842D01*
X16915414Y12261138D01*
X16898862Y12244586D01*
X16887160Y12224314D01*
X16881367Y12202700D01*
X16957300D01*
Y12278633D01*
D02*
G37*
G36*
X16628633Y12267300D02*
X16552699D01*
Y12191367D01*
X16574313Y12197158D01*
X16594586Y12208862D01*
X16611137Y12225414D01*
X16622842Y12245686D01*
X16628633Y12267300D01*
D02*
G37*
G36*
X16527299D02*
X16451367D01*
X16457158Y12245686D01*
X16468861Y12225414D01*
X16485414Y12208862D01*
X16505685Y12197158D01*
X16527299Y12191367D01*
Y12267300D01*
D02*
G37*
G36*
X9402700Y12218633D02*
Y12142700D01*
X9478633D01*
X9472842Y12164314D01*
X9461138Y12184586D01*
X9444586Y12201138D01*
X9424314Y12212842D01*
X9402700Y12218633D01*
D02*
G37*
G36*
X9377300D02*
X9355686Y12212842D01*
X9335414Y12201138D01*
X9318862Y12184586D01*
X9307158Y12164314D01*
X9301367Y12142700D01*
X9377300D01*
Y12218633D01*
D02*
G37*
G36*
X14738634Y12217300D02*
X14662700D01*
Y12141367D01*
X14684314Y12147158D01*
X14704585Y12158862D01*
X14721138Y12175414D01*
X14732841Y12195686D01*
X14738634Y12217300D01*
D02*
G37*
G36*
X14637300D02*
X14561366D01*
X14567159Y12195686D01*
X14578862Y12175414D01*
X14595415Y12158862D01*
X14615686Y12147158D01*
X14637300Y12141367D01*
Y12217300D01*
D02*
G37*
G36*
X10028633D02*
X9952700D01*
Y12141367D01*
X9974314Y12147158D01*
X9994586Y12158862D01*
X10011138Y12175414D01*
X10022842Y12195686D01*
X10028633Y12217300D01*
D02*
G37*
G36*
X9927300D02*
X9851367D01*
X9857158Y12195686D01*
X9868862Y12175414D01*
X9885414Y12158862D01*
X9905686Y12147158D01*
X9927300Y12141367D01*
Y12217300D01*
D02*
G37*
G36*
X17058633Y12177300D02*
X16982700D01*
Y12101367D01*
X17004314Y12107158D01*
X17024586Y12118862D01*
X17041138Y12135414D01*
X17052843Y12155686D01*
X17058633Y12177300D01*
D02*
G37*
G36*
X16957300D02*
X16881367D01*
X16887160Y12155686D01*
X16898862Y12135414D01*
X16915414Y12118862D01*
X16935686Y12107158D01*
X16957300Y12101367D01*
Y12177300D01*
D02*
G37*
G36*
X9478633Y12117300D02*
X9402700D01*
Y12041367D01*
X9424314Y12047159D01*
X9444586Y12058862D01*
X9461138Y12075414D01*
X9472842Y12095686D01*
X9478633Y12117300D01*
D02*
G37*
G36*
X9377300D02*
X9301367D01*
X9307158Y12095686D01*
X9318862Y12075414D01*
X9335414Y12058862D01*
X9355686Y12047159D01*
X9377300Y12041367D01*
Y12117300D01*
D02*
G37*
G36*
X16342700Y12028633D02*
Y11952700D01*
X16418633D01*
X16412840Y11974314D01*
X16401138Y11994586D01*
X16384586Y12011138D01*
X16364314Y12022841D01*
X16342700Y12028633D01*
D02*
G37*
G36*
X16317300D02*
X16295686Y12022841D01*
X16275414Y12011138D01*
X16258862Y11994586D01*
X16247157Y11974314D01*
X16241367Y11952700D01*
X16317300D01*
Y12028633D01*
D02*
G37*
G36*
X16418633Y11927300D02*
X16342700D01*
Y11851367D01*
X16364314Y11857158D01*
X16384586Y11868862D01*
X16401138Y11885414D01*
X16412840Y11905686D01*
X16418633Y11927300D01*
D02*
G37*
G36*
X16317300D02*
X16241367D01*
X16247157Y11905686D01*
X16258862Y11885414D01*
X16275414Y11868862D01*
X16295686Y11857158D01*
X16317300Y11851367D01*
Y11927300D01*
D02*
G37*
G36*
X9317275Y11945400D02*
X9312700D01*
Y11782700D01*
X9475400D01*
Y11787275D01*
X9468659Y11821162D01*
X9455437Y11853083D01*
X9436242Y11881811D01*
X9411811Y11906242D01*
X9383083Y11925437D01*
X9351162Y11938659D01*
X9317275Y11945400D01*
D02*
G37*
G36*
X9287300D02*
X9282725D01*
X9248838Y11938659D01*
X9216917Y11925437D01*
X9188189Y11906242D01*
X9163758Y11881811D01*
X9144563Y11853083D01*
X9131341Y11821162D01*
X9124600Y11787275D01*
Y11782700D01*
X9287300D01*
Y11945400D01*
D02*
G37*
G36*
X11692700Y11758633D02*
Y11682700D01*
X11768633D01*
X11762842Y11704314D01*
X11751138Y11724586D01*
X11734586Y11741138D01*
X11714314Y11752842D01*
X11692700Y11758633D01*
D02*
G37*
G36*
X11667300D02*
X11645686Y11752842D01*
X11625414Y11741138D01*
X11608862Y11724586D01*
X11597158Y11704314D01*
X11591367Y11682700D01*
X11667300D01*
Y11758633D01*
D02*
G37*
G36*
X9882700Y11718633D02*
Y11642700D01*
X9958633D01*
X9952842Y11664314D01*
X9941138Y11684586D01*
X9924586Y11701138D01*
X9904314Y11712842D01*
X9882700Y11718633D01*
D02*
G37*
G36*
X9857300D02*
X9835686Y11712842D01*
X9815414Y11701138D01*
X9798862Y11684586D01*
X9787158Y11664314D01*
X9781367Y11642700D01*
X9857300D01*
Y11718633D01*
D02*
G37*
G36*
X7602700Y11678633D02*
Y11602700D01*
X7678633D01*
X7672842Y11624314D01*
X7661138Y11644586D01*
X7644586Y11661138D01*
X7624314Y11672842D01*
X7602700Y11678633D01*
D02*
G37*
G36*
X7577300D02*
X7555686Y11672842D01*
X7535414Y11661138D01*
X7518862Y11644586D01*
X7507158Y11624314D01*
X7501367Y11602700D01*
X7577300D01*
Y11678633D01*
D02*
G37*
G36*
X14627275Y11945400D02*
X14592725D01*
X14558838Y11938659D01*
X14526917Y11925437D01*
X14498189Y11906242D01*
X14473758Y11881811D01*
X14454562Y11853083D01*
X14441341Y11821162D01*
X14434599Y11787275D01*
Y11752725D01*
X14441341Y11718838D01*
X14454562Y11686917D01*
X14473758Y11658189D01*
X14498189Y11633758D01*
X14526917Y11614563D01*
X14558838Y11601341D01*
X14592725Y11594600D01*
X14627275D01*
X14661162Y11601341D01*
X14693083Y11614563D01*
X14721811Y11633758D01*
X14746242Y11658189D01*
X14765437Y11686917D01*
X14778659Y11718838D01*
X14785400Y11752725D01*
Y11787275D01*
X14778659Y11821162D01*
X14765437Y11853083D01*
X14746242Y11881811D01*
X14721811Y11906242D01*
X14693083Y11925437D01*
X14661162Y11938659D01*
X14627275Y11945400D01*
D02*
G37*
G36*
X9475400Y11757300D02*
X9312700D01*
Y11594600D01*
X9317275D01*
X9351162Y11601341D01*
X9383083Y11614563D01*
X9411811Y11633758D01*
X9436242Y11658189D01*
X9455437Y11686917D01*
X9468659Y11718838D01*
X9475400Y11752725D01*
Y11757300D01*
D02*
G37*
G36*
X9287300D02*
X9124600D01*
Y11752725D01*
X9131341Y11718838D01*
X9144563Y11686917D01*
X9163758Y11658189D01*
X9188189Y11633758D01*
X9216917Y11614563D01*
X9248838Y11601341D01*
X9282725Y11594600D01*
X9287300D01*
Y11757300D01*
D02*
G37*
G36*
X11768633Y11657300D02*
X11692700D01*
Y11581367D01*
X11714314Y11587158D01*
X11734586Y11598862D01*
X11751138Y11615414D01*
X11762842Y11635686D01*
X11768633Y11657300D01*
D02*
G37*
G36*
X11667300D02*
X11591367D01*
X11597158Y11635686D01*
X11608862Y11615414D01*
X11625414Y11598862D01*
X11645686Y11587158D01*
X11667300Y11581367D01*
Y11657300D01*
D02*
G37*
G36*
X9958633Y11617300D02*
X9882700D01*
Y11541367D01*
X9904314Y11547159D01*
X9924586Y11558862D01*
X9941138Y11575414D01*
X9952842Y11595686D01*
X9958633Y11617300D01*
D02*
G37*
G36*
X9857300D02*
X9781367D01*
X9787158Y11595686D01*
X9798862Y11575414D01*
X9815414Y11558862D01*
X9835686Y11547159D01*
X9857300Y11541367D01*
Y11617300D01*
D02*
G37*
G36*
X7678633Y11577300D02*
X7602700D01*
Y11501367D01*
X7624314Y11507158D01*
X7644586Y11518862D01*
X7661138Y11535414D01*
X7672842Y11555686D01*
X7678633Y11577300D01*
D02*
G37*
G36*
X7577300D02*
X7501367D01*
X7507158Y11555686D01*
X7518862Y11535414D01*
X7535414Y11518862D01*
X7555686Y11507158D01*
X7577300Y11501367D01*
Y11577300D01*
D02*
G37*
G36*
X9202700Y11498633D02*
Y11422700D01*
X9278633D01*
X9272841Y11444314D01*
X9261138Y11464586D01*
X9244586Y11481138D01*
X9224314Y11492842D01*
X9202700Y11498633D01*
D02*
G37*
G36*
X9177300D02*
X9155686Y11492842D01*
X9135414Y11481138D01*
X9118862Y11464586D01*
X9107158Y11444314D01*
X9101367Y11422700D01*
X9177300D01*
Y11498633D01*
D02*
G37*
G36*
X7852700Y11488633D02*
Y11412700D01*
X7928633D01*
X7922842Y11434314D01*
X7911138Y11454586D01*
X7894586Y11471138D01*
X7874314Y11482842D01*
X7852700Y11488633D01*
D02*
G37*
G36*
X7827300D02*
X7805686Y11482842D01*
X7785414Y11471138D01*
X7768862Y11454586D01*
X7757158Y11434314D01*
X7751367Y11412700D01*
X7827300D01*
Y11488633D01*
D02*
G37*
G36*
X17002699Y11468633D02*
Y11392700D01*
X17078633D01*
X17072842Y11414314D01*
X17061137Y11434586D01*
X17044586Y11451138D01*
X17024313Y11462842D01*
X17002699Y11468633D01*
D02*
G37*
G36*
X16977299D02*
X16955685Y11462842D01*
X16935414Y11451138D01*
X16918861Y11434586D01*
X16907158Y11414314D01*
X16901367Y11392700D01*
X16977299D01*
Y11468633D01*
D02*
G37*
G36*
X14282700D02*
Y11392700D01*
X14358633D01*
X14352841Y11414314D01*
X14341138Y11434586D01*
X14324586Y11451138D01*
X14304314Y11462842D01*
X14282700Y11468633D01*
D02*
G37*
G36*
X14257300D02*
X14235686Y11462842D01*
X14215414Y11451138D01*
X14198862Y11434586D01*
X14187158Y11414314D01*
X14181367Y11392700D01*
X14257300D01*
Y11468633D01*
D02*
G37*
G36*
X9278633Y11397300D02*
X9202700D01*
Y11321367D01*
X9224314Y11327158D01*
X9244586Y11338862D01*
X9261138Y11355414D01*
X9272841Y11375686D01*
X9278633Y11397300D01*
D02*
G37*
G36*
X9177300D02*
X9101367D01*
X9107158Y11375686D01*
X9118862Y11355414D01*
X9135414Y11338862D01*
X9155686Y11327158D01*
X9177300Y11321367D01*
Y11397300D01*
D02*
G37*
G36*
X7928633Y11387300D02*
X7852700D01*
Y11311367D01*
X7874314Y11317158D01*
X7894586Y11328862D01*
X7911138Y11345414D01*
X7922842Y11365686D01*
X7928633Y11387300D01*
D02*
G37*
G36*
X7827300D02*
X7751367D01*
X7757158Y11365686D01*
X7768862Y11345414D01*
X7785414Y11328862D01*
X7805686Y11317158D01*
X7827300Y11311367D01*
Y11387300D01*
D02*
G37*
G36*
X17078633Y11367300D02*
X17002699D01*
Y11291367D01*
X17024313Y11297159D01*
X17044586Y11308862D01*
X17061137Y11325414D01*
X17072842Y11345686D01*
X17078633Y11367300D01*
D02*
G37*
G36*
X16977299D02*
X16901367D01*
X16907158Y11345686D01*
X16918861Y11325414D01*
X16935414Y11308862D01*
X16955685Y11297159D01*
X16977299Y11291367D01*
Y11367300D01*
D02*
G37*
G36*
X14358633D02*
X14282700D01*
Y11291367D01*
X14304314Y11297159D01*
X14324586Y11308862D01*
X14341138Y11325414D01*
X14352841Y11345686D01*
X14358633Y11367300D01*
D02*
G37*
G36*
X14257300D02*
X14181367D01*
X14187158Y11345686D01*
X14198862Y11325414D01*
X14215414Y11308862D01*
X14235686Y11297159D01*
X14257300Y11291367D01*
Y11367300D01*
D02*
G37*
G36*
X14792700Y11248633D02*
Y11172700D01*
X14868633D01*
X14862840Y11194314D01*
X14851138Y11214586D01*
X14834586Y11231138D01*
X14814314Y11242841D01*
X14792700Y11248633D01*
D02*
G37*
G36*
X14767300D02*
X14745686Y11242841D01*
X14725414Y11231138D01*
X14708862Y11214586D01*
X14697157Y11194314D01*
X14691367Y11172700D01*
X14767300D01*
Y11248633D01*
D02*
G37*
G36*
X11842700Y11208633D02*
Y11132700D01*
X11918633D01*
X11912842Y11154314D01*
X11901138Y11174586D01*
X11884586Y11191138D01*
X11864314Y11202842D01*
X11842700Y11208633D01*
D02*
G37*
G36*
X11817300D02*
X11795686Y11202842D01*
X11775414Y11191138D01*
X11758862Y11174586D01*
X11747158Y11154314D01*
X11741367Y11132700D01*
X11817300D01*
Y11208633D01*
D02*
G37*
G36*
X9652700Y11188633D02*
Y11112700D01*
X9728633D01*
X9722842Y11134314D01*
X9711138Y11154586D01*
X9694586Y11171138D01*
X9674314Y11182841D01*
X9652700Y11188633D01*
D02*
G37*
G36*
X9627300D02*
X9605686Y11182841D01*
X9585414Y11171138D01*
X9568862Y11154586D01*
X9557158Y11134314D01*
X9551367Y11112700D01*
X9627300D01*
Y11188633D01*
D02*
G37*
G36*
X14868633Y11147300D02*
X14792700D01*
Y11071367D01*
X14814314Y11077158D01*
X14834586Y11088862D01*
X14851138Y11105414D01*
X14862840Y11125686D01*
X14868633Y11147300D01*
D02*
G37*
G36*
X14767300D02*
X14691367D01*
X14697157Y11125686D01*
X14708862Y11105414D01*
X14725414Y11088862D01*
X14745686Y11077158D01*
X14767300Y11071367D01*
Y11147300D01*
D02*
G37*
G36*
X11918633Y11107300D02*
X11842700D01*
Y11031367D01*
X11864314Y11037159D01*
X11884586Y11048862D01*
X11901138Y11065414D01*
X11912842Y11085686D01*
X11918633Y11107300D01*
D02*
G37*
G36*
X11817300D02*
X11741367D01*
X11747158Y11085686D01*
X11758862Y11065414D01*
X11775414Y11048862D01*
X11795686Y11037159D01*
X11817300Y11031367D01*
Y11107300D01*
D02*
G37*
G36*
X9728633Y11087300D02*
X9652700D01*
Y11011367D01*
X9674314Y11017158D01*
X9694586Y11028862D01*
X9711138Y11045414D01*
X9722842Y11065686D01*
X9728633Y11087300D01*
D02*
G37*
G36*
X9627300D02*
X9551367D01*
X9557158Y11065686D01*
X9568862Y11045414D01*
X9585414Y11028862D01*
X9605686Y11017158D01*
X9627300Y11011367D01*
Y11087300D01*
D02*
G37*
G36*
X10488876Y11095400D02*
X10487699D01*
Y11002700D01*
X10580400D01*
Y11003876D01*
X10573217Y11030683D01*
X10559341Y11054717D01*
X10539717Y11074341D01*
X10515683Y11088217D01*
X10488876Y11095400D01*
D02*
G37*
G36*
X10462299D02*
X10461124D01*
X10434317Y11088217D01*
X10410283Y11074341D01*
X10390659Y11054717D01*
X10376783Y11030683D01*
X10369600Y11003876D01*
Y11002700D01*
X10462299D01*
Y11095400D01*
D02*
G37*
G36*
X9092700Y11058633D02*
Y10982700D01*
X9168633D01*
X9162841Y11004314D01*
X9151138Y11024586D01*
X9134586Y11041138D01*
X9114314Y11052841D01*
X9092700Y11058633D01*
D02*
G37*
G36*
X9067300D02*
X9045686Y11052841D01*
X9025414Y11041138D01*
X9008862Y11024586D01*
X8997158Y11004314D01*
X8991367Y10982700D01*
X9067300D01*
Y11058633D01*
D02*
G37*
G36*
X10580400Y10977300D02*
X10487699D01*
Y10884600D01*
X10488876D01*
X10515683Y10891783D01*
X10539717Y10905659D01*
X10559341Y10925283D01*
X10573217Y10949317D01*
X10580400Y10976124D01*
Y10977300D01*
D02*
G37*
G36*
X10462299D02*
X10369600D01*
Y10976124D01*
X10376783Y10949317D01*
X10390659Y10925283D01*
X10410283Y10905659D01*
X10434317Y10891783D01*
X10461124Y10884600D01*
X10462299D01*
Y10977300D01*
D02*
G37*
G36*
X9168633Y10957300D02*
X9092700D01*
Y10881367D01*
X9114314Y10887158D01*
X9134586Y10898862D01*
X9151138Y10915414D01*
X9162841Y10935686D01*
X9168633Y10957300D01*
D02*
G37*
G36*
X9067300D02*
X8991367D01*
X8997158Y10935686D01*
X9008862Y10915414D01*
X9025414Y10898862D01*
X9045686Y10887158D01*
X9067300Y10881367D01*
Y10957300D01*
D02*
G37*
G36*
X7852700Y10948633D02*
Y10872700D01*
X7928633D01*
X7922842Y10894314D01*
X7911138Y10914586D01*
X7894586Y10931138D01*
X7874314Y10942842D01*
X7852700Y10948633D01*
D02*
G37*
G36*
X7827300D02*
X7805686Y10942842D01*
X7785414Y10931138D01*
X7768862Y10914586D01*
X7757158Y10894314D01*
X7751367Y10872700D01*
X7827300D01*
Y10948633D01*
D02*
G37*
G36*
X17002699Y10888633D02*
Y10812700D01*
X17078633D01*
X17072842Y10834314D01*
X17061137Y10854586D01*
X17044586Y10871138D01*
X17024313Y10882842D01*
X17002699Y10888633D01*
D02*
G37*
G36*
X16977299D02*
X16955685Y10882842D01*
X16935414Y10871138D01*
X16918861Y10854586D01*
X16907158Y10834314D01*
X16901367Y10812700D01*
X16977299D01*
Y10888633D01*
D02*
G37*
G36*
X7928633Y10847300D02*
X7852700D01*
Y10771367D01*
X7874314Y10777159D01*
X7894586Y10788862D01*
X7911138Y10805414D01*
X7922842Y10825686D01*
X7928633Y10847300D01*
D02*
G37*
G36*
X7827300D02*
X7751367D01*
X7757158Y10825686D01*
X7768862Y10805414D01*
X7785414Y10788862D01*
X7805686Y10777159D01*
X7827300Y10771367D01*
Y10847300D01*
D02*
G37*
G36*
X17078633Y10787300D02*
X17002699D01*
Y10711367D01*
X17024313Y10717158D01*
X17044586Y10728862D01*
X17061137Y10745414D01*
X17072842Y10765686D01*
X17078633Y10787300D01*
D02*
G37*
G36*
X16977299D02*
X16901367D01*
X16907158Y10765686D01*
X16918861Y10745414D01*
X16935414Y10728862D01*
X16955685Y10717158D01*
X16977299Y10711367D01*
Y10787300D01*
D02*
G37*
G36*
X14922701Y10768633D02*
Y10692700D01*
X14998633D01*
X14992841Y10714314D01*
X14981139Y10734586D01*
X14964586Y10751138D01*
X14944315Y10762842D01*
X14922701Y10768633D01*
D02*
G37*
G36*
X14897301D02*
X14875687Y10762842D01*
X14855414Y10751138D01*
X14838863Y10734586D01*
X14827158Y10714314D01*
X14821367Y10692700D01*
X14897301D01*
Y10768633D01*
D02*
G37*
G36*
X14998633Y10667300D02*
X14922701D01*
Y10591367D01*
X14944315Y10597158D01*
X14964586Y10608862D01*
X14981139Y10625414D01*
X14992841Y10645686D01*
X14998633Y10667300D01*
D02*
G37*
G36*
X14897301D02*
X14821367D01*
X14827158Y10645686D01*
X14838863Y10625414D01*
X14855414Y10608862D01*
X14875687Y10597158D01*
X14897301Y10591367D01*
Y10667300D01*
D02*
G37*
G36*
X9352700Y10628633D02*
Y10552700D01*
X9428633D01*
X9422842Y10574314D01*
X9411138Y10594586D01*
X9394586Y10611138D01*
X9374314Y10622842D01*
X9352700Y10628633D01*
D02*
G37*
G36*
X9327300D02*
X9305686Y10622842D01*
X9285414Y10611138D01*
X9268862Y10594586D01*
X9257159Y10574314D01*
X9251367Y10552700D01*
X9327300D01*
Y10628633D01*
D02*
G37*
G36*
X11842700Y10568633D02*
Y10492700D01*
X11918633D01*
X11912842Y10514314D01*
X11901138Y10534586D01*
X11884586Y10551138D01*
X11864314Y10562842D01*
X11842700Y10568633D01*
D02*
G37*
G36*
X11817300D02*
X11795686Y10562842D01*
X11775414Y10551138D01*
X11758862Y10534586D01*
X11747158Y10514314D01*
X11741367Y10492700D01*
X11817300D01*
Y10568633D01*
D02*
G37*
G36*
X9428633Y10527300D02*
X9352700D01*
Y10451367D01*
X9374314Y10457158D01*
X9394586Y10468862D01*
X9411138Y10485414D01*
X9422842Y10505686D01*
X9428633Y10527300D01*
D02*
G37*
G36*
X9327300D02*
X9251367D01*
X9257159Y10505686D01*
X9268862Y10485414D01*
X9285414Y10468862D01*
X9305686Y10457158D01*
X9327300Y10451367D01*
Y10527300D01*
D02*
G37*
G36*
X15011700Y10509362D02*
Y10426700D01*
X15094362D01*
X15087898Y10450823D01*
X15075339Y10472577D01*
X15057578Y10490339D01*
X15035823Y10502898D01*
X15011700Y10509362D01*
D02*
G37*
G36*
X14986301D02*
X14962177Y10502898D01*
X14940424Y10490339D01*
X14922661Y10472577D01*
X14910101Y10450823D01*
X14903638Y10426700D01*
X14986301D01*
Y10509362D01*
D02*
G37*
G36*
X11918633Y10467300D02*
X11842700D01*
Y10391367D01*
X11864314Y10397159D01*
X11884586Y10408862D01*
X11901138Y10425414D01*
X11912842Y10445686D01*
X11918633Y10467300D01*
D02*
G37*
G36*
X11817300D02*
X11741367D01*
X11747158Y10445686D01*
X11758862Y10425414D01*
X11775414Y10408862D01*
X11795686Y10397159D01*
X11817300Y10391367D01*
Y10467300D01*
D02*
G37*
G36*
X15094362Y10401300D02*
X15011700D01*
Y10318638D01*
X15035823Y10325102D01*
X15057578Y10337661D01*
X15075339Y10355423D01*
X15087898Y10377177D01*
X15094362Y10401300D01*
D02*
G37*
G36*
X14986301D02*
X14903638D01*
X14910101Y10377177D01*
X14922661Y10355423D01*
X14940424Y10337661D01*
X14962177Y10325102D01*
X14986301Y10318638D01*
Y10401300D01*
D02*
G37*
G36*
X16190401Y10509400D02*
X15999600D01*
Y10318600D01*
X16190401D01*
Y10509400D01*
D02*
G37*
G36*
X15833559D02*
X15808440D01*
X15784177Y10502898D01*
X15762424Y10490339D01*
X15744661Y10472577D01*
X15732101Y10450823D01*
X15725600Y10426560D01*
Y10401440D01*
X15732101Y10377177D01*
X15744661Y10355423D01*
X15762424Y10337661D01*
X15784177Y10325102D01*
X15808440Y10318600D01*
X15833559D01*
X15857823Y10325102D01*
X15879578Y10337661D01*
X15897339Y10355423D01*
X15909898Y10377177D01*
X15916400Y10401440D01*
Y10426560D01*
X15909898Y10450823D01*
X15897339Y10472577D01*
X15879578Y10490339D01*
X15857823Y10502898D01*
X15833559Y10509400D01*
D02*
G37*
G36*
X15559560D02*
X15534441D01*
X15510178Y10502898D01*
X15488423Y10490339D01*
X15470660Y10472577D01*
X15458101Y10450823D01*
X15451601Y10426560D01*
Y10401440D01*
X15458101Y10377177D01*
X15470660Y10355423D01*
X15488423Y10337661D01*
X15510178Y10325102D01*
X15534441Y10318600D01*
X15559560D01*
X15583823Y10325102D01*
X15605577Y10337661D01*
X15623338Y10355423D01*
X15635898Y10377177D01*
X15642400Y10401440D01*
Y10426560D01*
X15635898Y10450823D01*
X15623338Y10472577D01*
X15605577Y10490339D01*
X15583823Y10502898D01*
X15559560Y10509400D01*
D02*
G37*
G36*
X15285559D02*
X15260440D01*
X15236177Y10502898D01*
X15214423Y10490339D01*
X15196661Y10472577D01*
X15184100Y10450823D01*
X15177600Y10426560D01*
Y10401440D01*
X15184100Y10377177D01*
X15196661Y10355423D01*
X15214423Y10337661D01*
X15236177Y10325102D01*
X15260440Y10318600D01*
X15285559D01*
X15309824Y10325102D01*
X15331577Y10337661D01*
X15349339Y10355423D01*
X15361897Y10377177D01*
X15368401Y10401440D01*
Y10426560D01*
X15361897Y10450823D01*
X15349339Y10472577D01*
X15331577Y10490339D01*
X15309824Y10502898D01*
X15285559Y10509400D01*
D02*
G37*
G36*
X13303349Y10501400D02*
X13276649D01*
X13250861Y10494490D01*
X13227739Y10481140D01*
X13208859Y10462261D01*
X13195509Y10439139D01*
X13188600Y10413350D01*
Y10386651D01*
X13195509Y10360861D01*
X13208859Y10337739D01*
X13227739Y10318860D01*
X13250861Y10305510D01*
X13276649Y10298600D01*
X13303349D01*
X13329140Y10305510D01*
X13352261Y10318860D01*
X13371140Y10337739D01*
X13384489Y10360861D01*
X13391400Y10386651D01*
Y10413350D01*
X13384489Y10439139D01*
X13371140Y10462261D01*
X13352261Y10481140D01*
X13329140Y10494490D01*
X13303349Y10501400D01*
D02*
G37*
G36*
X13003349D02*
X12976649D01*
X12950861Y10494490D01*
X12927739Y10481140D01*
X12908859Y10462261D01*
X12895509Y10439139D01*
X12888600Y10413350D01*
Y10386651D01*
X12895509Y10360861D01*
X12908859Y10337739D01*
X12927739Y10318860D01*
X12950861Y10305510D01*
X12976649Y10298600D01*
X13003349D01*
X13029140Y10305510D01*
X13052261Y10318860D01*
X13071140Y10337739D01*
X13084489Y10360861D01*
X13091400Y10386651D01*
Y10413350D01*
X13084489Y10439139D01*
X13071140Y10462261D01*
X13052261Y10481140D01*
X13029140Y10494490D01*
X13003349Y10501400D01*
D02*
G37*
G36*
X14241704Y12578900D02*
X14218295D01*
X14195686Y12572842D01*
X14175414Y12561138D01*
X14158862Y12544586D01*
X14147157Y12524314D01*
X14141100Y12501704D01*
Y12478296D01*
X14147157Y12455686D01*
X14158862Y12435414D01*
X14173515Y12420762D01*
Y12133397D01*
X12650059Y10609941D01*
X12637814Y10591616D01*
X12633514Y10570000D01*
X12633514Y10569999D01*
Y10484475D01*
X12627739Y10481140D01*
X12608860Y10462261D01*
X12595510Y10439139D01*
X12588600Y10413350D01*
Y10386651D01*
X12595510Y10360861D01*
X12608860Y10337739D01*
X12627739Y10318860D01*
X12650861Y10305510D01*
X12676650Y10298600D01*
X12703349D01*
X12729139Y10305510D01*
X12752261Y10318860D01*
X12771140Y10337739D01*
X12784490Y10360861D01*
X12791400Y10386651D01*
Y10413350D01*
X12784490Y10439139D01*
X12771140Y10462261D01*
X12752261Y10481140D01*
X12746485Y10484475D01*
Y10546603D01*
X14269940Y12070058D01*
X14269942Y12070059D01*
X14282185Y12088384D01*
X14286485Y12110000D01*
X14286485Y12110001D01*
Y12420762D01*
X14301138Y12435414D01*
X14312842Y12455686D01*
X14318900Y12478296D01*
Y12501704D01*
X14312842Y12524314D01*
X14301138Y12544586D01*
X14284586Y12561138D01*
X14264314Y12572842D01*
X14241704Y12578900D01*
D02*
G37*
G36*
X12403349Y10501400D02*
X12376650D01*
X12350861Y10494490D01*
X12327739Y10481140D01*
X12308860Y10462261D01*
X12295510Y10439139D01*
X12288600Y10413350D01*
Y10386651D01*
X12295510Y10360861D01*
X12308860Y10337739D01*
X12327739Y10318860D01*
X12350861Y10305510D01*
X12376650Y10298600D01*
X12403349D01*
X12429139Y10305510D01*
X12452261Y10318860D01*
X12471140Y10337739D01*
X12484490Y10360861D01*
X12491400Y10386651D01*
Y10413350D01*
X12484490Y10439139D01*
X12471140Y10462261D01*
X12452261Y10481140D01*
X12429139Y10494490D01*
X12403349Y10501400D01*
D02*
G37*
G36*
X11243349D02*
X11216650D01*
X11190861Y10494490D01*
X11167739Y10481140D01*
X11148860Y10462261D01*
X11135510Y10439139D01*
X11128600Y10413350D01*
Y10386651D01*
X11135510Y10360861D01*
X11148860Y10337739D01*
X11167739Y10318860D01*
X11190861Y10305510D01*
X11216650Y10298600D01*
X11243349D01*
X11269139Y10305510D01*
X11292261Y10318860D01*
X11311140Y10337739D01*
X11324490Y10360861D01*
X11331400Y10386651D01*
Y10413350D01*
X11324490Y10439139D01*
X11311140Y10462261D01*
X11292261Y10481140D01*
X11269139Y10494490D01*
X11243349Y10501400D01*
D02*
G37*
G36*
X10943349D02*
X10916651D01*
X10890861Y10494490D01*
X10867739Y10481140D01*
X10848860Y10462261D01*
X10835510Y10439139D01*
X10828600Y10413350D01*
Y10386651D01*
X10835510Y10360861D01*
X10848860Y10337739D01*
X10867739Y10318860D01*
X10890861Y10305510D01*
X10916651Y10298600D01*
X10943349D01*
X10969139Y10305510D01*
X10992261Y10318860D01*
X11011140Y10337739D01*
X11024490Y10360861D01*
X11031400Y10386651D01*
Y10413350D01*
X11024490Y10439139D01*
X11011140Y10462261D01*
X10992261Y10481140D01*
X10969139Y10494490D01*
X10943349Y10501400D01*
D02*
G37*
G36*
X10643349D02*
X10616650D01*
X10590861Y10494490D01*
X10567739Y10481140D01*
X10548860Y10462261D01*
X10535510Y10439139D01*
X10528600Y10413350D01*
Y10386651D01*
X10535510Y10360861D01*
X10548860Y10337739D01*
X10567739Y10318860D01*
X10590861Y10305510D01*
X10616650Y10298600D01*
X10643349D01*
X10669139Y10305510D01*
X10692261Y10318860D01*
X10711140Y10337739D01*
X10724490Y10360861D01*
X10731400Y10386651D01*
Y10413350D01*
X10724490Y10439139D01*
X10711140Y10462261D01*
X10692261Y10481140D01*
X10669139Y10494490D01*
X10643349Y10501400D01*
D02*
G37*
G36*
X7602700Y10238633D02*
Y10162700D01*
X7678633D01*
X7672842Y10184314D01*
X7661138Y10204586D01*
X7644586Y10221138D01*
X7624314Y10232842D01*
X7602700Y10238633D01*
D02*
G37*
G36*
X7577300D02*
X7555686Y10232842D01*
X7535414Y10221138D01*
X7518862Y10204586D01*
X7507158Y10184314D01*
X7501367Y10162700D01*
X7577300D01*
Y10238633D01*
D02*
G37*
G36*
X9732700Y10228633D02*
Y10152700D01*
X9808633D01*
X9802842Y10174314D01*
X9791138Y10194586D01*
X9774586Y10211138D01*
X9754314Y10222842D01*
X9732700Y10228633D01*
D02*
G37*
G36*
X9707300D02*
X9685686Y10222842D01*
X9665414Y10211138D01*
X9648862Y10194586D01*
X9637159Y10174314D01*
X9631367Y10152700D01*
X9707300D01*
Y10228633D01*
D02*
G37*
G36*
X12403349Y10201400D02*
X12402700D01*
Y10112700D01*
X12491400D01*
Y10113350D01*
X12484490Y10139139D01*
X12471140Y10162261D01*
X12452261Y10181140D01*
X12429139Y10194490D01*
X12403349Y10201400D01*
D02*
G37*
G36*
X12377300D02*
X12376650D01*
X12350861Y10194490D01*
X12327739Y10181140D01*
X12308860Y10162261D01*
X12295510Y10139139D01*
X12288600Y10113350D01*
Y10112700D01*
X12377300D01*
Y10201400D01*
D02*
G37*
G36*
X10643349D02*
X10642700D01*
Y10112700D01*
X10731400D01*
Y10113350D01*
X10724490Y10139139D01*
X10711140Y10162261D01*
X10692261Y10181140D01*
X10669139Y10194490D01*
X10643349Y10201400D01*
D02*
G37*
G36*
X10617300D02*
X10616650D01*
X10590861Y10194490D01*
X10567739Y10181140D01*
X10548860Y10162261D01*
X10535510Y10139139D01*
X10528600Y10113350D01*
Y10112700D01*
X10617300D01*
Y10201400D01*
D02*
G37*
G36*
X15970560Y10255400D02*
X15945441D01*
X15921178Y10248898D01*
X15899423Y10236339D01*
X15881660Y10218577D01*
X15869101Y10196823D01*
X15862601Y10172560D01*
Y10147440D01*
X15869101Y10123177D01*
X15881660Y10101423D01*
X15899423Y10083661D01*
X15921178Y10071102D01*
X15945441Y10064600D01*
X15970560D01*
X15994823Y10071102D01*
X16016577Y10083661D01*
X16034338Y10101423D01*
X16046898Y10123177D01*
X16053400Y10147440D01*
Y10172560D01*
X16046898Y10196823D01*
X16034338Y10218577D01*
X16016577Y10236339D01*
X15994823Y10248898D01*
X15970560Y10255400D01*
D02*
G37*
G36*
X15696559D02*
X15671440D01*
X15647177Y10248898D01*
X15625423Y10236339D01*
X15607661Y10218577D01*
X15595100Y10196823D01*
X15588600Y10172560D01*
Y10147440D01*
X15595100Y10123177D01*
X15607661Y10101423D01*
X15625423Y10083661D01*
X15647177Y10071102D01*
X15671440Y10064600D01*
X15696559D01*
X15720824Y10071102D01*
X15742577Y10083661D01*
X15760339Y10101423D01*
X15772897Y10123177D01*
X15779401Y10147440D01*
Y10172560D01*
X15772897Y10196823D01*
X15760339Y10218577D01*
X15742577Y10236339D01*
X15720824Y10248898D01*
X15696559Y10255400D01*
D02*
G37*
G36*
X15422559D02*
X15397440D01*
X15373177Y10248898D01*
X15351424Y10236339D01*
X15333661Y10218577D01*
X15321101Y10196823D01*
X15314600Y10172560D01*
Y10147440D01*
X15321101Y10123177D01*
X15333661Y10101423D01*
X15351424Y10083661D01*
X15373177Y10071102D01*
X15397440Y10064600D01*
X15422559D01*
X15446823Y10071102D01*
X15468578Y10083661D01*
X15486339Y10101423D01*
X15498898Y10123177D01*
X15505400Y10147440D01*
Y10172560D01*
X15498898Y10196823D01*
X15486339Y10218577D01*
X15468578Y10236339D01*
X15446823Y10248898D01*
X15422559Y10255400D01*
D02*
G37*
G36*
X15148560D02*
X15123441D01*
X15099178Y10248898D01*
X15077423Y10236339D01*
X15059660Y10218577D01*
X15047101Y10196823D01*
X15040601Y10172560D01*
Y10147440D01*
X15047101Y10123177D01*
X15059660Y10101423D01*
X15077423Y10083661D01*
X15099178Y10071102D01*
X15123441Y10064600D01*
X15148560D01*
X15172823Y10071102D01*
X15194577Y10083661D01*
X15212338Y10101423D01*
X15224898Y10123177D01*
X15231400Y10147440D01*
Y10172560D01*
X15224898Y10196823D01*
X15212338Y10218577D01*
X15194577Y10236339D01*
X15172823Y10248898D01*
X15148560Y10255400D01*
D02*
G37*
G36*
X7678633Y10137300D02*
X7602700D01*
Y10061367D01*
X7624314Y10067158D01*
X7644586Y10078862D01*
X7661138Y10095414D01*
X7672842Y10115686D01*
X7678633Y10137300D01*
D02*
G37*
G36*
X7577300D02*
X7501367D01*
X7507158Y10115686D01*
X7518862Y10095414D01*
X7535414Y10078862D01*
X7555686Y10067158D01*
X7577300Y10061367D01*
Y10137300D01*
D02*
G37*
G36*
X9808633Y10127300D02*
X9732700D01*
Y10051367D01*
X9754314Y10057158D01*
X9774586Y10068862D01*
X9791138Y10085414D01*
X9802842Y10105686D01*
X9808633Y10127300D01*
D02*
G37*
G36*
X9707300D02*
X9631367D01*
X9637159Y10105686D01*
X9648862Y10085414D01*
X9665414Y10068862D01*
X9685686Y10057158D01*
X9707300Y10051367D01*
Y10127300D01*
D02*
G37*
G36*
X16817886Y10552400D02*
X16776112D01*
X16734853Y10545865D01*
X16695122Y10532956D01*
X16657899Y10513990D01*
X16624103Y10489436D01*
X16594563Y10459897D01*
X16570010Y10426100D01*
X16551044Y10388878D01*
X16538135Y10349148D01*
X16531599Y10307887D01*
Y10266113D01*
X16538135Y10224852D01*
X16551044Y10185122D01*
X16570010Y10147900D01*
X16594563Y10114103D01*
X16624103Y10084564D01*
X16657899Y10060010D01*
X16695122Y10041044D01*
X16734853Y10028135D01*
X16776112Y10021600D01*
X16817886D01*
X16859148Y10028135D01*
X16898878Y10041044D01*
X16936099Y10060010D01*
X16969896Y10084564D01*
X16999435Y10114103D01*
X17023990Y10147900D01*
X17042957Y10185122D01*
X17055865Y10224852D01*
X17062399Y10266113D01*
Y10307887D01*
X17055865Y10349148D01*
X17042957Y10388878D01*
X17023990Y10426100D01*
X16999435Y10459897D01*
X16969896Y10489436D01*
X16936099Y10513990D01*
X16898878Y10532956D01*
X16859148Y10545865D01*
X16817886Y10552400D01*
D02*
G37*
G36*
X14317886D02*
X14276112D01*
X14234853Y10545865D01*
X14195122Y10532956D01*
X14157899Y10513990D01*
X14124103Y10489436D01*
X14094563Y10459897D01*
X14070009Y10426100D01*
X14051044Y10388878D01*
X14038135Y10349148D01*
X14031599Y10307887D01*
Y10266113D01*
X14038135Y10224852D01*
X14051044Y10185122D01*
X14070009Y10147900D01*
X14094563Y10114103D01*
X14124103Y10084564D01*
X14157899Y10060010D01*
X14195122Y10041044D01*
X14234853Y10028135D01*
X14276112Y10021600D01*
X14317886D01*
X14359148Y10028135D01*
X14398878Y10041044D01*
X14436099Y10060010D01*
X14469896Y10084564D01*
X14499435Y10114103D01*
X14523990Y10147900D01*
X14542957Y10185122D01*
X14555865Y10224852D01*
X14562399Y10266113D01*
Y10307887D01*
X14555865Y10349148D01*
X14542957Y10388878D01*
X14523990Y10426100D01*
X14499435Y10459897D01*
X14469896Y10489436D01*
X14436099Y10513990D01*
X14398878Y10532956D01*
X14359148Y10545865D01*
X14317886Y10552400D01*
D02*
G37*
G36*
X13391400Y10201400D02*
X13188600D01*
Y9998600D01*
X13391400D01*
Y10201400D01*
D02*
G37*
G36*
X13003349D02*
X12976649D01*
X12950861Y10194490D01*
X12927739Y10181140D01*
X12908859Y10162261D01*
X12895509Y10139139D01*
X12888600Y10113350D01*
Y10086651D01*
X12895509Y10060861D01*
X12908859Y10037739D01*
X12927739Y10018860D01*
X12950861Y10005510D01*
X12976649Y9998600D01*
X13003349D01*
X13029140Y10005510D01*
X13052261Y10018860D01*
X13071140Y10037739D01*
X13084489Y10060861D01*
X13091400Y10086651D01*
Y10113350D01*
X13084489Y10139139D01*
X13071140Y10162261D01*
X13052261Y10181140D01*
X13029140Y10194490D01*
X13003349Y10201400D01*
D02*
G37*
G36*
X12703349D02*
X12676650D01*
X12650861Y10194490D01*
X12627739Y10181140D01*
X12608860Y10162261D01*
X12595510Y10139139D01*
X12588600Y10113350D01*
Y10086651D01*
X12595510Y10060861D01*
X12608860Y10037739D01*
X12627739Y10018860D01*
X12650861Y10005510D01*
X12676650Y9998600D01*
X12703349D01*
X12729139Y10005510D01*
X12752261Y10018860D01*
X12771140Y10037739D01*
X12784490Y10060861D01*
X12791400Y10086651D01*
Y10113350D01*
X12784490Y10139139D01*
X12771140Y10162261D01*
X12752261Y10181140D01*
X12729139Y10194490D01*
X12703349Y10201400D01*
D02*
G37*
G36*
X12491400Y10087300D02*
X12402700D01*
Y9998600D01*
X12403349D01*
X12429139Y10005510D01*
X12452261Y10018860D01*
X12471140Y10037739D01*
X12484490Y10060861D01*
X12491400Y10086651D01*
Y10087300D01*
D02*
G37*
G36*
X12377300D02*
X12288600D01*
Y10086651D01*
X12295510Y10060861D01*
X12308860Y10037739D01*
X12327739Y10018860D01*
X12350861Y10005510D01*
X12376650Y9998600D01*
X12377300D01*
Y10087300D01*
D02*
G37*
G36*
X11331400Y10201400D02*
X11128600D01*
Y9998600D01*
X11331400D01*
Y10201400D01*
D02*
G37*
G36*
X10943349D02*
X10916651D01*
X10890861Y10194490D01*
X10867739Y10181140D01*
X10848860Y10162261D01*
X10835510Y10139139D01*
X10828600Y10113350D01*
Y10086651D01*
X10835510Y10060861D01*
X10848860Y10037739D01*
X10867739Y10018860D01*
X10890861Y10005510D01*
X10916651Y9998600D01*
X10943349D01*
X10969139Y10005510D01*
X10992261Y10018860D01*
X11011140Y10037739D01*
X11024490Y10060861D01*
X11031400Y10086651D01*
Y10113350D01*
X11024490Y10139139D01*
X11011140Y10162261D01*
X10992261Y10181140D01*
X10969139Y10194490D01*
X10943349Y10201400D01*
D02*
G37*
G36*
X10731400Y10087300D02*
X10642700D01*
Y9998600D01*
X10643349D01*
X10669139Y10005510D01*
X10692261Y10018860D01*
X10711140Y10037739D01*
X10724490Y10060861D01*
X10731400Y10086651D01*
Y10087300D01*
D02*
G37*
G36*
X10617300D02*
X10528600D01*
Y10086651D01*
X10535510Y10060861D01*
X10548860Y10037739D01*
X10567739Y10018860D01*
X10590861Y10005510D01*
X10616650Y9998600D01*
X10617300D01*
Y10087300D01*
D02*
G37*
G36*
X13852699Y9808633D02*
Y9732700D01*
X13928633D01*
X13922842Y9754314D01*
X13911137Y9774586D01*
X13894586Y9791138D01*
X13874313Y9802842D01*
X13852699Y9808633D01*
D02*
G37*
G36*
X13827299D02*
X13805685Y9802842D01*
X13785414Y9791138D01*
X13768861Y9774586D01*
X13757158Y9754314D01*
X13751367Y9732700D01*
X13827299D01*
Y9808633D01*
D02*
G37*
G36*
X13928633Y9707300D02*
X13852699D01*
Y9631367D01*
X13874313Y9637159D01*
X13894586Y9648862D01*
X13911137Y9665414D01*
X13922842Y9685686D01*
X13928633Y9707300D01*
D02*
G37*
G36*
X13827299D02*
X13751367D01*
X13757158Y9685686D01*
X13768861Y9665414D01*
X13785414Y9648862D01*
X13805685Y9637159D01*
X13827299Y9631367D01*
Y9707300D01*
D02*
G37*
G36*
X13091275Y9843400D02*
X13056725D01*
X13022838Y9836660D01*
X12990916Y9823438D01*
X12962189Y9804242D01*
X12937758Y9779811D01*
X12918562Y9751083D01*
X12905341Y9719162D01*
X12898599Y9685276D01*
Y9650725D01*
X12905341Y9616838D01*
X12918562Y9584917D01*
X12937758Y9556189D01*
X12962189Y9531758D01*
X12990916Y9512563D01*
X13022838Y9499341D01*
X13056725Y9492600D01*
X13091275D01*
X13125162Y9499341D01*
X13157083Y9512563D01*
X13185811Y9531758D01*
X13210242Y9556189D01*
X13229437Y9584917D01*
X13242659Y9616838D01*
X13249400Y9650725D01*
Y9685276D01*
X13242659Y9719162D01*
X13229437Y9751083D01*
X13210242Y9779811D01*
X13185811Y9804242D01*
X13157083Y9823438D01*
X13125162Y9836660D01*
X13091275Y9843400D01*
D02*
G37*
G36*
X12623275D02*
X12588725D01*
X12554838Y9836660D01*
X12522917Y9823438D01*
X12494189Y9804242D01*
X12469758Y9779811D01*
X12450563Y9751083D01*
X12437341Y9719162D01*
X12430600Y9685276D01*
Y9650725D01*
X12437341Y9616838D01*
X12450563Y9584917D01*
X12469758Y9556189D01*
X12494189Y9531758D01*
X12522917Y9512563D01*
X12554838Y9499341D01*
X12588725Y9492600D01*
X12623275D01*
X12657162Y9499341D01*
X12689083Y9512563D01*
X12717811Y9531758D01*
X12742242Y9556189D01*
X12761437Y9584917D01*
X12774659Y9616838D01*
X12781400Y9650725D01*
Y9685276D01*
X12774659Y9719162D01*
X12761437Y9751083D01*
X12742242Y9779811D01*
X12717811Y9804242D01*
X12689083Y9823438D01*
X12657162Y9836660D01*
X12623275Y9843400D01*
D02*
G37*
G36*
X10947275D02*
X10912725D01*
X10878838Y9836660D01*
X10846917Y9823438D01*
X10818189Y9804242D01*
X10793758Y9779811D01*
X10774563Y9751083D01*
X10761341Y9719162D01*
X10754600Y9685276D01*
Y9650725D01*
X10761341Y9616838D01*
X10774563Y9584917D01*
X10793758Y9556189D01*
X10818189Y9531758D01*
X10846917Y9512563D01*
X10878838Y9499341D01*
X10912725Y9492600D01*
X10947275D01*
X10981162Y9499341D01*
X11013083Y9512563D01*
X11041811Y9531758D01*
X11066242Y9556189D01*
X11085437Y9584917D01*
X11098659Y9616838D01*
X11105400Y9650725D01*
Y9685276D01*
X11098659Y9719162D01*
X11085437Y9751083D01*
X11066242Y9779811D01*
X11041811Y9804242D01*
X11013083Y9823438D01*
X10981162Y9836660D01*
X10947275Y9843400D01*
D02*
G37*
G36*
X9522700Y9558633D02*
Y9482700D01*
X9598633D01*
X9592842Y9504314D01*
X9581138Y9524586D01*
X9564586Y9541138D01*
X9544314Y9552842D01*
X9522700Y9558633D01*
D02*
G37*
G36*
X9497300D02*
X9475686Y9552842D01*
X9455414Y9541138D01*
X9438862Y9524586D01*
X9427158Y9504314D01*
X9421367Y9482700D01*
X9497300D01*
Y9558633D01*
D02*
G37*
G36*
X8772700Y9518633D02*
Y9442700D01*
X8848633D01*
X8842842Y9464314D01*
X8831138Y9484586D01*
X8814586Y9501138D01*
X8794314Y9512842D01*
X8772700Y9518633D01*
D02*
G37*
G36*
X8747300D02*
X8725686Y9512842D01*
X8705414Y9501138D01*
X8688862Y9484586D01*
X8677158Y9464314D01*
X8671367Y9442700D01*
X8747300D01*
Y9518633D01*
D02*
G37*
G36*
X7702700D02*
Y9442700D01*
X7778633D01*
X7772842Y9464314D01*
X7761138Y9484586D01*
X7744586Y9501138D01*
X7724314Y9512842D01*
X7702700Y9518633D01*
D02*
G37*
G36*
X7677300D02*
X7655686Y9512842D01*
X7635414Y9501138D01*
X7618862Y9484586D01*
X7607159Y9464314D01*
X7601367Y9442700D01*
X7677300D01*
Y9518633D01*
D02*
G37*
G36*
X9598633Y9457300D02*
X9522700D01*
Y9381367D01*
X9544314Y9387159D01*
X9564586Y9398862D01*
X9581138Y9415414D01*
X9592842Y9435686D01*
X9598633Y9457300D01*
D02*
G37*
G36*
X9497300D02*
X9421367D01*
X9427158Y9435686D01*
X9438862Y9415414D01*
X9455414Y9398862D01*
X9475686Y9387159D01*
X9497300Y9381367D01*
Y9457300D01*
D02*
G37*
G36*
X8848633Y9417300D02*
X8772700D01*
Y9341367D01*
X8794314Y9347158D01*
X8814586Y9358862D01*
X8831138Y9375414D01*
X8842842Y9395686D01*
X8848633Y9417300D01*
D02*
G37*
G36*
X8747300D02*
X8671367D01*
X8677158Y9395686D01*
X8688862Y9375414D01*
X8705414Y9358862D01*
X8725686Y9347158D01*
X8747300Y9341367D01*
Y9417300D01*
D02*
G37*
G36*
X7778633D02*
X7702700D01*
Y9341367D01*
X7724314Y9347158D01*
X7744586Y9358862D01*
X7761138Y9375414D01*
X7772842Y9395686D01*
X7778633Y9417300D01*
D02*
G37*
G36*
X7677300D02*
X7601367D01*
X7607159Y9395686D01*
X7618862Y9375414D01*
X7635414Y9358862D01*
X7655686Y9347158D01*
X7677300Y9341367D01*
Y9417300D01*
D02*
G37*
%LPD*%
D27*
X15360001Y13370000D02*
Y13610001D01*
X15580000Y13150000D02*
X15730000D01*
X16060001Y12820000D01*
X15360001Y13370000D02*
X15580000Y13150000D01*
X14510001Y14789999D02*
Y14800000D01*
X13430000Y13710001D02*
X14510001Y14789999D01*
X14230000Y12110000D02*
Y12490000D01*
X12690000Y10570000D02*
X14230000Y12110000D01*
X12690000Y10400000D02*
Y10570000D01*
D28*
X15960001Y13410001D02*
Y15160001D01*
X15889999Y15230000D02*
X15960001Y15160001D01*
X11470000Y15230000D02*
X15889999D01*
X9670000Y13430000D02*
X11470000Y15230000D01*
X9670000Y11510000D02*
Y13430000D01*
X9890000Y11290000D02*
X11025000D01*
X9670000Y11510000D02*
X9890000Y11290000D01*
X11025000D02*
X11225000Y11090000D01*
D30*
X14999001Y10414000D02*
D03*
X15821001D02*
D03*
X15547000D02*
D03*
X15273000D02*
D03*
X15958000Y10160000D02*
D03*
X15684000D02*
D03*
X15410001D02*
D03*
X15136000D02*
D03*
D31*
X12390000Y10100000D02*
D03*
X10630000D02*
D03*
X12690000Y10400000D02*
D03*
X12989999D02*
D03*
X13289999D02*
D03*
X12690000Y10100000D02*
D03*
X12989999D02*
D03*
X12390000Y10400000D02*
D03*
X10930000Y10100000D02*
D03*
Y10400000D02*
D03*
X10630000D02*
D03*
X11230000D02*
D03*
D32*
X10475000Y10990000D02*
D03*
D33*
X12606000Y9668000D02*
D03*
X13074001D02*
D03*
X10930000D02*
D03*
D34*
X13289999Y10100000D02*
D03*
X11230000D02*
D03*
D35*
X11225000Y11090000D02*
D03*
D36*
X15360001Y13610001D02*
D03*
X16560001Y14830000D02*
D03*
X15360001D02*
D03*
X16560001Y13610001D02*
D03*
D37*
X16095000Y10414000D02*
D03*
D38*
X16797000Y10287000D02*
D03*
X14297000D02*
D03*
D39*
X15960001Y13410001D02*
D03*
D40*
X16400000Y15539999D02*
D03*
X16989999Y15130000D02*
D03*
X15489999Y15530000D02*
D03*
X13960001Y14739999D02*
D03*
X16950000Y14310001D02*
D03*
X13520000Y14300000D02*
D03*
X13080000Y15550000D02*
D03*
X13110001Y14750000D02*
D03*
X13070000Y14270000D02*
D03*
X14830000Y13589999D02*
D03*
X16980000Y13560001D02*
D03*
X13480000Y13160001D02*
D03*
X12350000Y14060001D02*
D03*
X11640000Y13750000D02*
D03*
X11490000Y14639999D02*
D03*
X11300000Y15539999D02*
D03*
X11280000Y14230000D02*
D03*
X10360000Y13810001D02*
D03*
X10900000D02*
D03*
X11240000Y13739999D02*
D03*
X16960001Y12830000D02*
D03*
X16530000Y12780000D02*
D03*
X16539999Y12280000D02*
D03*
X15210001Y12550000D02*
D03*
X16970000Y12190000D02*
D03*
X16989999Y11380000D02*
D03*
Y10800000D02*
D03*
X16330000Y11940000D02*
D03*
X14639999Y12690000D02*
D03*
X14650000Y12230000D02*
D03*
X14270000Y11380000D02*
D03*
X11640000Y12850000D02*
D03*
X10370000Y12810001D02*
D03*
X11680000Y11670000D02*
D03*
X10920000Y12830000D02*
D03*
X14780000Y11160000D02*
D03*
X14910001Y10680000D02*
D03*
X13839999Y9720000D02*
D03*
X11830000Y11120000D02*
D03*
Y10480000D02*
D03*
X10160000Y14280000D02*
D03*
X9740000Y15470000D02*
D03*
X9130000Y14089999D02*
D03*
X9750000Y14039999D02*
D03*
X10090000Y13350000D02*
D03*
X9980000Y12580000D02*
D03*
X9420000Y12910001D02*
D03*
X9300000Y13370000D02*
D03*
X9280000Y12450000D02*
D03*
X9200000Y15470000D02*
D03*
X7510000Y15189999D02*
D03*
X9010000Y14610001D02*
D03*
X9050000Y12889999D02*
D03*
X9870000Y11630000D02*
D03*
X9940000Y12230000D02*
D03*
X9390000Y12130000D02*
D03*
X9190000Y11410000D02*
D03*
X9640000Y11100000D02*
D03*
X9340000Y10540000D02*
D03*
X9510000Y9470000D02*
D03*
X9720000Y10140000D02*
D03*
X9080000Y10970000D02*
D03*
X8760000Y9430000D02*
D03*
X7840000Y11400000D02*
D03*
Y10860000D02*
D03*
X7590000Y11590000D02*
D03*
Y10150000D02*
D03*
X7690000Y9430000D02*
D03*
X16060001Y12820000D02*
D03*
X14510001Y14800000D02*
D03*
X13430000Y13710001D02*
D03*
X14230000Y12490000D02*
D03*
%TF.MD5,9de63f971405a8fa2fba3066fa8f5702*%
M02*
