G04*
G04 #@! TF.GenerationSoftware,Altium Limited,Altium Designer,25.8.1 (18)*
G04*
G04 Layer_Color=16711935*
%FSLAX44Y44*%
%MOMM*%
G71*
G04*
G04 #@! TF.SameCoordinates,3D28AD71-2A70-4CFD-9337-590B9DAEE029*
G04*
G04*
G04 #@! TF.FilePolarity,Negative*
G04*
G01*
G75*
%ADD40C,1.7232*%
%ADD41R,1.7232X1.7232*%
%ADD42C,3.2032*%
%ADD43R,1.6000X1.6000*%
%ADD44C,1.6000*%
%ADD45C,5.0032*%
%ADD46C,1.6032*%
%ADD47R,1.6032X1.6032*%
%ADD48R,2.0000X2.0000*%
%ADD49C,2.0000*%
%ADD50C,0.2032*%
%ADD51C,1.4732*%
D40*
X400370Y130680D02*
D03*
X340370D02*
D03*
X370370D02*
D03*
Y100680D02*
D03*
X340370D02*
D03*
X516370Y130680D02*
D03*
X576370Y100680D02*
D03*
X546370D02*
D03*
X606370Y130680D02*
D03*
X576370D02*
D03*
X546370D02*
D03*
X516370Y100680D02*
D03*
D41*
X400370D02*
D03*
X606370D02*
D03*
D42*
X370370Y57480D02*
D03*
X584770D02*
D03*
X537970D02*
D03*
D43*
X399870Y199680D02*
D03*
D44*
X324870Y189680D02*
D03*
D45*
X707070Y119380D02*
D03*
X957070D02*
D03*
D46*
X790970Y106680D02*
D03*
X818370D02*
D03*
X845770D02*
D03*
X873170D02*
D03*
X804670Y132080D02*
D03*
X832070D02*
D03*
X859470D02*
D03*
X777270D02*
D03*
D47*
X886870D02*
D03*
D48*
X873370Y431680D02*
D03*
D49*
X933370Y451680D02*
D03*
X813370Y573680D02*
D03*
X933370D02*
D03*
X813370Y451680D02*
D03*
D50*
X207370Y267680D02*
D03*
X738370D02*
D03*
D51*
X46370Y33680D02*
D03*
X153370D02*
D03*
X228370Y37680D02*
D03*
X249370Y104680D02*
D03*
X36370Y105680D02*
D03*
X211370Y144680D02*
D03*
X61370Y176680D02*
D03*
X185370Y187680D02*
D03*
X28370Y609680D02*
D03*
X36370Y249680D02*
D03*
X61370Y230680D02*
D03*
X178370Y551680D02*
D03*
X182370Y379680D02*
D03*
X190370Y499680D02*
D03*
X196370Y231680D02*
D03*
X197370Y637680D02*
D03*
X205370Y335680D02*
D03*
X207370Y427680D02*
D03*
X216370Y303680D02*
D03*
X219370Y381680D02*
D03*
X241370Y200680D02*
D03*
X251370Y637680D02*
D03*
X252370Y494680D02*
D03*
X264370Y253680D02*
D03*
X271370Y313680D02*
D03*
X275370Y348680D02*
D03*
X286370Y425680D02*
D03*
X293370Y518680D02*
D03*
X313370Y471680D02*
D03*
X314370Y371680D02*
D03*
X367370Y471680D02*
D03*
X369370Y373680D02*
D03*
X401370Y464680D02*
D03*
X405370Y513680D02*
D03*
X407370Y644680D02*
D03*
X426370Y554680D02*
D03*
X441370Y375680D02*
D03*
Y465680D02*
D03*
X445370Y257680D02*
D03*
X460370Y202680D02*
D03*
Y138680D02*
D03*
X661370Y62680D02*
D03*
X704370Y228680D02*
D03*
X755370Y206680D02*
D03*
X768370Y158680D02*
D03*
X910370Y284680D02*
D03*
X976370Y228680D02*
D03*
Y170680D02*
D03*
X512370Y496680D02*
D03*
X584370Y517680D02*
D03*
X585370Y645680D02*
D03*
X588370Y565680D02*
D03*
X620370Y461680D02*
D03*
X625370Y406680D02*
D03*
X629370Y520680D02*
D03*
X673370Y564680D02*
D03*
X700370Y339680D02*
D03*
X728370Y570680D02*
D03*
X741370Y359680D02*
D03*
X742370Y313680D02*
D03*
X760370Y449680D02*
D03*
X798370Y345680D02*
D03*
X826370Y643680D02*
D03*
X883370Y372680D02*
D03*
X917370Y644680D02*
D03*
X930370Y368680D02*
D03*
X931370Y318680D02*
D03*
X972370Y521680D02*
D03*
X973370Y373680D02*
D03*
X974370Y309680D02*
D03*
X975370Y446680D02*
D03*
X976370Y603680D02*
D03*
M02*
