G04*
G04 #@! TF.GenerationSoftware,Altium Limited,Altium Designer,25.8.1 (18)*
G04*
G04 Layer_Physical_Order=1*
G04 Layer_Color=255*
%FSLAX44Y44*%
%MOMM*%
G71*
G04*
G04 #@! TF.SameCoordinates,3D28AD71-2A70-4CFD-9337-590B9DAEE029*
G04*
G04*
G04 #@! TF.FilePolarity,Positive*
G04*
G01*
G75*
%ADD14C,0.2540*%
%ADD15R,4.1000X2.0000*%
%ADD16R,0.6500X1.5250*%
%ADD17R,1.0000X1.2500*%
%ADD18R,2.3000X3.3000*%
%ADD19R,1.5000X1.0000*%
%ADD20R,4.5000X2.1000*%
%ADD21R,4.4000X2.5000*%
%ADD22R,2.0000X4.1000*%
%ADD23R,1.2500X1.0000*%
%ADD24R,1.5250X0.6500*%
%ADD25R,5.2000X3.8500*%
%ADD26R,1.0000X1.5000*%
%ADD27R,2.5000X4.4000*%
%ADD28R,3.3000X2.3000*%
%ADD29R,0.8500X1.3500*%
%ADD30R,1.8000X1.3400*%
%ADD31R,0.6000X1.3500*%
%ADD43R,1.6000X1.6000*%
%ADD44C,1.6000*%
%ADD48R,2.0000X2.0000*%
%ADD49C,2.0000*%
%ADD52C,0.6000*%
%ADD53C,1.0000*%
%ADD54C,1.5200*%
%ADD55R,1.5200X1.5200*%
%ADD56C,3.0000*%
%ADD57C,4.8000*%
%ADD58C,1.4000*%
%ADD59R,1.4000X1.4000*%
%ADD60C,1.2700*%
D14*
X546370Y86680D02*
Y100680D01*
Y86680D02*
X555370Y77680D01*
X560370Y94680D02*
Y106680D01*
Y94680D02*
X569370Y85680D01*
X560370Y106680D02*
X574842Y121152D01*
Y129152D01*
X576370Y130680D01*
X555370Y77680D02*
X621370D01*
X569370Y85680D02*
X615370D01*
X626370Y96680D01*
Y128680D01*
X621370Y77680D02*
X636370Y92680D01*
Y121680D01*
X689370Y174680D01*
X626370Y128680D02*
X681370Y183680D01*
X834370D01*
X689370Y174680D02*
X840370D01*
X794370Y207680D02*
Y208930D01*
Y255680D02*
X797720Y259030D01*
X794370Y208930D02*
X798100Y212660D01*
X794370Y235680D02*
X804370D01*
X798100Y212660D02*
X805882D01*
X807370Y214148D01*
Y226680D01*
X832070Y132080D02*
X832770Y132780D01*
Y148080D01*
X834370Y183680D02*
X846370Y195680D01*
X832770Y148080D02*
X848370Y163680D01*
X846370Y195680D02*
Y233680D01*
X840370Y174680D02*
X863370Y197680D01*
X859470Y132080D02*
X861001Y133611D01*
Y145311D01*
X863370Y197680D02*
Y230680D01*
X861001Y145311D02*
X870370Y154680D01*
X848370Y163680D02*
X919370D01*
X870370Y154680D02*
X926370D01*
X919370Y163680D02*
X954370Y198680D01*
X926370Y154680D02*
X964370Y192680D01*
X954370Y198680D02*
Y249680D01*
X794620Y287680D02*
X810570Y271730D01*
X804370Y235680D02*
X815020Y246330D01*
X807370Y226680D02*
X814320Y233630D01*
X797720Y259030D02*
X828250D01*
X810570Y271730D02*
X828250D01*
X814320Y233630D02*
X828250D01*
X815020Y246330D02*
X828250D01*
Y284430D02*
X832625D01*
X846370Y233680D02*
X859020Y246330D01*
X863370Y230680D02*
X866320Y233630D01*
X859020Y246330D02*
X882490D01*
X866320Y233630D02*
X882490D01*
Y259030D02*
X945020D01*
X882490Y271730D02*
X957320D01*
X945020Y259030D02*
X954370Y249680D01*
X957320Y271730D02*
X964370Y264680D01*
Y192680D02*
Y264680D01*
X793370Y287680D02*
X794620D01*
X793370Y307680D02*
X806370D01*
X816920Y297130D01*
X828250D01*
X832625Y284430D02*
X841875Y293680D01*
X841882D01*
X843370Y295168D01*
Y344680D01*
D15*
X156870Y103680D02*
D03*
X69870D02*
D03*
X398870Y295680D02*
D03*
X311870D02*
D03*
D16*
X121420Y230800D02*
D03*
X108720D02*
D03*
X96020D02*
D03*
X83320Y176560D02*
D03*
X108720D02*
D03*
X96020D02*
D03*
X83320Y230800D02*
D03*
X121420Y176560D02*
D03*
D17*
X156370Y231680D02*
D03*
X176370D02*
D03*
X399370Y375680D02*
D03*
X419370D02*
D03*
X794370Y207680D02*
D03*
X774370D02*
D03*
X823370Y344680D02*
D03*
X843370D02*
D03*
D18*
X123870Y307680D02*
D03*
X64870D02*
D03*
D19*
X177370Y306180D02*
D03*
Y335180D02*
D03*
X625370Y347180D02*
D03*
Y376180D02*
D03*
D20*
X578870Y259680D02*
D03*
X487870D02*
D03*
D21*
X65370Y428680D02*
D03*
X149370D02*
D03*
D22*
X98370Y532180D02*
D03*
Y619180D02*
D03*
D23*
X252370Y533680D02*
D03*
Y513680D02*
D03*
X793370Y287680D02*
D03*
Y307680D02*
D03*
X794370Y235680D02*
D03*
Y255680D02*
D03*
X909370Y299680D02*
D03*
Y319680D02*
D03*
D24*
X251610Y579280D02*
D03*
Y591980D02*
D03*
Y604680D02*
D03*
X197370D02*
D03*
Y617380D02*
D03*
Y579280D02*
D03*
Y591980D02*
D03*
X251610Y617380D02*
D03*
X367490Y412630D02*
D03*
Y425330D02*
D03*
Y438030D02*
D03*
X313250D02*
D03*
Y425330D02*
D03*
Y412630D02*
D03*
Y450730D02*
D03*
X367490D02*
D03*
X882490Y297130D02*
D03*
Y271730D02*
D03*
Y259030D02*
D03*
Y246330D02*
D03*
Y233630D02*
D03*
Y220930D02*
D03*
Y208230D02*
D03*
X828250D02*
D03*
Y220930D02*
D03*
Y233630D02*
D03*
Y246330D02*
D03*
Y259030D02*
D03*
Y271730D02*
D03*
Y284430D02*
D03*
Y297130D02*
D03*
X882490Y284430D02*
D03*
D25*
X531370Y448680D02*
D03*
Y348680D02*
D03*
D26*
X352870Y513680D02*
D03*
X381870D02*
D03*
D27*
X511370Y622680D02*
D03*
Y538680D02*
D03*
D28*
X353370Y565180D02*
D03*
Y624180D02*
D03*
D29*
X720120Y421680D02*
D03*
X736620D02*
D03*
D30*
X728370Y532980D02*
D03*
Y504380D02*
D03*
D31*
X729370Y473680D02*
D03*
X738870Y449680D02*
D03*
X719870D02*
D03*
D43*
X399870Y199680D02*
D03*
D44*
X324870Y189680D02*
D03*
D48*
X873370Y431680D02*
D03*
D49*
X933370Y451680D02*
D03*
X813370Y573680D02*
D03*
X933370D02*
D03*
X813370Y451680D02*
D03*
D52*
X23370Y27680D02*
X34370Y16680D01*
X36370Y105680D02*
X67870D01*
X69870Y103680D01*
X96020Y176560D02*
X108720D01*
X23370Y505680D02*
X23370Y27680D01*
X61370Y176680D02*
X61430Y176620D01*
X61370Y230680D02*
X61430Y230740D01*
X64870Y274180D02*
Y307680D01*
X61430Y176620D02*
X83260D01*
X61430Y230740D02*
X83260D01*
X64870Y274180D02*
X95770Y243280D01*
X83260Y176620D02*
X83320Y176560D01*
X83260Y230740D02*
X83320Y230800D01*
Y176560D02*
X96020D01*
X95770Y231050D02*
Y243280D01*
Y231050D02*
X96020Y230800D01*
X108720D02*
Y247030D01*
Y176560D02*
X121420D01*
X108720Y247030D02*
X123870Y262180D01*
X121420Y230800D02*
Y230990D01*
X121670Y231240D01*
X123870Y262180D02*
Y307680D01*
X34370Y16680D02*
X244370D01*
X156370Y71180D02*
Y103180D01*
X156870Y103680D01*
X156370Y104180D02*
X156870Y103680D01*
X156370Y71180D02*
X159870Y67680D01*
X260370D01*
X244370Y16680D02*
X311370Y83680D01*
X260370Y67680D02*
X310230Y117540D01*
X357230D01*
X311370Y83680D02*
X376370D01*
X340370Y130680D02*
X357370Y147680D01*
X357230Y117540D02*
X370370Y130680D01*
X376370Y83680D02*
X385370Y92680D01*
X377370Y147680D02*
X385370Y139680D01*
Y92680D02*
Y139680D01*
X400370Y44680D02*
Y100680D01*
Y44680D02*
X419370Y25680D01*
X123870Y307680D02*
X125370Y306180D01*
X121670Y231240D02*
X155930D01*
X125370Y306180D02*
X177370D01*
X155930Y231240D02*
X156370Y230800D01*
Y104180D02*
Y230800D01*
X176370Y231680D02*
X196370D01*
X284652Y312398D02*
X301370Y295680D01*
X311870D01*
X357370Y147680D02*
X377370D01*
X445370Y257680D02*
X485870D01*
X23370Y505680D02*
X50870Y533180D01*
X64870Y307680D02*
Y428180D01*
X65370Y428680D01*
X74870D01*
X50870Y533180D02*
X97370D01*
X74870Y428680D02*
X111870Y465680D01*
X97370Y533180D02*
X98370Y532180D01*
X99870Y533680D01*
X149370Y428680D02*
X150370Y427680D01*
X99870Y533680D02*
X251610D01*
X177370Y335180D02*
X177620Y335430D01*
X150370Y427680D02*
X207370D01*
X111870Y465680D02*
X263370D01*
X177620Y335430D02*
X205120D01*
X205370Y335680D01*
X252370Y494680D02*
Y513680D01*
X28370Y609680D02*
X28620Y609430D01*
X28370Y609680D02*
X29370Y608680D01*
X67370D01*
X77870Y619180D01*
X98370D01*
X197370Y591980D02*
Y604680D01*
Y579280D02*
Y591980D01*
Y617380D02*
Y637680D01*
Y604680D02*
Y617380D01*
X251370Y637680D02*
X251490Y637560D01*
Y617500D02*
Y637560D01*
Y617500D02*
X251610Y617380D01*
Y579280D02*
X251740D01*
X251610Y533680D02*
X251990Y534060D01*
X251740Y579280D02*
X251990Y579030D01*
Y534060D02*
Y579030D01*
X251610Y591980D02*
X279070D01*
X271370Y313680D02*
X272652Y312398D01*
X284652D01*
X313250Y412630D02*
Y425330D01*
Y438030D01*
Y450730D01*
X367490Y412630D02*
X387420D01*
X399370Y400680D01*
X367490Y425330D02*
X428720D01*
X399370Y375680D02*
Y400680D01*
X367490Y438030D02*
X431720D01*
X419370Y375680D02*
X441370D01*
X431720Y438030D02*
X442370Y448680D01*
X428720Y425330D02*
X499885Y354165D01*
X251610Y604680D02*
X286370D01*
X263370Y465680D02*
X286370Y488680D01*
X279070Y591980D02*
X305870Y565180D01*
X286370Y604680D02*
X305870Y624180D01*
X313250Y450730D02*
X313310Y450790D01*
Y471620D01*
X313370Y471680D01*
X305870Y565180D02*
X353370D01*
X305870Y624180D02*
X353370D01*
X352870Y513680D02*
Y564680D01*
X353370Y565180D01*
X367370Y471680D02*
X367430Y471620D01*
Y450790D02*
Y471620D01*
Y450790D02*
X367490Y450730D01*
X286370Y488680D02*
X461370D01*
X381870Y513680D02*
X405370D01*
X353370Y624180D02*
X509870D01*
X576370Y100680D02*
X591370Y115680D01*
Y175680D01*
X419370Y25680D02*
X982370D01*
X485870Y257680D02*
X487870Y259680D01*
X516370Y130680D02*
Y172680D01*
X578870Y235180D01*
Y259680D01*
X626370D01*
X591370Y175680D02*
X667370Y251680D01*
X626370Y259680D02*
X653370Y286680D01*
X606370Y130680D02*
X683370Y207680D01*
X755370Y206680D02*
X755870Y207180D01*
X773870D01*
X774370Y207680D01*
X982370Y25680D02*
X990370Y33680D01*
X882490Y284430D02*
X882615Y284555D01*
X910245D01*
X910370Y284680D01*
X442370Y448680D02*
X531370D01*
X499885Y354165D02*
X525885D01*
X532870Y347180D01*
X531370Y448680D02*
X621370D01*
X532870Y347180D02*
X625370D01*
Y376180D02*
Y406680D01*
X621370Y448680D02*
X653370Y416680D01*
Y286680D02*
Y416680D01*
X667370Y251680D02*
Y435680D01*
X683370Y207680D02*
Y517680D01*
X700370Y339680D02*
Y366680D01*
X736620Y402930D01*
X719870Y445930D02*
Y449680D01*
Y445930D02*
X720120Y445680D01*
Y421680D02*
Y445680D01*
X736620Y402930D02*
Y421680D01*
X738870Y449680D02*
X760370D01*
X461370Y488680D02*
X471370Y478680D01*
X509870Y624180D02*
X511370Y622680D01*
Y538680D02*
X512370Y537680D01*
Y496680D02*
Y537680D01*
X511370Y622680D02*
X578370D01*
X471370Y478680D02*
X624370D01*
X620370Y461680D02*
X621370Y460680D01*
Y448680D02*
Y460680D01*
X578370Y622680D02*
X683370Y517680D01*
X624370Y478680D02*
X667370Y435680D01*
X728370Y532980D02*
Y570680D01*
Y504380D02*
X729370Y503380D01*
Y473680D02*
Y503380D01*
X728370Y570680D02*
X754370D01*
X728370Y504380D02*
X757670D01*
X822870Y345180D02*
X823370Y344680D01*
X882490Y297130D02*
X882680D01*
X882930Y297380D01*
Y372240D01*
X882490Y297130D02*
X905570D01*
X908120Y299680D01*
X909370D01*
Y319680D02*
X909870Y319180D01*
X930870D01*
X931370Y318680D01*
X990370Y33680D02*
Y555680D01*
X757670Y504380D02*
X779370Y482680D01*
Y424680D02*
Y482680D01*
X754370Y570680D02*
X813370Y511680D01*
X779370Y424680D02*
X791670Y412380D01*
X798370Y345680D02*
X798870Y345180D01*
X791670Y412380D02*
X813070D01*
X798870Y345180D02*
X822870D01*
X813370Y451680D02*
Y511680D01*
X813070Y412380D02*
X852370Y451680D01*
X882930Y372240D02*
X883370Y372680D01*
X852370Y451680D02*
X933370D01*
Y573680D02*
X972370D01*
X990370Y555680D01*
D53*
X400120Y130930D02*
X400370Y130680D01*
X398870Y295680D02*
X399870Y294680D01*
Y199680D02*
Y294680D01*
Y199680D02*
X400120Y199430D01*
Y130930D02*
Y199430D01*
X398870Y295680D02*
Y375180D01*
X399370Y375680D01*
D54*
X400370Y130680D02*
D03*
X340370D02*
D03*
X370370D02*
D03*
Y100680D02*
D03*
X340370D02*
D03*
X516370Y130680D02*
D03*
X576370Y100680D02*
D03*
X546370D02*
D03*
X606370Y130680D02*
D03*
X576370D02*
D03*
X546370D02*
D03*
X516370Y100680D02*
D03*
D55*
X400370D02*
D03*
X606370D02*
D03*
D56*
X370370Y57480D02*
D03*
X584770D02*
D03*
X537970D02*
D03*
D57*
X707070Y119380D02*
D03*
X957070D02*
D03*
D58*
X790970Y106680D02*
D03*
X818370D02*
D03*
X845770D02*
D03*
X873170D02*
D03*
X804670Y132080D02*
D03*
X832070D02*
D03*
X859470D02*
D03*
X777270D02*
D03*
D59*
X886870D02*
D03*
D60*
X46370Y33680D02*
D03*
X153370D02*
D03*
X228370Y37680D02*
D03*
X249370Y104680D02*
D03*
X36370Y105680D02*
D03*
X211370Y144680D02*
D03*
X61370Y176680D02*
D03*
X185370Y187680D02*
D03*
X28370Y609680D02*
D03*
X36370Y249680D02*
D03*
X61370Y230680D02*
D03*
X178370Y551680D02*
D03*
X182370Y379680D02*
D03*
X190370Y499680D02*
D03*
X196370Y231680D02*
D03*
X197370Y637680D02*
D03*
X205370Y335680D02*
D03*
X207370Y427680D02*
D03*
X216370Y303680D02*
D03*
X219370Y381680D02*
D03*
X241370Y200680D02*
D03*
X251370Y637680D02*
D03*
X252370Y494680D02*
D03*
X264370Y253680D02*
D03*
X271370Y313680D02*
D03*
X275370Y348680D02*
D03*
X286370Y425680D02*
D03*
X293370Y518680D02*
D03*
X313370Y471680D02*
D03*
X314370Y371680D02*
D03*
X367370Y471680D02*
D03*
X369370Y373680D02*
D03*
X401370Y464680D02*
D03*
X405370Y513680D02*
D03*
X407370Y644680D02*
D03*
X426370Y554680D02*
D03*
X441370Y375680D02*
D03*
Y465680D02*
D03*
X445370Y257680D02*
D03*
X460370Y202680D02*
D03*
Y138680D02*
D03*
X661370Y62680D02*
D03*
X704370Y228680D02*
D03*
X755370Y206680D02*
D03*
X768370Y158680D02*
D03*
X910370Y284680D02*
D03*
X976370Y228680D02*
D03*
Y170680D02*
D03*
X512370Y496680D02*
D03*
X584370Y517680D02*
D03*
X585370Y645680D02*
D03*
X588370Y565680D02*
D03*
X620370Y461680D02*
D03*
X625370Y406680D02*
D03*
X629370Y520680D02*
D03*
X673370Y564680D02*
D03*
X700370Y339680D02*
D03*
X728370Y570680D02*
D03*
X741370Y359680D02*
D03*
X742370Y313680D02*
D03*
X760370Y449680D02*
D03*
X798370Y345680D02*
D03*
X826370Y643680D02*
D03*
X883370Y372680D02*
D03*
X917370Y644680D02*
D03*
X930370Y368680D02*
D03*
X931370Y318680D02*
D03*
X972370Y521680D02*
D03*
X973370Y373680D02*
D03*
X974370Y309680D02*
D03*
X975370Y446680D02*
D03*
X976370Y603680D02*
D03*
M02*
