%TF.GenerationSoftware,Altium Limited,Altium Designer,25.8.1 (18)*%
G04 Layer_Color=0*
%FSLAX45Y45*%
%MOMM*%
%TF.SameCoordinates,0F1D7CA1-D0BB-481A-9C26-AB2C8EFFB1FF*%
%TF.FilePolarity,Positive*%
%TF.FileFunction,Plated,1,2,PTH,Drill*%
%TF.Part,Single*%
G01*
G75*
%TA.AperFunction,OtherDrill,Pad Free-6 (93mm,117.7mm)*%
%ADD64C,3.00000*%
%TA.AperFunction,ComponentDrill*%
%ADD65C,0.90000*%
%ADD66C,1.02000*%
%ADD67C,1.05000*%
%TA.AperFunction,OtherDrill,Pad Free-7 (146.1mm,117.7mm)*%
%ADD68C,3.00000*%
%TA.AperFunction,ComponentDrill*%
%ADD69C,1.30000*%
%ADD70C,3.20000*%
%TA.AperFunction,ViaDrill,NotFilled*%
%ADD71C,0.71120*%
D64*
X9300000Y11770000D02*
D03*
D65*
X14999001Y10414000D02*
D03*
X15821001D02*
D03*
X15547000D02*
D03*
X16095000D02*
D03*
X15273000D02*
D03*
X15958000Y10160000D02*
D03*
X15684000D02*
D03*
X15410001D02*
D03*
X15136000D02*
D03*
D66*
X12390000Y10100000D02*
D03*
X10630000D02*
D03*
X12690000Y10400000D02*
D03*
X12989999D02*
D03*
X13289999D02*
D03*
X12690000Y10100000D02*
D03*
X12989999D02*
D03*
X13289999D02*
D03*
X12390000Y10400000D02*
D03*
X10930000Y10100000D02*
D03*
Y10400000D02*
D03*
X10630000D02*
D03*
X11230000Y10100000D02*
D03*
Y10400000D02*
D03*
D67*
X10475000Y10990000D02*
D03*
X11225000Y11090000D02*
D03*
D68*
X14610001Y11770000D02*
D03*
D69*
X15360001Y13610001D02*
D03*
X16560001Y14830000D02*
D03*
X15360001D02*
D03*
X16560001Y13610001D02*
D03*
X15960001Y13410001D02*
D03*
D70*
X16797000Y10287000D02*
D03*
X14297000D02*
D03*
D71*
X16400000Y15539999D02*
D03*
X16989999Y15130000D02*
D03*
X15489999Y15530000D02*
D03*
X13960001Y14739999D02*
D03*
X16950000Y14310001D02*
D03*
X13520000Y14300000D02*
D03*
X13080000Y15550000D02*
D03*
X13110001Y14750000D02*
D03*
X13070000Y14270000D02*
D03*
X14830000Y13589999D02*
D03*
X16980000Y13560001D02*
D03*
X13480000Y13160001D02*
D03*
X12350000Y14060001D02*
D03*
X11640000Y13750000D02*
D03*
X11490000Y14639999D02*
D03*
X11300000Y15539999D02*
D03*
X11280000Y14230000D02*
D03*
X10360000Y13810001D02*
D03*
X10900000D02*
D03*
X11240000Y13739999D02*
D03*
X16960001Y12830000D02*
D03*
X16530000Y12780000D02*
D03*
X16539999Y12280000D02*
D03*
X15210001Y12550000D02*
D03*
X16970000Y12190000D02*
D03*
X16989999Y11380000D02*
D03*
Y10800000D02*
D03*
X16330000Y11940000D02*
D03*
X14639999Y12690000D02*
D03*
X14650000Y12230000D02*
D03*
X14270000Y11380000D02*
D03*
X11640000Y12850000D02*
D03*
X10370000Y12810001D02*
D03*
X11680000Y11670000D02*
D03*
X10920000Y12830000D02*
D03*
X14780000Y11160000D02*
D03*
X14910001Y10680000D02*
D03*
X13839999Y9720000D02*
D03*
X11830000Y11120000D02*
D03*
Y10480000D02*
D03*
X10160000Y14280000D02*
D03*
X9740000Y15470000D02*
D03*
X9130000Y14089999D02*
D03*
X9750000Y14039999D02*
D03*
X10090000Y13350000D02*
D03*
X9980000Y12580000D02*
D03*
X9420000Y12910001D02*
D03*
X9300000Y13370000D02*
D03*
X9280000Y12450000D02*
D03*
X9200000Y15470000D02*
D03*
X7510000Y15189999D02*
D03*
X9010000Y14610001D02*
D03*
X9050000Y12889999D02*
D03*
X9870000Y11630000D02*
D03*
X9940000Y12230000D02*
D03*
X9390000Y12130000D02*
D03*
X9190000Y11410000D02*
D03*
X9640000Y11100000D02*
D03*
X9340000Y10540000D02*
D03*
X9510000Y9470000D02*
D03*
X9720000Y10140000D02*
D03*
X9080000Y10970000D02*
D03*
X8760000Y9430000D02*
D03*
X7840000Y11400000D02*
D03*
Y10860000D02*
D03*
X7590000Y11590000D02*
D03*
Y10150000D02*
D03*
X7690000Y9430000D02*
D03*
X16060001Y12820000D02*
D03*
X14510001Y14800000D02*
D03*
X13430000Y13710001D02*
D03*
X14230000Y12490000D02*
D03*
%TF.MD5,c518ff116540bbe57c22133282b4b45e*%
M02*
