M48
;Layer_Color=9474304
;FILE_FORMAT=4:4
METRIC,LZ
;TYPE=PLATED
T01F00S00C0.7112
T02F00S00C0.9000
T03F00S00C1.0200
T04F00S00C1.0500
T05F00S00C1.3000
T06F00S00C3.0000
T07F00S00C3.2000
%
T01
X0004637Y0003368
X0003637Y0010568
X0006137Y0017668
Y0023068
X0003637Y0024968
X0019637Y0023168
X0018537Y0018768
X0021137Y0014468
X0024937Y0010468
X0022837Y0003768
X0015337Y0003368
X0024137Y0020068
X0026437Y0025368
X0044537Y0025768
X0046037Y0020268
Y0013868
X0066137Y0006268
X0076837Y0015868
X0075537Y0020668
X0070437Y0022868
X0097637
Y0017068
X0097437Y0030968
X0093137Y0031868
X0093037Y0036868
X0097337Y0037368
X0097537Y0044668
X0097237Y0052168
X0097637Y0060368
X0091737Y0064468
X0088337Y0037268
X0091037Y0028468
X0079837Y0034568
X0074137Y0035968
X0074237Y0031368
X0070037Y0033968
X0062537Y0040668
X0062037Y0046168
X0062937Y0052068
X0058437Y0051768
X0058837Y0056568
X0058537Y0064568
X0067337Y0056468
X0072837Y0057068
X0076037Y0044968
X0082637Y0064368
X0051237Y0049668
X0044137Y0046568
X0040137Y0046468
X0036737Y0047168
X0031337
X0029337Y0051868
X0025237Y0049468
X0019037Y0049968
X0017837Y0055168
X0019737Y0063768
X0025137
X0040737Y0064468
X0042637Y0055468
X0040537Y0051368
X0044137Y0037568
X0036937Y0037368
X0031437Y0037168
X0027537Y0034868
X0027137Y0031368
X0021637Y0030368
X0020537Y0033568
X0021937Y0038168
X0018237Y0037968
X0020737Y0042768
X0028637Y0042568
X0002837Y0060968
T02
X0079097Y0010668
X0081837
X0084577
X0083207Y0013208
X0080467
X0077727
X0085947
X0088687
X0087317Y0010668
T03
X0034037Y0010068
Y0013068
X0037037
X0040037
Y0010068
X0037037
X0051637
Y0013068
X0054637
Y0010068
X0057637
X0060637
Y0013068
X0057637
T04
X0032487Y0018968
X0039987Y0019968
T05
X0087337Y0043168
X0093337Y0045168
Y0057368
X0081337
Y0045168
T06
X0020737Y0026768
X0073837
T07
X0070707Y0011938
X0095707
M30
