G04 EAGLE Gerber RS-274X export*
G75*
%MOMM*%
%FSLAX34Y34*%
%LPD*%
%INBottom Copper*%
%IPPOS*%
%AMOC8*
5,1,8,0,0,1.08239X$1,22.5*%
G01*
%ADD10R,1.500000X1.300000*%
%ADD11C,1.524000*%
%ADD12R,1.270000X0.635000*%
%ADD13R,1.300000X1.500000*%
%ADD14C,0.609600*%
%ADD15C,0.304800*%
%ADD16C,0.152400*%


D10*
X393600Y563400D03*
X393600Y544400D03*
X776400Y353100D03*
X776400Y372100D03*
D11*
X245220Y482600D02*
X229980Y482600D01*
X229980Y508000D02*
X245220Y508000D01*
X245220Y533400D02*
X229980Y533400D01*
X229980Y558800D02*
X245220Y558800D01*
D12*
X567800Y389400D03*
X567800Y379400D03*
X567800Y369400D03*
X567800Y359400D03*
X527800Y359400D03*
X527800Y369400D03*
X527800Y379400D03*
X527800Y389400D03*
X645500Y641500D03*
X645500Y621500D03*
X645500Y601500D03*
X565500Y641500D03*
X565500Y621500D03*
X565500Y601500D03*
D13*
X634500Y260000D03*
X615500Y260000D03*
D10*
X775000Y480500D03*
X775000Y499500D03*
D14*
X242600Y563800D02*
X237600Y558800D01*
X242600Y563800D02*
X393200Y563800D01*
X393600Y563400D01*
X463400Y563400D01*
D15*
X521500Y621500D02*
X565500Y621500D01*
D14*
X521500Y621500D02*
X463400Y563400D01*
D15*
X545000Y389400D02*
X567800Y389400D01*
X545000Y389400D02*
X527800Y389400D01*
X545000Y389400D02*
X545000Y335000D01*
D14*
X520000Y310000D01*
X220000Y310000D01*
X175000Y355000D01*
X175000Y535000D01*
X198800Y558800D02*
X237600Y558800D01*
X198800Y558800D02*
X175000Y535000D01*
D15*
X470600Y369400D02*
X527800Y369400D01*
D14*
X332000Y508000D02*
X237600Y508000D01*
X332000Y508000D02*
X470600Y369400D01*
D15*
X445600Y359400D02*
X527800Y359400D01*
D14*
X445600Y359400D02*
X320000Y485000D01*
X240000Y485000D01*
X237600Y482600D01*
X237600Y533400D02*
X318400Y533400D01*
X330000Y545000D01*
X393000Y545000D01*
X393600Y544400D01*
X500600Y544400D01*
D15*
X621500Y621500D02*
X645500Y621500D01*
D14*
X605000Y570000D02*
X579400Y544400D01*
X393600Y544400D01*
D15*
X605000Y605000D02*
X621500Y621500D01*
X605000Y605000D02*
X605000Y570000D01*
X599400Y379400D02*
X567800Y379400D01*
D14*
X599400Y379400D02*
X605000Y385000D01*
X605000Y518800D01*
X579400Y544400D01*
D15*
X567800Y359400D02*
X642800Y359400D01*
X649100Y353100D01*
X776400Y353100D01*
D14*
X776400Y292082D01*
X744318Y260000D02*
X634500Y260000D01*
X744318Y260000D02*
X776400Y292082D01*
D15*
X645500Y641500D02*
X565500Y641500D01*
X645500Y641500D02*
X728500Y641500D01*
D14*
X775000Y595000D02*
X775000Y499500D01*
X775000Y595000D02*
X728500Y641500D01*
X775000Y480500D02*
X775000Y373500D01*
X776400Y372100D01*
X632100Y372100D01*
X630000Y370000D01*
D15*
X629400Y369400D02*
X567800Y369400D01*
D16*
X629400Y369400D02*
X632100Y372100D01*
D15*
X615500Y260000D02*
X575000Y260000D01*
X565000Y250000D01*
X565000Y220000D01*
X580000Y205000D01*
X805000Y205000D01*
X830000Y230000D01*
X830000Y460000D01*
D16*
X800000Y490000D01*
X740000Y490000D01*
X690000Y540000D01*
X690000Y615000D01*
X675000Y630000D01*
X595000Y630000D01*
X585000Y620000D01*
X585000Y610000D01*
X576500Y601500D01*
X565500Y601500D01*
M02*
