G04 EAGLE Gerber RS-274X export*
G75*
%MOMM*%
%FSLAX34Y34*%
%LPD*%
%INBottom Copper*%
%IPPOS*%
%AMOC8*
5,1,8,0,0,1.08239X$1,22.5*%
G01*
%ADD10R,1.920000X1.940000*%
%ADD11C,0.500000*%
%ADD12P,1.649562X8X202.500000*%
%ADD13C,1.530000*%
%ADD14R,1.530000X1.530000*%
%ADD15R,3.000000X3.000000*%
%ADD16C,0.756400*%
%ADD17C,0.304800*%


D10*
X796453Y575995D03*
X796253Y552995D03*
X796253Y529795D03*
D11*
X787877Y598895D02*
X787880Y599101D01*
X787887Y599306D01*
X787900Y599511D01*
X787917Y599716D01*
X787940Y599920D01*
X787968Y600124D01*
X788000Y600327D01*
X788038Y600529D01*
X788081Y600730D01*
X788128Y600930D01*
X788180Y601129D01*
X788238Y601326D01*
X788300Y601522D01*
X788367Y601717D01*
X788438Y601909D01*
X788515Y602100D01*
X788596Y602289D01*
X788681Y602476D01*
X788771Y602661D01*
X788866Y602843D01*
X788965Y603024D01*
X789069Y603201D01*
X789177Y603376D01*
X789289Y603548D01*
X789405Y603718D01*
X789525Y603885D01*
X789650Y604048D01*
X789778Y604209D01*
X789911Y604366D01*
X790047Y604520D01*
X790187Y604671D01*
X790330Y604818D01*
X790477Y604961D01*
X790628Y605101D01*
X790782Y605237D01*
X790939Y605370D01*
X791100Y605498D01*
X791263Y605623D01*
X791430Y605743D01*
X791600Y605859D01*
X791772Y605971D01*
X791947Y606079D01*
X792124Y606183D01*
X792305Y606282D01*
X792487Y606377D01*
X792672Y606467D01*
X792859Y606552D01*
X793048Y606633D01*
X793239Y606710D01*
X793431Y606781D01*
X793626Y606848D01*
X793822Y606910D01*
X794019Y606968D01*
X794218Y607020D01*
X794418Y607067D01*
X794619Y607110D01*
X794821Y607148D01*
X795024Y607180D01*
X795228Y607208D01*
X795432Y607231D01*
X795637Y607248D01*
X795842Y607261D01*
X796047Y607268D01*
X796253Y607271D01*
X796459Y607268D01*
X796664Y607261D01*
X796869Y607248D01*
X797074Y607231D01*
X797278Y607208D01*
X797482Y607180D01*
X797685Y607148D01*
X797887Y607110D01*
X798088Y607067D01*
X798288Y607020D01*
X798487Y606968D01*
X798684Y606910D01*
X798880Y606848D01*
X799075Y606781D01*
X799267Y606710D01*
X799458Y606633D01*
X799647Y606552D01*
X799834Y606467D01*
X800019Y606377D01*
X800201Y606282D01*
X800382Y606183D01*
X800559Y606079D01*
X800734Y605971D01*
X800906Y605859D01*
X801076Y605743D01*
X801243Y605623D01*
X801406Y605498D01*
X801567Y605370D01*
X801724Y605237D01*
X801878Y605101D01*
X802029Y604961D01*
X802176Y604818D01*
X802319Y604671D01*
X802459Y604520D01*
X802595Y604366D01*
X802728Y604209D01*
X802856Y604048D01*
X802981Y603885D01*
X803101Y603718D01*
X803217Y603548D01*
X803329Y603376D01*
X803437Y603201D01*
X803541Y603024D01*
X803640Y602843D01*
X803735Y602661D01*
X803825Y602476D01*
X803910Y602289D01*
X803991Y602100D01*
X804068Y601909D01*
X804139Y601717D01*
X804206Y601522D01*
X804268Y601326D01*
X804326Y601129D01*
X804378Y600930D01*
X804425Y600730D01*
X804468Y600529D01*
X804506Y600327D01*
X804538Y600124D01*
X804566Y599920D01*
X804589Y599716D01*
X804606Y599511D01*
X804619Y599306D01*
X804626Y599101D01*
X804629Y598895D01*
X804626Y598689D01*
X804619Y598484D01*
X804606Y598279D01*
X804589Y598074D01*
X804566Y597870D01*
X804538Y597666D01*
X804506Y597463D01*
X804468Y597261D01*
X804425Y597060D01*
X804378Y596860D01*
X804326Y596661D01*
X804268Y596464D01*
X804206Y596268D01*
X804139Y596073D01*
X804068Y595881D01*
X803991Y595690D01*
X803910Y595501D01*
X803825Y595314D01*
X803735Y595129D01*
X803640Y594947D01*
X803541Y594766D01*
X803437Y594589D01*
X803329Y594414D01*
X803217Y594242D01*
X803101Y594072D01*
X802981Y593905D01*
X802856Y593742D01*
X802728Y593581D01*
X802595Y593424D01*
X802459Y593270D01*
X802319Y593119D01*
X802176Y592972D01*
X802029Y592829D01*
X801878Y592689D01*
X801724Y592553D01*
X801567Y592420D01*
X801406Y592292D01*
X801243Y592167D01*
X801076Y592047D01*
X800906Y591931D01*
X800734Y591819D01*
X800559Y591711D01*
X800382Y591607D01*
X800201Y591508D01*
X800019Y591413D01*
X799834Y591323D01*
X799647Y591238D01*
X799458Y591157D01*
X799267Y591080D01*
X799075Y591009D01*
X798880Y590942D01*
X798684Y590880D01*
X798487Y590822D01*
X798288Y590770D01*
X798088Y590723D01*
X797887Y590680D01*
X797685Y590642D01*
X797482Y590610D01*
X797278Y590582D01*
X797074Y590559D01*
X796869Y590542D01*
X796664Y590529D01*
X796459Y590522D01*
X796253Y590519D01*
X796047Y590522D01*
X795842Y590529D01*
X795637Y590542D01*
X795432Y590559D01*
X795228Y590582D01*
X795024Y590610D01*
X794821Y590642D01*
X794619Y590680D01*
X794418Y590723D01*
X794218Y590770D01*
X794019Y590822D01*
X793822Y590880D01*
X793626Y590942D01*
X793431Y591009D01*
X793239Y591080D01*
X793048Y591157D01*
X792859Y591238D01*
X792672Y591323D01*
X792487Y591413D01*
X792305Y591508D01*
X792124Y591607D01*
X791947Y591711D01*
X791772Y591819D01*
X791600Y591931D01*
X791430Y592047D01*
X791263Y592167D01*
X791100Y592292D01*
X790939Y592420D01*
X790782Y592553D01*
X790628Y592689D01*
X790477Y592829D01*
X790330Y592972D01*
X790187Y593119D01*
X790047Y593270D01*
X789911Y593424D01*
X789778Y593581D01*
X789650Y593742D01*
X789525Y593905D01*
X789405Y594072D01*
X789289Y594242D01*
X789177Y594414D01*
X789069Y594589D01*
X788965Y594766D01*
X788866Y594947D01*
X788771Y595129D01*
X788681Y595314D01*
X788596Y595501D01*
X788515Y595690D01*
X788438Y595881D01*
X788367Y596073D01*
X788300Y596268D01*
X788238Y596464D01*
X788180Y596661D01*
X788128Y596860D01*
X788081Y597060D01*
X788038Y597261D01*
X788000Y597463D01*
X787968Y597666D01*
X787940Y597870D01*
X787917Y598074D01*
X787900Y598279D01*
X787887Y598484D01*
X787880Y598689D01*
X787877Y598895D01*
X792695Y599095D02*
X792697Y599217D01*
X792703Y599340D01*
X792713Y599461D01*
X792727Y599583D01*
X792745Y599704D01*
X792766Y599824D01*
X792792Y599944D01*
X792822Y600063D01*
X792855Y600180D01*
X792892Y600297D01*
X792933Y600412D01*
X792978Y600526D01*
X793027Y600638D01*
X793079Y600749D01*
X793134Y600858D01*
X793193Y600965D01*
X793256Y601070D01*
X793322Y601173D01*
X793391Y601274D01*
X793464Y601373D01*
X793540Y601469D01*
X793618Y601562D01*
X793700Y601653D01*
X793785Y601741D01*
X793872Y601827D01*
X793963Y601909D01*
X794056Y601989D01*
X794151Y602066D01*
X794249Y602139D01*
X794349Y602209D01*
X794452Y602276D01*
X794556Y602339D01*
X794663Y602399D01*
X794771Y602456D01*
X794882Y602509D01*
X794994Y602558D01*
X795107Y602604D01*
X795222Y602646D01*
X795338Y602684D01*
X795456Y602718D01*
X795574Y602749D01*
X795694Y602775D01*
X795814Y602798D01*
X795935Y602817D01*
X796056Y602832D01*
X796178Y602843D01*
X796300Y602850D01*
X796422Y602853D01*
X796545Y602852D01*
X796667Y602847D01*
X796789Y602838D01*
X796911Y602825D01*
X797032Y602808D01*
X797152Y602787D01*
X797272Y602763D01*
X797391Y602734D01*
X797509Y602702D01*
X797626Y602665D01*
X797742Y602625D01*
X797856Y602581D01*
X797968Y602534D01*
X798080Y602483D01*
X798189Y602428D01*
X798297Y602370D01*
X798402Y602308D01*
X798506Y602243D01*
X798607Y602174D01*
X798706Y602103D01*
X798803Y602028D01*
X798897Y601950D01*
X798989Y601869D01*
X799078Y601785D01*
X799164Y601698D01*
X799247Y601608D01*
X799327Y601516D01*
X799405Y601421D01*
X799479Y601324D01*
X799550Y601224D01*
X799617Y601122D01*
X799682Y601018D01*
X799743Y600912D01*
X799800Y600804D01*
X799854Y600694D01*
X799904Y600582D01*
X799951Y600469D01*
X799994Y600355D01*
X800033Y600239D01*
X800068Y600122D01*
X800100Y600003D01*
X800127Y599884D01*
X800151Y599764D01*
X800171Y599644D01*
X800187Y599522D01*
X800199Y599401D01*
X800207Y599278D01*
X800211Y599156D01*
X800211Y599034D01*
X800207Y598912D01*
X800199Y598789D01*
X800187Y598668D01*
X800171Y598546D01*
X800151Y598426D01*
X800127Y598306D01*
X800100Y598187D01*
X800068Y598068D01*
X800033Y597951D01*
X799994Y597835D01*
X799951Y597721D01*
X799904Y597608D01*
X799854Y597496D01*
X799800Y597386D01*
X799743Y597278D01*
X799682Y597172D01*
X799617Y597068D01*
X799550Y596966D01*
X799479Y596866D01*
X799405Y596769D01*
X799327Y596674D01*
X799247Y596582D01*
X799164Y596492D01*
X799078Y596405D01*
X798989Y596321D01*
X798897Y596240D01*
X798803Y596162D01*
X798706Y596087D01*
X798607Y596016D01*
X798506Y595947D01*
X798402Y595882D01*
X798297Y595820D01*
X798189Y595762D01*
X798080Y595707D01*
X797968Y595656D01*
X797856Y595609D01*
X797742Y595565D01*
X797626Y595525D01*
X797509Y595488D01*
X797391Y595456D01*
X797272Y595427D01*
X797152Y595403D01*
X797032Y595382D01*
X796911Y595365D01*
X796789Y595352D01*
X796667Y595343D01*
X796545Y595338D01*
X796422Y595337D01*
X796300Y595340D01*
X796178Y595347D01*
X796056Y595358D01*
X795935Y595373D01*
X795814Y595392D01*
X795694Y595415D01*
X795574Y595441D01*
X795456Y595472D01*
X795338Y595506D01*
X795222Y595544D01*
X795107Y595586D01*
X794994Y595632D01*
X794882Y595681D01*
X794771Y595734D01*
X794663Y595791D01*
X794556Y595851D01*
X794452Y595914D01*
X794349Y595981D01*
X794249Y596051D01*
X794151Y596124D01*
X794056Y596201D01*
X793963Y596281D01*
X793872Y596363D01*
X793785Y596449D01*
X793700Y596537D01*
X793618Y596628D01*
X793540Y596721D01*
X793464Y596817D01*
X793391Y596916D01*
X793322Y597017D01*
X793256Y597120D01*
X793193Y597225D01*
X793134Y597332D01*
X793079Y597441D01*
X793027Y597552D01*
X792978Y597664D01*
X792933Y597778D01*
X792892Y597893D01*
X792855Y598010D01*
X792822Y598127D01*
X792792Y598246D01*
X792766Y598366D01*
X792745Y598486D01*
X792727Y598607D01*
X792713Y598729D01*
X792703Y598850D01*
X792697Y598973D01*
X792695Y599095D01*
X795821Y599295D02*
X795823Y599345D01*
X795829Y599394D01*
X795838Y599443D01*
X795852Y599490D01*
X795869Y599537D01*
X795890Y599582D01*
X795914Y599625D01*
X795942Y599666D01*
X795972Y599705D01*
X796006Y599742D01*
X796043Y599776D01*
X796082Y599806D01*
X796123Y599834D01*
X796166Y599858D01*
X796211Y599879D01*
X796258Y599896D01*
X796305Y599910D01*
X796354Y599919D01*
X796403Y599925D01*
X796453Y599927D01*
X796503Y599925D01*
X796552Y599919D01*
X796601Y599910D01*
X796648Y599896D01*
X796695Y599879D01*
X796740Y599858D01*
X796783Y599834D01*
X796824Y599806D01*
X796863Y599776D01*
X796900Y599742D01*
X796934Y599705D01*
X796964Y599666D01*
X796992Y599625D01*
X797016Y599582D01*
X797037Y599537D01*
X797054Y599490D01*
X797068Y599443D01*
X797077Y599394D01*
X797083Y599345D01*
X797085Y599295D01*
X797083Y599245D01*
X797077Y599196D01*
X797068Y599147D01*
X797054Y599100D01*
X797037Y599053D01*
X797016Y599008D01*
X796992Y598965D01*
X796964Y598924D01*
X796934Y598885D01*
X796900Y598848D01*
X796863Y598814D01*
X796824Y598784D01*
X796783Y598756D01*
X796740Y598732D01*
X796695Y598711D01*
X796648Y598694D01*
X796601Y598680D01*
X796552Y598671D01*
X796503Y598665D01*
X796453Y598663D01*
X796403Y598665D01*
X796354Y598671D01*
X796305Y598680D01*
X796258Y598694D01*
X796211Y598711D01*
X796166Y598732D01*
X796123Y598756D01*
X796082Y598784D01*
X796043Y598814D01*
X796006Y598848D01*
X795972Y598885D01*
X795942Y598924D01*
X795914Y598965D01*
X795890Y599008D01*
X795869Y599053D01*
X795852Y599100D01*
X795838Y599147D01*
X795829Y599196D01*
X795823Y599245D01*
X795821Y599295D01*
D10*
X773453Y575995D03*
X773253Y598995D03*
X773253Y552995D03*
X773253Y529795D03*
X750453Y598795D03*
X750453Y552795D03*
D12*
X884864Y122700D03*
X857432Y122700D03*
X830000Y122700D03*
X802568Y122700D03*
X775136Y122700D03*
X871148Y97300D03*
X843716Y97300D03*
X816284Y97300D03*
X788852Y97300D03*
D13*
X575622Y99652D03*
X575622Y129652D03*
X545622Y99652D03*
X545622Y129652D03*
D14*
X605622Y99652D03*
D13*
X515622Y99652D03*
X605622Y129652D03*
X515622Y129652D03*
D14*
X400000Y99420D03*
D13*
X400000Y129420D03*
X370000Y99420D03*
X340000Y99420D03*
X370000Y129420D03*
X340000Y129420D03*
D15*
X512000Y351000D03*
X642000Y351000D03*
X642000Y631000D03*
X512000Y631000D03*
D16*
X272000Y266000D03*
D17*
X729000Y266000D01*
X752000Y243000D02*
X752000Y91000D01*
X720000Y59000D01*
X575622Y70378D02*
X575622Y99652D01*
X729000Y266000D02*
X752000Y243000D01*
X720000Y59000D02*
X587000Y59000D01*
X575622Y70378D01*
X515622Y129652D02*
X515622Y165622D01*
X600000Y250000D01*
X700000Y250000D01*
D16*
X700000Y250000D03*
D17*
X515622Y99652D02*
X515622Y55378D01*
X536000Y35000D01*
X765000Y35000D01*
X775000Y45000D01*
X775000Y122564D02*
X775136Y122700D01*
X775000Y122564D02*
X775000Y45000D01*
X400000Y160000D02*
X380000Y180000D01*
X400000Y160000D02*
X400000Y129420D01*
X380000Y180000D02*
X272000Y180000D01*
D16*
X120000Y491000D03*
D17*
X269000Y180000D02*
X272000Y180000D01*
X121000Y490000D02*
X120000Y491000D01*
X121000Y490000D02*
X121000Y330000D01*
X121000Y328000D01*
X121000Y324000D01*
X168000Y277000D02*
X168000Y206000D01*
X194000Y180000D01*
X269000Y180000D01*
X168000Y277000D02*
X121000Y324000D01*
X340000Y99420D02*
X340000Y30000D01*
X330000Y20000D01*
X40000Y20000D01*
D16*
X40000Y20000D03*
D17*
X319420Y129420D02*
X340000Y129420D01*
X319420Y129420D02*
X310000Y120000D01*
X310000Y50000D01*
X300000Y40000D01*
X90000Y40000D01*
X79000Y51000D01*
D16*
X79000Y51000D03*
D17*
X400000Y37000D02*
X400000Y99420D01*
X400000Y37000D02*
X422000Y15000D01*
X879000Y15000D02*
X910000Y46000D01*
X910000Y610000D01*
X879000Y15000D02*
X422000Y15000D01*
X910000Y610000D02*
X889000Y631000D01*
X642000Y631000D01*
X370000Y144000D02*
X370000Y129420D01*
X291000Y139000D02*
X291000Y73000D01*
X290000Y72000D01*
X290000Y70000D01*
X280000Y60000D01*
X136000Y60000D01*
X119000Y77000D01*
D16*
X119000Y294000D03*
D17*
X119000Y77000D01*
X291000Y139000D02*
X308000Y156000D01*
X358000Y156000D02*
X370000Y144000D01*
X358000Y156000D02*
X308000Y156000D01*
M02*
