G04 EAGLE Gerber RS-274X export*
G75*
%MOMM*%
%FSLAX34Y34*%
%LPD*%
%INSilkscreen Top*%
%IPPOS*%
%AMOC8*
5,1,8,0,0,1.08239X$1,22.5*%
G01*
%ADD10C,0.228600*%
%ADD11R,1.600000X0.020000*%
%ADD12R,1.720000X0.020000*%
%ADD13R,1.780000X0.020000*%
%ADD14R,1.820000X0.020000*%
%ADD15R,1.840000X0.020000*%
%ADD16R,1.860000X0.020000*%
%ADD17R,1.880000X0.020000*%
%ADD18R,1.900000X0.020000*%
%ADD19R,1.920000X0.020000*%
%ADD20R,1.800000X0.020000*%
%ADD21R,1.760000X0.020000*%
%ADD22R,1.680000X0.020000*%
%ADD23R,1.660000X0.020000*%
%ADD24R,1.740000X0.020000*%
%ADD25R,1.620000X0.020000*%
%ADD26R,1.560000X0.020000*%
%ADD27R,1.700000X0.020000*%
%ADD28R,0.260000X0.020000*%
%ADD29R,0.480000X0.020000*%
%ADD30R,0.620000X0.020000*%
%ADD31R,0.740000X0.020000*%
%ADD32R,0.840000X0.020000*%
%ADD33R,0.920000X0.020000*%
%ADD34R,1.000000X0.020000*%
%ADD35R,1.080000X0.020000*%
%ADD36R,1.140000X0.020000*%
%ADD37R,1.200000X0.020000*%
%ADD38R,1.260000X0.020000*%
%ADD39R,1.320000X0.020000*%
%ADD40R,1.360000X0.020000*%
%ADD41R,1.400000X0.020000*%
%ADD42R,1.440000X0.020000*%
%ADD43R,1.480000X0.020000*%
%ADD44R,1.520000X0.020000*%
%ADD45R,1.640000X0.020000*%
%ADD46R,1.960000X0.020000*%
%ADD47R,2.000000X0.020000*%
%ADD48R,2.040000X0.020000*%
%ADD49R,2.060000X0.020000*%
%ADD50R,2.080000X0.020000*%
%ADD51R,2.100000X0.020000*%
%ADD52R,2.120000X0.020000*%
%ADD53R,1.940000X0.020000*%
%ADD54R,1.580000X0.020000*%
%ADD55R,1.540000X0.020000*%
%ADD56R,1.500000X0.020000*%
%ADD57R,1.460000X0.020000*%
%ADD58R,1.420000X0.020000*%
%ADD59R,1.280000X0.020000*%
%ADD60R,1.220000X0.020000*%
%ADD61R,1.160000X0.020000*%
%ADD62R,1.040000X0.020000*%
%ADD63R,0.960000X0.020000*%
%ADD64R,0.880000X0.020000*%
%ADD65R,0.760000X0.020000*%
%ADD66R,0.660000X0.020000*%
%ADD67R,0.520000X0.020000*%
%ADD68R,0.320000X0.020000*%
%ADD69C,0.152400*%
%ADD70C,0.050800*%
%ADD71C,0.025400*%
%ADD72C,0.127000*%
%ADD73R,18.542000X0.762000*%
%ADD74R,30.988000X0.508000*%
%ADD75R,0.812800X7.239000*%
%ADD76R,0.812800X4.699000*%
%ADD77C,0.254000*%
%ADD78C,0.101600*%
%ADD79C,0.200000*%
%ADD80C,0.076200*%


D10*
X694635Y499170D02*
X694635Y490687D01*
X698876Y486445D01*
X703118Y490687D01*
X703118Y499170D01*
X710567Y486445D02*
X714809Y486445D01*
X710567Y486445D02*
X708447Y488566D01*
X708447Y492808D01*
X710567Y494928D01*
X714809Y494928D01*
X716930Y492808D01*
X716930Y490687D01*
X708447Y490687D01*
X722258Y486445D02*
X722258Y494928D01*
X722258Y490687D02*
X726500Y494928D01*
X728621Y494928D01*
X733768Y486445D02*
X740131Y486445D01*
X742251Y488566D01*
X740131Y490687D01*
X735889Y490687D01*
X733768Y492808D01*
X735889Y494928D01*
X742251Y494928D01*
X747580Y494928D02*
X749701Y494928D01*
X749701Y486445D01*
X747580Y486445D02*
X751822Y486445D01*
X749701Y499170D02*
X749701Y501291D01*
X758909Y486445D02*
X763150Y486445D01*
X765271Y488566D01*
X765271Y492808D01*
X763150Y494928D01*
X758909Y494928D01*
X756788Y492808D01*
X756788Y488566D01*
X758909Y486445D01*
X770600Y486445D02*
X770600Y494928D01*
X776962Y494928D01*
X779083Y492808D01*
X779083Y486445D01*
X804586Y486445D02*
X804586Y499170D01*
X798223Y492808D01*
X806706Y492808D01*
X812035Y488566D02*
X812035Y486445D01*
X812035Y488566D02*
X814156Y488566D01*
X814156Y486445D01*
X812035Y486445D01*
X818941Y488566D02*
X818941Y497049D01*
X821062Y499170D01*
X825303Y499170D01*
X827424Y497049D01*
X827424Y488566D01*
X825303Y486445D01*
X821062Y486445D01*
X818941Y488566D01*
X827424Y497049D01*
X832753Y488566D02*
X832753Y486445D01*
X832753Y488566D02*
X834873Y488566D01*
X834873Y486445D01*
X832753Y486445D01*
X839658Y494928D02*
X843900Y499170D01*
X843900Y486445D01*
X839658Y486445D02*
X848142Y486445D01*
X713477Y463945D02*
X704994Y463945D01*
X713477Y472428D01*
X713477Y474549D01*
X711356Y476670D01*
X707114Y476670D01*
X704994Y474549D01*
X718805Y466066D02*
X720926Y463945D01*
X725168Y463945D01*
X727289Y466066D01*
X727289Y474549D01*
X725168Y476670D01*
X720926Y476670D01*
X718805Y474549D01*
X718805Y472428D01*
X720926Y470308D01*
X727289Y470308D01*
X732617Y463945D02*
X741100Y476670D01*
X746429Y472428D02*
X750671Y476670D01*
X750671Y463945D01*
X754912Y463945D02*
X746429Y463945D01*
X760241Y472428D02*
X764482Y476670D01*
X764482Y463945D01*
X760241Y463945D02*
X768724Y463945D01*
X774052Y463945D02*
X782536Y476670D01*
X787864Y463945D02*
X796348Y463945D01*
X796348Y472428D02*
X787864Y463945D01*
X796348Y472428D02*
X796348Y474549D01*
X794227Y476670D01*
X789985Y476670D01*
X787864Y474549D01*
X801676Y474549D02*
X801676Y466066D01*
X801676Y474549D02*
X803797Y476670D01*
X808038Y476670D01*
X810159Y474549D01*
X810159Y466066D01*
X808038Y463945D01*
X803797Y463945D01*
X801676Y466066D01*
X810159Y474549D01*
X815488Y463945D02*
X823971Y463945D01*
X815488Y463945D02*
X823971Y472428D01*
X823971Y474549D01*
X821850Y476670D01*
X817609Y476670D01*
X815488Y474549D01*
X829300Y474549D02*
X831420Y476670D01*
X835662Y476670D01*
X837783Y474549D01*
X837783Y472428D01*
X835662Y470308D01*
X833541Y470308D01*
X835662Y470308D02*
X837783Y468187D01*
X837783Y466066D01*
X835662Y463945D01*
X831420Y463945D01*
X829300Y466066D01*
D11*
X755387Y520700D03*
X778587Y520700D03*
D12*
X755387Y520900D03*
X778587Y520900D03*
D13*
X755487Y521100D03*
X778487Y521100D03*
D14*
X755487Y521300D03*
X778487Y521300D03*
D15*
X755387Y521500D03*
D16*
X778487Y521500D03*
D17*
X755387Y521700D03*
X778587Y521700D03*
X755387Y521900D03*
D18*
X778487Y521900D03*
D19*
X755387Y522100D03*
D18*
X778487Y522100D03*
D19*
X755387Y522300D03*
D18*
X778487Y522300D03*
D19*
X755387Y522500D03*
X778587Y522500D03*
X755387Y522700D03*
X778587Y522700D03*
X755387Y522900D03*
X778587Y522900D03*
X755387Y523100D03*
X778587Y523100D03*
X755387Y523300D03*
X778587Y523300D03*
X755387Y523500D03*
X778587Y523500D03*
X755387Y523700D03*
X778587Y523700D03*
X755387Y523900D03*
X778587Y523900D03*
X755387Y524100D03*
X778587Y524100D03*
X755387Y524300D03*
X778587Y524300D03*
X755387Y524500D03*
X778587Y524500D03*
X755387Y524700D03*
X778587Y524700D03*
X755387Y524900D03*
X778587Y524900D03*
X755387Y525100D03*
X778587Y525100D03*
X755387Y525300D03*
X778587Y525300D03*
X755387Y525500D03*
X778587Y525500D03*
X755387Y525700D03*
X778587Y525700D03*
X755387Y525900D03*
X778587Y525900D03*
X755387Y526100D03*
X778587Y526100D03*
X755387Y526300D03*
X778587Y526300D03*
X755387Y526500D03*
X778587Y526500D03*
X755387Y526700D03*
X778587Y526700D03*
X755387Y526900D03*
X778587Y526900D03*
X755387Y527100D03*
X778587Y527100D03*
X755387Y527300D03*
X778587Y527300D03*
X755387Y527500D03*
X778587Y527500D03*
X755387Y527700D03*
X778587Y527700D03*
X755387Y527900D03*
X778587Y527900D03*
X755387Y528100D03*
X778587Y528100D03*
X755387Y528300D03*
X778587Y528300D03*
X755387Y528500D03*
X778587Y528500D03*
X755387Y528700D03*
X778587Y528700D03*
X755387Y528900D03*
X778587Y528900D03*
X755387Y529100D03*
X778587Y529100D03*
X755387Y529300D03*
X778587Y529300D03*
X755387Y529500D03*
X778587Y529500D03*
X755387Y529700D03*
X778587Y529700D03*
X755387Y529900D03*
X778587Y529900D03*
X755387Y530100D03*
X778587Y530100D03*
X755387Y530300D03*
X778587Y530300D03*
X755387Y530500D03*
X778587Y530500D03*
X755387Y530700D03*
X778587Y530700D03*
X755387Y530900D03*
X778587Y530900D03*
X755387Y531100D03*
X778587Y531100D03*
X755387Y531300D03*
X778587Y531300D03*
X755387Y531500D03*
X778587Y531500D03*
X755387Y531700D03*
X778587Y531700D03*
X755387Y531900D03*
X778587Y531900D03*
X755387Y532100D03*
X778587Y532100D03*
X755387Y532300D03*
X778587Y532300D03*
X755387Y532500D03*
X778587Y532500D03*
X755387Y532700D03*
X778587Y532700D03*
X755387Y532900D03*
X778587Y532900D03*
X755387Y533100D03*
X778587Y533100D03*
X755387Y533300D03*
X778587Y533300D03*
X755387Y533500D03*
X778587Y533500D03*
X755387Y533700D03*
X778587Y533700D03*
X755387Y533900D03*
X778587Y533900D03*
X755387Y534100D03*
X778587Y534100D03*
X755387Y534300D03*
X778587Y534300D03*
X755387Y534500D03*
X778587Y534500D03*
X755387Y534700D03*
X778587Y534700D03*
X755387Y534900D03*
X778587Y534900D03*
X755387Y535100D03*
X778587Y535100D03*
X755387Y535300D03*
X778587Y535300D03*
X755387Y535500D03*
X778587Y535500D03*
X755387Y535700D03*
X778587Y535700D03*
X755387Y535900D03*
X778587Y535900D03*
X755387Y536100D03*
X778587Y536100D03*
X755387Y536300D03*
X778587Y536300D03*
X755387Y536500D03*
X778587Y536500D03*
X755387Y536700D03*
X778587Y536700D03*
X755387Y536900D03*
X778587Y536900D03*
X755387Y537100D03*
X778587Y537100D03*
X755387Y537300D03*
X778587Y537300D03*
X755387Y537500D03*
X778587Y537500D03*
X755387Y537700D03*
X778587Y537700D03*
X755387Y537900D03*
X778587Y537900D03*
X755387Y538100D03*
X778587Y538100D03*
X755387Y538300D03*
D18*
X778487Y538300D03*
X755487Y538500D03*
X778487Y538500D03*
D17*
X755387Y538700D03*
X778587Y538700D03*
X755387Y538900D03*
D16*
X778487Y538900D03*
D15*
X755387Y539100D03*
X778587Y539100D03*
D20*
X755387Y539300D03*
X778587Y539300D03*
D21*
X755387Y539500D03*
X778587Y539500D03*
D22*
X755387Y539700D03*
X778587Y539700D03*
D23*
X755487Y543900D03*
X778487Y543900D03*
X801487Y543900D03*
D21*
X755387Y544100D03*
D24*
X778487Y544100D03*
X801487Y544100D03*
D20*
X755387Y544300D03*
X778587Y544300D03*
X801387Y544300D03*
D15*
X755387Y544500D03*
X778587Y544500D03*
X801387Y544500D03*
D16*
X755487Y544700D03*
X778487Y544700D03*
X801487Y544700D03*
D17*
X755387Y544900D03*
X778587Y544900D03*
X801387Y544900D03*
D18*
X755487Y545100D03*
X778487Y545100D03*
X801487Y545100D03*
D19*
X755387Y545300D03*
D18*
X778487Y545300D03*
X801487Y545300D03*
D19*
X755387Y545500D03*
X778587Y545500D03*
X801387Y545500D03*
X755387Y545700D03*
X778587Y545700D03*
X801387Y545700D03*
X755387Y545900D03*
X778587Y545900D03*
X801387Y545900D03*
X755387Y546100D03*
X778587Y546100D03*
X801387Y546100D03*
X755387Y546300D03*
X778587Y546300D03*
X801387Y546300D03*
X755387Y546500D03*
X778587Y546500D03*
X801387Y546500D03*
X755387Y546700D03*
X778587Y546700D03*
X801387Y546700D03*
X755387Y546900D03*
X778587Y546900D03*
X801387Y546900D03*
X755387Y547100D03*
X778587Y547100D03*
X801387Y547100D03*
X755387Y547300D03*
X778587Y547300D03*
X801387Y547300D03*
X755387Y547500D03*
X778587Y547500D03*
X801387Y547500D03*
X755387Y547700D03*
X778587Y547700D03*
X801387Y547700D03*
X755387Y547900D03*
X778587Y547900D03*
X801387Y547900D03*
X755387Y548100D03*
X778587Y548100D03*
X801387Y548100D03*
X755387Y548300D03*
X778587Y548300D03*
X801387Y548300D03*
X755387Y548500D03*
X778587Y548500D03*
X801387Y548500D03*
X755387Y548700D03*
X778587Y548700D03*
X801387Y548700D03*
X755387Y548900D03*
X778587Y548900D03*
X801387Y548900D03*
X755387Y549100D03*
X778587Y549100D03*
X801387Y549100D03*
X755387Y549300D03*
X778587Y549300D03*
X801387Y549300D03*
X755387Y549500D03*
X778587Y549500D03*
X801387Y549500D03*
X755387Y549700D03*
X778587Y549700D03*
X801387Y549700D03*
X755387Y549900D03*
X778587Y549900D03*
X755387Y550100D03*
X778587Y550100D03*
X801387Y550100D03*
X755387Y550300D03*
X778587Y550300D03*
X801387Y550300D03*
X755387Y550500D03*
X778587Y550500D03*
X801387Y550500D03*
X755387Y550700D03*
X778587Y550700D03*
X801387Y550700D03*
X755387Y550900D03*
X778587Y550900D03*
X801387Y550900D03*
X755387Y551100D03*
X778587Y551100D03*
X801387Y551100D03*
X755387Y551300D03*
X778587Y551300D03*
X801387Y551300D03*
X755387Y551500D03*
X778587Y551500D03*
X801387Y551500D03*
X755387Y551700D03*
X778587Y551700D03*
X801387Y551700D03*
X755387Y551900D03*
X778587Y551900D03*
X801387Y551900D03*
X755387Y552100D03*
X778587Y552100D03*
X801387Y552100D03*
X755387Y552300D03*
X778587Y552300D03*
X801387Y552300D03*
X755387Y552500D03*
X778587Y552500D03*
X801387Y552500D03*
X755387Y552700D03*
X778587Y552700D03*
X801387Y552700D03*
X755387Y552900D03*
X778587Y552900D03*
X801387Y552900D03*
X755387Y553100D03*
X778587Y553100D03*
X801387Y553100D03*
X755387Y553300D03*
X778587Y553300D03*
X801387Y553300D03*
X755387Y553500D03*
X778587Y553500D03*
X801387Y553500D03*
X755387Y553700D03*
X778587Y553700D03*
X801387Y553700D03*
X755387Y553900D03*
X778587Y553900D03*
X801387Y553900D03*
X755387Y554100D03*
X778587Y554100D03*
X801387Y554100D03*
X755387Y554300D03*
X778587Y554300D03*
X801387Y554300D03*
X755387Y554500D03*
X778587Y554500D03*
X801387Y554500D03*
X755387Y554700D03*
X778587Y554700D03*
X801387Y554700D03*
X755387Y554900D03*
X778587Y554900D03*
X801387Y554900D03*
X755387Y555100D03*
X801387Y555100D03*
X755387Y555300D03*
X778587Y555300D03*
X801387Y555300D03*
X755387Y555500D03*
X778587Y555500D03*
X801387Y555500D03*
X755387Y555700D03*
X778587Y555700D03*
X801387Y555700D03*
X755387Y555900D03*
X778587Y555900D03*
X801387Y555900D03*
X755387Y556100D03*
X778587Y556100D03*
X801387Y556100D03*
X755387Y556300D03*
X778587Y556300D03*
X801387Y556300D03*
X755387Y556500D03*
X778587Y556500D03*
X801387Y556500D03*
X755387Y556700D03*
X778587Y556700D03*
X801387Y556700D03*
X755387Y556900D03*
X778587Y556900D03*
X801387Y556900D03*
X755387Y557100D03*
X778587Y557100D03*
X801387Y557100D03*
X755387Y557300D03*
X778587Y557300D03*
X801387Y557300D03*
X755387Y557500D03*
X778587Y557500D03*
X801387Y557500D03*
X755387Y557700D03*
X778587Y557700D03*
X801387Y557700D03*
X755387Y557900D03*
X778587Y557900D03*
X801387Y557900D03*
X755387Y558100D03*
X778587Y558100D03*
X801387Y558100D03*
X755387Y558300D03*
X778587Y558300D03*
X801387Y558300D03*
X755387Y558500D03*
X778587Y558500D03*
X801387Y558500D03*
X755387Y558700D03*
X778587Y558700D03*
X801387Y558700D03*
X755387Y558900D03*
X778587Y558900D03*
X801387Y558900D03*
X755387Y559100D03*
X778587Y559100D03*
X801387Y559100D03*
X755387Y559300D03*
X778587Y559300D03*
X801387Y559300D03*
X755387Y559500D03*
X778587Y559500D03*
X801387Y559500D03*
X755387Y559700D03*
X778587Y559700D03*
X801387Y559700D03*
X755387Y559900D03*
X778587Y559900D03*
X801387Y559900D03*
X755387Y560100D03*
X778587Y560100D03*
X801387Y560100D03*
X755387Y560300D03*
X778587Y560300D03*
X801387Y560300D03*
X755387Y560500D03*
X778587Y560500D03*
X801387Y560500D03*
X755387Y560700D03*
X778587Y560700D03*
X801387Y560700D03*
X755387Y560900D03*
X778587Y560900D03*
X801387Y560900D03*
X755387Y561100D03*
X778587Y561100D03*
X801387Y561100D03*
X755387Y561300D03*
D18*
X801487Y561300D03*
D19*
X755387Y561500D03*
D18*
X778487Y561500D03*
X801487Y561500D03*
D17*
X755387Y561700D03*
D18*
X778487Y561700D03*
X801487Y561700D03*
D17*
X755387Y561900D03*
X778587Y561900D03*
X801387Y561900D03*
D15*
X755387Y562100D03*
D16*
X778487Y562100D03*
X801487Y562100D03*
D15*
X755387Y562300D03*
D14*
X778487Y562300D03*
X801487Y562300D03*
D20*
X755387Y562500D03*
D13*
X778487Y562500D03*
X801487Y562500D03*
D12*
X755387Y562700D03*
D24*
X778487Y562700D03*
X801487Y562700D03*
D25*
X755487Y562900D03*
X778487Y562900D03*
X801487Y562900D03*
D26*
X778587Y566900D03*
D12*
X755387Y567100D03*
D27*
X778487Y567100D03*
D21*
X755387Y567300D03*
D13*
X778487Y567300D03*
D20*
X755387Y567500D03*
D14*
X778487Y567500D03*
D15*
X755387Y567700D03*
D16*
X778487Y567700D03*
D17*
X755387Y567900D03*
D16*
X778487Y567900D03*
D17*
X755387Y568100D03*
D18*
X778487Y568100D03*
X755487Y568300D03*
X778487Y568300D03*
D19*
X755387Y568500D03*
D18*
X778487Y568500D03*
D19*
X755387Y568700D03*
X778587Y568700D03*
X755387Y568900D03*
X778587Y568900D03*
X755387Y569100D03*
X778587Y569100D03*
X755387Y569300D03*
X778587Y569300D03*
X755387Y569500D03*
X778587Y569500D03*
X755387Y569700D03*
X778587Y569700D03*
X755387Y569900D03*
X778587Y569900D03*
X755387Y570100D03*
X778587Y570100D03*
X755387Y570300D03*
X778587Y570300D03*
X755387Y570500D03*
X778587Y570500D03*
X755387Y570700D03*
X778587Y570700D03*
X755387Y570900D03*
X778587Y570900D03*
X755387Y571100D03*
X778587Y571100D03*
X755387Y571300D03*
X780873Y543868D03*
X755387Y571500D03*
X778587Y571500D03*
X755387Y571700D03*
X778587Y571700D03*
X755387Y571900D03*
X778587Y571900D03*
X755387Y572100D03*
X778587Y572100D03*
X755387Y572300D03*
X778587Y572300D03*
X755387Y572500D03*
X778587Y572500D03*
X755387Y572700D03*
X778587Y572700D03*
X755387Y572900D03*
X778587Y572900D03*
X755387Y573100D03*
X778587Y573100D03*
X755387Y573300D03*
X778587Y573300D03*
X755387Y573500D03*
X778587Y573500D03*
X755387Y573700D03*
X778587Y573700D03*
X755387Y573900D03*
X778587Y573900D03*
X755387Y574100D03*
X778587Y574100D03*
X755387Y574300D03*
X778587Y574300D03*
X755387Y574500D03*
X778587Y574500D03*
X755387Y574700D03*
X778587Y574700D03*
X755387Y574900D03*
X778587Y574900D03*
X755387Y575100D03*
X778587Y575100D03*
X755387Y575300D03*
X778587Y575300D03*
X755387Y575500D03*
X778587Y575500D03*
X755387Y575700D03*
X778587Y575700D03*
X755387Y575900D03*
X778587Y575900D03*
X755387Y576100D03*
X778587Y576100D03*
X755387Y576300D03*
X778587Y576300D03*
X755387Y576500D03*
X778587Y576500D03*
X755387Y576700D03*
X778587Y576700D03*
X755387Y576900D03*
X778587Y576900D03*
X755387Y577100D03*
X778587Y577100D03*
X755387Y577300D03*
X778587Y577300D03*
X755387Y577500D03*
X778587Y577500D03*
X755387Y577700D03*
X778587Y577700D03*
X755387Y577900D03*
X778587Y577900D03*
X755387Y578100D03*
X778587Y578100D03*
X755387Y578300D03*
X778587Y578300D03*
X755387Y578500D03*
X778587Y578500D03*
X755387Y578700D03*
X778587Y578700D03*
X755387Y578900D03*
X778587Y578900D03*
X755387Y579100D03*
X778587Y579100D03*
X755387Y579300D03*
X778587Y579300D03*
X755387Y579500D03*
X778587Y579500D03*
X755387Y579700D03*
X778587Y579700D03*
X755387Y579900D03*
X778587Y579900D03*
X755387Y580100D03*
X778587Y580100D03*
X755387Y580300D03*
X778587Y580300D03*
X755387Y580500D03*
X778587Y580500D03*
X755387Y580700D03*
X778587Y580700D03*
X755387Y580900D03*
X778587Y580900D03*
X755387Y581100D03*
X778587Y581100D03*
X755387Y581300D03*
X778587Y581300D03*
X755387Y581500D03*
X778587Y581500D03*
X755387Y581700D03*
X778587Y581700D03*
X755387Y581900D03*
X778587Y581900D03*
X755387Y582100D03*
X778587Y582100D03*
X755387Y582300D03*
X755387Y582500D03*
X778587Y582500D03*
X755387Y582700D03*
X778587Y582700D03*
X755387Y582900D03*
X778587Y582900D03*
X755387Y583100D03*
X778587Y583100D03*
X755387Y583300D03*
X778587Y583300D03*
X755387Y583500D03*
X778587Y583500D03*
X755387Y583700D03*
X778587Y583700D03*
X755387Y583900D03*
X778587Y583900D03*
X755387Y584100D03*
X778587Y584100D03*
X755387Y584300D03*
X778587Y584300D03*
X755387Y584500D03*
D18*
X778487Y584500D03*
X755487Y584700D03*
X778487Y584700D03*
D17*
X755387Y584900D03*
D18*
X778487Y584900D03*
D17*
X755387Y585100D03*
D16*
X778487Y585100D03*
D15*
X755387Y585300D03*
X778587Y585300D03*
D20*
X755387Y585500D03*
D14*
X778487Y585500D03*
D21*
X755387Y585700D03*
X778587Y585700D03*
D22*
X755387Y585900D03*
D27*
X778487Y585900D03*
D28*
X755487Y588900D03*
D29*
X755387Y589100D03*
D30*
X755487Y589300D03*
D31*
X755487Y589500D03*
D32*
X755387Y589700D03*
D33*
X755387Y589900D03*
D25*
X778487Y589900D03*
X801487Y589900D03*
D34*
X755387Y590100D03*
D24*
X778487Y590100D03*
X801487Y590100D03*
D35*
X755387Y590300D03*
D13*
X778487Y590300D03*
X801487Y590300D03*
D36*
X755487Y590500D03*
D14*
X778487Y590500D03*
X801487Y590500D03*
D37*
X755387Y590700D03*
D16*
X778487Y590700D03*
X801487Y590700D03*
D38*
X755487Y590900D03*
D17*
X778587Y590900D03*
X801387Y590900D03*
D39*
X755387Y591100D03*
D18*
X778487Y591100D03*
X801487Y591100D03*
D40*
X755387Y591300D03*
D18*
X778487Y591300D03*
X801487Y591300D03*
D41*
X755387Y591500D03*
D19*
X778587Y591500D03*
D18*
X801487Y591500D03*
D42*
X755387Y591700D03*
D19*
X778587Y591700D03*
X801387Y591700D03*
D43*
X755387Y591900D03*
D19*
X778587Y591900D03*
X801387Y591900D03*
D44*
X755387Y592100D03*
D19*
X778587Y592100D03*
X801387Y592100D03*
D26*
X755387Y592300D03*
D19*
X778587Y592300D03*
X801387Y592300D03*
D11*
X755387Y592500D03*
D19*
X778587Y592500D03*
X801387Y592500D03*
D45*
X755387Y592700D03*
D19*
X778587Y592700D03*
X801387Y592700D03*
D22*
X755387Y592900D03*
D19*
X778587Y592900D03*
X801387Y592900D03*
D27*
X755487Y593100D03*
D19*
X778587Y593100D03*
X801387Y593100D03*
D12*
X755387Y593300D03*
D19*
X778587Y593300D03*
X801387Y593300D03*
D21*
X755387Y593500D03*
D19*
X778587Y593500D03*
X801387Y593500D03*
D13*
X755487Y593700D03*
D19*
X778587Y593700D03*
X801387Y593700D03*
D20*
X755387Y593900D03*
D19*
X778587Y593900D03*
X801387Y593900D03*
D15*
X755387Y594100D03*
D19*
X778587Y594100D03*
X801387Y594100D03*
D15*
X755387Y594300D03*
D19*
X778587Y594300D03*
X801387Y594300D03*
D17*
X755387Y594500D03*
D19*
X778587Y594500D03*
X801387Y594500D03*
D18*
X755487Y594700D03*
D19*
X778587Y594700D03*
X801387Y594700D03*
X755387Y594900D03*
X778587Y594900D03*
X801387Y594900D03*
X755387Y595100D03*
X778587Y595100D03*
X801387Y595100D03*
D46*
X755387Y595300D03*
D19*
X778587Y595300D03*
X801387Y595300D03*
D46*
X755387Y595500D03*
D19*
X778587Y595500D03*
X801387Y595500D03*
D47*
X755387Y595700D03*
D19*
X778587Y595700D03*
X801387Y595700D03*
D47*
X755387Y595900D03*
D19*
X778587Y595900D03*
X801387Y595900D03*
D47*
X755387Y596100D03*
D19*
X778587Y596100D03*
X801387Y596100D03*
D48*
X755387Y596300D03*
D19*
X778587Y596300D03*
X801387Y596300D03*
D48*
X755387Y596500D03*
D19*
X778587Y596500D03*
X801387Y596500D03*
D48*
X755387Y596700D03*
D19*
X778587Y596700D03*
X801387Y596700D03*
D49*
X755487Y596900D03*
D19*
X778587Y596900D03*
X801387Y596900D03*
D50*
X755387Y597100D03*
D19*
X778587Y597100D03*
X801387Y597100D03*
D50*
X755387Y597300D03*
D19*
X778587Y597300D03*
X801387Y597300D03*
D50*
X755387Y597500D03*
D19*
X778587Y597500D03*
X801387Y597500D03*
D50*
X755387Y597700D03*
D19*
X778587Y597700D03*
X801387Y597700D03*
D51*
X755487Y597900D03*
D19*
X778587Y597900D03*
X801387Y597900D03*
D52*
X755387Y598100D03*
D19*
X778587Y598100D03*
X801387Y598100D03*
D52*
X755387Y598300D03*
D19*
X778587Y598300D03*
X801387Y598300D03*
D52*
X755387Y598500D03*
D19*
X778587Y598500D03*
X801387Y598500D03*
D52*
X755387Y598700D03*
D19*
X778587Y598700D03*
X801387Y598700D03*
D52*
X755387Y598900D03*
D19*
X778587Y598900D03*
X801387Y598900D03*
D52*
X755387Y599100D03*
D19*
X778587Y599100D03*
X801387Y599100D03*
D52*
X755387Y599300D03*
D19*
X778587Y599300D03*
X801387Y599300D03*
D52*
X755387Y599500D03*
D19*
X778587Y599500D03*
X801387Y599500D03*
D52*
X755387Y599700D03*
D19*
X778587Y599700D03*
X801387Y599700D03*
D52*
X755387Y599900D03*
D19*
X778587Y599900D03*
X801387Y599900D03*
D52*
X755387Y600100D03*
D19*
X778587Y600100D03*
X801387Y600100D03*
D52*
X755387Y600300D03*
D19*
X778587Y600300D03*
X801387Y600300D03*
D52*
X755387Y600500D03*
D19*
X778587Y600500D03*
X801387Y600500D03*
D52*
X755387Y600700D03*
D19*
X778587Y600700D03*
X801387Y600700D03*
D51*
X755487Y600900D03*
D19*
X778587Y600900D03*
X801387Y600900D03*
D50*
X755387Y601100D03*
D19*
X778587Y601100D03*
X801387Y601100D03*
D50*
X755387Y601300D03*
D19*
X778587Y601300D03*
X801387Y601300D03*
D50*
X755387Y601500D03*
D19*
X778587Y601500D03*
X801387Y601500D03*
D50*
X755387Y601700D03*
D19*
X778587Y601700D03*
X801387Y601700D03*
D49*
X755487Y601900D03*
D19*
X778587Y601900D03*
X801387Y601900D03*
D48*
X755387Y602100D03*
D19*
X778587Y602100D03*
X801387Y602100D03*
D48*
X755387Y602300D03*
D19*
X778587Y602300D03*
X801387Y602300D03*
D48*
X755387Y602500D03*
D19*
X778587Y602500D03*
X801387Y602500D03*
D47*
X755387Y602700D03*
D19*
X778587Y602700D03*
X801387Y602700D03*
D47*
X755387Y602900D03*
D19*
X778587Y602900D03*
X801387Y602900D03*
X778587Y603100D03*
X801387Y603100D03*
D46*
X755387Y603300D03*
D19*
X778587Y603300D03*
X801387Y603300D03*
D46*
X755387Y603500D03*
D19*
X778587Y603500D03*
X801387Y603500D03*
D53*
X755487Y603700D03*
D19*
X778587Y603700D03*
X801387Y603700D03*
X755387Y603900D03*
X778587Y603900D03*
X801387Y603900D03*
D18*
X755487Y604100D03*
D19*
X778587Y604100D03*
X801387Y604100D03*
D17*
X755387Y604300D03*
D19*
X778587Y604300D03*
X801387Y604300D03*
D16*
X755487Y604500D03*
D19*
X778587Y604500D03*
X801387Y604500D03*
D15*
X755387Y604700D03*
D19*
X778587Y604700D03*
X801387Y604700D03*
D20*
X755387Y604900D03*
D19*
X778587Y604900D03*
X801387Y604900D03*
D20*
X755387Y605100D03*
D19*
X778587Y605100D03*
X801387Y605100D03*
D21*
X755387Y605300D03*
D19*
X778587Y605300D03*
X801387Y605300D03*
D24*
X755487Y605500D03*
D19*
X778587Y605500D03*
X801387Y605500D03*
D12*
X755387Y605700D03*
D19*
X778587Y605700D03*
X801387Y605700D03*
D22*
X755387Y605900D03*
D19*
X778587Y605900D03*
X801387Y605900D03*
D45*
X755387Y606100D03*
D19*
X778587Y606100D03*
X801387Y606100D03*
D11*
X755387Y606300D03*
D19*
X778587Y606300D03*
X801387Y606300D03*
D54*
X755487Y606500D03*
D19*
X778587Y606500D03*
X801387Y606500D03*
D55*
X755487Y606700D03*
D19*
X778587Y606700D03*
X801387Y606700D03*
D56*
X755487Y606900D03*
D19*
X778587Y606900D03*
X801387Y606900D03*
D57*
X755487Y607100D03*
D19*
X778587Y607100D03*
X801387Y607100D03*
D58*
X755487Y607300D03*
D19*
X778587Y607300D03*
D18*
X801487Y607300D03*
D40*
X755387Y607500D03*
D18*
X778487Y607500D03*
X801487Y607500D03*
D39*
X755387Y607700D03*
D18*
X778487Y607700D03*
X801487Y607700D03*
D59*
X755387Y607900D03*
D17*
X778587Y607900D03*
X801387Y607900D03*
D60*
X755487Y608100D03*
D16*
X778487Y608100D03*
X801487Y608100D03*
D61*
X755387Y608300D03*
D15*
X778587Y608300D03*
D14*
X801487Y608300D03*
D35*
X755387Y608500D03*
D20*
X778587Y608500D03*
X801387Y608500D03*
D62*
X755387Y608700D03*
D24*
X778487Y608700D03*
X801487Y608700D03*
D63*
X755387Y608900D03*
D23*
X778487Y608900D03*
X801487Y608900D03*
D64*
X755387Y609100D03*
D65*
X755387Y609300D03*
D66*
X755487Y609500D03*
D67*
X755387Y609700D03*
D68*
X755387Y609900D03*
D19*
X778587Y582300D03*
D47*
X755387Y603100D03*
D69*
X793442Y340990D02*
X793442Y247010D01*
X832558Y340990D02*
X832556Y341112D01*
X832550Y341234D01*
X832540Y341356D01*
X832527Y341477D01*
X832509Y341598D01*
X832488Y341718D01*
X832462Y341838D01*
X832433Y341956D01*
X832401Y342074D01*
X832364Y342191D01*
X832324Y342306D01*
X832280Y342420D01*
X832232Y342532D01*
X832181Y342643D01*
X832126Y342752D01*
X832068Y342860D01*
X832006Y342965D01*
X831941Y343068D01*
X831873Y343170D01*
X831801Y343269D01*
X831727Y343365D01*
X831649Y343460D01*
X831568Y343551D01*
X831485Y343641D01*
X831399Y343727D01*
X831309Y343810D01*
X831218Y343891D01*
X831123Y343969D01*
X831027Y344043D01*
X830928Y344115D01*
X830826Y344183D01*
X830723Y344248D01*
X830618Y344310D01*
X830510Y344368D01*
X830401Y344423D01*
X830290Y344474D01*
X830178Y344522D01*
X830064Y344566D01*
X829949Y344606D01*
X829832Y344643D01*
X829714Y344675D01*
X829596Y344704D01*
X829476Y344730D01*
X829356Y344751D01*
X829235Y344769D01*
X829114Y344782D01*
X828992Y344792D01*
X828870Y344798D01*
X828748Y344800D01*
X793442Y247010D02*
X793444Y246888D01*
X793450Y246766D01*
X793460Y246644D01*
X793473Y246523D01*
X793491Y246402D01*
X793512Y246282D01*
X793538Y246162D01*
X793567Y246044D01*
X793599Y245926D01*
X793636Y245809D01*
X793676Y245694D01*
X793720Y245580D01*
X793768Y245468D01*
X793819Y245357D01*
X793874Y245248D01*
X793932Y245140D01*
X793994Y245035D01*
X794059Y244932D01*
X794127Y244830D01*
X794199Y244731D01*
X794273Y244635D01*
X794351Y244540D01*
X794432Y244449D01*
X794515Y244359D01*
X794601Y244273D01*
X794691Y244190D01*
X794782Y244109D01*
X794877Y244031D01*
X794973Y243957D01*
X795072Y243885D01*
X795174Y243817D01*
X795277Y243752D01*
X795382Y243690D01*
X795490Y243632D01*
X795599Y243577D01*
X795710Y243526D01*
X795822Y243478D01*
X795936Y243434D01*
X796051Y243394D01*
X796168Y243357D01*
X796286Y243325D01*
X796404Y243296D01*
X796524Y243270D01*
X796644Y243249D01*
X796765Y243231D01*
X796886Y243218D01*
X797008Y243208D01*
X797130Y243202D01*
X797252Y243200D01*
X793442Y340990D02*
X793444Y341112D01*
X793450Y341234D01*
X793460Y341356D01*
X793473Y341477D01*
X793491Y341598D01*
X793512Y341718D01*
X793538Y341838D01*
X793567Y341956D01*
X793599Y342074D01*
X793636Y342191D01*
X793676Y342306D01*
X793720Y342420D01*
X793768Y342532D01*
X793819Y342643D01*
X793874Y342752D01*
X793932Y342860D01*
X793994Y342965D01*
X794059Y343068D01*
X794127Y343170D01*
X794199Y343269D01*
X794273Y343365D01*
X794351Y343460D01*
X794432Y343551D01*
X794515Y343641D01*
X794601Y343727D01*
X794691Y343810D01*
X794782Y343891D01*
X794877Y343969D01*
X794973Y344043D01*
X795072Y344115D01*
X795174Y344183D01*
X795277Y344248D01*
X795382Y344310D01*
X795490Y344368D01*
X795599Y344423D01*
X795710Y344474D01*
X795822Y344522D01*
X795936Y344566D01*
X796051Y344606D01*
X796168Y344643D01*
X796286Y344675D01*
X796404Y344704D01*
X796524Y344730D01*
X796644Y344751D01*
X796765Y344769D01*
X796886Y344782D01*
X797008Y344792D01*
X797130Y344798D01*
X797252Y344800D01*
X832558Y247010D02*
X832556Y246888D01*
X832550Y246766D01*
X832540Y246644D01*
X832527Y246523D01*
X832509Y246402D01*
X832488Y246282D01*
X832462Y246162D01*
X832433Y246044D01*
X832401Y245926D01*
X832364Y245809D01*
X832324Y245694D01*
X832280Y245580D01*
X832232Y245468D01*
X832181Y245357D01*
X832126Y245248D01*
X832068Y245140D01*
X832006Y245035D01*
X831941Y244932D01*
X831873Y244830D01*
X831801Y244731D01*
X831727Y244635D01*
X831649Y244540D01*
X831568Y244449D01*
X831485Y244359D01*
X831399Y244273D01*
X831309Y244190D01*
X831218Y244109D01*
X831123Y244031D01*
X831027Y243957D01*
X830928Y243885D01*
X830826Y243817D01*
X830723Y243752D01*
X830618Y243690D01*
X830510Y243632D01*
X830401Y243577D01*
X830290Y243526D01*
X830178Y243478D01*
X830064Y243434D01*
X829949Y243394D01*
X829832Y243357D01*
X829714Y243325D01*
X829596Y243296D01*
X829476Y243270D01*
X829356Y243249D01*
X829235Y243231D01*
X829114Y243218D01*
X828992Y243208D01*
X828870Y243202D01*
X828748Y243200D01*
X832558Y247010D02*
X832558Y340990D01*
X828748Y344800D02*
X797252Y344800D01*
X797252Y243200D02*
X828748Y243200D01*
X818080Y243200D02*
X818078Y243341D01*
X818072Y243482D01*
X818062Y243623D01*
X818049Y243764D01*
X818031Y243904D01*
X818009Y244043D01*
X817984Y244182D01*
X817955Y244321D01*
X817922Y244458D01*
X817885Y244594D01*
X817844Y244729D01*
X817800Y244864D01*
X817752Y244996D01*
X817700Y245128D01*
X817645Y245258D01*
X817586Y245386D01*
X817523Y245513D01*
X817457Y245637D01*
X817388Y245760D01*
X817315Y245881D01*
X817239Y246000D01*
X817159Y246117D01*
X817076Y246231D01*
X816991Y246344D01*
X816902Y246453D01*
X816810Y246561D01*
X816715Y246665D01*
X816617Y246767D01*
X816516Y246866D01*
X816413Y246963D01*
X816307Y247056D01*
X816199Y247146D01*
X816088Y247234D01*
X815975Y247318D01*
X815859Y247399D01*
X815741Y247477D01*
X815621Y247552D01*
X815499Y247623D01*
X815375Y247691D01*
X815249Y247755D01*
X815122Y247816D01*
X814993Y247873D01*
X814862Y247926D01*
X814730Y247976D01*
X814597Y248023D01*
X814462Y248065D01*
X814326Y248104D01*
X814189Y248139D01*
X814052Y248170D01*
X813913Y248197D01*
X813774Y248221D01*
X813634Y248240D01*
X813494Y248256D01*
X813353Y248268D01*
X813212Y248276D01*
X813071Y248280D01*
X812929Y248280D01*
X812788Y248276D01*
X812647Y248268D01*
X812506Y248256D01*
X812366Y248240D01*
X812226Y248221D01*
X812087Y248197D01*
X811948Y248170D01*
X811811Y248139D01*
X811674Y248104D01*
X811538Y248065D01*
X811403Y248023D01*
X811270Y247976D01*
X811138Y247926D01*
X811007Y247873D01*
X810878Y247816D01*
X810751Y247755D01*
X810625Y247691D01*
X810501Y247623D01*
X810379Y247552D01*
X810259Y247477D01*
X810141Y247399D01*
X810025Y247318D01*
X809912Y247234D01*
X809801Y247146D01*
X809693Y247056D01*
X809587Y246963D01*
X809484Y246866D01*
X809383Y246767D01*
X809285Y246665D01*
X809190Y246561D01*
X809098Y246453D01*
X809009Y246344D01*
X808924Y246231D01*
X808841Y246117D01*
X808761Y246000D01*
X808685Y245881D01*
X808612Y245760D01*
X808543Y245637D01*
X808477Y245513D01*
X808414Y245386D01*
X808355Y245258D01*
X808300Y245128D01*
X808248Y244996D01*
X808200Y244864D01*
X808156Y244729D01*
X808115Y244594D01*
X808078Y244458D01*
X808045Y244321D01*
X808016Y244182D01*
X807991Y244043D01*
X807969Y243904D01*
X807951Y243764D01*
X807938Y243623D01*
X807928Y243482D01*
X807922Y243341D01*
X807920Y243200D01*
D70*
X829002Y243200D02*
X829002Y344800D01*
X824781Y235580D02*
X823595Y235580D01*
X824188Y235580D02*
X824188Y239139D01*
X823595Y239139D02*
X824781Y239139D01*
X827869Y239139D02*
X828463Y238546D01*
X827869Y239139D02*
X826683Y239139D01*
X826090Y238546D01*
X826090Y236173D01*
X826683Y235580D01*
X827869Y235580D01*
X828463Y236173D01*
X829832Y237953D02*
X831018Y239139D01*
X831018Y235580D01*
X829832Y235580D02*
X832205Y235580D01*
D71*
X861885Y387541D02*
X861249Y388176D01*
X859978Y388176D01*
X859343Y387541D01*
X859343Y384999D01*
X859978Y384363D01*
X861249Y384363D01*
X861885Y384999D01*
X863085Y386905D02*
X864356Y388176D01*
X864356Y384363D01*
X863085Y384363D02*
X865627Y384363D01*
X935459Y252885D02*
X934824Y252249D01*
X934824Y250978D01*
X935459Y250343D01*
X938001Y250343D01*
X938637Y250978D01*
X938637Y252249D01*
X938001Y252885D01*
X935459Y254085D02*
X934824Y254720D01*
X934824Y255992D01*
X935459Y256627D01*
X936095Y256627D01*
X936730Y255992D01*
X936730Y255356D01*
X936730Y255992D02*
X937366Y256627D01*
X938001Y256627D01*
X938637Y255992D01*
X938637Y254720D01*
X938001Y254085D01*
X934824Y303249D02*
X935459Y303885D01*
X934824Y303249D02*
X934824Y301978D01*
X935459Y301343D01*
X938001Y301343D01*
X938637Y301978D01*
X938637Y303249D01*
X938001Y303885D01*
X938637Y306992D02*
X934824Y306992D01*
X936730Y305085D01*
X936730Y307627D01*
X768969Y193005D02*
X768334Y193640D01*
X767063Y193640D01*
X766427Y193005D01*
X766427Y190463D01*
X767063Y189827D01*
X768334Y189827D01*
X768969Y190463D01*
X770169Y193640D02*
X772711Y193640D01*
X770169Y193640D02*
X770169Y191734D01*
X771440Y192369D01*
X772076Y192369D01*
X772711Y191734D01*
X772711Y190463D01*
X772076Y189827D01*
X770805Y189827D01*
X770169Y190463D01*
X934824Y196249D02*
X935459Y196885D01*
X934824Y196249D02*
X934824Y194978D01*
X935459Y194343D01*
X938001Y194343D01*
X938637Y194978D01*
X938637Y196249D01*
X938001Y196885D01*
X935459Y199356D02*
X934824Y200627D01*
X935459Y199356D02*
X936730Y198085D01*
X938001Y198085D01*
X938637Y198720D01*
X938637Y199992D01*
X938001Y200627D01*
X937366Y200627D01*
X936730Y199992D01*
X936730Y198085D01*
D69*
X906200Y-69070D02*
X903660Y-69070D01*
X906200Y-69070D02*
X906340Y-69068D01*
X906480Y-69062D01*
X906620Y-69053D01*
X906759Y-69039D01*
X906898Y-69022D01*
X907036Y-69001D01*
X907174Y-68976D01*
X907311Y-68947D01*
X907447Y-68915D01*
X907582Y-68878D01*
X907716Y-68838D01*
X907849Y-68795D01*
X907981Y-68747D01*
X908112Y-68697D01*
X908241Y-68642D01*
X908368Y-68584D01*
X908494Y-68523D01*
X908618Y-68458D01*
X908740Y-68389D01*
X908860Y-68318D01*
X908978Y-68243D01*
X909095Y-68165D01*
X909209Y-68083D01*
X909320Y-67999D01*
X909429Y-67911D01*
X909536Y-67821D01*
X909641Y-67727D01*
X909742Y-67631D01*
X909841Y-67532D01*
X909937Y-67431D01*
X910031Y-67326D01*
X910121Y-67219D01*
X910209Y-67110D01*
X910293Y-66999D01*
X910375Y-66885D01*
X910453Y-66768D01*
X910528Y-66650D01*
X910599Y-66530D01*
X910668Y-66408D01*
X910733Y-66284D01*
X910794Y-66158D01*
X910852Y-66031D01*
X910907Y-65902D01*
X910957Y-65771D01*
X911005Y-65639D01*
X911048Y-65506D01*
X911088Y-65372D01*
X911125Y-65237D01*
X911157Y-65101D01*
X911186Y-64964D01*
X911211Y-64826D01*
X911232Y-64688D01*
X911249Y-64549D01*
X911263Y-64410D01*
X911272Y-64270D01*
X911278Y-64130D01*
X911280Y-63990D01*
X753800Y-69070D02*
X753660Y-69068D01*
X753520Y-69062D01*
X753380Y-69053D01*
X753241Y-69039D01*
X753102Y-69022D01*
X752964Y-69001D01*
X752826Y-68976D01*
X752689Y-68947D01*
X752553Y-68915D01*
X752418Y-68878D01*
X752284Y-68838D01*
X752151Y-68795D01*
X752019Y-68747D01*
X751888Y-68697D01*
X751759Y-68642D01*
X751632Y-68584D01*
X751506Y-68523D01*
X751382Y-68458D01*
X751260Y-68389D01*
X751140Y-68318D01*
X751022Y-68243D01*
X750905Y-68165D01*
X750791Y-68083D01*
X750680Y-67999D01*
X750571Y-67911D01*
X750464Y-67821D01*
X750359Y-67727D01*
X750258Y-67631D01*
X750159Y-67532D01*
X750063Y-67431D01*
X749969Y-67326D01*
X749879Y-67219D01*
X749791Y-67110D01*
X749707Y-66999D01*
X749625Y-66885D01*
X749547Y-66768D01*
X749472Y-66650D01*
X749401Y-66530D01*
X749332Y-66408D01*
X749267Y-66284D01*
X749206Y-66158D01*
X749148Y-66031D01*
X749093Y-65902D01*
X749043Y-65771D01*
X748995Y-65639D01*
X748952Y-65506D01*
X748912Y-65372D01*
X748875Y-65237D01*
X748843Y-65101D01*
X748814Y-64964D01*
X748789Y-64826D01*
X748768Y-64688D01*
X748751Y-64549D01*
X748737Y-64410D01*
X748728Y-64270D01*
X748722Y-64130D01*
X748720Y-63990D01*
X934140Y33800D02*
X984940Y33800D01*
X984940Y3320D01*
X984940Y33800D02*
X984940Y35070D01*
X984940Y3320D02*
X984940Y-1760D01*
X984940Y-6840D01*
X675060Y-6840D02*
X675060Y-1760D01*
X675060Y3320D01*
X675060Y33800D01*
X675060Y35070D01*
X959540Y-1760D02*
X984940Y-1760D01*
X959540Y-1760D02*
X934140Y-1760D01*
X934140Y3320D01*
X932870Y3320D01*
X932870Y27450D02*
X932868Y27608D01*
X932862Y27767D01*
X932852Y27925D01*
X932838Y28082D01*
X932821Y28240D01*
X932799Y28396D01*
X932774Y28553D01*
X932744Y28708D01*
X932711Y28863D01*
X932674Y29017D01*
X932633Y29170D01*
X932588Y29322D01*
X932539Y29472D01*
X932487Y29622D01*
X932431Y29770D01*
X932371Y29917D01*
X932308Y30062D01*
X932241Y30205D01*
X932171Y30347D01*
X932097Y30487D01*
X932019Y30625D01*
X931938Y30761D01*
X931854Y30895D01*
X931767Y31027D01*
X931676Y31157D01*
X931582Y31284D01*
X931485Y31409D01*
X931384Y31532D01*
X931281Y31652D01*
X931175Y31769D01*
X931066Y31884D01*
X930954Y31996D01*
X930839Y32105D01*
X930722Y32211D01*
X930602Y32314D01*
X930479Y32415D01*
X930354Y32512D01*
X930227Y32606D01*
X930097Y32697D01*
X929965Y32784D01*
X929831Y32868D01*
X929695Y32949D01*
X929557Y33027D01*
X929417Y33101D01*
X929275Y33171D01*
X929132Y33238D01*
X928987Y33301D01*
X928840Y33361D01*
X928692Y33417D01*
X928542Y33469D01*
X928392Y33518D01*
X928240Y33563D01*
X928087Y33604D01*
X927933Y33641D01*
X927778Y33674D01*
X927623Y33704D01*
X927466Y33729D01*
X927310Y33751D01*
X927152Y33768D01*
X926995Y33782D01*
X926837Y33792D01*
X926678Y33798D01*
X926520Y33800D01*
X925250Y33800D02*
X934140Y33800D01*
X925250Y33800D02*
X922710Y33800D01*
X932870Y27450D02*
X932870Y3320D01*
X922710Y33800D02*
X922710Y41420D01*
X922710Y33800D02*
X737290Y33800D01*
X737290Y41420D02*
X922710Y41420D01*
X737290Y41420D02*
X737290Y33800D01*
X734750Y33800D01*
X725860Y33800D01*
X700460Y-1760D02*
X675060Y-1760D01*
X725860Y-1760D02*
X934140Y-1760D01*
X725860Y-1760D02*
X700460Y-1760D01*
X725860Y-1760D02*
X725860Y3320D01*
X727130Y3320D02*
X727130Y27450D01*
X727130Y3320D02*
X725860Y3320D01*
X727130Y27450D02*
X727132Y27608D01*
X727138Y27767D01*
X727148Y27925D01*
X727162Y28082D01*
X727179Y28240D01*
X727201Y28396D01*
X727226Y28553D01*
X727256Y28708D01*
X727289Y28863D01*
X727326Y29017D01*
X727367Y29170D01*
X727412Y29322D01*
X727461Y29472D01*
X727513Y29622D01*
X727569Y29770D01*
X727629Y29917D01*
X727692Y30062D01*
X727759Y30205D01*
X727829Y30347D01*
X727903Y30487D01*
X727981Y30625D01*
X728062Y30761D01*
X728146Y30895D01*
X728233Y31027D01*
X728324Y31157D01*
X728418Y31284D01*
X728515Y31409D01*
X728616Y31532D01*
X728719Y31652D01*
X728825Y31769D01*
X728934Y31884D01*
X729046Y31996D01*
X729161Y32105D01*
X729278Y32211D01*
X729398Y32314D01*
X729521Y32415D01*
X729646Y32512D01*
X729773Y32606D01*
X729903Y32697D01*
X730035Y32784D01*
X730169Y32868D01*
X730305Y32949D01*
X730443Y33027D01*
X730583Y33101D01*
X730725Y33171D01*
X730868Y33238D01*
X731013Y33301D01*
X731160Y33361D01*
X731308Y33417D01*
X731458Y33469D01*
X731608Y33518D01*
X731760Y33563D01*
X731913Y33604D01*
X732067Y33641D01*
X732222Y33674D01*
X732377Y33704D01*
X732534Y33729D01*
X732690Y33751D01*
X732848Y33768D01*
X733005Y33782D01*
X733163Y33792D01*
X733322Y33798D01*
X733480Y33800D01*
X978590Y141750D02*
X984940Y135400D01*
X984940Y35070D01*
X978590Y141750D02*
X930330Y141750D01*
X925250Y136670D01*
X925250Y33800D01*
X734750Y33800D02*
X734750Y136670D01*
X729670Y141750D01*
X680140Y141750D01*
X675060Y136670D01*
X675060Y35070D01*
X675060Y33800D02*
X725860Y33800D01*
X907470Y-6840D02*
X984940Y-6840D01*
X911280Y-13190D02*
X911280Y-63990D01*
X911280Y-13190D02*
X911282Y-13032D01*
X911288Y-12873D01*
X911298Y-12715D01*
X911312Y-12558D01*
X911329Y-12400D01*
X911351Y-12244D01*
X911376Y-12087D01*
X911406Y-11932D01*
X911439Y-11777D01*
X911476Y-11623D01*
X911517Y-11470D01*
X911562Y-11318D01*
X911611Y-11168D01*
X911663Y-11018D01*
X911719Y-10870D01*
X911779Y-10723D01*
X911842Y-10578D01*
X911909Y-10435D01*
X911979Y-10293D01*
X912053Y-10153D01*
X912131Y-10015D01*
X912212Y-9879D01*
X912296Y-9745D01*
X912383Y-9613D01*
X912474Y-9483D01*
X912568Y-9356D01*
X912665Y-9231D01*
X912766Y-9108D01*
X912869Y-8988D01*
X912975Y-8871D01*
X913084Y-8756D01*
X913196Y-8644D01*
X913311Y-8535D01*
X913428Y-8429D01*
X913548Y-8326D01*
X913671Y-8225D01*
X913796Y-8128D01*
X913923Y-8034D01*
X914053Y-7943D01*
X914185Y-7856D01*
X914319Y-7772D01*
X914455Y-7691D01*
X914593Y-7613D01*
X914733Y-7539D01*
X914875Y-7469D01*
X915018Y-7402D01*
X915163Y-7339D01*
X915310Y-7279D01*
X915458Y-7223D01*
X915608Y-7171D01*
X915758Y-7122D01*
X915910Y-7077D01*
X916063Y-7036D01*
X916217Y-6999D01*
X916372Y-6966D01*
X916527Y-6936D01*
X916684Y-6911D01*
X916840Y-6889D01*
X916998Y-6872D01*
X917155Y-6858D01*
X917313Y-6848D01*
X917472Y-6842D01*
X917630Y-6840D01*
X752530Y-6840D02*
X675060Y-6840D01*
X748720Y-13190D02*
X748720Y-63990D01*
X748720Y-13190D02*
X748718Y-13032D01*
X748712Y-12873D01*
X748702Y-12715D01*
X748688Y-12558D01*
X748671Y-12400D01*
X748649Y-12244D01*
X748624Y-12087D01*
X748594Y-11932D01*
X748561Y-11777D01*
X748524Y-11623D01*
X748483Y-11470D01*
X748438Y-11318D01*
X748389Y-11168D01*
X748337Y-11018D01*
X748281Y-10870D01*
X748221Y-10723D01*
X748158Y-10578D01*
X748091Y-10435D01*
X748021Y-10293D01*
X747947Y-10153D01*
X747869Y-10015D01*
X747788Y-9879D01*
X747704Y-9745D01*
X747617Y-9613D01*
X747526Y-9483D01*
X747432Y-9356D01*
X747335Y-9231D01*
X747234Y-9108D01*
X747131Y-8988D01*
X747025Y-8871D01*
X746916Y-8756D01*
X746804Y-8644D01*
X746689Y-8535D01*
X746572Y-8429D01*
X746452Y-8326D01*
X746329Y-8225D01*
X746204Y-8128D01*
X746077Y-8034D01*
X745947Y-7943D01*
X745815Y-7856D01*
X745681Y-7772D01*
X745545Y-7691D01*
X745407Y-7613D01*
X745267Y-7539D01*
X745125Y-7469D01*
X744982Y-7402D01*
X744837Y-7339D01*
X744690Y-7279D01*
X744542Y-7223D01*
X744392Y-7171D01*
X744242Y-7122D01*
X744090Y-7077D01*
X743937Y-7036D01*
X743783Y-6999D01*
X743628Y-6966D01*
X743473Y-6936D01*
X743316Y-6911D01*
X743160Y-6889D01*
X743002Y-6872D01*
X742845Y-6858D01*
X742687Y-6848D01*
X742528Y-6842D01*
X742370Y-6840D01*
X752530Y-6840D02*
X907470Y-6840D01*
X903660Y-69070D02*
X756340Y-69070D01*
X753800Y-69070D01*
X938712Y110000D02*
X938717Y110405D01*
X938732Y110810D01*
X938757Y111215D01*
X938792Y111618D01*
X938836Y112021D01*
X938891Y112423D01*
X938955Y112823D01*
X939029Y113221D01*
X939113Y113617D01*
X939207Y114012D01*
X939310Y114403D01*
X939423Y114793D01*
X939545Y115179D01*
X939677Y115562D01*
X939818Y115942D01*
X939969Y116318D01*
X940128Y116691D01*
X940297Y117059D01*
X940475Y117423D01*
X940661Y117783D01*
X940857Y118138D01*
X941061Y118488D01*
X941273Y118833D01*
X941494Y119172D01*
X941724Y119507D01*
X941961Y119835D01*
X942206Y120157D01*
X942460Y120474D01*
X942720Y120784D01*
X942989Y121087D01*
X943265Y121384D01*
X943548Y121674D01*
X943838Y121957D01*
X944135Y122233D01*
X944438Y122502D01*
X944748Y122762D01*
X945065Y123016D01*
X945387Y123261D01*
X945715Y123498D01*
X946050Y123728D01*
X946389Y123949D01*
X946734Y124161D01*
X947084Y124365D01*
X947439Y124561D01*
X947799Y124747D01*
X948163Y124925D01*
X948531Y125094D01*
X948904Y125253D01*
X949280Y125404D01*
X949660Y125545D01*
X950043Y125677D01*
X950429Y125799D01*
X950819Y125912D01*
X951210Y126015D01*
X951605Y126109D01*
X952001Y126193D01*
X952399Y126267D01*
X952799Y126331D01*
X953201Y126386D01*
X953604Y126430D01*
X954007Y126465D01*
X954412Y126490D01*
X954817Y126505D01*
X955222Y126510D01*
X955627Y126505D01*
X956032Y126490D01*
X956437Y126465D01*
X956840Y126430D01*
X957243Y126386D01*
X957645Y126331D01*
X958045Y126267D01*
X958443Y126193D01*
X958839Y126109D01*
X959234Y126015D01*
X959625Y125912D01*
X960015Y125799D01*
X960401Y125677D01*
X960784Y125545D01*
X961164Y125404D01*
X961540Y125253D01*
X961913Y125094D01*
X962281Y124925D01*
X962645Y124747D01*
X963005Y124561D01*
X963360Y124365D01*
X963710Y124161D01*
X964055Y123949D01*
X964394Y123728D01*
X964729Y123498D01*
X965057Y123261D01*
X965379Y123016D01*
X965696Y122762D01*
X966006Y122502D01*
X966309Y122233D01*
X966606Y121957D01*
X966896Y121674D01*
X967179Y121384D01*
X967455Y121087D01*
X967724Y120784D01*
X967984Y120474D01*
X968238Y120157D01*
X968483Y119835D01*
X968720Y119507D01*
X968950Y119172D01*
X969171Y118833D01*
X969383Y118488D01*
X969587Y118138D01*
X969783Y117783D01*
X969969Y117423D01*
X970147Y117059D01*
X970316Y116691D01*
X970475Y116318D01*
X970626Y115942D01*
X970767Y115562D01*
X970899Y115179D01*
X971021Y114793D01*
X971134Y114403D01*
X971237Y114012D01*
X971331Y113617D01*
X971415Y113221D01*
X971489Y112823D01*
X971553Y112423D01*
X971608Y112021D01*
X971652Y111618D01*
X971687Y111215D01*
X971712Y110810D01*
X971727Y110405D01*
X971732Y110000D01*
X971727Y109595D01*
X971712Y109190D01*
X971687Y108785D01*
X971652Y108382D01*
X971608Y107979D01*
X971553Y107577D01*
X971489Y107177D01*
X971415Y106779D01*
X971331Y106383D01*
X971237Y105988D01*
X971134Y105597D01*
X971021Y105207D01*
X970899Y104821D01*
X970767Y104438D01*
X970626Y104058D01*
X970475Y103682D01*
X970316Y103309D01*
X970147Y102941D01*
X969969Y102577D01*
X969783Y102217D01*
X969587Y101862D01*
X969383Y101512D01*
X969171Y101167D01*
X968950Y100828D01*
X968720Y100493D01*
X968483Y100165D01*
X968238Y99843D01*
X967984Y99526D01*
X967724Y99216D01*
X967455Y98913D01*
X967179Y98616D01*
X966896Y98326D01*
X966606Y98043D01*
X966309Y97767D01*
X966006Y97498D01*
X965696Y97238D01*
X965379Y96984D01*
X965057Y96739D01*
X964729Y96502D01*
X964394Y96272D01*
X964055Y96051D01*
X963710Y95839D01*
X963360Y95635D01*
X963005Y95439D01*
X962645Y95253D01*
X962281Y95075D01*
X961913Y94906D01*
X961540Y94747D01*
X961164Y94596D01*
X960784Y94455D01*
X960401Y94323D01*
X960015Y94201D01*
X959625Y94088D01*
X959234Y93985D01*
X958839Y93891D01*
X958443Y93807D01*
X958045Y93733D01*
X957645Y93669D01*
X957243Y93614D01*
X956840Y93570D01*
X956437Y93535D01*
X956032Y93510D01*
X955627Y93495D01*
X955222Y93490D01*
X954817Y93495D01*
X954412Y93510D01*
X954007Y93535D01*
X953604Y93570D01*
X953201Y93614D01*
X952799Y93669D01*
X952399Y93733D01*
X952001Y93807D01*
X951605Y93891D01*
X951210Y93985D01*
X950819Y94088D01*
X950429Y94201D01*
X950043Y94323D01*
X949660Y94455D01*
X949280Y94596D01*
X948904Y94747D01*
X948531Y94906D01*
X948163Y95075D01*
X947799Y95253D01*
X947439Y95439D01*
X947084Y95635D01*
X946734Y95839D01*
X946389Y96051D01*
X946050Y96272D01*
X945715Y96502D01*
X945387Y96739D01*
X945065Y96984D01*
X944748Y97238D01*
X944438Y97498D01*
X944135Y97767D01*
X943838Y98043D01*
X943548Y98326D01*
X943265Y98616D01*
X942989Y98913D01*
X942720Y99216D01*
X942460Y99526D01*
X942206Y99843D01*
X941961Y100165D01*
X941724Y100493D01*
X941494Y100828D01*
X941273Y101167D01*
X941061Y101512D01*
X940857Y101862D01*
X940661Y102217D01*
X940475Y102577D01*
X940297Y102941D01*
X940128Y103309D01*
X939969Y103682D01*
X939818Y104058D01*
X939677Y104438D01*
X939545Y104821D01*
X939423Y105207D01*
X939310Y105597D01*
X939207Y105988D01*
X939113Y106383D01*
X939029Y106779D01*
X938955Y107177D01*
X938891Y107577D01*
X938836Y107979D01*
X938792Y108382D01*
X938757Y108785D01*
X938732Y109190D01*
X938717Y109595D01*
X938712Y110000D01*
X688268Y110000D02*
X688273Y110405D01*
X688288Y110810D01*
X688313Y111215D01*
X688348Y111618D01*
X688392Y112021D01*
X688447Y112423D01*
X688511Y112823D01*
X688585Y113221D01*
X688669Y113617D01*
X688763Y114012D01*
X688866Y114403D01*
X688979Y114793D01*
X689101Y115179D01*
X689233Y115562D01*
X689374Y115942D01*
X689525Y116318D01*
X689684Y116691D01*
X689853Y117059D01*
X690031Y117423D01*
X690217Y117783D01*
X690413Y118138D01*
X690617Y118488D01*
X690829Y118833D01*
X691050Y119172D01*
X691280Y119507D01*
X691517Y119835D01*
X691762Y120157D01*
X692016Y120474D01*
X692276Y120784D01*
X692545Y121087D01*
X692821Y121384D01*
X693104Y121674D01*
X693394Y121957D01*
X693691Y122233D01*
X693994Y122502D01*
X694304Y122762D01*
X694621Y123016D01*
X694943Y123261D01*
X695271Y123498D01*
X695606Y123728D01*
X695945Y123949D01*
X696290Y124161D01*
X696640Y124365D01*
X696995Y124561D01*
X697355Y124747D01*
X697719Y124925D01*
X698087Y125094D01*
X698460Y125253D01*
X698836Y125404D01*
X699216Y125545D01*
X699599Y125677D01*
X699985Y125799D01*
X700375Y125912D01*
X700766Y126015D01*
X701161Y126109D01*
X701557Y126193D01*
X701955Y126267D01*
X702355Y126331D01*
X702757Y126386D01*
X703160Y126430D01*
X703563Y126465D01*
X703968Y126490D01*
X704373Y126505D01*
X704778Y126510D01*
X705183Y126505D01*
X705588Y126490D01*
X705993Y126465D01*
X706396Y126430D01*
X706799Y126386D01*
X707201Y126331D01*
X707601Y126267D01*
X707999Y126193D01*
X708395Y126109D01*
X708790Y126015D01*
X709181Y125912D01*
X709571Y125799D01*
X709957Y125677D01*
X710340Y125545D01*
X710720Y125404D01*
X711096Y125253D01*
X711469Y125094D01*
X711837Y124925D01*
X712201Y124747D01*
X712561Y124561D01*
X712916Y124365D01*
X713266Y124161D01*
X713611Y123949D01*
X713950Y123728D01*
X714285Y123498D01*
X714613Y123261D01*
X714935Y123016D01*
X715252Y122762D01*
X715562Y122502D01*
X715865Y122233D01*
X716162Y121957D01*
X716452Y121674D01*
X716735Y121384D01*
X717011Y121087D01*
X717280Y120784D01*
X717540Y120474D01*
X717794Y120157D01*
X718039Y119835D01*
X718276Y119507D01*
X718506Y119172D01*
X718727Y118833D01*
X718939Y118488D01*
X719143Y118138D01*
X719339Y117783D01*
X719525Y117423D01*
X719703Y117059D01*
X719872Y116691D01*
X720031Y116318D01*
X720182Y115942D01*
X720323Y115562D01*
X720455Y115179D01*
X720577Y114793D01*
X720690Y114403D01*
X720793Y114012D01*
X720887Y113617D01*
X720971Y113221D01*
X721045Y112823D01*
X721109Y112423D01*
X721164Y112021D01*
X721208Y111618D01*
X721243Y111215D01*
X721268Y110810D01*
X721283Y110405D01*
X721288Y110000D01*
X721283Y109595D01*
X721268Y109190D01*
X721243Y108785D01*
X721208Y108382D01*
X721164Y107979D01*
X721109Y107577D01*
X721045Y107177D01*
X720971Y106779D01*
X720887Y106383D01*
X720793Y105988D01*
X720690Y105597D01*
X720577Y105207D01*
X720455Y104821D01*
X720323Y104438D01*
X720182Y104058D01*
X720031Y103682D01*
X719872Y103309D01*
X719703Y102941D01*
X719525Y102577D01*
X719339Y102217D01*
X719143Y101862D01*
X718939Y101512D01*
X718727Y101167D01*
X718506Y100828D01*
X718276Y100493D01*
X718039Y100165D01*
X717794Y99843D01*
X717540Y99526D01*
X717280Y99216D01*
X717011Y98913D01*
X716735Y98616D01*
X716452Y98326D01*
X716162Y98043D01*
X715865Y97767D01*
X715562Y97498D01*
X715252Y97238D01*
X714935Y96984D01*
X714613Y96739D01*
X714285Y96502D01*
X713950Y96272D01*
X713611Y96051D01*
X713266Y95839D01*
X712916Y95635D01*
X712561Y95439D01*
X712201Y95253D01*
X711837Y95075D01*
X711469Y94906D01*
X711096Y94747D01*
X710720Y94596D01*
X710340Y94455D01*
X709957Y94323D01*
X709571Y94201D01*
X709181Y94088D01*
X708790Y93985D01*
X708395Y93891D01*
X707999Y93807D01*
X707601Y93733D01*
X707201Y93669D01*
X706799Y93614D01*
X706396Y93570D01*
X705993Y93535D01*
X705588Y93510D01*
X705183Y93495D01*
X704778Y93490D01*
X704373Y93495D01*
X703968Y93510D01*
X703563Y93535D01*
X703160Y93570D01*
X702757Y93614D01*
X702355Y93669D01*
X701955Y93733D01*
X701557Y93807D01*
X701161Y93891D01*
X700766Y93985D01*
X700375Y94088D01*
X699985Y94201D01*
X699599Y94323D01*
X699216Y94455D01*
X698836Y94596D01*
X698460Y94747D01*
X698087Y94906D01*
X697719Y95075D01*
X697355Y95253D01*
X696995Y95439D01*
X696640Y95635D01*
X696290Y95839D01*
X695945Y96051D01*
X695606Y96272D01*
X695271Y96502D01*
X694943Y96739D01*
X694621Y96984D01*
X694304Y97238D01*
X693994Y97498D01*
X693691Y97767D01*
X693394Y98043D01*
X693104Y98326D01*
X692821Y98616D01*
X692545Y98913D01*
X692276Y99216D01*
X692016Y99526D01*
X691762Y99843D01*
X691517Y100165D01*
X691280Y100493D01*
X691050Y100828D01*
X690829Y101167D01*
X690617Y101512D01*
X690413Y101862D01*
X690217Y102217D01*
X690031Y102577D01*
X689853Y102941D01*
X689684Y103309D01*
X689525Y103682D01*
X689374Y104058D01*
X689233Y104438D01*
X689101Y104821D01*
X688979Y105207D01*
X688866Y105597D01*
X688763Y105988D01*
X688669Y106383D01*
X688585Y106779D01*
X688511Y107177D01*
X688447Y107577D01*
X688392Y107979D01*
X688348Y108382D01*
X688313Y108785D01*
X688288Y109190D01*
X688273Y109595D01*
X688268Y110000D01*
D72*
X895141Y124612D02*
X898954Y128425D01*
X898954Y116985D01*
X895141Y116985D02*
X902768Y116985D01*
X756718Y128425D02*
X749091Y128425D01*
X749091Y122705D01*
X752904Y124612D01*
X754811Y124612D01*
X756718Y122705D01*
X756718Y118892D01*
X754811Y116985D01*
X750998Y116985D01*
X749091Y118892D01*
X749091Y93492D02*
X750998Y91585D01*
X754811Y91585D01*
X756718Y93492D01*
X756718Y101118D01*
X754811Y103025D01*
X750998Y103025D01*
X749091Y101118D01*
X749091Y99212D01*
X750998Y97305D01*
X756718Y97305D01*
X898954Y101118D02*
X902768Y103025D01*
X898954Y101118D02*
X895141Y97305D01*
X895141Y93492D01*
X897048Y91585D01*
X900861Y91585D01*
X902768Y93492D01*
X902768Y95398D01*
X900861Y97305D01*
X895141Y97305D01*
X692205Y49984D02*
X692205Y42357D01*
X684579Y49984D01*
X682672Y49984D01*
X680765Y48077D01*
X680765Y44264D01*
X682672Y42357D01*
X696018Y54051D02*
X692205Y57864D01*
X690298Y57864D01*
X690298Y55958D01*
X692205Y55958D01*
X692205Y57864D01*
X680765Y61847D02*
X680765Y69473D01*
X680765Y61847D02*
X686485Y61847D01*
X684579Y65660D01*
X684579Y67567D01*
X686485Y69473D01*
X690298Y69473D01*
X692205Y67567D01*
X692205Y63754D01*
X690298Y61847D01*
X692205Y79261D02*
X680765Y79261D01*
X686485Y73541D01*
X686485Y81167D01*
X871753Y24285D02*
X871753Y12845D01*
X871753Y24285D02*
X879380Y24285D01*
X875566Y18565D02*
X871753Y18565D01*
X883447Y14752D02*
X883447Y22378D01*
X885354Y24285D01*
X889167Y24285D01*
X891074Y22378D01*
X891074Y14752D01*
X889167Y12845D01*
X885354Y12845D01*
X883447Y14752D01*
X891074Y22378D01*
X895141Y14752D02*
X897048Y12845D01*
X900861Y12845D01*
X902767Y14752D01*
X902767Y22378D01*
X900861Y24285D01*
X897048Y24285D01*
X895141Y22378D01*
X895141Y20472D01*
X897048Y18565D01*
X902767Y18565D01*
D73*
X830000Y37610D03*
D74*
X830000Y-4300D03*
D75*
X884864Y77615D03*
D76*
X871148Y64915D03*
D75*
X857432Y77615D03*
D76*
X843716Y64915D03*
D75*
X830000Y77615D03*
D76*
X816284Y64915D03*
D75*
X802568Y77615D03*
D76*
X788852Y64915D03*
D75*
X775136Y77615D03*
D77*
X638872Y93552D02*
X638872Y32452D01*
X620622Y10452D02*
X500622Y10452D01*
X482372Y31452D02*
X482372Y93552D01*
D72*
X495622Y109552D02*
X512322Y109552D01*
D77*
X495622Y109552D02*
X479822Y109552D01*
X479822Y93552D01*
X482372Y93552D01*
D72*
X495622Y109552D02*
X512372Y109552D01*
D77*
X495622Y109552D02*
X625622Y109552D01*
X641422Y109552D01*
X641422Y93552D01*
X638872Y93552D01*
X495622Y91452D02*
X495622Y109552D01*
X495622Y91452D02*
X625622Y91452D01*
X625622Y109552D01*
X500622Y10452D02*
X482372Y31452D01*
X620622Y10452D02*
X638872Y32452D01*
X566622Y32452D02*
X554622Y32452D01*
X566622Y32452D02*
X566622Y26452D01*
X566622Y16452D01*
X554622Y16452D01*
X554622Y26452D01*
X554622Y32452D01*
X554622Y26452D02*
X566622Y26452D01*
X433250Y32220D02*
X433250Y93320D01*
X415000Y10220D02*
X325000Y10220D01*
X306750Y31220D02*
X306750Y93320D01*
D72*
X320000Y109320D02*
X321700Y109320D01*
D77*
X320000Y109320D02*
X304250Y109320D01*
X304250Y93320D01*
X306750Y93320D01*
D72*
X320000Y109320D02*
X321750Y109320D01*
D77*
X320000Y109320D02*
X420000Y109320D01*
X435750Y109320D01*
X435750Y93320D01*
X433250Y93320D01*
X320000Y91220D02*
X320000Y109320D01*
X320000Y91220D02*
X420000Y91220D01*
X420000Y109320D01*
X325000Y10220D02*
X306750Y31220D01*
X415000Y10220D02*
X433250Y32220D01*
X376000Y32220D02*
X364000Y32220D01*
X376000Y32220D02*
X376000Y26220D01*
X376000Y16220D01*
X364000Y16220D01*
X364000Y26220D01*
X364000Y32220D01*
X364000Y26220D02*
X376000Y26220D01*
D72*
X507000Y222000D02*
X525000Y222000D01*
X507000Y222000D02*
X507000Y258000D01*
X525000Y258000D01*
X525000Y222000D01*
D71*
X522477Y208581D02*
X518664Y208581D01*
X518664Y211123D01*
X520570Y209852D02*
X520570Y208581D01*
X522477Y212323D02*
X518664Y212323D01*
X518664Y214229D01*
X519299Y214865D01*
X519935Y214865D01*
X520570Y214229D01*
X521206Y214865D01*
X521841Y214865D01*
X522477Y214229D01*
X522477Y212323D01*
X520570Y212323D02*
X520570Y214229D01*
X519935Y216065D02*
X518664Y217336D01*
X522477Y217336D01*
X522477Y216065D02*
X522477Y218607D01*
D72*
X662000Y331000D02*
X662000Y651000D01*
X662000Y331000D02*
X492000Y331000D01*
X492000Y651000D01*
X662000Y651000D01*
D78*
X385500Y262500D02*
X385500Y239500D01*
X385500Y262500D02*
X433500Y262500D01*
X450500Y245500D01*
X450500Y239500D01*
X450500Y220500D02*
X450500Y214500D01*
X433500Y197500D01*
X385500Y197500D01*
X385500Y220500D01*
X388500Y239500D02*
X388741Y240218D01*
X389000Y240931D01*
X389276Y241636D01*
X389569Y242335D01*
X389879Y243027D01*
X390206Y243710D01*
X390549Y244386D01*
X390909Y245053D01*
X391285Y245711D01*
X391677Y246359D01*
X392085Y246998D01*
X392508Y247626D01*
X392947Y248244D01*
X393400Y248851D01*
X393869Y249447D01*
X394351Y250031D01*
X394848Y250603D01*
X395359Y251163D01*
X395883Y251710D01*
X396420Y252245D01*
X396971Y252766D01*
X397534Y253273D01*
X398109Y253766D01*
X398696Y254246D01*
X399294Y254710D01*
X399904Y255160D01*
X400525Y255595D01*
X401156Y256015D01*
X401797Y256419D01*
X402447Y256807D01*
X403108Y257179D01*
X403776Y257535D01*
X404454Y257875D01*
X405140Y258198D01*
X405833Y258504D01*
X406533Y258793D01*
X407241Y259064D01*
X407954Y259319D01*
X408674Y259556D01*
X409400Y259775D01*
X410130Y259976D01*
X410865Y260160D01*
X411605Y260325D01*
X412348Y260472D01*
X413095Y260601D01*
X413845Y260712D01*
X414597Y260805D01*
X415351Y260879D01*
X416107Y260934D01*
X416864Y260971D01*
X417621Y260990D01*
X418379Y260990D01*
X419136Y260971D01*
X419893Y260934D01*
X420649Y260879D01*
X421403Y260805D01*
X422155Y260712D01*
X422905Y260601D01*
X423652Y260472D01*
X424395Y260325D01*
X425135Y260160D01*
X425870Y259976D01*
X426600Y259775D01*
X427326Y259556D01*
X428046Y259319D01*
X428759Y259064D01*
X429467Y258793D01*
X430167Y258504D01*
X430860Y258198D01*
X431546Y257875D01*
X432224Y257535D01*
X432892Y257179D01*
X433553Y256807D01*
X434203Y256419D01*
X434844Y256015D01*
X435475Y255595D01*
X436096Y255160D01*
X436706Y254710D01*
X437304Y254246D01*
X437891Y253766D01*
X438466Y253273D01*
X439029Y252766D01*
X439580Y252245D01*
X440117Y251710D01*
X440641Y251163D01*
X441152Y250603D01*
X441649Y250031D01*
X442131Y249447D01*
X442600Y248851D01*
X443053Y248244D01*
X443492Y247626D01*
X443915Y246998D01*
X444323Y246359D01*
X444715Y245711D01*
X445091Y245053D01*
X445451Y244386D01*
X445794Y243710D01*
X446121Y243027D01*
X446431Y242335D01*
X446724Y241636D01*
X447000Y240931D01*
X447259Y240218D01*
X447500Y239500D01*
X447500Y220500D02*
X447259Y219782D01*
X447000Y219069D01*
X446724Y218364D01*
X446431Y217665D01*
X446121Y216973D01*
X445794Y216290D01*
X445451Y215614D01*
X445091Y214947D01*
X444715Y214289D01*
X444323Y213641D01*
X443915Y213002D01*
X443492Y212374D01*
X443053Y211756D01*
X442600Y211149D01*
X442131Y210553D01*
X441649Y209969D01*
X441152Y209397D01*
X440641Y208837D01*
X440117Y208290D01*
X439580Y207755D01*
X439029Y207234D01*
X438466Y206727D01*
X437891Y206234D01*
X437304Y205754D01*
X436706Y205290D01*
X436096Y204840D01*
X435475Y204405D01*
X434844Y203985D01*
X434203Y203581D01*
X433553Y203193D01*
X432892Y202821D01*
X432224Y202465D01*
X431546Y202125D01*
X430860Y201802D01*
X430167Y201496D01*
X429467Y201207D01*
X428759Y200936D01*
X428046Y200681D01*
X427326Y200444D01*
X426600Y200225D01*
X425870Y200024D01*
X425135Y199840D01*
X424395Y199675D01*
X423652Y199528D01*
X422905Y199399D01*
X422155Y199288D01*
X421403Y199195D01*
X420649Y199121D01*
X419893Y199066D01*
X419136Y199029D01*
X418379Y199010D01*
X417621Y199010D01*
X416864Y199029D01*
X416107Y199066D01*
X415351Y199121D01*
X414597Y199195D01*
X413845Y199288D01*
X413095Y199399D01*
X412348Y199528D01*
X411605Y199675D01*
X410865Y199840D01*
X410130Y200024D01*
X409400Y200225D01*
X408674Y200444D01*
X407954Y200681D01*
X407241Y200936D01*
X406533Y201207D01*
X405833Y201496D01*
X405140Y201802D01*
X404454Y202125D01*
X403776Y202465D01*
X403108Y202821D01*
X402447Y203193D01*
X401797Y203581D01*
X401156Y203985D01*
X400525Y204405D01*
X399904Y204840D01*
X399294Y205290D01*
X398696Y205754D01*
X398109Y206234D01*
X397534Y206727D01*
X396971Y207234D01*
X396420Y207755D01*
X395883Y208290D01*
X395359Y208837D01*
X394848Y209397D01*
X394351Y209969D01*
X393869Y210553D01*
X393400Y211149D01*
X392947Y211756D01*
X392508Y212374D01*
X392085Y213002D01*
X391677Y213641D01*
X391285Y214289D01*
X390909Y214947D01*
X390549Y215614D01*
X390206Y216290D01*
X389879Y216973D01*
X389569Y217665D01*
X389276Y218364D01*
X389000Y219069D01*
X388741Y219782D01*
X388500Y220500D01*
D71*
X403169Y243305D02*
X402534Y243940D01*
X401263Y243940D01*
X400627Y243305D01*
X400627Y240763D01*
X401263Y240127D01*
X402534Y240127D01*
X403169Y240763D01*
X404369Y243940D02*
X406911Y243940D01*
X406911Y243305D01*
X404369Y240763D01*
X404369Y240127D01*
D79*
X115000Y587500D02*
X83000Y587500D01*
X83000Y636500D01*
X115000Y636500D01*
X115000Y587500D01*
X118500Y585950D02*
X134000Y585950D01*
D72*
X188000Y555000D02*
X188000Y515000D01*
X258000Y515000D02*
X258000Y555000D01*
X233000Y574000D02*
X232997Y573756D01*
X232988Y573513D01*
X232973Y573270D01*
X232953Y573027D01*
X232926Y572785D01*
X232893Y572544D01*
X232855Y572304D01*
X232811Y572064D01*
X232761Y571826D01*
X232705Y571589D01*
X232643Y571353D01*
X232576Y571119D01*
X232503Y570887D01*
X232424Y570656D01*
X232340Y570428D01*
X232250Y570201D01*
X232155Y569977D01*
X232054Y569755D01*
X231948Y569536D01*
X231837Y569320D01*
X231720Y569106D01*
X231599Y568895D01*
X231472Y568687D01*
X231340Y568482D01*
X231203Y568281D01*
X231061Y568083D01*
X230915Y567888D01*
X230764Y567697D01*
X230608Y567510D01*
X230448Y567327D01*
X230283Y567147D01*
X230114Y566972D01*
X229941Y566801D01*
X229763Y566634D01*
X229582Y566472D01*
X229397Y566314D01*
X229208Y566160D01*
X229015Y566011D01*
X228819Y565867D01*
X228619Y565728D01*
X228416Y565593D01*
X228209Y565464D01*
X228000Y565340D01*
X227788Y565221D01*
X227572Y565107D01*
X227355Y564998D01*
X227134Y564895D01*
X226911Y564797D01*
X226686Y564704D01*
X226458Y564617D01*
X226229Y564536D01*
X225997Y564460D01*
X225764Y564390D01*
X225529Y564325D01*
X225293Y564266D01*
X225055Y564213D01*
X224816Y564166D01*
X224576Y564125D01*
X224335Y564090D01*
X224094Y564060D01*
X223851Y564036D01*
X223608Y564019D01*
X223365Y564007D01*
X223122Y564001D01*
X222878Y564001D01*
X222635Y564007D01*
X222392Y564019D01*
X222149Y564036D01*
X221906Y564060D01*
X221665Y564090D01*
X221424Y564125D01*
X221184Y564166D01*
X220945Y564213D01*
X220707Y564266D01*
X220471Y564325D01*
X220236Y564390D01*
X220003Y564460D01*
X219771Y564536D01*
X219542Y564617D01*
X219314Y564704D01*
X219089Y564797D01*
X218866Y564895D01*
X218645Y564998D01*
X218428Y565107D01*
X218212Y565221D01*
X218000Y565340D01*
X217791Y565464D01*
X217584Y565593D01*
X217381Y565728D01*
X217181Y565867D01*
X216985Y566011D01*
X216792Y566160D01*
X216603Y566314D01*
X216418Y566472D01*
X216237Y566634D01*
X216059Y566801D01*
X215886Y566972D01*
X215717Y567147D01*
X215552Y567327D01*
X215392Y567510D01*
X215236Y567697D01*
X215085Y567888D01*
X214939Y568083D01*
X214797Y568281D01*
X214660Y568482D01*
X214528Y568687D01*
X214401Y568895D01*
X214280Y569106D01*
X214163Y569320D01*
X214052Y569536D01*
X213946Y569755D01*
X213845Y569977D01*
X213750Y570201D01*
X213660Y570428D01*
X213576Y570656D01*
X213497Y570887D01*
X213424Y571119D01*
X213357Y571353D01*
X213295Y571589D01*
X213239Y571826D01*
X213189Y572064D01*
X213145Y572304D01*
X213107Y572544D01*
X213074Y572785D01*
X213047Y573027D01*
X213027Y573270D01*
X213012Y573513D01*
X213003Y573756D01*
X213000Y574000D01*
X213000Y496000D02*
X213003Y496244D01*
X213012Y496487D01*
X213027Y496730D01*
X213047Y496973D01*
X213074Y497215D01*
X213107Y497456D01*
X213145Y497696D01*
X213189Y497936D01*
X213239Y498174D01*
X213295Y498411D01*
X213357Y498647D01*
X213424Y498881D01*
X213497Y499113D01*
X213576Y499344D01*
X213660Y499572D01*
X213750Y499799D01*
X213845Y500023D01*
X213946Y500245D01*
X214052Y500464D01*
X214163Y500680D01*
X214280Y500894D01*
X214401Y501105D01*
X214528Y501313D01*
X214660Y501518D01*
X214797Y501719D01*
X214939Y501917D01*
X215085Y502112D01*
X215236Y502303D01*
X215392Y502490D01*
X215552Y502673D01*
X215717Y502853D01*
X215886Y503028D01*
X216059Y503199D01*
X216237Y503366D01*
X216418Y503528D01*
X216603Y503686D01*
X216792Y503840D01*
X216985Y503989D01*
X217181Y504133D01*
X217381Y504272D01*
X217584Y504407D01*
X217791Y504536D01*
X218000Y504660D01*
X218212Y504779D01*
X218428Y504893D01*
X218645Y505002D01*
X218866Y505105D01*
X219089Y505203D01*
X219314Y505296D01*
X219542Y505383D01*
X219771Y505464D01*
X220003Y505540D01*
X220236Y505610D01*
X220471Y505675D01*
X220707Y505734D01*
X220945Y505787D01*
X221184Y505834D01*
X221424Y505875D01*
X221665Y505910D01*
X221906Y505940D01*
X222149Y505964D01*
X222392Y505981D01*
X222635Y505993D01*
X222878Y505999D01*
X223122Y505999D01*
X223365Y505993D01*
X223608Y505981D01*
X223851Y505964D01*
X224094Y505940D01*
X224335Y505910D01*
X224576Y505875D01*
X224816Y505834D01*
X225055Y505787D01*
X225293Y505734D01*
X225529Y505675D01*
X225764Y505610D01*
X225997Y505540D01*
X226229Y505464D01*
X226458Y505383D01*
X226686Y505296D01*
X226911Y505203D01*
X227134Y505105D01*
X227355Y505002D01*
X227572Y504893D01*
X227788Y504779D01*
X228000Y504660D01*
X228209Y504536D01*
X228416Y504407D01*
X228619Y504272D01*
X228819Y504133D01*
X229015Y503989D01*
X229208Y503840D01*
X229397Y503686D01*
X229582Y503528D01*
X229763Y503366D01*
X229941Y503199D01*
X230114Y503028D01*
X230283Y502853D01*
X230448Y502673D01*
X230608Y502490D01*
X230764Y502303D01*
X230915Y502112D01*
X231061Y501917D01*
X231203Y501719D01*
X231340Y501518D01*
X231472Y501313D01*
X231599Y501105D01*
X231720Y500894D01*
X231837Y500680D01*
X231948Y500464D01*
X232054Y500245D01*
X232155Y500023D01*
X232250Y499799D01*
X232340Y499572D01*
X232424Y499344D01*
X232503Y499113D01*
X232576Y498881D01*
X232643Y498647D01*
X232705Y498411D01*
X232761Y498174D01*
X232811Y497936D01*
X232855Y497696D01*
X232893Y497456D01*
X232926Y497215D01*
X232953Y496973D01*
X232973Y496730D01*
X232988Y496487D01*
X232997Y496244D01*
X233000Y496000D01*
X188000Y555000D02*
X188080Y555539D01*
X188173Y556076D01*
X188280Y556610D01*
X188400Y557142D01*
X188533Y557671D01*
X188678Y558196D01*
X188837Y558717D01*
X189008Y559234D01*
X189192Y559747D01*
X189388Y560256D01*
X189597Y560759D01*
X189818Y561257D01*
X190051Y561750D01*
X190297Y562236D01*
X190554Y562717D01*
X190823Y563191D01*
X191103Y563658D01*
X191395Y564118D01*
X191698Y564571D01*
X192012Y565017D01*
X192337Y565454D01*
X192672Y565884D01*
X193018Y566305D01*
X193374Y566717D01*
X193741Y567121D01*
X194117Y567515D01*
X194502Y567900D01*
X194897Y568276D01*
X195301Y568642D01*
X195714Y568997D01*
X196135Y569343D01*
X196565Y569678D01*
X197003Y570002D01*
X197449Y570316D01*
X197902Y570618D01*
X198363Y570910D01*
X198830Y571189D01*
X199304Y571458D01*
X199785Y571714D01*
X200272Y571959D01*
X200765Y572192D01*
X201263Y572413D01*
X201767Y572621D01*
X202275Y572817D01*
X202788Y573000D01*
X203306Y573171D01*
X203828Y573329D01*
X204353Y573474D01*
X204882Y573606D01*
X205413Y573725D01*
X205948Y573831D01*
X206485Y573924D01*
X207024Y574004D01*
X207565Y574070D01*
X208107Y574123D01*
X208651Y574163D01*
X209195Y574189D01*
X209740Y574202D01*
X210285Y574202D01*
X210829Y574189D01*
X211374Y574162D01*
X211917Y574121D01*
X212459Y574067D01*
X213000Y574001D01*
X233000Y574001D02*
X233541Y574067D01*
X234083Y574121D01*
X234626Y574162D01*
X235171Y574189D01*
X235715Y574202D01*
X236260Y574202D01*
X236805Y574189D01*
X237349Y574163D01*
X237893Y574123D01*
X238435Y574070D01*
X238976Y574004D01*
X239515Y573924D01*
X240052Y573831D01*
X240587Y573725D01*
X241118Y573606D01*
X241647Y573474D01*
X242172Y573329D01*
X242694Y573171D01*
X243212Y573000D01*
X243725Y572817D01*
X244233Y572621D01*
X244737Y572413D01*
X245235Y572192D01*
X245728Y571959D01*
X246215Y571714D01*
X246696Y571458D01*
X247170Y571189D01*
X247637Y570910D01*
X248098Y570618D01*
X248551Y570316D01*
X248997Y570002D01*
X249435Y569678D01*
X249865Y569343D01*
X250286Y568997D01*
X250699Y568642D01*
X251103Y568276D01*
X251498Y567900D01*
X251883Y567515D01*
X252259Y567121D01*
X252626Y566717D01*
X252982Y566305D01*
X253328Y565884D01*
X253663Y565454D01*
X253988Y565017D01*
X254302Y564571D01*
X254605Y564118D01*
X254897Y563658D01*
X255177Y563191D01*
X255446Y562717D01*
X255703Y562236D01*
X255949Y561750D01*
X256182Y561257D01*
X256403Y560759D01*
X256612Y560256D01*
X256808Y559747D01*
X256992Y559234D01*
X257163Y558717D01*
X257322Y558196D01*
X257467Y557671D01*
X257600Y557142D01*
X257720Y556610D01*
X257827Y556076D01*
X257920Y555539D01*
X258000Y555000D01*
X213000Y496000D02*
X212460Y495933D01*
X211917Y495880D01*
X211374Y495839D01*
X210830Y495812D01*
X210285Y495799D01*
X209740Y495799D01*
X209195Y495812D01*
X208651Y495838D01*
X208107Y495878D01*
X207565Y495931D01*
X207024Y495998D01*
X206485Y496077D01*
X205948Y496170D01*
X205414Y496276D01*
X204882Y496395D01*
X204353Y496527D01*
X203828Y496673D01*
X203307Y496830D01*
X202789Y497001D01*
X202276Y497184D01*
X201767Y497380D01*
X201264Y497589D01*
X200766Y497809D01*
X200273Y498042D01*
X199786Y498287D01*
X199305Y498543D01*
X198831Y498812D01*
X198363Y499092D01*
X197903Y499383D01*
X197450Y499685D01*
X197004Y499999D01*
X196566Y500323D01*
X196136Y500658D01*
X195715Y501004D01*
X195302Y501359D01*
X194898Y501725D01*
X194503Y502101D01*
X194118Y502486D01*
X193742Y502880D01*
X193376Y503284D01*
X193019Y503696D01*
X192674Y504117D01*
X192338Y504547D01*
X192013Y504984D01*
X191699Y505429D01*
X191396Y505882D01*
X191104Y506343D01*
X190824Y506810D01*
X190555Y507284D01*
X190298Y507764D01*
X190053Y508251D01*
X189819Y508743D01*
X189598Y509241D01*
X189389Y509745D01*
X189193Y510253D01*
X189009Y510766D01*
X188838Y511283D01*
X188679Y511805D01*
X188534Y512330D01*
X188401Y512858D01*
X188281Y513390D01*
X188175Y513924D01*
X188081Y514461D01*
X188001Y515000D01*
X233000Y495999D02*
X233541Y495933D01*
X234083Y495879D01*
X234626Y495838D01*
X235171Y495811D01*
X235715Y495798D01*
X236260Y495798D01*
X236805Y495811D01*
X237349Y495837D01*
X237893Y495877D01*
X238435Y495930D01*
X238976Y495996D01*
X239515Y496076D01*
X240052Y496169D01*
X240587Y496275D01*
X241118Y496394D01*
X241647Y496526D01*
X242172Y496671D01*
X242694Y496829D01*
X243212Y497000D01*
X243725Y497183D01*
X244233Y497379D01*
X244737Y497587D01*
X245235Y497808D01*
X245728Y498041D01*
X246215Y498286D01*
X246696Y498542D01*
X247170Y498811D01*
X247637Y499090D01*
X248098Y499382D01*
X248551Y499684D01*
X248997Y499998D01*
X249435Y500322D01*
X249865Y500657D01*
X250286Y501003D01*
X250699Y501358D01*
X251103Y501724D01*
X251498Y502100D01*
X251883Y502485D01*
X252259Y502879D01*
X252626Y503283D01*
X252982Y503695D01*
X253328Y504116D01*
X253663Y504546D01*
X253988Y504983D01*
X254302Y505429D01*
X254605Y505882D01*
X254897Y506342D01*
X255177Y506809D01*
X255446Y507283D01*
X255703Y507764D01*
X255949Y508250D01*
X256182Y508743D01*
X256403Y509241D01*
X256612Y509744D01*
X256808Y510253D01*
X256992Y510766D01*
X257163Y511283D01*
X257322Y511804D01*
X257467Y512329D01*
X257600Y512858D01*
X257720Y513390D01*
X257827Y513924D01*
X257920Y514461D01*
X258000Y515000D01*
D79*
X251000Y612400D02*
X251000Y646500D01*
X269000Y646500D02*
X269000Y619500D01*
D72*
X217000Y619000D02*
X217000Y589000D01*
X217000Y619000D02*
X187000Y619000D01*
X187000Y589000D01*
X217000Y589000D01*
X283490Y585110D02*
X283490Y602890D01*
X316510Y602890D01*
X316510Y585110D01*
X283490Y585110D01*
D79*
X113000Y397500D02*
X81000Y397500D01*
X81000Y446500D01*
X113000Y446500D01*
X113000Y397500D01*
X116500Y395950D02*
X132000Y395950D01*
D72*
X168000Y341000D02*
X168000Y301000D01*
X238000Y301000D02*
X238000Y341000D01*
X213000Y360000D02*
X212997Y359756D01*
X212988Y359513D01*
X212973Y359270D01*
X212953Y359027D01*
X212926Y358785D01*
X212893Y358544D01*
X212855Y358304D01*
X212811Y358064D01*
X212761Y357826D01*
X212705Y357589D01*
X212643Y357353D01*
X212576Y357119D01*
X212503Y356887D01*
X212424Y356656D01*
X212340Y356428D01*
X212250Y356201D01*
X212155Y355977D01*
X212054Y355755D01*
X211948Y355536D01*
X211837Y355320D01*
X211720Y355106D01*
X211599Y354895D01*
X211472Y354687D01*
X211340Y354482D01*
X211203Y354281D01*
X211061Y354083D01*
X210915Y353888D01*
X210764Y353697D01*
X210608Y353510D01*
X210448Y353327D01*
X210283Y353147D01*
X210114Y352972D01*
X209941Y352801D01*
X209763Y352634D01*
X209582Y352472D01*
X209397Y352314D01*
X209208Y352160D01*
X209015Y352011D01*
X208819Y351867D01*
X208619Y351728D01*
X208416Y351593D01*
X208209Y351464D01*
X208000Y351340D01*
X207788Y351221D01*
X207572Y351107D01*
X207355Y350998D01*
X207134Y350895D01*
X206911Y350797D01*
X206686Y350704D01*
X206458Y350617D01*
X206229Y350536D01*
X205997Y350460D01*
X205764Y350390D01*
X205529Y350325D01*
X205293Y350266D01*
X205055Y350213D01*
X204816Y350166D01*
X204576Y350125D01*
X204335Y350090D01*
X204094Y350060D01*
X203851Y350036D01*
X203608Y350019D01*
X203365Y350007D01*
X203122Y350001D01*
X202878Y350001D01*
X202635Y350007D01*
X202392Y350019D01*
X202149Y350036D01*
X201906Y350060D01*
X201665Y350090D01*
X201424Y350125D01*
X201184Y350166D01*
X200945Y350213D01*
X200707Y350266D01*
X200471Y350325D01*
X200236Y350390D01*
X200003Y350460D01*
X199771Y350536D01*
X199542Y350617D01*
X199314Y350704D01*
X199089Y350797D01*
X198866Y350895D01*
X198645Y350998D01*
X198428Y351107D01*
X198212Y351221D01*
X198000Y351340D01*
X197791Y351464D01*
X197584Y351593D01*
X197381Y351728D01*
X197181Y351867D01*
X196985Y352011D01*
X196792Y352160D01*
X196603Y352314D01*
X196418Y352472D01*
X196237Y352634D01*
X196059Y352801D01*
X195886Y352972D01*
X195717Y353147D01*
X195552Y353327D01*
X195392Y353510D01*
X195236Y353697D01*
X195085Y353888D01*
X194939Y354083D01*
X194797Y354281D01*
X194660Y354482D01*
X194528Y354687D01*
X194401Y354895D01*
X194280Y355106D01*
X194163Y355320D01*
X194052Y355536D01*
X193946Y355755D01*
X193845Y355977D01*
X193750Y356201D01*
X193660Y356428D01*
X193576Y356656D01*
X193497Y356887D01*
X193424Y357119D01*
X193357Y357353D01*
X193295Y357589D01*
X193239Y357826D01*
X193189Y358064D01*
X193145Y358304D01*
X193107Y358544D01*
X193074Y358785D01*
X193047Y359027D01*
X193027Y359270D01*
X193012Y359513D01*
X193003Y359756D01*
X193000Y360000D01*
X193000Y282000D02*
X193003Y282244D01*
X193012Y282487D01*
X193027Y282730D01*
X193047Y282973D01*
X193074Y283215D01*
X193107Y283456D01*
X193145Y283696D01*
X193189Y283936D01*
X193239Y284174D01*
X193295Y284411D01*
X193357Y284647D01*
X193424Y284881D01*
X193497Y285113D01*
X193576Y285344D01*
X193660Y285572D01*
X193750Y285799D01*
X193845Y286023D01*
X193946Y286245D01*
X194052Y286464D01*
X194163Y286680D01*
X194280Y286894D01*
X194401Y287105D01*
X194528Y287313D01*
X194660Y287518D01*
X194797Y287719D01*
X194939Y287917D01*
X195085Y288112D01*
X195236Y288303D01*
X195392Y288490D01*
X195552Y288673D01*
X195717Y288853D01*
X195886Y289028D01*
X196059Y289199D01*
X196237Y289366D01*
X196418Y289528D01*
X196603Y289686D01*
X196792Y289840D01*
X196985Y289989D01*
X197181Y290133D01*
X197381Y290272D01*
X197584Y290407D01*
X197791Y290536D01*
X198000Y290660D01*
X198212Y290779D01*
X198428Y290893D01*
X198645Y291002D01*
X198866Y291105D01*
X199089Y291203D01*
X199314Y291296D01*
X199542Y291383D01*
X199771Y291464D01*
X200003Y291540D01*
X200236Y291610D01*
X200471Y291675D01*
X200707Y291734D01*
X200945Y291787D01*
X201184Y291834D01*
X201424Y291875D01*
X201665Y291910D01*
X201906Y291940D01*
X202149Y291964D01*
X202392Y291981D01*
X202635Y291993D01*
X202878Y291999D01*
X203122Y291999D01*
X203365Y291993D01*
X203608Y291981D01*
X203851Y291964D01*
X204094Y291940D01*
X204335Y291910D01*
X204576Y291875D01*
X204816Y291834D01*
X205055Y291787D01*
X205293Y291734D01*
X205529Y291675D01*
X205764Y291610D01*
X205997Y291540D01*
X206229Y291464D01*
X206458Y291383D01*
X206686Y291296D01*
X206911Y291203D01*
X207134Y291105D01*
X207355Y291002D01*
X207572Y290893D01*
X207788Y290779D01*
X208000Y290660D01*
X208209Y290536D01*
X208416Y290407D01*
X208619Y290272D01*
X208819Y290133D01*
X209015Y289989D01*
X209208Y289840D01*
X209397Y289686D01*
X209582Y289528D01*
X209763Y289366D01*
X209941Y289199D01*
X210114Y289028D01*
X210283Y288853D01*
X210448Y288673D01*
X210608Y288490D01*
X210764Y288303D01*
X210915Y288112D01*
X211061Y287917D01*
X211203Y287719D01*
X211340Y287518D01*
X211472Y287313D01*
X211599Y287105D01*
X211720Y286894D01*
X211837Y286680D01*
X211948Y286464D01*
X212054Y286245D01*
X212155Y286023D01*
X212250Y285799D01*
X212340Y285572D01*
X212424Y285344D01*
X212503Y285113D01*
X212576Y284881D01*
X212643Y284647D01*
X212705Y284411D01*
X212761Y284174D01*
X212811Y283936D01*
X212855Y283696D01*
X212893Y283456D01*
X212926Y283215D01*
X212953Y282973D01*
X212973Y282730D01*
X212988Y282487D01*
X212997Y282244D01*
X213000Y282000D01*
X168000Y341000D02*
X168080Y341539D01*
X168173Y342076D01*
X168280Y342610D01*
X168400Y343142D01*
X168533Y343671D01*
X168678Y344196D01*
X168837Y344717D01*
X169008Y345234D01*
X169192Y345747D01*
X169388Y346256D01*
X169597Y346759D01*
X169818Y347257D01*
X170051Y347750D01*
X170297Y348236D01*
X170554Y348717D01*
X170823Y349191D01*
X171103Y349658D01*
X171395Y350118D01*
X171698Y350571D01*
X172012Y351017D01*
X172337Y351454D01*
X172672Y351884D01*
X173018Y352305D01*
X173374Y352717D01*
X173741Y353121D01*
X174117Y353515D01*
X174502Y353900D01*
X174897Y354276D01*
X175301Y354642D01*
X175714Y354997D01*
X176135Y355343D01*
X176565Y355678D01*
X177003Y356002D01*
X177449Y356316D01*
X177902Y356618D01*
X178363Y356910D01*
X178830Y357189D01*
X179304Y357458D01*
X179785Y357714D01*
X180272Y357959D01*
X180765Y358192D01*
X181263Y358413D01*
X181767Y358621D01*
X182275Y358817D01*
X182788Y359000D01*
X183306Y359171D01*
X183828Y359329D01*
X184353Y359474D01*
X184882Y359606D01*
X185413Y359725D01*
X185948Y359831D01*
X186485Y359924D01*
X187024Y360004D01*
X187565Y360070D01*
X188107Y360123D01*
X188651Y360163D01*
X189195Y360189D01*
X189740Y360202D01*
X190285Y360202D01*
X190829Y360189D01*
X191374Y360162D01*
X191917Y360121D01*
X192459Y360067D01*
X193000Y360001D01*
X213000Y360001D02*
X213541Y360067D01*
X214083Y360121D01*
X214626Y360162D01*
X215171Y360189D01*
X215715Y360202D01*
X216260Y360202D01*
X216805Y360189D01*
X217349Y360163D01*
X217893Y360123D01*
X218435Y360070D01*
X218976Y360004D01*
X219515Y359924D01*
X220052Y359831D01*
X220587Y359725D01*
X221118Y359606D01*
X221647Y359474D01*
X222172Y359329D01*
X222694Y359171D01*
X223212Y359000D01*
X223725Y358817D01*
X224233Y358621D01*
X224737Y358413D01*
X225235Y358192D01*
X225728Y357959D01*
X226215Y357714D01*
X226696Y357458D01*
X227170Y357189D01*
X227637Y356910D01*
X228098Y356618D01*
X228551Y356316D01*
X228997Y356002D01*
X229435Y355678D01*
X229865Y355343D01*
X230286Y354997D01*
X230699Y354642D01*
X231103Y354276D01*
X231498Y353900D01*
X231883Y353515D01*
X232259Y353121D01*
X232626Y352717D01*
X232982Y352305D01*
X233328Y351884D01*
X233663Y351454D01*
X233988Y351017D01*
X234302Y350571D01*
X234605Y350118D01*
X234897Y349658D01*
X235177Y349191D01*
X235446Y348717D01*
X235703Y348236D01*
X235949Y347750D01*
X236182Y347257D01*
X236403Y346759D01*
X236612Y346256D01*
X236808Y345747D01*
X236992Y345234D01*
X237163Y344717D01*
X237322Y344196D01*
X237467Y343671D01*
X237600Y343142D01*
X237720Y342610D01*
X237827Y342076D01*
X237920Y341539D01*
X238000Y341000D01*
X193000Y282000D02*
X192460Y281933D01*
X191917Y281880D01*
X191374Y281839D01*
X190830Y281812D01*
X190285Y281799D01*
X189740Y281799D01*
X189195Y281812D01*
X188651Y281838D01*
X188107Y281878D01*
X187565Y281931D01*
X187024Y281998D01*
X186485Y282077D01*
X185948Y282170D01*
X185414Y282276D01*
X184882Y282395D01*
X184353Y282527D01*
X183828Y282673D01*
X183307Y282830D01*
X182789Y283001D01*
X182276Y283184D01*
X181767Y283380D01*
X181264Y283589D01*
X180766Y283809D01*
X180273Y284042D01*
X179786Y284287D01*
X179305Y284543D01*
X178831Y284812D01*
X178363Y285092D01*
X177903Y285383D01*
X177450Y285685D01*
X177004Y285999D01*
X176566Y286323D01*
X176136Y286658D01*
X175715Y287004D01*
X175302Y287359D01*
X174898Y287725D01*
X174503Y288101D01*
X174118Y288486D01*
X173742Y288880D01*
X173376Y289284D01*
X173019Y289696D01*
X172674Y290117D01*
X172338Y290547D01*
X172013Y290984D01*
X171699Y291429D01*
X171396Y291882D01*
X171104Y292343D01*
X170824Y292810D01*
X170555Y293284D01*
X170298Y293764D01*
X170053Y294251D01*
X169819Y294743D01*
X169598Y295241D01*
X169389Y295745D01*
X169193Y296253D01*
X169009Y296766D01*
X168838Y297283D01*
X168679Y297805D01*
X168534Y298330D01*
X168401Y298858D01*
X168281Y299390D01*
X168175Y299924D01*
X168081Y300461D01*
X168001Y301000D01*
X213000Y281999D02*
X213541Y281933D01*
X214083Y281879D01*
X214626Y281838D01*
X215171Y281811D01*
X215715Y281798D01*
X216260Y281798D01*
X216805Y281811D01*
X217349Y281837D01*
X217893Y281877D01*
X218435Y281930D01*
X218976Y281996D01*
X219515Y282076D01*
X220052Y282169D01*
X220587Y282275D01*
X221118Y282394D01*
X221647Y282526D01*
X222172Y282671D01*
X222694Y282829D01*
X223212Y283000D01*
X223725Y283183D01*
X224233Y283379D01*
X224737Y283587D01*
X225235Y283808D01*
X225728Y284041D01*
X226215Y284286D01*
X226696Y284542D01*
X227170Y284811D01*
X227637Y285090D01*
X228098Y285382D01*
X228551Y285684D01*
X228997Y285998D01*
X229435Y286322D01*
X229865Y286657D01*
X230286Y287003D01*
X230699Y287358D01*
X231103Y287724D01*
X231498Y288100D01*
X231883Y288485D01*
X232259Y288879D01*
X232626Y289283D01*
X232982Y289695D01*
X233328Y290116D01*
X233663Y290546D01*
X233988Y290983D01*
X234302Y291429D01*
X234605Y291882D01*
X234897Y292342D01*
X235177Y292809D01*
X235446Y293283D01*
X235703Y293764D01*
X235949Y294250D01*
X236182Y294743D01*
X236403Y295241D01*
X236612Y295744D01*
X236808Y296253D01*
X236992Y296766D01*
X237163Y297283D01*
X237322Y297804D01*
X237467Y298329D01*
X237600Y298858D01*
X237720Y299390D01*
X237827Y299924D01*
X237920Y300461D01*
X238000Y301000D01*
D79*
X239000Y430400D02*
X239000Y464500D01*
X257000Y464500D02*
X257000Y437500D01*
D72*
X205000Y413000D02*
X205000Y383000D01*
X205000Y413000D02*
X175000Y413000D01*
X175000Y383000D01*
X205000Y383000D01*
X270490Y389110D02*
X270490Y406890D01*
X303510Y406890D01*
X303510Y389110D01*
X270490Y389110D01*
D79*
X98000Y175500D02*
X66000Y175500D01*
X66000Y224500D01*
X98000Y224500D01*
X98000Y175500D01*
X101500Y173950D02*
X117000Y173950D01*
D72*
X165000Y136000D02*
X165000Y96000D01*
X235000Y96000D02*
X235000Y136000D01*
X210000Y155000D02*
X209997Y154756D01*
X209988Y154513D01*
X209973Y154270D01*
X209953Y154027D01*
X209926Y153785D01*
X209893Y153544D01*
X209855Y153304D01*
X209811Y153064D01*
X209761Y152826D01*
X209705Y152589D01*
X209643Y152353D01*
X209576Y152119D01*
X209503Y151887D01*
X209424Y151656D01*
X209340Y151428D01*
X209250Y151201D01*
X209155Y150977D01*
X209054Y150755D01*
X208948Y150536D01*
X208837Y150320D01*
X208720Y150106D01*
X208599Y149895D01*
X208472Y149687D01*
X208340Y149482D01*
X208203Y149281D01*
X208061Y149083D01*
X207915Y148888D01*
X207764Y148697D01*
X207608Y148510D01*
X207448Y148327D01*
X207283Y148147D01*
X207114Y147972D01*
X206941Y147801D01*
X206763Y147634D01*
X206582Y147472D01*
X206397Y147314D01*
X206208Y147160D01*
X206015Y147011D01*
X205819Y146867D01*
X205619Y146728D01*
X205416Y146593D01*
X205209Y146464D01*
X205000Y146340D01*
X204788Y146221D01*
X204572Y146107D01*
X204355Y145998D01*
X204134Y145895D01*
X203911Y145797D01*
X203686Y145704D01*
X203458Y145617D01*
X203229Y145536D01*
X202997Y145460D01*
X202764Y145390D01*
X202529Y145325D01*
X202293Y145266D01*
X202055Y145213D01*
X201816Y145166D01*
X201576Y145125D01*
X201335Y145090D01*
X201094Y145060D01*
X200851Y145036D01*
X200608Y145019D01*
X200365Y145007D01*
X200122Y145001D01*
X199878Y145001D01*
X199635Y145007D01*
X199392Y145019D01*
X199149Y145036D01*
X198906Y145060D01*
X198665Y145090D01*
X198424Y145125D01*
X198184Y145166D01*
X197945Y145213D01*
X197707Y145266D01*
X197471Y145325D01*
X197236Y145390D01*
X197003Y145460D01*
X196771Y145536D01*
X196542Y145617D01*
X196314Y145704D01*
X196089Y145797D01*
X195866Y145895D01*
X195645Y145998D01*
X195428Y146107D01*
X195212Y146221D01*
X195000Y146340D01*
X194791Y146464D01*
X194584Y146593D01*
X194381Y146728D01*
X194181Y146867D01*
X193985Y147011D01*
X193792Y147160D01*
X193603Y147314D01*
X193418Y147472D01*
X193237Y147634D01*
X193059Y147801D01*
X192886Y147972D01*
X192717Y148147D01*
X192552Y148327D01*
X192392Y148510D01*
X192236Y148697D01*
X192085Y148888D01*
X191939Y149083D01*
X191797Y149281D01*
X191660Y149482D01*
X191528Y149687D01*
X191401Y149895D01*
X191280Y150106D01*
X191163Y150320D01*
X191052Y150536D01*
X190946Y150755D01*
X190845Y150977D01*
X190750Y151201D01*
X190660Y151428D01*
X190576Y151656D01*
X190497Y151887D01*
X190424Y152119D01*
X190357Y152353D01*
X190295Y152589D01*
X190239Y152826D01*
X190189Y153064D01*
X190145Y153304D01*
X190107Y153544D01*
X190074Y153785D01*
X190047Y154027D01*
X190027Y154270D01*
X190012Y154513D01*
X190003Y154756D01*
X190000Y155000D01*
X190000Y77000D02*
X190003Y77244D01*
X190012Y77487D01*
X190027Y77730D01*
X190047Y77973D01*
X190074Y78215D01*
X190107Y78456D01*
X190145Y78696D01*
X190189Y78936D01*
X190239Y79174D01*
X190295Y79411D01*
X190357Y79647D01*
X190424Y79881D01*
X190497Y80113D01*
X190576Y80344D01*
X190660Y80572D01*
X190750Y80799D01*
X190845Y81023D01*
X190946Y81245D01*
X191052Y81464D01*
X191163Y81680D01*
X191280Y81894D01*
X191401Y82105D01*
X191528Y82313D01*
X191660Y82518D01*
X191797Y82719D01*
X191939Y82917D01*
X192085Y83112D01*
X192236Y83303D01*
X192392Y83490D01*
X192552Y83673D01*
X192717Y83853D01*
X192886Y84028D01*
X193059Y84199D01*
X193237Y84366D01*
X193418Y84528D01*
X193603Y84686D01*
X193792Y84840D01*
X193985Y84989D01*
X194181Y85133D01*
X194381Y85272D01*
X194584Y85407D01*
X194791Y85536D01*
X195000Y85660D01*
X195212Y85779D01*
X195428Y85893D01*
X195645Y86002D01*
X195866Y86105D01*
X196089Y86203D01*
X196314Y86296D01*
X196542Y86383D01*
X196771Y86464D01*
X197003Y86540D01*
X197236Y86610D01*
X197471Y86675D01*
X197707Y86734D01*
X197945Y86787D01*
X198184Y86834D01*
X198424Y86875D01*
X198665Y86910D01*
X198906Y86940D01*
X199149Y86964D01*
X199392Y86981D01*
X199635Y86993D01*
X199878Y86999D01*
X200122Y86999D01*
X200365Y86993D01*
X200608Y86981D01*
X200851Y86964D01*
X201094Y86940D01*
X201335Y86910D01*
X201576Y86875D01*
X201816Y86834D01*
X202055Y86787D01*
X202293Y86734D01*
X202529Y86675D01*
X202764Y86610D01*
X202997Y86540D01*
X203229Y86464D01*
X203458Y86383D01*
X203686Y86296D01*
X203911Y86203D01*
X204134Y86105D01*
X204355Y86002D01*
X204572Y85893D01*
X204788Y85779D01*
X205000Y85660D01*
X205209Y85536D01*
X205416Y85407D01*
X205619Y85272D01*
X205819Y85133D01*
X206015Y84989D01*
X206208Y84840D01*
X206397Y84686D01*
X206582Y84528D01*
X206763Y84366D01*
X206941Y84199D01*
X207114Y84028D01*
X207283Y83853D01*
X207448Y83673D01*
X207608Y83490D01*
X207764Y83303D01*
X207915Y83112D01*
X208061Y82917D01*
X208203Y82719D01*
X208340Y82518D01*
X208472Y82313D01*
X208599Y82105D01*
X208720Y81894D01*
X208837Y81680D01*
X208948Y81464D01*
X209054Y81245D01*
X209155Y81023D01*
X209250Y80799D01*
X209340Y80572D01*
X209424Y80344D01*
X209503Y80113D01*
X209576Y79881D01*
X209643Y79647D01*
X209705Y79411D01*
X209761Y79174D01*
X209811Y78936D01*
X209855Y78696D01*
X209893Y78456D01*
X209926Y78215D01*
X209953Y77973D01*
X209973Y77730D01*
X209988Y77487D01*
X209997Y77244D01*
X210000Y77000D01*
X165000Y136000D02*
X165080Y136539D01*
X165173Y137076D01*
X165280Y137610D01*
X165400Y138142D01*
X165533Y138671D01*
X165678Y139196D01*
X165837Y139717D01*
X166008Y140234D01*
X166192Y140747D01*
X166388Y141256D01*
X166597Y141759D01*
X166818Y142257D01*
X167051Y142750D01*
X167297Y143236D01*
X167554Y143717D01*
X167823Y144191D01*
X168103Y144658D01*
X168395Y145118D01*
X168698Y145571D01*
X169012Y146017D01*
X169337Y146454D01*
X169672Y146884D01*
X170018Y147305D01*
X170374Y147717D01*
X170741Y148121D01*
X171117Y148515D01*
X171502Y148900D01*
X171897Y149276D01*
X172301Y149642D01*
X172714Y149997D01*
X173135Y150343D01*
X173565Y150678D01*
X174003Y151002D01*
X174449Y151316D01*
X174902Y151618D01*
X175363Y151910D01*
X175830Y152189D01*
X176304Y152458D01*
X176785Y152714D01*
X177272Y152959D01*
X177765Y153192D01*
X178263Y153413D01*
X178767Y153621D01*
X179275Y153817D01*
X179788Y154000D01*
X180306Y154171D01*
X180828Y154329D01*
X181353Y154474D01*
X181882Y154606D01*
X182413Y154725D01*
X182948Y154831D01*
X183485Y154924D01*
X184024Y155004D01*
X184565Y155070D01*
X185107Y155123D01*
X185651Y155163D01*
X186195Y155189D01*
X186740Y155202D01*
X187285Y155202D01*
X187829Y155189D01*
X188374Y155162D01*
X188917Y155121D01*
X189459Y155067D01*
X190000Y155001D01*
X210000Y155001D02*
X210541Y155067D01*
X211083Y155121D01*
X211626Y155162D01*
X212171Y155189D01*
X212715Y155202D01*
X213260Y155202D01*
X213805Y155189D01*
X214349Y155163D01*
X214893Y155123D01*
X215435Y155070D01*
X215976Y155004D01*
X216515Y154924D01*
X217052Y154831D01*
X217587Y154725D01*
X218118Y154606D01*
X218647Y154474D01*
X219172Y154329D01*
X219694Y154171D01*
X220212Y154000D01*
X220725Y153817D01*
X221233Y153621D01*
X221737Y153413D01*
X222235Y153192D01*
X222728Y152959D01*
X223215Y152714D01*
X223696Y152458D01*
X224170Y152189D01*
X224637Y151910D01*
X225098Y151618D01*
X225551Y151316D01*
X225997Y151002D01*
X226435Y150678D01*
X226865Y150343D01*
X227286Y149997D01*
X227699Y149642D01*
X228103Y149276D01*
X228498Y148900D01*
X228883Y148515D01*
X229259Y148121D01*
X229626Y147717D01*
X229982Y147305D01*
X230328Y146884D01*
X230663Y146454D01*
X230988Y146017D01*
X231302Y145571D01*
X231605Y145118D01*
X231897Y144658D01*
X232177Y144191D01*
X232446Y143717D01*
X232703Y143236D01*
X232949Y142750D01*
X233182Y142257D01*
X233403Y141759D01*
X233612Y141256D01*
X233808Y140747D01*
X233992Y140234D01*
X234163Y139717D01*
X234322Y139196D01*
X234467Y138671D01*
X234600Y138142D01*
X234720Y137610D01*
X234827Y137076D01*
X234920Y136539D01*
X235000Y136000D01*
X190000Y77000D02*
X189460Y76933D01*
X188917Y76880D01*
X188374Y76839D01*
X187830Y76812D01*
X187285Y76799D01*
X186740Y76799D01*
X186195Y76812D01*
X185651Y76838D01*
X185107Y76878D01*
X184565Y76931D01*
X184024Y76998D01*
X183485Y77077D01*
X182948Y77170D01*
X182414Y77276D01*
X181882Y77395D01*
X181353Y77527D01*
X180828Y77673D01*
X180307Y77830D01*
X179789Y78001D01*
X179276Y78184D01*
X178767Y78380D01*
X178264Y78589D01*
X177766Y78809D01*
X177273Y79042D01*
X176786Y79287D01*
X176305Y79543D01*
X175831Y79812D01*
X175363Y80092D01*
X174903Y80383D01*
X174450Y80685D01*
X174004Y80999D01*
X173566Y81323D01*
X173136Y81658D01*
X172715Y82004D01*
X172302Y82359D01*
X171898Y82725D01*
X171503Y83101D01*
X171118Y83486D01*
X170742Y83880D01*
X170376Y84284D01*
X170019Y84696D01*
X169674Y85117D01*
X169338Y85547D01*
X169013Y85984D01*
X168699Y86429D01*
X168396Y86882D01*
X168104Y87343D01*
X167824Y87810D01*
X167555Y88284D01*
X167298Y88764D01*
X167053Y89251D01*
X166819Y89743D01*
X166598Y90241D01*
X166389Y90745D01*
X166193Y91253D01*
X166009Y91766D01*
X165838Y92283D01*
X165679Y92805D01*
X165534Y93330D01*
X165401Y93858D01*
X165281Y94390D01*
X165175Y94924D01*
X165081Y95461D01*
X165001Y96000D01*
X210000Y76999D02*
X210541Y76933D01*
X211083Y76879D01*
X211626Y76838D01*
X212171Y76811D01*
X212715Y76798D01*
X213260Y76798D01*
X213805Y76811D01*
X214349Y76837D01*
X214893Y76877D01*
X215435Y76930D01*
X215976Y76996D01*
X216515Y77076D01*
X217052Y77169D01*
X217587Y77275D01*
X218118Y77394D01*
X218647Y77526D01*
X219172Y77671D01*
X219694Y77829D01*
X220212Y78000D01*
X220725Y78183D01*
X221233Y78379D01*
X221737Y78587D01*
X222235Y78808D01*
X222728Y79041D01*
X223215Y79286D01*
X223696Y79542D01*
X224170Y79811D01*
X224637Y80090D01*
X225098Y80382D01*
X225551Y80684D01*
X225997Y80998D01*
X226435Y81322D01*
X226865Y81657D01*
X227286Y82003D01*
X227699Y82358D01*
X228103Y82724D01*
X228498Y83100D01*
X228883Y83485D01*
X229259Y83879D01*
X229626Y84283D01*
X229982Y84695D01*
X230328Y85116D01*
X230663Y85546D01*
X230988Y85983D01*
X231302Y86429D01*
X231605Y86882D01*
X231897Y87342D01*
X232177Y87809D01*
X232446Y88283D01*
X232703Y88764D01*
X232949Y89250D01*
X233182Y89743D01*
X233403Y90241D01*
X233612Y90744D01*
X233808Y91253D01*
X233992Y91766D01*
X234163Y92283D01*
X234322Y92804D01*
X234467Y93329D01*
X234600Y93858D01*
X234720Y94390D01*
X234827Y94924D01*
X234920Y95461D01*
X235000Y96000D01*
D79*
X226000Y206400D02*
X226000Y240500D01*
X244000Y240500D02*
X244000Y213500D01*
D72*
X200000Y199000D02*
X200000Y169000D01*
X200000Y199000D02*
X170000Y199000D01*
X170000Y169000D01*
X200000Y169000D01*
X271490Y211110D02*
X271490Y228890D01*
X304510Y228890D01*
X304510Y211110D01*
X271490Y211110D01*
D78*
X64500Y547500D02*
X64500Y570500D01*
X112500Y570500D01*
X129500Y553500D01*
X129500Y547500D01*
X129500Y528500D02*
X129500Y522500D01*
X112500Y505500D01*
X64500Y505500D01*
X64500Y528500D01*
X67500Y547500D02*
X67741Y548218D01*
X68000Y548931D01*
X68276Y549636D01*
X68569Y550335D01*
X68879Y551027D01*
X69206Y551710D01*
X69549Y552386D01*
X69909Y553053D01*
X70285Y553711D01*
X70677Y554359D01*
X71085Y554998D01*
X71508Y555626D01*
X71947Y556244D01*
X72400Y556851D01*
X72869Y557447D01*
X73351Y558031D01*
X73848Y558603D01*
X74359Y559163D01*
X74883Y559710D01*
X75420Y560245D01*
X75971Y560766D01*
X76534Y561273D01*
X77109Y561766D01*
X77696Y562246D01*
X78294Y562710D01*
X78904Y563160D01*
X79525Y563595D01*
X80156Y564015D01*
X80797Y564419D01*
X81447Y564807D01*
X82108Y565179D01*
X82776Y565535D01*
X83454Y565875D01*
X84140Y566198D01*
X84833Y566504D01*
X85533Y566793D01*
X86241Y567064D01*
X86954Y567319D01*
X87674Y567556D01*
X88400Y567775D01*
X89130Y567976D01*
X89865Y568160D01*
X90605Y568325D01*
X91348Y568472D01*
X92095Y568601D01*
X92845Y568712D01*
X93597Y568805D01*
X94351Y568879D01*
X95107Y568934D01*
X95864Y568971D01*
X96621Y568990D01*
X97379Y568990D01*
X98136Y568971D01*
X98893Y568934D01*
X99649Y568879D01*
X100403Y568805D01*
X101155Y568712D01*
X101905Y568601D01*
X102652Y568472D01*
X103395Y568325D01*
X104135Y568160D01*
X104870Y567976D01*
X105600Y567775D01*
X106326Y567556D01*
X107046Y567319D01*
X107759Y567064D01*
X108467Y566793D01*
X109167Y566504D01*
X109860Y566198D01*
X110546Y565875D01*
X111224Y565535D01*
X111892Y565179D01*
X112553Y564807D01*
X113203Y564419D01*
X113844Y564015D01*
X114475Y563595D01*
X115096Y563160D01*
X115706Y562710D01*
X116304Y562246D01*
X116891Y561766D01*
X117466Y561273D01*
X118029Y560766D01*
X118580Y560245D01*
X119117Y559710D01*
X119641Y559163D01*
X120152Y558603D01*
X120649Y558031D01*
X121131Y557447D01*
X121600Y556851D01*
X122053Y556244D01*
X122492Y555626D01*
X122915Y554998D01*
X123323Y554359D01*
X123715Y553711D01*
X124091Y553053D01*
X124451Y552386D01*
X124794Y551710D01*
X125121Y551027D01*
X125431Y550335D01*
X125724Y549636D01*
X126000Y548931D01*
X126259Y548218D01*
X126500Y547500D01*
X126500Y528500D02*
X126259Y527782D01*
X126000Y527069D01*
X125724Y526364D01*
X125431Y525665D01*
X125121Y524973D01*
X124794Y524290D01*
X124451Y523614D01*
X124091Y522947D01*
X123715Y522289D01*
X123323Y521641D01*
X122915Y521002D01*
X122492Y520374D01*
X122053Y519756D01*
X121600Y519149D01*
X121131Y518553D01*
X120649Y517969D01*
X120152Y517397D01*
X119641Y516837D01*
X119117Y516290D01*
X118580Y515755D01*
X118029Y515234D01*
X117466Y514727D01*
X116891Y514234D01*
X116304Y513754D01*
X115706Y513290D01*
X115096Y512840D01*
X114475Y512405D01*
X113844Y511985D01*
X113203Y511581D01*
X112553Y511193D01*
X111892Y510821D01*
X111224Y510465D01*
X110546Y510125D01*
X109860Y509802D01*
X109167Y509496D01*
X108467Y509207D01*
X107759Y508936D01*
X107046Y508681D01*
X106326Y508444D01*
X105600Y508225D01*
X104870Y508024D01*
X104135Y507840D01*
X103395Y507675D01*
X102652Y507528D01*
X101905Y507399D01*
X101155Y507288D01*
X100403Y507195D01*
X99649Y507121D01*
X98893Y507066D01*
X98136Y507029D01*
X97379Y507010D01*
X96621Y507010D01*
X95864Y507029D01*
X95107Y507066D01*
X94351Y507121D01*
X93597Y507195D01*
X92845Y507288D01*
X92095Y507399D01*
X91348Y507528D01*
X90605Y507675D01*
X89865Y507840D01*
X89130Y508024D01*
X88400Y508225D01*
X87674Y508444D01*
X86954Y508681D01*
X86241Y508936D01*
X85533Y509207D01*
X84833Y509496D01*
X84140Y509802D01*
X83454Y510125D01*
X82776Y510465D01*
X82108Y510821D01*
X81447Y511193D01*
X80797Y511581D01*
X80156Y511985D01*
X79525Y512405D01*
X78904Y512840D01*
X78294Y513290D01*
X77696Y513754D01*
X77109Y514234D01*
X76534Y514727D01*
X75971Y515234D01*
X75420Y515755D01*
X74883Y516290D01*
X74359Y516837D01*
X73848Y517397D01*
X73351Y517969D01*
X72869Y518553D01*
X72400Y519149D01*
X71947Y519756D01*
X71508Y520374D01*
X71085Y521002D01*
X70677Y521641D01*
X70285Y522289D01*
X69909Y522947D01*
X69549Y523614D01*
X69206Y524290D01*
X68879Y524973D01*
X68569Y525665D01*
X68276Y526364D01*
X68000Y527069D01*
X67741Y527782D01*
X67500Y528500D01*
X64500Y387500D02*
X64500Y364500D01*
X64500Y387500D02*
X112500Y387500D01*
X129500Y370500D01*
X129500Y364500D01*
X129500Y345500D02*
X129500Y339500D01*
X112500Y322500D01*
X64500Y322500D01*
X64500Y345500D01*
X67500Y364500D02*
X67741Y365218D01*
X68000Y365931D01*
X68276Y366636D01*
X68569Y367335D01*
X68879Y368027D01*
X69206Y368710D01*
X69549Y369386D01*
X69909Y370053D01*
X70285Y370711D01*
X70677Y371359D01*
X71085Y371998D01*
X71508Y372626D01*
X71947Y373244D01*
X72400Y373851D01*
X72869Y374447D01*
X73351Y375031D01*
X73848Y375603D01*
X74359Y376163D01*
X74883Y376710D01*
X75420Y377245D01*
X75971Y377766D01*
X76534Y378273D01*
X77109Y378766D01*
X77696Y379246D01*
X78294Y379710D01*
X78904Y380160D01*
X79525Y380595D01*
X80156Y381015D01*
X80797Y381419D01*
X81447Y381807D01*
X82108Y382179D01*
X82776Y382535D01*
X83454Y382875D01*
X84140Y383198D01*
X84833Y383504D01*
X85533Y383793D01*
X86241Y384064D01*
X86954Y384319D01*
X87674Y384556D01*
X88400Y384775D01*
X89130Y384976D01*
X89865Y385160D01*
X90605Y385325D01*
X91348Y385472D01*
X92095Y385601D01*
X92845Y385712D01*
X93597Y385805D01*
X94351Y385879D01*
X95107Y385934D01*
X95864Y385971D01*
X96621Y385990D01*
X97379Y385990D01*
X98136Y385971D01*
X98893Y385934D01*
X99649Y385879D01*
X100403Y385805D01*
X101155Y385712D01*
X101905Y385601D01*
X102652Y385472D01*
X103395Y385325D01*
X104135Y385160D01*
X104870Y384976D01*
X105600Y384775D01*
X106326Y384556D01*
X107046Y384319D01*
X107759Y384064D01*
X108467Y383793D01*
X109167Y383504D01*
X109860Y383198D01*
X110546Y382875D01*
X111224Y382535D01*
X111892Y382179D01*
X112553Y381807D01*
X113203Y381419D01*
X113844Y381015D01*
X114475Y380595D01*
X115096Y380160D01*
X115706Y379710D01*
X116304Y379246D01*
X116891Y378766D01*
X117466Y378273D01*
X118029Y377766D01*
X118580Y377245D01*
X119117Y376710D01*
X119641Y376163D01*
X120152Y375603D01*
X120649Y375031D01*
X121131Y374447D01*
X121600Y373851D01*
X122053Y373244D01*
X122492Y372626D01*
X122915Y371998D01*
X123323Y371359D01*
X123715Y370711D01*
X124091Y370053D01*
X124451Y369386D01*
X124794Y368710D01*
X125121Y368027D01*
X125431Y367335D01*
X125724Y366636D01*
X126000Y365931D01*
X126259Y365218D01*
X126500Y364500D01*
X126500Y345500D02*
X126259Y344782D01*
X126000Y344069D01*
X125724Y343364D01*
X125431Y342665D01*
X125121Y341973D01*
X124794Y341290D01*
X124451Y340614D01*
X124091Y339947D01*
X123715Y339289D01*
X123323Y338641D01*
X122915Y338002D01*
X122492Y337374D01*
X122053Y336756D01*
X121600Y336149D01*
X121131Y335553D01*
X120649Y334969D01*
X120152Y334397D01*
X119641Y333837D01*
X119117Y333290D01*
X118580Y332755D01*
X118029Y332234D01*
X117466Y331727D01*
X116891Y331234D01*
X116304Y330754D01*
X115706Y330290D01*
X115096Y329840D01*
X114475Y329405D01*
X113844Y328985D01*
X113203Y328581D01*
X112553Y328193D01*
X111892Y327821D01*
X111224Y327465D01*
X110546Y327125D01*
X109860Y326802D01*
X109167Y326496D01*
X108467Y326207D01*
X107759Y325936D01*
X107046Y325681D01*
X106326Y325444D01*
X105600Y325225D01*
X104870Y325024D01*
X104135Y324840D01*
X103395Y324675D01*
X102652Y324528D01*
X101905Y324399D01*
X101155Y324288D01*
X100403Y324195D01*
X99649Y324121D01*
X98893Y324066D01*
X98136Y324029D01*
X97379Y324010D01*
X96621Y324010D01*
X95864Y324029D01*
X95107Y324066D01*
X94351Y324121D01*
X93597Y324195D01*
X92845Y324288D01*
X92095Y324399D01*
X91348Y324528D01*
X90605Y324675D01*
X89865Y324840D01*
X89130Y325024D01*
X88400Y325225D01*
X87674Y325444D01*
X86954Y325681D01*
X86241Y325936D01*
X85533Y326207D01*
X84833Y326496D01*
X84140Y326802D01*
X83454Y327125D01*
X82776Y327465D01*
X82108Y327821D01*
X81447Y328193D01*
X80797Y328581D01*
X80156Y328985D01*
X79525Y329405D01*
X78904Y329840D01*
X78294Y330290D01*
X77696Y330754D01*
X77109Y331234D01*
X76534Y331727D01*
X75971Y332234D01*
X75420Y332755D01*
X74883Y333290D01*
X74359Y333837D01*
X73848Y334397D01*
X73351Y334969D01*
X72869Y335553D01*
X72400Y336149D01*
X71947Y336756D01*
X71508Y337374D01*
X71085Y338002D01*
X70677Y338641D01*
X70285Y339289D01*
X69909Y339947D01*
X69549Y340614D01*
X69206Y341290D01*
X68879Y341973D01*
X68569Y342665D01*
X68276Y343364D01*
X68000Y344069D01*
X67741Y344782D01*
X67500Y345500D01*
X46500Y160500D02*
X46500Y137500D01*
X46500Y160500D02*
X94500Y160500D01*
X111500Y143500D01*
X111500Y137500D01*
X111500Y118500D02*
X111500Y112500D01*
X94500Y95500D01*
X46500Y95500D01*
X46500Y118500D01*
X49500Y137500D02*
X49741Y138218D01*
X50000Y138931D01*
X50276Y139636D01*
X50569Y140335D01*
X50879Y141027D01*
X51206Y141710D01*
X51549Y142386D01*
X51909Y143053D01*
X52285Y143711D01*
X52677Y144359D01*
X53085Y144998D01*
X53508Y145626D01*
X53947Y146244D01*
X54400Y146851D01*
X54869Y147447D01*
X55351Y148031D01*
X55848Y148603D01*
X56359Y149163D01*
X56883Y149710D01*
X57420Y150245D01*
X57971Y150766D01*
X58534Y151273D01*
X59109Y151766D01*
X59696Y152246D01*
X60294Y152710D01*
X60904Y153160D01*
X61525Y153595D01*
X62156Y154015D01*
X62797Y154419D01*
X63447Y154807D01*
X64108Y155179D01*
X64776Y155535D01*
X65454Y155875D01*
X66140Y156198D01*
X66833Y156504D01*
X67533Y156793D01*
X68241Y157064D01*
X68954Y157319D01*
X69674Y157556D01*
X70400Y157775D01*
X71130Y157976D01*
X71865Y158160D01*
X72605Y158325D01*
X73348Y158472D01*
X74095Y158601D01*
X74845Y158712D01*
X75597Y158805D01*
X76351Y158879D01*
X77107Y158934D01*
X77864Y158971D01*
X78621Y158990D01*
X79379Y158990D01*
X80136Y158971D01*
X80893Y158934D01*
X81649Y158879D01*
X82403Y158805D01*
X83155Y158712D01*
X83905Y158601D01*
X84652Y158472D01*
X85395Y158325D01*
X86135Y158160D01*
X86870Y157976D01*
X87600Y157775D01*
X88326Y157556D01*
X89046Y157319D01*
X89759Y157064D01*
X90467Y156793D01*
X91167Y156504D01*
X91860Y156198D01*
X92546Y155875D01*
X93224Y155535D01*
X93892Y155179D01*
X94553Y154807D01*
X95203Y154419D01*
X95844Y154015D01*
X96475Y153595D01*
X97096Y153160D01*
X97706Y152710D01*
X98304Y152246D01*
X98891Y151766D01*
X99466Y151273D01*
X100029Y150766D01*
X100580Y150245D01*
X101117Y149710D01*
X101641Y149163D01*
X102152Y148603D01*
X102649Y148031D01*
X103131Y147447D01*
X103600Y146851D01*
X104053Y146244D01*
X104492Y145626D01*
X104915Y144998D01*
X105323Y144359D01*
X105715Y143711D01*
X106091Y143053D01*
X106451Y142386D01*
X106794Y141710D01*
X107121Y141027D01*
X107431Y140335D01*
X107724Y139636D01*
X108000Y138931D01*
X108259Y138218D01*
X108500Y137500D01*
X108500Y118500D02*
X108259Y117782D01*
X108000Y117069D01*
X107724Y116364D01*
X107431Y115665D01*
X107121Y114973D01*
X106794Y114290D01*
X106451Y113614D01*
X106091Y112947D01*
X105715Y112289D01*
X105323Y111641D01*
X104915Y111002D01*
X104492Y110374D01*
X104053Y109756D01*
X103600Y109149D01*
X103131Y108553D01*
X102649Y107969D01*
X102152Y107397D01*
X101641Y106837D01*
X101117Y106290D01*
X100580Y105755D01*
X100029Y105234D01*
X99466Y104727D01*
X98891Y104234D01*
X98304Y103754D01*
X97706Y103290D01*
X97096Y102840D01*
X96475Y102405D01*
X95844Y101985D01*
X95203Y101581D01*
X94553Y101193D01*
X93892Y100821D01*
X93224Y100465D01*
X92546Y100125D01*
X91860Y99802D01*
X91167Y99496D01*
X90467Y99207D01*
X89759Y98936D01*
X89046Y98681D01*
X88326Y98444D01*
X87600Y98225D01*
X86870Y98024D01*
X86135Y97840D01*
X85395Y97675D01*
X84652Y97528D01*
X83905Y97399D01*
X83155Y97288D01*
X82403Y97195D01*
X81649Y97121D01*
X80893Y97066D01*
X80136Y97029D01*
X79379Y97010D01*
X78621Y97010D01*
X77864Y97029D01*
X77107Y97066D01*
X76351Y97121D01*
X75597Y97195D01*
X74845Y97288D01*
X74095Y97399D01*
X73348Y97528D01*
X72605Y97675D01*
X71865Y97840D01*
X71130Y98024D01*
X70400Y98225D01*
X69674Y98444D01*
X68954Y98681D01*
X68241Y98936D01*
X67533Y99207D01*
X66833Y99496D01*
X66140Y99802D01*
X65454Y100125D01*
X64776Y100465D01*
X64108Y100821D01*
X63447Y101193D01*
X62797Y101581D01*
X62156Y101985D01*
X61525Y102405D01*
X60904Y102840D01*
X60294Y103290D01*
X59696Y103754D01*
X59109Y104234D01*
X58534Y104727D01*
X57971Y105234D01*
X57420Y105755D01*
X56883Y106290D01*
X56359Y106837D01*
X55848Y107397D01*
X55351Y107969D01*
X54869Y108553D01*
X54400Y109149D01*
X53947Y109756D01*
X53508Y110374D01*
X53085Y111002D01*
X52677Y111641D01*
X52285Y112289D01*
X51909Y112947D01*
X51549Y113614D01*
X51206Y114290D01*
X50879Y114973D01*
X50569Y115665D01*
X50276Y116364D01*
X50000Y117069D01*
X49741Y117782D01*
X49500Y118500D01*
D80*
X510000Y523000D02*
X510000Y548000D01*
X510000Y523000D02*
X538000Y523000D01*
X538000Y548000D01*
X510000Y548000D01*
D72*
X591000Y404000D02*
X591000Y374000D01*
X591000Y404000D02*
X561000Y404000D01*
X561000Y374000D01*
X591000Y374000D01*
D79*
X625000Y401400D02*
X625000Y435500D01*
X643000Y435500D02*
X643000Y408500D01*
D72*
X578000Y510000D02*
X578000Y550000D01*
X648000Y550000D02*
X648000Y510000D01*
X623000Y569000D02*
X622997Y568756D01*
X622988Y568513D01*
X622973Y568270D01*
X622953Y568027D01*
X622926Y567785D01*
X622893Y567544D01*
X622855Y567304D01*
X622811Y567064D01*
X622761Y566826D01*
X622705Y566589D01*
X622643Y566353D01*
X622576Y566119D01*
X622503Y565887D01*
X622424Y565656D01*
X622340Y565428D01*
X622250Y565201D01*
X622155Y564977D01*
X622054Y564755D01*
X621948Y564536D01*
X621837Y564320D01*
X621720Y564106D01*
X621599Y563895D01*
X621472Y563687D01*
X621340Y563482D01*
X621203Y563281D01*
X621061Y563083D01*
X620915Y562888D01*
X620764Y562697D01*
X620608Y562510D01*
X620448Y562327D01*
X620283Y562147D01*
X620114Y561972D01*
X619941Y561801D01*
X619763Y561634D01*
X619582Y561472D01*
X619397Y561314D01*
X619208Y561160D01*
X619015Y561011D01*
X618819Y560867D01*
X618619Y560728D01*
X618416Y560593D01*
X618209Y560464D01*
X618000Y560340D01*
X617788Y560221D01*
X617572Y560107D01*
X617355Y559998D01*
X617134Y559895D01*
X616911Y559797D01*
X616686Y559704D01*
X616458Y559617D01*
X616229Y559536D01*
X615997Y559460D01*
X615764Y559390D01*
X615529Y559325D01*
X615293Y559266D01*
X615055Y559213D01*
X614816Y559166D01*
X614576Y559125D01*
X614335Y559090D01*
X614094Y559060D01*
X613851Y559036D01*
X613608Y559019D01*
X613365Y559007D01*
X613122Y559001D01*
X612878Y559001D01*
X612635Y559007D01*
X612392Y559019D01*
X612149Y559036D01*
X611906Y559060D01*
X611665Y559090D01*
X611424Y559125D01*
X611184Y559166D01*
X610945Y559213D01*
X610707Y559266D01*
X610471Y559325D01*
X610236Y559390D01*
X610003Y559460D01*
X609771Y559536D01*
X609542Y559617D01*
X609314Y559704D01*
X609089Y559797D01*
X608866Y559895D01*
X608645Y559998D01*
X608428Y560107D01*
X608212Y560221D01*
X608000Y560340D01*
X607791Y560464D01*
X607584Y560593D01*
X607381Y560728D01*
X607181Y560867D01*
X606985Y561011D01*
X606792Y561160D01*
X606603Y561314D01*
X606418Y561472D01*
X606237Y561634D01*
X606059Y561801D01*
X605886Y561972D01*
X605717Y562147D01*
X605552Y562327D01*
X605392Y562510D01*
X605236Y562697D01*
X605085Y562888D01*
X604939Y563083D01*
X604797Y563281D01*
X604660Y563482D01*
X604528Y563687D01*
X604401Y563895D01*
X604280Y564106D01*
X604163Y564320D01*
X604052Y564536D01*
X603946Y564755D01*
X603845Y564977D01*
X603750Y565201D01*
X603660Y565428D01*
X603576Y565656D01*
X603497Y565887D01*
X603424Y566119D01*
X603357Y566353D01*
X603295Y566589D01*
X603239Y566826D01*
X603189Y567064D01*
X603145Y567304D01*
X603107Y567544D01*
X603074Y567785D01*
X603047Y568027D01*
X603027Y568270D01*
X603012Y568513D01*
X603003Y568756D01*
X603000Y569000D01*
X603000Y491000D02*
X603003Y491244D01*
X603012Y491487D01*
X603027Y491730D01*
X603047Y491973D01*
X603074Y492215D01*
X603107Y492456D01*
X603145Y492696D01*
X603189Y492936D01*
X603239Y493174D01*
X603295Y493411D01*
X603357Y493647D01*
X603424Y493881D01*
X603497Y494113D01*
X603576Y494344D01*
X603660Y494572D01*
X603750Y494799D01*
X603845Y495023D01*
X603946Y495245D01*
X604052Y495464D01*
X604163Y495680D01*
X604280Y495894D01*
X604401Y496105D01*
X604528Y496313D01*
X604660Y496518D01*
X604797Y496719D01*
X604939Y496917D01*
X605085Y497112D01*
X605236Y497303D01*
X605392Y497490D01*
X605552Y497673D01*
X605717Y497853D01*
X605886Y498028D01*
X606059Y498199D01*
X606237Y498366D01*
X606418Y498528D01*
X606603Y498686D01*
X606792Y498840D01*
X606985Y498989D01*
X607181Y499133D01*
X607381Y499272D01*
X607584Y499407D01*
X607791Y499536D01*
X608000Y499660D01*
X608212Y499779D01*
X608428Y499893D01*
X608645Y500002D01*
X608866Y500105D01*
X609089Y500203D01*
X609314Y500296D01*
X609542Y500383D01*
X609771Y500464D01*
X610003Y500540D01*
X610236Y500610D01*
X610471Y500675D01*
X610707Y500734D01*
X610945Y500787D01*
X611184Y500834D01*
X611424Y500875D01*
X611665Y500910D01*
X611906Y500940D01*
X612149Y500964D01*
X612392Y500981D01*
X612635Y500993D01*
X612878Y500999D01*
X613122Y500999D01*
X613365Y500993D01*
X613608Y500981D01*
X613851Y500964D01*
X614094Y500940D01*
X614335Y500910D01*
X614576Y500875D01*
X614816Y500834D01*
X615055Y500787D01*
X615293Y500734D01*
X615529Y500675D01*
X615764Y500610D01*
X615997Y500540D01*
X616229Y500464D01*
X616458Y500383D01*
X616686Y500296D01*
X616911Y500203D01*
X617134Y500105D01*
X617355Y500002D01*
X617572Y499893D01*
X617788Y499779D01*
X618000Y499660D01*
X618209Y499536D01*
X618416Y499407D01*
X618619Y499272D01*
X618819Y499133D01*
X619015Y498989D01*
X619208Y498840D01*
X619397Y498686D01*
X619582Y498528D01*
X619763Y498366D01*
X619941Y498199D01*
X620114Y498028D01*
X620283Y497853D01*
X620448Y497673D01*
X620608Y497490D01*
X620764Y497303D01*
X620915Y497112D01*
X621061Y496917D01*
X621203Y496719D01*
X621340Y496518D01*
X621472Y496313D01*
X621599Y496105D01*
X621720Y495894D01*
X621837Y495680D01*
X621948Y495464D01*
X622054Y495245D01*
X622155Y495023D01*
X622250Y494799D01*
X622340Y494572D01*
X622424Y494344D01*
X622503Y494113D01*
X622576Y493881D01*
X622643Y493647D01*
X622705Y493411D01*
X622761Y493174D01*
X622811Y492936D01*
X622855Y492696D01*
X622893Y492456D01*
X622926Y492215D01*
X622953Y491973D01*
X622973Y491730D01*
X622988Y491487D01*
X622997Y491244D01*
X623000Y491000D01*
X578000Y550000D02*
X578080Y550539D01*
X578173Y551076D01*
X578280Y551610D01*
X578400Y552142D01*
X578533Y552671D01*
X578678Y553196D01*
X578837Y553717D01*
X579008Y554234D01*
X579192Y554747D01*
X579388Y555256D01*
X579597Y555759D01*
X579818Y556257D01*
X580051Y556750D01*
X580297Y557236D01*
X580554Y557717D01*
X580823Y558191D01*
X581103Y558658D01*
X581395Y559118D01*
X581698Y559571D01*
X582012Y560017D01*
X582337Y560454D01*
X582672Y560884D01*
X583018Y561305D01*
X583374Y561717D01*
X583741Y562121D01*
X584117Y562515D01*
X584502Y562900D01*
X584897Y563276D01*
X585301Y563642D01*
X585714Y563997D01*
X586135Y564343D01*
X586565Y564678D01*
X587003Y565002D01*
X587449Y565316D01*
X587902Y565618D01*
X588363Y565910D01*
X588830Y566189D01*
X589304Y566458D01*
X589785Y566714D01*
X590272Y566959D01*
X590765Y567192D01*
X591263Y567413D01*
X591767Y567621D01*
X592275Y567817D01*
X592788Y568000D01*
X593306Y568171D01*
X593828Y568329D01*
X594353Y568474D01*
X594882Y568606D01*
X595413Y568725D01*
X595948Y568831D01*
X596485Y568924D01*
X597024Y569004D01*
X597565Y569070D01*
X598107Y569123D01*
X598651Y569163D01*
X599195Y569189D01*
X599740Y569202D01*
X600285Y569202D01*
X600829Y569189D01*
X601374Y569162D01*
X601917Y569121D01*
X602459Y569067D01*
X603000Y569001D01*
X623000Y569001D02*
X623541Y569067D01*
X624083Y569121D01*
X624626Y569162D01*
X625171Y569189D01*
X625715Y569202D01*
X626260Y569202D01*
X626805Y569189D01*
X627349Y569163D01*
X627893Y569123D01*
X628435Y569070D01*
X628976Y569004D01*
X629515Y568924D01*
X630052Y568831D01*
X630587Y568725D01*
X631118Y568606D01*
X631647Y568474D01*
X632172Y568329D01*
X632694Y568171D01*
X633212Y568000D01*
X633725Y567817D01*
X634233Y567621D01*
X634737Y567413D01*
X635235Y567192D01*
X635728Y566959D01*
X636215Y566714D01*
X636696Y566458D01*
X637170Y566189D01*
X637637Y565910D01*
X638098Y565618D01*
X638551Y565316D01*
X638997Y565002D01*
X639435Y564678D01*
X639865Y564343D01*
X640286Y563997D01*
X640699Y563642D01*
X641103Y563276D01*
X641498Y562900D01*
X641883Y562515D01*
X642259Y562121D01*
X642626Y561717D01*
X642982Y561305D01*
X643328Y560884D01*
X643663Y560454D01*
X643988Y560017D01*
X644302Y559571D01*
X644605Y559118D01*
X644897Y558658D01*
X645177Y558191D01*
X645446Y557717D01*
X645703Y557236D01*
X645949Y556750D01*
X646182Y556257D01*
X646403Y555759D01*
X646612Y555256D01*
X646808Y554747D01*
X646992Y554234D01*
X647163Y553717D01*
X647322Y553196D01*
X647467Y552671D01*
X647600Y552142D01*
X647720Y551610D01*
X647827Y551076D01*
X647920Y550539D01*
X648000Y550000D01*
X603000Y491000D02*
X602460Y490933D01*
X601917Y490880D01*
X601374Y490839D01*
X600830Y490812D01*
X600285Y490799D01*
X599740Y490799D01*
X599195Y490812D01*
X598651Y490838D01*
X598107Y490878D01*
X597565Y490931D01*
X597024Y490998D01*
X596485Y491077D01*
X595948Y491170D01*
X595414Y491276D01*
X594882Y491395D01*
X594353Y491527D01*
X593828Y491673D01*
X593307Y491830D01*
X592789Y492001D01*
X592276Y492184D01*
X591767Y492380D01*
X591264Y492589D01*
X590766Y492809D01*
X590273Y493042D01*
X589786Y493287D01*
X589305Y493543D01*
X588831Y493812D01*
X588363Y494092D01*
X587903Y494383D01*
X587450Y494685D01*
X587004Y494999D01*
X586566Y495323D01*
X586136Y495658D01*
X585715Y496004D01*
X585302Y496359D01*
X584898Y496725D01*
X584503Y497101D01*
X584118Y497486D01*
X583742Y497880D01*
X583376Y498284D01*
X583019Y498696D01*
X582674Y499117D01*
X582338Y499547D01*
X582013Y499984D01*
X581699Y500429D01*
X581396Y500882D01*
X581104Y501343D01*
X580824Y501810D01*
X580555Y502284D01*
X580298Y502764D01*
X580053Y503251D01*
X579819Y503743D01*
X579598Y504241D01*
X579389Y504745D01*
X579193Y505253D01*
X579009Y505766D01*
X578838Y506283D01*
X578679Y506805D01*
X578534Y507330D01*
X578401Y507858D01*
X578281Y508390D01*
X578175Y508924D01*
X578081Y509461D01*
X578001Y510000D01*
X623000Y490999D02*
X623541Y490933D01*
X624083Y490879D01*
X624626Y490838D01*
X625171Y490811D01*
X625715Y490798D01*
X626260Y490798D01*
X626805Y490811D01*
X627349Y490837D01*
X627893Y490877D01*
X628435Y490930D01*
X628976Y490996D01*
X629515Y491076D01*
X630052Y491169D01*
X630587Y491275D01*
X631118Y491394D01*
X631647Y491526D01*
X632172Y491671D01*
X632694Y491829D01*
X633212Y492000D01*
X633725Y492183D01*
X634233Y492379D01*
X634737Y492587D01*
X635235Y492808D01*
X635728Y493041D01*
X636215Y493286D01*
X636696Y493542D01*
X637170Y493811D01*
X637637Y494090D01*
X638098Y494382D01*
X638551Y494684D01*
X638997Y494998D01*
X639435Y495322D01*
X639865Y495657D01*
X640286Y496003D01*
X640699Y496358D01*
X641103Y496724D01*
X641498Y497100D01*
X641883Y497485D01*
X642259Y497879D01*
X642626Y498283D01*
X642982Y498695D01*
X643328Y499116D01*
X643663Y499546D01*
X643988Y499983D01*
X644302Y500429D01*
X644605Y500882D01*
X644897Y501342D01*
X645177Y501809D01*
X645446Y502283D01*
X645703Y502764D01*
X645949Y503250D01*
X646182Y503743D01*
X646403Y504241D01*
X646612Y504744D01*
X646808Y505253D01*
X646992Y505766D01*
X647163Y506283D01*
X647322Y506804D01*
X647467Y507329D01*
X647600Y507858D01*
X647720Y508390D01*
X647827Y508924D01*
X647920Y509461D01*
X648000Y510000D01*
D78*
X417500Y457500D02*
X417500Y434500D01*
X417500Y457500D02*
X465500Y457500D01*
X482500Y440500D01*
X482500Y434500D01*
X482500Y415500D02*
X482500Y409500D01*
X465500Y392500D01*
X417500Y392500D01*
X417500Y415500D01*
X420500Y434500D02*
X420741Y435218D01*
X421000Y435931D01*
X421276Y436636D01*
X421569Y437335D01*
X421879Y438027D01*
X422206Y438710D01*
X422549Y439386D01*
X422909Y440053D01*
X423285Y440711D01*
X423677Y441359D01*
X424085Y441998D01*
X424508Y442626D01*
X424947Y443244D01*
X425400Y443851D01*
X425869Y444447D01*
X426351Y445031D01*
X426848Y445603D01*
X427359Y446163D01*
X427883Y446710D01*
X428420Y447245D01*
X428971Y447766D01*
X429534Y448273D01*
X430109Y448766D01*
X430696Y449246D01*
X431294Y449710D01*
X431904Y450160D01*
X432525Y450595D01*
X433156Y451015D01*
X433797Y451419D01*
X434447Y451807D01*
X435108Y452179D01*
X435776Y452535D01*
X436454Y452875D01*
X437140Y453198D01*
X437833Y453504D01*
X438533Y453793D01*
X439241Y454064D01*
X439954Y454319D01*
X440674Y454556D01*
X441400Y454775D01*
X442130Y454976D01*
X442865Y455160D01*
X443605Y455325D01*
X444348Y455472D01*
X445095Y455601D01*
X445845Y455712D01*
X446597Y455805D01*
X447351Y455879D01*
X448107Y455934D01*
X448864Y455971D01*
X449621Y455990D01*
X450379Y455990D01*
X451136Y455971D01*
X451893Y455934D01*
X452649Y455879D01*
X453403Y455805D01*
X454155Y455712D01*
X454905Y455601D01*
X455652Y455472D01*
X456395Y455325D01*
X457135Y455160D01*
X457870Y454976D01*
X458600Y454775D01*
X459326Y454556D01*
X460046Y454319D01*
X460759Y454064D01*
X461467Y453793D01*
X462167Y453504D01*
X462860Y453198D01*
X463546Y452875D01*
X464224Y452535D01*
X464892Y452179D01*
X465553Y451807D01*
X466203Y451419D01*
X466844Y451015D01*
X467475Y450595D01*
X468096Y450160D01*
X468706Y449710D01*
X469304Y449246D01*
X469891Y448766D01*
X470466Y448273D01*
X471029Y447766D01*
X471580Y447245D01*
X472117Y446710D01*
X472641Y446163D01*
X473152Y445603D01*
X473649Y445031D01*
X474131Y444447D01*
X474600Y443851D01*
X475053Y443244D01*
X475492Y442626D01*
X475915Y441998D01*
X476323Y441359D01*
X476715Y440711D01*
X477091Y440053D01*
X477451Y439386D01*
X477794Y438710D01*
X478121Y438027D01*
X478431Y437335D01*
X478724Y436636D01*
X479000Y435931D01*
X479259Y435218D01*
X479500Y434500D01*
X479500Y415500D02*
X479259Y414782D01*
X479000Y414069D01*
X478724Y413364D01*
X478431Y412665D01*
X478121Y411973D01*
X477794Y411290D01*
X477451Y410614D01*
X477091Y409947D01*
X476715Y409289D01*
X476323Y408641D01*
X475915Y408002D01*
X475492Y407374D01*
X475053Y406756D01*
X474600Y406149D01*
X474131Y405553D01*
X473649Y404969D01*
X473152Y404397D01*
X472641Y403837D01*
X472117Y403290D01*
X471580Y402755D01*
X471029Y402234D01*
X470466Y401727D01*
X469891Y401234D01*
X469304Y400754D01*
X468706Y400290D01*
X468096Y399840D01*
X467475Y399405D01*
X466844Y398985D01*
X466203Y398581D01*
X465553Y398193D01*
X464892Y397821D01*
X464224Y397465D01*
X463546Y397125D01*
X462860Y396802D01*
X462167Y396496D01*
X461467Y396207D01*
X460759Y395936D01*
X460046Y395681D01*
X459326Y395444D01*
X458600Y395225D01*
X457870Y395024D01*
X457135Y394840D01*
X456395Y394675D01*
X455652Y394528D01*
X454905Y394399D01*
X454155Y394288D01*
X453403Y394195D01*
X452649Y394121D01*
X451893Y394066D01*
X451136Y394029D01*
X450379Y394010D01*
X449621Y394010D01*
X448864Y394029D01*
X448107Y394066D01*
X447351Y394121D01*
X446597Y394195D01*
X445845Y394288D01*
X445095Y394399D01*
X444348Y394528D01*
X443605Y394675D01*
X442865Y394840D01*
X442130Y395024D01*
X441400Y395225D01*
X440674Y395444D01*
X439954Y395681D01*
X439241Y395936D01*
X438533Y396207D01*
X437833Y396496D01*
X437140Y396802D01*
X436454Y397125D01*
X435776Y397465D01*
X435108Y397821D01*
X434447Y398193D01*
X433797Y398581D01*
X433156Y398985D01*
X432525Y399405D01*
X431904Y399840D01*
X431294Y400290D01*
X430696Y400754D01*
X430109Y401234D01*
X429534Y401727D01*
X428971Y402234D01*
X428420Y402755D01*
X427883Y403290D01*
X427359Y403837D01*
X426848Y404397D01*
X426351Y404969D01*
X425869Y405553D01*
X425400Y406149D01*
X424947Y406756D01*
X424508Y407374D01*
X424085Y408002D01*
X423677Y408641D01*
X423285Y409289D01*
X422909Y409947D01*
X422549Y410614D01*
X422206Y411290D01*
X421879Y411973D01*
X421569Y412665D01*
X421276Y413364D01*
X421000Y414069D01*
X420741Y414782D01*
X420500Y415500D01*
X417500Y581500D02*
X417500Y604500D01*
X465500Y604500D01*
X482500Y587500D01*
X482500Y581500D01*
X482500Y562500D02*
X482500Y556500D01*
X465500Y539500D01*
X417500Y539500D01*
X417500Y562500D01*
X420500Y581500D02*
X420741Y582218D01*
X421000Y582931D01*
X421276Y583636D01*
X421569Y584335D01*
X421879Y585027D01*
X422206Y585710D01*
X422549Y586386D01*
X422909Y587053D01*
X423285Y587711D01*
X423677Y588359D01*
X424085Y588998D01*
X424508Y589626D01*
X424947Y590244D01*
X425400Y590851D01*
X425869Y591447D01*
X426351Y592031D01*
X426848Y592603D01*
X427359Y593163D01*
X427883Y593710D01*
X428420Y594245D01*
X428971Y594766D01*
X429534Y595273D01*
X430109Y595766D01*
X430696Y596246D01*
X431294Y596710D01*
X431904Y597160D01*
X432525Y597595D01*
X433156Y598015D01*
X433797Y598419D01*
X434447Y598807D01*
X435108Y599179D01*
X435776Y599535D01*
X436454Y599875D01*
X437140Y600198D01*
X437833Y600504D01*
X438533Y600793D01*
X439241Y601064D01*
X439954Y601319D01*
X440674Y601556D01*
X441400Y601775D01*
X442130Y601976D01*
X442865Y602160D01*
X443605Y602325D01*
X444348Y602472D01*
X445095Y602601D01*
X445845Y602712D01*
X446597Y602805D01*
X447351Y602879D01*
X448107Y602934D01*
X448864Y602971D01*
X449621Y602990D01*
X450379Y602990D01*
X451136Y602971D01*
X451893Y602934D01*
X452649Y602879D01*
X453403Y602805D01*
X454155Y602712D01*
X454905Y602601D01*
X455652Y602472D01*
X456395Y602325D01*
X457135Y602160D01*
X457870Y601976D01*
X458600Y601775D01*
X459326Y601556D01*
X460046Y601319D01*
X460759Y601064D01*
X461467Y600793D01*
X462167Y600504D01*
X462860Y600198D01*
X463546Y599875D01*
X464224Y599535D01*
X464892Y599179D01*
X465553Y598807D01*
X466203Y598419D01*
X466844Y598015D01*
X467475Y597595D01*
X468096Y597160D01*
X468706Y596710D01*
X469304Y596246D01*
X469891Y595766D01*
X470466Y595273D01*
X471029Y594766D01*
X471580Y594245D01*
X472117Y593710D01*
X472641Y593163D01*
X473152Y592603D01*
X473649Y592031D01*
X474131Y591447D01*
X474600Y590851D01*
X475053Y590244D01*
X475492Y589626D01*
X475915Y588998D01*
X476323Y588359D01*
X476715Y587711D01*
X477091Y587053D01*
X477451Y586386D01*
X477794Y585710D01*
X478121Y585027D01*
X478431Y584335D01*
X478724Y583636D01*
X479000Y582931D01*
X479259Y582218D01*
X479500Y581500D01*
X479500Y562500D02*
X479259Y561782D01*
X479000Y561069D01*
X478724Y560364D01*
X478431Y559665D01*
X478121Y558973D01*
X477794Y558290D01*
X477451Y557614D01*
X477091Y556947D01*
X476715Y556289D01*
X476323Y555641D01*
X475915Y555002D01*
X475492Y554374D01*
X475053Y553756D01*
X474600Y553149D01*
X474131Y552553D01*
X473649Y551969D01*
X473152Y551397D01*
X472641Y550837D01*
X472117Y550290D01*
X471580Y549755D01*
X471029Y549234D01*
X470466Y548727D01*
X469891Y548234D01*
X469304Y547754D01*
X468706Y547290D01*
X468096Y546840D01*
X467475Y546405D01*
X466844Y545985D01*
X466203Y545581D01*
X465553Y545193D01*
X464892Y544821D01*
X464224Y544465D01*
X463546Y544125D01*
X462860Y543802D01*
X462167Y543496D01*
X461467Y543207D01*
X460759Y542936D01*
X460046Y542681D01*
X459326Y542444D01*
X458600Y542225D01*
X457870Y542024D01*
X457135Y541840D01*
X456395Y541675D01*
X455652Y541528D01*
X454905Y541399D01*
X454155Y541288D01*
X453403Y541195D01*
X452649Y541121D01*
X451893Y541066D01*
X451136Y541029D01*
X450379Y541010D01*
X449621Y541010D01*
X448864Y541029D01*
X448107Y541066D01*
X447351Y541121D01*
X446597Y541195D01*
X445845Y541288D01*
X445095Y541399D01*
X444348Y541528D01*
X443605Y541675D01*
X442865Y541840D01*
X442130Y542024D01*
X441400Y542225D01*
X440674Y542444D01*
X439954Y542681D01*
X439241Y542936D01*
X438533Y543207D01*
X437833Y543496D01*
X437140Y543802D01*
X436454Y544125D01*
X435776Y544465D01*
X435108Y544821D01*
X434447Y545193D01*
X433797Y545581D01*
X433156Y545985D01*
X432525Y546405D01*
X431904Y546840D01*
X431294Y547290D01*
X430696Y547754D01*
X430109Y548234D01*
X429534Y548727D01*
X428971Y549234D01*
X428420Y549755D01*
X427883Y550290D01*
X427359Y550837D01*
X426848Y551397D01*
X426351Y551969D01*
X425869Y552553D01*
X425400Y553149D01*
X424947Y553756D01*
X424508Y554374D01*
X424085Y555002D01*
X423677Y555641D01*
X423285Y556289D01*
X422909Y556947D01*
X422549Y557614D01*
X422206Y558290D01*
X421879Y558973D01*
X421569Y559665D01*
X421276Y560364D01*
X421000Y561069D01*
X420741Y561782D01*
X420500Y562500D01*
M02*
