G04 EAGLE Gerber RS-274X export*
G75*
%MOMM*%
%FSLAX34Y34*%
%LPD*%
%INSoldermask Top*%
%IPPOS*%
%AMOC8*
5,1,8,0,0,1.08239X$1,22.5*%
G01*
%ADD10R,1.461200X1.461200*%
%ADD11C,1.461200*%
%ADD12P,2.556822X8X112.500000*%
%ADD13C,1.733200*%
%ADD14R,1.733200X1.733200*%
%ADD15R,1.311200X1.311200*%
%ADD16R,1.203200X0.453200*%
%ADD17R,1.503200X1.703200*%
%ADD18R,1.703200X1.503200*%
%ADD19C,1.611200*%
%ADD20P,1.635708X8X292.500000*%
%ADD21C,1.511200*%
%ADD22C,0.959600*%


D10*
X770700Y51500D03*
X750700Y51500D03*
X770700Y31500D03*
X750700Y31500D03*
X490700Y51500D03*
X470600Y51400D03*
X490700Y31500D03*
X470700Y31600D03*
X225400Y153700D03*
X225400Y133700D03*
X205500Y133700D03*
X205500Y153700D03*
X205400Y413700D03*
X225300Y413800D03*
X205400Y433600D03*
X225600Y433700D03*
D11*
X810700Y51400D03*
X790600Y51500D03*
X810600Y31500D03*
X790700Y31600D03*
X730600Y51400D03*
X730700Y31400D03*
X710600Y51400D03*
X710700Y31400D03*
X690700Y31400D03*
X690600Y51400D03*
X670600Y51400D03*
X670500Y31400D03*
X650600Y51500D03*
X650700Y31400D03*
X630700Y51400D03*
X630600Y31500D03*
X610600Y51400D03*
X610700Y31400D03*
X590600Y51500D03*
X590600Y31500D03*
X570600Y51500D03*
X570600Y31400D03*
X550700Y51500D03*
X550700Y31400D03*
X530700Y51500D03*
X530700Y31400D03*
X510600Y51500D03*
X510600Y31400D03*
X450700Y51500D03*
X450700Y31400D03*
X430600Y51500D03*
X430600Y31400D03*
X225400Y113800D03*
X225400Y93700D03*
X205300Y113800D03*
X205300Y93700D03*
X225400Y193800D03*
X225400Y173700D03*
X205300Y193800D03*
X205300Y173700D03*
X225300Y233800D03*
X225300Y213700D03*
X205200Y233800D03*
X205200Y213700D03*
X225300Y273800D03*
X225300Y253700D03*
X205200Y273800D03*
X205200Y253700D03*
X225400Y313800D03*
X225400Y293700D03*
X205300Y313800D03*
X205300Y293700D03*
X225400Y353800D03*
X225400Y333700D03*
X205300Y353800D03*
X205300Y333700D03*
X225400Y393900D03*
X225400Y373800D03*
X205300Y393900D03*
X205300Y373800D03*
X225400Y473800D03*
X225400Y453700D03*
X205300Y473800D03*
X205300Y453700D03*
D12*
X79000Y393488D03*
X79000Y458512D03*
D13*
X50800Y166500D03*
X20800Y166500D03*
X50800Y136500D03*
X20800Y136500D03*
D14*
X50800Y196500D03*
D13*
X50800Y106500D03*
X20800Y196500D03*
X20800Y106500D03*
D15*
X844900Y34800D03*
X844900Y54800D03*
X844900Y74800D03*
X955700Y74800D03*
X955700Y54800D03*
X955700Y34800D03*
D16*
X405131Y385500D03*
X405131Y390500D03*
X405131Y395500D03*
X405131Y400500D03*
X405131Y405500D03*
X362869Y405500D03*
X362869Y400500D03*
X362869Y395500D03*
X362869Y390500D03*
X362869Y385500D03*
D17*
X314500Y338500D03*
X295500Y338500D03*
X294500Y372500D03*
X313500Y372500D03*
X295000Y403500D03*
X314000Y403500D03*
D18*
X440500Y359500D03*
X440500Y340500D03*
D17*
X506000Y434500D03*
X487000Y434500D03*
D18*
X506000Y391000D03*
X506000Y372000D03*
D19*
X702000Y392000D03*
X722000Y392000D03*
X702000Y372000D03*
X722000Y372000D03*
X702000Y352000D03*
X722000Y352000D03*
D20*
X566000Y408100D03*
D21*
X566000Y382700D03*
X566000Y357300D03*
X566000Y331900D03*
D18*
X609000Y408500D03*
X609000Y389500D03*
D22*
X272500Y288000D03*
X314500Y428000D03*
X443500Y405500D03*
X363500Y364000D03*
X432200Y107400D03*
X341000Y34500D03*
M02*
