M48
;GenerationSoftware,Autodesk,EAGLE,9.6.2*%
;CreationDate,2023-11-30T16:52:13Z*%
FMAT,2
ICI,OFF
METRIC,TZ,000.000
T7C0.350
T6C0.600
T5C0.750
T4C0.889
T3C0.900
T2C0.914
T1C1.020
%
G90
M71
T1
X5080Y13650
X2080Y16650
X5080Y16650
X2080Y13650
X5080Y19650
X5080Y10650
X2080Y19650
X2080Y10650
T2
X7900Y45851
X7900Y39349
T3
X72200Y35200
X70200Y39200
X72200Y39200
X70200Y37200
X72200Y37200
X70200Y35200
T4
X79350Y12840
X79350Y15380
X79350Y17920
X79350Y20460
T5
X22030Y41380
X20040Y43360
X22060Y43370
X81070Y5140
X79060Y5150
X81060Y3150
X79070Y3160
X73060Y5140
X73070Y3140
X71070Y3140
X69070Y3140
X69060Y5140
X67060Y5140
X67050Y3140
X65060Y5150
X65070Y3140
X63070Y5140
X63060Y3150
X61060Y5140
X61070Y3140
X59060Y5150
X59060Y3150
X57060Y5150
X57060Y3140
X55070Y5150
X55070Y3140
X53070Y5150
X53070Y3140
X51060Y5150
X51060Y3140
X45070Y5150
X45070Y3140
X43060Y5150
X43060Y3140
X22040Y11380
X22040Y9370
X20030Y11380
X20030Y9370
X22040Y19380
X22040Y17370
X20030Y19380
X20030Y17370
X22030Y23380
X22030Y21370
X20020Y23380
X20020Y21370
X22030Y27380
X22030Y25370
X20020Y27380
X20020Y25370
X22040Y31380
X22040Y29370
X20030Y31380
X20030Y29370
X22040Y35380
X22040Y33370
X20030Y35380
X20030Y33370
X22040Y39390
X22040Y37380
X20030Y39390
X20030Y37380
X22040Y47380
X20030Y47380
X20030Y45370
X22040Y15370
X77070Y5150
X75070Y5150
X77070Y3150
X75070Y3150
X22040Y45370
X49070Y5150
X47060Y5140
X49070Y3150
X47070Y3160
X71060Y5140
X22040Y13370
X20050Y13370
X20050Y15370
X20040Y41370
T6
X95570Y5480
X95570Y3480
X84490Y3480
X84490Y7480
X95570Y7480
X84490Y5480
T7
X27250Y28800
X34100Y3450
X43220Y10740
X36350Y36400
X44350Y40550
X31450Y42800
M30