G04 EAGLE Gerber RS-274X export*
G75*
%MOMM*%
%FSLAX34Y34*%
%LPD*%
%INSilkscreen Top*%
%IPPOS*%
%AMOC8*
5,1,8,0,0,1.08239X$1,22.5*%
G01*
%ADD10C,0.228600*%
%ADD11R,1.600000X0.020000*%
%ADD12R,1.720000X0.020000*%
%ADD13R,1.780000X0.020000*%
%ADD14R,1.820000X0.020000*%
%ADD15R,1.840000X0.020000*%
%ADD16R,1.860000X0.020000*%
%ADD17R,1.880000X0.020000*%
%ADD18R,1.900000X0.020000*%
%ADD19R,1.920000X0.020000*%
%ADD20R,1.800000X0.020000*%
%ADD21R,1.760000X0.020000*%
%ADD22R,1.680000X0.020000*%
%ADD23R,1.660000X0.020000*%
%ADD24R,1.740000X0.020000*%
%ADD25R,1.620000X0.020000*%
%ADD26R,1.560000X0.020000*%
%ADD27R,1.700000X0.020000*%
%ADD28R,0.260000X0.020000*%
%ADD29R,0.480000X0.020000*%
%ADD30R,0.620000X0.020000*%
%ADD31R,0.740000X0.020000*%
%ADD32R,0.840000X0.020000*%
%ADD33R,0.920000X0.020000*%
%ADD34R,1.000000X0.020000*%
%ADD35R,1.080000X0.020000*%
%ADD36R,1.140000X0.020000*%
%ADD37R,1.200000X0.020000*%
%ADD38R,1.260000X0.020000*%
%ADD39R,1.320000X0.020000*%
%ADD40R,1.360000X0.020000*%
%ADD41R,1.400000X0.020000*%
%ADD42R,1.440000X0.020000*%
%ADD43R,1.480000X0.020000*%
%ADD44R,1.520000X0.020000*%
%ADD45R,1.640000X0.020000*%
%ADD46R,1.960000X0.020000*%
%ADD47R,2.000000X0.020000*%
%ADD48R,2.040000X0.020000*%
%ADD49R,2.060000X0.020000*%
%ADD50R,2.080000X0.020000*%
%ADD51R,2.100000X0.020000*%
%ADD52R,2.120000X0.020000*%
%ADD53R,1.940000X0.020000*%
%ADD54R,1.580000X0.020000*%
%ADD55R,1.540000X0.020000*%
%ADD56R,1.500000X0.020000*%
%ADD57R,1.460000X0.020000*%
%ADD58R,1.420000X0.020000*%
%ADD59R,1.280000X0.020000*%
%ADD60R,1.220000X0.020000*%
%ADD61R,1.160000X0.020000*%
%ADD62R,1.040000X0.020000*%
%ADD63R,0.960000X0.020000*%
%ADD64R,0.880000X0.020000*%
%ADD65R,0.760000X0.020000*%
%ADD66R,0.660000X0.020000*%
%ADD67R,0.520000X0.020000*%
%ADD68R,0.320000X0.020000*%
%ADD69C,0.050800*%
%ADD70C,0.152400*%
%ADD71C,0.025400*%
%ADD72C,0.127000*%
%ADD73R,18.542000X0.762000*%
%ADD74R,30.988000X0.508000*%
%ADD75R,0.812800X7.239000*%
%ADD76R,0.812800X4.699000*%
%ADD77C,0.254000*%
%ADD78C,0.200000*%
%ADD79C,0.101600*%
%ADD80C,0.203200*%
%ADD81C,0.020319*%


D10*
X827635Y516170D02*
X827635Y507687D01*
X831876Y503445D01*
X836118Y507687D01*
X836118Y516170D01*
X843567Y503445D02*
X847809Y503445D01*
X843567Y503445D02*
X841447Y505566D01*
X841447Y509808D01*
X843567Y511928D01*
X847809Y511928D01*
X849930Y509808D01*
X849930Y507687D01*
X841447Y507687D01*
X855258Y503445D02*
X855258Y511928D01*
X855258Y507687D02*
X859500Y511928D01*
X861621Y511928D01*
X866768Y503445D02*
X873131Y503445D01*
X875251Y505566D01*
X873131Y507687D01*
X868889Y507687D01*
X866768Y509808D01*
X868889Y511928D01*
X875251Y511928D01*
X880580Y511928D02*
X882701Y511928D01*
X882701Y503445D01*
X880580Y503445D02*
X884822Y503445D01*
X882701Y516170D02*
X882701Y518291D01*
X891909Y503445D02*
X896150Y503445D01*
X898271Y505566D01*
X898271Y509808D01*
X896150Y511928D01*
X891909Y511928D01*
X889788Y509808D01*
X889788Y505566D01*
X891909Y503445D01*
X903600Y503445D02*
X903600Y511928D01*
X909962Y511928D01*
X912083Y509808D01*
X912083Y503445D01*
X937586Y503445D02*
X937586Y516170D01*
X931223Y509808D01*
X939706Y509808D01*
X945035Y505566D02*
X945035Y503445D01*
X945035Y505566D02*
X947156Y505566D01*
X947156Y503445D01*
X945035Y503445D01*
X951941Y505566D02*
X951941Y514049D01*
X954062Y516170D01*
X958303Y516170D01*
X960424Y514049D01*
X960424Y505566D01*
X958303Y503445D01*
X954062Y503445D01*
X951941Y505566D01*
X960424Y514049D01*
X965753Y505566D02*
X965753Y503445D01*
X965753Y505566D02*
X967873Y505566D01*
X967873Y503445D01*
X965753Y503445D01*
X979021Y503445D02*
X979021Y516170D01*
X972658Y509808D01*
X981142Y509808D01*
X837994Y491549D02*
X837994Y483066D01*
X837994Y491549D02*
X840114Y493670D01*
X844356Y493670D01*
X846477Y491549D01*
X846477Y483066D01*
X844356Y480945D01*
X840114Y480945D01*
X837994Y483066D01*
X846477Y491549D01*
X858168Y493670D02*
X858168Y480945D01*
X851805Y487308D02*
X858168Y493670D01*
X860289Y487308D02*
X851805Y487308D01*
X865617Y480945D02*
X874100Y493670D01*
X879429Y491549D02*
X879429Y483066D01*
X879429Y491549D02*
X881550Y493670D01*
X885791Y493670D01*
X887912Y491549D01*
X887912Y483066D01*
X885791Y480945D01*
X881550Y480945D01*
X879429Y483066D01*
X887912Y491549D01*
X897482Y491549D02*
X901724Y493670D01*
X897482Y491549D02*
X893241Y487308D01*
X893241Y483066D01*
X895362Y480945D01*
X899603Y480945D01*
X901724Y483066D01*
X901724Y485187D01*
X899603Y487308D01*
X893241Y487308D01*
X907052Y480945D02*
X915536Y493670D01*
X920864Y480945D02*
X929348Y480945D01*
X929348Y489428D02*
X920864Y480945D01*
X929348Y489428D02*
X929348Y491549D01*
X927227Y493670D01*
X922985Y493670D01*
X920864Y491549D01*
X934676Y491549D02*
X934676Y483066D01*
X934676Y491549D02*
X936797Y493670D01*
X941038Y493670D01*
X943159Y491549D01*
X943159Y483066D01*
X941038Y480945D01*
X936797Y480945D01*
X934676Y483066D01*
X943159Y491549D01*
X948488Y480945D02*
X956971Y480945D01*
X948488Y480945D02*
X956971Y489428D01*
X956971Y491549D01*
X954850Y493670D01*
X950609Y493670D01*
X948488Y491549D01*
X968662Y493670D02*
X968662Y480945D01*
X962300Y487308D02*
X968662Y493670D01*
X970783Y487308D02*
X962300Y487308D01*
D11*
X888387Y537700D03*
X911587Y537700D03*
D12*
X888387Y537900D03*
X911587Y537900D03*
D13*
X888487Y538100D03*
X911487Y538100D03*
D14*
X888487Y538300D03*
X911487Y538300D03*
D15*
X888387Y538500D03*
D16*
X911487Y538500D03*
D17*
X888387Y538700D03*
X911587Y538700D03*
X888387Y538900D03*
D18*
X911487Y538900D03*
D19*
X888387Y539100D03*
D18*
X911487Y539100D03*
D19*
X888387Y539300D03*
D18*
X911487Y539300D03*
D19*
X888387Y539500D03*
X911587Y539500D03*
X888387Y539700D03*
X911587Y539700D03*
X888387Y539900D03*
X911587Y539900D03*
X888387Y540100D03*
X911587Y540100D03*
X888387Y540300D03*
X911587Y540300D03*
X888387Y540500D03*
X911587Y540500D03*
X888387Y540700D03*
X911587Y540700D03*
X888387Y540900D03*
X911587Y540900D03*
X888387Y541100D03*
X911587Y541100D03*
X888387Y541300D03*
X911587Y541300D03*
X888387Y541500D03*
X911587Y541500D03*
X888387Y541700D03*
X911587Y541700D03*
X888387Y541900D03*
X911587Y541900D03*
X888387Y542100D03*
X911587Y542100D03*
X888387Y542300D03*
X911587Y542300D03*
X888387Y542500D03*
X911587Y542500D03*
X888387Y542700D03*
X911587Y542700D03*
X888387Y542900D03*
X911587Y542900D03*
X888387Y543100D03*
X911587Y543100D03*
X888387Y543300D03*
X911587Y543300D03*
X888387Y543500D03*
X911587Y543500D03*
X888387Y543700D03*
X911587Y543700D03*
X888387Y543900D03*
X911587Y543900D03*
X888387Y544100D03*
X911587Y544100D03*
X888387Y544300D03*
X911587Y544300D03*
X888387Y544500D03*
X911587Y544500D03*
X888387Y544700D03*
X911587Y544700D03*
X888387Y544900D03*
X911587Y544900D03*
X888387Y545100D03*
X911587Y545100D03*
X888387Y545300D03*
X911587Y545300D03*
X888387Y545500D03*
X911587Y545500D03*
X888387Y545700D03*
X911587Y545700D03*
X888387Y545900D03*
X911587Y545900D03*
X888387Y546100D03*
X911587Y546100D03*
X888387Y546300D03*
X911587Y546300D03*
X888387Y546500D03*
X911587Y546500D03*
X888387Y546700D03*
X911587Y546700D03*
X888387Y546900D03*
X911587Y546900D03*
X888387Y547100D03*
X911587Y547100D03*
X888387Y547300D03*
X911587Y547300D03*
X888387Y547500D03*
X911587Y547500D03*
X888387Y547700D03*
X911587Y547700D03*
X888387Y547900D03*
X911587Y547900D03*
X888387Y548100D03*
X911587Y548100D03*
X888387Y548300D03*
X911587Y548300D03*
X888387Y548500D03*
X911587Y548500D03*
X888387Y548700D03*
X911587Y548700D03*
X888387Y548900D03*
X911587Y548900D03*
X888387Y549100D03*
X911587Y549100D03*
X888387Y549300D03*
X911587Y549300D03*
X888387Y549500D03*
X911587Y549500D03*
X888387Y549700D03*
X911587Y549700D03*
X888387Y549900D03*
X911587Y549900D03*
X888387Y550100D03*
X911587Y550100D03*
X888387Y550300D03*
X911587Y550300D03*
X888387Y550500D03*
X911587Y550500D03*
X888387Y550700D03*
X911587Y550700D03*
X888387Y550900D03*
X911587Y550900D03*
X888387Y551100D03*
X911587Y551100D03*
X888387Y551300D03*
X911587Y551300D03*
X888387Y551500D03*
X911587Y551500D03*
X888387Y551700D03*
X911587Y551700D03*
X888387Y551900D03*
X911587Y551900D03*
X888387Y552100D03*
X911587Y552100D03*
X888387Y552300D03*
X911587Y552300D03*
X888387Y552500D03*
X911587Y552500D03*
X888387Y552700D03*
X911587Y552700D03*
X888387Y552900D03*
X911587Y552900D03*
X888387Y553100D03*
X911587Y553100D03*
X888387Y553300D03*
X911587Y553300D03*
X888387Y553500D03*
X911587Y553500D03*
X888387Y553700D03*
X911587Y553700D03*
X888387Y553900D03*
X911587Y553900D03*
X888387Y554100D03*
X911587Y554100D03*
X888387Y554300D03*
X911587Y554300D03*
X888387Y554500D03*
X911587Y554500D03*
X888387Y554700D03*
X911587Y554700D03*
X888387Y554900D03*
X911587Y554900D03*
X888387Y555100D03*
X911587Y555100D03*
X888387Y555300D03*
D18*
X911487Y555300D03*
X888487Y555500D03*
X911487Y555500D03*
D17*
X888387Y555700D03*
X911587Y555700D03*
X888387Y555900D03*
D16*
X911487Y555900D03*
D15*
X888387Y556100D03*
X911587Y556100D03*
D20*
X888387Y556300D03*
X911587Y556300D03*
D21*
X888387Y556500D03*
X911587Y556500D03*
D22*
X888387Y556700D03*
X911587Y556700D03*
D23*
X888487Y560900D03*
X911487Y560900D03*
X934487Y560900D03*
D21*
X888387Y561100D03*
D24*
X911487Y561100D03*
X934487Y561100D03*
D20*
X888387Y561300D03*
X911587Y561300D03*
X934387Y561300D03*
D15*
X888387Y561500D03*
X911587Y561500D03*
X934387Y561500D03*
D16*
X888487Y561700D03*
X911487Y561700D03*
X934487Y561700D03*
D17*
X888387Y561900D03*
X911587Y561900D03*
X934387Y561900D03*
D18*
X888487Y562100D03*
X911487Y562100D03*
X934487Y562100D03*
D19*
X888387Y562300D03*
D18*
X911487Y562300D03*
X934487Y562300D03*
D19*
X888387Y562500D03*
X911587Y562500D03*
X934387Y562500D03*
X888387Y562700D03*
X911587Y562700D03*
X934387Y562700D03*
X888387Y562900D03*
X911587Y562900D03*
X934387Y562900D03*
X888387Y563100D03*
X911587Y563100D03*
X934387Y563100D03*
X888387Y563300D03*
X911587Y563300D03*
X934387Y563300D03*
X888387Y563500D03*
X911587Y563500D03*
X934387Y563500D03*
X888387Y563700D03*
X911587Y563700D03*
X934387Y563700D03*
X888387Y563900D03*
X911587Y563900D03*
X934387Y563900D03*
X888387Y564100D03*
X911587Y564100D03*
X934387Y564100D03*
X888387Y564300D03*
X911587Y564300D03*
X934387Y564300D03*
X888387Y564500D03*
X911587Y564500D03*
X934387Y564500D03*
X888387Y564700D03*
X911587Y564700D03*
X934387Y564700D03*
X888387Y564900D03*
X911587Y564900D03*
X934387Y564900D03*
X888387Y565100D03*
X911587Y565100D03*
X934387Y565100D03*
X888387Y565300D03*
X911587Y565300D03*
X934387Y565300D03*
X888387Y565500D03*
X911587Y565500D03*
X934387Y565500D03*
X888387Y565700D03*
X911587Y565700D03*
X934387Y565700D03*
X888387Y565900D03*
X911587Y565900D03*
X934387Y565900D03*
X888387Y566100D03*
X911587Y566100D03*
X934387Y566100D03*
X888387Y566300D03*
X911587Y566300D03*
X934387Y566300D03*
X888387Y566500D03*
X911587Y566500D03*
X934387Y566500D03*
X888387Y566700D03*
X911587Y566700D03*
X934387Y566700D03*
X888387Y566900D03*
X911587Y566900D03*
X888387Y567100D03*
X911587Y567100D03*
X934387Y567100D03*
X888387Y567300D03*
X911587Y567300D03*
X934387Y567300D03*
X888387Y567500D03*
X911587Y567500D03*
X934387Y567500D03*
X888387Y567700D03*
X911587Y567700D03*
X934387Y567700D03*
X888387Y567900D03*
X911587Y567900D03*
X934387Y567900D03*
X888387Y568100D03*
X911587Y568100D03*
X934387Y568100D03*
X888387Y568300D03*
X911587Y568300D03*
X934387Y568300D03*
X888387Y568500D03*
X911587Y568500D03*
X934387Y568500D03*
X888387Y568700D03*
X911587Y568700D03*
X934387Y568700D03*
X888387Y568900D03*
X911587Y568900D03*
X934387Y568900D03*
X888387Y569100D03*
X911587Y569100D03*
X934387Y569100D03*
X888387Y569300D03*
X911587Y569300D03*
X934387Y569300D03*
X888387Y569500D03*
X911587Y569500D03*
X934387Y569500D03*
X888387Y569700D03*
X911587Y569700D03*
X934387Y569700D03*
X888387Y569900D03*
X911587Y569900D03*
X934387Y569900D03*
X888387Y570100D03*
X911587Y570100D03*
X934387Y570100D03*
X888387Y570300D03*
X911587Y570300D03*
X934387Y570300D03*
X888387Y570500D03*
X911587Y570500D03*
X934387Y570500D03*
X888387Y570700D03*
X911587Y570700D03*
X934387Y570700D03*
X888387Y570900D03*
X911587Y570900D03*
X934387Y570900D03*
X888387Y571100D03*
X911587Y571100D03*
X934387Y571100D03*
X888387Y571300D03*
X911587Y571300D03*
X934387Y571300D03*
X888387Y571500D03*
X911587Y571500D03*
X934387Y571500D03*
X888387Y571700D03*
X911587Y571700D03*
X934387Y571700D03*
X888387Y571900D03*
X911587Y571900D03*
X934387Y571900D03*
X888387Y572100D03*
X934387Y572100D03*
X888387Y572300D03*
X911587Y572300D03*
X934387Y572300D03*
X888387Y572500D03*
X911587Y572500D03*
X934387Y572500D03*
X888387Y572700D03*
X911587Y572700D03*
X934387Y572700D03*
X888387Y572900D03*
X911587Y572900D03*
X934387Y572900D03*
X888387Y573100D03*
X911587Y573100D03*
X934387Y573100D03*
X888387Y573300D03*
X911587Y573300D03*
X934387Y573300D03*
X888387Y573500D03*
X911587Y573500D03*
X934387Y573500D03*
X888387Y573700D03*
X911587Y573700D03*
X934387Y573700D03*
X888387Y573900D03*
X911587Y573900D03*
X934387Y573900D03*
X888387Y574100D03*
X911587Y574100D03*
X934387Y574100D03*
X888387Y574300D03*
X911587Y574300D03*
X934387Y574300D03*
X888387Y574500D03*
X911587Y574500D03*
X934387Y574500D03*
X888387Y574700D03*
X911587Y574700D03*
X934387Y574700D03*
X888387Y574900D03*
X911587Y574900D03*
X934387Y574900D03*
X888387Y575100D03*
X911587Y575100D03*
X934387Y575100D03*
X888387Y575300D03*
X911587Y575300D03*
X934387Y575300D03*
X888387Y575500D03*
X911587Y575500D03*
X934387Y575500D03*
X888387Y575700D03*
X911587Y575700D03*
X934387Y575700D03*
X888387Y575900D03*
X911587Y575900D03*
X934387Y575900D03*
X888387Y576100D03*
X911587Y576100D03*
X934387Y576100D03*
X888387Y576300D03*
X911587Y576300D03*
X934387Y576300D03*
X888387Y576500D03*
X911587Y576500D03*
X934387Y576500D03*
X888387Y576700D03*
X911587Y576700D03*
X934387Y576700D03*
X888387Y576900D03*
X911587Y576900D03*
X934387Y576900D03*
X888387Y577100D03*
X911587Y577100D03*
X934387Y577100D03*
X888387Y577300D03*
X911587Y577300D03*
X934387Y577300D03*
X888387Y577500D03*
X911587Y577500D03*
X934387Y577500D03*
X888387Y577700D03*
X911587Y577700D03*
X934387Y577700D03*
X888387Y577900D03*
X911587Y577900D03*
X934387Y577900D03*
X888387Y578100D03*
X911587Y578100D03*
X934387Y578100D03*
X888387Y578300D03*
D18*
X934487Y578300D03*
D19*
X888387Y578500D03*
D18*
X911487Y578500D03*
X934487Y578500D03*
D17*
X888387Y578700D03*
D18*
X911487Y578700D03*
X934487Y578700D03*
D17*
X888387Y578900D03*
X911587Y578900D03*
X934387Y578900D03*
D15*
X888387Y579100D03*
D16*
X911487Y579100D03*
X934487Y579100D03*
D15*
X888387Y579300D03*
D14*
X911487Y579300D03*
X934487Y579300D03*
D20*
X888387Y579500D03*
D13*
X911487Y579500D03*
X934487Y579500D03*
D12*
X888387Y579700D03*
D24*
X911487Y579700D03*
X934487Y579700D03*
D25*
X888487Y579900D03*
X911487Y579900D03*
X934487Y579900D03*
D26*
X911587Y583900D03*
D12*
X888387Y584100D03*
D27*
X911487Y584100D03*
D21*
X888387Y584300D03*
D13*
X911487Y584300D03*
D20*
X888387Y584500D03*
D14*
X911487Y584500D03*
D15*
X888387Y584700D03*
D16*
X911487Y584700D03*
D17*
X888387Y584900D03*
D16*
X911487Y584900D03*
D17*
X888387Y585100D03*
D18*
X911487Y585100D03*
X888487Y585300D03*
X911487Y585300D03*
D19*
X888387Y585500D03*
D18*
X911487Y585500D03*
D19*
X888387Y585700D03*
X911587Y585700D03*
X888387Y585900D03*
X911587Y585900D03*
X888387Y586100D03*
X911587Y586100D03*
X888387Y586300D03*
X911587Y586300D03*
X888387Y586500D03*
X911587Y586500D03*
X888387Y586700D03*
X911587Y586700D03*
X888387Y586900D03*
X911587Y586900D03*
X888387Y587100D03*
X911587Y587100D03*
X888387Y587300D03*
X911587Y587300D03*
X888387Y587500D03*
X911587Y587500D03*
X888387Y587700D03*
X911587Y587700D03*
X888387Y587900D03*
X911587Y587900D03*
X888387Y588100D03*
X911587Y588100D03*
X888387Y588300D03*
X913873Y560868D03*
X888387Y588500D03*
X911587Y588500D03*
X888387Y588700D03*
X911587Y588700D03*
X888387Y588900D03*
X911587Y588900D03*
X888387Y589100D03*
X911587Y589100D03*
X888387Y589300D03*
X911587Y589300D03*
X888387Y589500D03*
X911587Y589500D03*
X888387Y589700D03*
X911587Y589700D03*
X888387Y589900D03*
X911587Y589900D03*
X888387Y590100D03*
X911587Y590100D03*
X888387Y590300D03*
X911587Y590300D03*
X888387Y590500D03*
X911587Y590500D03*
X888387Y590700D03*
X911587Y590700D03*
X888387Y590900D03*
X911587Y590900D03*
X888387Y591100D03*
X911587Y591100D03*
X888387Y591300D03*
X911587Y591300D03*
X888387Y591500D03*
X911587Y591500D03*
X888387Y591700D03*
X911587Y591700D03*
X888387Y591900D03*
X911587Y591900D03*
X888387Y592100D03*
X911587Y592100D03*
X888387Y592300D03*
X911587Y592300D03*
X888387Y592500D03*
X911587Y592500D03*
X888387Y592700D03*
X911587Y592700D03*
X888387Y592900D03*
X911587Y592900D03*
X888387Y593100D03*
X911587Y593100D03*
X888387Y593300D03*
X911587Y593300D03*
X888387Y593500D03*
X911587Y593500D03*
X888387Y593700D03*
X911587Y593700D03*
X888387Y593900D03*
X911587Y593900D03*
X888387Y594100D03*
X911587Y594100D03*
X888387Y594300D03*
X911587Y594300D03*
X888387Y594500D03*
X911587Y594500D03*
X888387Y594700D03*
X911587Y594700D03*
X888387Y594900D03*
X911587Y594900D03*
X888387Y595100D03*
X911587Y595100D03*
X888387Y595300D03*
X911587Y595300D03*
X888387Y595500D03*
X911587Y595500D03*
X888387Y595700D03*
X911587Y595700D03*
X888387Y595900D03*
X911587Y595900D03*
X888387Y596100D03*
X911587Y596100D03*
X888387Y596300D03*
X911587Y596300D03*
X888387Y596500D03*
X911587Y596500D03*
X888387Y596700D03*
X911587Y596700D03*
X888387Y596900D03*
X911587Y596900D03*
X888387Y597100D03*
X911587Y597100D03*
X888387Y597300D03*
X911587Y597300D03*
X888387Y597500D03*
X911587Y597500D03*
X888387Y597700D03*
X911587Y597700D03*
X888387Y597900D03*
X911587Y597900D03*
X888387Y598100D03*
X911587Y598100D03*
X888387Y598300D03*
X911587Y598300D03*
X888387Y598500D03*
X911587Y598500D03*
X888387Y598700D03*
X911587Y598700D03*
X888387Y598900D03*
X911587Y598900D03*
X888387Y599100D03*
X911587Y599100D03*
X888387Y599300D03*
X888387Y599500D03*
X911587Y599500D03*
X888387Y599700D03*
X911587Y599700D03*
X888387Y599900D03*
X911587Y599900D03*
X888387Y600100D03*
X911587Y600100D03*
X888387Y600300D03*
X911587Y600300D03*
X888387Y600500D03*
X911587Y600500D03*
X888387Y600700D03*
X911587Y600700D03*
X888387Y600900D03*
X911587Y600900D03*
X888387Y601100D03*
X911587Y601100D03*
X888387Y601300D03*
X911587Y601300D03*
X888387Y601500D03*
D18*
X911487Y601500D03*
X888487Y601700D03*
X911487Y601700D03*
D17*
X888387Y601900D03*
D18*
X911487Y601900D03*
D17*
X888387Y602100D03*
D16*
X911487Y602100D03*
D15*
X888387Y602300D03*
X911587Y602300D03*
D20*
X888387Y602500D03*
D14*
X911487Y602500D03*
D21*
X888387Y602700D03*
X911587Y602700D03*
D22*
X888387Y602900D03*
D27*
X911487Y602900D03*
D28*
X888487Y605900D03*
D29*
X888387Y606100D03*
D30*
X888487Y606300D03*
D31*
X888487Y606500D03*
D32*
X888387Y606700D03*
D33*
X888387Y606900D03*
D25*
X911487Y606900D03*
X934487Y606900D03*
D34*
X888387Y607100D03*
D24*
X911487Y607100D03*
X934487Y607100D03*
D35*
X888387Y607300D03*
D13*
X911487Y607300D03*
X934487Y607300D03*
D36*
X888487Y607500D03*
D14*
X911487Y607500D03*
X934487Y607500D03*
D37*
X888387Y607700D03*
D16*
X911487Y607700D03*
X934487Y607700D03*
D38*
X888487Y607900D03*
D17*
X911587Y607900D03*
X934387Y607900D03*
D39*
X888387Y608100D03*
D18*
X911487Y608100D03*
X934487Y608100D03*
D40*
X888387Y608300D03*
D18*
X911487Y608300D03*
X934487Y608300D03*
D41*
X888387Y608500D03*
D19*
X911587Y608500D03*
D18*
X934487Y608500D03*
D42*
X888387Y608700D03*
D19*
X911587Y608700D03*
X934387Y608700D03*
D43*
X888387Y608900D03*
D19*
X911587Y608900D03*
X934387Y608900D03*
D44*
X888387Y609100D03*
D19*
X911587Y609100D03*
X934387Y609100D03*
D26*
X888387Y609300D03*
D19*
X911587Y609300D03*
X934387Y609300D03*
D11*
X888387Y609500D03*
D19*
X911587Y609500D03*
X934387Y609500D03*
D45*
X888387Y609700D03*
D19*
X911587Y609700D03*
X934387Y609700D03*
D22*
X888387Y609900D03*
D19*
X911587Y609900D03*
X934387Y609900D03*
D27*
X888487Y610100D03*
D19*
X911587Y610100D03*
X934387Y610100D03*
D12*
X888387Y610300D03*
D19*
X911587Y610300D03*
X934387Y610300D03*
D21*
X888387Y610500D03*
D19*
X911587Y610500D03*
X934387Y610500D03*
D13*
X888487Y610700D03*
D19*
X911587Y610700D03*
X934387Y610700D03*
D20*
X888387Y610900D03*
D19*
X911587Y610900D03*
X934387Y610900D03*
D15*
X888387Y611100D03*
D19*
X911587Y611100D03*
X934387Y611100D03*
D15*
X888387Y611300D03*
D19*
X911587Y611300D03*
X934387Y611300D03*
D17*
X888387Y611500D03*
D19*
X911587Y611500D03*
X934387Y611500D03*
D18*
X888487Y611700D03*
D19*
X911587Y611700D03*
X934387Y611700D03*
X888387Y611900D03*
X911587Y611900D03*
X934387Y611900D03*
X888387Y612100D03*
X911587Y612100D03*
X934387Y612100D03*
D46*
X888387Y612300D03*
D19*
X911587Y612300D03*
X934387Y612300D03*
D46*
X888387Y612500D03*
D19*
X911587Y612500D03*
X934387Y612500D03*
D47*
X888387Y612700D03*
D19*
X911587Y612700D03*
X934387Y612700D03*
D47*
X888387Y612900D03*
D19*
X911587Y612900D03*
X934387Y612900D03*
D47*
X888387Y613100D03*
D19*
X911587Y613100D03*
X934387Y613100D03*
D48*
X888387Y613300D03*
D19*
X911587Y613300D03*
X934387Y613300D03*
D48*
X888387Y613500D03*
D19*
X911587Y613500D03*
X934387Y613500D03*
D48*
X888387Y613700D03*
D19*
X911587Y613700D03*
X934387Y613700D03*
D49*
X888487Y613900D03*
D19*
X911587Y613900D03*
X934387Y613900D03*
D50*
X888387Y614100D03*
D19*
X911587Y614100D03*
X934387Y614100D03*
D50*
X888387Y614300D03*
D19*
X911587Y614300D03*
X934387Y614300D03*
D50*
X888387Y614500D03*
D19*
X911587Y614500D03*
X934387Y614500D03*
D50*
X888387Y614700D03*
D19*
X911587Y614700D03*
X934387Y614700D03*
D51*
X888487Y614900D03*
D19*
X911587Y614900D03*
X934387Y614900D03*
D52*
X888387Y615100D03*
D19*
X911587Y615100D03*
X934387Y615100D03*
D52*
X888387Y615300D03*
D19*
X911587Y615300D03*
X934387Y615300D03*
D52*
X888387Y615500D03*
D19*
X911587Y615500D03*
X934387Y615500D03*
D52*
X888387Y615700D03*
D19*
X911587Y615700D03*
X934387Y615700D03*
D52*
X888387Y615900D03*
D19*
X911587Y615900D03*
X934387Y615900D03*
D52*
X888387Y616100D03*
D19*
X911587Y616100D03*
X934387Y616100D03*
D52*
X888387Y616300D03*
D19*
X911587Y616300D03*
X934387Y616300D03*
D52*
X888387Y616500D03*
D19*
X911587Y616500D03*
X934387Y616500D03*
D52*
X888387Y616700D03*
D19*
X911587Y616700D03*
X934387Y616700D03*
D52*
X888387Y616900D03*
D19*
X911587Y616900D03*
X934387Y616900D03*
D52*
X888387Y617100D03*
D19*
X911587Y617100D03*
X934387Y617100D03*
D52*
X888387Y617300D03*
D19*
X911587Y617300D03*
X934387Y617300D03*
D52*
X888387Y617500D03*
D19*
X911587Y617500D03*
X934387Y617500D03*
D52*
X888387Y617700D03*
D19*
X911587Y617700D03*
X934387Y617700D03*
D51*
X888487Y617900D03*
D19*
X911587Y617900D03*
X934387Y617900D03*
D50*
X888387Y618100D03*
D19*
X911587Y618100D03*
X934387Y618100D03*
D50*
X888387Y618300D03*
D19*
X911587Y618300D03*
X934387Y618300D03*
D50*
X888387Y618500D03*
D19*
X911587Y618500D03*
X934387Y618500D03*
D50*
X888387Y618700D03*
D19*
X911587Y618700D03*
X934387Y618700D03*
D49*
X888487Y618900D03*
D19*
X911587Y618900D03*
X934387Y618900D03*
D48*
X888387Y619100D03*
D19*
X911587Y619100D03*
X934387Y619100D03*
D48*
X888387Y619300D03*
D19*
X911587Y619300D03*
X934387Y619300D03*
D48*
X888387Y619500D03*
D19*
X911587Y619500D03*
X934387Y619500D03*
D47*
X888387Y619700D03*
D19*
X911587Y619700D03*
X934387Y619700D03*
D47*
X888387Y619900D03*
D19*
X911587Y619900D03*
X934387Y619900D03*
X911587Y620100D03*
X934387Y620100D03*
D46*
X888387Y620300D03*
D19*
X911587Y620300D03*
X934387Y620300D03*
D46*
X888387Y620500D03*
D19*
X911587Y620500D03*
X934387Y620500D03*
D53*
X888487Y620700D03*
D19*
X911587Y620700D03*
X934387Y620700D03*
X888387Y620900D03*
X911587Y620900D03*
X934387Y620900D03*
D18*
X888487Y621100D03*
D19*
X911587Y621100D03*
X934387Y621100D03*
D17*
X888387Y621300D03*
D19*
X911587Y621300D03*
X934387Y621300D03*
D16*
X888487Y621500D03*
D19*
X911587Y621500D03*
X934387Y621500D03*
D15*
X888387Y621700D03*
D19*
X911587Y621700D03*
X934387Y621700D03*
D20*
X888387Y621900D03*
D19*
X911587Y621900D03*
X934387Y621900D03*
D20*
X888387Y622100D03*
D19*
X911587Y622100D03*
X934387Y622100D03*
D21*
X888387Y622300D03*
D19*
X911587Y622300D03*
X934387Y622300D03*
D24*
X888487Y622500D03*
D19*
X911587Y622500D03*
X934387Y622500D03*
D12*
X888387Y622700D03*
D19*
X911587Y622700D03*
X934387Y622700D03*
D22*
X888387Y622900D03*
D19*
X911587Y622900D03*
X934387Y622900D03*
D45*
X888387Y623100D03*
D19*
X911587Y623100D03*
X934387Y623100D03*
D11*
X888387Y623300D03*
D19*
X911587Y623300D03*
X934387Y623300D03*
D54*
X888487Y623500D03*
D19*
X911587Y623500D03*
X934387Y623500D03*
D55*
X888487Y623700D03*
D19*
X911587Y623700D03*
X934387Y623700D03*
D56*
X888487Y623900D03*
D19*
X911587Y623900D03*
X934387Y623900D03*
D57*
X888487Y624100D03*
D19*
X911587Y624100D03*
X934387Y624100D03*
D58*
X888487Y624300D03*
D19*
X911587Y624300D03*
D18*
X934487Y624300D03*
D40*
X888387Y624500D03*
D18*
X911487Y624500D03*
X934487Y624500D03*
D39*
X888387Y624700D03*
D18*
X911487Y624700D03*
X934487Y624700D03*
D59*
X888387Y624900D03*
D17*
X911587Y624900D03*
X934387Y624900D03*
D60*
X888487Y625100D03*
D16*
X911487Y625100D03*
X934487Y625100D03*
D61*
X888387Y625300D03*
D15*
X911587Y625300D03*
D14*
X934487Y625300D03*
D35*
X888387Y625500D03*
D20*
X911587Y625500D03*
X934387Y625500D03*
D62*
X888387Y625700D03*
D24*
X911487Y625700D03*
X934487Y625700D03*
D63*
X888387Y625900D03*
D23*
X911487Y625900D03*
X934487Y625900D03*
D64*
X888387Y626100D03*
D65*
X888387Y626300D03*
D66*
X888487Y626500D03*
D67*
X888387Y626700D03*
D68*
X888387Y626900D03*
D19*
X911587Y599300D03*
D47*
X888387Y620100D03*
D69*
X448994Y547570D02*
X448994Y545536D01*
X449672Y546892D02*
X448994Y547570D01*
X449672Y546892D02*
X450350Y547570D01*
X450350Y545536D01*
X540994Y545536D02*
X540994Y547570D01*
X540994Y545536D02*
X542350Y545536D01*
X448994Y423875D02*
X449333Y423536D01*
X449672Y423536D01*
X450011Y423875D01*
X450011Y425570D01*
X449672Y425570D02*
X450350Y425570D01*
X540994Y425570D02*
X540994Y423536D01*
X540994Y424214D02*
X542350Y425570D01*
X541333Y424553D02*
X542350Y423536D01*
D70*
X793442Y340990D02*
X793442Y247010D01*
X832558Y340990D02*
X832556Y341112D01*
X832550Y341234D01*
X832540Y341356D01*
X832527Y341477D01*
X832509Y341598D01*
X832488Y341718D01*
X832462Y341838D01*
X832433Y341956D01*
X832401Y342074D01*
X832364Y342191D01*
X832324Y342306D01*
X832280Y342420D01*
X832232Y342532D01*
X832181Y342643D01*
X832126Y342752D01*
X832068Y342860D01*
X832006Y342965D01*
X831941Y343068D01*
X831873Y343170D01*
X831801Y343269D01*
X831727Y343365D01*
X831649Y343460D01*
X831568Y343551D01*
X831485Y343641D01*
X831399Y343727D01*
X831309Y343810D01*
X831218Y343891D01*
X831123Y343969D01*
X831027Y344043D01*
X830928Y344115D01*
X830826Y344183D01*
X830723Y344248D01*
X830618Y344310D01*
X830510Y344368D01*
X830401Y344423D01*
X830290Y344474D01*
X830178Y344522D01*
X830064Y344566D01*
X829949Y344606D01*
X829832Y344643D01*
X829714Y344675D01*
X829596Y344704D01*
X829476Y344730D01*
X829356Y344751D01*
X829235Y344769D01*
X829114Y344782D01*
X828992Y344792D01*
X828870Y344798D01*
X828748Y344800D01*
X793442Y247010D02*
X793444Y246888D01*
X793450Y246766D01*
X793460Y246644D01*
X793473Y246523D01*
X793491Y246402D01*
X793512Y246282D01*
X793538Y246162D01*
X793567Y246044D01*
X793599Y245926D01*
X793636Y245809D01*
X793676Y245694D01*
X793720Y245580D01*
X793768Y245468D01*
X793819Y245357D01*
X793874Y245248D01*
X793932Y245140D01*
X793994Y245035D01*
X794059Y244932D01*
X794127Y244830D01*
X794199Y244731D01*
X794273Y244635D01*
X794351Y244540D01*
X794432Y244449D01*
X794515Y244359D01*
X794601Y244273D01*
X794691Y244190D01*
X794782Y244109D01*
X794877Y244031D01*
X794973Y243957D01*
X795072Y243885D01*
X795174Y243817D01*
X795277Y243752D01*
X795382Y243690D01*
X795490Y243632D01*
X795599Y243577D01*
X795710Y243526D01*
X795822Y243478D01*
X795936Y243434D01*
X796051Y243394D01*
X796168Y243357D01*
X796286Y243325D01*
X796404Y243296D01*
X796524Y243270D01*
X796644Y243249D01*
X796765Y243231D01*
X796886Y243218D01*
X797008Y243208D01*
X797130Y243202D01*
X797252Y243200D01*
X793442Y340990D02*
X793444Y341112D01*
X793450Y341234D01*
X793460Y341356D01*
X793473Y341477D01*
X793491Y341598D01*
X793512Y341718D01*
X793538Y341838D01*
X793567Y341956D01*
X793599Y342074D01*
X793636Y342191D01*
X793676Y342306D01*
X793720Y342420D01*
X793768Y342532D01*
X793819Y342643D01*
X793874Y342752D01*
X793932Y342860D01*
X793994Y342965D01*
X794059Y343068D01*
X794127Y343170D01*
X794199Y343269D01*
X794273Y343365D01*
X794351Y343460D01*
X794432Y343551D01*
X794515Y343641D01*
X794601Y343727D01*
X794691Y343810D01*
X794782Y343891D01*
X794877Y343969D01*
X794973Y344043D01*
X795072Y344115D01*
X795174Y344183D01*
X795277Y344248D01*
X795382Y344310D01*
X795490Y344368D01*
X795599Y344423D01*
X795710Y344474D01*
X795822Y344522D01*
X795936Y344566D01*
X796051Y344606D01*
X796168Y344643D01*
X796286Y344675D01*
X796404Y344704D01*
X796524Y344730D01*
X796644Y344751D01*
X796765Y344769D01*
X796886Y344782D01*
X797008Y344792D01*
X797130Y344798D01*
X797252Y344800D01*
X832558Y247010D02*
X832556Y246888D01*
X832550Y246766D01*
X832540Y246644D01*
X832527Y246523D01*
X832509Y246402D01*
X832488Y246282D01*
X832462Y246162D01*
X832433Y246044D01*
X832401Y245926D01*
X832364Y245809D01*
X832324Y245694D01*
X832280Y245580D01*
X832232Y245468D01*
X832181Y245357D01*
X832126Y245248D01*
X832068Y245140D01*
X832006Y245035D01*
X831941Y244932D01*
X831873Y244830D01*
X831801Y244731D01*
X831727Y244635D01*
X831649Y244540D01*
X831568Y244449D01*
X831485Y244359D01*
X831399Y244273D01*
X831309Y244190D01*
X831218Y244109D01*
X831123Y244031D01*
X831027Y243957D01*
X830928Y243885D01*
X830826Y243817D01*
X830723Y243752D01*
X830618Y243690D01*
X830510Y243632D01*
X830401Y243577D01*
X830290Y243526D01*
X830178Y243478D01*
X830064Y243434D01*
X829949Y243394D01*
X829832Y243357D01*
X829714Y243325D01*
X829596Y243296D01*
X829476Y243270D01*
X829356Y243249D01*
X829235Y243231D01*
X829114Y243218D01*
X828992Y243208D01*
X828870Y243202D01*
X828748Y243200D01*
X832558Y247010D02*
X832558Y340990D01*
X828748Y344800D02*
X797252Y344800D01*
X797252Y243200D02*
X828748Y243200D01*
X818080Y243200D02*
X818078Y243341D01*
X818072Y243482D01*
X818062Y243623D01*
X818049Y243764D01*
X818031Y243904D01*
X818009Y244043D01*
X817984Y244182D01*
X817955Y244321D01*
X817922Y244458D01*
X817885Y244594D01*
X817844Y244729D01*
X817800Y244864D01*
X817752Y244996D01*
X817700Y245128D01*
X817645Y245258D01*
X817586Y245386D01*
X817523Y245513D01*
X817457Y245637D01*
X817388Y245760D01*
X817315Y245881D01*
X817239Y246000D01*
X817159Y246117D01*
X817076Y246231D01*
X816991Y246344D01*
X816902Y246453D01*
X816810Y246561D01*
X816715Y246665D01*
X816617Y246767D01*
X816516Y246866D01*
X816413Y246963D01*
X816307Y247056D01*
X816199Y247146D01*
X816088Y247234D01*
X815975Y247318D01*
X815859Y247399D01*
X815741Y247477D01*
X815621Y247552D01*
X815499Y247623D01*
X815375Y247691D01*
X815249Y247755D01*
X815122Y247816D01*
X814993Y247873D01*
X814862Y247926D01*
X814730Y247976D01*
X814597Y248023D01*
X814462Y248065D01*
X814326Y248104D01*
X814189Y248139D01*
X814052Y248170D01*
X813913Y248197D01*
X813774Y248221D01*
X813634Y248240D01*
X813494Y248256D01*
X813353Y248268D01*
X813212Y248276D01*
X813071Y248280D01*
X812929Y248280D01*
X812788Y248276D01*
X812647Y248268D01*
X812506Y248256D01*
X812366Y248240D01*
X812226Y248221D01*
X812087Y248197D01*
X811948Y248170D01*
X811811Y248139D01*
X811674Y248104D01*
X811538Y248065D01*
X811403Y248023D01*
X811270Y247976D01*
X811138Y247926D01*
X811007Y247873D01*
X810878Y247816D01*
X810751Y247755D01*
X810625Y247691D01*
X810501Y247623D01*
X810379Y247552D01*
X810259Y247477D01*
X810141Y247399D01*
X810025Y247318D01*
X809912Y247234D01*
X809801Y247146D01*
X809693Y247056D01*
X809587Y246963D01*
X809484Y246866D01*
X809383Y246767D01*
X809285Y246665D01*
X809190Y246561D01*
X809098Y246453D01*
X809009Y246344D01*
X808924Y246231D01*
X808841Y246117D01*
X808761Y246000D01*
X808685Y245881D01*
X808612Y245760D01*
X808543Y245637D01*
X808477Y245513D01*
X808414Y245386D01*
X808355Y245258D01*
X808300Y245128D01*
X808248Y244996D01*
X808200Y244864D01*
X808156Y244729D01*
X808115Y244594D01*
X808078Y244458D01*
X808045Y244321D01*
X808016Y244182D01*
X807991Y244043D01*
X807969Y243904D01*
X807951Y243764D01*
X807938Y243623D01*
X807928Y243482D01*
X807922Y243341D01*
X807920Y243200D01*
D69*
X829002Y243200D02*
X829002Y344800D01*
X824781Y235580D02*
X823595Y235580D01*
X824188Y235580D02*
X824188Y239139D01*
X823595Y239139D02*
X824781Y239139D01*
X827869Y239139D02*
X828463Y238546D01*
X827869Y239139D02*
X826683Y239139D01*
X826090Y238546D01*
X826090Y236173D01*
X826683Y235580D01*
X827869Y235580D01*
X828463Y236173D01*
X829832Y237953D02*
X831018Y239139D01*
X831018Y235580D01*
X829832Y235580D02*
X832205Y235580D01*
D71*
X861885Y387541D02*
X861249Y388176D01*
X859978Y388176D01*
X859343Y387541D01*
X859343Y384999D01*
X859978Y384363D01*
X861249Y384363D01*
X861885Y384999D01*
X863085Y386905D02*
X864356Y388176D01*
X864356Y384363D01*
X863085Y384363D02*
X865627Y384363D01*
X935459Y252885D02*
X934824Y252249D01*
X934824Y250978D01*
X935459Y250343D01*
X938001Y250343D01*
X938637Y250978D01*
X938637Y252249D01*
X938001Y252885D01*
X935459Y254085D02*
X934824Y254720D01*
X934824Y255992D01*
X935459Y256627D01*
X936095Y256627D01*
X936730Y255992D01*
X936730Y255356D01*
X936730Y255992D02*
X937366Y256627D01*
X938001Y256627D01*
X938637Y255992D01*
X938637Y254720D01*
X938001Y254085D01*
X934824Y303249D02*
X935459Y303885D01*
X934824Y303249D02*
X934824Y301978D01*
X935459Y301343D01*
X938001Y301343D01*
X938637Y301978D01*
X938637Y303249D01*
X938001Y303885D01*
X938637Y306992D02*
X934824Y306992D01*
X936730Y305085D01*
X936730Y307627D01*
X768969Y193005D02*
X768334Y193640D01*
X767063Y193640D01*
X766427Y193005D01*
X766427Y190463D01*
X767063Y189827D01*
X768334Y189827D01*
X768969Y190463D01*
X770169Y193640D02*
X772711Y193640D01*
X770169Y193640D02*
X770169Y191734D01*
X771440Y192369D01*
X772076Y192369D01*
X772711Y191734D01*
X772711Y190463D01*
X772076Y189827D01*
X770805Y189827D01*
X770169Y190463D01*
X934824Y196249D02*
X935459Y196885D01*
X934824Y196249D02*
X934824Y194978D01*
X935459Y194343D01*
X938001Y194343D01*
X938637Y194978D01*
X938637Y196249D01*
X938001Y196885D01*
X935459Y199356D02*
X934824Y200627D01*
X935459Y199356D02*
X936730Y198085D01*
X938001Y198085D01*
X938637Y198720D01*
X938637Y199992D01*
X938001Y200627D01*
X937366Y200627D01*
X936730Y199992D01*
X936730Y198085D01*
D70*
X906200Y-69070D02*
X903660Y-69070D01*
X906200Y-69070D02*
X906340Y-69068D01*
X906480Y-69062D01*
X906620Y-69053D01*
X906759Y-69039D01*
X906898Y-69022D01*
X907036Y-69001D01*
X907174Y-68976D01*
X907311Y-68947D01*
X907447Y-68915D01*
X907582Y-68878D01*
X907716Y-68838D01*
X907849Y-68795D01*
X907981Y-68747D01*
X908112Y-68697D01*
X908241Y-68642D01*
X908368Y-68584D01*
X908494Y-68523D01*
X908618Y-68458D01*
X908740Y-68389D01*
X908860Y-68318D01*
X908978Y-68243D01*
X909095Y-68165D01*
X909209Y-68083D01*
X909320Y-67999D01*
X909429Y-67911D01*
X909536Y-67821D01*
X909641Y-67727D01*
X909742Y-67631D01*
X909841Y-67532D01*
X909937Y-67431D01*
X910031Y-67326D01*
X910121Y-67219D01*
X910209Y-67110D01*
X910293Y-66999D01*
X910375Y-66885D01*
X910453Y-66768D01*
X910528Y-66650D01*
X910599Y-66530D01*
X910668Y-66408D01*
X910733Y-66284D01*
X910794Y-66158D01*
X910852Y-66031D01*
X910907Y-65902D01*
X910957Y-65771D01*
X911005Y-65639D01*
X911048Y-65506D01*
X911088Y-65372D01*
X911125Y-65237D01*
X911157Y-65101D01*
X911186Y-64964D01*
X911211Y-64826D01*
X911232Y-64688D01*
X911249Y-64549D01*
X911263Y-64410D01*
X911272Y-64270D01*
X911278Y-64130D01*
X911280Y-63990D01*
X753800Y-69070D02*
X753660Y-69068D01*
X753520Y-69062D01*
X753380Y-69053D01*
X753241Y-69039D01*
X753102Y-69022D01*
X752964Y-69001D01*
X752826Y-68976D01*
X752689Y-68947D01*
X752553Y-68915D01*
X752418Y-68878D01*
X752284Y-68838D01*
X752151Y-68795D01*
X752019Y-68747D01*
X751888Y-68697D01*
X751759Y-68642D01*
X751632Y-68584D01*
X751506Y-68523D01*
X751382Y-68458D01*
X751260Y-68389D01*
X751140Y-68318D01*
X751022Y-68243D01*
X750905Y-68165D01*
X750791Y-68083D01*
X750680Y-67999D01*
X750571Y-67911D01*
X750464Y-67821D01*
X750359Y-67727D01*
X750258Y-67631D01*
X750159Y-67532D01*
X750063Y-67431D01*
X749969Y-67326D01*
X749879Y-67219D01*
X749791Y-67110D01*
X749707Y-66999D01*
X749625Y-66885D01*
X749547Y-66768D01*
X749472Y-66650D01*
X749401Y-66530D01*
X749332Y-66408D01*
X749267Y-66284D01*
X749206Y-66158D01*
X749148Y-66031D01*
X749093Y-65902D01*
X749043Y-65771D01*
X748995Y-65639D01*
X748952Y-65506D01*
X748912Y-65372D01*
X748875Y-65237D01*
X748843Y-65101D01*
X748814Y-64964D01*
X748789Y-64826D01*
X748768Y-64688D01*
X748751Y-64549D01*
X748737Y-64410D01*
X748728Y-64270D01*
X748722Y-64130D01*
X748720Y-63990D01*
X934140Y33800D02*
X984940Y33800D01*
X984940Y3320D01*
X984940Y33800D02*
X984940Y35070D01*
X984940Y3320D02*
X984940Y-1760D01*
X984940Y-6840D01*
X675060Y-6840D02*
X675060Y-1760D01*
X675060Y3320D01*
X675060Y33800D01*
X675060Y35070D01*
X959540Y-1760D02*
X984940Y-1760D01*
X959540Y-1760D02*
X934140Y-1760D01*
X934140Y3320D01*
X932870Y3320D01*
X932870Y27450D02*
X932868Y27608D01*
X932862Y27767D01*
X932852Y27925D01*
X932838Y28082D01*
X932821Y28240D01*
X932799Y28396D01*
X932774Y28553D01*
X932744Y28708D01*
X932711Y28863D01*
X932674Y29017D01*
X932633Y29170D01*
X932588Y29322D01*
X932539Y29472D01*
X932487Y29622D01*
X932431Y29770D01*
X932371Y29917D01*
X932308Y30062D01*
X932241Y30205D01*
X932171Y30347D01*
X932097Y30487D01*
X932019Y30625D01*
X931938Y30761D01*
X931854Y30895D01*
X931767Y31027D01*
X931676Y31157D01*
X931582Y31284D01*
X931485Y31409D01*
X931384Y31532D01*
X931281Y31652D01*
X931175Y31769D01*
X931066Y31884D01*
X930954Y31996D01*
X930839Y32105D01*
X930722Y32211D01*
X930602Y32314D01*
X930479Y32415D01*
X930354Y32512D01*
X930227Y32606D01*
X930097Y32697D01*
X929965Y32784D01*
X929831Y32868D01*
X929695Y32949D01*
X929557Y33027D01*
X929417Y33101D01*
X929275Y33171D01*
X929132Y33238D01*
X928987Y33301D01*
X928840Y33361D01*
X928692Y33417D01*
X928542Y33469D01*
X928392Y33518D01*
X928240Y33563D01*
X928087Y33604D01*
X927933Y33641D01*
X927778Y33674D01*
X927623Y33704D01*
X927466Y33729D01*
X927310Y33751D01*
X927152Y33768D01*
X926995Y33782D01*
X926837Y33792D01*
X926678Y33798D01*
X926520Y33800D01*
X925250Y33800D02*
X934140Y33800D01*
X925250Y33800D02*
X922710Y33800D01*
X932870Y27450D02*
X932870Y3320D01*
X922710Y33800D02*
X922710Y41420D01*
X922710Y33800D02*
X737290Y33800D01*
X737290Y41420D02*
X922710Y41420D01*
X737290Y41420D02*
X737290Y33800D01*
X734750Y33800D01*
X725860Y33800D01*
X700460Y-1760D02*
X675060Y-1760D01*
X725860Y-1760D02*
X934140Y-1760D01*
X725860Y-1760D02*
X700460Y-1760D01*
X725860Y-1760D02*
X725860Y3320D01*
X727130Y3320D02*
X727130Y27450D01*
X727130Y3320D02*
X725860Y3320D01*
X727130Y27450D02*
X727132Y27608D01*
X727138Y27767D01*
X727148Y27925D01*
X727162Y28082D01*
X727179Y28240D01*
X727201Y28396D01*
X727226Y28553D01*
X727256Y28708D01*
X727289Y28863D01*
X727326Y29017D01*
X727367Y29170D01*
X727412Y29322D01*
X727461Y29472D01*
X727513Y29622D01*
X727569Y29770D01*
X727629Y29917D01*
X727692Y30062D01*
X727759Y30205D01*
X727829Y30347D01*
X727903Y30487D01*
X727981Y30625D01*
X728062Y30761D01*
X728146Y30895D01*
X728233Y31027D01*
X728324Y31157D01*
X728418Y31284D01*
X728515Y31409D01*
X728616Y31532D01*
X728719Y31652D01*
X728825Y31769D01*
X728934Y31884D01*
X729046Y31996D01*
X729161Y32105D01*
X729278Y32211D01*
X729398Y32314D01*
X729521Y32415D01*
X729646Y32512D01*
X729773Y32606D01*
X729903Y32697D01*
X730035Y32784D01*
X730169Y32868D01*
X730305Y32949D01*
X730443Y33027D01*
X730583Y33101D01*
X730725Y33171D01*
X730868Y33238D01*
X731013Y33301D01*
X731160Y33361D01*
X731308Y33417D01*
X731458Y33469D01*
X731608Y33518D01*
X731760Y33563D01*
X731913Y33604D01*
X732067Y33641D01*
X732222Y33674D01*
X732377Y33704D01*
X732534Y33729D01*
X732690Y33751D01*
X732848Y33768D01*
X733005Y33782D01*
X733163Y33792D01*
X733322Y33798D01*
X733480Y33800D01*
X978590Y141750D02*
X984940Y135400D01*
X984940Y35070D01*
X978590Y141750D02*
X930330Y141750D01*
X925250Y136670D01*
X925250Y33800D01*
X734750Y33800D02*
X734750Y136670D01*
X729670Y141750D01*
X680140Y141750D01*
X675060Y136670D01*
X675060Y35070D01*
X675060Y33800D02*
X725860Y33800D01*
X907470Y-6840D02*
X984940Y-6840D01*
X911280Y-13190D02*
X911280Y-63990D01*
X911280Y-13190D02*
X911282Y-13032D01*
X911288Y-12873D01*
X911298Y-12715D01*
X911312Y-12558D01*
X911329Y-12400D01*
X911351Y-12244D01*
X911376Y-12087D01*
X911406Y-11932D01*
X911439Y-11777D01*
X911476Y-11623D01*
X911517Y-11470D01*
X911562Y-11318D01*
X911611Y-11168D01*
X911663Y-11018D01*
X911719Y-10870D01*
X911779Y-10723D01*
X911842Y-10578D01*
X911909Y-10435D01*
X911979Y-10293D01*
X912053Y-10153D01*
X912131Y-10015D01*
X912212Y-9879D01*
X912296Y-9745D01*
X912383Y-9613D01*
X912474Y-9483D01*
X912568Y-9356D01*
X912665Y-9231D01*
X912766Y-9108D01*
X912869Y-8988D01*
X912975Y-8871D01*
X913084Y-8756D01*
X913196Y-8644D01*
X913311Y-8535D01*
X913428Y-8429D01*
X913548Y-8326D01*
X913671Y-8225D01*
X913796Y-8128D01*
X913923Y-8034D01*
X914053Y-7943D01*
X914185Y-7856D01*
X914319Y-7772D01*
X914455Y-7691D01*
X914593Y-7613D01*
X914733Y-7539D01*
X914875Y-7469D01*
X915018Y-7402D01*
X915163Y-7339D01*
X915310Y-7279D01*
X915458Y-7223D01*
X915608Y-7171D01*
X915758Y-7122D01*
X915910Y-7077D01*
X916063Y-7036D01*
X916217Y-6999D01*
X916372Y-6966D01*
X916527Y-6936D01*
X916684Y-6911D01*
X916840Y-6889D01*
X916998Y-6872D01*
X917155Y-6858D01*
X917313Y-6848D01*
X917472Y-6842D01*
X917630Y-6840D01*
X752530Y-6840D02*
X675060Y-6840D01*
X748720Y-13190D02*
X748720Y-63990D01*
X748720Y-13190D02*
X748718Y-13032D01*
X748712Y-12873D01*
X748702Y-12715D01*
X748688Y-12558D01*
X748671Y-12400D01*
X748649Y-12244D01*
X748624Y-12087D01*
X748594Y-11932D01*
X748561Y-11777D01*
X748524Y-11623D01*
X748483Y-11470D01*
X748438Y-11318D01*
X748389Y-11168D01*
X748337Y-11018D01*
X748281Y-10870D01*
X748221Y-10723D01*
X748158Y-10578D01*
X748091Y-10435D01*
X748021Y-10293D01*
X747947Y-10153D01*
X747869Y-10015D01*
X747788Y-9879D01*
X747704Y-9745D01*
X747617Y-9613D01*
X747526Y-9483D01*
X747432Y-9356D01*
X747335Y-9231D01*
X747234Y-9108D01*
X747131Y-8988D01*
X747025Y-8871D01*
X746916Y-8756D01*
X746804Y-8644D01*
X746689Y-8535D01*
X746572Y-8429D01*
X746452Y-8326D01*
X746329Y-8225D01*
X746204Y-8128D01*
X746077Y-8034D01*
X745947Y-7943D01*
X745815Y-7856D01*
X745681Y-7772D01*
X745545Y-7691D01*
X745407Y-7613D01*
X745267Y-7539D01*
X745125Y-7469D01*
X744982Y-7402D01*
X744837Y-7339D01*
X744690Y-7279D01*
X744542Y-7223D01*
X744392Y-7171D01*
X744242Y-7122D01*
X744090Y-7077D01*
X743937Y-7036D01*
X743783Y-6999D01*
X743628Y-6966D01*
X743473Y-6936D01*
X743316Y-6911D01*
X743160Y-6889D01*
X743002Y-6872D01*
X742845Y-6858D01*
X742687Y-6848D01*
X742528Y-6842D01*
X742370Y-6840D01*
X752530Y-6840D02*
X907470Y-6840D01*
X903660Y-69070D02*
X756340Y-69070D01*
X753800Y-69070D01*
X938712Y110000D02*
X938717Y110405D01*
X938732Y110810D01*
X938757Y111215D01*
X938792Y111618D01*
X938836Y112021D01*
X938891Y112423D01*
X938955Y112823D01*
X939029Y113221D01*
X939113Y113617D01*
X939207Y114012D01*
X939310Y114403D01*
X939423Y114793D01*
X939545Y115179D01*
X939677Y115562D01*
X939818Y115942D01*
X939969Y116318D01*
X940128Y116691D01*
X940297Y117059D01*
X940475Y117423D01*
X940661Y117783D01*
X940857Y118138D01*
X941061Y118488D01*
X941273Y118833D01*
X941494Y119172D01*
X941724Y119507D01*
X941961Y119835D01*
X942206Y120157D01*
X942460Y120474D01*
X942720Y120784D01*
X942989Y121087D01*
X943265Y121384D01*
X943548Y121674D01*
X943838Y121957D01*
X944135Y122233D01*
X944438Y122502D01*
X944748Y122762D01*
X945065Y123016D01*
X945387Y123261D01*
X945715Y123498D01*
X946050Y123728D01*
X946389Y123949D01*
X946734Y124161D01*
X947084Y124365D01*
X947439Y124561D01*
X947799Y124747D01*
X948163Y124925D01*
X948531Y125094D01*
X948904Y125253D01*
X949280Y125404D01*
X949660Y125545D01*
X950043Y125677D01*
X950429Y125799D01*
X950819Y125912D01*
X951210Y126015D01*
X951605Y126109D01*
X952001Y126193D01*
X952399Y126267D01*
X952799Y126331D01*
X953201Y126386D01*
X953604Y126430D01*
X954007Y126465D01*
X954412Y126490D01*
X954817Y126505D01*
X955222Y126510D01*
X955627Y126505D01*
X956032Y126490D01*
X956437Y126465D01*
X956840Y126430D01*
X957243Y126386D01*
X957645Y126331D01*
X958045Y126267D01*
X958443Y126193D01*
X958839Y126109D01*
X959234Y126015D01*
X959625Y125912D01*
X960015Y125799D01*
X960401Y125677D01*
X960784Y125545D01*
X961164Y125404D01*
X961540Y125253D01*
X961913Y125094D01*
X962281Y124925D01*
X962645Y124747D01*
X963005Y124561D01*
X963360Y124365D01*
X963710Y124161D01*
X964055Y123949D01*
X964394Y123728D01*
X964729Y123498D01*
X965057Y123261D01*
X965379Y123016D01*
X965696Y122762D01*
X966006Y122502D01*
X966309Y122233D01*
X966606Y121957D01*
X966896Y121674D01*
X967179Y121384D01*
X967455Y121087D01*
X967724Y120784D01*
X967984Y120474D01*
X968238Y120157D01*
X968483Y119835D01*
X968720Y119507D01*
X968950Y119172D01*
X969171Y118833D01*
X969383Y118488D01*
X969587Y118138D01*
X969783Y117783D01*
X969969Y117423D01*
X970147Y117059D01*
X970316Y116691D01*
X970475Y116318D01*
X970626Y115942D01*
X970767Y115562D01*
X970899Y115179D01*
X971021Y114793D01*
X971134Y114403D01*
X971237Y114012D01*
X971331Y113617D01*
X971415Y113221D01*
X971489Y112823D01*
X971553Y112423D01*
X971608Y112021D01*
X971652Y111618D01*
X971687Y111215D01*
X971712Y110810D01*
X971727Y110405D01*
X971732Y110000D01*
X971727Y109595D01*
X971712Y109190D01*
X971687Y108785D01*
X971652Y108382D01*
X971608Y107979D01*
X971553Y107577D01*
X971489Y107177D01*
X971415Y106779D01*
X971331Y106383D01*
X971237Y105988D01*
X971134Y105597D01*
X971021Y105207D01*
X970899Y104821D01*
X970767Y104438D01*
X970626Y104058D01*
X970475Y103682D01*
X970316Y103309D01*
X970147Y102941D01*
X969969Y102577D01*
X969783Y102217D01*
X969587Y101862D01*
X969383Y101512D01*
X969171Y101167D01*
X968950Y100828D01*
X968720Y100493D01*
X968483Y100165D01*
X968238Y99843D01*
X967984Y99526D01*
X967724Y99216D01*
X967455Y98913D01*
X967179Y98616D01*
X966896Y98326D01*
X966606Y98043D01*
X966309Y97767D01*
X966006Y97498D01*
X965696Y97238D01*
X965379Y96984D01*
X965057Y96739D01*
X964729Y96502D01*
X964394Y96272D01*
X964055Y96051D01*
X963710Y95839D01*
X963360Y95635D01*
X963005Y95439D01*
X962645Y95253D01*
X962281Y95075D01*
X961913Y94906D01*
X961540Y94747D01*
X961164Y94596D01*
X960784Y94455D01*
X960401Y94323D01*
X960015Y94201D01*
X959625Y94088D01*
X959234Y93985D01*
X958839Y93891D01*
X958443Y93807D01*
X958045Y93733D01*
X957645Y93669D01*
X957243Y93614D01*
X956840Y93570D01*
X956437Y93535D01*
X956032Y93510D01*
X955627Y93495D01*
X955222Y93490D01*
X954817Y93495D01*
X954412Y93510D01*
X954007Y93535D01*
X953604Y93570D01*
X953201Y93614D01*
X952799Y93669D01*
X952399Y93733D01*
X952001Y93807D01*
X951605Y93891D01*
X951210Y93985D01*
X950819Y94088D01*
X950429Y94201D01*
X950043Y94323D01*
X949660Y94455D01*
X949280Y94596D01*
X948904Y94747D01*
X948531Y94906D01*
X948163Y95075D01*
X947799Y95253D01*
X947439Y95439D01*
X947084Y95635D01*
X946734Y95839D01*
X946389Y96051D01*
X946050Y96272D01*
X945715Y96502D01*
X945387Y96739D01*
X945065Y96984D01*
X944748Y97238D01*
X944438Y97498D01*
X944135Y97767D01*
X943838Y98043D01*
X943548Y98326D01*
X943265Y98616D01*
X942989Y98913D01*
X942720Y99216D01*
X942460Y99526D01*
X942206Y99843D01*
X941961Y100165D01*
X941724Y100493D01*
X941494Y100828D01*
X941273Y101167D01*
X941061Y101512D01*
X940857Y101862D01*
X940661Y102217D01*
X940475Y102577D01*
X940297Y102941D01*
X940128Y103309D01*
X939969Y103682D01*
X939818Y104058D01*
X939677Y104438D01*
X939545Y104821D01*
X939423Y105207D01*
X939310Y105597D01*
X939207Y105988D01*
X939113Y106383D01*
X939029Y106779D01*
X938955Y107177D01*
X938891Y107577D01*
X938836Y107979D01*
X938792Y108382D01*
X938757Y108785D01*
X938732Y109190D01*
X938717Y109595D01*
X938712Y110000D01*
X688268Y110000D02*
X688273Y110405D01*
X688288Y110810D01*
X688313Y111215D01*
X688348Y111618D01*
X688392Y112021D01*
X688447Y112423D01*
X688511Y112823D01*
X688585Y113221D01*
X688669Y113617D01*
X688763Y114012D01*
X688866Y114403D01*
X688979Y114793D01*
X689101Y115179D01*
X689233Y115562D01*
X689374Y115942D01*
X689525Y116318D01*
X689684Y116691D01*
X689853Y117059D01*
X690031Y117423D01*
X690217Y117783D01*
X690413Y118138D01*
X690617Y118488D01*
X690829Y118833D01*
X691050Y119172D01*
X691280Y119507D01*
X691517Y119835D01*
X691762Y120157D01*
X692016Y120474D01*
X692276Y120784D01*
X692545Y121087D01*
X692821Y121384D01*
X693104Y121674D01*
X693394Y121957D01*
X693691Y122233D01*
X693994Y122502D01*
X694304Y122762D01*
X694621Y123016D01*
X694943Y123261D01*
X695271Y123498D01*
X695606Y123728D01*
X695945Y123949D01*
X696290Y124161D01*
X696640Y124365D01*
X696995Y124561D01*
X697355Y124747D01*
X697719Y124925D01*
X698087Y125094D01*
X698460Y125253D01*
X698836Y125404D01*
X699216Y125545D01*
X699599Y125677D01*
X699985Y125799D01*
X700375Y125912D01*
X700766Y126015D01*
X701161Y126109D01*
X701557Y126193D01*
X701955Y126267D01*
X702355Y126331D01*
X702757Y126386D01*
X703160Y126430D01*
X703563Y126465D01*
X703968Y126490D01*
X704373Y126505D01*
X704778Y126510D01*
X705183Y126505D01*
X705588Y126490D01*
X705993Y126465D01*
X706396Y126430D01*
X706799Y126386D01*
X707201Y126331D01*
X707601Y126267D01*
X707999Y126193D01*
X708395Y126109D01*
X708790Y126015D01*
X709181Y125912D01*
X709571Y125799D01*
X709957Y125677D01*
X710340Y125545D01*
X710720Y125404D01*
X711096Y125253D01*
X711469Y125094D01*
X711837Y124925D01*
X712201Y124747D01*
X712561Y124561D01*
X712916Y124365D01*
X713266Y124161D01*
X713611Y123949D01*
X713950Y123728D01*
X714285Y123498D01*
X714613Y123261D01*
X714935Y123016D01*
X715252Y122762D01*
X715562Y122502D01*
X715865Y122233D01*
X716162Y121957D01*
X716452Y121674D01*
X716735Y121384D01*
X717011Y121087D01*
X717280Y120784D01*
X717540Y120474D01*
X717794Y120157D01*
X718039Y119835D01*
X718276Y119507D01*
X718506Y119172D01*
X718727Y118833D01*
X718939Y118488D01*
X719143Y118138D01*
X719339Y117783D01*
X719525Y117423D01*
X719703Y117059D01*
X719872Y116691D01*
X720031Y116318D01*
X720182Y115942D01*
X720323Y115562D01*
X720455Y115179D01*
X720577Y114793D01*
X720690Y114403D01*
X720793Y114012D01*
X720887Y113617D01*
X720971Y113221D01*
X721045Y112823D01*
X721109Y112423D01*
X721164Y112021D01*
X721208Y111618D01*
X721243Y111215D01*
X721268Y110810D01*
X721283Y110405D01*
X721288Y110000D01*
X721283Y109595D01*
X721268Y109190D01*
X721243Y108785D01*
X721208Y108382D01*
X721164Y107979D01*
X721109Y107577D01*
X721045Y107177D01*
X720971Y106779D01*
X720887Y106383D01*
X720793Y105988D01*
X720690Y105597D01*
X720577Y105207D01*
X720455Y104821D01*
X720323Y104438D01*
X720182Y104058D01*
X720031Y103682D01*
X719872Y103309D01*
X719703Y102941D01*
X719525Y102577D01*
X719339Y102217D01*
X719143Y101862D01*
X718939Y101512D01*
X718727Y101167D01*
X718506Y100828D01*
X718276Y100493D01*
X718039Y100165D01*
X717794Y99843D01*
X717540Y99526D01*
X717280Y99216D01*
X717011Y98913D01*
X716735Y98616D01*
X716452Y98326D01*
X716162Y98043D01*
X715865Y97767D01*
X715562Y97498D01*
X715252Y97238D01*
X714935Y96984D01*
X714613Y96739D01*
X714285Y96502D01*
X713950Y96272D01*
X713611Y96051D01*
X713266Y95839D01*
X712916Y95635D01*
X712561Y95439D01*
X712201Y95253D01*
X711837Y95075D01*
X711469Y94906D01*
X711096Y94747D01*
X710720Y94596D01*
X710340Y94455D01*
X709957Y94323D01*
X709571Y94201D01*
X709181Y94088D01*
X708790Y93985D01*
X708395Y93891D01*
X707999Y93807D01*
X707601Y93733D01*
X707201Y93669D01*
X706799Y93614D01*
X706396Y93570D01*
X705993Y93535D01*
X705588Y93510D01*
X705183Y93495D01*
X704778Y93490D01*
X704373Y93495D01*
X703968Y93510D01*
X703563Y93535D01*
X703160Y93570D01*
X702757Y93614D01*
X702355Y93669D01*
X701955Y93733D01*
X701557Y93807D01*
X701161Y93891D01*
X700766Y93985D01*
X700375Y94088D01*
X699985Y94201D01*
X699599Y94323D01*
X699216Y94455D01*
X698836Y94596D01*
X698460Y94747D01*
X698087Y94906D01*
X697719Y95075D01*
X697355Y95253D01*
X696995Y95439D01*
X696640Y95635D01*
X696290Y95839D01*
X695945Y96051D01*
X695606Y96272D01*
X695271Y96502D01*
X694943Y96739D01*
X694621Y96984D01*
X694304Y97238D01*
X693994Y97498D01*
X693691Y97767D01*
X693394Y98043D01*
X693104Y98326D01*
X692821Y98616D01*
X692545Y98913D01*
X692276Y99216D01*
X692016Y99526D01*
X691762Y99843D01*
X691517Y100165D01*
X691280Y100493D01*
X691050Y100828D01*
X690829Y101167D01*
X690617Y101512D01*
X690413Y101862D01*
X690217Y102217D01*
X690031Y102577D01*
X689853Y102941D01*
X689684Y103309D01*
X689525Y103682D01*
X689374Y104058D01*
X689233Y104438D01*
X689101Y104821D01*
X688979Y105207D01*
X688866Y105597D01*
X688763Y105988D01*
X688669Y106383D01*
X688585Y106779D01*
X688511Y107177D01*
X688447Y107577D01*
X688392Y107979D01*
X688348Y108382D01*
X688313Y108785D01*
X688288Y109190D01*
X688273Y109595D01*
X688268Y110000D01*
D72*
X895141Y124612D02*
X898954Y128425D01*
X898954Y116985D01*
X895141Y116985D02*
X902768Y116985D01*
X756718Y128425D02*
X749091Y128425D01*
X749091Y122705D01*
X752904Y124612D01*
X754811Y124612D01*
X756718Y122705D01*
X756718Y118892D01*
X754811Y116985D01*
X750998Y116985D01*
X749091Y118892D01*
X749091Y93492D02*
X750998Y91585D01*
X754811Y91585D01*
X756718Y93492D01*
X756718Y101118D01*
X754811Y103025D01*
X750998Y103025D01*
X749091Y101118D01*
X749091Y99212D01*
X750998Y97305D01*
X756718Y97305D01*
X898954Y101118D02*
X902768Y103025D01*
X898954Y101118D02*
X895141Y97305D01*
X895141Y93492D01*
X897048Y91585D01*
X900861Y91585D01*
X902768Y93492D01*
X902768Y95398D01*
X900861Y97305D01*
X895141Y97305D01*
X692205Y49984D02*
X692205Y42357D01*
X684579Y49984D01*
X682672Y49984D01*
X680765Y48077D01*
X680765Y44264D01*
X682672Y42357D01*
X696018Y54051D02*
X692205Y57864D01*
X690298Y57864D01*
X690298Y55958D01*
X692205Y55958D01*
X692205Y57864D01*
X680765Y61847D02*
X680765Y69473D01*
X680765Y61847D02*
X686485Y61847D01*
X684579Y65660D01*
X684579Y67567D01*
X686485Y69473D01*
X690298Y69473D01*
X692205Y67567D01*
X692205Y63754D01*
X690298Y61847D01*
X692205Y79261D02*
X680765Y79261D01*
X686485Y73541D01*
X686485Y81167D01*
X871753Y24285D02*
X871753Y12845D01*
X871753Y24285D02*
X879380Y24285D01*
X875566Y18565D02*
X871753Y18565D01*
X883447Y14752D02*
X883447Y22378D01*
X885354Y24285D01*
X889167Y24285D01*
X891074Y22378D01*
X891074Y14752D01*
X889167Y12845D01*
X885354Y12845D01*
X883447Y14752D01*
X891074Y22378D01*
X895141Y14752D02*
X897048Y12845D01*
X900861Y12845D01*
X902767Y14752D01*
X902767Y22378D01*
X900861Y24285D01*
X897048Y24285D01*
X895141Y22378D01*
X895141Y20472D01*
X897048Y18565D01*
X902767Y18565D01*
D73*
X830000Y37610D03*
D74*
X830000Y-4300D03*
D75*
X884864Y77615D03*
D76*
X871148Y64915D03*
D75*
X857432Y77615D03*
D76*
X843716Y64915D03*
D75*
X830000Y77615D03*
D76*
X816284Y64915D03*
D75*
X802568Y77615D03*
D76*
X788852Y64915D03*
D75*
X775136Y77615D03*
D77*
X638872Y93552D02*
X638872Y32452D01*
X620622Y10452D02*
X500622Y10452D01*
X482372Y31452D02*
X482372Y93552D01*
D72*
X495622Y109552D02*
X512322Y109552D01*
D77*
X495622Y109552D02*
X479822Y109552D01*
X479822Y93552D01*
X482372Y93552D01*
D72*
X495622Y109552D02*
X512372Y109552D01*
D77*
X495622Y109552D02*
X625622Y109552D01*
X641422Y109552D01*
X641422Y93552D01*
X638872Y93552D01*
X495622Y91452D02*
X495622Y109552D01*
X495622Y91452D02*
X625622Y91452D01*
X625622Y109552D01*
X500622Y10452D02*
X482372Y31452D01*
X620622Y10452D02*
X638872Y32452D01*
X566622Y32452D02*
X554622Y32452D01*
X566622Y32452D02*
X566622Y26452D01*
X566622Y16452D01*
X554622Y16452D01*
X554622Y26452D01*
X554622Y32452D01*
X554622Y26452D02*
X566622Y26452D01*
X433250Y32220D02*
X433250Y93320D01*
X415000Y10220D02*
X325000Y10220D01*
X306750Y31220D02*
X306750Y93320D01*
D72*
X320000Y109320D02*
X321700Y109320D01*
D77*
X320000Y109320D02*
X304250Y109320D01*
X304250Y93320D01*
X306750Y93320D01*
D72*
X320000Y109320D02*
X321750Y109320D01*
D77*
X320000Y109320D02*
X420000Y109320D01*
X435750Y109320D01*
X435750Y93320D01*
X433250Y93320D01*
X320000Y91220D02*
X320000Y109320D01*
X320000Y91220D02*
X420000Y91220D01*
X420000Y109320D01*
X325000Y10220D02*
X306750Y31220D01*
X415000Y10220D02*
X433250Y32220D01*
X376000Y32220D02*
X364000Y32220D01*
X376000Y32220D02*
X376000Y26220D01*
X376000Y16220D01*
X364000Y16220D01*
X364000Y26220D01*
X364000Y32220D01*
X364000Y26220D02*
X376000Y26220D01*
D72*
X507000Y295000D02*
X525000Y295000D01*
X507000Y295000D02*
X507000Y331000D01*
X525000Y331000D01*
X525000Y295000D01*
D71*
X522477Y281581D02*
X518664Y281581D01*
X518664Y284123D01*
X520570Y282852D02*
X520570Y281581D01*
X522477Y285323D02*
X518664Y285323D01*
X518664Y287229D01*
X519299Y287865D01*
X519935Y287865D01*
X520570Y287229D01*
X521206Y287865D01*
X521841Y287865D01*
X522477Y287229D01*
X522477Y285323D01*
X520570Y285323D02*
X520570Y287229D01*
X519935Y289065D02*
X518664Y290336D01*
X522477Y290336D01*
X522477Y289065D02*
X522477Y291607D01*
D78*
X115000Y587500D02*
X83000Y587500D01*
X83000Y636500D01*
X115000Y636500D01*
X115000Y587500D01*
X118500Y585950D02*
X134000Y585950D01*
D72*
X188000Y555000D02*
X188000Y515000D01*
X258000Y515000D02*
X258000Y555000D01*
X233000Y574000D02*
X232997Y573756D01*
X232988Y573513D01*
X232973Y573270D01*
X232953Y573027D01*
X232926Y572785D01*
X232893Y572544D01*
X232855Y572304D01*
X232811Y572064D01*
X232761Y571826D01*
X232705Y571589D01*
X232643Y571353D01*
X232576Y571119D01*
X232503Y570887D01*
X232424Y570656D01*
X232340Y570428D01*
X232250Y570201D01*
X232155Y569977D01*
X232054Y569755D01*
X231948Y569536D01*
X231837Y569320D01*
X231720Y569106D01*
X231599Y568895D01*
X231472Y568687D01*
X231340Y568482D01*
X231203Y568281D01*
X231061Y568083D01*
X230915Y567888D01*
X230764Y567697D01*
X230608Y567510D01*
X230448Y567327D01*
X230283Y567147D01*
X230114Y566972D01*
X229941Y566801D01*
X229763Y566634D01*
X229582Y566472D01*
X229397Y566314D01*
X229208Y566160D01*
X229015Y566011D01*
X228819Y565867D01*
X228619Y565728D01*
X228416Y565593D01*
X228209Y565464D01*
X228000Y565340D01*
X227788Y565221D01*
X227572Y565107D01*
X227355Y564998D01*
X227134Y564895D01*
X226911Y564797D01*
X226686Y564704D01*
X226458Y564617D01*
X226229Y564536D01*
X225997Y564460D01*
X225764Y564390D01*
X225529Y564325D01*
X225293Y564266D01*
X225055Y564213D01*
X224816Y564166D01*
X224576Y564125D01*
X224335Y564090D01*
X224094Y564060D01*
X223851Y564036D01*
X223608Y564019D01*
X223365Y564007D01*
X223122Y564001D01*
X222878Y564001D01*
X222635Y564007D01*
X222392Y564019D01*
X222149Y564036D01*
X221906Y564060D01*
X221665Y564090D01*
X221424Y564125D01*
X221184Y564166D01*
X220945Y564213D01*
X220707Y564266D01*
X220471Y564325D01*
X220236Y564390D01*
X220003Y564460D01*
X219771Y564536D01*
X219542Y564617D01*
X219314Y564704D01*
X219089Y564797D01*
X218866Y564895D01*
X218645Y564998D01*
X218428Y565107D01*
X218212Y565221D01*
X218000Y565340D01*
X217791Y565464D01*
X217584Y565593D01*
X217381Y565728D01*
X217181Y565867D01*
X216985Y566011D01*
X216792Y566160D01*
X216603Y566314D01*
X216418Y566472D01*
X216237Y566634D01*
X216059Y566801D01*
X215886Y566972D01*
X215717Y567147D01*
X215552Y567327D01*
X215392Y567510D01*
X215236Y567697D01*
X215085Y567888D01*
X214939Y568083D01*
X214797Y568281D01*
X214660Y568482D01*
X214528Y568687D01*
X214401Y568895D01*
X214280Y569106D01*
X214163Y569320D01*
X214052Y569536D01*
X213946Y569755D01*
X213845Y569977D01*
X213750Y570201D01*
X213660Y570428D01*
X213576Y570656D01*
X213497Y570887D01*
X213424Y571119D01*
X213357Y571353D01*
X213295Y571589D01*
X213239Y571826D01*
X213189Y572064D01*
X213145Y572304D01*
X213107Y572544D01*
X213074Y572785D01*
X213047Y573027D01*
X213027Y573270D01*
X213012Y573513D01*
X213003Y573756D01*
X213000Y574000D01*
X213000Y496000D02*
X213003Y496244D01*
X213012Y496487D01*
X213027Y496730D01*
X213047Y496973D01*
X213074Y497215D01*
X213107Y497456D01*
X213145Y497696D01*
X213189Y497936D01*
X213239Y498174D01*
X213295Y498411D01*
X213357Y498647D01*
X213424Y498881D01*
X213497Y499113D01*
X213576Y499344D01*
X213660Y499572D01*
X213750Y499799D01*
X213845Y500023D01*
X213946Y500245D01*
X214052Y500464D01*
X214163Y500680D01*
X214280Y500894D01*
X214401Y501105D01*
X214528Y501313D01*
X214660Y501518D01*
X214797Y501719D01*
X214939Y501917D01*
X215085Y502112D01*
X215236Y502303D01*
X215392Y502490D01*
X215552Y502673D01*
X215717Y502853D01*
X215886Y503028D01*
X216059Y503199D01*
X216237Y503366D01*
X216418Y503528D01*
X216603Y503686D01*
X216792Y503840D01*
X216985Y503989D01*
X217181Y504133D01*
X217381Y504272D01*
X217584Y504407D01*
X217791Y504536D01*
X218000Y504660D01*
X218212Y504779D01*
X218428Y504893D01*
X218645Y505002D01*
X218866Y505105D01*
X219089Y505203D01*
X219314Y505296D01*
X219542Y505383D01*
X219771Y505464D01*
X220003Y505540D01*
X220236Y505610D01*
X220471Y505675D01*
X220707Y505734D01*
X220945Y505787D01*
X221184Y505834D01*
X221424Y505875D01*
X221665Y505910D01*
X221906Y505940D01*
X222149Y505964D01*
X222392Y505981D01*
X222635Y505993D01*
X222878Y505999D01*
X223122Y505999D01*
X223365Y505993D01*
X223608Y505981D01*
X223851Y505964D01*
X224094Y505940D01*
X224335Y505910D01*
X224576Y505875D01*
X224816Y505834D01*
X225055Y505787D01*
X225293Y505734D01*
X225529Y505675D01*
X225764Y505610D01*
X225997Y505540D01*
X226229Y505464D01*
X226458Y505383D01*
X226686Y505296D01*
X226911Y505203D01*
X227134Y505105D01*
X227355Y505002D01*
X227572Y504893D01*
X227788Y504779D01*
X228000Y504660D01*
X228209Y504536D01*
X228416Y504407D01*
X228619Y504272D01*
X228819Y504133D01*
X229015Y503989D01*
X229208Y503840D01*
X229397Y503686D01*
X229582Y503528D01*
X229763Y503366D01*
X229941Y503199D01*
X230114Y503028D01*
X230283Y502853D01*
X230448Y502673D01*
X230608Y502490D01*
X230764Y502303D01*
X230915Y502112D01*
X231061Y501917D01*
X231203Y501719D01*
X231340Y501518D01*
X231472Y501313D01*
X231599Y501105D01*
X231720Y500894D01*
X231837Y500680D01*
X231948Y500464D01*
X232054Y500245D01*
X232155Y500023D01*
X232250Y499799D01*
X232340Y499572D01*
X232424Y499344D01*
X232503Y499113D01*
X232576Y498881D01*
X232643Y498647D01*
X232705Y498411D01*
X232761Y498174D01*
X232811Y497936D01*
X232855Y497696D01*
X232893Y497456D01*
X232926Y497215D01*
X232953Y496973D01*
X232973Y496730D01*
X232988Y496487D01*
X232997Y496244D01*
X233000Y496000D01*
X188000Y555000D02*
X188080Y555539D01*
X188173Y556076D01*
X188280Y556610D01*
X188400Y557142D01*
X188533Y557671D01*
X188678Y558196D01*
X188837Y558717D01*
X189008Y559234D01*
X189192Y559747D01*
X189388Y560256D01*
X189597Y560759D01*
X189818Y561257D01*
X190051Y561750D01*
X190297Y562236D01*
X190554Y562717D01*
X190823Y563191D01*
X191103Y563658D01*
X191395Y564118D01*
X191698Y564571D01*
X192012Y565017D01*
X192337Y565454D01*
X192672Y565884D01*
X193018Y566305D01*
X193374Y566717D01*
X193741Y567121D01*
X194117Y567515D01*
X194502Y567900D01*
X194897Y568276D01*
X195301Y568642D01*
X195714Y568997D01*
X196135Y569343D01*
X196565Y569678D01*
X197003Y570002D01*
X197449Y570316D01*
X197902Y570618D01*
X198363Y570910D01*
X198830Y571189D01*
X199304Y571458D01*
X199785Y571714D01*
X200272Y571959D01*
X200765Y572192D01*
X201263Y572413D01*
X201767Y572621D01*
X202275Y572817D01*
X202788Y573000D01*
X203306Y573171D01*
X203828Y573329D01*
X204353Y573474D01*
X204882Y573606D01*
X205413Y573725D01*
X205948Y573831D01*
X206485Y573924D01*
X207024Y574004D01*
X207565Y574070D01*
X208107Y574123D01*
X208651Y574163D01*
X209195Y574189D01*
X209740Y574202D01*
X210285Y574202D01*
X210829Y574189D01*
X211374Y574162D01*
X211917Y574121D01*
X212459Y574067D01*
X213000Y574001D01*
X233000Y574001D02*
X233541Y574067D01*
X234083Y574121D01*
X234626Y574162D01*
X235171Y574189D01*
X235715Y574202D01*
X236260Y574202D01*
X236805Y574189D01*
X237349Y574163D01*
X237893Y574123D01*
X238435Y574070D01*
X238976Y574004D01*
X239515Y573924D01*
X240052Y573831D01*
X240587Y573725D01*
X241118Y573606D01*
X241647Y573474D01*
X242172Y573329D01*
X242694Y573171D01*
X243212Y573000D01*
X243725Y572817D01*
X244233Y572621D01*
X244737Y572413D01*
X245235Y572192D01*
X245728Y571959D01*
X246215Y571714D01*
X246696Y571458D01*
X247170Y571189D01*
X247637Y570910D01*
X248098Y570618D01*
X248551Y570316D01*
X248997Y570002D01*
X249435Y569678D01*
X249865Y569343D01*
X250286Y568997D01*
X250699Y568642D01*
X251103Y568276D01*
X251498Y567900D01*
X251883Y567515D01*
X252259Y567121D01*
X252626Y566717D01*
X252982Y566305D01*
X253328Y565884D01*
X253663Y565454D01*
X253988Y565017D01*
X254302Y564571D01*
X254605Y564118D01*
X254897Y563658D01*
X255177Y563191D01*
X255446Y562717D01*
X255703Y562236D01*
X255949Y561750D01*
X256182Y561257D01*
X256403Y560759D01*
X256612Y560256D01*
X256808Y559747D01*
X256992Y559234D01*
X257163Y558717D01*
X257322Y558196D01*
X257467Y557671D01*
X257600Y557142D01*
X257720Y556610D01*
X257827Y556076D01*
X257920Y555539D01*
X258000Y555000D01*
X213000Y496000D02*
X212460Y495933D01*
X211917Y495880D01*
X211374Y495839D01*
X210830Y495812D01*
X210285Y495799D01*
X209740Y495799D01*
X209195Y495812D01*
X208651Y495838D01*
X208107Y495878D01*
X207565Y495931D01*
X207024Y495998D01*
X206485Y496077D01*
X205948Y496170D01*
X205414Y496276D01*
X204882Y496395D01*
X204353Y496527D01*
X203828Y496673D01*
X203307Y496830D01*
X202789Y497001D01*
X202276Y497184D01*
X201767Y497380D01*
X201264Y497589D01*
X200766Y497809D01*
X200273Y498042D01*
X199786Y498287D01*
X199305Y498543D01*
X198831Y498812D01*
X198363Y499092D01*
X197903Y499383D01*
X197450Y499685D01*
X197004Y499999D01*
X196566Y500323D01*
X196136Y500658D01*
X195715Y501004D01*
X195302Y501359D01*
X194898Y501725D01*
X194503Y502101D01*
X194118Y502486D01*
X193742Y502880D01*
X193376Y503284D01*
X193019Y503696D01*
X192674Y504117D01*
X192338Y504547D01*
X192013Y504984D01*
X191699Y505429D01*
X191396Y505882D01*
X191104Y506343D01*
X190824Y506810D01*
X190555Y507284D01*
X190298Y507764D01*
X190053Y508251D01*
X189819Y508743D01*
X189598Y509241D01*
X189389Y509745D01*
X189193Y510253D01*
X189009Y510766D01*
X188838Y511283D01*
X188679Y511805D01*
X188534Y512330D01*
X188401Y512858D01*
X188281Y513390D01*
X188175Y513924D01*
X188081Y514461D01*
X188001Y515000D01*
X233000Y495999D02*
X233541Y495933D01*
X234083Y495879D01*
X234626Y495838D01*
X235171Y495811D01*
X235715Y495798D01*
X236260Y495798D01*
X236805Y495811D01*
X237349Y495837D01*
X237893Y495877D01*
X238435Y495930D01*
X238976Y495996D01*
X239515Y496076D01*
X240052Y496169D01*
X240587Y496275D01*
X241118Y496394D01*
X241647Y496526D01*
X242172Y496671D01*
X242694Y496829D01*
X243212Y497000D01*
X243725Y497183D01*
X244233Y497379D01*
X244737Y497587D01*
X245235Y497808D01*
X245728Y498041D01*
X246215Y498286D01*
X246696Y498542D01*
X247170Y498811D01*
X247637Y499090D01*
X248098Y499382D01*
X248551Y499684D01*
X248997Y499998D01*
X249435Y500322D01*
X249865Y500657D01*
X250286Y501003D01*
X250699Y501358D01*
X251103Y501724D01*
X251498Y502100D01*
X251883Y502485D01*
X252259Y502879D01*
X252626Y503283D01*
X252982Y503695D01*
X253328Y504116D01*
X253663Y504546D01*
X253988Y504983D01*
X254302Y505429D01*
X254605Y505882D01*
X254897Y506342D01*
X255177Y506809D01*
X255446Y507283D01*
X255703Y507764D01*
X255949Y508250D01*
X256182Y508743D01*
X256403Y509241D01*
X256612Y509744D01*
X256808Y510253D01*
X256992Y510766D01*
X257163Y511283D01*
X257322Y511804D01*
X257467Y512329D01*
X257600Y512858D01*
X257720Y513390D01*
X257827Y513924D01*
X257920Y514461D01*
X258000Y515000D01*
D78*
X251000Y612400D02*
X251000Y646500D01*
X269000Y646500D02*
X269000Y619500D01*
D72*
X217000Y619000D02*
X217000Y589000D01*
X217000Y619000D02*
X187000Y619000D01*
X187000Y589000D01*
X217000Y589000D01*
X283490Y585110D02*
X283490Y602890D01*
X316510Y602890D01*
X316510Y585110D01*
X283490Y585110D01*
D78*
X113000Y397500D02*
X81000Y397500D01*
X81000Y446500D01*
X113000Y446500D01*
X113000Y397500D01*
X116500Y395950D02*
X132000Y395950D01*
D72*
X168000Y341000D02*
X168000Y301000D01*
X238000Y301000D02*
X238000Y341000D01*
X213000Y360000D02*
X212997Y359756D01*
X212988Y359513D01*
X212973Y359270D01*
X212953Y359027D01*
X212926Y358785D01*
X212893Y358544D01*
X212855Y358304D01*
X212811Y358064D01*
X212761Y357826D01*
X212705Y357589D01*
X212643Y357353D01*
X212576Y357119D01*
X212503Y356887D01*
X212424Y356656D01*
X212340Y356428D01*
X212250Y356201D01*
X212155Y355977D01*
X212054Y355755D01*
X211948Y355536D01*
X211837Y355320D01*
X211720Y355106D01*
X211599Y354895D01*
X211472Y354687D01*
X211340Y354482D01*
X211203Y354281D01*
X211061Y354083D01*
X210915Y353888D01*
X210764Y353697D01*
X210608Y353510D01*
X210448Y353327D01*
X210283Y353147D01*
X210114Y352972D01*
X209941Y352801D01*
X209763Y352634D01*
X209582Y352472D01*
X209397Y352314D01*
X209208Y352160D01*
X209015Y352011D01*
X208819Y351867D01*
X208619Y351728D01*
X208416Y351593D01*
X208209Y351464D01*
X208000Y351340D01*
X207788Y351221D01*
X207572Y351107D01*
X207355Y350998D01*
X207134Y350895D01*
X206911Y350797D01*
X206686Y350704D01*
X206458Y350617D01*
X206229Y350536D01*
X205997Y350460D01*
X205764Y350390D01*
X205529Y350325D01*
X205293Y350266D01*
X205055Y350213D01*
X204816Y350166D01*
X204576Y350125D01*
X204335Y350090D01*
X204094Y350060D01*
X203851Y350036D01*
X203608Y350019D01*
X203365Y350007D01*
X203122Y350001D01*
X202878Y350001D01*
X202635Y350007D01*
X202392Y350019D01*
X202149Y350036D01*
X201906Y350060D01*
X201665Y350090D01*
X201424Y350125D01*
X201184Y350166D01*
X200945Y350213D01*
X200707Y350266D01*
X200471Y350325D01*
X200236Y350390D01*
X200003Y350460D01*
X199771Y350536D01*
X199542Y350617D01*
X199314Y350704D01*
X199089Y350797D01*
X198866Y350895D01*
X198645Y350998D01*
X198428Y351107D01*
X198212Y351221D01*
X198000Y351340D01*
X197791Y351464D01*
X197584Y351593D01*
X197381Y351728D01*
X197181Y351867D01*
X196985Y352011D01*
X196792Y352160D01*
X196603Y352314D01*
X196418Y352472D01*
X196237Y352634D01*
X196059Y352801D01*
X195886Y352972D01*
X195717Y353147D01*
X195552Y353327D01*
X195392Y353510D01*
X195236Y353697D01*
X195085Y353888D01*
X194939Y354083D01*
X194797Y354281D01*
X194660Y354482D01*
X194528Y354687D01*
X194401Y354895D01*
X194280Y355106D01*
X194163Y355320D01*
X194052Y355536D01*
X193946Y355755D01*
X193845Y355977D01*
X193750Y356201D01*
X193660Y356428D01*
X193576Y356656D01*
X193497Y356887D01*
X193424Y357119D01*
X193357Y357353D01*
X193295Y357589D01*
X193239Y357826D01*
X193189Y358064D01*
X193145Y358304D01*
X193107Y358544D01*
X193074Y358785D01*
X193047Y359027D01*
X193027Y359270D01*
X193012Y359513D01*
X193003Y359756D01*
X193000Y360000D01*
X193000Y282000D02*
X193003Y282244D01*
X193012Y282487D01*
X193027Y282730D01*
X193047Y282973D01*
X193074Y283215D01*
X193107Y283456D01*
X193145Y283696D01*
X193189Y283936D01*
X193239Y284174D01*
X193295Y284411D01*
X193357Y284647D01*
X193424Y284881D01*
X193497Y285113D01*
X193576Y285344D01*
X193660Y285572D01*
X193750Y285799D01*
X193845Y286023D01*
X193946Y286245D01*
X194052Y286464D01*
X194163Y286680D01*
X194280Y286894D01*
X194401Y287105D01*
X194528Y287313D01*
X194660Y287518D01*
X194797Y287719D01*
X194939Y287917D01*
X195085Y288112D01*
X195236Y288303D01*
X195392Y288490D01*
X195552Y288673D01*
X195717Y288853D01*
X195886Y289028D01*
X196059Y289199D01*
X196237Y289366D01*
X196418Y289528D01*
X196603Y289686D01*
X196792Y289840D01*
X196985Y289989D01*
X197181Y290133D01*
X197381Y290272D01*
X197584Y290407D01*
X197791Y290536D01*
X198000Y290660D01*
X198212Y290779D01*
X198428Y290893D01*
X198645Y291002D01*
X198866Y291105D01*
X199089Y291203D01*
X199314Y291296D01*
X199542Y291383D01*
X199771Y291464D01*
X200003Y291540D01*
X200236Y291610D01*
X200471Y291675D01*
X200707Y291734D01*
X200945Y291787D01*
X201184Y291834D01*
X201424Y291875D01*
X201665Y291910D01*
X201906Y291940D01*
X202149Y291964D01*
X202392Y291981D01*
X202635Y291993D01*
X202878Y291999D01*
X203122Y291999D01*
X203365Y291993D01*
X203608Y291981D01*
X203851Y291964D01*
X204094Y291940D01*
X204335Y291910D01*
X204576Y291875D01*
X204816Y291834D01*
X205055Y291787D01*
X205293Y291734D01*
X205529Y291675D01*
X205764Y291610D01*
X205997Y291540D01*
X206229Y291464D01*
X206458Y291383D01*
X206686Y291296D01*
X206911Y291203D01*
X207134Y291105D01*
X207355Y291002D01*
X207572Y290893D01*
X207788Y290779D01*
X208000Y290660D01*
X208209Y290536D01*
X208416Y290407D01*
X208619Y290272D01*
X208819Y290133D01*
X209015Y289989D01*
X209208Y289840D01*
X209397Y289686D01*
X209582Y289528D01*
X209763Y289366D01*
X209941Y289199D01*
X210114Y289028D01*
X210283Y288853D01*
X210448Y288673D01*
X210608Y288490D01*
X210764Y288303D01*
X210915Y288112D01*
X211061Y287917D01*
X211203Y287719D01*
X211340Y287518D01*
X211472Y287313D01*
X211599Y287105D01*
X211720Y286894D01*
X211837Y286680D01*
X211948Y286464D01*
X212054Y286245D01*
X212155Y286023D01*
X212250Y285799D01*
X212340Y285572D01*
X212424Y285344D01*
X212503Y285113D01*
X212576Y284881D01*
X212643Y284647D01*
X212705Y284411D01*
X212761Y284174D01*
X212811Y283936D01*
X212855Y283696D01*
X212893Y283456D01*
X212926Y283215D01*
X212953Y282973D01*
X212973Y282730D01*
X212988Y282487D01*
X212997Y282244D01*
X213000Y282000D01*
X168000Y341000D02*
X168080Y341539D01*
X168173Y342076D01*
X168280Y342610D01*
X168400Y343142D01*
X168533Y343671D01*
X168678Y344196D01*
X168837Y344717D01*
X169008Y345234D01*
X169192Y345747D01*
X169388Y346256D01*
X169597Y346759D01*
X169818Y347257D01*
X170051Y347750D01*
X170297Y348236D01*
X170554Y348717D01*
X170823Y349191D01*
X171103Y349658D01*
X171395Y350118D01*
X171698Y350571D01*
X172012Y351017D01*
X172337Y351454D01*
X172672Y351884D01*
X173018Y352305D01*
X173374Y352717D01*
X173741Y353121D01*
X174117Y353515D01*
X174502Y353900D01*
X174897Y354276D01*
X175301Y354642D01*
X175714Y354997D01*
X176135Y355343D01*
X176565Y355678D01*
X177003Y356002D01*
X177449Y356316D01*
X177902Y356618D01*
X178363Y356910D01*
X178830Y357189D01*
X179304Y357458D01*
X179785Y357714D01*
X180272Y357959D01*
X180765Y358192D01*
X181263Y358413D01*
X181767Y358621D01*
X182275Y358817D01*
X182788Y359000D01*
X183306Y359171D01*
X183828Y359329D01*
X184353Y359474D01*
X184882Y359606D01*
X185413Y359725D01*
X185948Y359831D01*
X186485Y359924D01*
X187024Y360004D01*
X187565Y360070D01*
X188107Y360123D01*
X188651Y360163D01*
X189195Y360189D01*
X189740Y360202D01*
X190285Y360202D01*
X190829Y360189D01*
X191374Y360162D01*
X191917Y360121D01*
X192459Y360067D01*
X193000Y360001D01*
X213000Y360001D02*
X213541Y360067D01*
X214083Y360121D01*
X214626Y360162D01*
X215171Y360189D01*
X215715Y360202D01*
X216260Y360202D01*
X216805Y360189D01*
X217349Y360163D01*
X217893Y360123D01*
X218435Y360070D01*
X218976Y360004D01*
X219515Y359924D01*
X220052Y359831D01*
X220587Y359725D01*
X221118Y359606D01*
X221647Y359474D01*
X222172Y359329D01*
X222694Y359171D01*
X223212Y359000D01*
X223725Y358817D01*
X224233Y358621D01*
X224737Y358413D01*
X225235Y358192D01*
X225728Y357959D01*
X226215Y357714D01*
X226696Y357458D01*
X227170Y357189D01*
X227637Y356910D01*
X228098Y356618D01*
X228551Y356316D01*
X228997Y356002D01*
X229435Y355678D01*
X229865Y355343D01*
X230286Y354997D01*
X230699Y354642D01*
X231103Y354276D01*
X231498Y353900D01*
X231883Y353515D01*
X232259Y353121D01*
X232626Y352717D01*
X232982Y352305D01*
X233328Y351884D01*
X233663Y351454D01*
X233988Y351017D01*
X234302Y350571D01*
X234605Y350118D01*
X234897Y349658D01*
X235177Y349191D01*
X235446Y348717D01*
X235703Y348236D01*
X235949Y347750D01*
X236182Y347257D01*
X236403Y346759D01*
X236612Y346256D01*
X236808Y345747D01*
X236992Y345234D01*
X237163Y344717D01*
X237322Y344196D01*
X237467Y343671D01*
X237600Y343142D01*
X237720Y342610D01*
X237827Y342076D01*
X237920Y341539D01*
X238000Y341000D01*
X193000Y282000D02*
X192460Y281933D01*
X191917Y281880D01*
X191374Y281839D01*
X190830Y281812D01*
X190285Y281799D01*
X189740Y281799D01*
X189195Y281812D01*
X188651Y281838D01*
X188107Y281878D01*
X187565Y281931D01*
X187024Y281998D01*
X186485Y282077D01*
X185948Y282170D01*
X185414Y282276D01*
X184882Y282395D01*
X184353Y282527D01*
X183828Y282673D01*
X183307Y282830D01*
X182789Y283001D01*
X182276Y283184D01*
X181767Y283380D01*
X181264Y283589D01*
X180766Y283809D01*
X180273Y284042D01*
X179786Y284287D01*
X179305Y284543D01*
X178831Y284812D01*
X178363Y285092D01*
X177903Y285383D01*
X177450Y285685D01*
X177004Y285999D01*
X176566Y286323D01*
X176136Y286658D01*
X175715Y287004D01*
X175302Y287359D01*
X174898Y287725D01*
X174503Y288101D01*
X174118Y288486D01*
X173742Y288880D01*
X173376Y289284D01*
X173019Y289696D01*
X172674Y290117D01*
X172338Y290547D01*
X172013Y290984D01*
X171699Y291429D01*
X171396Y291882D01*
X171104Y292343D01*
X170824Y292810D01*
X170555Y293284D01*
X170298Y293764D01*
X170053Y294251D01*
X169819Y294743D01*
X169598Y295241D01*
X169389Y295745D01*
X169193Y296253D01*
X169009Y296766D01*
X168838Y297283D01*
X168679Y297805D01*
X168534Y298330D01*
X168401Y298858D01*
X168281Y299390D01*
X168175Y299924D01*
X168081Y300461D01*
X168001Y301000D01*
X213000Y281999D02*
X213541Y281933D01*
X214083Y281879D01*
X214626Y281838D01*
X215171Y281811D01*
X215715Y281798D01*
X216260Y281798D01*
X216805Y281811D01*
X217349Y281837D01*
X217893Y281877D01*
X218435Y281930D01*
X218976Y281996D01*
X219515Y282076D01*
X220052Y282169D01*
X220587Y282275D01*
X221118Y282394D01*
X221647Y282526D01*
X222172Y282671D01*
X222694Y282829D01*
X223212Y283000D01*
X223725Y283183D01*
X224233Y283379D01*
X224737Y283587D01*
X225235Y283808D01*
X225728Y284041D01*
X226215Y284286D01*
X226696Y284542D01*
X227170Y284811D01*
X227637Y285090D01*
X228098Y285382D01*
X228551Y285684D01*
X228997Y285998D01*
X229435Y286322D01*
X229865Y286657D01*
X230286Y287003D01*
X230699Y287358D01*
X231103Y287724D01*
X231498Y288100D01*
X231883Y288485D01*
X232259Y288879D01*
X232626Y289283D01*
X232982Y289695D01*
X233328Y290116D01*
X233663Y290546D01*
X233988Y290983D01*
X234302Y291429D01*
X234605Y291882D01*
X234897Y292342D01*
X235177Y292809D01*
X235446Y293283D01*
X235703Y293764D01*
X235949Y294250D01*
X236182Y294743D01*
X236403Y295241D01*
X236612Y295744D01*
X236808Y296253D01*
X236992Y296766D01*
X237163Y297283D01*
X237322Y297804D01*
X237467Y298329D01*
X237600Y298858D01*
X237720Y299390D01*
X237827Y299924D01*
X237920Y300461D01*
X238000Y301000D01*
D78*
X239000Y430400D02*
X239000Y464500D01*
X257000Y464500D02*
X257000Y437500D01*
D72*
X205000Y413000D02*
X205000Y383000D01*
X205000Y413000D02*
X175000Y413000D01*
X175000Y383000D01*
X205000Y383000D01*
X270490Y389110D02*
X270490Y406890D01*
X303510Y406890D01*
X303510Y389110D01*
X270490Y389110D01*
D78*
X98000Y175500D02*
X66000Y175500D01*
X66000Y224500D01*
X98000Y224500D01*
X98000Y175500D01*
X101500Y173950D02*
X117000Y173950D01*
D72*
X165000Y136000D02*
X165000Y96000D01*
X235000Y96000D02*
X235000Y136000D01*
X210000Y155000D02*
X209997Y154756D01*
X209988Y154513D01*
X209973Y154270D01*
X209953Y154027D01*
X209926Y153785D01*
X209893Y153544D01*
X209855Y153304D01*
X209811Y153064D01*
X209761Y152826D01*
X209705Y152589D01*
X209643Y152353D01*
X209576Y152119D01*
X209503Y151887D01*
X209424Y151656D01*
X209340Y151428D01*
X209250Y151201D01*
X209155Y150977D01*
X209054Y150755D01*
X208948Y150536D01*
X208837Y150320D01*
X208720Y150106D01*
X208599Y149895D01*
X208472Y149687D01*
X208340Y149482D01*
X208203Y149281D01*
X208061Y149083D01*
X207915Y148888D01*
X207764Y148697D01*
X207608Y148510D01*
X207448Y148327D01*
X207283Y148147D01*
X207114Y147972D01*
X206941Y147801D01*
X206763Y147634D01*
X206582Y147472D01*
X206397Y147314D01*
X206208Y147160D01*
X206015Y147011D01*
X205819Y146867D01*
X205619Y146728D01*
X205416Y146593D01*
X205209Y146464D01*
X205000Y146340D01*
X204788Y146221D01*
X204572Y146107D01*
X204355Y145998D01*
X204134Y145895D01*
X203911Y145797D01*
X203686Y145704D01*
X203458Y145617D01*
X203229Y145536D01*
X202997Y145460D01*
X202764Y145390D01*
X202529Y145325D01*
X202293Y145266D01*
X202055Y145213D01*
X201816Y145166D01*
X201576Y145125D01*
X201335Y145090D01*
X201094Y145060D01*
X200851Y145036D01*
X200608Y145019D01*
X200365Y145007D01*
X200122Y145001D01*
X199878Y145001D01*
X199635Y145007D01*
X199392Y145019D01*
X199149Y145036D01*
X198906Y145060D01*
X198665Y145090D01*
X198424Y145125D01*
X198184Y145166D01*
X197945Y145213D01*
X197707Y145266D01*
X197471Y145325D01*
X197236Y145390D01*
X197003Y145460D01*
X196771Y145536D01*
X196542Y145617D01*
X196314Y145704D01*
X196089Y145797D01*
X195866Y145895D01*
X195645Y145998D01*
X195428Y146107D01*
X195212Y146221D01*
X195000Y146340D01*
X194791Y146464D01*
X194584Y146593D01*
X194381Y146728D01*
X194181Y146867D01*
X193985Y147011D01*
X193792Y147160D01*
X193603Y147314D01*
X193418Y147472D01*
X193237Y147634D01*
X193059Y147801D01*
X192886Y147972D01*
X192717Y148147D01*
X192552Y148327D01*
X192392Y148510D01*
X192236Y148697D01*
X192085Y148888D01*
X191939Y149083D01*
X191797Y149281D01*
X191660Y149482D01*
X191528Y149687D01*
X191401Y149895D01*
X191280Y150106D01*
X191163Y150320D01*
X191052Y150536D01*
X190946Y150755D01*
X190845Y150977D01*
X190750Y151201D01*
X190660Y151428D01*
X190576Y151656D01*
X190497Y151887D01*
X190424Y152119D01*
X190357Y152353D01*
X190295Y152589D01*
X190239Y152826D01*
X190189Y153064D01*
X190145Y153304D01*
X190107Y153544D01*
X190074Y153785D01*
X190047Y154027D01*
X190027Y154270D01*
X190012Y154513D01*
X190003Y154756D01*
X190000Y155000D01*
X190000Y77000D02*
X190003Y77244D01*
X190012Y77487D01*
X190027Y77730D01*
X190047Y77973D01*
X190074Y78215D01*
X190107Y78456D01*
X190145Y78696D01*
X190189Y78936D01*
X190239Y79174D01*
X190295Y79411D01*
X190357Y79647D01*
X190424Y79881D01*
X190497Y80113D01*
X190576Y80344D01*
X190660Y80572D01*
X190750Y80799D01*
X190845Y81023D01*
X190946Y81245D01*
X191052Y81464D01*
X191163Y81680D01*
X191280Y81894D01*
X191401Y82105D01*
X191528Y82313D01*
X191660Y82518D01*
X191797Y82719D01*
X191939Y82917D01*
X192085Y83112D01*
X192236Y83303D01*
X192392Y83490D01*
X192552Y83673D01*
X192717Y83853D01*
X192886Y84028D01*
X193059Y84199D01*
X193237Y84366D01*
X193418Y84528D01*
X193603Y84686D01*
X193792Y84840D01*
X193985Y84989D01*
X194181Y85133D01*
X194381Y85272D01*
X194584Y85407D01*
X194791Y85536D01*
X195000Y85660D01*
X195212Y85779D01*
X195428Y85893D01*
X195645Y86002D01*
X195866Y86105D01*
X196089Y86203D01*
X196314Y86296D01*
X196542Y86383D01*
X196771Y86464D01*
X197003Y86540D01*
X197236Y86610D01*
X197471Y86675D01*
X197707Y86734D01*
X197945Y86787D01*
X198184Y86834D01*
X198424Y86875D01*
X198665Y86910D01*
X198906Y86940D01*
X199149Y86964D01*
X199392Y86981D01*
X199635Y86993D01*
X199878Y86999D01*
X200122Y86999D01*
X200365Y86993D01*
X200608Y86981D01*
X200851Y86964D01*
X201094Y86940D01*
X201335Y86910D01*
X201576Y86875D01*
X201816Y86834D01*
X202055Y86787D01*
X202293Y86734D01*
X202529Y86675D01*
X202764Y86610D01*
X202997Y86540D01*
X203229Y86464D01*
X203458Y86383D01*
X203686Y86296D01*
X203911Y86203D01*
X204134Y86105D01*
X204355Y86002D01*
X204572Y85893D01*
X204788Y85779D01*
X205000Y85660D01*
X205209Y85536D01*
X205416Y85407D01*
X205619Y85272D01*
X205819Y85133D01*
X206015Y84989D01*
X206208Y84840D01*
X206397Y84686D01*
X206582Y84528D01*
X206763Y84366D01*
X206941Y84199D01*
X207114Y84028D01*
X207283Y83853D01*
X207448Y83673D01*
X207608Y83490D01*
X207764Y83303D01*
X207915Y83112D01*
X208061Y82917D01*
X208203Y82719D01*
X208340Y82518D01*
X208472Y82313D01*
X208599Y82105D01*
X208720Y81894D01*
X208837Y81680D01*
X208948Y81464D01*
X209054Y81245D01*
X209155Y81023D01*
X209250Y80799D01*
X209340Y80572D01*
X209424Y80344D01*
X209503Y80113D01*
X209576Y79881D01*
X209643Y79647D01*
X209705Y79411D01*
X209761Y79174D01*
X209811Y78936D01*
X209855Y78696D01*
X209893Y78456D01*
X209926Y78215D01*
X209953Y77973D01*
X209973Y77730D01*
X209988Y77487D01*
X209997Y77244D01*
X210000Y77000D01*
X165000Y136000D02*
X165080Y136539D01*
X165173Y137076D01*
X165280Y137610D01*
X165400Y138142D01*
X165533Y138671D01*
X165678Y139196D01*
X165837Y139717D01*
X166008Y140234D01*
X166192Y140747D01*
X166388Y141256D01*
X166597Y141759D01*
X166818Y142257D01*
X167051Y142750D01*
X167297Y143236D01*
X167554Y143717D01*
X167823Y144191D01*
X168103Y144658D01*
X168395Y145118D01*
X168698Y145571D01*
X169012Y146017D01*
X169337Y146454D01*
X169672Y146884D01*
X170018Y147305D01*
X170374Y147717D01*
X170741Y148121D01*
X171117Y148515D01*
X171502Y148900D01*
X171897Y149276D01*
X172301Y149642D01*
X172714Y149997D01*
X173135Y150343D01*
X173565Y150678D01*
X174003Y151002D01*
X174449Y151316D01*
X174902Y151618D01*
X175363Y151910D01*
X175830Y152189D01*
X176304Y152458D01*
X176785Y152714D01*
X177272Y152959D01*
X177765Y153192D01*
X178263Y153413D01*
X178767Y153621D01*
X179275Y153817D01*
X179788Y154000D01*
X180306Y154171D01*
X180828Y154329D01*
X181353Y154474D01*
X181882Y154606D01*
X182413Y154725D01*
X182948Y154831D01*
X183485Y154924D01*
X184024Y155004D01*
X184565Y155070D01*
X185107Y155123D01*
X185651Y155163D01*
X186195Y155189D01*
X186740Y155202D01*
X187285Y155202D01*
X187829Y155189D01*
X188374Y155162D01*
X188917Y155121D01*
X189459Y155067D01*
X190000Y155001D01*
X210000Y155001D02*
X210541Y155067D01*
X211083Y155121D01*
X211626Y155162D01*
X212171Y155189D01*
X212715Y155202D01*
X213260Y155202D01*
X213805Y155189D01*
X214349Y155163D01*
X214893Y155123D01*
X215435Y155070D01*
X215976Y155004D01*
X216515Y154924D01*
X217052Y154831D01*
X217587Y154725D01*
X218118Y154606D01*
X218647Y154474D01*
X219172Y154329D01*
X219694Y154171D01*
X220212Y154000D01*
X220725Y153817D01*
X221233Y153621D01*
X221737Y153413D01*
X222235Y153192D01*
X222728Y152959D01*
X223215Y152714D01*
X223696Y152458D01*
X224170Y152189D01*
X224637Y151910D01*
X225098Y151618D01*
X225551Y151316D01*
X225997Y151002D01*
X226435Y150678D01*
X226865Y150343D01*
X227286Y149997D01*
X227699Y149642D01*
X228103Y149276D01*
X228498Y148900D01*
X228883Y148515D01*
X229259Y148121D01*
X229626Y147717D01*
X229982Y147305D01*
X230328Y146884D01*
X230663Y146454D01*
X230988Y146017D01*
X231302Y145571D01*
X231605Y145118D01*
X231897Y144658D01*
X232177Y144191D01*
X232446Y143717D01*
X232703Y143236D01*
X232949Y142750D01*
X233182Y142257D01*
X233403Y141759D01*
X233612Y141256D01*
X233808Y140747D01*
X233992Y140234D01*
X234163Y139717D01*
X234322Y139196D01*
X234467Y138671D01*
X234600Y138142D01*
X234720Y137610D01*
X234827Y137076D01*
X234920Y136539D01*
X235000Y136000D01*
X190000Y77000D02*
X189460Y76933D01*
X188917Y76880D01*
X188374Y76839D01*
X187830Y76812D01*
X187285Y76799D01*
X186740Y76799D01*
X186195Y76812D01*
X185651Y76838D01*
X185107Y76878D01*
X184565Y76931D01*
X184024Y76998D01*
X183485Y77077D01*
X182948Y77170D01*
X182414Y77276D01*
X181882Y77395D01*
X181353Y77527D01*
X180828Y77673D01*
X180307Y77830D01*
X179789Y78001D01*
X179276Y78184D01*
X178767Y78380D01*
X178264Y78589D01*
X177766Y78809D01*
X177273Y79042D01*
X176786Y79287D01*
X176305Y79543D01*
X175831Y79812D01*
X175363Y80092D01*
X174903Y80383D01*
X174450Y80685D01*
X174004Y80999D01*
X173566Y81323D01*
X173136Y81658D01*
X172715Y82004D01*
X172302Y82359D01*
X171898Y82725D01*
X171503Y83101D01*
X171118Y83486D01*
X170742Y83880D01*
X170376Y84284D01*
X170019Y84696D01*
X169674Y85117D01*
X169338Y85547D01*
X169013Y85984D01*
X168699Y86429D01*
X168396Y86882D01*
X168104Y87343D01*
X167824Y87810D01*
X167555Y88284D01*
X167298Y88764D01*
X167053Y89251D01*
X166819Y89743D01*
X166598Y90241D01*
X166389Y90745D01*
X166193Y91253D01*
X166009Y91766D01*
X165838Y92283D01*
X165679Y92805D01*
X165534Y93330D01*
X165401Y93858D01*
X165281Y94390D01*
X165175Y94924D01*
X165081Y95461D01*
X165001Y96000D01*
X210000Y76999D02*
X210541Y76933D01*
X211083Y76879D01*
X211626Y76838D01*
X212171Y76811D01*
X212715Y76798D01*
X213260Y76798D01*
X213805Y76811D01*
X214349Y76837D01*
X214893Y76877D01*
X215435Y76930D01*
X215976Y76996D01*
X216515Y77076D01*
X217052Y77169D01*
X217587Y77275D01*
X218118Y77394D01*
X218647Y77526D01*
X219172Y77671D01*
X219694Y77829D01*
X220212Y78000D01*
X220725Y78183D01*
X221233Y78379D01*
X221737Y78587D01*
X222235Y78808D01*
X222728Y79041D01*
X223215Y79286D01*
X223696Y79542D01*
X224170Y79811D01*
X224637Y80090D01*
X225098Y80382D01*
X225551Y80684D01*
X225997Y80998D01*
X226435Y81322D01*
X226865Y81657D01*
X227286Y82003D01*
X227699Y82358D01*
X228103Y82724D01*
X228498Y83100D01*
X228883Y83485D01*
X229259Y83879D01*
X229626Y84283D01*
X229982Y84695D01*
X230328Y85116D01*
X230663Y85546D01*
X230988Y85983D01*
X231302Y86429D01*
X231605Y86882D01*
X231897Y87342D01*
X232177Y87809D01*
X232446Y88283D01*
X232703Y88764D01*
X232949Y89250D01*
X233182Y89743D01*
X233403Y90241D01*
X233612Y90744D01*
X233808Y91253D01*
X233992Y91766D01*
X234163Y92283D01*
X234322Y92804D01*
X234467Y93329D01*
X234600Y93858D01*
X234720Y94390D01*
X234827Y94924D01*
X234920Y95461D01*
X235000Y96000D01*
D78*
X226000Y206400D02*
X226000Y240500D01*
X244000Y240500D02*
X244000Y213500D01*
D72*
X200000Y199000D02*
X200000Y169000D01*
X200000Y199000D02*
X170000Y199000D01*
X170000Y169000D01*
X200000Y169000D01*
X271490Y211110D02*
X271490Y228890D01*
X304510Y228890D01*
X304510Y211110D01*
X271490Y211110D01*
D79*
X64500Y547500D02*
X64500Y570500D01*
X112500Y570500D01*
X129500Y553500D01*
X129500Y547500D01*
X129500Y528500D02*
X129500Y522500D01*
X112500Y505500D01*
X64500Y505500D01*
X64500Y528500D01*
X67500Y547500D02*
X67741Y548218D01*
X68000Y548931D01*
X68276Y549636D01*
X68569Y550335D01*
X68879Y551027D01*
X69206Y551710D01*
X69549Y552386D01*
X69909Y553053D01*
X70285Y553711D01*
X70677Y554359D01*
X71085Y554998D01*
X71508Y555626D01*
X71947Y556244D01*
X72400Y556851D01*
X72869Y557447D01*
X73351Y558031D01*
X73848Y558603D01*
X74359Y559163D01*
X74883Y559710D01*
X75420Y560245D01*
X75971Y560766D01*
X76534Y561273D01*
X77109Y561766D01*
X77696Y562246D01*
X78294Y562710D01*
X78904Y563160D01*
X79525Y563595D01*
X80156Y564015D01*
X80797Y564419D01*
X81447Y564807D01*
X82108Y565179D01*
X82776Y565535D01*
X83454Y565875D01*
X84140Y566198D01*
X84833Y566504D01*
X85533Y566793D01*
X86241Y567064D01*
X86954Y567319D01*
X87674Y567556D01*
X88400Y567775D01*
X89130Y567976D01*
X89865Y568160D01*
X90605Y568325D01*
X91348Y568472D01*
X92095Y568601D01*
X92845Y568712D01*
X93597Y568805D01*
X94351Y568879D01*
X95107Y568934D01*
X95864Y568971D01*
X96621Y568990D01*
X97379Y568990D01*
X98136Y568971D01*
X98893Y568934D01*
X99649Y568879D01*
X100403Y568805D01*
X101155Y568712D01*
X101905Y568601D01*
X102652Y568472D01*
X103395Y568325D01*
X104135Y568160D01*
X104870Y567976D01*
X105600Y567775D01*
X106326Y567556D01*
X107046Y567319D01*
X107759Y567064D01*
X108467Y566793D01*
X109167Y566504D01*
X109860Y566198D01*
X110546Y565875D01*
X111224Y565535D01*
X111892Y565179D01*
X112553Y564807D01*
X113203Y564419D01*
X113844Y564015D01*
X114475Y563595D01*
X115096Y563160D01*
X115706Y562710D01*
X116304Y562246D01*
X116891Y561766D01*
X117466Y561273D01*
X118029Y560766D01*
X118580Y560245D01*
X119117Y559710D01*
X119641Y559163D01*
X120152Y558603D01*
X120649Y558031D01*
X121131Y557447D01*
X121600Y556851D01*
X122053Y556244D01*
X122492Y555626D01*
X122915Y554998D01*
X123323Y554359D01*
X123715Y553711D01*
X124091Y553053D01*
X124451Y552386D01*
X124794Y551710D01*
X125121Y551027D01*
X125431Y550335D01*
X125724Y549636D01*
X126000Y548931D01*
X126259Y548218D01*
X126500Y547500D01*
X126500Y528500D02*
X126259Y527782D01*
X126000Y527069D01*
X125724Y526364D01*
X125431Y525665D01*
X125121Y524973D01*
X124794Y524290D01*
X124451Y523614D01*
X124091Y522947D01*
X123715Y522289D01*
X123323Y521641D01*
X122915Y521002D01*
X122492Y520374D01*
X122053Y519756D01*
X121600Y519149D01*
X121131Y518553D01*
X120649Y517969D01*
X120152Y517397D01*
X119641Y516837D01*
X119117Y516290D01*
X118580Y515755D01*
X118029Y515234D01*
X117466Y514727D01*
X116891Y514234D01*
X116304Y513754D01*
X115706Y513290D01*
X115096Y512840D01*
X114475Y512405D01*
X113844Y511985D01*
X113203Y511581D01*
X112553Y511193D01*
X111892Y510821D01*
X111224Y510465D01*
X110546Y510125D01*
X109860Y509802D01*
X109167Y509496D01*
X108467Y509207D01*
X107759Y508936D01*
X107046Y508681D01*
X106326Y508444D01*
X105600Y508225D01*
X104870Y508024D01*
X104135Y507840D01*
X103395Y507675D01*
X102652Y507528D01*
X101905Y507399D01*
X101155Y507288D01*
X100403Y507195D01*
X99649Y507121D01*
X98893Y507066D01*
X98136Y507029D01*
X97379Y507010D01*
X96621Y507010D01*
X95864Y507029D01*
X95107Y507066D01*
X94351Y507121D01*
X93597Y507195D01*
X92845Y507288D01*
X92095Y507399D01*
X91348Y507528D01*
X90605Y507675D01*
X89865Y507840D01*
X89130Y508024D01*
X88400Y508225D01*
X87674Y508444D01*
X86954Y508681D01*
X86241Y508936D01*
X85533Y509207D01*
X84833Y509496D01*
X84140Y509802D01*
X83454Y510125D01*
X82776Y510465D01*
X82108Y510821D01*
X81447Y511193D01*
X80797Y511581D01*
X80156Y511985D01*
X79525Y512405D01*
X78904Y512840D01*
X78294Y513290D01*
X77696Y513754D01*
X77109Y514234D01*
X76534Y514727D01*
X75971Y515234D01*
X75420Y515755D01*
X74883Y516290D01*
X74359Y516837D01*
X73848Y517397D01*
X73351Y517969D01*
X72869Y518553D01*
X72400Y519149D01*
X71947Y519756D01*
X71508Y520374D01*
X71085Y521002D01*
X70677Y521641D01*
X70285Y522289D01*
X69909Y522947D01*
X69549Y523614D01*
X69206Y524290D01*
X68879Y524973D01*
X68569Y525665D01*
X68276Y526364D01*
X68000Y527069D01*
X67741Y527782D01*
X67500Y528500D01*
X64500Y387500D02*
X64500Y364500D01*
X64500Y387500D02*
X112500Y387500D01*
X129500Y370500D01*
X129500Y364500D01*
X129500Y345500D02*
X129500Y339500D01*
X112500Y322500D01*
X64500Y322500D01*
X64500Y345500D01*
X67500Y364500D02*
X67741Y365218D01*
X68000Y365931D01*
X68276Y366636D01*
X68569Y367335D01*
X68879Y368027D01*
X69206Y368710D01*
X69549Y369386D01*
X69909Y370053D01*
X70285Y370711D01*
X70677Y371359D01*
X71085Y371998D01*
X71508Y372626D01*
X71947Y373244D01*
X72400Y373851D01*
X72869Y374447D01*
X73351Y375031D01*
X73848Y375603D01*
X74359Y376163D01*
X74883Y376710D01*
X75420Y377245D01*
X75971Y377766D01*
X76534Y378273D01*
X77109Y378766D01*
X77696Y379246D01*
X78294Y379710D01*
X78904Y380160D01*
X79525Y380595D01*
X80156Y381015D01*
X80797Y381419D01*
X81447Y381807D01*
X82108Y382179D01*
X82776Y382535D01*
X83454Y382875D01*
X84140Y383198D01*
X84833Y383504D01*
X85533Y383793D01*
X86241Y384064D01*
X86954Y384319D01*
X87674Y384556D01*
X88400Y384775D01*
X89130Y384976D01*
X89865Y385160D01*
X90605Y385325D01*
X91348Y385472D01*
X92095Y385601D01*
X92845Y385712D01*
X93597Y385805D01*
X94351Y385879D01*
X95107Y385934D01*
X95864Y385971D01*
X96621Y385990D01*
X97379Y385990D01*
X98136Y385971D01*
X98893Y385934D01*
X99649Y385879D01*
X100403Y385805D01*
X101155Y385712D01*
X101905Y385601D01*
X102652Y385472D01*
X103395Y385325D01*
X104135Y385160D01*
X104870Y384976D01*
X105600Y384775D01*
X106326Y384556D01*
X107046Y384319D01*
X107759Y384064D01*
X108467Y383793D01*
X109167Y383504D01*
X109860Y383198D01*
X110546Y382875D01*
X111224Y382535D01*
X111892Y382179D01*
X112553Y381807D01*
X113203Y381419D01*
X113844Y381015D01*
X114475Y380595D01*
X115096Y380160D01*
X115706Y379710D01*
X116304Y379246D01*
X116891Y378766D01*
X117466Y378273D01*
X118029Y377766D01*
X118580Y377245D01*
X119117Y376710D01*
X119641Y376163D01*
X120152Y375603D01*
X120649Y375031D01*
X121131Y374447D01*
X121600Y373851D01*
X122053Y373244D01*
X122492Y372626D01*
X122915Y371998D01*
X123323Y371359D01*
X123715Y370711D01*
X124091Y370053D01*
X124451Y369386D01*
X124794Y368710D01*
X125121Y368027D01*
X125431Y367335D01*
X125724Y366636D01*
X126000Y365931D01*
X126259Y365218D01*
X126500Y364500D01*
X126500Y345500D02*
X126259Y344782D01*
X126000Y344069D01*
X125724Y343364D01*
X125431Y342665D01*
X125121Y341973D01*
X124794Y341290D01*
X124451Y340614D01*
X124091Y339947D01*
X123715Y339289D01*
X123323Y338641D01*
X122915Y338002D01*
X122492Y337374D01*
X122053Y336756D01*
X121600Y336149D01*
X121131Y335553D01*
X120649Y334969D01*
X120152Y334397D01*
X119641Y333837D01*
X119117Y333290D01*
X118580Y332755D01*
X118029Y332234D01*
X117466Y331727D01*
X116891Y331234D01*
X116304Y330754D01*
X115706Y330290D01*
X115096Y329840D01*
X114475Y329405D01*
X113844Y328985D01*
X113203Y328581D01*
X112553Y328193D01*
X111892Y327821D01*
X111224Y327465D01*
X110546Y327125D01*
X109860Y326802D01*
X109167Y326496D01*
X108467Y326207D01*
X107759Y325936D01*
X107046Y325681D01*
X106326Y325444D01*
X105600Y325225D01*
X104870Y325024D01*
X104135Y324840D01*
X103395Y324675D01*
X102652Y324528D01*
X101905Y324399D01*
X101155Y324288D01*
X100403Y324195D01*
X99649Y324121D01*
X98893Y324066D01*
X98136Y324029D01*
X97379Y324010D01*
X96621Y324010D01*
X95864Y324029D01*
X95107Y324066D01*
X94351Y324121D01*
X93597Y324195D01*
X92845Y324288D01*
X92095Y324399D01*
X91348Y324528D01*
X90605Y324675D01*
X89865Y324840D01*
X89130Y325024D01*
X88400Y325225D01*
X87674Y325444D01*
X86954Y325681D01*
X86241Y325936D01*
X85533Y326207D01*
X84833Y326496D01*
X84140Y326802D01*
X83454Y327125D01*
X82776Y327465D01*
X82108Y327821D01*
X81447Y328193D01*
X80797Y328581D01*
X80156Y328985D01*
X79525Y329405D01*
X78904Y329840D01*
X78294Y330290D01*
X77696Y330754D01*
X77109Y331234D01*
X76534Y331727D01*
X75971Y332234D01*
X75420Y332755D01*
X74883Y333290D01*
X74359Y333837D01*
X73848Y334397D01*
X73351Y334969D01*
X72869Y335553D01*
X72400Y336149D01*
X71947Y336756D01*
X71508Y337374D01*
X71085Y338002D01*
X70677Y338641D01*
X70285Y339289D01*
X69909Y339947D01*
X69549Y340614D01*
X69206Y341290D01*
X68879Y341973D01*
X68569Y342665D01*
X68276Y343364D01*
X68000Y344069D01*
X67741Y344782D01*
X67500Y345500D01*
X46500Y160500D02*
X46500Y137500D01*
X46500Y160500D02*
X94500Y160500D01*
X111500Y143500D01*
X111500Y137500D01*
X111500Y118500D02*
X111500Y112500D01*
X94500Y95500D01*
X46500Y95500D01*
X46500Y118500D01*
X49500Y137500D02*
X49741Y138218D01*
X50000Y138931D01*
X50276Y139636D01*
X50569Y140335D01*
X50879Y141027D01*
X51206Y141710D01*
X51549Y142386D01*
X51909Y143053D01*
X52285Y143711D01*
X52677Y144359D01*
X53085Y144998D01*
X53508Y145626D01*
X53947Y146244D01*
X54400Y146851D01*
X54869Y147447D01*
X55351Y148031D01*
X55848Y148603D01*
X56359Y149163D01*
X56883Y149710D01*
X57420Y150245D01*
X57971Y150766D01*
X58534Y151273D01*
X59109Y151766D01*
X59696Y152246D01*
X60294Y152710D01*
X60904Y153160D01*
X61525Y153595D01*
X62156Y154015D01*
X62797Y154419D01*
X63447Y154807D01*
X64108Y155179D01*
X64776Y155535D01*
X65454Y155875D01*
X66140Y156198D01*
X66833Y156504D01*
X67533Y156793D01*
X68241Y157064D01*
X68954Y157319D01*
X69674Y157556D01*
X70400Y157775D01*
X71130Y157976D01*
X71865Y158160D01*
X72605Y158325D01*
X73348Y158472D01*
X74095Y158601D01*
X74845Y158712D01*
X75597Y158805D01*
X76351Y158879D01*
X77107Y158934D01*
X77864Y158971D01*
X78621Y158990D01*
X79379Y158990D01*
X80136Y158971D01*
X80893Y158934D01*
X81649Y158879D01*
X82403Y158805D01*
X83155Y158712D01*
X83905Y158601D01*
X84652Y158472D01*
X85395Y158325D01*
X86135Y158160D01*
X86870Y157976D01*
X87600Y157775D01*
X88326Y157556D01*
X89046Y157319D01*
X89759Y157064D01*
X90467Y156793D01*
X91167Y156504D01*
X91860Y156198D01*
X92546Y155875D01*
X93224Y155535D01*
X93892Y155179D01*
X94553Y154807D01*
X95203Y154419D01*
X95844Y154015D01*
X96475Y153595D01*
X97096Y153160D01*
X97706Y152710D01*
X98304Y152246D01*
X98891Y151766D01*
X99466Y151273D01*
X100029Y150766D01*
X100580Y150245D01*
X101117Y149710D01*
X101641Y149163D01*
X102152Y148603D01*
X102649Y148031D01*
X103131Y147447D01*
X103600Y146851D01*
X104053Y146244D01*
X104492Y145626D01*
X104915Y144998D01*
X105323Y144359D01*
X105715Y143711D01*
X106091Y143053D01*
X106451Y142386D01*
X106794Y141710D01*
X107121Y141027D01*
X107431Y140335D01*
X107724Y139636D01*
X108000Y138931D01*
X108259Y138218D01*
X108500Y137500D01*
X108500Y118500D02*
X108259Y117782D01*
X108000Y117069D01*
X107724Y116364D01*
X107431Y115665D01*
X107121Y114973D01*
X106794Y114290D01*
X106451Y113614D01*
X106091Y112947D01*
X105715Y112289D01*
X105323Y111641D01*
X104915Y111002D01*
X104492Y110374D01*
X104053Y109756D01*
X103600Y109149D01*
X103131Y108553D01*
X102649Y107969D01*
X102152Y107397D01*
X101641Y106837D01*
X101117Y106290D01*
X100580Y105755D01*
X100029Y105234D01*
X99466Y104727D01*
X98891Y104234D01*
X98304Y103754D01*
X97706Y103290D01*
X97096Y102840D01*
X96475Y102405D01*
X95844Y101985D01*
X95203Y101581D01*
X94553Y101193D01*
X93892Y100821D01*
X93224Y100465D01*
X92546Y100125D01*
X91860Y99802D01*
X91167Y99496D01*
X90467Y99207D01*
X89759Y98936D01*
X89046Y98681D01*
X88326Y98444D01*
X87600Y98225D01*
X86870Y98024D01*
X86135Y97840D01*
X85395Y97675D01*
X84652Y97528D01*
X83905Y97399D01*
X83155Y97288D01*
X82403Y97195D01*
X81649Y97121D01*
X80893Y97066D01*
X80136Y97029D01*
X79379Y97010D01*
X78621Y97010D01*
X77864Y97029D01*
X77107Y97066D01*
X76351Y97121D01*
X75597Y97195D01*
X74845Y97288D01*
X74095Y97399D01*
X73348Y97528D01*
X72605Y97675D01*
X71865Y97840D01*
X71130Y98024D01*
X70400Y98225D01*
X69674Y98444D01*
X68954Y98681D01*
X68241Y98936D01*
X67533Y99207D01*
X66833Y99496D01*
X66140Y99802D01*
X65454Y100125D01*
X64776Y100465D01*
X64108Y100821D01*
X63447Y101193D01*
X62797Y101581D01*
X62156Y101985D01*
X61525Y102405D01*
X60904Y102840D01*
X60294Y103290D01*
X59696Y103754D01*
X59109Y104234D01*
X58534Y104727D01*
X57971Y105234D01*
X57420Y105755D01*
X56883Y106290D01*
X56359Y106837D01*
X55848Y107397D01*
X55351Y107969D01*
X54869Y108553D01*
X54400Y109149D01*
X53947Y109756D01*
X53508Y110374D01*
X53085Y111002D01*
X52677Y111641D01*
X52285Y112289D01*
X51909Y112947D01*
X51549Y113614D01*
X51206Y114290D01*
X50879Y114973D01*
X50569Y115665D01*
X50276Y116364D01*
X50000Y117069D01*
X49741Y117782D01*
X49500Y118500D01*
D70*
X413450Y379350D02*
X413450Y605410D01*
X578550Y605410D01*
X578550Y379350D01*
X413450Y379350D01*
X436310Y449200D02*
X436310Y455550D01*
X489650Y455550D01*
D77*
X489650Y442850D01*
D70*
X502350Y442850D01*
D77*
X502350Y468250D02*
X489650Y468250D01*
X489650Y455550D01*
X502350Y455550D02*
X502350Y442850D01*
D70*
X502350Y455550D02*
X555690Y455550D01*
D77*
X502350Y455550D02*
X502350Y468250D01*
D70*
X555690Y455550D02*
X555690Y449200D01*
X502350Y442850D02*
X489650Y468250D01*
X496000Y474600D02*
X496000Y540640D01*
D77*
X489650Y546990D01*
D70*
X458662Y546990D01*
X502350Y546990D02*
X533592Y546990D01*
D77*
X489650Y546990D02*
X486602Y550292D01*
D70*
X496000Y436500D02*
X496000Y426340D01*
D78*
X664000Y493000D02*
X664000Y529100D01*
X646000Y521000D02*
X646000Y493000D01*
X754350Y535750D02*
X754350Y544250D01*
X754350Y535750D02*
X783650Y535750D01*
X783650Y544250D01*
X754350Y544250D01*
X753750Y547750D02*
X753750Y557250D01*
D80*
X336500Y320500D02*
X336500Y263000D01*
X336500Y320500D02*
X444000Y320500D01*
X471500Y293000D01*
X471500Y263000D01*
X471500Y243000D02*
X471500Y213000D01*
X444000Y185500D01*
X336500Y185500D01*
X336500Y243000D01*
D81*
X337625Y240716D02*
X339416Y241086D01*
X339416Y241085D02*
X339760Y239526D01*
X340142Y237976D01*
X340561Y236436D01*
X341018Y234906D01*
X341512Y233388D01*
X342043Y231883D01*
X342611Y230391D01*
X343215Y228913D01*
X343854Y227450D01*
X344529Y226004D01*
X345240Y224574D01*
X345984Y223162D01*
X346763Y221769D01*
X347576Y220395D01*
X348422Y219041D01*
X349301Y217708D01*
X350212Y216397D01*
X351155Y215109D01*
X352129Y213844D01*
X353134Y212603D01*
X354168Y211388D01*
X355232Y210197D01*
X356324Y209033D01*
X357445Y207896D01*
X358593Y206787D01*
X359768Y205706D01*
X360968Y204654D01*
X362194Y203631D01*
X363445Y202639D01*
X364719Y201678D01*
X366017Y200748D01*
X367336Y199849D01*
X368678Y198984D01*
X370040Y198151D01*
X371422Y197352D01*
X372823Y196586D01*
X374242Y195855D01*
X375678Y195159D01*
X377132Y194498D01*
X378600Y193873D01*
X380084Y193284D01*
X381582Y192731D01*
X383092Y192215D01*
X384615Y191736D01*
X386149Y191294D01*
X387693Y190889D01*
X389247Y190523D01*
X390809Y190194D01*
X392379Y189904D01*
X393956Y189652D01*
X395538Y189438D01*
X397124Y189263D01*
X398715Y189127D01*
X400308Y189030D01*
X401904Y188971D01*
X403500Y188952D01*
X405096Y188971D01*
X406692Y189030D01*
X408285Y189127D01*
X409876Y189263D01*
X411462Y189438D01*
X413044Y189652D01*
X414621Y189904D01*
X416191Y190194D01*
X417753Y190523D01*
X419307Y190889D01*
X420851Y191294D01*
X422385Y191736D01*
X423908Y192215D01*
X425418Y192731D01*
X426916Y193284D01*
X428400Y193873D01*
X429868Y194498D01*
X431322Y195159D01*
X432758Y195855D01*
X434177Y196586D01*
X435578Y197352D01*
X436960Y198151D01*
X438322Y198984D01*
X439664Y199849D01*
X440983Y200748D01*
X442281Y201678D01*
X443555Y202639D01*
X444806Y203631D01*
X446032Y204654D01*
X447232Y205706D01*
X448407Y206787D01*
X449555Y207896D01*
X450676Y209033D01*
X451768Y210197D01*
X452832Y211388D01*
X453866Y212603D01*
X454871Y213844D01*
X455845Y215109D01*
X456788Y216397D01*
X457699Y217708D01*
X458578Y219041D01*
X459424Y220395D01*
X460237Y221769D01*
X461016Y223162D01*
X461760Y224574D01*
X462471Y226004D01*
X463146Y227450D01*
X463785Y228913D01*
X464389Y230391D01*
X464957Y231883D01*
X465488Y233388D01*
X465982Y234906D01*
X466439Y236436D01*
X466858Y237976D01*
X467240Y239526D01*
X467584Y241085D01*
X469375Y240716D01*
X469022Y239113D01*
X468630Y237520D01*
X468198Y235936D01*
X467729Y234364D01*
X467221Y232804D01*
X466675Y231256D01*
X466092Y229722D01*
X465471Y228203D01*
X464813Y226699D01*
X464119Y225212D01*
X463389Y223742D01*
X462624Y222291D01*
X461823Y220859D01*
X460987Y219446D01*
X460118Y218054D01*
X459214Y216684D01*
X458278Y215337D01*
X457309Y214013D01*
X456308Y212712D01*
X455275Y211437D01*
X454212Y210187D01*
X453118Y208963D01*
X451995Y207767D01*
X450843Y206598D01*
X449663Y205457D01*
X448456Y204346D01*
X447221Y203265D01*
X445961Y202213D01*
X444676Y201193D01*
X443366Y200205D01*
X442032Y199249D01*
X440675Y198326D01*
X439296Y197436D01*
X437896Y196580D01*
X436476Y195758D01*
X435036Y194971D01*
X433577Y194220D01*
X432100Y193504D01*
X430606Y192825D01*
X429096Y192182D01*
X427571Y191576D01*
X426031Y191008D01*
X424479Y190477D01*
X422913Y189984D01*
X421336Y189530D01*
X419749Y189114D01*
X418152Y188738D01*
X416546Y188400D01*
X414932Y188101D01*
X413311Y187842D01*
X411685Y187623D01*
X410054Y187443D01*
X408419Y187303D01*
X406781Y187203D01*
X405141Y187143D01*
X403500Y187123D01*
X401859Y187143D01*
X400219Y187203D01*
X398581Y187303D01*
X396946Y187443D01*
X395315Y187623D01*
X393689Y187842D01*
X392068Y188101D01*
X390454Y188400D01*
X388848Y188738D01*
X387251Y189114D01*
X385664Y189530D01*
X384087Y189984D01*
X382521Y190477D01*
X380969Y191008D01*
X379429Y191576D01*
X377904Y192182D01*
X376394Y192825D01*
X374900Y193504D01*
X373423Y194220D01*
X371964Y194971D01*
X370524Y195758D01*
X369104Y196580D01*
X367704Y197436D01*
X366325Y198326D01*
X364968Y199249D01*
X363634Y200205D01*
X362324Y201193D01*
X361039Y202213D01*
X359779Y203265D01*
X358544Y204346D01*
X357337Y205457D01*
X356157Y206598D01*
X355005Y207767D01*
X353882Y208963D01*
X352788Y210187D01*
X351725Y211437D01*
X350692Y212712D01*
X349691Y214013D01*
X348722Y215337D01*
X347786Y216684D01*
X346882Y218054D01*
X346013Y219446D01*
X345177Y220859D01*
X344376Y222291D01*
X343611Y223742D01*
X342881Y225212D01*
X342187Y226699D01*
X341529Y228203D01*
X340908Y229722D01*
X340325Y231256D01*
X339779Y232804D01*
X339271Y234364D01*
X338802Y235936D01*
X338370Y237520D01*
X337978Y239113D01*
X337625Y240716D01*
X337813Y240755D01*
X338165Y239157D01*
X338556Y237568D01*
X338986Y235989D01*
X339455Y234421D01*
X339961Y232865D01*
X340505Y231322D01*
X341087Y229792D01*
X341706Y228277D01*
X342362Y226778D01*
X343054Y225295D01*
X343782Y223830D01*
X344545Y222382D01*
X345344Y220954D01*
X346177Y219546D01*
X347044Y218158D01*
X347945Y216792D01*
X348879Y215448D01*
X349845Y214128D01*
X350843Y212831D01*
X351873Y211559D01*
X352933Y210313D01*
X354024Y209093D01*
X355143Y207900D01*
X356292Y206734D01*
X357469Y205597D01*
X358673Y204489D01*
X359904Y203410D01*
X361160Y202362D01*
X362442Y201345D01*
X363748Y200360D01*
X365078Y199406D01*
X366431Y198486D01*
X367806Y197598D01*
X369202Y196744D01*
X370618Y195925D01*
X372055Y195141D01*
X373509Y194391D01*
X374982Y193678D01*
X376471Y193000D01*
X377977Y192359D01*
X379498Y191755D01*
X381033Y191189D01*
X382581Y190660D01*
X384142Y190168D01*
X385715Y189715D01*
X387298Y189301D01*
X388890Y188925D01*
X390492Y188588D01*
X392101Y188291D01*
X393717Y188032D01*
X395338Y187813D01*
X396965Y187634D01*
X398595Y187495D01*
X400228Y187395D01*
X401864Y187335D01*
X403500Y187315D01*
X405136Y187335D01*
X406772Y187395D01*
X408405Y187495D01*
X410035Y187634D01*
X411662Y187813D01*
X413283Y188032D01*
X414899Y188291D01*
X416508Y188588D01*
X418110Y188925D01*
X419702Y189301D01*
X421285Y189715D01*
X422858Y190168D01*
X424419Y190660D01*
X425967Y191189D01*
X427502Y191755D01*
X429023Y192359D01*
X430529Y193000D01*
X432018Y193678D01*
X433491Y194391D01*
X434945Y195141D01*
X436382Y195925D01*
X437798Y196744D01*
X439194Y197598D01*
X440569Y198486D01*
X441922Y199406D01*
X443252Y200360D01*
X444558Y201345D01*
X445840Y202362D01*
X447096Y203410D01*
X448327Y204489D01*
X449531Y205597D01*
X450708Y206734D01*
X451857Y207900D01*
X452976Y209093D01*
X454067Y210313D01*
X455127Y211559D01*
X456157Y212831D01*
X457155Y214128D01*
X458121Y215448D01*
X459055Y216792D01*
X459956Y218158D01*
X460823Y219546D01*
X461656Y220954D01*
X462455Y222382D01*
X463218Y223830D01*
X463946Y225295D01*
X464638Y226778D01*
X465294Y228277D01*
X465913Y229792D01*
X466495Y231322D01*
X467039Y232865D01*
X467545Y234421D01*
X468014Y235989D01*
X468444Y237568D01*
X468835Y239157D01*
X469187Y240755D01*
X468999Y240793D01*
X468648Y239200D01*
X468258Y237616D01*
X467829Y236041D01*
X467362Y234478D01*
X466857Y232926D01*
X466314Y231388D01*
X465734Y229862D01*
X465117Y228352D01*
X464463Y226857D01*
X463773Y225378D01*
X463047Y223917D01*
X462286Y222474D01*
X461490Y221050D01*
X460659Y219645D01*
X459794Y218262D01*
X458896Y216899D01*
X457965Y215560D01*
X457001Y214243D01*
X456006Y212950D01*
X454979Y211682D01*
X453922Y210439D01*
X452835Y209222D01*
X451718Y208033D01*
X450573Y206870D01*
X449399Y205737D01*
X448199Y204632D01*
X446972Y203556D01*
X445719Y202511D01*
X444440Y201497D01*
X443138Y200514D01*
X441812Y199564D01*
X440463Y198646D01*
X439092Y197761D01*
X437700Y196909D01*
X436287Y196092D01*
X434855Y195310D01*
X433405Y194563D01*
X431936Y193852D01*
X430451Y193176D01*
X428950Y192537D01*
X427433Y191935D01*
X425903Y191370D01*
X424359Y190842D01*
X422802Y190352D01*
X421234Y189900D01*
X419656Y189487D01*
X418068Y189112D01*
X416471Y188777D01*
X414867Y188480D01*
X413255Y188222D01*
X411638Y188004D01*
X410017Y187825D01*
X408391Y187686D01*
X406762Y187587D01*
X405132Y187527D01*
X403500Y187507D01*
X401868Y187527D01*
X400238Y187587D01*
X398609Y187686D01*
X396983Y187825D01*
X395362Y188004D01*
X393745Y188222D01*
X392133Y188480D01*
X390529Y188777D01*
X388932Y189112D01*
X387344Y189487D01*
X385766Y189900D01*
X384198Y190352D01*
X382641Y190842D01*
X381097Y191370D01*
X379567Y191935D01*
X378050Y192537D01*
X376549Y193176D01*
X375064Y193852D01*
X373595Y194563D01*
X372145Y195310D01*
X370713Y196092D01*
X369300Y196909D01*
X367908Y197761D01*
X366537Y198646D01*
X365188Y199564D01*
X363862Y200514D01*
X362560Y201497D01*
X361281Y202511D01*
X360028Y203556D01*
X358801Y204632D01*
X357601Y205737D01*
X356427Y206870D01*
X355282Y208033D01*
X354165Y209222D01*
X353078Y210439D01*
X352021Y211682D01*
X350994Y212950D01*
X349999Y214243D01*
X349035Y215560D01*
X348104Y216899D01*
X347206Y218262D01*
X346341Y219645D01*
X345510Y221050D01*
X344714Y222474D01*
X343953Y223917D01*
X343227Y225378D01*
X342537Y226857D01*
X341883Y228352D01*
X341266Y229862D01*
X340686Y231388D01*
X340143Y232926D01*
X339638Y234478D01*
X339171Y236041D01*
X338742Y237616D01*
X338352Y239200D01*
X338001Y240793D01*
X338189Y240832D01*
X338539Y239243D01*
X338928Y237664D01*
X339356Y236094D01*
X339821Y234535D01*
X340325Y232988D01*
X340866Y231453D01*
X341445Y229933D01*
X342060Y228427D01*
X342712Y226936D01*
X343400Y225461D01*
X344124Y224004D01*
X344883Y222565D01*
X345677Y221145D01*
X346505Y219745D01*
X347367Y218365D01*
X348263Y217007D01*
X349191Y215671D01*
X350152Y214358D01*
X351145Y213069D01*
X352169Y211804D01*
X353223Y210565D01*
X354307Y209352D01*
X355420Y208166D01*
X356562Y207007D01*
X357732Y205876D01*
X358930Y204774D01*
X360153Y203702D01*
X361403Y202660D01*
X362677Y201649D01*
X363976Y200669D01*
X365298Y199721D01*
X366643Y198805D01*
X368010Y197923D01*
X369398Y197074D01*
X370807Y196260D01*
X372235Y195480D01*
X373681Y194735D01*
X375145Y194025D01*
X376626Y193352D01*
X378123Y192714D01*
X379635Y192114D01*
X381162Y191550D01*
X382701Y191024D01*
X384253Y190536D01*
X385817Y190086D01*
X387391Y189673D01*
X388974Y189300D01*
X390566Y188965D01*
X392166Y188669D01*
X393773Y188412D01*
X395385Y188194D01*
X397002Y188016D01*
X398623Y187878D01*
X400247Y187778D01*
X401873Y187719D01*
X403500Y187699D01*
X405127Y187719D01*
X406753Y187778D01*
X408377Y187878D01*
X409998Y188016D01*
X411615Y188194D01*
X413227Y188412D01*
X414834Y188669D01*
X416434Y188965D01*
X418026Y189300D01*
X419609Y189673D01*
X421183Y190086D01*
X422747Y190536D01*
X424299Y191024D01*
X425838Y191550D01*
X427365Y192114D01*
X428877Y192714D01*
X430374Y193352D01*
X431855Y194025D01*
X433319Y194735D01*
X434765Y195480D01*
X436193Y196260D01*
X437602Y197074D01*
X438990Y197923D01*
X440357Y198805D01*
X441702Y199721D01*
X443024Y200669D01*
X444323Y201649D01*
X445597Y202660D01*
X446847Y203702D01*
X448070Y204774D01*
X449268Y205876D01*
X450438Y207007D01*
X451580Y208166D01*
X452693Y209352D01*
X453777Y210565D01*
X454831Y211804D01*
X455855Y213069D01*
X456848Y214358D01*
X457809Y215671D01*
X458737Y217007D01*
X459633Y218365D01*
X460495Y219745D01*
X461323Y221145D01*
X462117Y222565D01*
X462876Y224004D01*
X463600Y225461D01*
X464288Y226936D01*
X464940Y228427D01*
X465555Y229933D01*
X466134Y231453D01*
X466675Y232988D01*
X467179Y234535D01*
X467644Y236094D01*
X468072Y237664D01*
X468461Y239243D01*
X468811Y240832D01*
X468623Y240871D01*
X468274Y239287D01*
X467886Y237711D01*
X467460Y236146D01*
X466995Y234592D01*
X466493Y233049D01*
X465953Y231519D01*
X465377Y230003D01*
X464763Y228501D01*
X464113Y227015D01*
X463427Y225545D01*
X462705Y224092D01*
X461949Y222657D01*
X461157Y221241D01*
X460331Y219844D01*
X459471Y218469D01*
X458578Y217114D01*
X457652Y215782D01*
X456694Y214473D01*
X455704Y213188D01*
X454684Y211927D01*
X453632Y210691D01*
X452551Y209481D01*
X451441Y208298D01*
X450302Y207143D01*
X449136Y206016D01*
X447942Y204917D01*
X446722Y203848D01*
X445476Y202809D01*
X444205Y201800D01*
X442910Y200823D01*
X441592Y199878D01*
X440250Y198965D01*
X438887Y198086D01*
X437503Y197239D01*
X436099Y196427D01*
X434675Y195649D01*
X433233Y194906D01*
X431773Y194199D01*
X430296Y193527D01*
X428804Y192892D01*
X427296Y192293D01*
X425774Y191731D01*
X424239Y191207D01*
X422691Y190720D01*
X421132Y190271D01*
X419563Y189860D01*
X417984Y189487D01*
X416397Y189153D01*
X414801Y188858D01*
X413199Y188602D01*
X411592Y188385D01*
X409979Y188207D01*
X408363Y188069D01*
X406743Y187970D01*
X405122Y187911D01*
X403500Y187891D01*
X401878Y187911D01*
X400257Y187970D01*
X398637Y188069D01*
X397021Y188207D01*
X395408Y188385D01*
X393801Y188602D01*
X392199Y188858D01*
X390603Y189153D01*
X389016Y189487D01*
X387437Y189860D01*
X385868Y190271D01*
X384309Y190720D01*
X382761Y191207D01*
X381226Y191731D01*
X379704Y192293D01*
X378196Y192892D01*
X376704Y193527D01*
X375227Y194199D01*
X373767Y194906D01*
X372325Y195649D01*
X370901Y196427D01*
X369497Y197239D01*
X368113Y198086D01*
X366750Y198965D01*
X365408Y199878D01*
X364090Y200823D01*
X362795Y201800D01*
X361524Y202809D01*
X360278Y203848D01*
X359058Y204917D01*
X357864Y206016D01*
X356698Y207143D01*
X355559Y208298D01*
X354449Y209481D01*
X353368Y210691D01*
X352316Y211927D01*
X351296Y213188D01*
X350306Y214473D01*
X349348Y215782D01*
X348422Y217114D01*
X347529Y218469D01*
X346669Y219844D01*
X345843Y221241D01*
X345051Y222657D01*
X344295Y224092D01*
X343573Y225545D01*
X342887Y227015D01*
X342237Y228501D01*
X341623Y230003D01*
X341047Y231519D01*
X340507Y233049D01*
X340005Y234592D01*
X339540Y236146D01*
X339114Y237711D01*
X338726Y239287D01*
X338377Y240871D01*
X338565Y240910D01*
X338913Y239330D01*
X339300Y237759D01*
X339725Y236199D01*
X340188Y234649D01*
X340689Y233111D01*
X341227Y231585D01*
X341802Y230073D01*
X342414Y228576D01*
X343062Y227094D01*
X343746Y225628D01*
X344466Y224179D01*
X345220Y222748D01*
X346010Y221336D01*
X346833Y219944D01*
X347691Y218572D01*
X348581Y217222D01*
X349504Y215894D01*
X350460Y214588D01*
X351447Y213306D01*
X352464Y212049D01*
X353513Y210817D01*
X354590Y209611D01*
X355697Y208431D01*
X356833Y207279D01*
X357996Y206155D01*
X359186Y205060D01*
X360403Y203994D01*
X361645Y202958D01*
X362913Y201952D01*
X364204Y200978D01*
X365519Y200036D01*
X366856Y199125D01*
X368215Y198248D01*
X369595Y197404D01*
X370995Y196594D01*
X372415Y195819D01*
X373853Y195078D01*
X375309Y194373D01*
X376781Y193703D01*
X378269Y193070D01*
X379773Y192472D01*
X381290Y191912D01*
X382821Y191389D01*
X384364Y190904D01*
X385919Y190456D01*
X387483Y190046D01*
X389058Y189675D01*
X390641Y189342D01*
X392231Y189047D01*
X393829Y188792D01*
X395432Y188576D01*
X397040Y188398D01*
X398651Y188260D01*
X400266Y188162D01*
X401883Y188103D01*
X403500Y188083D01*
X405117Y188103D01*
X406734Y188162D01*
X408349Y188260D01*
X409960Y188398D01*
X411568Y188576D01*
X413171Y188792D01*
X414769Y189047D01*
X416359Y189342D01*
X417942Y189675D01*
X419517Y190046D01*
X421081Y190456D01*
X422636Y190904D01*
X424179Y191389D01*
X425710Y191912D01*
X427227Y192472D01*
X428731Y193070D01*
X430219Y193703D01*
X431691Y194373D01*
X433147Y195078D01*
X434585Y195819D01*
X436005Y196594D01*
X437405Y197404D01*
X438785Y198248D01*
X440144Y199125D01*
X441481Y200036D01*
X442796Y200978D01*
X444087Y201952D01*
X445355Y202958D01*
X446597Y203994D01*
X447814Y205060D01*
X449004Y206155D01*
X450167Y207279D01*
X451303Y208431D01*
X452410Y209611D01*
X453487Y210817D01*
X454536Y212049D01*
X455553Y213306D01*
X456540Y214588D01*
X457496Y215894D01*
X458419Y217222D01*
X459309Y218572D01*
X460167Y219944D01*
X460990Y221336D01*
X461780Y222748D01*
X462534Y224179D01*
X463254Y225628D01*
X463938Y227094D01*
X464586Y228576D01*
X465198Y230073D01*
X465773Y231585D01*
X466311Y233111D01*
X466812Y234649D01*
X467275Y236199D01*
X467700Y237759D01*
X468087Y239330D01*
X468435Y240910D01*
X468247Y240948D01*
X467900Y239373D01*
X467514Y237807D01*
X467090Y236251D01*
X466628Y234706D01*
X466129Y233172D01*
X465593Y231651D01*
X465019Y230143D01*
X464409Y228650D01*
X463763Y227172D01*
X463081Y225711D01*
X462363Y224266D01*
X461611Y222840D01*
X460824Y221432D01*
X460003Y220044D01*
X459148Y218676D01*
X458260Y217329D01*
X457339Y216005D01*
X456387Y214703D01*
X455403Y213425D01*
X454388Y212172D01*
X453343Y210943D01*
X452268Y209740D01*
X451164Y208564D01*
X450032Y207416D01*
X448872Y206295D01*
X447685Y205203D01*
X446472Y204140D01*
X445233Y203107D01*
X443970Y202104D01*
X442682Y201133D01*
X441371Y200193D01*
X440038Y199285D01*
X438683Y198411D01*
X437307Y197569D01*
X435911Y196762D01*
X434495Y195988D01*
X433061Y195250D01*
X431610Y194547D01*
X430141Y193879D01*
X428657Y193247D01*
X427158Y192652D01*
X425645Y192093D01*
X424119Y191572D01*
X422580Y191087D01*
X421031Y190641D01*
X419470Y190232D01*
X417900Y189862D01*
X416322Y189530D01*
X414736Y189237D01*
X413143Y188982D01*
X411545Y188766D01*
X409942Y188589D01*
X408335Y188452D01*
X406725Y188354D01*
X405113Y188295D01*
X403500Y188275D01*
X401887Y188295D01*
X400275Y188354D01*
X398665Y188452D01*
X397058Y188589D01*
X395455Y188766D01*
X393857Y188982D01*
X392264Y189237D01*
X390678Y189530D01*
X389100Y189862D01*
X387530Y190232D01*
X385969Y190641D01*
X384420Y191087D01*
X382881Y191572D01*
X381355Y192093D01*
X379842Y192652D01*
X378343Y193247D01*
X376859Y193879D01*
X375390Y194547D01*
X373939Y195250D01*
X372505Y195988D01*
X371089Y196762D01*
X369693Y197569D01*
X368317Y198411D01*
X366962Y199285D01*
X365629Y200193D01*
X364318Y201133D01*
X363030Y202104D01*
X361767Y203107D01*
X360528Y204140D01*
X359315Y205203D01*
X358128Y206295D01*
X356968Y207416D01*
X355836Y208564D01*
X354732Y209740D01*
X353657Y210943D01*
X352612Y212172D01*
X351597Y213425D01*
X350613Y214703D01*
X349661Y216005D01*
X348740Y217329D01*
X347852Y218676D01*
X346997Y220044D01*
X346176Y221432D01*
X345389Y222840D01*
X344637Y224266D01*
X343919Y225711D01*
X343237Y227172D01*
X342591Y228650D01*
X341981Y230143D01*
X341407Y231651D01*
X340871Y233172D01*
X340372Y234706D01*
X339910Y236251D01*
X339486Y237807D01*
X339100Y239373D01*
X338753Y240948D01*
X338941Y240987D01*
X339287Y239417D01*
X339672Y237855D01*
X340095Y236304D01*
X340555Y234763D01*
X341053Y233233D01*
X341588Y231717D01*
X342159Y230213D01*
X342768Y228725D01*
X343412Y227251D01*
X344092Y225794D01*
X344808Y224354D01*
X345558Y222931D01*
X346343Y221527D01*
X347162Y220143D01*
X348014Y218779D01*
X348899Y217437D01*
X349817Y216116D01*
X350767Y214818D01*
X351748Y213544D01*
X352760Y212294D01*
X353802Y211069D01*
X354874Y209870D01*
X355974Y208697D01*
X357103Y207552D01*
X358260Y206434D01*
X359443Y205345D01*
X360653Y204285D01*
X361888Y203255D01*
X363148Y202256D01*
X364432Y201287D01*
X365739Y200350D01*
X367068Y199445D01*
X368419Y198573D01*
X369791Y197734D01*
X371184Y196929D01*
X372595Y196158D01*
X374025Y195422D01*
X375472Y194720D01*
X376936Y194054D01*
X378416Y193425D01*
X379910Y192831D01*
X381419Y192274D01*
X382941Y191754D01*
X384475Y191271D01*
X386020Y190826D01*
X387576Y190419D01*
X389141Y190049D01*
X390715Y189718D01*
X392297Y189426D01*
X393885Y189172D01*
X395479Y188957D01*
X397077Y188781D01*
X398679Y188643D01*
X400285Y188545D01*
X401892Y188487D01*
X403500Y188467D01*
X405108Y188487D01*
X406715Y188545D01*
X408321Y188643D01*
X409923Y188781D01*
X411521Y188957D01*
X413115Y189172D01*
X414703Y189426D01*
X416285Y189718D01*
X417859Y190049D01*
X419424Y190419D01*
X420980Y190826D01*
X422525Y191271D01*
X424059Y191754D01*
X425581Y192274D01*
X427090Y192831D01*
X428584Y193425D01*
X430064Y194054D01*
X431528Y194720D01*
X432975Y195422D01*
X434405Y196158D01*
X435816Y196929D01*
X437209Y197734D01*
X438581Y198573D01*
X439932Y199445D01*
X441261Y200350D01*
X442568Y201287D01*
X443852Y202256D01*
X445112Y203255D01*
X446347Y204285D01*
X447557Y205345D01*
X448740Y206434D01*
X449897Y207552D01*
X451026Y208697D01*
X452126Y209870D01*
X453198Y211069D01*
X454240Y212294D01*
X455252Y213544D01*
X456233Y214818D01*
X457183Y216116D01*
X458101Y217437D01*
X458986Y218779D01*
X459838Y220143D01*
X460657Y221527D01*
X461442Y222931D01*
X462192Y224354D01*
X462908Y225794D01*
X463588Y227251D01*
X464232Y228725D01*
X464841Y230213D01*
X465412Y231717D01*
X465947Y233233D01*
X466445Y234763D01*
X466905Y236304D01*
X467328Y237855D01*
X467713Y239417D01*
X468059Y240987D01*
X467871Y241026D01*
X467526Y239460D01*
X467142Y237903D01*
X466721Y236356D01*
X466262Y234820D01*
X465765Y233295D01*
X465232Y231782D01*
X464662Y230284D01*
X464055Y228799D01*
X463413Y227330D01*
X462735Y225877D01*
X462021Y224441D01*
X461273Y223023D01*
X460491Y221623D01*
X459674Y220243D01*
X458824Y218883D01*
X457942Y217544D01*
X457026Y216228D01*
X456079Y214933D01*
X455101Y213663D01*
X454092Y212417D01*
X453053Y211195D01*
X451984Y210000D01*
X450887Y208830D01*
X449761Y207688D01*
X448608Y206574D01*
X447428Y205488D01*
X446222Y204431D01*
X444991Y203404D01*
X443735Y202408D01*
X442455Y201442D01*
X441151Y200507D01*
X439826Y199605D01*
X438478Y198736D01*
X437110Y197899D01*
X435722Y197096D01*
X434315Y196328D01*
X432889Y195593D01*
X431446Y194894D01*
X429987Y194230D01*
X428511Y193602D01*
X427021Y193010D01*
X425517Y192455D01*
X423999Y191936D01*
X422470Y191455D01*
X420929Y191011D01*
X419377Y190605D01*
X417817Y190237D01*
X416247Y189907D01*
X414671Y189615D01*
X413087Y189362D01*
X411498Y189147D01*
X409904Y188972D01*
X408306Y188835D01*
X406706Y188737D01*
X405103Y188679D01*
X403500Y188659D01*
X401897Y188679D01*
X400294Y188737D01*
X398694Y188835D01*
X397096Y188972D01*
X395502Y189147D01*
X393913Y189362D01*
X392329Y189615D01*
X390753Y189907D01*
X389183Y190237D01*
X387623Y190605D01*
X386071Y191011D01*
X384530Y191455D01*
X383001Y191936D01*
X381483Y192455D01*
X379979Y193010D01*
X378489Y193602D01*
X377013Y194230D01*
X375554Y194894D01*
X374111Y195593D01*
X372685Y196328D01*
X371278Y197096D01*
X369890Y197899D01*
X368522Y198736D01*
X367174Y199605D01*
X365849Y200507D01*
X364545Y201442D01*
X363265Y202408D01*
X362009Y203404D01*
X360778Y204431D01*
X359572Y205488D01*
X358392Y206574D01*
X357239Y207688D01*
X356113Y208830D01*
X355016Y210000D01*
X353947Y211195D01*
X352908Y212417D01*
X351899Y213663D01*
X350921Y214933D01*
X349974Y216228D01*
X349058Y217544D01*
X348176Y218883D01*
X347326Y220243D01*
X346509Y221623D01*
X345727Y223023D01*
X344979Y224441D01*
X344265Y225877D01*
X343587Y227330D01*
X342945Y228799D01*
X342338Y230284D01*
X341768Y231782D01*
X341235Y233295D01*
X340738Y234820D01*
X340279Y236356D01*
X339858Y237903D01*
X339474Y239460D01*
X339129Y241026D01*
X339317Y241065D01*
X339661Y239504D01*
X340044Y237951D01*
X340464Y236408D01*
X340922Y234876D01*
X341417Y233356D01*
X341948Y231848D01*
X342517Y230354D01*
X343121Y228874D01*
X343762Y227409D01*
X344438Y225960D01*
X345150Y224528D01*
X345896Y223114D01*
X346676Y221718D01*
X347490Y220342D01*
X348337Y218986D01*
X349218Y217652D01*
X350130Y216339D01*
X351074Y215049D01*
X352050Y213782D01*
X353056Y212539D01*
X354092Y211321D01*
X355157Y210129D01*
X356251Y208963D01*
X357374Y207825D01*
X358524Y206713D01*
X359700Y205631D01*
X360903Y204577D01*
X362130Y203553D01*
X363383Y202559D01*
X364659Y201596D01*
X365959Y200665D01*
X367281Y199765D01*
X368624Y198898D01*
X369988Y198064D01*
X371372Y197264D01*
X372775Y196497D01*
X374197Y195765D01*
X375635Y195068D01*
X377091Y194406D01*
X378562Y193780D01*
X380048Y193190D01*
X381548Y192636D01*
X383061Y192119D01*
X384586Y191639D01*
X386122Y191196D01*
X387669Y190791D01*
X389225Y190424D01*
X390790Y190095D01*
X392362Y189804D01*
X393941Y189552D01*
X395525Y189338D01*
X397115Y189163D01*
X398708Y189026D01*
X400303Y188929D01*
X401901Y188870D01*
X403500Y188851D01*
X405099Y188870D01*
X406697Y188929D01*
X408292Y189026D01*
X409885Y189163D01*
X411475Y189338D01*
X413059Y189552D01*
X414638Y189804D01*
X416210Y190095D01*
X417775Y190424D01*
X419331Y190791D01*
X420878Y191196D01*
X422414Y191639D01*
X423939Y192119D01*
X425452Y192636D01*
X426952Y193190D01*
X428438Y193780D01*
X429909Y194406D01*
X431365Y195068D01*
X432803Y195765D01*
X434225Y196497D01*
X435628Y197264D01*
X437012Y198064D01*
X438376Y198898D01*
X439719Y199765D01*
X441041Y200665D01*
X442341Y201596D01*
X443617Y202559D01*
X444870Y203553D01*
X446097Y204577D01*
X447300Y205631D01*
X448476Y206713D01*
X449626Y207825D01*
X450749Y208963D01*
X451843Y210129D01*
X452908Y211321D01*
X453944Y212539D01*
X454950Y213782D01*
X455926Y215049D01*
X456870Y216339D01*
X457782Y217652D01*
X458663Y218986D01*
X459510Y220342D01*
X460324Y221718D01*
X461104Y223114D01*
X461850Y224528D01*
X462562Y225960D01*
X463238Y227409D01*
X463879Y228874D01*
X464483Y230354D01*
X465052Y231848D01*
X465583Y233356D01*
X466078Y234876D01*
X466536Y236408D01*
X466956Y237951D01*
X467339Y239504D01*
X467683Y241065D01*
X470375Y265284D02*
X468584Y264914D01*
X468584Y264915D02*
X468238Y266486D01*
X467853Y268048D01*
X467430Y269601D01*
X466970Y271142D01*
X466472Y272672D01*
X465937Y274189D01*
X465365Y275693D01*
X464756Y277183D01*
X464112Y278657D01*
X463431Y280115D01*
X462716Y281556D01*
X461965Y282979D01*
X461180Y284383D01*
X460361Y285768D01*
X459508Y287132D01*
X458623Y288475D01*
X457704Y289797D01*
X456754Y291095D01*
X455773Y292370D01*
X454760Y293620D01*
X453718Y294846D01*
X452646Y296045D01*
X451545Y297219D01*
X450415Y298365D01*
X449259Y299483D01*
X448075Y300572D01*
X446865Y301633D01*
X445629Y302663D01*
X444369Y303663D01*
X443084Y304632D01*
X441777Y305570D01*
X440447Y306475D01*
X439095Y307347D01*
X437722Y308187D01*
X436330Y308992D01*
X434918Y309764D01*
X433487Y310500D01*
X432039Y311202D01*
X430575Y311868D01*
X429095Y312498D01*
X427599Y313092D01*
X426090Y313649D01*
X424568Y314170D01*
X423033Y314653D01*
X421487Y315098D01*
X419930Y315506D01*
X418364Y315875D01*
X416790Y316206D01*
X415208Y316499D01*
X413619Y316753D01*
X412025Y316968D01*
X410426Y317144D01*
X408823Y317281D01*
X407217Y317380D01*
X405609Y317438D01*
X404000Y317458D01*
X402391Y317438D01*
X400783Y317380D01*
X399177Y317281D01*
X397574Y317144D01*
X395975Y316968D01*
X394381Y316753D01*
X392792Y316499D01*
X391210Y316206D01*
X389636Y315875D01*
X388070Y315506D01*
X386513Y315098D01*
X384967Y314653D01*
X383432Y314170D01*
X381910Y313649D01*
X380401Y313092D01*
X378905Y312498D01*
X377425Y311868D01*
X375961Y311202D01*
X374513Y310500D01*
X373082Y309764D01*
X371670Y308992D01*
X370278Y308187D01*
X368905Y307347D01*
X367553Y306475D01*
X366223Y305570D01*
X364916Y304632D01*
X363631Y303663D01*
X362371Y302663D01*
X361135Y301633D01*
X359925Y300572D01*
X358741Y299483D01*
X357585Y298365D01*
X356455Y297219D01*
X355354Y296045D01*
X354282Y294846D01*
X353240Y293620D01*
X352227Y292370D01*
X351246Y291095D01*
X350296Y289797D01*
X349377Y288475D01*
X348492Y287132D01*
X347639Y285768D01*
X346820Y284383D01*
X346035Y282979D01*
X345284Y281556D01*
X344569Y280115D01*
X343888Y278657D01*
X343244Y277183D01*
X342635Y275693D01*
X342063Y274189D01*
X341528Y272672D01*
X341030Y271142D01*
X340570Y269601D01*
X340147Y268048D01*
X339762Y266486D01*
X339416Y264915D01*
X337625Y265284D01*
X337624Y265284D01*
X337980Y266899D01*
X338376Y268505D01*
X338810Y270100D01*
X339283Y271684D01*
X339795Y273257D01*
X340345Y274816D01*
X340933Y276362D01*
X341558Y277893D01*
X342220Y279408D01*
X342920Y280906D01*
X343655Y282387D01*
X344427Y283850D01*
X345233Y285293D01*
X346075Y286716D01*
X346952Y288119D01*
X347862Y289499D01*
X348805Y290857D01*
X349782Y292191D01*
X350791Y293502D01*
X351831Y294787D01*
X352902Y296047D01*
X354004Y297280D01*
X355136Y298485D01*
X356296Y299663D01*
X357485Y300812D01*
X358702Y301932D01*
X359946Y303022D01*
X361216Y304081D01*
X362511Y305109D01*
X363831Y306105D01*
X365175Y307068D01*
X366542Y307999D01*
X367931Y308895D01*
X369342Y309758D01*
X370773Y310586D01*
X372224Y311379D01*
X373694Y312136D01*
X375182Y312857D01*
X376687Y313542D01*
X378209Y314189D01*
X379746Y314800D01*
X381297Y315372D01*
X382862Y315907D01*
X384439Y316404D01*
X386028Y316861D01*
X387627Y317280D01*
X389237Y317660D01*
X390855Y318000D01*
X392481Y318301D01*
X394114Y318562D01*
X395752Y318783D01*
X397396Y318965D01*
X399044Y319106D01*
X400694Y319206D01*
X402347Y319267D01*
X404000Y319287D01*
X405653Y319267D01*
X407306Y319206D01*
X408956Y319106D01*
X410604Y318965D01*
X412248Y318783D01*
X413886Y318562D01*
X415519Y318301D01*
X417145Y318000D01*
X418763Y317660D01*
X420373Y317280D01*
X421972Y316861D01*
X423561Y316404D01*
X425138Y315907D01*
X426703Y315372D01*
X428254Y314800D01*
X429791Y314189D01*
X431313Y313542D01*
X432818Y312857D01*
X434306Y312136D01*
X435776Y311379D01*
X437227Y310586D01*
X438658Y309758D01*
X440069Y308895D01*
X441458Y307999D01*
X442825Y307068D01*
X444169Y306105D01*
X445489Y305109D01*
X446784Y304081D01*
X448054Y303022D01*
X449298Y301932D01*
X450515Y300812D01*
X451704Y299663D01*
X452864Y298485D01*
X453996Y297280D01*
X455098Y296047D01*
X456169Y294787D01*
X457209Y293502D01*
X458218Y292191D01*
X459195Y290857D01*
X460138Y289499D01*
X461048Y288119D01*
X461925Y286716D01*
X462767Y285293D01*
X463573Y283850D01*
X464345Y282387D01*
X465080Y280906D01*
X465780Y279408D01*
X466442Y277893D01*
X467067Y276362D01*
X467655Y274816D01*
X468205Y273257D01*
X468717Y271684D01*
X469190Y270100D01*
X469624Y268505D01*
X470020Y266899D01*
X470376Y265284D01*
X470188Y265245D01*
X469832Y266856D01*
X469438Y268457D01*
X469005Y270048D01*
X468533Y271628D01*
X468023Y273195D01*
X467475Y274751D01*
X466889Y276292D01*
X466265Y277818D01*
X465604Y279329D01*
X464907Y280823D01*
X464174Y282300D01*
X463405Y283758D01*
X462600Y285198D01*
X461761Y286617D01*
X460887Y288015D01*
X459979Y289392D01*
X459038Y290746D01*
X458064Y292076D01*
X457059Y293383D01*
X456021Y294665D01*
X454953Y295920D01*
X453854Y297150D01*
X452726Y298352D01*
X451568Y299527D01*
X450383Y300673D01*
X449169Y301789D01*
X447929Y302876D01*
X446663Y303932D01*
X445372Y304957D01*
X444055Y305950D01*
X442715Y306911D01*
X441352Y307839D01*
X439967Y308733D01*
X438560Y309593D01*
X437133Y310419D01*
X435686Y311209D01*
X434220Y311964D01*
X432736Y312683D01*
X431235Y313366D01*
X429718Y314012D01*
X428186Y314620D01*
X426639Y315192D01*
X425078Y315725D01*
X423506Y316220D01*
X421921Y316676D01*
X420326Y317094D01*
X418721Y317473D01*
X417108Y317812D01*
X415486Y318112D01*
X413858Y318372D01*
X412224Y318593D01*
X410585Y318773D01*
X408942Y318914D01*
X407297Y319015D01*
X405649Y319075D01*
X404000Y319095D01*
X402351Y319075D01*
X400703Y319015D01*
X399058Y318914D01*
X397415Y318773D01*
X395776Y318593D01*
X394142Y318372D01*
X392514Y318112D01*
X390892Y317812D01*
X389279Y317473D01*
X387674Y317094D01*
X386079Y316676D01*
X384494Y316220D01*
X382922Y315725D01*
X381361Y315192D01*
X379814Y314620D01*
X378282Y314012D01*
X376765Y313366D01*
X375264Y312683D01*
X373780Y311964D01*
X372314Y311209D01*
X370867Y310419D01*
X369440Y309593D01*
X368033Y308733D01*
X366648Y307839D01*
X365285Y306911D01*
X363945Y305950D01*
X362628Y304957D01*
X361337Y303932D01*
X360071Y302876D01*
X358831Y301789D01*
X357617Y300673D01*
X356432Y299527D01*
X355274Y298352D01*
X354146Y297150D01*
X353047Y295920D01*
X351979Y294665D01*
X350941Y293383D01*
X349936Y292076D01*
X348962Y290746D01*
X348021Y289392D01*
X347113Y288015D01*
X346239Y286617D01*
X345400Y285198D01*
X344595Y283758D01*
X343826Y282300D01*
X343093Y280823D01*
X342396Y279329D01*
X341735Y277818D01*
X341111Y276292D01*
X340525Y274751D01*
X339977Y273195D01*
X339467Y271628D01*
X338995Y270048D01*
X338562Y268457D01*
X338168Y266856D01*
X337812Y265245D01*
X338000Y265207D01*
X338355Y266812D01*
X338748Y268409D01*
X339180Y269995D01*
X339650Y271571D01*
X340159Y273134D01*
X340706Y274685D01*
X341290Y276222D01*
X341912Y277744D01*
X342571Y279250D01*
X343266Y280740D01*
X343997Y282213D01*
X344764Y283667D01*
X345567Y285102D01*
X346404Y286517D01*
X347275Y287912D01*
X348180Y289284D01*
X349118Y290634D01*
X350089Y291961D01*
X351092Y293264D01*
X352127Y294542D01*
X353192Y295794D01*
X354288Y297020D01*
X355413Y298219D01*
X356567Y299390D01*
X357749Y300533D01*
X358959Y301647D01*
X360196Y302730D01*
X361458Y303783D01*
X362746Y304805D01*
X364059Y305796D01*
X365395Y306754D01*
X366754Y307679D01*
X368135Y308570D01*
X369538Y309428D01*
X370961Y310251D01*
X372404Y311040D01*
X373866Y311793D01*
X375346Y312510D01*
X376842Y313190D01*
X378355Y313834D01*
X379883Y314441D01*
X381426Y315011D01*
X382981Y315542D01*
X384550Y316036D01*
X386130Y316491D01*
X387720Y316908D01*
X389321Y317285D01*
X390929Y317624D01*
X392546Y317923D01*
X394170Y318182D01*
X395799Y318402D01*
X397434Y318582D01*
X399072Y318723D01*
X400713Y318823D01*
X402356Y318883D01*
X404000Y318903D01*
X405644Y318883D01*
X407287Y318823D01*
X408928Y318723D01*
X410566Y318582D01*
X412201Y318402D01*
X413830Y318182D01*
X415454Y317923D01*
X417071Y317624D01*
X418679Y317285D01*
X420280Y316908D01*
X421870Y316491D01*
X423450Y316036D01*
X425019Y315542D01*
X426574Y315011D01*
X428117Y314441D01*
X429645Y313834D01*
X431158Y313190D01*
X432654Y312510D01*
X434134Y311793D01*
X435596Y311040D01*
X437039Y310251D01*
X438462Y309428D01*
X439865Y308570D01*
X441246Y307679D01*
X442605Y306754D01*
X443941Y305796D01*
X445254Y304805D01*
X446542Y303783D01*
X447804Y302730D01*
X449041Y301647D01*
X450251Y300533D01*
X451433Y299390D01*
X452587Y298219D01*
X453712Y297020D01*
X454808Y295794D01*
X455873Y294542D01*
X456908Y293264D01*
X457911Y291961D01*
X458882Y290634D01*
X459820Y289284D01*
X460725Y287912D01*
X461596Y286517D01*
X462433Y285102D01*
X463236Y283667D01*
X464003Y282213D01*
X464734Y280740D01*
X465429Y279250D01*
X466088Y277744D01*
X466710Y276222D01*
X467294Y274685D01*
X467841Y273134D01*
X468350Y271571D01*
X468820Y269995D01*
X469252Y268409D01*
X469645Y266812D01*
X470000Y265207D01*
X469811Y265168D01*
X469458Y266769D01*
X469066Y268361D01*
X468636Y269943D01*
X468166Y271514D01*
X467659Y273073D01*
X467114Y274619D01*
X466531Y276151D01*
X465911Y277669D01*
X465254Y279171D01*
X464561Y280657D01*
X463832Y282125D01*
X463067Y283575D01*
X462267Y285007D01*
X461432Y286418D01*
X460563Y287808D01*
X459661Y289177D01*
X458725Y290523D01*
X457757Y291846D01*
X456757Y293145D01*
X455725Y294420D01*
X454663Y295668D01*
X453571Y296891D01*
X452449Y298086D01*
X451298Y299254D01*
X450119Y300393D01*
X448913Y301504D01*
X447680Y302584D01*
X446421Y303634D01*
X445136Y304653D01*
X443828Y305641D01*
X442495Y306596D01*
X441140Y307519D01*
X439762Y308408D01*
X438364Y309263D01*
X436944Y310084D01*
X435506Y310870D01*
X434048Y311621D01*
X432573Y312336D01*
X431080Y313015D01*
X429572Y313657D01*
X428048Y314262D01*
X426510Y314830D01*
X424959Y315360D01*
X423395Y315852D01*
X421819Y316306D01*
X420233Y316721D01*
X418638Y317098D01*
X417033Y317435D01*
X415421Y317734D01*
X413802Y317992D01*
X412177Y318212D01*
X410548Y318391D01*
X408914Y318531D01*
X407278Y318631D01*
X405639Y318691D01*
X404000Y318711D01*
X402361Y318691D01*
X400722Y318631D01*
X399086Y318531D01*
X397452Y318391D01*
X395823Y318212D01*
X394198Y317992D01*
X392579Y317734D01*
X390967Y317435D01*
X389362Y317098D01*
X387767Y316721D01*
X386181Y316306D01*
X384605Y315852D01*
X383041Y315360D01*
X381490Y314830D01*
X379952Y314262D01*
X378428Y313657D01*
X376920Y313015D01*
X375427Y312336D01*
X373952Y311621D01*
X372494Y310870D01*
X371056Y310084D01*
X369636Y309263D01*
X368238Y308408D01*
X366860Y307519D01*
X365505Y306596D01*
X364172Y305641D01*
X362864Y304653D01*
X361579Y303634D01*
X360320Y302584D01*
X359087Y301504D01*
X357881Y300393D01*
X356702Y299254D01*
X355551Y298086D01*
X354429Y296891D01*
X353337Y295668D01*
X352275Y294420D01*
X351243Y293145D01*
X350243Y291846D01*
X349275Y290523D01*
X348339Y289177D01*
X347437Y287808D01*
X346568Y286418D01*
X345733Y285007D01*
X344933Y283575D01*
X344168Y282125D01*
X343439Y280657D01*
X342746Y279171D01*
X342089Y277669D01*
X341469Y276151D01*
X340886Y274619D01*
X340341Y273073D01*
X339834Y271514D01*
X339364Y269943D01*
X338934Y268361D01*
X338542Y266769D01*
X338189Y265168D01*
X338377Y265129D01*
X338729Y266726D01*
X339120Y268313D01*
X339549Y269890D01*
X340017Y271457D01*
X340523Y273011D01*
X341066Y274553D01*
X341648Y276081D01*
X342266Y277595D01*
X342921Y279092D01*
X343612Y280574D01*
X344339Y282038D01*
X345102Y283484D01*
X345900Y284911D01*
X346732Y286318D01*
X347598Y287704D01*
X348498Y289069D01*
X349431Y290412D01*
X350397Y291731D01*
X351394Y293026D01*
X352422Y294297D01*
X353482Y295542D01*
X354571Y296761D01*
X355690Y297953D01*
X356837Y299118D01*
X358013Y300254D01*
X359216Y301361D01*
X360445Y302438D01*
X361701Y303486D01*
X362981Y304502D01*
X364286Y305486D01*
X365615Y306439D01*
X366966Y307359D01*
X368340Y308245D01*
X369735Y309098D01*
X371150Y309917D01*
X372585Y310701D01*
X374038Y311449D01*
X375509Y312162D01*
X376997Y312839D01*
X378501Y313479D01*
X380021Y314083D01*
X381554Y314649D01*
X383101Y315178D01*
X384661Y315668D01*
X386232Y316121D01*
X387813Y316535D01*
X389404Y316910D01*
X391004Y317247D01*
X392612Y317544D01*
X394226Y317802D01*
X395846Y318021D01*
X397471Y318200D01*
X399100Y318340D01*
X400732Y318439D01*
X402365Y318499D01*
X404000Y318519D01*
X405635Y318499D01*
X407268Y318439D01*
X408900Y318340D01*
X410529Y318200D01*
X412154Y318021D01*
X413774Y317802D01*
X415388Y317544D01*
X416996Y317247D01*
X418596Y316910D01*
X420187Y316535D01*
X421768Y316121D01*
X423339Y315668D01*
X424899Y315178D01*
X426446Y314649D01*
X427979Y314083D01*
X429499Y313479D01*
X431003Y312839D01*
X432491Y312162D01*
X433962Y311449D01*
X435415Y310701D01*
X436850Y309917D01*
X438265Y309098D01*
X439660Y308245D01*
X441034Y307359D01*
X442385Y306439D01*
X443714Y305486D01*
X445019Y304502D01*
X446299Y303486D01*
X447555Y302438D01*
X448784Y301361D01*
X449987Y300254D01*
X451163Y299118D01*
X452310Y297953D01*
X453429Y296761D01*
X454518Y295542D01*
X455578Y294297D01*
X456606Y293026D01*
X457603Y291731D01*
X458569Y290412D01*
X459502Y289069D01*
X460402Y287704D01*
X461268Y286318D01*
X462100Y284911D01*
X462898Y283484D01*
X463661Y282038D01*
X464388Y280574D01*
X465079Y279092D01*
X465734Y277595D01*
X466352Y276081D01*
X466934Y274553D01*
X467477Y273011D01*
X467983Y271457D01*
X468451Y269890D01*
X468880Y268313D01*
X469271Y266726D01*
X469623Y265129D01*
X469435Y265090D01*
X469084Y266682D01*
X468695Y268265D01*
X468266Y269838D01*
X467800Y271400D01*
X467295Y272950D01*
X466753Y274487D01*
X466174Y276011D01*
X465557Y277520D01*
X464904Y279014D01*
X464215Y280491D01*
X463490Y281951D01*
X462729Y283393D01*
X461934Y284815D01*
X461104Y286219D01*
X460240Y287601D01*
X459343Y288962D01*
X458412Y290300D01*
X457450Y291616D01*
X456455Y292908D01*
X455430Y294175D01*
X454373Y295416D01*
X453287Y296632D01*
X452172Y297820D01*
X451027Y298982D01*
X449855Y300114D01*
X448656Y301218D01*
X447430Y302293D01*
X446178Y303337D01*
X444901Y304350D01*
X443600Y305332D01*
X442275Y306282D01*
X440927Y307199D01*
X439558Y308083D01*
X438167Y308933D01*
X436756Y309749D01*
X435325Y310531D01*
X433876Y311277D01*
X432409Y311988D01*
X430925Y312663D01*
X429426Y313302D01*
X427911Y313903D01*
X426381Y314468D01*
X424839Y314995D01*
X423284Y315484D01*
X421717Y315936D01*
X420140Y316349D01*
X418554Y316723D01*
X416959Y317059D01*
X415356Y317355D01*
X413746Y317613D01*
X412131Y317831D01*
X410510Y318009D01*
X408886Y318148D01*
X407259Y318247D01*
X405630Y318307D01*
X404000Y318327D01*
X402370Y318307D01*
X400741Y318247D01*
X399114Y318148D01*
X397490Y318009D01*
X395869Y317831D01*
X394254Y317613D01*
X392644Y317355D01*
X391041Y317059D01*
X389446Y316723D01*
X387860Y316349D01*
X386283Y315936D01*
X384716Y315484D01*
X383161Y314995D01*
X381619Y314468D01*
X380089Y313903D01*
X378574Y313302D01*
X377075Y312663D01*
X375591Y311988D01*
X374124Y311277D01*
X372675Y310531D01*
X371244Y309749D01*
X369833Y308933D01*
X368442Y308083D01*
X367073Y307199D01*
X365725Y306282D01*
X364400Y305332D01*
X363099Y304350D01*
X361822Y303337D01*
X360570Y302293D01*
X359344Y301218D01*
X358145Y300114D01*
X356973Y298982D01*
X355828Y297820D01*
X354713Y296632D01*
X353627Y295416D01*
X352570Y294175D01*
X351545Y292908D01*
X350550Y291616D01*
X349588Y290300D01*
X348657Y288962D01*
X347760Y287601D01*
X346896Y286219D01*
X346066Y284815D01*
X345271Y283393D01*
X344510Y281951D01*
X343785Y280491D01*
X343096Y279014D01*
X342443Y277520D01*
X341826Y276011D01*
X341247Y274487D01*
X340705Y272950D01*
X340200Y271400D01*
X339734Y269838D01*
X339305Y268265D01*
X338916Y266682D01*
X338565Y265090D01*
X338753Y265052D01*
X339103Y266639D01*
X339491Y268217D01*
X339918Y269785D01*
X340384Y271343D01*
X340887Y272889D01*
X341427Y274421D01*
X342005Y275941D01*
X342620Y277445D01*
X343271Y278935D01*
X343958Y280408D01*
X344681Y281863D01*
X345440Y283301D01*
X346233Y284720D01*
X347060Y286119D01*
X347922Y287497D01*
X348816Y288854D01*
X349744Y290189D01*
X350704Y291501D01*
X351695Y292789D01*
X352718Y294052D01*
X353771Y295290D01*
X354854Y296502D01*
X355967Y297687D01*
X357108Y298845D01*
X358277Y299975D01*
X359473Y301076D01*
X360695Y302147D01*
X361943Y303188D01*
X363217Y304198D01*
X364514Y305177D01*
X365835Y306124D01*
X367179Y307039D01*
X368545Y307920D01*
X369931Y308768D01*
X371338Y309582D01*
X372765Y310361D01*
X374210Y311106D01*
X375672Y311815D01*
X377152Y312488D01*
X378648Y313124D01*
X380158Y313724D01*
X381683Y314287D01*
X383221Y314813D01*
X384772Y315301D01*
X386334Y315751D01*
X387906Y316162D01*
X389488Y316536D01*
X391079Y316870D01*
X392677Y317166D01*
X394282Y317423D01*
X395893Y317640D01*
X397508Y317818D01*
X399128Y317957D01*
X400750Y318056D01*
X402375Y318115D01*
X404000Y318135D01*
X405625Y318115D01*
X407250Y318056D01*
X408872Y317957D01*
X410492Y317818D01*
X412107Y317640D01*
X413718Y317423D01*
X415323Y317166D01*
X416921Y316870D01*
X418512Y316536D01*
X420094Y316162D01*
X421666Y315751D01*
X423228Y315301D01*
X424779Y314813D01*
X426317Y314287D01*
X427842Y313724D01*
X429352Y313124D01*
X430848Y312488D01*
X432328Y311815D01*
X433790Y311106D01*
X435235Y310361D01*
X436662Y309582D01*
X438069Y308768D01*
X439455Y307920D01*
X440821Y307039D01*
X442165Y306124D01*
X443486Y305177D01*
X444783Y304198D01*
X446057Y303188D01*
X447305Y302147D01*
X448527Y301076D01*
X449723Y299975D01*
X450892Y298845D01*
X452033Y297687D01*
X453146Y296502D01*
X454229Y295290D01*
X455282Y294052D01*
X456305Y292789D01*
X457296Y291501D01*
X458256Y290189D01*
X459184Y288854D01*
X460078Y287497D01*
X460940Y286119D01*
X461767Y284720D01*
X462560Y283301D01*
X463319Y281863D01*
X464042Y280408D01*
X464729Y278935D01*
X465380Y277445D01*
X465995Y275941D01*
X466573Y274421D01*
X467113Y272889D01*
X467616Y271343D01*
X468082Y269785D01*
X468509Y268217D01*
X468897Y266639D01*
X469247Y265052D01*
X469059Y265013D01*
X468710Y266595D01*
X468323Y268169D01*
X467897Y269733D01*
X467433Y271286D01*
X466931Y272827D01*
X466392Y274356D01*
X465816Y275871D01*
X465203Y277371D01*
X464554Y278856D01*
X463869Y280325D01*
X463148Y281776D01*
X462392Y283210D01*
X461601Y284624D01*
X460776Y286019D01*
X459917Y287394D01*
X459024Y288747D01*
X458100Y290078D01*
X457142Y291386D01*
X456154Y292670D01*
X455134Y293930D01*
X454084Y295164D01*
X453004Y296373D01*
X451895Y297555D01*
X450757Y298709D01*
X449592Y299835D01*
X448399Y300933D01*
X447180Y302001D01*
X445935Y303039D01*
X444666Y304046D01*
X443372Y305023D01*
X442055Y305967D01*
X440715Y306879D01*
X439353Y307758D01*
X437971Y308603D01*
X436568Y309415D01*
X435145Y310192D01*
X433704Y310934D01*
X432246Y311641D01*
X430771Y312312D01*
X429279Y312947D01*
X427773Y313545D01*
X426253Y314106D01*
X424719Y314630D01*
X423173Y315117D01*
X421616Y315566D01*
X420048Y315976D01*
X418470Y316348D01*
X416884Y316682D01*
X415290Y316977D01*
X413690Y317233D01*
X412084Y317449D01*
X410473Y317627D01*
X408858Y317765D01*
X407240Y317864D01*
X405621Y317923D01*
X404000Y317943D01*
X402379Y317923D01*
X400760Y317864D01*
X399142Y317765D01*
X397527Y317627D01*
X395916Y317449D01*
X394310Y317233D01*
X392710Y316977D01*
X391116Y316682D01*
X389530Y316348D01*
X387952Y315976D01*
X386384Y315566D01*
X384827Y315117D01*
X383281Y314630D01*
X381747Y314106D01*
X380227Y313545D01*
X378721Y312947D01*
X377229Y312312D01*
X375754Y311641D01*
X374296Y310934D01*
X372855Y310192D01*
X371432Y309415D01*
X370029Y308603D01*
X368647Y307758D01*
X367285Y306879D01*
X365945Y305967D01*
X364628Y305023D01*
X363334Y304046D01*
X362065Y303039D01*
X360820Y302001D01*
X359601Y300933D01*
X358408Y299835D01*
X357243Y298709D01*
X356105Y297555D01*
X354996Y296373D01*
X353916Y295164D01*
X352866Y293930D01*
X351846Y292670D01*
X350858Y291386D01*
X349900Y290078D01*
X348976Y288747D01*
X348083Y287394D01*
X347224Y286019D01*
X346399Y284624D01*
X345608Y283210D01*
X344852Y281776D01*
X344131Y280325D01*
X343446Y278856D01*
X342797Y277371D01*
X342184Y275871D01*
X341608Y274356D01*
X341069Y272827D01*
X340567Y271286D01*
X340103Y269733D01*
X339677Y268169D01*
X339290Y266595D01*
X338941Y265013D01*
X339129Y264974D01*
X339477Y266552D01*
X339863Y268121D01*
X340288Y269681D01*
X340750Y271229D01*
X341250Y272766D01*
X341788Y274290D01*
X342362Y275800D01*
X342974Y277296D01*
X343621Y278777D01*
X344304Y280242D01*
X345023Y281689D01*
X345777Y283118D01*
X346566Y284529D01*
X347389Y285920D01*
X348245Y287290D01*
X349135Y288639D01*
X350057Y289966D01*
X351011Y291271D01*
X351997Y292551D01*
X353014Y293807D01*
X354061Y295038D01*
X355138Y296243D01*
X356244Y297422D01*
X357378Y298573D01*
X358540Y299696D01*
X359729Y300790D01*
X360945Y301855D01*
X362186Y302890D01*
X363452Y303895D01*
X364742Y304868D01*
X366055Y305810D01*
X367391Y306719D01*
X368749Y307595D01*
X370128Y308438D01*
X371527Y309248D01*
X372945Y310022D01*
X374382Y310762D01*
X375836Y311467D01*
X377307Y312136D01*
X378794Y312769D01*
X380296Y313366D01*
X381812Y313925D01*
X383341Y314448D01*
X384883Y314933D01*
X386435Y315380D01*
X387999Y315790D01*
X389572Y316161D01*
X391153Y316494D01*
X392742Y316788D01*
X394338Y317043D01*
X395940Y317259D01*
X397546Y317436D01*
X399156Y317574D01*
X400769Y317672D01*
X402384Y317731D01*
X404000Y317751D01*
X405616Y317731D01*
X407231Y317672D01*
X408844Y317574D01*
X410454Y317436D01*
X412060Y317259D01*
X413662Y317043D01*
X415258Y316788D01*
X416847Y316494D01*
X418428Y316161D01*
X420001Y315790D01*
X421565Y315380D01*
X423117Y314933D01*
X424659Y314448D01*
X426188Y313925D01*
X427704Y313366D01*
X429206Y312769D01*
X430693Y312136D01*
X432164Y311467D01*
X433618Y310762D01*
X435055Y310022D01*
X436473Y309248D01*
X437872Y308438D01*
X439251Y307595D01*
X440609Y306719D01*
X441945Y305810D01*
X443258Y304868D01*
X444548Y303895D01*
X445814Y302890D01*
X447055Y301855D01*
X448271Y300790D01*
X449460Y299696D01*
X450622Y298573D01*
X451756Y297422D01*
X452862Y296243D01*
X453939Y295038D01*
X454986Y293807D01*
X456003Y292551D01*
X456989Y291271D01*
X457943Y289966D01*
X458865Y288639D01*
X459755Y287290D01*
X460611Y285920D01*
X461434Y284529D01*
X462223Y283118D01*
X462977Y281689D01*
X463696Y280242D01*
X464379Y278777D01*
X465026Y277296D01*
X465638Y275800D01*
X466212Y274290D01*
X466750Y272766D01*
X467250Y271229D01*
X467712Y269681D01*
X468137Y268121D01*
X468523Y266552D01*
X468871Y264974D01*
X468683Y264935D01*
X468336Y266509D01*
X467951Y268073D01*
X467527Y269628D01*
X467066Y271172D01*
X466568Y272704D01*
X466032Y274224D01*
X465459Y275730D01*
X464850Y277222D01*
X464204Y278698D01*
X463523Y280158D01*
X462806Y281602D01*
X462054Y283027D01*
X461268Y284433D01*
X460447Y285820D01*
X459593Y287187D01*
X458706Y288532D01*
X457787Y289855D01*
X456835Y291156D01*
X455852Y292432D01*
X454838Y293685D01*
X453794Y294912D01*
X452720Y296114D01*
X451618Y297289D01*
X450487Y298436D01*
X449328Y299556D01*
X448142Y300647D01*
X446930Y301709D01*
X445693Y302741D01*
X444431Y303743D01*
X443144Y304713D01*
X441835Y305652D01*
X440503Y306559D01*
X439149Y307433D01*
X437774Y308273D01*
X436379Y309080D01*
X434965Y309853D01*
X433533Y310591D01*
X432082Y311293D01*
X430616Y311960D01*
X429133Y312592D01*
X427635Y313186D01*
X426124Y313744D01*
X424599Y314266D01*
X423062Y314749D01*
X421514Y315195D01*
X419955Y315604D01*
X418386Y315974D01*
X416810Y316305D01*
X415225Y316598D01*
X413634Y316853D01*
X412037Y317068D01*
X410435Y317245D01*
X408830Y317382D01*
X407222Y317480D01*
X405611Y317539D01*
X404000Y317559D01*
X402389Y317539D01*
X400778Y317480D01*
X399170Y317382D01*
X397565Y317245D01*
X395963Y317068D01*
X394366Y316853D01*
X392775Y316598D01*
X391190Y316305D01*
X389614Y315974D01*
X388045Y315604D01*
X386486Y315195D01*
X384938Y314749D01*
X383401Y314266D01*
X381876Y313744D01*
X380365Y313186D01*
X378867Y312592D01*
X377384Y311960D01*
X375918Y311293D01*
X374467Y310591D01*
X373035Y309853D01*
X371621Y309080D01*
X370226Y308273D01*
X368851Y307433D01*
X367497Y306559D01*
X366165Y305652D01*
X364856Y304713D01*
X363569Y303743D01*
X362307Y302741D01*
X361070Y301709D01*
X359858Y300647D01*
X358672Y299556D01*
X357513Y298436D01*
X356382Y297289D01*
X355280Y296114D01*
X354206Y294912D01*
X353162Y293685D01*
X352148Y292432D01*
X351165Y291156D01*
X350213Y289855D01*
X349294Y288532D01*
X348407Y287187D01*
X347553Y285820D01*
X346732Y284433D01*
X345946Y283027D01*
X345194Y281602D01*
X344477Y280158D01*
X343796Y278698D01*
X343150Y277222D01*
X342541Y275730D01*
X341968Y274224D01*
X341432Y272704D01*
X340934Y271172D01*
X340473Y269628D01*
X340049Y268073D01*
X339664Y266509D01*
X339317Y264935D01*
D71*
X399334Y283640D02*
X399969Y283005D01*
X399334Y283640D02*
X398063Y283640D01*
X397427Y283005D01*
X397427Y280463D01*
X398063Y279827D01*
X399334Y279827D01*
X399969Y280463D01*
X401169Y282369D02*
X402440Y283640D01*
X402440Y279827D01*
X401169Y279827D02*
X403711Y279827D01*
X404911Y280463D02*
X404911Y283005D01*
X405547Y283640D01*
X406818Y283640D01*
X407453Y283005D01*
X407453Y280463D01*
X406818Y279827D01*
X405547Y279827D01*
X404911Y280463D01*
X407453Y283005D01*
M02*
