G04 EAGLE Gerber RS-274X export*
G75*
%MOMM*%
%FSLAX34Y34*%
%LPD*%
%INTop Copper*%
%IPPOS*%
%AMOC8*
5,1,8,0,0,1.08239X$1,22.5*%
G01*
%ADD10C,0.130000*%
%ADD11C,0.152400*%
%ADD12R,8.000000X3.300000*%
%ADD13R,1.016000X1.143000*%
%ADD14R,0.300000X1.500000*%
%ADD15R,0.690000X1.200000*%
%ADD16C,1.308000*%
%ADD17C,1.408000*%
%ADD18R,1.500000X1.300000*%
%ADD19R,1.300000X1.500000*%


D10*
X355000Y836000D02*
X449500Y836000D01*
X449500Y900000D02*
X292000Y900000D01*
X430000Y835350D02*
X430000Y784000D01*
X430000Y900650D02*
X430000Y975628D01*
X430000Y835350D02*
X426808Y810000D01*
X433192Y810000D01*
X430000Y835350D01*
X428700Y810000D01*
X431300Y810000D02*
X430000Y835350D01*
X427400Y810000D01*
X432600Y810000D02*
X430000Y835350D01*
X430000Y900650D02*
X426808Y926000D01*
X433192Y926000D01*
X430000Y900650D01*
X428700Y926000D01*
X431300Y926000D02*
X430000Y900650D01*
X427400Y926000D01*
X432600Y926000D02*
X430000Y900650D01*
D11*
X414462Y926762D02*
X414462Y932181D01*
X414464Y932299D01*
X414470Y932417D01*
X414479Y932535D01*
X414493Y932652D01*
X414510Y932769D01*
X414531Y932886D01*
X414556Y933001D01*
X414585Y933116D01*
X414618Y933230D01*
X414654Y933342D01*
X414694Y933453D01*
X414737Y933563D01*
X414784Y933672D01*
X414834Y933779D01*
X414889Y933884D01*
X414946Y933987D01*
X415007Y934088D01*
X415071Y934188D01*
X415138Y934285D01*
X415208Y934380D01*
X415282Y934472D01*
X415358Y934563D01*
X415438Y934650D01*
X415520Y934735D01*
X415605Y934817D01*
X415692Y934897D01*
X415783Y934973D01*
X415875Y935047D01*
X415970Y935117D01*
X416067Y935184D01*
X416167Y935248D01*
X416268Y935309D01*
X416371Y935366D01*
X416476Y935421D01*
X416583Y935471D01*
X416692Y935518D01*
X416802Y935561D01*
X416913Y935601D01*
X417025Y935637D01*
X417139Y935670D01*
X417254Y935699D01*
X417369Y935724D01*
X417486Y935745D01*
X417603Y935762D01*
X417720Y935776D01*
X417838Y935785D01*
X417956Y935791D01*
X418074Y935793D01*
X418977Y935793D01*
X418977Y935794D02*
X419110Y935792D01*
X419242Y935786D01*
X419374Y935776D01*
X419506Y935763D01*
X419638Y935745D01*
X419768Y935724D01*
X419899Y935699D01*
X420028Y935670D01*
X420156Y935637D01*
X420284Y935601D01*
X420410Y935561D01*
X420535Y935517D01*
X420659Y935469D01*
X420781Y935418D01*
X420902Y935363D01*
X421021Y935305D01*
X421139Y935243D01*
X421254Y935178D01*
X421368Y935109D01*
X421479Y935038D01*
X421588Y934962D01*
X421695Y934884D01*
X421800Y934803D01*
X421902Y934718D01*
X422002Y934631D01*
X422099Y934541D01*
X422194Y934448D01*
X422285Y934352D01*
X422374Y934254D01*
X422460Y934153D01*
X422543Y934049D01*
X422623Y933943D01*
X422699Y933835D01*
X422773Y933725D01*
X422843Y933612D01*
X422910Y933498D01*
X422973Y933381D01*
X423033Y933263D01*
X423090Y933143D01*
X423143Y933021D01*
X423192Y932898D01*
X423238Y932774D01*
X423280Y932648D01*
X423318Y932521D01*
X423353Y932393D01*
X423384Y932264D01*
X423411Y932135D01*
X423434Y932004D01*
X423454Y931873D01*
X423469Y931741D01*
X423481Y931609D01*
X423489Y931477D01*
X423493Y931344D01*
X423493Y931212D01*
X423489Y931079D01*
X423481Y930947D01*
X423469Y930815D01*
X423454Y930683D01*
X423434Y930552D01*
X423411Y930421D01*
X423384Y930292D01*
X423353Y930163D01*
X423318Y930035D01*
X423280Y929908D01*
X423238Y929782D01*
X423192Y929658D01*
X423143Y929535D01*
X423090Y929413D01*
X423033Y929293D01*
X422973Y929175D01*
X422910Y929058D01*
X422843Y928944D01*
X422773Y928831D01*
X422699Y928721D01*
X422623Y928613D01*
X422543Y928507D01*
X422460Y928403D01*
X422374Y928302D01*
X422285Y928204D01*
X422194Y928108D01*
X422099Y928015D01*
X422002Y927925D01*
X421902Y927838D01*
X421800Y927753D01*
X421695Y927672D01*
X421588Y927594D01*
X421479Y927518D01*
X421368Y927447D01*
X421254Y927378D01*
X421139Y927313D01*
X421021Y927251D01*
X420902Y927193D01*
X420781Y927138D01*
X420659Y927087D01*
X420535Y927039D01*
X420410Y926995D01*
X420284Y926955D01*
X420156Y926919D01*
X420028Y926886D01*
X419899Y926857D01*
X419768Y926832D01*
X419638Y926811D01*
X419506Y926793D01*
X419374Y926780D01*
X419242Y926770D01*
X419110Y926764D01*
X418977Y926762D01*
X414462Y926762D01*
X414285Y926764D01*
X414107Y926771D01*
X413930Y926782D01*
X413754Y926797D01*
X413578Y926816D01*
X413402Y926840D01*
X413227Y926868D01*
X413052Y926901D01*
X412879Y926938D01*
X412706Y926979D01*
X412535Y927024D01*
X412365Y927073D01*
X412196Y927127D01*
X412028Y927184D01*
X411862Y927246D01*
X411697Y927312D01*
X411534Y927382D01*
X411373Y927456D01*
X411214Y927533D01*
X411056Y927615D01*
X410901Y927701D01*
X410748Y927790D01*
X410597Y927883D01*
X410448Y927980D01*
X410302Y928080D01*
X410158Y928184D01*
X410017Y928291D01*
X409879Y928402D01*
X409743Y928516D01*
X409610Y928634D01*
X409480Y928754D01*
X409353Y928878D01*
X409229Y929005D01*
X409109Y929135D01*
X408991Y929268D01*
X408877Y929403D01*
X408766Y929542D01*
X408659Y929683D01*
X408555Y929827D01*
X408455Y929973D01*
X408358Y930122D01*
X408265Y930273D01*
X408176Y930426D01*
X408090Y930581D01*
X408008Y930739D01*
X407931Y930898D01*
X407857Y931059D01*
X407787Y931222D01*
X407721Y931387D01*
X407659Y931553D01*
X407602Y931721D01*
X407548Y931890D01*
X407499Y932060D01*
X407454Y932231D01*
X407413Y932404D01*
X407376Y932577D01*
X407343Y932752D01*
X407315Y932927D01*
X407291Y933103D01*
X407272Y933279D01*
X407257Y933455D01*
X407246Y933632D01*
X407239Y933810D01*
X407237Y933987D01*
X422590Y941768D02*
X423493Y941768D01*
X422590Y941768D02*
X422590Y942671D01*
X423493Y942671D01*
X423493Y941768D01*
X419881Y948646D02*
X407237Y952258D01*
X419881Y948646D02*
X419881Y957677D01*
X423493Y954967D02*
X416268Y954967D01*
X415365Y964277D02*
X415045Y964281D01*
X414726Y964292D01*
X414406Y964311D01*
X414088Y964338D01*
X413770Y964372D01*
X413453Y964414D01*
X413137Y964464D01*
X412822Y964521D01*
X412509Y964585D01*
X412197Y964657D01*
X411887Y964736D01*
X411580Y964823D01*
X411274Y964917D01*
X410971Y965018D01*
X410670Y965127D01*
X410372Y965242D01*
X410076Y965365D01*
X409784Y965495D01*
X409495Y965632D01*
X409494Y965632D02*
X409386Y965671D01*
X409279Y965714D01*
X409174Y965760D01*
X409071Y965810D01*
X408969Y965864D01*
X408869Y965921D01*
X408771Y965982D01*
X408675Y966046D01*
X408582Y966113D01*
X408491Y966183D01*
X408402Y966257D01*
X408316Y966333D01*
X408233Y966413D01*
X408152Y966495D01*
X408074Y966580D01*
X408000Y966667D01*
X407928Y966758D01*
X407859Y966850D01*
X407794Y966945D01*
X407732Y967042D01*
X407673Y967141D01*
X407618Y967242D01*
X407567Y967345D01*
X407519Y967450D01*
X407474Y967556D01*
X407433Y967663D01*
X407396Y967772D01*
X407363Y967883D01*
X407334Y967994D01*
X407308Y968106D01*
X407286Y968219D01*
X407269Y968333D01*
X407255Y968447D01*
X407245Y968562D01*
X407239Y968677D01*
X407237Y968792D01*
X407239Y968907D01*
X407245Y969022D01*
X407255Y969137D01*
X407269Y969251D01*
X407286Y969365D01*
X407308Y969478D01*
X407334Y969590D01*
X407363Y969702D01*
X407396Y969812D01*
X407433Y969921D01*
X407474Y970029D01*
X407519Y970135D01*
X407567Y970240D01*
X407618Y970342D01*
X407674Y970444D01*
X407732Y970543D01*
X407794Y970640D01*
X407860Y970735D01*
X407928Y970827D01*
X408000Y970917D01*
X408074Y971005D01*
X408152Y971090D01*
X408233Y971172D01*
X408316Y971251D01*
X408402Y971328D01*
X408491Y971401D01*
X408582Y971472D01*
X408676Y971539D01*
X408771Y971603D01*
X408869Y971664D01*
X408969Y971721D01*
X409071Y971774D01*
X409175Y971825D01*
X409280Y971871D01*
X409387Y971914D01*
X409495Y971953D01*
X409784Y972090D01*
X410076Y972220D01*
X410372Y972343D01*
X410670Y972458D01*
X410971Y972567D01*
X411274Y972668D01*
X411580Y972762D01*
X411887Y972849D01*
X412197Y972928D01*
X412509Y973000D01*
X412822Y973064D01*
X413137Y973121D01*
X413453Y973171D01*
X413770Y973213D01*
X414088Y973247D01*
X414406Y973274D01*
X414726Y973293D01*
X415045Y973304D01*
X415365Y973308D01*
X415365Y964277D02*
X415685Y964281D01*
X416004Y964292D01*
X416324Y964311D01*
X416642Y964338D01*
X416960Y964372D01*
X417277Y964414D01*
X417593Y964464D01*
X417908Y964521D01*
X418221Y964585D01*
X418533Y964657D01*
X418843Y964736D01*
X419150Y964823D01*
X419456Y964917D01*
X419759Y965018D01*
X420060Y965127D01*
X420358Y965242D01*
X420654Y965365D01*
X420946Y965495D01*
X421235Y965632D01*
X421236Y965631D02*
X421344Y965670D01*
X421451Y965713D01*
X421556Y965759D01*
X421660Y965810D01*
X421762Y965863D01*
X421862Y965920D01*
X421960Y965981D01*
X422055Y966045D01*
X422149Y966112D01*
X422240Y966183D01*
X422329Y966256D01*
X422415Y966333D01*
X422498Y966412D01*
X422579Y966494D01*
X422657Y966579D01*
X422731Y966667D01*
X422803Y966757D01*
X422872Y966850D01*
X422937Y966944D01*
X422999Y967041D01*
X423057Y967141D01*
X423113Y967242D01*
X423164Y967344D01*
X423212Y967449D01*
X423257Y967555D01*
X423298Y967663D01*
X423335Y967772D01*
X423368Y967882D01*
X423397Y967994D01*
X423423Y968106D01*
X423445Y968219D01*
X423462Y968333D01*
X423476Y968447D01*
X423486Y968562D01*
X423492Y968677D01*
X423494Y968792D01*
X421235Y971953D02*
X420946Y972090D01*
X420654Y972220D01*
X420358Y972343D01*
X420060Y972458D01*
X419759Y972567D01*
X419456Y972668D01*
X419150Y972762D01*
X418843Y972849D01*
X418533Y972928D01*
X418221Y973000D01*
X417908Y973064D01*
X417593Y973121D01*
X417277Y973171D01*
X416960Y973213D01*
X416642Y973247D01*
X416324Y973274D01*
X416004Y973293D01*
X415685Y973304D01*
X415365Y973308D01*
X421235Y971953D02*
X421343Y971914D01*
X421450Y971871D01*
X421555Y971825D01*
X421659Y971774D01*
X421761Y971721D01*
X421861Y971664D01*
X421959Y971603D01*
X422054Y971539D01*
X422148Y971472D01*
X422239Y971401D01*
X422328Y971328D01*
X422414Y971251D01*
X422497Y971172D01*
X422578Y971090D01*
X422656Y971005D01*
X422730Y970917D01*
X422802Y970827D01*
X422871Y970734D01*
X422936Y970640D01*
X422998Y970543D01*
X423056Y970443D01*
X423112Y970342D01*
X423163Y970239D01*
X423211Y970135D01*
X423256Y970029D01*
X423297Y969921D01*
X423334Y969812D01*
X423367Y969702D01*
X423396Y969590D01*
X423422Y969478D01*
X423444Y969365D01*
X423461Y969251D01*
X423475Y969137D01*
X423485Y969022D01*
X423491Y968907D01*
X423493Y968792D01*
X419881Y965180D02*
X410849Y972405D01*
D10*
X449500Y555000D02*
X355000Y555000D01*
X449500Y532000D02*
X246000Y532000D01*
X430000Y531350D02*
X430000Y480000D01*
X430000Y555650D02*
X430000Y630628D01*
X426808Y581000D02*
X430000Y555650D01*
X426808Y581000D02*
X433192Y581000D01*
X430000Y555650D01*
X428700Y581000D01*
X431300Y581000D02*
X430000Y555650D01*
X427400Y581000D01*
X432600Y581000D02*
X430000Y555650D01*
X430000Y531350D02*
X426808Y506000D01*
X433192Y506000D01*
X430000Y531350D01*
X428700Y506000D01*
X431300Y506000D02*
X430000Y531350D01*
X427400Y506000D01*
X432600Y506000D02*
X430000Y531350D01*
D11*
X407237Y586729D02*
X407239Y586854D01*
X407245Y586979D01*
X407254Y587104D01*
X407268Y587228D01*
X407285Y587352D01*
X407306Y587476D01*
X407331Y587598D01*
X407360Y587720D01*
X407392Y587841D01*
X407428Y587961D01*
X407468Y588080D01*
X407511Y588197D01*
X407558Y588313D01*
X407609Y588428D01*
X407663Y588540D01*
X407721Y588652D01*
X407781Y588761D01*
X407846Y588868D01*
X407913Y588974D01*
X407984Y589077D01*
X408058Y589178D01*
X408135Y589277D01*
X408215Y589373D01*
X408298Y589467D01*
X408383Y589558D01*
X408472Y589647D01*
X408563Y589732D01*
X408657Y589815D01*
X408753Y589895D01*
X408852Y589972D01*
X408953Y590046D01*
X409056Y590117D01*
X409162Y590184D01*
X409269Y590249D01*
X409378Y590309D01*
X409490Y590367D01*
X409602Y590421D01*
X409717Y590472D01*
X409833Y590519D01*
X409950Y590562D01*
X410069Y590602D01*
X410189Y590638D01*
X410310Y590670D01*
X410432Y590699D01*
X410554Y590724D01*
X410678Y590745D01*
X410802Y590762D01*
X410926Y590776D01*
X411051Y590785D01*
X411176Y590791D01*
X411301Y590793D01*
X407237Y586729D02*
X407239Y586586D01*
X407245Y586444D01*
X407255Y586301D01*
X407268Y586159D01*
X407286Y586018D01*
X407307Y585876D01*
X407332Y585736D01*
X407361Y585596D01*
X407394Y585457D01*
X407431Y585319D01*
X407471Y585182D01*
X407515Y585047D01*
X407563Y584912D01*
X407615Y584779D01*
X407670Y584647D01*
X407729Y584517D01*
X407791Y584389D01*
X407857Y584262D01*
X407926Y584137D01*
X407998Y584014D01*
X408074Y583893D01*
X408153Y583775D01*
X408236Y583658D01*
X408321Y583544D01*
X408410Y583432D01*
X408501Y583323D01*
X408596Y583216D01*
X408693Y583111D01*
X408794Y583010D01*
X408897Y582911D01*
X409002Y582815D01*
X409111Y582722D01*
X409222Y582632D01*
X409335Y582545D01*
X409450Y582461D01*
X409568Y582381D01*
X409688Y582303D01*
X409810Y582229D01*
X409934Y582159D01*
X410060Y582091D01*
X410188Y582028D01*
X410317Y581967D01*
X410448Y581910D01*
X410580Y581857D01*
X410714Y581808D01*
X410849Y581762D01*
X414462Y589438D02*
X414370Y589532D01*
X414276Y589622D01*
X414179Y589710D01*
X414079Y589795D01*
X413977Y589877D01*
X413872Y589955D01*
X413765Y590031D01*
X413656Y590103D01*
X413545Y590172D01*
X413431Y590238D01*
X413316Y590300D01*
X413199Y590359D01*
X413080Y590414D01*
X412960Y590465D01*
X412838Y590513D01*
X412715Y590558D01*
X412591Y590598D01*
X412465Y590635D01*
X412338Y590668D01*
X412211Y590697D01*
X412082Y590723D01*
X411953Y590744D01*
X411823Y590762D01*
X411693Y590775D01*
X411563Y590785D01*
X411432Y590791D01*
X411301Y590793D01*
X414462Y589438D02*
X423493Y581762D01*
X423493Y590793D01*
X423493Y596768D02*
X422590Y596768D01*
X422590Y597671D01*
X423493Y597671D01*
X423493Y596768D01*
X423493Y603646D02*
X423493Y608161D01*
X423491Y608294D01*
X423485Y608426D01*
X423475Y608558D01*
X423462Y608690D01*
X423444Y608822D01*
X423423Y608952D01*
X423398Y609083D01*
X423369Y609212D01*
X423336Y609340D01*
X423300Y609468D01*
X423260Y609594D01*
X423216Y609719D01*
X423168Y609843D01*
X423117Y609965D01*
X423062Y610086D01*
X423004Y610205D01*
X422942Y610323D01*
X422877Y610438D01*
X422808Y610552D01*
X422737Y610663D01*
X422661Y610772D01*
X422583Y610879D01*
X422502Y610984D01*
X422417Y611086D01*
X422330Y611186D01*
X422240Y611283D01*
X422147Y611378D01*
X422051Y611469D01*
X421953Y611558D01*
X421852Y611644D01*
X421748Y611727D01*
X421642Y611807D01*
X421534Y611883D01*
X421424Y611957D01*
X421311Y612027D01*
X421197Y612094D01*
X421080Y612157D01*
X420962Y612217D01*
X420842Y612274D01*
X420720Y612327D01*
X420597Y612376D01*
X420473Y612422D01*
X420347Y612464D01*
X420220Y612502D01*
X420092Y612537D01*
X419963Y612568D01*
X419834Y612595D01*
X419703Y612618D01*
X419572Y612638D01*
X419440Y612653D01*
X419308Y612665D01*
X419176Y612673D01*
X419043Y612677D01*
X418911Y612677D01*
X418778Y612673D01*
X418646Y612665D01*
X418514Y612653D01*
X418382Y612638D01*
X418251Y612618D01*
X418120Y612595D01*
X417991Y612568D01*
X417862Y612537D01*
X417734Y612502D01*
X417607Y612464D01*
X417481Y612422D01*
X417357Y612376D01*
X417234Y612327D01*
X417112Y612274D01*
X416992Y612217D01*
X416874Y612157D01*
X416757Y612094D01*
X416643Y612027D01*
X416530Y611957D01*
X416420Y611883D01*
X416312Y611807D01*
X416206Y611727D01*
X416102Y611644D01*
X416001Y611558D01*
X415903Y611469D01*
X415807Y611378D01*
X415714Y611283D01*
X415624Y611186D01*
X415537Y611086D01*
X415452Y610984D01*
X415371Y610879D01*
X415293Y610772D01*
X415217Y610663D01*
X415146Y610552D01*
X415077Y610438D01*
X415012Y610323D01*
X414950Y610205D01*
X414892Y610086D01*
X414837Y609965D01*
X414786Y609843D01*
X414738Y609719D01*
X414694Y609594D01*
X414654Y609468D01*
X414618Y609340D01*
X414585Y609212D01*
X414556Y609083D01*
X414531Y608952D01*
X414510Y608822D01*
X414492Y608690D01*
X414479Y608558D01*
X414469Y608426D01*
X414463Y608294D01*
X414461Y608161D01*
X407237Y609064D02*
X407237Y603646D01*
X407237Y609064D02*
X407239Y609183D01*
X407245Y609303D01*
X407255Y609422D01*
X407269Y609540D01*
X407286Y609659D01*
X407308Y609776D01*
X407333Y609893D01*
X407363Y610008D01*
X407396Y610123D01*
X407433Y610237D01*
X407473Y610349D01*
X407518Y610460D01*
X407566Y610569D01*
X407617Y610677D01*
X407672Y610783D01*
X407731Y610887D01*
X407793Y610989D01*
X407858Y611089D01*
X407927Y611187D01*
X407999Y611283D01*
X408074Y611376D01*
X408151Y611466D01*
X408232Y611554D01*
X408316Y611639D01*
X408403Y611721D01*
X408492Y611801D01*
X408584Y611877D01*
X408678Y611951D01*
X408775Y612021D01*
X408873Y612088D01*
X408974Y612152D01*
X409078Y612212D01*
X409183Y612269D01*
X409290Y612322D01*
X409398Y612372D01*
X409508Y612418D01*
X409620Y612460D01*
X409733Y612499D01*
X409847Y612534D01*
X409962Y612565D01*
X410079Y612593D01*
X410196Y612616D01*
X410313Y612636D01*
X410432Y612652D01*
X410551Y612664D01*
X410670Y612672D01*
X410789Y612676D01*
X410909Y612676D01*
X411028Y612672D01*
X411147Y612664D01*
X411266Y612652D01*
X411385Y612636D01*
X411502Y612616D01*
X411619Y612593D01*
X411736Y612565D01*
X411851Y612534D01*
X411965Y612499D01*
X412078Y612460D01*
X412190Y612418D01*
X412300Y612372D01*
X412408Y612322D01*
X412515Y612269D01*
X412620Y612212D01*
X412724Y612152D01*
X412825Y612088D01*
X412923Y612021D01*
X413020Y611951D01*
X413114Y611877D01*
X413206Y611801D01*
X413295Y611721D01*
X413382Y611639D01*
X413466Y611554D01*
X413547Y611466D01*
X413624Y611376D01*
X413699Y611283D01*
X413771Y611187D01*
X413840Y611089D01*
X413905Y610989D01*
X413967Y610887D01*
X414026Y610783D01*
X414081Y610677D01*
X414132Y610569D01*
X414180Y610460D01*
X414225Y610349D01*
X414265Y610237D01*
X414302Y610123D01*
X414335Y610008D01*
X414365Y609893D01*
X414390Y609776D01*
X414412Y609659D01*
X414429Y609540D01*
X414443Y609422D01*
X414453Y609303D01*
X414459Y609183D01*
X414461Y609064D01*
X414462Y609064D02*
X414462Y605452D01*
X415365Y619277D02*
X415045Y619281D01*
X414726Y619292D01*
X414406Y619311D01*
X414088Y619338D01*
X413770Y619372D01*
X413453Y619414D01*
X413137Y619464D01*
X412822Y619521D01*
X412509Y619585D01*
X412197Y619657D01*
X411887Y619736D01*
X411580Y619823D01*
X411274Y619917D01*
X410971Y620018D01*
X410670Y620127D01*
X410372Y620242D01*
X410076Y620365D01*
X409784Y620495D01*
X409495Y620632D01*
X409494Y620632D02*
X409386Y620671D01*
X409279Y620714D01*
X409174Y620760D01*
X409071Y620810D01*
X408969Y620864D01*
X408869Y620921D01*
X408771Y620982D01*
X408675Y621046D01*
X408582Y621113D01*
X408491Y621183D01*
X408402Y621257D01*
X408316Y621333D01*
X408233Y621413D01*
X408152Y621495D01*
X408074Y621580D01*
X408000Y621667D01*
X407928Y621758D01*
X407859Y621850D01*
X407794Y621945D01*
X407732Y622042D01*
X407673Y622141D01*
X407618Y622242D01*
X407567Y622345D01*
X407519Y622450D01*
X407474Y622556D01*
X407433Y622663D01*
X407396Y622772D01*
X407363Y622883D01*
X407334Y622994D01*
X407308Y623106D01*
X407286Y623219D01*
X407269Y623333D01*
X407255Y623447D01*
X407245Y623562D01*
X407239Y623677D01*
X407237Y623792D01*
X407239Y623907D01*
X407245Y624022D01*
X407255Y624137D01*
X407269Y624251D01*
X407286Y624365D01*
X407308Y624478D01*
X407334Y624590D01*
X407363Y624702D01*
X407396Y624812D01*
X407433Y624921D01*
X407474Y625029D01*
X407519Y625135D01*
X407567Y625240D01*
X407618Y625342D01*
X407674Y625444D01*
X407732Y625543D01*
X407794Y625640D01*
X407860Y625735D01*
X407928Y625827D01*
X408000Y625917D01*
X408074Y626005D01*
X408152Y626090D01*
X408233Y626172D01*
X408316Y626251D01*
X408402Y626328D01*
X408491Y626401D01*
X408582Y626472D01*
X408676Y626539D01*
X408771Y626603D01*
X408869Y626664D01*
X408969Y626721D01*
X409071Y626774D01*
X409175Y626825D01*
X409280Y626871D01*
X409387Y626914D01*
X409495Y626953D01*
X409784Y627090D01*
X410076Y627220D01*
X410372Y627343D01*
X410670Y627458D01*
X410971Y627567D01*
X411274Y627668D01*
X411580Y627762D01*
X411887Y627849D01*
X412197Y627928D01*
X412509Y628000D01*
X412822Y628064D01*
X413137Y628121D01*
X413453Y628171D01*
X413770Y628213D01*
X414088Y628247D01*
X414406Y628274D01*
X414726Y628293D01*
X415045Y628304D01*
X415365Y628308D01*
X415365Y619277D02*
X415685Y619281D01*
X416004Y619292D01*
X416324Y619311D01*
X416642Y619338D01*
X416960Y619372D01*
X417277Y619414D01*
X417593Y619464D01*
X417908Y619521D01*
X418221Y619585D01*
X418533Y619657D01*
X418843Y619736D01*
X419150Y619823D01*
X419456Y619917D01*
X419759Y620018D01*
X420060Y620127D01*
X420358Y620242D01*
X420654Y620365D01*
X420946Y620495D01*
X421235Y620632D01*
X421236Y620631D02*
X421344Y620670D01*
X421451Y620713D01*
X421556Y620759D01*
X421660Y620810D01*
X421762Y620863D01*
X421862Y620920D01*
X421960Y620981D01*
X422055Y621045D01*
X422149Y621112D01*
X422240Y621183D01*
X422329Y621256D01*
X422415Y621333D01*
X422498Y621412D01*
X422579Y621494D01*
X422657Y621579D01*
X422731Y621667D01*
X422803Y621757D01*
X422872Y621850D01*
X422937Y621944D01*
X422999Y622041D01*
X423057Y622141D01*
X423113Y622242D01*
X423164Y622344D01*
X423212Y622449D01*
X423257Y622555D01*
X423298Y622663D01*
X423335Y622772D01*
X423368Y622882D01*
X423397Y622994D01*
X423423Y623106D01*
X423445Y623219D01*
X423462Y623333D01*
X423476Y623447D01*
X423486Y623562D01*
X423492Y623677D01*
X423494Y623792D01*
X421235Y626953D02*
X420946Y627090D01*
X420654Y627220D01*
X420358Y627343D01*
X420060Y627458D01*
X419759Y627567D01*
X419456Y627668D01*
X419150Y627762D01*
X418843Y627849D01*
X418533Y627928D01*
X418221Y628000D01*
X417908Y628064D01*
X417593Y628121D01*
X417277Y628171D01*
X416960Y628213D01*
X416642Y628247D01*
X416324Y628274D01*
X416004Y628293D01*
X415685Y628304D01*
X415365Y628308D01*
X421235Y626953D02*
X421343Y626914D01*
X421450Y626871D01*
X421555Y626825D01*
X421659Y626774D01*
X421761Y626721D01*
X421861Y626664D01*
X421959Y626603D01*
X422054Y626539D01*
X422148Y626472D01*
X422239Y626401D01*
X422328Y626328D01*
X422414Y626251D01*
X422497Y626172D01*
X422578Y626090D01*
X422656Y626005D01*
X422730Y625917D01*
X422802Y625827D01*
X422871Y625734D01*
X422936Y625640D01*
X422998Y625543D01*
X423056Y625443D01*
X423112Y625342D01*
X423163Y625239D01*
X423211Y625135D01*
X423256Y625029D01*
X423297Y624921D01*
X423334Y624812D01*
X423367Y624702D01*
X423396Y624590D01*
X423422Y624478D01*
X423444Y624365D01*
X423461Y624251D01*
X423475Y624137D01*
X423485Y624022D01*
X423491Y623907D01*
X423493Y623792D01*
X419881Y620180D02*
X410849Y627405D01*
D10*
X415500Y836000D02*
X355000Y836000D01*
X355000Y555000D02*
X415500Y555000D01*
X396000Y555650D02*
X396000Y835350D01*
X392808Y810000D01*
X399192Y810000D01*
X396000Y835350D01*
X394700Y810000D01*
X397300Y810000D02*
X396000Y835350D01*
X393400Y810000D01*
X398600Y810000D02*
X396000Y835350D01*
X392808Y581000D02*
X396000Y555650D01*
X392808Y581000D02*
X399192Y581000D01*
X396000Y555650D01*
X394700Y581000D01*
X397300Y581000D02*
X396000Y555650D01*
X393400Y581000D01*
X398600Y581000D02*
X396000Y555650D01*
D11*
X373237Y669319D02*
X373239Y669444D01*
X373245Y669569D01*
X373254Y669694D01*
X373268Y669818D01*
X373285Y669942D01*
X373306Y670066D01*
X373331Y670188D01*
X373360Y670310D01*
X373392Y670431D01*
X373428Y670551D01*
X373468Y670670D01*
X373511Y670787D01*
X373558Y670903D01*
X373609Y671018D01*
X373663Y671130D01*
X373721Y671242D01*
X373781Y671351D01*
X373846Y671458D01*
X373913Y671564D01*
X373984Y671667D01*
X374058Y671768D01*
X374135Y671867D01*
X374215Y671963D01*
X374298Y672057D01*
X374383Y672148D01*
X374472Y672237D01*
X374563Y672322D01*
X374657Y672405D01*
X374753Y672485D01*
X374852Y672562D01*
X374953Y672636D01*
X375056Y672707D01*
X375162Y672774D01*
X375269Y672839D01*
X375378Y672899D01*
X375490Y672957D01*
X375602Y673011D01*
X375717Y673062D01*
X375833Y673109D01*
X375950Y673152D01*
X376069Y673192D01*
X376189Y673228D01*
X376310Y673260D01*
X376432Y673289D01*
X376554Y673314D01*
X376678Y673335D01*
X376802Y673352D01*
X376926Y673366D01*
X377051Y673375D01*
X377176Y673381D01*
X377301Y673383D01*
X373237Y669319D02*
X373239Y669176D01*
X373245Y669034D01*
X373255Y668891D01*
X373268Y668749D01*
X373286Y668608D01*
X373307Y668466D01*
X373332Y668326D01*
X373361Y668186D01*
X373394Y668047D01*
X373431Y667909D01*
X373471Y667772D01*
X373515Y667637D01*
X373563Y667502D01*
X373615Y667369D01*
X373670Y667237D01*
X373729Y667107D01*
X373791Y666979D01*
X373857Y666852D01*
X373926Y666727D01*
X373998Y666604D01*
X374074Y666483D01*
X374153Y666365D01*
X374236Y666248D01*
X374321Y666134D01*
X374410Y666022D01*
X374501Y665913D01*
X374596Y665806D01*
X374693Y665701D01*
X374794Y665600D01*
X374897Y665501D01*
X375002Y665405D01*
X375111Y665312D01*
X375222Y665222D01*
X375335Y665135D01*
X375450Y665051D01*
X375568Y664971D01*
X375688Y664893D01*
X375810Y664819D01*
X375934Y664749D01*
X376060Y664681D01*
X376188Y664618D01*
X376317Y664557D01*
X376448Y664500D01*
X376580Y664447D01*
X376714Y664398D01*
X376849Y664352D01*
X380462Y672028D02*
X380370Y672122D01*
X380276Y672212D01*
X380179Y672300D01*
X380079Y672385D01*
X379977Y672467D01*
X379872Y672545D01*
X379765Y672621D01*
X379656Y672693D01*
X379545Y672762D01*
X379431Y672828D01*
X379316Y672890D01*
X379199Y672949D01*
X379080Y673004D01*
X378960Y673055D01*
X378838Y673103D01*
X378715Y673148D01*
X378591Y673188D01*
X378465Y673225D01*
X378338Y673258D01*
X378211Y673287D01*
X378082Y673313D01*
X377953Y673334D01*
X377823Y673352D01*
X377693Y673365D01*
X377563Y673375D01*
X377432Y673381D01*
X377301Y673383D01*
X380462Y672028D02*
X389493Y664352D01*
X389493Y673383D01*
X384977Y679983D02*
X384844Y679985D01*
X384712Y679991D01*
X384580Y680001D01*
X384448Y680014D01*
X384316Y680032D01*
X384186Y680053D01*
X384055Y680078D01*
X383926Y680107D01*
X383798Y680140D01*
X383670Y680176D01*
X383544Y680216D01*
X383419Y680260D01*
X383295Y680308D01*
X383173Y680359D01*
X383052Y680414D01*
X382933Y680472D01*
X382815Y680534D01*
X382700Y680599D01*
X382586Y680668D01*
X382475Y680739D01*
X382366Y680815D01*
X382259Y680893D01*
X382154Y680974D01*
X382052Y681059D01*
X381952Y681146D01*
X381855Y681236D01*
X381760Y681329D01*
X381669Y681425D01*
X381580Y681523D01*
X381494Y681624D01*
X381411Y681728D01*
X381331Y681834D01*
X381255Y681942D01*
X381181Y682052D01*
X381111Y682165D01*
X381044Y682279D01*
X380981Y682396D01*
X380921Y682514D01*
X380864Y682634D01*
X380811Y682756D01*
X380762Y682879D01*
X380716Y683003D01*
X380674Y683129D01*
X380636Y683256D01*
X380601Y683384D01*
X380570Y683513D01*
X380543Y683642D01*
X380520Y683773D01*
X380500Y683904D01*
X380485Y684036D01*
X380473Y684168D01*
X380465Y684300D01*
X380461Y684433D01*
X380461Y684565D01*
X380465Y684698D01*
X380473Y684830D01*
X380485Y684962D01*
X380500Y685094D01*
X380520Y685225D01*
X380543Y685356D01*
X380570Y685485D01*
X380601Y685614D01*
X380636Y685742D01*
X380674Y685869D01*
X380716Y685995D01*
X380762Y686119D01*
X380811Y686242D01*
X380864Y686364D01*
X380921Y686484D01*
X380981Y686602D01*
X381044Y686719D01*
X381111Y686833D01*
X381181Y686946D01*
X381255Y687056D01*
X381331Y687164D01*
X381411Y687270D01*
X381494Y687374D01*
X381580Y687475D01*
X381669Y687573D01*
X381760Y687669D01*
X381855Y687762D01*
X381952Y687852D01*
X382052Y687939D01*
X382154Y688024D01*
X382259Y688105D01*
X382366Y688183D01*
X382475Y688259D01*
X382586Y688330D01*
X382700Y688399D01*
X382815Y688464D01*
X382933Y688526D01*
X383052Y688584D01*
X383173Y688639D01*
X383295Y688690D01*
X383419Y688738D01*
X383544Y688782D01*
X383670Y688822D01*
X383798Y688858D01*
X383926Y688891D01*
X384055Y688920D01*
X384186Y688945D01*
X384316Y688966D01*
X384448Y688984D01*
X384580Y688997D01*
X384712Y689007D01*
X384844Y689013D01*
X384977Y689015D01*
X385110Y689013D01*
X385242Y689007D01*
X385374Y688997D01*
X385506Y688984D01*
X385638Y688966D01*
X385768Y688945D01*
X385899Y688920D01*
X386028Y688891D01*
X386156Y688858D01*
X386284Y688822D01*
X386410Y688782D01*
X386535Y688738D01*
X386659Y688690D01*
X386781Y688639D01*
X386902Y688584D01*
X387021Y688526D01*
X387139Y688464D01*
X387254Y688399D01*
X387368Y688330D01*
X387479Y688259D01*
X387588Y688183D01*
X387695Y688105D01*
X387800Y688024D01*
X387902Y687939D01*
X388002Y687852D01*
X388099Y687762D01*
X388194Y687669D01*
X388285Y687573D01*
X388374Y687475D01*
X388460Y687374D01*
X388543Y687270D01*
X388623Y687164D01*
X388699Y687056D01*
X388773Y686946D01*
X388843Y686833D01*
X388910Y686719D01*
X388973Y686602D01*
X389033Y686484D01*
X389090Y686364D01*
X389143Y686242D01*
X389192Y686119D01*
X389238Y685995D01*
X389280Y685869D01*
X389318Y685742D01*
X389353Y685614D01*
X389384Y685485D01*
X389411Y685356D01*
X389434Y685225D01*
X389454Y685094D01*
X389469Y684962D01*
X389481Y684830D01*
X389489Y684698D01*
X389493Y684565D01*
X389493Y684433D01*
X389489Y684300D01*
X389481Y684168D01*
X389469Y684036D01*
X389454Y683904D01*
X389434Y683773D01*
X389411Y683642D01*
X389384Y683513D01*
X389353Y683384D01*
X389318Y683256D01*
X389280Y683129D01*
X389238Y683003D01*
X389192Y682879D01*
X389143Y682756D01*
X389090Y682634D01*
X389033Y682514D01*
X388973Y682396D01*
X388910Y682279D01*
X388843Y682165D01*
X388773Y682052D01*
X388699Y681942D01*
X388623Y681834D01*
X388543Y681728D01*
X388460Y681624D01*
X388374Y681523D01*
X388285Y681425D01*
X388194Y681329D01*
X388099Y681236D01*
X388002Y681146D01*
X387902Y681059D01*
X387800Y680974D01*
X387695Y680893D01*
X387588Y680815D01*
X387479Y680739D01*
X387368Y680668D01*
X387254Y680599D01*
X387139Y680534D01*
X387021Y680472D01*
X386902Y680414D01*
X386781Y680359D01*
X386659Y680308D01*
X386535Y680260D01*
X386410Y680216D01*
X386284Y680176D01*
X386156Y680140D01*
X386028Y680107D01*
X385899Y680078D01*
X385768Y680053D01*
X385638Y680032D01*
X385506Y680014D01*
X385374Y680001D01*
X385242Y679991D01*
X385110Y679985D01*
X384977Y679983D01*
X376849Y680887D02*
X376730Y680889D01*
X376610Y680895D01*
X376491Y680905D01*
X376373Y680919D01*
X376254Y680936D01*
X376137Y680958D01*
X376020Y680983D01*
X375905Y681013D01*
X375790Y681046D01*
X375676Y681083D01*
X375564Y681123D01*
X375453Y681168D01*
X375344Y681216D01*
X375236Y681267D01*
X375130Y681322D01*
X375026Y681381D01*
X374924Y681443D01*
X374824Y681508D01*
X374726Y681577D01*
X374630Y681649D01*
X374537Y681724D01*
X374447Y681801D01*
X374359Y681882D01*
X374274Y681966D01*
X374192Y682053D01*
X374112Y682142D01*
X374036Y682234D01*
X373962Y682328D01*
X373892Y682425D01*
X373825Y682523D01*
X373761Y682624D01*
X373701Y682728D01*
X373644Y682833D01*
X373591Y682940D01*
X373541Y683048D01*
X373495Y683158D01*
X373453Y683270D01*
X373414Y683383D01*
X373379Y683497D01*
X373348Y683612D01*
X373320Y683729D01*
X373297Y683846D01*
X373277Y683963D01*
X373261Y684082D01*
X373249Y684201D01*
X373241Y684320D01*
X373237Y684439D01*
X373237Y684559D01*
X373241Y684678D01*
X373249Y684797D01*
X373261Y684916D01*
X373277Y685035D01*
X373297Y685152D01*
X373320Y685269D01*
X373348Y685386D01*
X373379Y685501D01*
X373414Y685615D01*
X373453Y685728D01*
X373495Y685840D01*
X373541Y685950D01*
X373591Y686058D01*
X373644Y686165D01*
X373701Y686270D01*
X373761Y686374D01*
X373825Y686475D01*
X373892Y686573D01*
X373962Y686670D01*
X374036Y686764D01*
X374112Y686856D01*
X374192Y686945D01*
X374274Y687032D01*
X374359Y687116D01*
X374447Y687197D01*
X374537Y687274D01*
X374630Y687349D01*
X374726Y687421D01*
X374824Y687490D01*
X374924Y687555D01*
X375026Y687617D01*
X375130Y687676D01*
X375236Y687731D01*
X375344Y687782D01*
X375453Y687830D01*
X375564Y687875D01*
X375676Y687915D01*
X375790Y687952D01*
X375905Y687985D01*
X376020Y688015D01*
X376137Y688040D01*
X376254Y688062D01*
X376373Y688079D01*
X376491Y688093D01*
X376610Y688103D01*
X376730Y688109D01*
X376849Y688111D01*
X376968Y688109D01*
X377088Y688103D01*
X377207Y688093D01*
X377325Y688079D01*
X377444Y688062D01*
X377561Y688040D01*
X377678Y688015D01*
X377793Y687985D01*
X377908Y687952D01*
X378022Y687915D01*
X378134Y687875D01*
X378245Y687830D01*
X378354Y687782D01*
X378462Y687731D01*
X378568Y687676D01*
X378672Y687617D01*
X378774Y687555D01*
X378874Y687490D01*
X378972Y687421D01*
X379068Y687349D01*
X379161Y687274D01*
X379251Y687197D01*
X379339Y687116D01*
X379424Y687032D01*
X379506Y686945D01*
X379586Y686856D01*
X379662Y686764D01*
X379736Y686670D01*
X379806Y686573D01*
X379873Y686475D01*
X379937Y686374D01*
X379997Y686270D01*
X380054Y686165D01*
X380107Y686058D01*
X380157Y685950D01*
X380203Y685840D01*
X380245Y685728D01*
X380284Y685615D01*
X380319Y685501D01*
X380350Y685386D01*
X380378Y685269D01*
X380401Y685152D01*
X380421Y685035D01*
X380437Y684916D01*
X380449Y684797D01*
X380457Y684678D01*
X380461Y684559D01*
X380461Y684439D01*
X380457Y684320D01*
X380449Y684201D01*
X380437Y684082D01*
X380421Y683963D01*
X380401Y683846D01*
X380378Y683729D01*
X380350Y683612D01*
X380319Y683497D01*
X380284Y683383D01*
X380245Y683270D01*
X380203Y683158D01*
X380157Y683048D01*
X380107Y682940D01*
X380054Y682833D01*
X379997Y682728D01*
X379937Y682624D01*
X379873Y682523D01*
X379806Y682425D01*
X379736Y682328D01*
X379662Y682234D01*
X379586Y682142D01*
X379506Y682053D01*
X379424Y681966D01*
X379339Y681882D01*
X379251Y681801D01*
X379161Y681724D01*
X379068Y681649D01*
X378972Y681577D01*
X378874Y681508D01*
X378774Y681443D01*
X378672Y681381D01*
X378568Y681322D01*
X378462Y681267D01*
X378354Y681216D01*
X378245Y681168D01*
X378134Y681123D01*
X378022Y681083D01*
X377908Y681046D01*
X377793Y681013D01*
X377678Y680983D01*
X377561Y680958D01*
X377444Y680936D01*
X377325Y680919D01*
X377207Y680905D01*
X377088Y680895D01*
X376968Y680889D01*
X376849Y680887D01*
X388590Y694989D02*
X389493Y694989D01*
X388590Y694989D02*
X388590Y695892D01*
X389493Y695892D01*
X389493Y694989D01*
X376849Y701867D02*
X373237Y706382D01*
X389493Y706382D01*
X389493Y701867D02*
X389493Y710898D01*
X381365Y717498D02*
X381045Y717502D01*
X380726Y717513D01*
X380406Y717532D01*
X380088Y717559D01*
X379770Y717593D01*
X379453Y717635D01*
X379137Y717685D01*
X378822Y717742D01*
X378509Y717806D01*
X378197Y717878D01*
X377887Y717957D01*
X377580Y718044D01*
X377274Y718138D01*
X376971Y718239D01*
X376670Y718348D01*
X376372Y718463D01*
X376076Y718586D01*
X375784Y718716D01*
X375495Y718853D01*
X375494Y718854D02*
X375386Y718893D01*
X375279Y718936D01*
X375174Y718982D01*
X375071Y719032D01*
X374969Y719086D01*
X374869Y719143D01*
X374771Y719204D01*
X374675Y719268D01*
X374582Y719335D01*
X374491Y719405D01*
X374402Y719479D01*
X374316Y719555D01*
X374233Y719635D01*
X374152Y719717D01*
X374074Y719802D01*
X374000Y719889D01*
X373928Y719980D01*
X373859Y720072D01*
X373794Y720167D01*
X373732Y720264D01*
X373673Y720363D01*
X373618Y720464D01*
X373567Y720567D01*
X373519Y720672D01*
X373474Y720778D01*
X373433Y720885D01*
X373396Y720994D01*
X373363Y721105D01*
X373334Y721216D01*
X373308Y721328D01*
X373286Y721441D01*
X373269Y721555D01*
X373255Y721669D01*
X373245Y721784D01*
X373239Y721899D01*
X373237Y722014D01*
X373239Y722129D01*
X373245Y722244D01*
X373255Y722359D01*
X373269Y722473D01*
X373286Y722587D01*
X373308Y722700D01*
X373334Y722812D01*
X373363Y722924D01*
X373396Y723034D01*
X373433Y723143D01*
X373474Y723251D01*
X373519Y723357D01*
X373567Y723462D01*
X373618Y723564D01*
X373674Y723666D01*
X373732Y723765D01*
X373794Y723862D01*
X373860Y723957D01*
X373928Y724049D01*
X374000Y724139D01*
X374074Y724227D01*
X374152Y724312D01*
X374233Y724394D01*
X374316Y724473D01*
X374402Y724550D01*
X374491Y724623D01*
X374582Y724694D01*
X374676Y724761D01*
X374771Y724825D01*
X374869Y724886D01*
X374969Y724943D01*
X375071Y724996D01*
X375175Y725047D01*
X375280Y725093D01*
X375387Y725136D01*
X375495Y725175D01*
X375495Y725174D02*
X375784Y725311D01*
X376076Y725441D01*
X376372Y725564D01*
X376670Y725679D01*
X376971Y725788D01*
X377274Y725889D01*
X377580Y725983D01*
X377887Y726070D01*
X378197Y726149D01*
X378509Y726221D01*
X378822Y726285D01*
X379137Y726342D01*
X379453Y726392D01*
X379770Y726434D01*
X380088Y726468D01*
X380406Y726495D01*
X380726Y726514D01*
X381045Y726525D01*
X381365Y726529D01*
X381365Y717498D02*
X381685Y717502D01*
X382004Y717513D01*
X382324Y717532D01*
X382642Y717559D01*
X382960Y717593D01*
X383277Y717635D01*
X383593Y717685D01*
X383908Y717742D01*
X384221Y717806D01*
X384533Y717878D01*
X384843Y717957D01*
X385150Y718044D01*
X385456Y718138D01*
X385759Y718239D01*
X386060Y718348D01*
X386358Y718463D01*
X386654Y718586D01*
X386946Y718716D01*
X387235Y718853D01*
X387236Y718853D02*
X387344Y718892D01*
X387451Y718935D01*
X387556Y718981D01*
X387660Y719032D01*
X387762Y719085D01*
X387862Y719142D01*
X387960Y719203D01*
X388055Y719267D01*
X388149Y719334D01*
X388240Y719405D01*
X388329Y719478D01*
X388415Y719555D01*
X388498Y719634D01*
X388579Y719716D01*
X388657Y719801D01*
X388731Y719889D01*
X388803Y719979D01*
X388872Y720072D01*
X388937Y720166D01*
X388999Y720263D01*
X389057Y720363D01*
X389113Y720464D01*
X389164Y720566D01*
X389212Y720671D01*
X389257Y720777D01*
X389298Y720885D01*
X389335Y720994D01*
X389368Y721104D01*
X389397Y721216D01*
X389423Y721328D01*
X389445Y721441D01*
X389462Y721555D01*
X389476Y721669D01*
X389486Y721784D01*
X389492Y721899D01*
X389494Y722014D01*
X387235Y725174D02*
X386946Y725311D01*
X386654Y725441D01*
X386358Y725564D01*
X386060Y725679D01*
X385759Y725788D01*
X385456Y725889D01*
X385150Y725983D01*
X384843Y726070D01*
X384533Y726149D01*
X384221Y726221D01*
X383908Y726285D01*
X383593Y726342D01*
X383277Y726392D01*
X382960Y726434D01*
X382642Y726468D01*
X382324Y726495D01*
X382004Y726514D01*
X381685Y726525D01*
X381365Y726529D01*
X387235Y725175D02*
X387343Y725136D01*
X387450Y725093D01*
X387555Y725047D01*
X387659Y724996D01*
X387761Y724943D01*
X387861Y724886D01*
X387959Y724825D01*
X388054Y724761D01*
X388148Y724694D01*
X388239Y724623D01*
X388328Y724550D01*
X388414Y724473D01*
X388497Y724394D01*
X388578Y724312D01*
X388656Y724227D01*
X388730Y724139D01*
X388802Y724049D01*
X388871Y723956D01*
X388936Y723862D01*
X388998Y723765D01*
X389056Y723665D01*
X389112Y723564D01*
X389163Y723461D01*
X389211Y723357D01*
X389256Y723251D01*
X389297Y723143D01*
X389334Y723034D01*
X389367Y722924D01*
X389396Y722812D01*
X389422Y722700D01*
X389444Y722587D01*
X389461Y722473D01*
X389475Y722359D01*
X389485Y722244D01*
X389491Y722129D01*
X389493Y722014D01*
X385881Y718401D02*
X376849Y725626D01*
D10*
X192000Y900000D02*
X66500Y900000D01*
X66500Y555000D02*
X128000Y555000D01*
X86000Y555650D02*
X86000Y899350D01*
X82808Y874000D01*
X89192Y874000D01*
X86000Y899350D01*
X84700Y874000D01*
X87300Y874000D02*
X86000Y899350D01*
X83400Y874000D01*
X88600Y874000D02*
X86000Y899350D01*
X82808Y581000D02*
X86000Y555650D01*
X82808Y581000D02*
X89192Y581000D01*
X86000Y555650D01*
X84700Y581000D01*
X87300Y581000D02*
X86000Y555650D01*
X83400Y581000D01*
X88600Y581000D02*
X86000Y555650D01*
D11*
X79493Y696352D02*
X79493Y700868D01*
X79491Y701001D01*
X79485Y701133D01*
X79475Y701265D01*
X79462Y701397D01*
X79444Y701529D01*
X79423Y701659D01*
X79398Y701790D01*
X79369Y701919D01*
X79336Y702047D01*
X79300Y702175D01*
X79260Y702301D01*
X79216Y702426D01*
X79168Y702550D01*
X79117Y702672D01*
X79062Y702793D01*
X79004Y702912D01*
X78942Y703030D01*
X78877Y703145D01*
X78808Y703259D01*
X78737Y703370D01*
X78661Y703479D01*
X78583Y703586D01*
X78502Y703691D01*
X78417Y703793D01*
X78330Y703893D01*
X78240Y703990D01*
X78147Y704085D01*
X78051Y704176D01*
X77953Y704265D01*
X77852Y704351D01*
X77748Y704434D01*
X77642Y704514D01*
X77534Y704590D01*
X77424Y704664D01*
X77311Y704734D01*
X77197Y704801D01*
X77080Y704864D01*
X76962Y704924D01*
X76842Y704981D01*
X76720Y705034D01*
X76597Y705083D01*
X76473Y705129D01*
X76347Y705171D01*
X76220Y705209D01*
X76092Y705244D01*
X75963Y705275D01*
X75834Y705302D01*
X75703Y705325D01*
X75572Y705345D01*
X75440Y705360D01*
X75308Y705372D01*
X75176Y705380D01*
X75043Y705384D01*
X74911Y705384D01*
X74778Y705380D01*
X74646Y705372D01*
X74514Y705360D01*
X74382Y705345D01*
X74251Y705325D01*
X74120Y705302D01*
X73991Y705275D01*
X73862Y705244D01*
X73734Y705209D01*
X73607Y705171D01*
X73481Y705129D01*
X73357Y705083D01*
X73234Y705034D01*
X73112Y704981D01*
X72992Y704924D01*
X72874Y704864D01*
X72757Y704801D01*
X72643Y704734D01*
X72530Y704664D01*
X72420Y704590D01*
X72312Y704514D01*
X72206Y704434D01*
X72102Y704351D01*
X72001Y704265D01*
X71903Y704176D01*
X71807Y704085D01*
X71714Y703990D01*
X71624Y703893D01*
X71537Y703793D01*
X71452Y703691D01*
X71371Y703586D01*
X71293Y703479D01*
X71217Y703370D01*
X71146Y703259D01*
X71077Y703145D01*
X71012Y703030D01*
X70950Y702912D01*
X70892Y702793D01*
X70837Y702672D01*
X70786Y702550D01*
X70738Y702426D01*
X70694Y702301D01*
X70654Y702175D01*
X70618Y702047D01*
X70585Y701919D01*
X70556Y701790D01*
X70531Y701659D01*
X70510Y701529D01*
X70492Y701397D01*
X70479Y701265D01*
X70469Y701133D01*
X70463Y701001D01*
X70461Y700868D01*
X63237Y701771D02*
X63237Y696352D01*
X63237Y701771D02*
X63239Y701890D01*
X63245Y702010D01*
X63255Y702129D01*
X63269Y702247D01*
X63286Y702366D01*
X63308Y702483D01*
X63333Y702600D01*
X63363Y702715D01*
X63396Y702830D01*
X63433Y702944D01*
X63473Y703056D01*
X63518Y703167D01*
X63566Y703276D01*
X63617Y703384D01*
X63672Y703490D01*
X63731Y703594D01*
X63793Y703696D01*
X63858Y703796D01*
X63927Y703894D01*
X63999Y703990D01*
X64074Y704083D01*
X64151Y704173D01*
X64232Y704261D01*
X64316Y704346D01*
X64403Y704428D01*
X64492Y704508D01*
X64584Y704584D01*
X64678Y704658D01*
X64775Y704728D01*
X64873Y704795D01*
X64974Y704859D01*
X65078Y704919D01*
X65183Y704976D01*
X65290Y705029D01*
X65398Y705079D01*
X65508Y705125D01*
X65620Y705167D01*
X65733Y705206D01*
X65847Y705241D01*
X65962Y705272D01*
X66079Y705300D01*
X66196Y705323D01*
X66313Y705343D01*
X66432Y705359D01*
X66551Y705371D01*
X66670Y705379D01*
X66789Y705383D01*
X66909Y705383D01*
X67028Y705379D01*
X67147Y705371D01*
X67266Y705359D01*
X67385Y705343D01*
X67502Y705323D01*
X67619Y705300D01*
X67736Y705272D01*
X67851Y705241D01*
X67965Y705206D01*
X68078Y705167D01*
X68190Y705125D01*
X68300Y705079D01*
X68408Y705029D01*
X68515Y704976D01*
X68620Y704919D01*
X68724Y704859D01*
X68825Y704795D01*
X68923Y704728D01*
X69020Y704658D01*
X69114Y704584D01*
X69206Y704508D01*
X69295Y704428D01*
X69382Y704346D01*
X69466Y704261D01*
X69547Y704173D01*
X69624Y704083D01*
X69699Y703990D01*
X69771Y703894D01*
X69840Y703796D01*
X69905Y703696D01*
X69967Y703594D01*
X70026Y703490D01*
X70081Y703384D01*
X70132Y703276D01*
X70180Y703167D01*
X70225Y703056D01*
X70265Y702944D01*
X70302Y702830D01*
X70335Y702715D01*
X70365Y702600D01*
X70390Y702483D01*
X70412Y702366D01*
X70429Y702247D01*
X70443Y702129D01*
X70453Y702010D01*
X70459Y701890D01*
X70461Y701771D01*
X70462Y701771D02*
X70462Y698158D01*
X75881Y711983D02*
X63237Y715596D01*
X75881Y711983D02*
X75881Y721014D01*
X72268Y718305D02*
X79493Y718305D01*
X79493Y726989D02*
X78590Y726989D01*
X78590Y727892D01*
X79493Y727892D01*
X79493Y726989D01*
X79493Y733867D02*
X79493Y739286D01*
X79491Y739404D01*
X79485Y739522D01*
X79476Y739640D01*
X79462Y739757D01*
X79445Y739874D01*
X79424Y739991D01*
X79399Y740106D01*
X79370Y740221D01*
X79337Y740335D01*
X79301Y740447D01*
X79261Y740558D01*
X79218Y740668D01*
X79171Y740777D01*
X79121Y740884D01*
X79066Y740989D01*
X79009Y741092D01*
X78948Y741193D01*
X78884Y741293D01*
X78817Y741390D01*
X78747Y741485D01*
X78673Y741577D01*
X78597Y741668D01*
X78517Y741755D01*
X78435Y741840D01*
X78350Y741922D01*
X78263Y742002D01*
X78172Y742078D01*
X78080Y742152D01*
X77985Y742222D01*
X77888Y742289D01*
X77788Y742353D01*
X77687Y742414D01*
X77584Y742471D01*
X77479Y742526D01*
X77372Y742576D01*
X77263Y742623D01*
X77153Y742666D01*
X77042Y742706D01*
X76930Y742742D01*
X76816Y742775D01*
X76701Y742804D01*
X76586Y742829D01*
X76469Y742850D01*
X76352Y742867D01*
X76235Y742881D01*
X76117Y742890D01*
X75999Y742896D01*
X75881Y742898D01*
X74074Y742898D01*
X73956Y742896D01*
X73838Y742890D01*
X73720Y742881D01*
X73603Y742867D01*
X73486Y742850D01*
X73369Y742829D01*
X73254Y742804D01*
X73139Y742775D01*
X73025Y742742D01*
X72913Y742706D01*
X72802Y742666D01*
X72692Y742623D01*
X72583Y742576D01*
X72476Y742526D01*
X72371Y742471D01*
X72268Y742414D01*
X72167Y742353D01*
X72067Y742289D01*
X71970Y742222D01*
X71875Y742152D01*
X71783Y742078D01*
X71692Y742002D01*
X71605Y741922D01*
X71520Y741840D01*
X71438Y741755D01*
X71358Y741668D01*
X71282Y741577D01*
X71208Y741485D01*
X71138Y741390D01*
X71071Y741293D01*
X71007Y741193D01*
X70946Y741092D01*
X70889Y740989D01*
X70834Y740884D01*
X70784Y740777D01*
X70737Y740668D01*
X70694Y740558D01*
X70654Y740447D01*
X70618Y740335D01*
X70585Y740221D01*
X70556Y740106D01*
X70531Y739991D01*
X70510Y739874D01*
X70493Y739757D01*
X70479Y739640D01*
X70470Y739522D01*
X70464Y739404D01*
X70462Y739286D01*
X70462Y733867D01*
X63237Y733867D01*
X63237Y742898D01*
X65495Y750853D02*
X65784Y750716D01*
X66076Y750586D01*
X66372Y750463D01*
X66670Y750348D01*
X66971Y750239D01*
X67274Y750138D01*
X67580Y750044D01*
X67887Y749957D01*
X68197Y749878D01*
X68509Y749806D01*
X68822Y749742D01*
X69137Y749685D01*
X69453Y749635D01*
X69770Y749593D01*
X70088Y749559D01*
X70406Y749532D01*
X70726Y749513D01*
X71045Y749502D01*
X71365Y749498D01*
X65494Y750854D02*
X65386Y750893D01*
X65279Y750936D01*
X65174Y750982D01*
X65071Y751032D01*
X64969Y751086D01*
X64869Y751143D01*
X64771Y751204D01*
X64675Y751268D01*
X64582Y751335D01*
X64491Y751405D01*
X64402Y751479D01*
X64316Y751555D01*
X64233Y751635D01*
X64152Y751717D01*
X64074Y751802D01*
X64000Y751889D01*
X63928Y751980D01*
X63859Y752072D01*
X63794Y752167D01*
X63732Y752264D01*
X63673Y752363D01*
X63618Y752464D01*
X63567Y752567D01*
X63519Y752672D01*
X63474Y752778D01*
X63433Y752885D01*
X63396Y752994D01*
X63363Y753105D01*
X63334Y753216D01*
X63308Y753328D01*
X63286Y753441D01*
X63269Y753555D01*
X63255Y753669D01*
X63245Y753784D01*
X63239Y753899D01*
X63237Y754014D01*
X63239Y754129D01*
X63245Y754244D01*
X63255Y754359D01*
X63269Y754473D01*
X63286Y754587D01*
X63308Y754700D01*
X63334Y754812D01*
X63363Y754924D01*
X63396Y755034D01*
X63433Y755143D01*
X63474Y755251D01*
X63519Y755357D01*
X63567Y755462D01*
X63618Y755564D01*
X63674Y755666D01*
X63732Y755765D01*
X63794Y755862D01*
X63860Y755957D01*
X63928Y756049D01*
X64000Y756139D01*
X64074Y756227D01*
X64152Y756312D01*
X64233Y756394D01*
X64316Y756473D01*
X64402Y756550D01*
X64491Y756623D01*
X64582Y756694D01*
X64676Y756761D01*
X64771Y756825D01*
X64869Y756886D01*
X64969Y756943D01*
X65071Y756996D01*
X65175Y757047D01*
X65280Y757093D01*
X65387Y757136D01*
X65495Y757175D01*
X65495Y757174D02*
X65784Y757311D01*
X66076Y757441D01*
X66372Y757564D01*
X66670Y757679D01*
X66971Y757788D01*
X67274Y757889D01*
X67580Y757983D01*
X67887Y758070D01*
X68197Y758149D01*
X68509Y758221D01*
X68822Y758285D01*
X69137Y758342D01*
X69453Y758392D01*
X69770Y758434D01*
X70088Y758468D01*
X70406Y758495D01*
X70726Y758514D01*
X71045Y758525D01*
X71365Y758529D01*
X71365Y749498D02*
X71685Y749502D01*
X72004Y749513D01*
X72324Y749532D01*
X72642Y749559D01*
X72960Y749593D01*
X73277Y749635D01*
X73593Y749685D01*
X73908Y749742D01*
X74221Y749806D01*
X74533Y749878D01*
X74843Y749957D01*
X75150Y750044D01*
X75456Y750138D01*
X75759Y750239D01*
X76060Y750348D01*
X76358Y750463D01*
X76654Y750586D01*
X76946Y750716D01*
X77235Y750853D01*
X77236Y750853D02*
X77344Y750892D01*
X77451Y750935D01*
X77556Y750981D01*
X77660Y751032D01*
X77762Y751085D01*
X77862Y751142D01*
X77960Y751203D01*
X78055Y751267D01*
X78149Y751334D01*
X78240Y751405D01*
X78329Y751478D01*
X78415Y751555D01*
X78498Y751634D01*
X78579Y751716D01*
X78657Y751801D01*
X78731Y751889D01*
X78803Y751979D01*
X78872Y752072D01*
X78937Y752166D01*
X78999Y752263D01*
X79057Y752363D01*
X79113Y752464D01*
X79164Y752566D01*
X79212Y752671D01*
X79257Y752777D01*
X79298Y752885D01*
X79335Y752994D01*
X79368Y753104D01*
X79397Y753216D01*
X79423Y753328D01*
X79445Y753441D01*
X79462Y753555D01*
X79476Y753669D01*
X79486Y753784D01*
X79492Y753899D01*
X79494Y754014D01*
X77235Y757174D02*
X76946Y757311D01*
X76654Y757441D01*
X76358Y757564D01*
X76060Y757679D01*
X75759Y757788D01*
X75456Y757889D01*
X75150Y757983D01*
X74843Y758070D01*
X74533Y758149D01*
X74221Y758221D01*
X73908Y758285D01*
X73593Y758342D01*
X73277Y758392D01*
X72960Y758434D01*
X72642Y758468D01*
X72324Y758495D01*
X72004Y758514D01*
X71685Y758525D01*
X71365Y758529D01*
X77235Y757175D02*
X77343Y757136D01*
X77450Y757093D01*
X77555Y757047D01*
X77659Y756996D01*
X77761Y756943D01*
X77861Y756886D01*
X77959Y756825D01*
X78054Y756761D01*
X78148Y756694D01*
X78239Y756623D01*
X78328Y756550D01*
X78414Y756473D01*
X78497Y756394D01*
X78578Y756312D01*
X78656Y756227D01*
X78730Y756139D01*
X78802Y756049D01*
X78871Y755956D01*
X78936Y755862D01*
X78998Y755765D01*
X79056Y755665D01*
X79112Y755564D01*
X79163Y755461D01*
X79211Y755357D01*
X79256Y755251D01*
X79297Y755143D01*
X79334Y755034D01*
X79367Y754924D01*
X79396Y754812D01*
X79422Y754700D01*
X79444Y754587D01*
X79461Y754473D01*
X79475Y754359D01*
X79485Y754244D01*
X79491Y754129D01*
X79493Y754014D01*
X75881Y750401D02*
X66849Y757626D01*
D10*
X292000Y900000D02*
X292000Y979500D01*
X192000Y979500D02*
X192000Y900000D01*
X192650Y960000D02*
X291350Y960000D01*
X266000Y963192D01*
X266000Y956808D01*
X291350Y960000D01*
X266000Y961300D01*
X266000Y958700D02*
X291350Y960000D01*
X266000Y962600D01*
X266000Y957400D02*
X291350Y960000D01*
X218000Y963192D02*
X192650Y960000D01*
X218000Y963192D02*
X218000Y956808D01*
X192650Y960000D01*
X218000Y961300D01*
X218000Y958700D02*
X192650Y960000D01*
X218000Y962600D01*
X218000Y957400D02*
X192650Y960000D01*
D11*
X210852Y979151D02*
X215368Y982763D01*
X215368Y966507D01*
X219883Y966507D02*
X210852Y966507D01*
X226483Y974635D02*
X226487Y974955D01*
X226498Y975274D01*
X226517Y975594D01*
X226544Y975912D01*
X226578Y976230D01*
X226620Y976547D01*
X226670Y976863D01*
X226727Y977178D01*
X226791Y977491D01*
X226863Y977803D01*
X226942Y978113D01*
X227029Y978420D01*
X227123Y978726D01*
X227224Y979029D01*
X227333Y979330D01*
X227448Y979628D01*
X227571Y979924D01*
X227701Y980216D01*
X227838Y980505D01*
X227838Y980506D02*
X227877Y980614D01*
X227920Y980721D01*
X227966Y980826D01*
X228017Y980930D01*
X228070Y981032D01*
X228127Y981132D01*
X228188Y981230D01*
X228252Y981325D01*
X228319Y981419D01*
X228390Y981510D01*
X228463Y981599D01*
X228540Y981685D01*
X228619Y981768D01*
X228701Y981849D01*
X228786Y981927D01*
X228874Y982001D01*
X228964Y982073D01*
X229056Y982141D01*
X229151Y982207D01*
X229248Y982269D01*
X229347Y982327D01*
X229449Y982383D01*
X229551Y982434D01*
X229656Y982482D01*
X229762Y982527D01*
X229870Y982568D01*
X229979Y982605D01*
X230089Y982638D01*
X230201Y982667D01*
X230313Y982693D01*
X230426Y982715D01*
X230540Y982732D01*
X230654Y982746D01*
X230769Y982756D01*
X230884Y982762D01*
X230999Y982764D01*
X230999Y982763D02*
X231114Y982761D01*
X231229Y982755D01*
X231344Y982745D01*
X231458Y982731D01*
X231572Y982714D01*
X231685Y982692D01*
X231797Y982666D01*
X231909Y982637D01*
X232019Y982604D01*
X232128Y982567D01*
X232236Y982526D01*
X232342Y982481D01*
X232447Y982433D01*
X232549Y982382D01*
X232650Y982326D01*
X232750Y982268D01*
X232847Y982206D01*
X232941Y982141D01*
X233034Y982072D01*
X233124Y982000D01*
X233212Y981926D01*
X233297Y981848D01*
X233379Y981767D01*
X233458Y981684D01*
X233535Y981598D01*
X233608Y981509D01*
X233679Y981418D01*
X233746Y981324D01*
X233810Y981229D01*
X233871Y981131D01*
X233928Y981031D01*
X233981Y980929D01*
X234032Y980825D01*
X234078Y980720D01*
X234121Y980613D01*
X234160Y980505D01*
X234159Y980505D02*
X234296Y980216D01*
X234426Y979924D01*
X234549Y979628D01*
X234664Y979330D01*
X234773Y979029D01*
X234874Y978726D01*
X234968Y978420D01*
X235055Y978113D01*
X235134Y977803D01*
X235206Y977491D01*
X235270Y977178D01*
X235327Y976863D01*
X235377Y976547D01*
X235419Y976230D01*
X235453Y975912D01*
X235480Y975594D01*
X235499Y975274D01*
X235510Y974955D01*
X235514Y974635D01*
X226484Y974635D02*
X226488Y974315D01*
X226499Y973996D01*
X226518Y973676D01*
X226545Y973358D01*
X226579Y973040D01*
X226621Y972723D01*
X226671Y972407D01*
X226728Y972092D01*
X226792Y971779D01*
X226864Y971467D01*
X226943Y971157D01*
X227030Y970850D01*
X227124Y970544D01*
X227225Y970241D01*
X227334Y969940D01*
X227449Y969642D01*
X227572Y969346D01*
X227702Y969054D01*
X227839Y968765D01*
X227838Y968765D02*
X227877Y968657D01*
X227920Y968550D01*
X227966Y968445D01*
X228017Y968341D01*
X228070Y968239D01*
X228127Y968139D01*
X228188Y968041D01*
X228252Y967946D01*
X228319Y967852D01*
X228390Y967761D01*
X228463Y967672D01*
X228540Y967586D01*
X228619Y967503D01*
X228701Y967422D01*
X228786Y967344D01*
X228874Y967270D01*
X228964Y967198D01*
X229057Y967129D01*
X229151Y967064D01*
X229248Y967002D01*
X229348Y966944D01*
X229449Y966888D01*
X229551Y966837D01*
X229656Y966789D01*
X229762Y966744D01*
X229870Y966703D01*
X229979Y966666D01*
X230089Y966633D01*
X230201Y966604D01*
X230313Y966578D01*
X230426Y966556D01*
X230540Y966539D01*
X230654Y966525D01*
X230769Y966515D01*
X230884Y966509D01*
X230999Y966507D01*
X234159Y968765D02*
X234296Y969054D01*
X234426Y969346D01*
X234549Y969642D01*
X234664Y969940D01*
X234773Y970241D01*
X234874Y970544D01*
X234968Y970850D01*
X235055Y971157D01*
X235134Y971467D01*
X235206Y971779D01*
X235270Y972092D01*
X235327Y972407D01*
X235377Y972723D01*
X235419Y973040D01*
X235453Y973358D01*
X235480Y973676D01*
X235499Y973996D01*
X235510Y974315D01*
X235514Y974635D01*
X234160Y968765D02*
X234121Y968657D01*
X234078Y968550D01*
X234032Y968445D01*
X233981Y968341D01*
X233928Y968239D01*
X233871Y968139D01*
X233810Y968041D01*
X233746Y967946D01*
X233679Y967852D01*
X233608Y967761D01*
X233535Y967672D01*
X233458Y967586D01*
X233379Y967503D01*
X233297Y967422D01*
X233212Y967344D01*
X233124Y967270D01*
X233034Y967198D01*
X232941Y967129D01*
X232847Y967064D01*
X232750Y967002D01*
X232650Y966944D01*
X232549Y966888D01*
X232446Y966837D01*
X232342Y966789D01*
X232236Y966744D01*
X232128Y966703D01*
X232019Y966666D01*
X231909Y966633D01*
X231797Y966604D01*
X231685Y966578D01*
X231572Y966556D01*
X231458Y966539D01*
X231344Y966525D01*
X231229Y966515D01*
X231114Y966509D01*
X230999Y966507D01*
X227386Y970119D02*
X234611Y979151D01*
X241489Y967410D02*
X241489Y966507D01*
X241489Y967410D02*
X242392Y967410D01*
X242392Y966507D01*
X241489Y966507D01*
X248367Y974635D02*
X248371Y974955D01*
X248382Y975274D01*
X248401Y975594D01*
X248428Y975912D01*
X248462Y976230D01*
X248504Y976547D01*
X248554Y976863D01*
X248611Y977178D01*
X248675Y977491D01*
X248747Y977803D01*
X248826Y978113D01*
X248913Y978420D01*
X249007Y978726D01*
X249108Y979029D01*
X249217Y979330D01*
X249332Y979628D01*
X249455Y979924D01*
X249585Y980216D01*
X249722Y980505D01*
X249721Y980506D02*
X249760Y980614D01*
X249803Y980721D01*
X249849Y980826D01*
X249900Y980930D01*
X249953Y981032D01*
X250010Y981132D01*
X250071Y981230D01*
X250135Y981325D01*
X250202Y981419D01*
X250273Y981510D01*
X250346Y981599D01*
X250423Y981685D01*
X250502Y981768D01*
X250584Y981849D01*
X250669Y981927D01*
X250757Y982001D01*
X250847Y982073D01*
X250939Y982141D01*
X251034Y982207D01*
X251131Y982269D01*
X251230Y982327D01*
X251332Y982383D01*
X251434Y982434D01*
X251539Y982482D01*
X251645Y982527D01*
X251753Y982568D01*
X251862Y982605D01*
X251972Y982638D01*
X252084Y982667D01*
X252196Y982693D01*
X252309Y982715D01*
X252423Y982732D01*
X252537Y982746D01*
X252652Y982756D01*
X252767Y982762D01*
X252882Y982764D01*
X252882Y982763D02*
X252997Y982761D01*
X253112Y982755D01*
X253227Y982745D01*
X253341Y982731D01*
X253455Y982714D01*
X253568Y982692D01*
X253680Y982666D01*
X253792Y982637D01*
X253902Y982604D01*
X254011Y982567D01*
X254119Y982526D01*
X254225Y982481D01*
X254330Y982433D01*
X254432Y982382D01*
X254533Y982326D01*
X254633Y982268D01*
X254730Y982206D01*
X254824Y982141D01*
X254917Y982072D01*
X255007Y982000D01*
X255095Y981926D01*
X255180Y981848D01*
X255262Y981767D01*
X255341Y981684D01*
X255418Y981598D01*
X255491Y981509D01*
X255562Y981418D01*
X255629Y981324D01*
X255693Y981229D01*
X255754Y981131D01*
X255811Y981031D01*
X255864Y980929D01*
X255915Y980825D01*
X255961Y980720D01*
X256004Y980613D01*
X256043Y980505D01*
X256180Y980216D01*
X256310Y979924D01*
X256433Y979628D01*
X256548Y979330D01*
X256657Y979029D01*
X256758Y978726D01*
X256852Y978420D01*
X256939Y978113D01*
X257018Y977803D01*
X257090Y977491D01*
X257154Y977178D01*
X257211Y976863D01*
X257261Y976547D01*
X257303Y976230D01*
X257337Y975912D01*
X257364Y975594D01*
X257383Y975274D01*
X257394Y974955D01*
X257398Y974635D01*
X248367Y974635D02*
X248371Y974315D01*
X248382Y973996D01*
X248401Y973676D01*
X248428Y973358D01*
X248462Y973040D01*
X248504Y972723D01*
X248554Y972407D01*
X248611Y972092D01*
X248675Y971779D01*
X248747Y971467D01*
X248826Y971157D01*
X248913Y970850D01*
X249007Y970544D01*
X249108Y970241D01*
X249217Y969940D01*
X249332Y969642D01*
X249455Y969346D01*
X249585Y969054D01*
X249722Y968765D01*
X249721Y968765D02*
X249760Y968657D01*
X249803Y968550D01*
X249849Y968445D01*
X249900Y968341D01*
X249953Y968239D01*
X250010Y968139D01*
X250071Y968041D01*
X250135Y967946D01*
X250202Y967852D01*
X250273Y967761D01*
X250346Y967672D01*
X250423Y967586D01*
X250502Y967503D01*
X250584Y967422D01*
X250669Y967344D01*
X250757Y967270D01*
X250847Y967198D01*
X250940Y967129D01*
X251034Y967064D01*
X251131Y967002D01*
X251231Y966944D01*
X251332Y966888D01*
X251434Y966837D01*
X251539Y966789D01*
X251645Y966744D01*
X251753Y966703D01*
X251862Y966666D01*
X251972Y966633D01*
X252084Y966604D01*
X252196Y966578D01*
X252309Y966556D01*
X252423Y966539D01*
X252537Y966525D01*
X252652Y966515D01*
X252767Y966509D01*
X252882Y966507D01*
X256043Y968765D02*
X256180Y969054D01*
X256310Y969346D01*
X256433Y969642D01*
X256548Y969940D01*
X256657Y970241D01*
X256758Y970544D01*
X256852Y970850D01*
X256939Y971157D01*
X257018Y971467D01*
X257090Y971779D01*
X257154Y972092D01*
X257211Y972407D01*
X257261Y972723D01*
X257303Y973040D01*
X257337Y973358D01*
X257364Y973676D01*
X257383Y973996D01*
X257394Y974315D01*
X257398Y974635D01*
X256043Y968765D02*
X256004Y968657D01*
X255961Y968550D01*
X255915Y968445D01*
X255864Y968341D01*
X255811Y968239D01*
X255754Y968139D01*
X255693Y968041D01*
X255629Y967946D01*
X255562Y967852D01*
X255491Y967761D01*
X255418Y967672D01*
X255341Y967586D01*
X255262Y967503D01*
X255180Y967422D01*
X255095Y967344D01*
X255007Y967270D01*
X254917Y967198D01*
X254824Y967129D01*
X254730Y967064D01*
X254633Y967002D01*
X254533Y966944D01*
X254432Y966888D01*
X254329Y966837D01*
X254225Y966789D01*
X254119Y966744D01*
X254011Y966703D01*
X253902Y966666D01*
X253792Y966633D01*
X253680Y966604D01*
X253568Y966578D01*
X253455Y966556D01*
X253341Y966539D01*
X253227Y966525D01*
X253112Y966515D01*
X252997Y966509D01*
X252882Y966507D01*
X249270Y970119D02*
X256495Y979151D01*
X263998Y974635D02*
X264002Y974955D01*
X264013Y975274D01*
X264032Y975594D01*
X264059Y975912D01*
X264093Y976230D01*
X264135Y976547D01*
X264185Y976863D01*
X264242Y977178D01*
X264306Y977491D01*
X264378Y977803D01*
X264457Y978113D01*
X264544Y978420D01*
X264638Y978726D01*
X264739Y979029D01*
X264848Y979330D01*
X264963Y979628D01*
X265086Y979924D01*
X265216Y980216D01*
X265353Y980505D01*
X265353Y980506D02*
X265392Y980614D01*
X265435Y980721D01*
X265481Y980826D01*
X265532Y980930D01*
X265585Y981032D01*
X265642Y981132D01*
X265703Y981230D01*
X265767Y981325D01*
X265834Y981419D01*
X265905Y981510D01*
X265978Y981599D01*
X266055Y981685D01*
X266134Y981768D01*
X266216Y981849D01*
X266301Y981927D01*
X266389Y982001D01*
X266479Y982073D01*
X266571Y982141D01*
X266666Y982207D01*
X266763Y982269D01*
X266862Y982327D01*
X266964Y982383D01*
X267066Y982434D01*
X267171Y982482D01*
X267277Y982527D01*
X267385Y982568D01*
X267494Y982605D01*
X267604Y982638D01*
X267716Y982667D01*
X267828Y982693D01*
X267941Y982715D01*
X268055Y982732D01*
X268169Y982746D01*
X268284Y982756D01*
X268399Y982762D01*
X268514Y982764D01*
X268514Y982763D02*
X268629Y982761D01*
X268744Y982755D01*
X268859Y982745D01*
X268973Y982731D01*
X269087Y982714D01*
X269200Y982692D01*
X269312Y982666D01*
X269424Y982637D01*
X269534Y982604D01*
X269643Y982567D01*
X269751Y982526D01*
X269857Y982481D01*
X269962Y982433D01*
X270064Y982382D01*
X270165Y982326D01*
X270265Y982268D01*
X270362Y982206D01*
X270456Y982141D01*
X270549Y982072D01*
X270639Y982000D01*
X270727Y981926D01*
X270812Y981848D01*
X270894Y981767D01*
X270973Y981684D01*
X271050Y981598D01*
X271123Y981509D01*
X271194Y981418D01*
X271261Y981324D01*
X271325Y981229D01*
X271386Y981131D01*
X271443Y981031D01*
X271496Y980929D01*
X271547Y980825D01*
X271593Y980720D01*
X271636Y980613D01*
X271675Y980505D01*
X271674Y980505D02*
X271811Y980216D01*
X271941Y979924D01*
X272064Y979628D01*
X272179Y979330D01*
X272288Y979029D01*
X272389Y978726D01*
X272483Y978420D01*
X272570Y978113D01*
X272649Y977803D01*
X272721Y977491D01*
X272785Y977178D01*
X272842Y976863D01*
X272892Y976547D01*
X272934Y976230D01*
X272968Y975912D01*
X272995Y975594D01*
X273014Y975274D01*
X273025Y974955D01*
X273029Y974635D01*
X263998Y974635D02*
X264002Y974315D01*
X264013Y973996D01*
X264032Y973676D01*
X264059Y973358D01*
X264093Y973040D01*
X264135Y972723D01*
X264185Y972407D01*
X264242Y972092D01*
X264306Y971779D01*
X264378Y971467D01*
X264457Y971157D01*
X264544Y970850D01*
X264638Y970544D01*
X264739Y970241D01*
X264848Y969940D01*
X264963Y969642D01*
X265086Y969346D01*
X265216Y969054D01*
X265353Y968765D01*
X265392Y968657D01*
X265435Y968550D01*
X265481Y968445D01*
X265532Y968341D01*
X265585Y968239D01*
X265642Y968139D01*
X265703Y968041D01*
X265767Y967946D01*
X265834Y967852D01*
X265905Y967761D01*
X265978Y967672D01*
X266055Y967586D01*
X266134Y967503D01*
X266216Y967422D01*
X266301Y967344D01*
X266389Y967270D01*
X266479Y967198D01*
X266572Y967129D01*
X266666Y967064D01*
X266763Y967002D01*
X266863Y966944D01*
X266964Y966888D01*
X267066Y966837D01*
X267171Y966789D01*
X267277Y966744D01*
X267385Y966703D01*
X267494Y966666D01*
X267604Y966633D01*
X267716Y966604D01*
X267828Y966578D01*
X267941Y966556D01*
X268055Y966539D01*
X268169Y966525D01*
X268284Y966515D01*
X268399Y966509D01*
X268514Y966507D01*
X271674Y968765D02*
X271811Y969054D01*
X271941Y969346D01*
X272064Y969642D01*
X272179Y969940D01*
X272288Y970241D01*
X272389Y970544D01*
X272483Y970850D01*
X272570Y971157D01*
X272649Y971467D01*
X272721Y971779D01*
X272785Y972092D01*
X272842Y972407D01*
X272892Y972723D01*
X272934Y973040D01*
X272968Y973358D01*
X272995Y973676D01*
X273014Y973996D01*
X273025Y974315D01*
X273029Y974635D01*
X271675Y968765D02*
X271636Y968657D01*
X271593Y968550D01*
X271547Y968445D01*
X271496Y968341D01*
X271443Y968239D01*
X271386Y968139D01*
X271325Y968041D01*
X271261Y967946D01*
X271194Y967852D01*
X271123Y967761D01*
X271050Y967672D01*
X270973Y967586D01*
X270894Y967503D01*
X270812Y967422D01*
X270727Y967344D01*
X270639Y967270D01*
X270549Y967198D01*
X270456Y967129D01*
X270362Y967064D01*
X270265Y967002D01*
X270165Y966944D01*
X270064Y966888D01*
X269961Y966837D01*
X269857Y966789D01*
X269751Y966744D01*
X269643Y966703D01*
X269534Y966666D01*
X269424Y966633D01*
X269312Y966604D01*
X269200Y966578D01*
X269087Y966556D01*
X268973Y966539D01*
X268859Y966525D01*
X268744Y966515D01*
X268629Y966509D01*
X268514Y966507D01*
X264901Y970119D02*
X272126Y979151D01*
D10*
X224000Y555000D02*
X224000Y483500D01*
X267000Y483500D02*
X267000Y555000D01*
X223350Y503000D02*
X172000Y503000D01*
X267650Y503000D02*
X342628Y503000D01*
X223350Y503000D02*
X198000Y506192D01*
X198000Y499808D01*
X223350Y503000D01*
X198000Y504300D01*
X198000Y501700D02*
X223350Y503000D01*
X198000Y505600D01*
X198000Y500400D02*
X223350Y503000D01*
X267650Y503000D02*
X293000Y506192D01*
X293000Y499808D01*
X267650Y503000D01*
X293000Y504300D01*
X293000Y501700D02*
X267650Y503000D01*
X293000Y505600D01*
X293000Y500400D02*
X267650Y503000D01*
D11*
X293762Y513119D02*
X297374Y525763D01*
X293762Y513119D02*
X302793Y513119D01*
X300084Y516732D02*
X300084Y509507D01*
X308768Y509507D02*
X308768Y510410D01*
X309671Y510410D01*
X309671Y509507D01*
X308768Y509507D01*
X315646Y509507D02*
X320161Y509507D01*
X320294Y509509D01*
X320426Y509515D01*
X320558Y509525D01*
X320690Y509538D01*
X320822Y509556D01*
X320952Y509577D01*
X321083Y509602D01*
X321212Y509631D01*
X321340Y509664D01*
X321468Y509700D01*
X321594Y509740D01*
X321719Y509784D01*
X321843Y509832D01*
X321965Y509883D01*
X322086Y509938D01*
X322205Y509996D01*
X322323Y510058D01*
X322438Y510123D01*
X322552Y510192D01*
X322663Y510263D01*
X322772Y510339D01*
X322879Y510417D01*
X322984Y510498D01*
X323086Y510583D01*
X323186Y510670D01*
X323283Y510760D01*
X323378Y510853D01*
X323469Y510949D01*
X323558Y511047D01*
X323644Y511148D01*
X323727Y511252D01*
X323807Y511358D01*
X323883Y511466D01*
X323957Y511576D01*
X324027Y511689D01*
X324094Y511803D01*
X324157Y511920D01*
X324217Y512038D01*
X324274Y512158D01*
X324327Y512280D01*
X324376Y512403D01*
X324422Y512527D01*
X324464Y512653D01*
X324502Y512780D01*
X324537Y512908D01*
X324568Y513037D01*
X324595Y513166D01*
X324618Y513297D01*
X324638Y513428D01*
X324653Y513560D01*
X324665Y513692D01*
X324673Y513824D01*
X324677Y513957D01*
X324677Y514089D01*
X324673Y514222D01*
X324665Y514354D01*
X324653Y514486D01*
X324638Y514618D01*
X324618Y514749D01*
X324595Y514880D01*
X324568Y515009D01*
X324537Y515138D01*
X324502Y515266D01*
X324464Y515393D01*
X324422Y515519D01*
X324376Y515643D01*
X324327Y515766D01*
X324274Y515888D01*
X324217Y516008D01*
X324157Y516126D01*
X324094Y516243D01*
X324027Y516357D01*
X323957Y516470D01*
X323883Y516580D01*
X323807Y516688D01*
X323727Y516794D01*
X323644Y516898D01*
X323558Y516999D01*
X323469Y517097D01*
X323378Y517193D01*
X323283Y517286D01*
X323186Y517376D01*
X323086Y517463D01*
X322984Y517548D01*
X322879Y517629D01*
X322772Y517707D01*
X322663Y517783D01*
X322552Y517854D01*
X322438Y517923D01*
X322323Y517988D01*
X322205Y518050D01*
X322086Y518108D01*
X321965Y518163D01*
X321843Y518214D01*
X321719Y518262D01*
X321594Y518306D01*
X321468Y518346D01*
X321340Y518382D01*
X321212Y518415D01*
X321083Y518444D01*
X320952Y518469D01*
X320822Y518490D01*
X320690Y518508D01*
X320558Y518521D01*
X320426Y518531D01*
X320294Y518537D01*
X320161Y518539D01*
X321064Y525763D02*
X315646Y525763D01*
X321064Y525763D02*
X321183Y525761D01*
X321303Y525755D01*
X321422Y525745D01*
X321540Y525731D01*
X321659Y525714D01*
X321776Y525692D01*
X321893Y525667D01*
X322008Y525637D01*
X322123Y525604D01*
X322237Y525567D01*
X322349Y525527D01*
X322460Y525482D01*
X322569Y525434D01*
X322677Y525383D01*
X322783Y525328D01*
X322887Y525269D01*
X322989Y525207D01*
X323089Y525142D01*
X323187Y525073D01*
X323283Y525001D01*
X323376Y524926D01*
X323466Y524849D01*
X323554Y524768D01*
X323639Y524684D01*
X323721Y524597D01*
X323801Y524508D01*
X323877Y524416D01*
X323951Y524322D01*
X324021Y524225D01*
X324088Y524127D01*
X324152Y524026D01*
X324212Y523922D01*
X324269Y523817D01*
X324322Y523710D01*
X324372Y523602D01*
X324418Y523492D01*
X324460Y523380D01*
X324499Y523267D01*
X324534Y523153D01*
X324565Y523038D01*
X324593Y522921D01*
X324616Y522804D01*
X324636Y522687D01*
X324652Y522568D01*
X324664Y522449D01*
X324672Y522330D01*
X324676Y522211D01*
X324676Y522091D01*
X324672Y521972D01*
X324664Y521853D01*
X324652Y521734D01*
X324636Y521615D01*
X324616Y521498D01*
X324593Y521381D01*
X324565Y521264D01*
X324534Y521149D01*
X324499Y521035D01*
X324460Y520922D01*
X324418Y520810D01*
X324372Y520700D01*
X324322Y520592D01*
X324269Y520485D01*
X324212Y520380D01*
X324152Y520276D01*
X324088Y520175D01*
X324021Y520077D01*
X323951Y519980D01*
X323877Y519886D01*
X323801Y519794D01*
X323721Y519705D01*
X323639Y519618D01*
X323554Y519534D01*
X323466Y519453D01*
X323376Y519376D01*
X323283Y519301D01*
X323187Y519229D01*
X323089Y519160D01*
X322989Y519095D01*
X322887Y519033D01*
X322783Y518974D01*
X322677Y518919D01*
X322569Y518868D01*
X322460Y518820D01*
X322349Y518775D01*
X322237Y518735D01*
X322123Y518698D01*
X322008Y518665D01*
X321893Y518635D01*
X321776Y518610D01*
X321659Y518588D01*
X321540Y518571D01*
X321422Y518557D01*
X321303Y518547D01*
X321183Y518541D01*
X321064Y518539D01*
X321064Y518538D02*
X317452Y518538D01*
X331277Y517635D02*
X331281Y517955D01*
X331292Y518274D01*
X331311Y518594D01*
X331338Y518912D01*
X331372Y519230D01*
X331414Y519547D01*
X331464Y519863D01*
X331521Y520178D01*
X331585Y520491D01*
X331657Y520803D01*
X331736Y521113D01*
X331823Y521420D01*
X331917Y521726D01*
X332018Y522029D01*
X332127Y522330D01*
X332242Y522628D01*
X332365Y522924D01*
X332495Y523216D01*
X332632Y523505D01*
X332631Y523506D02*
X332670Y523614D01*
X332713Y523721D01*
X332759Y523826D01*
X332810Y523930D01*
X332863Y524032D01*
X332920Y524132D01*
X332981Y524230D01*
X333045Y524325D01*
X333112Y524419D01*
X333183Y524510D01*
X333256Y524599D01*
X333333Y524685D01*
X333412Y524768D01*
X333494Y524849D01*
X333579Y524927D01*
X333667Y525001D01*
X333757Y525073D01*
X333849Y525141D01*
X333944Y525207D01*
X334041Y525269D01*
X334140Y525327D01*
X334242Y525383D01*
X334344Y525434D01*
X334449Y525482D01*
X334555Y525527D01*
X334663Y525568D01*
X334772Y525605D01*
X334882Y525638D01*
X334994Y525667D01*
X335106Y525693D01*
X335219Y525715D01*
X335333Y525732D01*
X335447Y525746D01*
X335562Y525756D01*
X335677Y525762D01*
X335792Y525764D01*
X335792Y525763D02*
X335907Y525761D01*
X336022Y525755D01*
X336137Y525745D01*
X336251Y525731D01*
X336365Y525714D01*
X336478Y525692D01*
X336590Y525666D01*
X336702Y525637D01*
X336812Y525604D01*
X336921Y525567D01*
X337029Y525526D01*
X337135Y525481D01*
X337240Y525433D01*
X337342Y525382D01*
X337443Y525326D01*
X337543Y525268D01*
X337640Y525206D01*
X337734Y525141D01*
X337827Y525072D01*
X337917Y525000D01*
X338005Y524926D01*
X338090Y524848D01*
X338172Y524767D01*
X338251Y524684D01*
X338328Y524598D01*
X338401Y524509D01*
X338472Y524418D01*
X338539Y524324D01*
X338603Y524229D01*
X338664Y524131D01*
X338721Y524031D01*
X338774Y523929D01*
X338825Y523825D01*
X338871Y523720D01*
X338914Y523613D01*
X338953Y523505D01*
X339090Y523216D01*
X339220Y522924D01*
X339343Y522628D01*
X339458Y522330D01*
X339567Y522029D01*
X339668Y521726D01*
X339762Y521420D01*
X339849Y521113D01*
X339928Y520803D01*
X340000Y520491D01*
X340064Y520178D01*
X340121Y519863D01*
X340171Y519547D01*
X340213Y519230D01*
X340247Y518912D01*
X340274Y518594D01*
X340293Y518274D01*
X340304Y517955D01*
X340308Y517635D01*
X331277Y517635D02*
X331281Y517315D01*
X331292Y516996D01*
X331311Y516676D01*
X331338Y516358D01*
X331372Y516040D01*
X331414Y515723D01*
X331464Y515407D01*
X331521Y515092D01*
X331585Y514779D01*
X331657Y514467D01*
X331736Y514157D01*
X331823Y513850D01*
X331917Y513544D01*
X332018Y513241D01*
X332127Y512940D01*
X332242Y512642D01*
X332365Y512346D01*
X332495Y512054D01*
X332632Y511765D01*
X332631Y511765D02*
X332670Y511657D01*
X332713Y511550D01*
X332759Y511445D01*
X332810Y511341D01*
X332863Y511239D01*
X332920Y511139D01*
X332981Y511041D01*
X333045Y510946D01*
X333112Y510852D01*
X333183Y510761D01*
X333256Y510672D01*
X333333Y510586D01*
X333412Y510503D01*
X333494Y510422D01*
X333579Y510344D01*
X333667Y510270D01*
X333757Y510198D01*
X333850Y510129D01*
X333944Y510064D01*
X334041Y510002D01*
X334141Y509944D01*
X334242Y509888D01*
X334344Y509837D01*
X334449Y509789D01*
X334555Y509744D01*
X334663Y509703D01*
X334772Y509666D01*
X334882Y509633D01*
X334994Y509604D01*
X335106Y509578D01*
X335219Y509556D01*
X335333Y509539D01*
X335447Y509525D01*
X335562Y509515D01*
X335677Y509509D01*
X335792Y509507D01*
X338953Y511765D02*
X339090Y512054D01*
X339220Y512346D01*
X339343Y512642D01*
X339458Y512940D01*
X339567Y513241D01*
X339668Y513544D01*
X339762Y513850D01*
X339849Y514157D01*
X339928Y514467D01*
X340000Y514779D01*
X340064Y515092D01*
X340121Y515407D01*
X340171Y515723D01*
X340213Y516040D01*
X340247Y516358D01*
X340274Y516676D01*
X340293Y516996D01*
X340304Y517315D01*
X340308Y517635D01*
X338953Y511765D02*
X338914Y511657D01*
X338871Y511550D01*
X338825Y511445D01*
X338774Y511341D01*
X338721Y511239D01*
X338664Y511139D01*
X338603Y511041D01*
X338539Y510946D01*
X338472Y510852D01*
X338401Y510761D01*
X338328Y510672D01*
X338251Y510586D01*
X338172Y510503D01*
X338090Y510422D01*
X338005Y510344D01*
X337917Y510270D01*
X337827Y510198D01*
X337734Y510129D01*
X337640Y510064D01*
X337543Y510002D01*
X337443Y509944D01*
X337342Y509888D01*
X337239Y509837D01*
X337135Y509789D01*
X337029Y509744D01*
X336921Y509703D01*
X336812Y509666D01*
X336702Y509633D01*
X336590Y509604D01*
X336478Y509578D01*
X336365Y509556D01*
X336251Y509539D01*
X336137Y509525D01*
X336022Y509515D01*
X335907Y509509D01*
X335792Y509507D01*
X332180Y513119D02*
X339405Y522151D01*
D10*
X128000Y555000D02*
X128000Y432500D01*
X355000Y432500D02*
X355000Y555000D01*
X354350Y452000D02*
X128650Y452000D01*
X154000Y455192D01*
X154000Y448808D01*
X128650Y452000D01*
X154000Y453300D01*
X154000Y450700D02*
X128650Y452000D01*
X154000Y454600D01*
X154000Y449400D02*
X128650Y452000D01*
X329000Y455192D02*
X354350Y452000D01*
X329000Y455192D02*
X329000Y448808D01*
X354350Y452000D01*
X329000Y453300D01*
X329000Y450700D02*
X354350Y452000D01*
X329000Y454600D01*
X329000Y449400D02*
X354350Y452000D01*
D11*
X219383Y470699D02*
X219381Y470824D01*
X219375Y470949D01*
X219366Y471074D01*
X219352Y471198D01*
X219335Y471322D01*
X219314Y471446D01*
X219289Y471568D01*
X219260Y471690D01*
X219228Y471811D01*
X219192Y471931D01*
X219152Y472050D01*
X219109Y472167D01*
X219062Y472283D01*
X219011Y472398D01*
X218957Y472510D01*
X218899Y472622D01*
X218839Y472731D01*
X218774Y472838D01*
X218707Y472944D01*
X218636Y473047D01*
X218562Y473148D01*
X218485Y473247D01*
X218405Y473343D01*
X218322Y473437D01*
X218237Y473528D01*
X218148Y473617D01*
X218057Y473702D01*
X217963Y473785D01*
X217867Y473865D01*
X217768Y473942D01*
X217667Y474016D01*
X217564Y474087D01*
X217458Y474154D01*
X217351Y474219D01*
X217242Y474279D01*
X217130Y474337D01*
X217018Y474391D01*
X216903Y474442D01*
X216787Y474489D01*
X216670Y474532D01*
X216551Y474572D01*
X216431Y474608D01*
X216310Y474640D01*
X216188Y474669D01*
X216066Y474694D01*
X215942Y474715D01*
X215818Y474732D01*
X215694Y474746D01*
X215569Y474755D01*
X215444Y474761D01*
X215319Y474763D01*
X215176Y474761D01*
X215034Y474755D01*
X214891Y474745D01*
X214749Y474732D01*
X214608Y474714D01*
X214466Y474693D01*
X214326Y474668D01*
X214186Y474639D01*
X214047Y474606D01*
X213909Y474569D01*
X213772Y474529D01*
X213637Y474485D01*
X213502Y474437D01*
X213369Y474385D01*
X213237Y474330D01*
X213107Y474271D01*
X212979Y474209D01*
X212852Y474143D01*
X212727Y474074D01*
X212604Y474002D01*
X212484Y473926D01*
X212365Y473847D01*
X212248Y473764D01*
X212134Y473679D01*
X212022Y473590D01*
X211913Y473499D01*
X211806Y473404D01*
X211701Y473307D01*
X211600Y473206D01*
X211501Y473103D01*
X211405Y472998D01*
X211312Y472889D01*
X211222Y472778D01*
X211135Y472665D01*
X211051Y472550D01*
X210971Y472432D01*
X210893Y472312D01*
X210819Y472190D01*
X210749Y472066D01*
X210681Y471940D01*
X210618Y471812D01*
X210557Y471683D01*
X210500Y471552D01*
X210447Y471420D01*
X210398Y471286D01*
X210352Y471151D01*
X218028Y467538D02*
X218122Y467630D01*
X218212Y467724D01*
X218300Y467821D01*
X218385Y467921D01*
X218467Y468023D01*
X218546Y468128D01*
X218621Y468235D01*
X218693Y468344D01*
X218762Y468455D01*
X218828Y468569D01*
X218890Y468684D01*
X218949Y468801D01*
X219004Y468920D01*
X219055Y469040D01*
X219103Y469162D01*
X219148Y469285D01*
X219188Y469409D01*
X219225Y469535D01*
X219258Y469662D01*
X219287Y469789D01*
X219313Y469918D01*
X219334Y470047D01*
X219352Y470177D01*
X219365Y470307D01*
X219375Y470437D01*
X219381Y470568D01*
X219383Y470699D01*
X218028Y467538D02*
X210352Y458507D01*
X219383Y458507D01*
X235014Y470699D02*
X235012Y470824D01*
X235006Y470949D01*
X234997Y471074D01*
X234983Y471198D01*
X234966Y471322D01*
X234945Y471446D01*
X234920Y471568D01*
X234891Y471690D01*
X234859Y471811D01*
X234823Y471931D01*
X234783Y472050D01*
X234740Y472167D01*
X234693Y472283D01*
X234642Y472398D01*
X234588Y472510D01*
X234530Y472622D01*
X234470Y472731D01*
X234405Y472838D01*
X234338Y472944D01*
X234267Y473047D01*
X234193Y473148D01*
X234116Y473247D01*
X234036Y473343D01*
X233953Y473437D01*
X233868Y473528D01*
X233779Y473617D01*
X233688Y473702D01*
X233594Y473785D01*
X233498Y473865D01*
X233399Y473942D01*
X233298Y474016D01*
X233195Y474087D01*
X233089Y474154D01*
X232982Y474219D01*
X232873Y474279D01*
X232761Y474337D01*
X232649Y474391D01*
X232534Y474442D01*
X232418Y474489D01*
X232301Y474532D01*
X232182Y474572D01*
X232062Y474608D01*
X231941Y474640D01*
X231819Y474669D01*
X231697Y474694D01*
X231573Y474715D01*
X231449Y474732D01*
X231325Y474746D01*
X231200Y474755D01*
X231075Y474761D01*
X230950Y474763D01*
X230807Y474761D01*
X230665Y474755D01*
X230522Y474745D01*
X230380Y474732D01*
X230239Y474714D01*
X230097Y474693D01*
X229957Y474668D01*
X229817Y474639D01*
X229678Y474606D01*
X229540Y474569D01*
X229403Y474529D01*
X229268Y474485D01*
X229133Y474437D01*
X229000Y474385D01*
X228868Y474330D01*
X228738Y474271D01*
X228610Y474209D01*
X228483Y474143D01*
X228358Y474074D01*
X228235Y474002D01*
X228115Y473926D01*
X227996Y473847D01*
X227879Y473764D01*
X227765Y473679D01*
X227653Y473590D01*
X227544Y473499D01*
X227437Y473404D01*
X227332Y473307D01*
X227231Y473206D01*
X227132Y473103D01*
X227036Y472998D01*
X226943Y472889D01*
X226853Y472778D01*
X226766Y472665D01*
X226682Y472550D01*
X226602Y472432D01*
X226524Y472312D01*
X226450Y472190D01*
X226380Y472066D01*
X226312Y471940D01*
X226249Y471812D01*
X226188Y471683D01*
X226131Y471552D01*
X226078Y471420D01*
X226029Y471286D01*
X225983Y471151D01*
X233659Y467538D02*
X233753Y467630D01*
X233843Y467724D01*
X233931Y467821D01*
X234016Y467921D01*
X234098Y468023D01*
X234177Y468128D01*
X234252Y468235D01*
X234324Y468344D01*
X234393Y468455D01*
X234459Y468569D01*
X234521Y468684D01*
X234580Y468801D01*
X234635Y468920D01*
X234686Y469040D01*
X234734Y469162D01*
X234779Y469285D01*
X234819Y469409D01*
X234856Y469535D01*
X234889Y469662D01*
X234918Y469789D01*
X234944Y469918D01*
X234965Y470047D01*
X234983Y470177D01*
X234996Y470307D01*
X235006Y470437D01*
X235012Y470568D01*
X235014Y470699D01*
X233660Y467538D02*
X225983Y458507D01*
X235014Y458507D01*
X240989Y458507D02*
X240989Y459410D01*
X241892Y459410D01*
X241892Y458507D01*
X240989Y458507D01*
X247867Y472957D02*
X247867Y474763D01*
X256898Y474763D01*
X252382Y458507D01*
X263498Y466635D02*
X263502Y466955D01*
X263513Y467274D01*
X263532Y467594D01*
X263559Y467912D01*
X263593Y468230D01*
X263635Y468547D01*
X263685Y468863D01*
X263742Y469178D01*
X263806Y469491D01*
X263878Y469803D01*
X263957Y470113D01*
X264044Y470420D01*
X264138Y470726D01*
X264239Y471029D01*
X264348Y471330D01*
X264463Y471628D01*
X264586Y471924D01*
X264716Y472216D01*
X264853Y472505D01*
X264853Y472506D02*
X264892Y472614D01*
X264935Y472721D01*
X264981Y472826D01*
X265032Y472930D01*
X265085Y473032D01*
X265142Y473132D01*
X265203Y473230D01*
X265267Y473325D01*
X265334Y473419D01*
X265405Y473510D01*
X265478Y473599D01*
X265555Y473685D01*
X265634Y473768D01*
X265716Y473849D01*
X265801Y473927D01*
X265889Y474001D01*
X265979Y474073D01*
X266071Y474141D01*
X266166Y474207D01*
X266263Y474269D01*
X266362Y474327D01*
X266464Y474383D01*
X266566Y474434D01*
X266671Y474482D01*
X266777Y474527D01*
X266885Y474568D01*
X266994Y474605D01*
X267104Y474638D01*
X267216Y474667D01*
X267328Y474693D01*
X267441Y474715D01*
X267555Y474732D01*
X267669Y474746D01*
X267784Y474756D01*
X267899Y474762D01*
X268014Y474764D01*
X268014Y474763D02*
X268129Y474761D01*
X268244Y474755D01*
X268359Y474745D01*
X268473Y474731D01*
X268587Y474714D01*
X268700Y474692D01*
X268812Y474666D01*
X268924Y474637D01*
X269034Y474604D01*
X269143Y474567D01*
X269251Y474526D01*
X269357Y474481D01*
X269462Y474433D01*
X269564Y474382D01*
X269665Y474326D01*
X269765Y474268D01*
X269862Y474206D01*
X269956Y474141D01*
X270049Y474072D01*
X270139Y474000D01*
X270227Y473926D01*
X270312Y473848D01*
X270394Y473767D01*
X270473Y473684D01*
X270550Y473598D01*
X270623Y473509D01*
X270694Y473418D01*
X270761Y473324D01*
X270825Y473229D01*
X270886Y473131D01*
X270943Y473031D01*
X270996Y472929D01*
X271047Y472825D01*
X271093Y472720D01*
X271136Y472613D01*
X271175Y472505D01*
X271174Y472505D02*
X271311Y472216D01*
X271441Y471924D01*
X271564Y471628D01*
X271679Y471330D01*
X271788Y471029D01*
X271889Y470726D01*
X271983Y470420D01*
X272070Y470113D01*
X272149Y469803D01*
X272221Y469491D01*
X272285Y469178D01*
X272342Y468863D01*
X272392Y468547D01*
X272434Y468230D01*
X272468Y467912D01*
X272495Y467594D01*
X272514Y467274D01*
X272525Y466955D01*
X272529Y466635D01*
X263498Y466635D02*
X263502Y466315D01*
X263513Y465996D01*
X263532Y465676D01*
X263559Y465358D01*
X263593Y465040D01*
X263635Y464723D01*
X263685Y464407D01*
X263742Y464092D01*
X263806Y463779D01*
X263878Y463467D01*
X263957Y463157D01*
X264044Y462850D01*
X264138Y462544D01*
X264239Y462241D01*
X264348Y461940D01*
X264463Y461642D01*
X264586Y461346D01*
X264716Y461054D01*
X264853Y460765D01*
X264892Y460657D01*
X264935Y460550D01*
X264981Y460445D01*
X265032Y460341D01*
X265085Y460239D01*
X265142Y460139D01*
X265203Y460041D01*
X265267Y459946D01*
X265334Y459852D01*
X265405Y459761D01*
X265478Y459672D01*
X265555Y459586D01*
X265634Y459503D01*
X265716Y459422D01*
X265801Y459344D01*
X265889Y459270D01*
X265979Y459198D01*
X266072Y459129D01*
X266166Y459064D01*
X266263Y459002D01*
X266363Y458944D01*
X266464Y458888D01*
X266566Y458837D01*
X266671Y458789D01*
X266777Y458744D01*
X266885Y458703D01*
X266994Y458666D01*
X267104Y458633D01*
X267216Y458604D01*
X267328Y458578D01*
X267441Y458556D01*
X267555Y458539D01*
X267669Y458525D01*
X267784Y458515D01*
X267899Y458509D01*
X268014Y458507D01*
X271174Y460765D02*
X271311Y461054D01*
X271441Y461346D01*
X271564Y461642D01*
X271679Y461940D01*
X271788Y462241D01*
X271889Y462544D01*
X271983Y462850D01*
X272070Y463157D01*
X272149Y463467D01*
X272221Y463779D01*
X272285Y464092D01*
X272342Y464407D01*
X272392Y464723D01*
X272434Y465040D01*
X272468Y465358D01*
X272495Y465676D01*
X272514Y465996D01*
X272525Y466315D01*
X272529Y466635D01*
X271175Y460765D02*
X271136Y460657D01*
X271093Y460550D01*
X271047Y460445D01*
X270996Y460341D01*
X270943Y460239D01*
X270886Y460139D01*
X270825Y460041D01*
X270761Y459946D01*
X270694Y459852D01*
X270623Y459761D01*
X270550Y459672D01*
X270473Y459586D01*
X270394Y459503D01*
X270312Y459422D01*
X270227Y459344D01*
X270139Y459270D01*
X270049Y459198D01*
X269956Y459129D01*
X269862Y459064D01*
X269765Y459002D01*
X269665Y458944D01*
X269564Y458888D01*
X269461Y458837D01*
X269357Y458789D01*
X269251Y458744D01*
X269143Y458703D01*
X269034Y458666D01*
X268924Y458633D01*
X268812Y458604D01*
X268700Y458578D01*
X268587Y458556D01*
X268473Y458539D01*
X268359Y458525D01*
X268244Y458515D01*
X268129Y458509D01*
X268014Y458507D01*
X264401Y462119D02*
X271626Y471151D01*
D12*
X197600Y757500D03*
X197600Y710500D03*
D13*
X281100Y706060D03*
X289990Y685740D03*
X272210Y685740D03*
D14*
X307500Y581300D03*
X314000Y581300D03*
X320500Y581300D03*
X327000Y581300D03*
X307500Y636800D03*
X314000Y636800D03*
X320500Y636800D03*
X327000Y636800D03*
D15*
X307222Y737399D03*
X316722Y737399D03*
X326222Y737399D03*
X326222Y763401D03*
X307222Y763401D03*
D16*
X243700Y831520D03*
X220840Y855650D03*
X266560Y855650D03*
D17*
X225700Y584300D03*
X225700Y604300D03*
X245700Y584300D03*
X245700Y604300D03*
X265700Y584300D03*
X265700Y604300D03*
D18*
X196000Y638500D03*
X196000Y657500D03*
X322349Y704500D03*
X322349Y685500D03*
X270000Y753500D03*
X270000Y734500D03*
X165000Y600500D03*
X165000Y581500D03*
X224000Y638500D03*
X224000Y657500D03*
D19*
X186500Y798000D03*
X167500Y798000D03*
X303500Y798000D03*
X322500Y798000D03*
D18*
X165000Y657500D03*
X165000Y638500D03*
D11*
X289990Y685740D02*
X289990Y690740D01*
X225700Y584300D02*
X215700Y584300D01*
X196000Y604000D01*
X196000Y638500D01*
X224000Y638500D01*
X297492Y636800D02*
X307500Y636800D01*
X297492Y636800D02*
X292492Y641800D01*
X292492Y683238D02*
X289990Y685740D01*
X292492Y683238D02*
X292492Y641800D01*
X289990Y685740D02*
X289990Y691988D01*
X286978Y695000D01*
X261000Y695000D02*
X251740Y685740D01*
X190697Y685740D01*
X261000Y695000D02*
X286978Y695000D01*
X190697Y685740D02*
X181214Y676257D01*
X181214Y645053D01*
X187767Y638500D02*
X196000Y638500D01*
X187767Y638500D02*
X181214Y645053D01*
X220840Y811664D02*
X220840Y855650D01*
X220840Y835650D01*
X220840Y811664D02*
X207176Y798000D01*
X192000Y798000D01*
X186500Y798000D01*
X165000Y710500D02*
X165000Y657500D01*
X165000Y710500D02*
X197600Y710500D01*
X150314Y720053D02*
X150314Y774947D01*
X156653Y781286D01*
X159867Y710500D02*
X197600Y710500D01*
X159867Y710500D02*
X150314Y720053D01*
X156653Y781286D02*
X175286Y781286D01*
X192000Y798000D01*
X265000Y734500D02*
X270000Y734500D01*
X265000Y734500D02*
X251000Y720500D01*
X207600Y720500D01*
X197600Y710500D01*
X324691Y750368D02*
X337078Y750368D01*
X324691Y750368D02*
X316722Y742399D01*
X316722Y737399D01*
X337078Y750368D02*
X337078Y685500D01*
X322349Y685500D01*
X337078Y750368D02*
X337078Y793000D01*
X332078Y798000D01*
X322500Y798000D01*
X245700Y584300D02*
X245700Y570000D01*
X300000Y570000D01*
X307500Y577500D01*
X307500Y581300D01*
X314000Y581300D01*
X320500Y581300D01*
X327000Y581300D01*
X165000Y600500D02*
X165000Y638500D01*
X245700Y584300D02*
X245700Y571111D01*
X244563Y569974D01*
X205526Y569974D02*
X175000Y600500D01*
X165000Y600500D01*
X205526Y569974D02*
X244563Y569974D01*
X322349Y685500D02*
X335786Y685500D01*
X335786Y586703D01*
X330383Y581300D01*
X327000Y581300D01*
X322349Y704500D02*
X326222Y708373D01*
X324610Y735787D02*
X326222Y737399D01*
X282660Y704500D02*
X281100Y706060D01*
X282660Y704500D02*
X322349Y704500D01*
X326222Y708373D02*
X326222Y737399D01*
X326222Y722399D02*
X312222Y722399D01*
X307222Y727399D01*
X307222Y737399D01*
X307222Y763401D02*
X307222Y766879D01*
X303541Y770560D01*
X197600Y770560D01*
X197600Y757500D01*
X316237Y753416D02*
X326222Y763401D01*
X316237Y753416D02*
X270084Y753416D01*
X270000Y753500D01*
X324850Y763608D02*
X326222Y763401D01*
X276744Y877256D02*
X210312Y877256D01*
X276744Y877256D02*
X288000Y866000D01*
X288000Y828500D01*
X303500Y813000D02*
X303500Y798000D01*
X303500Y813000D02*
X288000Y828500D01*
X165000Y581500D02*
X150000Y581500D01*
X142180Y589320D01*
X326222Y763401D02*
X326222Y775000D01*
X321222Y780000D01*
X308500Y780000D01*
X303500Y785000D01*
X303500Y798000D01*
X199500Y836000D02*
X167500Y804000D01*
X167500Y798000D01*
X199500Y836000D02*
X199500Y866444D01*
X210312Y877256D01*
X142180Y788180D02*
X142180Y589320D01*
X152000Y798000D02*
X167500Y798000D01*
X152000Y798000D02*
X142180Y788180D01*
X265700Y584300D02*
X275700Y584300D01*
X293414Y602014D01*
X321786Y602014D02*
X327000Y607228D01*
X327000Y636800D01*
X321786Y602014D02*
X293414Y602014D01*
X225700Y604300D02*
X225700Y612967D01*
X238786Y626053D01*
X234000Y657500D02*
X224000Y657500D01*
X234000Y657500D02*
X238786Y652714D01*
X238786Y626053D01*
X269416Y684216D02*
X272210Y685740D01*
X272210Y635740D01*
X196000Y657500D02*
X196000Y671733D01*
X200553Y676286D01*
X272210Y676286D02*
X272210Y685740D01*
X272210Y676286D02*
X200553Y676286D01*
X245700Y609230D02*
X245700Y604300D01*
X245700Y609230D02*
X272210Y635740D01*
X320500Y636800D02*
X320500Y621067D01*
X311447Y612014D01*
X273414Y612014D02*
X265700Y604300D01*
X273414Y612014D02*
X311447Y612014D01*
M02*
