G04 EAGLE Gerber RS-274X export*
G75*
%MOMM*%
%FSLAX34Y34*%
%LPD*%
%IN*%
%IPPOS*%
%AMOC8*
5,1,8,0,0,1.08239X$1,22.5*%
G01*
%ADD10C,0.254000*%


D10*
X128000Y555000D02*
X224000Y555000D01*
X224000Y554000D01*
X224125Y552128D01*
X224413Y550274D01*
X224862Y548452D01*
X225468Y546677D01*
X226226Y544961D01*
X227130Y543317D01*
X228175Y541758D01*
X229351Y540297D01*
X230651Y538944D01*
X232063Y537709D01*
X233578Y536601D01*
X235183Y535630D01*
X236867Y534803D01*
X238616Y534126D01*
X240418Y533603D01*
X242259Y533240D01*
X244124Y533038D01*
X246000Y533000D01*
X247872Y533125D01*
X249726Y533413D01*
X251548Y533862D01*
X253323Y534468D01*
X255039Y535226D01*
X256683Y536130D01*
X258242Y537175D01*
X259703Y538351D01*
X261056Y539651D01*
X262291Y541063D01*
X263399Y542578D01*
X264370Y544183D01*
X265197Y545867D01*
X265874Y547616D01*
X266397Y549418D01*
X266760Y551259D01*
X266962Y553124D01*
X267000Y555000D01*
X355000Y555000D01*
X355000Y836000D01*
X349468Y836285D01*
X343981Y837052D01*
X338582Y838293D01*
X333312Y840001D01*
X328211Y842161D01*
X323317Y844757D01*
X318668Y847771D01*
X314300Y851178D01*
X310245Y854952D01*
X306535Y859066D01*
X303197Y863487D01*
X300257Y868183D01*
X297738Y873117D01*
X295659Y878252D01*
X294034Y883548D01*
X292878Y888966D01*
X292198Y894464D01*
X292000Y900000D01*
X192000Y900000D01*
X191673Y894513D01*
X190869Y889075D01*
X189595Y883728D01*
X187859Y878513D01*
X185675Y873469D01*
X183060Y868634D01*
X180033Y864046D01*
X176618Y859738D01*
X172841Y855745D01*
X168730Y852096D01*
X164316Y848820D01*
X159634Y845940D01*
X154719Y843480D01*
X149608Y841457D01*
X144340Y839888D01*
X138955Y838783D01*
X133495Y838153D01*
X128000Y838000D01*
X128000Y555000D01*
M02*
