G04 EAGLE Gerber RS-274X export*
G75*
%MOMM*%
%FSLAX34Y34*%
%LPD*%
%INSilkscreen Top*%
%IPPOS*%
%AMOC8*
5,1,8,0,0,1.08239X$1,22.5*%
G01*
%ADD10C,0.127000*%
%ADD11C,0.025400*%
%ADD12C,0.152400*%
%ADD13C,0.203200*%


D10*
X162600Y754000D02*
X162600Y714000D01*
X232600Y714000D02*
X232600Y754000D01*
X207600Y773000D02*
X207597Y772756D01*
X207588Y772513D01*
X207573Y772270D01*
X207553Y772027D01*
X207526Y771785D01*
X207493Y771544D01*
X207455Y771304D01*
X207411Y771064D01*
X207361Y770826D01*
X207305Y770589D01*
X207243Y770353D01*
X207176Y770119D01*
X207103Y769887D01*
X207024Y769656D01*
X206940Y769428D01*
X206850Y769201D01*
X206755Y768977D01*
X206654Y768755D01*
X206548Y768536D01*
X206437Y768320D01*
X206320Y768106D01*
X206199Y767895D01*
X206072Y767687D01*
X205940Y767482D01*
X205803Y767281D01*
X205661Y767083D01*
X205515Y766888D01*
X205364Y766697D01*
X205208Y766510D01*
X205048Y766327D01*
X204883Y766147D01*
X204714Y765972D01*
X204541Y765801D01*
X204363Y765634D01*
X204182Y765472D01*
X203997Y765314D01*
X203808Y765160D01*
X203615Y765011D01*
X203419Y764867D01*
X203219Y764728D01*
X203016Y764593D01*
X202809Y764464D01*
X202600Y764340D01*
X202388Y764221D01*
X202172Y764107D01*
X201955Y763998D01*
X201734Y763895D01*
X201511Y763797D01*
X201286Y763704D01*
X201058Y763617D01*
X200829Y763536D01*
X200597Y763460D01*
X200364Y763390D01*
X200129Y763325D01*
X199893Y763266D01*
X199655Y763213D01*
X199416Y763166D01*
X199176Y763125D01*
X198935Y763090D01*
X198694Y763060D01*
X198451Y763036D01*
X198208Y763019D01*
X197965Y763007D01*
X197722Y763001D01*
X197478Y763001D01*
X197235Y763007D01*
X196992Y763019D01*
X196749Y763036D01*
X196506Y763060D01*
X196265Y763090D01*
X196024Y763125D01*
X195784Y763166D01*
X195545Y763213D01*
X195307Y763266D01*
X195071Y763325D01*
X194836Y763390D01*
X194603Y763460D01*
X194371Y763536D01*
X194142Y763617D01*
X193914Y763704D01*
X193689Y763797D01*
X193466Y763895D01*
X193245Y763998D01*
X193028Y764107D01*
X192812Y764221D01*
X192600Y764340D01*
X192391Y764464D01*
X192184Y764593D01*
X191981Y764728D01*
X191781Y764867D01*
X191585Y765011D01*
X191392Y765160D01*
X191203Y765314D01*
X191018Y765472D01*
X190837Y765634D01*
X190659Y765801D01*
X190486Y765972D01*
X190317Y766147D01*
X190152Y766327D01*
X189992Y766510D01*
X189836Y766697D01*
X189685Y766888D01*
X189539Y767083D01*
X189397Y767281D01*
X189260Y767482D01*
X189128Y767687D01*
X189001Y767895D01*
X188880Y768106D01*
X188763Y768320D01*
X188652Y768536D01*
X188546Y768755D01*
X188445Y768977D01*
X188350Y769201D01*
X188260Y769428D01*
X188176Y769656D01*
X188097Y769887D01*
X188024Y770119D01*
X187957Y770353D01*
X187895Y770589D01*
X187839Y770826D01*
X187789Y771064D01*
X187745Y771304D01*
X187707Y771544D01*
X187674Y771785D01*
X187647Y772027D01*
X187627Y772270D01*
X187612Y772513D01*
X187603Y772756D01*
X187600Y773000D01*
X187600Y695000D02*
X187603Y695244D01*
X187612Y695487D01*
X187627Y695730D01*
X187647Y695973D01*
X187674Y696215D01*
X187707Y696456D01*
X187745Y696696D01*
X187789Y696936D01*
X187839Y697174D01*
X187895Y697411D01*
X187957Y697647D01*
X188024Y697881D01*
X188097Y698113D01*
X188176Y698344D01*
X188260Y698572D01*
X188350Y698799D01*
X188445Y699023D01*
X188546Y699245D01*
X188652Y699464D01*
X188763Y699680D01*
X188880Y699894D01*
X189001Y700105D01*
X189128Y700313D01*
X189260Y700518D01*
X189397Y700719D01*
X189539Y700917D01*
X189685Y701112D01*
X189836Y701303D01*
X189992Y701490D01*
X190152Y701673D01*
X190317Y701853D01*
X190486Y702028D01*
X190659Y702199D01*
X190837Y702366D01*
X191018Y702528D01*
X191203Y702686D01*
X191392Y702840D01*
X191585Y702989D01*
X191781Y703133D01*
X191981Y703272D01*
X192184Y703407D01*
X192391Y703536D01*
X192600Y703660D01*
X192812Y703779D01*
X193028Y703893D01*
X193245Y704002D01*
X193466Y704105D01*
X193689Y704203D01*
X193914Y704296D01*
X194142Y704383D01*
X194371Y704464D01*
X194603Y704540D01*
X194836Y704610D01*
X195071Y704675D01*
X195307Y704734D01*
X195545Y704787D01*
X195784Y704834D01*
X196024Y704875D01*
X196265Y704910D01*
X196506Y704940D01*
X196749Y704964D01*
X196992Y704981D01*
X197235Y704993D01*
X197478Y704999D01*
X197722Y704999D01*
X197965Y704993D01*
X198208Y704981D01*
X198451Y704964D01*
X198694Y704940D01*
X198935Y704910D01*
X199176Y704875D01*
X199416Y704834D01*
X199655Y704787D01*
X199893Y704734D01*
X200129Y704675D01*
X200364Y704610D01*
X200597Y704540D01*
X200829Y704464D01*
X201058Y704383D01*
X201286Y704296D01*
X201511Y704203D01*
X201734Y704105D01*
X201955Y704002D01*
X202172Y703893D01*
X202388Y703779D01*
X202600Y703660D01*
X202809Y703536D01*
X203016Y703407D01*
X203219Y703272D01*
X203419Y703133D01*
X203615Y702989D01*
X203808Y702840D01*
X203997Y702686D01*
X204182Y702528D01*
X204363Y702366D01*
X204541Y702199D01*
X204714Y702028D01*
X204883Y701853D01*
X205048Y701673D01*
X205208Y701490D01*
X205364Y701303D01*
X205515Y701112D01*
X205661Y700917D01*
X205803Y700719D01*
X205940Y700518D01*
X206072Y700313D01*
X206199Y700105D01*
X206320Y699894D01*
X206437Y699680D01*
X206548Y699464D01*
X206654Y699245D01*
X206755Y699023D01*
X206850Y698799D01*
X206940Y698572D01*
X207024Y698344D01*
X207103Y698113D01*
X207176Y697881D01*
X207243Y697647D01*
X207305Y697411D01*
X207361Y697174D01*
X207411Y696936D01*
X207455Y696696D01*
X207493Y696456D01*
X207526Y696215D01*
X207553Y695973D01*
X207573Y695730D01*
X207588Y695487D01*
X207597Y695244D01*
X207600Y695000D01*
X162600Y754000D02*
X162680Y754539D01*
X162773Y755076D01*
X162880Y755610D01*
X163000Y756142D01*
X163133Y756671D01*
X163278Y757196D01*
X163437Y757717D01*
X163608Y758234D01*
X163792Y758747D01*
X163988Y759256D01*
X164197Y759759D01*
X164418Y760257D01*
X164651Y760750D01*
X164897Y761236D01*
X165154Y761717D01*
X165423Y762191D01*
X165703Y762658D01*
X165995Y763118D01*
X166298Y763571D01*
X166612Y764017D01*
X166937Y764454D01*
X167272Y764884D01*
X167618Y765305D01*
X167974Y765717D01*
X168341Y766121D01*
X168717Y766515D01*
X169102Y766900D01*
X169497Y767276D01*
X169901Y767642D01*
X170314Y767997D01*
X170735Y768343D01*
X171165Y768678D01*
X171603Y769002D01*
X172049Y769316D01*
X172502Y769618D01*
X172963Y769910D01*
X173430Y770189D01*
X173904Y770458D01*
X174385Y770714D01*
X174872Y770959D01*
X175365Y771192D01*
X175863Y771413D01*
X176367Y771621D01*
X176875Y771817D01*
X177388Y772000D01*
X177906Y772171D01*
X178428Y772329D01*
X178953Y772474D01*
X179482Y772606D01*
X180013Y772725D01*
X180548Y772831D01*
X181085Y772924D01*
X181624Y773004D01*
X182165Y773070D01*
X182707Y773123D01*
X183251Y773163D01*
X183795Y773189D01*
X184340Y773202D01*
X184885Y773202D01*
X185429Y773189D01*
X185974Y773162D01*
X186517Y773121D01*
X187059Y773067D01*
X187600Y773001D01*
X207600Y773001D02*
X208141Y773067D01*
X208683Y773121D01*
X209226Y773162D01*
X209771Y773189D01*
X210315Y773202D01*
X210860Y773202D01*
X211405Y773189D01*
X211949Y773163D01*
X212493Y773123D01*
X213035Y773070D01*
X213576Y773004D01*
X214115Y772924D01*
X214652Y772831D01*
X215187Y772725D01*
X215718Y772606D01*
X216247Y772474D01*
X216772Y772329D01*
X217294Y772171D01*
X217812Y772000D01*
X218325Y771817D01*
X218833Y771621D01*
X219337Y771413D01*
X219835Y771192D01*
X220328Y770959D01*
X220815Y770714D01*
X221296Y770458D01*
X221770Y770189D01*
X222237Y769910D01*
X222698Y769618D01*
X223151Y769316D01*
X223597Y769002D01*
X224035Y768678D01*
X224465Y768343D01*
X224886Y767997D01*
X225299Y767642D01*
X225703Y767276D01*
X226098Y766900D01*
X226483Y766515D01*
X226859Y766121D01*
X227226Y765717D01*
X227582Y765305D01*
X227928Y764884D01*
X228263Y764454D01*
X228588Y764017D01*
X228902Y763571D01*
X229205Y763118D01*
X229497Y762658D01*
X229777Y762191D01*
X230046Y761717D01*
X230303Y761236D01*
X230549Y760750D01*
X230782Y760257D01*
X231003Y759759D01*
X231212Y759256D01*
X231408Y758747D01*
X231592Y758234D01*
X231763Y757717D01*
X231922Y757196D01*
X232067Y756671D01*
X232200Y756142D01*
X232320Y755610D01*
X232427Y755076D01*
X232520Y754539D01*
X232600Y754000D01*
X187600Y695000D02*
X187060Y694933D01*
X186517Y694880D01*
X185974Y694839D01*
X185430Y694812D01*
X184885Y694799D01*
X184340Y694799D01*
X183795Y694812D01*
X183251Y694838D01*
X182707Y694878D01*
X182165Y694931D01*
X181624Y694998D01*
X181085Y695077D01*
X180548Y695170D01*
X180014Y695276D01*
X179482Y695395D01*
X178953Y695527D01*
X178428Y695673D01*
X177907Y695830D01*
X177389Y696001D01*
X176876Y696184D01*
X176367Y696380D01*
X175864Y696589D01*
X175366Y696809D01*
X174873Y697042D01*
X174386Y697287D01*
X173905Y697543D01*
X173431Y697812D01*
X172963Y698092D01*
X172503Y698383D01*
X172050Y698685D01*
X171604Y698999D01*
X171166Y699323D01*
X170736Y699658D01*
X170315Y700004D01*
X169902Y700359D01*
X169498Y700725D01*
X169103Y701101D01*
X168718Y701486D01*
X168342Y701880D01*
X167976Y702284D01*
X167619Y702696D01*
X167274Y703117D01*
X166938Y703547D01*
X166613Y703984D01*
X166299Y704429D01*
X165996Y704882D01*
X165704Y705343D01*
X165424Y705810D01*
X165155Y706284D01*
X164898Y706764D01*
X164653Y707251D01*
X164419Y707743D01*
X164198Y708241D01*
X163989Y708745D01*
X163793Y709253D01*
X163609Y709766D01*
X163438Y710283D01*
X163279Y710805D01*
X163134Y711330D01*
X163001Y711858D01*
X162881Y712390D01*
X162775Y712924D01*
X162681Y713461D01*
X162601Y714000D01*
X207600Y694999D02*
X208141Y694933D01*
X208683Y694879D01*
X209226Y694838D01*
X209771Y694811D01*
X210315Y694798D01*
X210860Y694798D01*
X211405Y694811D01*
X211949Y694837D01*
X212493Y694877D01*
X213035Y694930D01*
X213576Y694996D01*
X214115Y695076D01*
X214652Y695169D01*
X215187Y695275D01*
X215718Y695394D01*
X216247Y695526D01*
X216772Y695671D01*
X217294Y695829D01*
X217812Y696000D01*
X218325Y696183D01*
X218833Y696379D01*
X219337Y696587D01*
X219835Y696808D01*
X220328Y697041D01*
X220815Y697286D01*
X221296Y697542D01*
X221770Y697811D01*
X222237Y698090D01*
X222698Y698382D01*
X223151Y698684D01*
X223597Y698998D01*
X224035Y699322D01*
X224465Y699657D01*
X224886Y700003D01*
X225299Y700358D01*
X225703Y700724D01*
X226098Y701100D01*
X226483Y701485D01*
X226859Y701879D01*
X227226Y702283D01*
X227582Y702695D01*
X227928Y703116D01*
X228263Y703546D01*
X228588Y703983D01*
X228902Y704429D01*
X229205Y704882D01*
X229497Y705342D01*
X229777Y705809D01*
X230046Y706283D01*
X230303Y706764D01*
X230549Y707250D01*
X230782Y707743D01*
X231003Y708241D01*
X231212Y708744D01*
X231408Y709253D01*
X231592Y709766D01*
X231763Y710283D01*
X231922Y710804D01*
X232067Y711329D01*
X232200Y711858D01*
X232320Y712390D01*
X232427Y712924D01*
X232520Y713461D01*
X232600Y714000D01*
X279195Y689550D02*
X283005Y689550D01*
X295705Y693360D02*
X295705Y702250D01*
X288085Y702250D01*
X274115Y702250D02*
X266495Y702250D01*
X266495Y693360D01*
X303500Y630800D02*
X303500Y586800D01*
X303500Y630800D02*
X331500Y630800D01*
X331500Y586800D01*
X303500Y586800D01*
D11*
X315563Y597197D02*
X319373Y595927D01*
X319373Y598467D02*
X315563Y597197D01*
X318421Y598150D02*
X318421Y596245D01*
X319373Y600611D02*
X315563Y600611D01*
X315563Y601669D02*
X315563Y599552D01*
X315563Y604130D02*
X315565Y604190D01*
X315571Y604249D01*
X315580Y604309D01*
X315593Y604367D01*
X315610Y604424D01*
X315630Y604481D01*
X315654Y604536D01*
X315681Y604589D01*
X315711Y604641D01*
X315745Y604690D01*
X315782Y604737D01*
X315821Y604782D01*
X315864Y604825D01*
X315909Y604864D01*
X315956Y604901D01*
X316005Y604935D01*
X316057Y604965D01*
X316110Y604992D01*
X316165Y605016D01*
X316222Y605036D01*
X316279Y605053D01*
X316337Y605066D01*
X316397Y605075D01*
X316456Y605081D01*
X316516Y605083D01*
X315563Y604130D02*
X315565Y604063D01*
X315570Y603996D01*
X315579Y603930D01*
X315592Y603864D01*
X315608Y603800D01*
X315628Y603736D01*
X315652Y603673D01*
X315678Y603611D01*
X315708Y603552D01*
X315741Y603494D01*
X315778Y603437D01*
X315817Y603383D01*
X315859Y603331D01*
X315904Y603282D01*
X315952Y603235D01*
X316002Y603191D01*
X316055Y603149D01*
X316110Y603111D01*
X316166Y603075D01*
X316225Y603043D01*
X316285Y603014D01*
X316347Y602988D01*
X316410Y602966D01*
X317257Y604765D02*
X317215Y604807D01*
X317170Y604846D01*
X317124Y604883D01*
X317075Y604917D01*
X317025Y604947D01*
X316973Y604975D01*
X316919Y605000D01*
X316864Y605022D01*
X316808Y605041D01*
X316751Y605056D01*
X316693Y605068D01*
X316634Y605076D01*
X316575Y605081D01*
X316516Y605083D01*
X317256Y604765D02*
X319373Y602966D01*
X319373Y605083D01*
X318526Y606624D02*
X315563Y607470D01*
X318526Y606624D02*
X318526Y608740D01*
X317680Y608105D02*
X319373Y608105D01*
X319373Y611119D02*
X319373Y611965D01*
X319373Y611119D02*
X319371Y611061D01*
X319365Y611004D01*
X319355Y610947D01*
X319342Y610890D01*
X319324Y610835D01*
X319303Y610782D01*
X319278Y610729D01*
X319250Y610679D01*
X319218Y610631D01*
X319183Y610584D01*
X319145Y610541D01*
X319104Y610500D01*
X319061Y610462D01*
X319014Y610427D01*
X318966Y610395D01*
X318916Y610367D01*
X318863Y610342D01*
X318810Y610321D01*
X318755Y610303D01*
X318698Y610290D01*
X318641Y610280D01*
X318584Y610274D01*
X318526Y610272D01*
X316410Y610272D01*
X316352Y610274D01*
X316295Y610280D01*
X316238Y610290D01*
X316181Y610303D01*
X316126Y610321D01*
X316073Y610342D01*
X316020Y610367D01*
X315970Y610395D01*
X315922Y610427D01*
X315875Y610462D01*
X315832Y610500D01*
X315791Y610541D01*
X315753Y610584D01*
X315718Y610631D01*
X315686Y610679D01*
X315658Y610729D01*
X315633Y610782D01*
X315612Y610835D01*
X315594Y610890D01*
X315581Y610947D01*
X315571Y611004D01*
X315565Y611061D01*
X315563Y611119D01*
X315563Y611965D01*
X315563Y614493D02*
X315565Y614553D01*
X315571Y614612D01*
X315580Y614672D01*
X315593Y614730D01*
X315610Y614787D01*
X315630Y614844D01*
X315654Y614899D01*
X315681Y614952D01*
X315711Y615004D01*
X315745Y615053D01*
X315782Y615100D01*
X315821Y615145D01*
X315864Y615188D01*
X315909Y615227D01*
X315956Y615264D01*
X316005Y615298D01*
X316057Y615328D01*
X316110Y615355D01*
X316165Y615379D01*
X316222Y615399D01*
X316279Y615416D01*
X316337Y615429D01*
X316397Y615438D01*
X316456Y615444D01*
X316516Y615446D01*
X315563Y614493D02*
X315565Y614426D01*
X315570Y614359D01*
X315579Y614293D01*
X315592Y614227D01*
X315608Y614163D01*
X315628Y614099D01*
X315652Y614036D01*
X315678Y613974D01*
X315708Y613915D01*
X315741Y613857D01*
X315778Y613800D01*
X315817Y613746D01*
X315859Y613694D01*
X315904Y613645D01*
X315952Y613598D01*
X316002Y613554D01*
X316055Y613512D01*
X316110Y613474D01*
X316166Y613438D01*
X316225Y613406D01*
X316285Y613377D01*
X316347Y613351D01*
X316410Y613329D01*
X317257Y615128D02*
X317215Y615170D01*
X317170Y615209D01*
X317124Y615246D01*
X317075Y615280D01*
X317025Y615310D01*
X316973Y615338D01*
X316919Y615363D01*
X316864Y615385D01*
X316808Y615404D01*
X316751Y615419D01*
X316693Y615431D01*
X316634Y615439D01*
X316575Y615444D01*
X316516Y615446D01*
X317256Y615128D02*
X319373Y613329D01*
X319373Y615446D01*
X319373Y616987D02*
X319373Y618257D01*
X319371Y618312D01*
X319366Y618368D01*
X319357Y618422D01*
X319344Y618476D01*
X319328Y618529D01*
X319309Y618581D01*
X319286Y618632D01*
X319260Y618681D01*
X319230Y618728D01*
X319198Y618773D01*
X319163Y618815D01*
X319125Y618856D01*
X319084Y618894D01*
X319042Y618929D01*
X318997Y618961D01*
X318950Y618991D01*
X318901Y619017D01*
X318850Y619040D01*
X318798Y619059D01*
X318745Y619075D01*
X318691Y619088D01*
X318637Y619097D01*
X318581Y619102D01*
X318526Y619104D01*
X318103Y619104D01*
X318045Y619102D01*
X317988Y619096D01*
X317931Y619086D01*
X317874Y619073D01*
X317819Y619055D01*
X317766Y619034D01*
X317713Y619009D01*
X317663Y618981D01*
X317615Y618949D01*
X317568Y618914D01*
X317525Y618876D01*
X317484Y618835D01*
X317446Y618792D01*
X317411Y618745D01*
X317379Y618697D01*
X317351Y618647D01*
X317326Y618594D01*
X317305Y618541D01*
X317287Y618486D01*
X317274Y618429D01*
X317264Y618372D01*
X317258Y618315D01*
X317256Y618257D01*
X317256Y616987D01*
X315563Y616987D01*
X315563Y619104D01*
X317256Y620645D02*
X317256Y621915D01*
X317258Y621970D01*
X317263Y622026D01*
X317272Y622080D01*
X317285Y622134D01*
X317301Y622187D01*
X317320Y622239D01*
X317343Y622290D01*
X317369Y622339D01*
X317399Y622386D01*
X317431Y622431D01*
X317466Y622473D01*
X317504Y622514D01*
X317545Y622552D01*
X317587Y622587D01*
X317632Y622619D01*
X317680Y622649D01*
X317728Y622675D01*
X317779Y622698D01*
X317831Y622717D01*
X317884Y622733D01*
X317938Y622746D01*
X317992Y622755D01*
X318048Y622760D01*
X318103Y622762D01*
X318103Y622761D02*
X318315Y622761D01*
X318379Y622759D01*
X318443Y622753D01*
X318506Y622744D01*
X318568Y622730D01*
X318630Y622713D01*
X318690Y622692D01*
X318749Y622668D01*
X318807Y622640D01*
X318862Y622608D01*
X318916Y622574D01*
X318967Y622536D01*
X319017Y622495D01*
X319063Y622451D01*
X319107Y622405D01*
X319148Y622355D01*
X319186Y622304D01*
X319220Y622250D01*
X319252Y622195D01*
X319280Y622137D01*
X319304Y622078D01*
X319325Y622018D01*
X319342Y621956D01*
X319356Y621894D01*
X319365Y621831D01*
X319371Y621767D01*
X319373Y621703D01*
X319371Y621639D01*
X319365Y621575D01*
X319356Y621512D01*
X319342Y621450D01*
X319325Y621388D01*
X319304Y621328D01*
X319280Y621269D01*
X319252Y621211D01*
X319220Y621156D01*
X319186Y621102D01*
X319148Y621051D01*
X319107Y621001D01*
X319063Y620955D01*
X319017Y620911D01*
X318967Y620870D01*
X318916Y620832D01*
X318862Y620798D01*
X318807Y620766D01*
X318749Y620738D01*
X318690Y620714D01*
X318630Y620693D01*
X318568Y620676D01*
X318506Y620662D01*
X318443Y620653D01*
X318379Y620647D01*
X318315Y620645D01*
X317256Y620645D01*
X317175Y620647D01*
X317095Y620653D01*
X317015Y620662D01*
X316936Y620676D01*
X316857Y620693D01*
X316779Y620714D01*
X316702Y620738D01*
X316627Y620766D01*
X316553Y620798D01*
X316480Y620833D01*
X316410Y620872D01*
X316341Y620914D01*
X316274Y620959D01*
X316209Y621007D01*
X316147Y621058D01*
X316088Y621113D01*
X316031Y621170D01*
X315977Y621229D01*
X315925Y621291D01*
X315877Y621356D01*
X315832Y621423D01*
X315790Y621491D01*
X315751Y621562D01*
X315716Y621635D01*
X315684Y621709D01*
X315656Y621784D01*
X315632Y621861D01*
X315611Y621939D01*
X315594Y622018D01*
X315580Y622097D01*
X315571Y622177D01*
X315565Y622257D01*
X315563Y622338D01*
D10*
X306264Y591800D02*
X306266Y591894D01*
X306272Y591988D01*
X306282Y592082D01*
X306296Y592175D01*
X306314Y592268D01*
X306335Y592360D01*
X306361Y592450D01*
X306390Y592540D01*
X306423Y592628D01*
X306460Y592715D01*
X306500Y592800D01*
X306544Y592884D01*
X306592Y592965D01*
X306642Y593045D01*
X306697Y593122D01*
X306754Y593197D01*
X306814Y593269D01*
X306878Y593339D01*
X306944Y593406D01*
X307013Y593470D01*
X307085Y593531D01*
X307159Y593589D01*
X307236Y593644D01*
X307315Y593696D01*
X307396Y593744D01*
X307479Y593789D01*
X307563Y593830D01*
X307650Y593868D01*
X307738Y593902D01*
X307827Y593932D01*
X307917Y593959D01*
X308009Y593981D01*
X308101Y594000D01*
X308195Y594015D01*
X308288Y594026D01*
X308382Y594033D01*
X308476Y594036D01*
X308571Y594035D01*
X308665Y594030D01*
X308759Y594021D01*
X308852Y594008D01*
X308945Y593991D01*
X309037Y593971D01*
X309128Y593946D01*
X309218Y593918D01*
X309306Y593886D01*
X309394Y593850D01*
X309479Y593810D01*
X309563Y593767D01*
X309645Y593721D01*
X309725Y593671D01*
X309803Y593617D01*
X309878Y593561D01*
X309951Y593501D01*
X310022Y593438D01*
X310089Y593373D01*
X310154Y593304D01*
X310216Y593233D01*
X310275Y593160D01*
X310331Y593084D01*
X310383Y593005D01*
X310432Y592925D01*
X310478Y592842D01*
X310520Y592758D01*
X310559Y592672D01*
X310594Y592584D01*
X310625Y592495D01*
X310653Y592405D01*
X310676Y592314D01*
X310696Y592222D01*
X310712Y592129D01*
X310724Y592035D01*
X310732Y591941D01*
X310736Y591847D01*
X310736Y591753D01*
X310732Y591659D01*
X310724Y591565D01*
X310712Y591471D01*
X310696Y591378D01*
X310676Y591286D01*
X310653Y591195D01*
X310625Y591105D01*
X310594Y591016D01*
X310559Y590928D01*
X310520Y590842D01*
X310478Y590758D01*
X310432Y590675D01*
X310383Y590595D01*
X310331Y590516D01*
X310275Y590440D01*
X310216Y590367D01*
X310154Y590296D01*
X310089Y590227D01*
X310022Y590162D01*
X309951Y590099D01*
X309878Y590039D01*
X309803Y589983D01*
X309725Y589929D01*
X309645Y589879D01*
X309563Y589833D01*
X309479Y589790D01*
X309394Y589750D01*
X309306Y589714D01*
X309218Y589682D01*
X309128Y589654D01*
X309037Y589629D01*
X308945Y589609D01*
X308852Y589592D01*
X308759Y589579D01*
X308665Y589570D01*
X308571Y589565D01*
X308476Y589564D01*
X308382Y589567D01*
X308288Y589574D01*
X308195Y589585D01*
X308101Y589600D01*
X308009Y589619D01*
X307917Y589641D01*
X307827Y589668D01*
X307738Y589698D01*
X307650Y589732D01*
X307563Y589770D01*
X307479Y589811D01*
X307396Y589856D01*
X307315Y589904D01*
X307236Y589956D01*
X307159Y590011D01*
X307085Y590069D01*
X307013Y590130D01*
X306944Y590194D01*
X306878Y590261D01*
X306814Y590331D01*
X306754Y590403D01*
X306697Y590478D01*
X306642Y590555D01*
X306592Y590635D01*
X306544Y590716D01*
X306500Y590800D01*
X306460Y590885D01*
X306423Y590972D01*
X306390Y591060D01*
X306361Y591150D01*
X306335Y591240D01*
X306314Y591332D01*
X306296Y591425D01*
X306282Y591518D01*
X306272Y591612D01*
X306266Y591706D01*
X306264Y591800D01*
D12*
X331222Y742296D02*
X331222Y758504D01*
X302222Y758504D02*
X302222Y742296D01*
X311498Y758504D02*
X321946Y758504D01*
X312446Y742296D02*
X311498Y742296D01*
X320998Y742296D02*
X321946Y742296D01*
X303446Y742296D02*
X302222Y742296D01*
X329998Y742296D02*
X331222Y742296D01*
X331222Y758504D02*
X329998Y758504D01*
X303446Y758504D02*
X302222Y758504D01*
D10*
X200520Y849300D02*
X200533Y850360D01*
X200572Y851419D01*
X200637Y852477D01*
X200728Y853532D01*
X200845Y854586D01*
X200987Y855636D01*
X201156Y856682D01*
X201350Y857724D01*
X201569Y858761D01*
X201814Y859792D01*
X202084Y860817D01*
X202379Y861834D01*
X202699Y862845D01*
X203044Y863847D01*
X203413Y864840D01*
X203807Y865824D01*
X204224Y866798D01*
X204666Y867762D01*
X205131Y868714D01*
X205619Y869655D01*
X206130Y870583D01*
X206663Y871499D01*
X207219Y872401D01*
X207797Y873290D01*
X208397Y874163D01*
X209017Y875022D01*
X209659Y875866D01*
X210321Y876693D01*
X211004Y877504D01*
X211706Y878298D01*
X212427Y879074D01*
X213167Y879833D01*
X213926Y880573D01*
X214702Y881294D01*
X215496Y881996D01*
X216307Y882679D01*
X217134Y883341D01*
X217978Y883983D01*
X218837Y884603D01*
X219710Y885203D01*
X220599Y885781D01*
X221501Y886337D01*
X222417Y886870D01*
X223345Y887381D01*
X224286Y887869D01*
X225238Y888334D01*
X226202Y888776D01*
X227176Y889193D01*
X228160Y889587D01*
X229153Y889956D01*
X230155Y890301D01*
X231166Y890621D01*
X232183Y890916D01*
X233208Y891186D01*
X234239Y891431D01*
X235276Y891650D01*
X236318Y891844D01*
X237364Y892013D01*
X238414Y892155D01*
X239468Y892272D01*
X240523Y892363D01*
X241581Y892428D01*
X242640Y892467D01*
X243700Y892480D01*
X244760Y892467D01*
X245819Y892428D01*
X246877Y892363D01*
X247932Y892272D01*
X248986Y892155D01*
X250036Y892013D01*
X251082Y891844D01*
X252124Y891650D01*
X253161Y891431D01*
X254192Y891186D01*
X255217Y890916D01*
X256234Y890621D01*
X257245Y890301D01*
X258247Y889956D01*
X259240Y889587D01*
X260224Y889193D01*
X261198Y888776D01*
X262162Y888334D01*
X263114Y887869D01*
X264055Y887381D01*
X264983Y886870D01*
X265899Y886337D01*
X266801Y885781D01*
X267690Y885203D01*
X268563Y884603D01*
X269422Y883983D01*
X270266Y883341D01*
X271093Y882679D01*
X271904Y881996D01*
X272698Y881294D01*
X273474Y880573D01*
X274233Y879833D01*
X274973Y879074D01*
X275694Y878298D01*
X276396Y877504D01*
X277079Y876693D01*
X277741Y875866D01*
X278383Y875022D01*
X279003Y874163D01*
X279603Y873290D01*
X280181Y872401D01*
X280737Y871499D01*
X281270Y870583D01*
X281781Y869655D01*
X282269Y868714D01*
X282734Y867762D01*
X283176Y866798D01*
X283593Y865824D01*
X283987Y864840D01*
X284356Y863847D01*
X284701Y862845D01*
X285021Y861834D01*
X285316Y860817D01*
X285586Y859792D01*
X285831Y858761D01*
X286050Y857724D01*
X286244Y856682D01*
X286413Y855636D01*
X286555Y854586D01*
X286672Y853532D01*
X286763Y852477D01*
X286828Y851419D01*
X286867Y850360D01*
X286880Y849300D01*
X286867Y848240D01*
X286828Y847181D01*
X286763Y846123D01*
X286672Y845068D01*
X286555Y844014D01*
X286413Y842964D01*
X286244Y841918D01*
X286050Y840876D01*
X285831Y839839D01*
X285586Y838808D01*
X285316Y837783D01*
X285021Y836766D01*
X284701Y835755D01*
X284356Y834753D01*
X283987Y833760D01*
X283593Y832776D01*
X283176Y831802D01*
X282734Y830838D01*
X282269Y829886D01*
X281781Y828945D01*
X281270Y828017D01*
X280737Y827101D01*
X280181Y826199D01*
X279603Y825310D01*
X279003Y824437D01*
X278383Y823578D01*
X277741Y822734D01*
X277079Y821907D01*
X276396Y821096D01*
X275694Y820302D01*
X274973Y819526D01*
X274233Y818767D01*
X273474Y818027D01*
X272698Y817306D01*
X271904Y816604D01*
X271093Y815921D01*
X270266Y815259D01*
X269422Y814617D01*
X268563Y813997D01*
X267690Y813397D01*
X266801Y812819D01*
X265899Y812263D01*
X264983Y811730D01*
X264055Y811219D01*
X263114Y810731D01*
X262162Y810266D01*
X261198Y809824D01*
X260224Y809407D01*
X259240Y809013D01*
X258247Y808644D01*
X257245Y808299D01*
X256234Y807979D01*
X255217Y807684D01*
X254192Y807414D01*
X253161Y807169D01*
X252124Y806950D01*
X251082Y806756D01*
X250036Y806587D01*
X248986Y806445D01*
X247932Y806328D01*
X246877Y806237D01*
X245819Y806172D01*
X244760Y806133D01*
X243700Y806120D01*
X242640Y806133D01*
X241581Y806172D01*
X240523Y806237D01*
X239468Y806328D01*
X238414Y806445D01*
X237364Y806587D01*
X236318Y806756D01*
X235276Y806950D01*
X234239Y807169D01*
X233208Y807414D01*
X232183Y807684D01*
X231166Y807979D01*
X230155Y808299D01*
X229153Y808644D01*
X228160Y809013D01*
X227176Y809407D01*
X226202Y809824D01*
X225238Y810266D01*
X224286Y810731D01*
X223345Y811219D01*
X222417Y811730D01*
X221501Y812263D01*
X220599Y812819D01*
X219710Y813397D01*
X218837Y813997D01*
X217978Y814617D01*
X217134Y815259D01*
X216307Y815921D01*
X215496Y816604D01*
X214702Y817306D01*
X213926Y818027D01*
X213167Y818767D01*
X212427Y819526D01*
X211706Y820302D01*
X211004Y821096D01*
X210321Y821907D01*
X209659Y822734D01*
X209017Y823578D01*
X208397Y824437D01*
X207797Y825310D01*
X207219Y826199D01*
X206663Y827101D01*
X206130Y828017D01*
X205619Y828945D01*
X205131Y829886D01*
X204666Y830838D01*
X204224Y831802D01*
X203807Y832776D01*
X203413Y833760D01*
X203044Y834753D01*
X202699Y835755D01*
X202379Y836766D01*
X202084Y837783D01*
X201814Y838808D01*
X201569Y839839D01*
X201350Y840876D01*
X201156Y841918D01*
X200987Y842964D01*
X200845Y844014D01*
X200728Y845068D01*
X200637Y846123D01*
X200572Y847181D01*
X200533Y848240D01*
X200520Y849300D01*
X200520Y870890D02*
X200522Y870990D01*
X200528Y871091D01*
X200538Y871190D01*
X200552Y871290D01*
X200569Y871389D01*
X200591Y871487D01*
X200617Y871584D01*
X200646Y871680D01*
X200679Y871774D01*
X200716Y871868D01*
X200756Y871960D01*
X200800Y872050D01*
X200848Y872138D01*
X200899Y872225D01*
X200953Y872309D01*
X201011Y872391D01*
X201072Y872471D01*
X201136Y872548D01*
X201203Y872623D01*
X201273Y872695D01*
X201346Y872764D01*
X201421Y872830D01*
X201499Y872894D01*
X201579Y872954D01*
X201662Y873011D01*
X201747Y873064D01*
X201834Y873114D01*
X201923Y873161D01*
X202013Y873204D01*
X202105Y873244D01*
X202199Y873280D01*
X202294Y873312D01*
X202390Y873340D01*
X202488Y873365D01*
X202586Y873385D01*
X202685Y873402D01*
X202785Y873415D01*
X202884Y873424D01*
X202985Y873429D01*
X203085Y873430D01*
X203185Y873427D01*
X203286Y873420D01*
X203385Y873409D01*
X203485Y873394D01*
X203583Y873376D01*
X203681Y873353D01*
X203778Y873326D01*
X203873Y873296D01*
X203968Y873262D01*
X204061Y873224D01*
X204152Y873183D01*
X204242Y873138D01*
X204330Y873090D01*
X204416Y873038D01*
X204500Y872983D01*
X204581Y872924D01*
X204660Y872862D01*
X204737Y872798D01*
X204811Y872730D01*
X204882Y872659D01*
X204951Y872586D01*
X205016Y872510D01*
X205079Y872431D01*
X205138Y872350D01*
X205194Y872267D01*
X205247Y872182D01*
X205296Y872094D01*
X205342Y872005D01*
X205384Y871914D01*
X205423Y871821D01*
X205458Y871727D01*
X205489Y871632D01*
X205517Y871535D01*
X205540Y871438D01*
X205560Y871339D01*
X205576Y871240D01*
X205588Y871141D01*
X205596Y871040D01*
X205600Y870940D01*
X205600Y870840D01*
X205596Y870740D01*
X205588Y870639D01*
X205576Y870540D01*
X205560Y870441D01*
X205540Y870342D01*
X205517Y870245D01*
X205489Y870148D01*
X205458Y870053D01*
X205423Y869959D01*
X205384Y869866D01*
X205342Y869775D01*
X205296Y869686D01*
X205247Y869598D01*
X205194Y869513D01*
X205138Y869430D01*
X205079Y869349D01*
X205016Y869270D01*
X204951Y869194D01*
X204882Y869121D01*
X204811Y869050D01*
X204737Y868982D01*
X204660Y868918D01*
X204581Y868856D01*
X204500Y868797D01*
X204416Y868742D01*
X204330Y868690D01*
X204242Y868642D01*
X204152Y868597D01*
X204061Y868556D01*
X203968Y868518D01*
X203873Y868484D01*
X203778Y868454D01*
X203681Y868427D01*
X203583Y868404D01*
X203485Y868386D01*
X203385Y868371D01*
X203286Y868360D01*
X203185Y868353D01*
X203085Y868350D01*
X202985Y868351D01*
X202884Y868356D01*
X202785Y868365D01*
X202685Y868378D01*
X202586Y868395D01*
X202488Y868415D01*
X202390Y868440D01*
X202294Y868468D01*
X202199Y868500D01*
X202105Y868536D01*
X202013Y868576D01*
X201923Y868619D01*
X201834Y868666D01*
X201747Y868716D01*
X201662Y868769D01*
X201579Y868826D01*
X201499Y868886D01*
X201421Y868950D01*
X201346Y869016D01*
X201273Y869085D01*
X201203Y869157D01*
X201136Y869232D01*
X201072Y869309D01*
X201011Y869389D01*
X200953Y869471D01*
X200899Y869555D01*
X200848Y869642D01*
X200800Y869730D01*
X200756Y869820D01*
X200716Y869912D01*
X200679Y870006D01*
X200646Y870100D01*
X200617Y870196D01*
X200591Y870293D01*
X200569Y870391D01*
X200552Y870490D01*
X200538Y870590D01*
X200528Y870689D01*
X200522Y870790D01*
X200520Y870890D01*
D13*
X217200Y575300D02*
X274200Y575300D01*
X274200Y590300D01*
X274200Y598300D02*
X274200Y613300D01*
X217200Y613300D01*
X217200Y598300D01*
X217200Y590300D02*
X217200Y575300D01*
X217200Y590300D02*
X217318Y590358D01*
X217434Y590420D01*
X217548Y590485D01*
X217660Y590553D01*
X217770Y590625D01*
X217878Y590700D01*
X217984Y590778D01*
X218087Y590859D01*
X218188Y590943D01*
X218286Y591030D01*
X218382Y591120D01*
X218475Y591213D01*
X218565Y591309D01*
X218652Y591407D01*
X218737Y591508D01*
X218818Y591611D01*
X218896Y591716D01*
X218971Y591824D01*
X219043Y591934D01*
X219112Y592046D01*
X219177Y592160D01*
X219238Y592276D01*
X219297Y592394D01*
X219352Y592513D01*
X219403Y592634D01*
X219450Y592757D01*
X219494Y592880D01*
X219535Y593006D01*
X219571Y593132D01*
X219604Y593259D01*
X219633Y593387D01*
X219658Y593516D01*
X219679Y593646D01*
X219697Y593776D01*
X219710Y593906D01*
X219720Y594037D01*
X219726Y594169D01*
X219728Y594300D01*
X219726Y594431D01*
X219720Y594563D01*
X219710Y594694D01*
X219697Y594824D01*
X219679Y594954D01*
X219658Y595084D01*
X219633Y595213D01*
X219604Y595341D01*
X219571Y595468D01*
X219535Y595594D01*
X219494Y595720D01*
X219450Y595843D01*
X219403Y595966D01*
X219352Y596087D01*
X219297Y596206D01*
X219238Y596324D01*
X219177Y596440D01*
X219112Y596554D01*
X219043Y596666D01*
X218971Y596776D01*
X218896Y596884D01*
X218818Y596989D01*
X218737Y597092D01*
X218652Y597193D01*
X218565Y597291D01*
X218475Y597387D01*
X218382Y597480D01*
X218286Y597570D01*
X218188Y597657D01*
X218087Y597741D01*
X217984Y597822D01*
X217878Y597900D01*
X217770Y597975D01*
X217660Y598047D01*
X217548Y598115D01*
X217434Y598180D01*
X217318Y598242D01*
X217200Y598300D01*
X274200Y598300D02*
X274082Y598242D01*
X273966Y598180D01*
X273852Y598115D01*
X273740Y598047D01*
X273630Y597975D01*
X273522Y597900D01*
X273416Y597822D01*
X273313Y597741D01*
X273212Y597657D01*
X273114Y597570D01*
X273018Y597480D01*
X272925Y597387D01*
X272835Y597291D01*
X272748Y597193D01*
X272663Y597092D01*
X272582Y596989D01*
X272504Y596884D01*
X272429Y596776D01*
X272357Y596666D01*
X272288Y596554D01*
X272223Y596440D01*
X272162Y596324D01*
X272103Y596206D01*
X272048Y596087D01*
X271997Y595966D01*
X271950Y595843D01*
X271906Y595720D01*
X271865Y595594D01*
X271829Y595468D01*
X271796Y595341D01*
X271767Y595213D01*
X271742Y595084D01*
X271721Y594954D01*
X271703Y594824D01*
X271690Y594694D01*
X271680Y594563D01*
X271674Y594431D01*
X271672Y594300D01*
X271674Y594169D01*
X271680Y594037D01*
X271690Y593906D01*
X271703Y593776D01*
X271721Y593646D01*
X271742Y593516D01*
X271767Y593387D01*
X271796Y593259D01*
X271829Y593132D01*
X271865Y593006D01*
X271906Y592880D01*
X271950Y592757D01*
X271997Y592634D01*
X272048Y592513D01*
X272103Y592394D01*
X272162Y592276D01*
X272223Y592160D01*
X272288Y592046D01*
X272357Y591934D01*
X272429Y591824D01*
X272504Y591716D01*
X272582Y591611D01*
X272663Y591508D01*
X272748Y591407D01*
X272835Y591309D01*
X272925Y591213D01*
X273018Y591120D01*
X273114Y591030D01*
X273212Y590943D01*
X273313Y590859D01*
X273416Y590778D01*
X273522Y590700D01*
X273630Y590625D01*
X273740Y590553D01*
X273852Y590485D01*
X273966Y590420D01*
X274082Y590358D01*
X274200Y590300D01*
D11*
X220103Y579721D02*
X219327Y579100D01*
X220103Y579721D02*
X220103Y576927D01*
X219327Y576927D02*
X220879Y576927D01*
D10*
X205000Y666000D02*
X187000Y666000D01*
X205000Y666000D02*
X205000Y630000D01*
X187000Y630000D01*
X187000Y666000D01*
X313349Y677000D02*
X331349Y677000D01*
X313349Y677000D02*
X313349Y713000D01*
X331349Y713000D01*
X331349Y677000D01*
X279000Y726000D02*
X261000Y726000D01*
X261000Y762000D01*
X279000Y762000D01*
X279000Y726000D01*
X174000Y573000D02*
X156000Y573000D01*
X156000Y609000D01*
X174000Y609000D01*
X174000Y573000D01*
X215000Y666000D02*
X233000Y666000D01*
X233000Y630000D01*
X215000Y630000D01*
X215000Y666000D01*
X159000Y789000D02*
X159000Y807000D01*
X195000Y807000D01*
X195000Y789000D01*
X159000Y789000D01*
X331000Y789000D02*
X331000Y807000D01*
X331000Y789000D02*
X295000Y789000D01*
X295000Y807000D01*
X331000Y807000D01*
X174000Y630000D02*
X156000Y630000D01*
X156000Y666000D01*
X174000Y666000D01*
X174000Y630000D01*
M02*
