G04 EAGLE Gerber RS-274X export*
G75*
%MOMM*%
%FSLAX34Y34*%
%LPD*%
%INSoldermask Top*%
%IPPOS*%
%AMOC8*
5,1,8,0,0,1.08239X$1,22.5*%
G01*
%ADD10R,8.203200X3.503200*%
%ADD11R,1.219200X1.346200*%
%ADD12R,0.503200X1.703200*%
%ADD13R,0.893200X1.403200*%
%ADD14C,1.511200*%
%ADD15C,1.611200*%
%ADD16R,1.703200X1.503200*%
%ADD17R,1.503200X1.703200*%


D10*
X197600Y757500D03*
X197600Y710500D03*
D11*
X281100Y706060D03*
X289990Y685740D03*
X272210Y685740D03*
D12*
X307500Y581300D03*
X314000Y581300D03*
X320500Y581300D03*
X327000Y581300D03*
X307500Y636800D03*
X314000Y636800D03*
X320500Y636800D03*
X327000Y636800D03*
D13*
X307222Y737399D03*
X316722Y737399D03*
X326222Y737399D03*
X326222Y763401D03*
X307222Y763401D03*
D14*
X243700Y831520D03*
X220840Y855650D03*
X266560Y855650D03*
D15*
X225700Y584300D03*
X225700Y604300D03*
X245700Y584300D03*
X245700Y604300D03*
X265700Y584300D03*
X265700Y604300D03*
D16*
X196000Y638500D03*
X196000Y657500D03*
X322349Y704500D03*
X322349Y685500D03*
X270000Y753500D03*
X270000Y734500D03*
X165000Y600500D03*
X165000Y581500D03*
X224000Y638500D03*
X224000Y657500D03*
D17*
X186500Y798000D03*
X167500Y798000D03*
X303500Y798000D03*
X322500Y798000D03*
D16*
X165000Y657500D03*
X165000Y638500D03*
M02*
