G04 EAGLE Gerber RS-274X export*
G75*
%MOMM*%
%FSLAX34Y34*%
%LPD*%
%INTop Copper*%
%IPPOS*%
%AMOC8*
5,1,8,0,0,1.08239X$1,22.5*%
G01*
%ADD10R,1.258000X1.258000*%
%ADD11C,1.258000*%
%ADD12P,2.336880X8X112.500000*%
%ADD13C,1.530000*%
%ADD14R,1.530000X1.530000*%
%ADD15R,1.108000X1.108000*%
%ADD16R,1.651000X1.651000*%
%ADD17C,1.651000*%
%ADD18R,1.500000X1.300000*%
%ADD19R,1.000000X0.250000*%
%ADD20R,1.300000X1.500000*%
%ADD21C,1.408000*%
%ADD22C,0.152400*%
%ADD23C,0.756400*%


D10*
X770700Y51500D03*
X750700Y51500D03*
X770700Y31500D03*
X750700Y31500D03*
X490700Y51500D03*
X470600Y51400D03*
X490700Y31500D03*
X470700Y31600D03*
X220400Y153700D03*
X220400Y133700D03*
X200500Y133700D03*
X200500Y153700D03*
X200400Y413700D03*
X220300Y413800D03*
X200400Y433600D03*
X220600Y433700D03*
D11*
X810700Y51400D03*
X790600Y51500D03*
X810600Y31500D03*
X790700Y31600D03*
X730600Y51400D03*
X730700Y31400D03*
X710600Y51400D03*
X710700Y31400D03*
X690700Y31400D03*
X690600Y51400D03*
X670600Y51400D03*
X670500Y31400D03*
X650600Y51500D03*
X650700Y31400D03*
X630700Y51400D03*
X630600Y31500D03*
X610600Y51400D03*
X610700Y31400D03*
X590600Y51500D03*
X590600Y31500D03*
X570600Y51500D03*
X570600Y31400D03*
X550700Y51500D03*
X550700Y31400D03*
X530700Y51500D03*
X530700Y31400D03*
X510600Y51500D03*
X510600Y31400D03*
X450700Y51500D03*
X450700Y31400D03*
X430600Y51500D03*
X430600Y31400D03*
X220400Y113800D03*
X220400Y93700D03*
X200300Y113800D03*
X200300Y93700D03*
X220400Y193800D03*
X220400Y173700D03*
X200300Y193800D03*
X200300Y173700D03*
X220300Y233800D03*
X220300Y213700D03*
X200200Y233800D03*
X200200Y213700D03*
X220300Y273800D03*
X220300Y253700D03*
X200200Y273800D03*
X200200Y253700D03*
X220400Y313800D03*
X220400Y293700D03*
X200300Y313800D03*
X200300Y293700D03*
X220400Y353800D03*
X220400Y333700D03*
X200300Y353800D03*
X200300Y333700D03*
X220400Y393900D03*
X220400Y373800D03*
X200300Y393900D03*
X200300Y373800D03*
X220400Y473800D03*
X220400Y453700D03*
X200300Y473800D03*
X200300Y453700D03*
D12*
X79000Y393488D03*
X79000Y458512D03*
D13*
X50800Y166500D03*
X20800Y166500D03*
X50800Y136500D03*
X20800Y136500D03*
D14*
X50800Y196500D03*
D13*
X50800Y106500D03*
X20800Y196500D03*
X20800Y106500D03*
D15*
X844900Y34800D03*
X844900Y54800D03*
X844900Y74800D03*
X955700Y74800D03*
X955700Y54800D03*
X955700Y34800D03*
D16*
X793500Y128400D03*
D17*
X793500Y153800D03*
X793500Y179200D03*
X793500Y204600D03*
D18*
X713500Y152500D03*
X713500Y133500D03*
D19*
X405131Y385500D03*
X405131Y390500D03*
X405131Y395500D03*
X405131Y400500D03*
X405131Y405500D03*
X362869Y405500D03*
X362869Y400500D03*
X362869Y395500D03*
X362869Y390500D03*
X362869Y385500D03*
D20*
X314500Y338500D03*
X295500Y338500D03*
X294500Y372500D03*
X313500Y372500D03*
X295000Y403500D03*
X314000Y403500D03*
D18*
X440500Y359500D03*
X440500Y340500D03*
D20*
X506000Y434500D03*
X487000Y434500D03*
D18*
X506000Y391000D03*
X506000Y372000D03*
D21*
X702000Y392000D03*
X722000Y392000D03*
X702000Y372000D03*
X722000Y372000D03*
X702000Y352000D03*
X722000Y352000D03*
D22*
X200300Y93700D02*
X193588Y86988D01*
X39012Y86988D01*
X20800Y105200D01*
X20800Y106500D01*
X220400Y193088D02*
X220400Y193800D01*
X220400Y193088D02*
X211192Y183880D01*
X182296Y183880D01*
X150076Y151660D01*
X33112Y151660D01*
X20800Y136500D01*
X185036Y152400D02*
X199644Y152400D01*
X185036Y152400D02*
X139136Y106500D01*
X199644Y152400D02*
X200500Y153700D01*
X139136Y106500D02*
X50800Y106500D01*
X716074Y128400D02*
X793500Y128400D01*
X716074Y128400D02*
X713500Y133500D01*
X801720Y128400D02*
X807672Y134352D01*
X801720Y128400D02*
X793500Y128400D01*
X807672Y134352D02*
X807672Y408584D01*
X793356Y422900D02*
X706800Y422900D01*
X793356Y422900D02*
X807672Y408584D01*
X294500Y375500D02*
X294500Y372500D01*
X294500Y375500D02*
X294500Y403000D01*
X295000Y403500D01*
X295000Y457500D01*
X278700Y473800D02*
X220400Y473800D01*
X278700Y473800D02*
X295000Y457500D01*
X295500Y374500D02*
X295500Y338500D01*
X295500Y374500D02*
X294500Y375500D01*
X506000Y391000D02*
X506000Y434500D01*
X376500Y395500D02*
X362869Y395500D01*
X396000Y415000D02*
X396000Y443000D01*
X410500Y457500D01*
X497000Y457500D02*
X506000Y448500D01*
X506000Y434500D01*
X396000Y415000D02*
X376500Y395500D01*
X410500Y457500D02*
X497000Y457500D01*
X410500Y457500D02*
X295000Y457500D01*
X701000Y391000D02*
X702000Y392000D01*
X701000Y391000D02*
X506000Y391000D01*
X702000Y418100D02*
X706800Y422900D01*
X702000Y418100D02*
X702000Y392000D01*
X440500Y340500D02*
X438500Y338500D01*
X400000Y338500D01*
X314500Y338500D01*
X393500Y395500D02*
X405131Y395500D01*
X393500Y395500D02*
X391000Y393000D01*
X391000Y347500D01*
X400000Y338500D01*
X506000Y372000D02*
X506500Y372000D01*
X500500Y340500D02*
X440500Y340500D01*
X506500Y346500D02*
X506500Y372000D01*
X506500Y346500D02*
X500500Y340500D01*
X314500Y338500D02*
X314500Y318500D01*
X309500Y313500D01*
X278000Y313500D01*
X271000Y320500D01*
X243800Y433700D02*
X220600Y433700D01*
X271000Y406500D02*
X271000Y320500D01*
X271000Y406500D02*
X243800Y433700D01*
X506000Y372000D02*
X702000Y372000D01*
X362869Y390500D02*
X348000Y390500D01*
X335000Y403500D02*
X315500Y403500D01*
X314000Y403500D01*
X335000Y403500D02*
X348000Y390500D01*
X716000Y361500D02*
X746500Y361500D01*
X716000Y361500D02*
X713200Y361500D01*
X746500Y361500D02*
X758500Y349500D01*
X723000Y288000D02*
X272500Y288000D01*
D23*
X272500Y288000D03*
D22*
X758500Y323500D02*
X758500Y349500D01*
X758500Y323500D02*
X723000Y288000D01*
D23*
X314500Y428000D03*
D22*
X314500Y404500D01*
X315500Y403500D01*
X711500Y361500D02*
X713200Y361500D01*
X711500Y361500D02*
X702000Y352000D01*
D23*
X443500Y405500D03*
D22*
X405131Y405500D01*
X326000Y372500D02*
X313500Y372500D01*
X339000Y385500D02*
X362869Y385500D01*
X339000Y385500D02*
X326000Y372500D01*
X362869Y385500D02*
X363500Y384869D01*
D23*
X363500Y364000D03*
D22*
X363500Y384869D01*
D23*
X432200Y107400D03*
D22*
X432200Y75700D01*
X820300Y75700D01*
X828500Y67500D02*
X828500Y26000D01*
X828500Y67500D02*
X820300Y75700D01*
X954300Y54800D02*
X955700Y54800D01*
X835000Y19500D02*
X828500Y26000D01*
X835000Y19500D02*
X935000Y19500D01*
X941500Y26000D01*
X941500Y48500D01*
X947800Y54800D01*
X955700Y54800D01*
X432200Y75900D02*
X432200Y107400D01*
X432200Y75900D02*
X416900Y75900D01*
X401600Y60600D01*
X401600Y38900D01*
X409100Y31400D01*
X430600Y31400D01*
X955700Y74800D02*
X966700Y74800D01*
X971000Y70500D01*
X971000Y18184D01*
X964500Y11684D01*
X350316Y11684D01*
X341000Y21000D01*
X341000Y34500D01*
D23*
X341000Y34500D03*
D22*
X713500Y152500D02*
X714800Y153800D01*
X793500Y153800D01*
X210800Y363300D02*
X200300Y373800D01*
X210800Y363300D02*
X232800Y363300D01*
X250800Y345300D01*
X250800Y146344D01*
X271028Y126116D01*
X644810Y126116D01*
X688393Y152500D02*
X713500Y152500D01*
X688393Y152500D02*
X644810Y126116D01*
X199644Y213360D02*
X38100Y213360D01*
X21336Y196596D01*
X199644Y213360D02*
X200200Y213700D01*
X21336Y196596D02*
X20800Y196500D01*
X440500Y359500D02*
X440500Y375500D01*
X430500Y385500D02*
X405131Y385500D01*
X430500Y385500D02*
X440500Y375500D01*
X405131Y390500D02*
X480500Y390500D01*
X487000Y397000D02*
X487000Y434500D01*
X487000Y397000D02*
X480500Y390500D01*
M02*
