G04 EAGLE Gerber RS-274X export*
G75*
%MOMM*%
%FSLAX34Y34*%
%LPD*%
%INBottom Copper*%
%IPPOS*%
%AMOC8*
5,1,8,0,0,1.08239X$1,22.5*%
G01*
%ADD10R,1.920000X1.940000*%
%ADD11C,0.500000*%
%ADD12R,1.258000X1.258000*%
%ADD13C,1.258000*%
%ADD14P,2.336880X8X112.500000*%
%ADD15C,1.530000*%
%ADD16R,1.530000X1.530000*%
%ADD17R,1.500000X1.300000*%
%ADD18R,2.540000X0.635000*%
%ADD19R,1.108000X1.108000*%
%ADD20R,1.651000X1.651000*%
%ADD21C,1.651000*%
%ADD22C,1.408000*%
%ADD23C,0.152400*%
%ADD24C,0.756400*%


D10*
X586253Y211495D03*
X586053Y188495D03*
X586053Y165295D03*
D11*
X577677Y234395D02*
X577680Y234601D01*
X577687Y234806D01*
X577700Y235011D01*
X577717Y235216D01*
X577740Y235420D01*
X577768Y235624D01*
X577800Y235827D01*
X577838Y236029D01*
X577881Y236230D01*
X577928Y236430D01*
X577980Y236629D01*
X578038Y236826D01*
X578100Y237022D01*
X578167Y237217D01*
X578238Y237409D01*
X578315Y237600D01*
X578396Y237789D01*
X578481Y237976D01*
X578571Y238161D01*
X578666Y238343D01*
X578765Y238524D01*
X578869Y238701D01*
X578977Y238876D01*
X579089Y239048D01*
X579205Y239218D01*
X579325Y239385D01*
X579450Y239548D01*
X579578Y239709D01*
X579711Y239866D01*
X579847Y240020D01*
X579987Y240171D01*
X580130Y240318D01*
X580277Y240461D01*
X580428Y240601D01*
X580582Y240737D01*
X580739Y240870D01*
X580900Y240998D01*
X581063Y241123D01*
X581230Y241243D01*
X581400Y241359D01*
X581572Y241471D01*
X581747Y241579D01*
X581924Y241683D01*
X582105Y241782D01*
X582287Y241877D01*
X582472Y241967D01*
X582659Y242052D01*
X582848Y242133D01*
X583039Y242210D01*
X583231Y242281D01*
X583426Y242348D01*
X583622Y242410D01*
X583819Y242468D01*
X584018Y242520D01*
X584218Y242567D01*
X584419Y242610D01*
X584621Y242648D01*
X584824Y242680D01*
X585028Y242708D01*
X585232Y242731D01*
X585437Y242748D01*
X585642Y242761D01*
X585847Y242768D01*
X586053Y242771D01*
X586259Y242768D01*
X586464Y242761D01*
X586669Y242748D01*
X586874Y242731D01*
X587078Y242708D01*
X587282Y242680D01*
X587485Y242648D01*
X587687Y242610D01*
X587888Y242567D01*
X588088Y242520D01*
X588287Y242468D01*
X588484Y242410D01*
X588680Y242348D01*
X588875Y242281D01*
X589067Y242210D01*
X589258Y242133D01*
X589447Y242052D01*
X589634Y241967D01*
X589819Y241877D01*
X590001Y241782D01*
X590182Y241683D01*
X590359Y241579D01*
X590534Y241471D01*
X590706Y241359D01*
X590876Y241243D01*
X591043Y241123D01*
X591206Y240998D01*
X591367Y240870D01*
X591524Y240737D01*
X591678Y240601D01*
X591829Y240461D01*
X591976Y240318D01*
X592119Y240171D01*
X592259Y240020D01*
X592395Y239866D01*
X592528Y239709D01*
X592656Y239548D01*
X592781Y239385D01*
X592901Y239218D01*
X593017Y239048D01*
X593129Y238876D01*
X593237Y238701D01*
X593341Y238524D01*
X593440Y238343D01*
X593535Y238161D01*
X593625Y237976D01*
X593710Y237789D01*
X593791Y237600D01*
X593868Y237409D01*
X593939Y237217D01*
X594006Y237022D01*
X594068Y236826D01*
X594126Y236629D01*
X594178Y236430D01*
X594225Y236230D01*
X594268Y236029D01*
X594306Y235827D01*
X594338Y235624D01*
X594366Y235420D01*
X594389Y235216D01*
X594406Y235011D01*
X594419Y234806D01*
X594426Y234601D01*
X594429Y234395D01*
X594426Y234189D01*
X594419Y233984D01*
X594406Y233779D01*
X594389Y233574D01*
X594366Y233370D01*
X594338Y233166D01*
X594306Y232963D01*
X594268Y232761D01*
X594225Y232560D01*
X594178Y232360D01*
X594126Y232161D01*
X594068Y231964D01*
X594006Y231768D01*
X593939Y231573D01*
X593868Y231381D01*
X593791Y231190D01*
X593710Y231001D01*
X593625Y230814D01*
X593535Y230629D01*
X593440Y230447D01*
X593341Y230266D01*
X593237Y230089D01*
X593129Y229914D01*
X593017Y229742D01*
X592901Y229572D01*
X592781Y229405D01*
X592656Y229242D01*
X592528Y229081D01*
X592395Y228924D01*
X592259Y228770D01*
X592119Y228619D01*
X591976Y228472D01*
X591829Y228329D01*
X591678Y228189D01*
X591524Y228053D01*
X591367Y227920D01*
X591206Y227792D01*
X591043Y227667D01*
X590876Y227547D01*
X590706Y227431D01*
X590534Y227319D01*
X590359Y227211D01*
X590182Y227107D01*
X590001Y227008D01*
X589819Y226913D01*
X589634Y226823D01*
X589447Y226738D01*
X589258Y226657D01*
X589067Y226580D01*
X588875Y226509D01*
X588680Y226442D01*
X588484Y226380D01*
X588287Y226322D01*
X588088Y226270D01*
X587888Y226223D01*
X587687Y226180D01*
X587485Y226142D01*
X587282Y226110D01*
X587078Y226082D01*
X586874Y226059D01*
X586669Y226042D01*
X586464Y226029D01*
X586259Y226022D01*
X586053Y226019D01*
X585847Y226022D01*
X585642Y226029D01*
X585437Y226042D01*
X585232Y226059D01*
X585028Y226082D01*
X584824Y226110D01*
X584621Y226142D01*
X584419Y226180D01*
X584218Y226223D01*
X584018Y226270D01*
X583819Y226322D01*
X583622Y226380D01*
X583426Y226442D01*
X583231Y226509D01*
X583039Y226580D01*
X582848Y226657D01*
X582659Y226738D01*
X582472Y226823D01*
X582287Y226913D01*
X582105Y227008D01*
X581924Y227107D01*
X581747Y227211D01*
X581572Y227319D01*
X581400Y227431D01*
X581230Y227547D01*
X581063Y227667D01*
X580900Y227792D01*
X580739Y227920D01*
X580582Y228053D01*
X580428Y228189D01*
X580277Y228329D01*
X580130Y228472D01*
X579987Y228619D01*
X579847Y228770D01*
X579711Y228924D01*
X579578Y229081D01*
X579450Y229242D01*
X579325Y229405D01*
X579205Y229572D01*
X579089Y229742D01*
X578977Y229914D01*
X578869Y230089D01*
X578765Y230266D01*
X578666Y230447D01*
X578571Y230629D01*
X578481Y230814D01*
X578396Y231001D01*
X578315Y231190D01*
X578238Y231381D01*
X578167Y231573D01*
X578100Y231768D01*
X578038Y231964D01*
X577980Y232161D01*
X577928Y232360D01*
X577881Y232560D01*
X577838Y232761D01*
X577800Y232963D01*
X577768Y233166D01*
X577740Y233370D01*
X577717Y233574D01*
X577700Y233779D01*
X577687Y233984D01*
X577680Y234189D01*
X577677Y234395D01*
X582495Y234595D02*
X582497Y234717D01*
X582503Y234840D01*
X582513Y234961D01*
X582527Y235083D01*
X582545Y235204D01*
X582566Y235324D01*
X582592Y235444D01*
X582622Y235563D01*
X582655Y235680D01*
X582692Y235797D01*
X582733Y235912D01*
X582778Y236026D01*
X582827Y236138D01*
X582879Y236249D01*
X582934Y236358D01*
X582993Y236465D01*
X583056Y236570D01*
X583122Y236673D01*
X583191Y236774D01*
X583264Y236873D01*
X583340Y236969D01*
X583418Y237062D01*
X583500Y237153D01*
X583585Y237241D01*
X583672Y237327D01*
X583763Y237409D01*
X583856Y237489D01*
X583951Y237566D01*
X584049Y237639D01*
X584149Y237709D01*
X584252Y237776D01*
X584356Y237839D01*
X584463Y237899D01*
X584571Y237956D01*
X584682Y238009D01*
X584794Y238058D01*
X584907Y238104D01*
X585022Y238146D01*
X585138Y238184D01*
X585256Y238218D01*
X585374Y238249D01*
X585494Y238275D01*
X585614Y238298D01*
X585735Y238317D01*
X585856Y238332D01*
X585978Y238343D01*
X586100Y238350D01*
X586222Y238353D01*
X586345Y238352D01*
X586467Y238347D01*
X586589Y238338D01*
X586711Y238325D01*
X586832Y238308D01*
X586952Y238287D01*
X587072Y238263D01*
X587191Y238234D01*
X587309Y238202D01*
X587426Y238165D01*
X587542Y238125D01*
X587656Y238081D01*
X587768Y238034D01*
X587880Y237983D01*
X587989Y237928D01*
X588097Y237870D01*
X588202Y237808D01*
X588306Y237743D01*
X588407Y237674D01*
X588506Y237603D01*
X588603Y237528D01*
X588697Y237450D01*
X588789Y237369D01*
X588878Y237285D01*
X588964Y237198D01*
X589047Y237108D01*
X589127Y237016D01*
X589205Y236921D01*
X589279Y236824D01*
X589350Y236724D01*
X589417Y236622D01*
X589482Y236518D01*
X589543Y236412D01*
X589600Y236304D01*
X589654Y236194D01*
X589704Y236082D01*
X589751Y235969D01*
X589794Y235855D01*
X589833Y235739D01*
X589868Y235622D01*
X589900Y235503D01*
X589927Y235384D01*
X589951Y235264D01*
X589971Y235144D01*
X589987Y235022D01*
X589999Y234901D01*
X590007Y234778D01*
X590011Y234656D01*
X590011Y234534D01*
X590007Y234412D01*
X589999Y234289D01*
X589987Y234168D01*
X589971Y234046D01*
X589951Y233926D01*
X589927Y233806D01*
X589900Y233687D01*
X589868Y233568D01*
X589833Y233451D01*
X589794Y233335D01*
X589751Y233221D01*
X589704Y233108D01*
X589654Y232996D01*
X589600Y232886D01*
X589543Y232778D01*
X589482Y232672D01*
X589417Y232568D01*
X589350Y232466D01*
X589279Y232366D01*
X589205Y232269D01*
X589127Y232174D01*
X589047Y232082D01*
X588964Y231992D01*
X588878Y231905D01*
X588789Y231821D01*
X588697Y231740D01*
X588603Y231662D01*
X588506Y231587D01*
X588407Y231516D01*
X588306Y231447D01*
X588202Y231382D01*
X588097Y231320D01*
X587989Y231262D01*
X587880Y231207D01*
X587768Y231156D01*
X587656Y231109D01*
X587542Y231065D01*
X587426Y231025D01*
X587309Y230988D01*
X587191Y230956D01*
X587072Y230927D01*
X586952Y230903D01*
X586832Y230882D01*
X586711Y230865D01*
X586589Y230852D01*
X586467Y230843D01*
X586345Y230838D01*
X586222Y230837D01*
X586100Y230840D01*
X585978Y230847D01*
X585856Y230858D01*
X585735Y230873D01*
X585614Y230892D01*
X585494Y230915D01*
X585374Y230941D01*
X585256Y230972D01*
X585138Y231006D01*
X585022Y231044D01*
X584907Y231086D01*
X584794Y231132D01*
X584682Y231181D01*
X584571Y231234D01*
X584463Y231291D01*
X584356Y231351D01*
X584252Y231414D01*
X584149Y231481D01*
X584049Y231551D01*
X583951Y231624D01*
X583856Y231701D01*
X583763Y231781D01*
X583672Y231863D01*
X583585Y231949D01*
X583500Y232037D01*
X583418Y232128D01*
X583340Y232221D01*
X583264Y232317D01*
X583191Y232416D01*
X583122Y232517D01*
X583056Y232620D01*
X582993Y232725D01*
X582934Y232832D01*
X582879Y232941D01*
X582827Y233052D01*
X582778Y233164D01*
X582733Y233278D01*
X582692Y233393D01*
X582655Y233510D01*
X582622Y233627D01*
X582592Y233746D01*
X582566Y233866D01*
X582545Y233986D01*
X582527Y234107D01*
X582513Y234229D01*
X582503Y234350D01*
X582497Y234473D01*
X582495Y234595D01*
X585621Y234795D02*
X585623Y234845D01*
X585629Y234894D01*
X585638Y234943D01*
X585652Y234990D01*
X585669Y235037D01*
X585690Y235082D01*
X585714Y235125D01*
X585742Y235166D01*
X585772Y235205D01*
X585806Y235242D01*
X585843Y235276D01*
X585882Y235306D01*
X585923Y235334D01*
X585966Y235358D01*
X586011Y235379D01*
X586058Y235396D01*
X586105Y235410D01*
X586154Y235419D01*
X586203Y235425D01*
X586253Y235427D01*
X586303Y235425D01*
X586352Y235419D01*
X586401Y235410D01*
X586448Y235396D01*
X586495Y235379D01*
X586540Y235358D01*
X586583Y235334D01*
X586624Y235306D01*
X586663Y235276D01*
X586700Y235242D01*
X586734Y235205D01*
X586764Y235166D01*
X586792Y235125D01*
X586816Y235082D01*
X586837Y235037D01*
X586854Y234990D01*
X586868Y234943D01*
X586877Y234894D01*
X586883Y234845D01*
X586885Y234795D01*
X586883Y234745D01*
X586877Y234696D01*
X586868Y234647D01*
X586854Y234600D01*
X586837Y234553D01*
X586816Y234508D01*
X586792Y234465D01*
X586764Y234424D01*
X586734Y234385D01*
X586700Y234348D01*
X586663Y234314D01*
X586624Y234284D01*
X586583Y234256D01*
X586540Y234232D01*
X586495Y234211D01*
X586448Y234194D01*
X586401Y234180D01*
X586352Y234171D01*
X586303Y234165D01*
X586253Y234163D01*
X586203Y234165D01*
X586154Y234171D01*
X586105Y234180D01*
X586058Y234194D01*
X586011Y234211D01*
X585966Y234232D01*
X585923Y234256D01*
X585882Y234284D01*
X585843Y234314D01*
X585806Y234348D01*
X585772Y234385D01*
X585742Y234424D01*
X585714Y234465D01*
X585690Y234508D01*
X585669Y234553D01*
X585652Y234600D01*
X585638Y234647D01*
X585629Y234696D01*
X585623Y234745D01*
X585621Y234795D01*
D10*
X563253Y211495D03*
X563053Y234495D03*
X563053Y188495D03*
X563053Y165295D03*
X540253Y234295D03*
X540253Y188295D03*
D12*
X770700Y51500D03*
X750700Y51500D03*
X770700Y31500D03*
X750700Y31500D03*
X490700Y51500D03*
X470600Y51400D03*
X490700Y31500D03*
X470700Y31600D03*
X220400Y153700D03*
X220400Y133700D03*
X200500Y133700D03*
X200500Y153700D03*
X200400Y413700D03*
X220300Y413800D03*
X200400Y433600D03*
X220600Y433700D03*
D13*
X810700Y51400D03*
X790600Y51500D03*
X810600Y31500D03*
X790700Y31600D03*
X730600Y51400D03*
X730700Y31400D03*
X710600Y51400D03*
X710700Y31400D03*
X690700Y31400D03*
X690600Y51400D03*
X670600Y51400D03*
X670500Y31400D03*
X650600Y51500D03*
X650700Y31400D03*
X630700Y51400D03*
X630600Y31500D03*
X610600Y51400D03*
X610700Y31400D03*
X590600Y51500D03*
X590600Y31500D03*
X570600Y51500D03*
X570600Y31400D03*
X550700Y51500D03*
X550700Y31400D03*
X530700Y51500D03*
X530700Y31400D03*
X510600Y51500D03*
X510600Y31400D03*
X450700Y51500D03*
X450700Y31400D03*
X430600Y51500D03*
X430600Y31400D03*
X220400Y113800D03*
X220400Y93700D03*
X200300Y113800D03*
X200300Y93700D03*
X220400Y193800D03*
X220400Y173700D03*
X200300Y193800D03*
X200300Y173700D03*
X220300Y233800D03*
X220300Y213700D03*
X200200Y233800D03*
X200200Y213700D03*
X220300Y273800D03*
X220300Y253700D03*
X200200Y273800D03*
X200200Y253700D03*
X220400Y313800D03*
X220400Y293700D03*
X200300Y313800D03*
X200300Y293700D03*
X220400Y353800D03*
X220400Y333700D03*
X200300Y353800D03*
X200300Y333700D03*
X220400Y393900D03*
X220400Y373800D03*
X200300Y393900D03*
X200300Y373800D03*
X220400Y473800D03*
X220400Y453700D03*
X200300Y473800D03*
X200300Y453700D03*
D14*
X79000Y393488D03*
X79000Y458512D03*
D15*
X50800Y166500D03*
X20800Y166500D03*
X50800Y136500D03*
X20800Y136500D03*
D16*
X50800Y196500D03*
D15*
X50800Y106500D03*
X20800Y196500D03*
X20800Y106500D03*
D17*
X378100Y63050D03*
X378100Y82050D03*
X403300Y189700D03*
X403300Y170700D03*
D18*
X353600Y193800D03*
X353600Y183800D03*
X353600Y173800D03*
X353600Y163800D03*
X288200Y163800D03*
X288200Y173800D03*
X288200Y183800D03*
X288200Y193800D03*
D17*
X340600Y82050D03*
X340600Y63050D03*
X299400Y82050D03*
X299400Y63050D03*
D19*
X844900Y34800D03*
X844900Y54800D03*
X844900Y74800D03*
X955700Y74800D03*
X955700Y54800D03*
X955700Y34800D03*
D20*
X793500Y128400D03*
D21*
X793500Y153800D03*
X793500Y179200D03*
X793500Y204600D03*
D22*
X702000Y392000D03*
X722000Y392000D03*
X702000Y372000D03*
X722000Y372000D03*
X702000Y352000D03*
X722000Y352000D03*
D23*
X131100Y459100D02*
X130512Y458512D01*
X133600Y459100D02*
X161416Y486916D01*
X240600Y480100D02*
X240600Y362000D01*
X232400Y353800D01*
X220400Y353800D01*
X233784Y486916D02*
X161416Y486916D01*
X233784Y486916D02*
X240600Y480100D01*
X133600Y459100D02*
X131100Y459100D01*
X79588Y459100D01*
X79000Y458512D01*
X131988Y393488D02*
X172500Y434000D01*
X200000Y434000D01*
X200400Y433600D01*
X131988Y393488D02*
X79000Y393488D01*
X200200Y353900D02*
X200300Y353800D01*
X174924Y353800D01*
X160448Y339324D01*
X160448Y186340D01*
X141248Y167140D01*
X51440Y167140D01*
X50800Y166500D01*
X793500Y204600D02*
X793500Y348632D01*
X780632Y361500D01*
X712000Y361500D01*
X702000Y371500D01*
X702000Y372000D01*
D24*
X272500Y288000D03*
D23*
X256500Y288000D01*
X231500Y263000D02*
X209500Y263000D01*
X200200Y253700D01*
X231500Y263000D02*
X256500Y288000D01*
X272500Y288000D02*
X272500Y415500D01*
D24*
X314500Y428000D03*
D23*
X285000Y428000D02*
X272500Y415500D01*
X285000Y428000D02*
X314500Y428000D01*
D24*
X443500Y405500D03*
D23*
X669000Y405500D01*
X677500Y414000D01*
X719500Y414000D01*
X724700Y408800D01*
X724700Y394700D02*
X722000Y392000D01*
X724700Y394700D02*
X724700Y408800D01*
X755800Y381700D02*
X746100Y372000D01*
X755800Y381700D02*
X755800Y414000D01*
X716100Y453700D01*
X268600Y453700D01*
X250900Y324800D02*
X239900Y313800D01*
X220400Y313800D01*
X250900Y324800D02*
X250900Y436000D01*
X268600Y453700D01*
X722000Y372000D02*
X746100Y372000D01*
D24*
X363500Y364000D03*
D23*
X363500Y317000D01*
X371000Y309500D01*
X715500Y309500D01*
X724700Y318700D01*
X209900Y243500D02*
X200200Y233800D01*
X305000Y243500D02*
X371000Y309500D01*
X305000Y243500D02*
X209900Y243500D01*
X724700Y318700D02*
X724700Y349300D01*
X722000Y352000D01*
X372700Y183800D02*
X353600Y183800D01*
X401300Y172700D02*
X403300Y170700D01*
X401300Y172700D02*
X383800Y172700D01*
X372700Y183800D01*
X403300Y170700D02*
X403300Y101700D01*
X417000Y88000D01*
X852500Y88000D01*
X860500Y80000D01*
X860500Y62500D01*
X852800Y54800D02*
X844900Y54800D01*
X852800Y54800D02*
X860500Y62500D01*
X302700Y133700D02*
X220400Y133700D01*
X315000Y146000D02*
X315000Y176000D01*
X322800Y183800D01*
X353600Y183800D01*
X315000Y146000D02*
X302700Y133700D01*
X288200Y183800D02*
X288200Y193800D01*
X353600Y193800D01*
X399000Y194000D02*
X403300Y189700D01*
X399000Y194000D02*
X341100Y194000D01*
X353600Y193800D01*
X432200Y181300D02*
X432200Y107400D01*
X432200Y181300D02*
X423800Y189700D01*
X403300Y189700D01*
X432200Y107400D02*
X432200Y106700D01*
D24*
X432200Y107400D03*
D23*
X301372Y173188D02*
X300900Y173660D01*
X288200Y173800D01*
X300812Y173712D01*
X220412Y173712D01*
X220400Y173700D01*
X288200Y163800D02*
X300900Y163592D01*
X188408Y163592D01*
X181500Y170500D01*
X181500Y315992D01*
X189120Y323612D01*
X213912Y323612D01*
X220400Y333700D01*
X340900Y82350D02*
X340600Y82050D01*
X342250Y80400D01*
X340600Y82050D02*
X340600Y107600D01*
X353600Y120600D02*
X353600Y163800D01*
X353600Y120600D02*
X340600Y107600D01*
X362950Y63050D02*
X378100Y63050D01*
X359000Y67000D02*
X359000Y77000D01*
X353950Y82050D02*
X340600Y82050D01*
X359000Y67000D02*
X362950Y63050D01*
X359000Y77000D02*
X353950Y82050D01*
X353600Y173800D02*
X367200Y173800D01*
X378100Y162900D01*
X378100Y82050D01*
X323500Y122299D02*
X299400Y98200D01*
X299400Y82050D01*
X323500Y122299D02*
X323500Y168500D01*
X328800Y173800D01*
X353600Y173800D01*
D24*
X341000Y34500D03*
D23*
X341000Y62650D02*
X340600Y63050D01*
X341000Y62650D02*
X341000Y34500D01*
X311300Y16700D02*
X844900Y16700D01*
X311300Y16700D02*
X299400Y28600D01*
X299400Y63050D01*
X844900Y34800D02*
X844900Y16816D01*
X948554Y16816D01*
X955700Y23962D02*
X955700Y34800D01*
X955700Y23962D02*
X948554Y16816D01*
X844900Y16700D02*
X844900Y34800D01*
X200300Y393900D02*
X173472Y393900D01*
X152400Y372828D01*
X152400Y206364D01*
X127320Y181284D01*
X34980Y181284D01*
X21336Y167640D01*
X20800Y166500D01*
X219456Y373260D02*
X219456Y373380D01*
X219456Y373260D02*
X210312Y364116D01*
X210312Y348020D01*
X205692Y343400D01*
X182596Y343400D01*
X170496Y331300D01*
X170496Y172316D01*
X135180Y137000D01*
X51300Y137000D01*
X50800Y136500D01*
X219456Y373380D02*
X220400Y373800D01*
M02*
