G04 EAGLE Gerber RS-274X export*
G75*
%MOMM*%
%FSLAX34Y34*%
%LPD*%
%IN*%
%IPPOS*%
%AMOC8*
5,1,8,0,0,1.08239X$1,22.5*%
G01*
%ADD10C,0.254000*%


D10*
X0Y0D02*
X150000Y0D01*
X150000Y50000D01*
X240000Y50000D01*
X240000Y0D01*
X1000000Y0D01*
X1000000Y100000D01*
X820000Y100000D01*
X820000Y500000D01*
X0Y500000D01*
X0Y350000D01*
X140000Y350000D01*
X140000Y250000D01*
X0Y250000D01*
X0Y0D01*
X923000Y54355D02*
X923000Y55645D01*
X922928Y56934D01*
X922783Y58216D01*
X922567Y59489D01*
X922280Y60747D01*
X921922Y61987D01*
X921496Y63206D01*
X921002Y64398D01*
X920442Y65561D01*
X919818Y66690D01*
X919131Y67783D01*
X918384Y68836D01*
X917580Y69845D01*
X916720Y70807D01*
X915807Y71720D01*
X914845Y72580D01*
X913836Y73384D01*
X912783Y74131D01*
X911690Y74818D01*
X910561Y75442D01*
X909398Y76002D01*
X908206Y76496D01*
X906987Y76922D01*
X905747Y77280D01*
X904489Y77567D01*
X903216Y77783D01*
X901934Y77928D01*
X900645Y78000D01*
X899355Y78000D01*
X898066Y77928D01*
X896784Y77783D01*
X895511Y77567D01*
X894253Y77280D01*
X893013Y76922D01*
X891794Y76496D01*
X890602Y76002D01*
X889439Y75442D01*
X888310Y74818D01*
X887217Y74131D01*
X886164Y73384D01*
X885155Y72580D01*
X884193Y71720D01*
X883280Y70807D01*
X882420Y69845D01*
X881616Y68836D01*
X880869Y67783D01*
X880182Y66690D01*
X879558Y65561D01*
X878998Y64398D01*
X878504Y63206D01*
X878078Y61987D01*
X877720Y60747D01*
X877433Y59489D01*
X877217Y58216D01*
X877072Y56934D01*
X877000Y55645D01*
X877000Y54355D01*
X877072Y53066D01*
X877217Y51784D01*
X877433Y50511D01*
X877720Y49253D01*
X878078Y48013D01*
X878504Y46794D01*
X878998Y45602D01*
X879558Y44439D01*
X880182Y43310D01*
X880869Y42217D01*
X881616Y41164D01*
X882420Y40155D01*
X883280Y39193D01*
X884193Y38280D01*
X885155Y37420D01*
X886164Y36616D01*
X887217Y35869D01*
X888310Y35182D01*
X889439Y34558D01*
X890602Y33998D01*
X891794Y33504D01*
X893013Y33078D01*
X894253Y32720D01*
X895511Y32433D01*
X896784Y32217D01*
X898066Y32072D01*
X899355Y32000D01*
X900645Y32000D01*
X901934Y32072D01*
X903216Y32217D01*
X904489Y32433D01*
X905747Y32720D01*
X906987Y33078D01*
X908206Y33504D01*
X909398Y33998D01*
X910561Y34558D01*
X911690Y35182D01*
X912783Y35869D01*
X913836Y36616D01*
X914845Y37420D01*
X915807Y38280D01*
X916720Y39193D01*
X917580Y40155D01*
X918384Y41164D01*
X919131Y42217D01*
X919818Y43310D01*
X920442Y44439D01*
X921002Y45602D01*
X921496Y46794D01*
X921922Y48013D01*
X922280Y49253D01*
X922567Y50511D01*
X922783Y51784D01*
X922928Y53066D01*
X923000Y54355D01*
M02*
