G04 EAGLE Gerber RS-274X export*
G75*
%MOMM*%
%FSLAX34Y34*%
%LPD*%
%INSilkscreen Bottom*%
%IPPOS*%
%AMOC8*
5,1,8,0,0,1.08239X$1,22.5*%
G01*
%ADD10C,0.127000*%
%ADD11C,0.203200*%
%ADD12C,0.406400*%
%ADD13C,0.304800*%
%ADD14R,1.016000X1.016000*%


D10*
X448900Y317000D02*
X448900Y335000D01*
X412900Y335000D01*
X412900Y317000D01*
X448900Y317000D01*
X426800Y260700D02*
X426800Y242700D01*
X462800Y242700D01*
X462800Y260700D01*
X426800Y260700D01*
X578900Y283200D02*
X596900Y283200D01*
X578900Y283200D02*
X578900Y247200D01*
X596900Y247200D01*
X596900Y283200D01*
X347900Y260700D02*
X347900Y242700D01*
X383900Y242700D01*
X383900Y260700D01*
X347900Y260700D01*
X564900Y377400D02*
X564900Y395400D01*
X564900Y377400D02*
X600900Y377400D01*
X600900Y395400D01*
X564900Y395400D01*
X559900Y460500D02*
X559900Y478500D01*
X559900Y460500D02*
X595900Y460500D01*
X595900Y478500D01*
X559900Y478500D01*
X366000Y315700D02*
X348000Y315700D01*
X366000Y315700D02*
X366000Y351700D01*
X348000Y351700D01*
X348000Y315700D01*
X299300Y438600D02*
X281300Y438600D01*
X281300Y402600D01*
X299300Y402600D01*
X299300Y438600D01*
D11*
X464900Y450800D02*
X464900Y422800D01*
X464900Y450800D02*
X436900Y450800D01*
X436900Y422800D01*
X464900Y422800D01*
X445900Y428800D02*
X445898Y428692D01*
X445892Y428584D01*
X445882Y428476D01*
X445869Y428368D01*
X445851Y428261D01*
X445830Y428155D01*
X445805Y428050D01*
X445776Y427945D01*
X445743Y427842D01*
X445707Y427740D01*
X445666Y427639D01*
X445623Y427540D01*
X445575Y427443D01*
X445525Y427347D01*
X445471Y427253D01*
X445413Y427162D01*
X445352Y427072D01*
X445288Y426984D01*
X445221Y426899D01*
X445151Y426817D01*
X445078Y426737D01*
X445002Y426660D01*
X444923Y426585D01*
X444842Y426514D01*
X444758Y426445D01*
X444672Y426379D01*
X444584Y426317D01*
X444493Y426258D01*
X444400Y426202D01*
X444305Y426149D01*
X444209Y426100D01*
X444110Y426055D01*
X444010Y426013D01*
X443909Y425975D01*
X443806Y425940D01*
X443703Y425909D01*
X443598Y425882D01*
X443492Y425859D01*
X443385Y425840D01*
X443278Y425824D01*
X443170Y425812D01*
X443062Y425804D01*
X442954Y425800D01*
X442846Y425800D01*
X442738Y425804D01*
X442630Y425812D01*
X442522Y425824D01*
X442415Y425840D01*
X442308Y425859D01*
X442202Y425882D01*
X442097Y425909D01*
X441994Y425940D01*
X441891Y425975D01*
X441790Y426013D01*
X441690Y426055D01*
X441591Y426100D01*
X441495Y426149D01*
X441400Y426202D01*
X441307Y426258D01*
X441216Y426317D01*
X441128Y426379D01*
X441042Y426445D01*
X440958Y426514D01*
X440877Y426585D01*
X440798Y426660D01*
X440722Y426737D01*
X440649Y426817D01*
X440579Y426899D01*
X440512Y426984D01*
X440448Y427072D01*
X440387Y427162D01*
X440329Y427253D01*
X440275Y427347D01*
X440225Y427443D01*
X440177Y427540D01*
X440134Y427639D01*
X440093Y427740D01*
X440057Y427842D01*
X440024Y427945D01*
X439995Y428050D01*
X439970Y428155D01*
X439949Y428261D01*
X439931Y428368D01*
X439918Y428476D01*
X439908Y428584D01*
X439902Y428692D01*
X439900Y428800D01*
X445900Y428800D01*
D12*
X338588Y733100D02*
X338588Y758500D01*
X338588Y733100D02*
X338588Y656900D01*
X579888Y656900D02*
X579888Y733100D01*
X579888Y758500D01*
X338588Y758500D01*
D13*
X338588Y733100D02*
X579888Y733100D01*
D12*
X579888Y656900D02*
X338588Y656900D01*
D14*
X360940Y695000D03*
X400564Y695000D03*
X440188Y695000D03*
X479812Y695000D03*
X519436Y695000D03*
X559060Y695000D03*
M02*
