G04 EAGLE Gerber RS-274X export*
G75*
%MOMM*%
%FSLAX34Y34*%
%LPD*%
%INBottom Copper*%
%IPPOS*%
%AMOC8*
5,1,8,0,0,1.08239X$1,22.5*%
G01*
%ADD10R,1.651000X1.651000*%
%ADD11C,1.651000*%
%ADD12R,1.143000X1.016000*%
%ADD13R,1.200000X0.690000*%
%ADD14C,1.308000*%
%ADD15C,1.524000*%
%ADD16P,1.429621X8X112.500000*%
%ADD17P,1.429621X8X292.500000*%
%ADD18C,1.320800*%
%ADD19C,0.609600*%
%ADD20C,0.152400*%
%ADD21C,0.304800*%


D10*
X515900Y14100D03*
D11*
X490500Y14100D03*
X465100Y14100D03*
X439700Y14100D03*
X414300Y14100D03*
X388900Y14100D03*
X363500Y14100D03*
X338100Y14100D03*
D12*
X852040Y527400D03*
X872360Y518510D03*
X872360Y536290D03*
D13*
X672901Y494800D03*
X672901Y485300D03*
X672901Y475800D03*
X646899Y475800D03*
X646899Y494800D03*
D14*
X128580Y470600D03*
X104450Y493460D03*
X104450Y447740D03*
D15*
X140380Y155100D02*
X155620Y155100D01*
X155620Y129700D02*
X140380Y129700D01*
X140380Y104300D02*
X155620Y104300D01*
X155620Y78900D02*
X140380Y78900D01*
D16*
X960000Y437200D03*
X960000Y538800D03*
D15*
X216952Y78445D02*
X201712Y78445D01*
X201712Y103845D02*
X216952Y103845D01*
X216952Y129245D02*
X201712Y129245D01*
X201712Y154645D02*
X216952Y154645D01*
D17*
X768000Y494400D03*
X768000Y443600D03*
D18*
X537704Y531000D02*
X524496Y531000D01*
X461504Y531000D02*
X448296Y531000D01*
D16*
X382000Y430200D03*
X382000Y531800D03*
X381000Y271200D03*
X381000Y372800D03*
D17*
X284000Y531400D03*
X284000Y480600D03*
X284000Y375400D03*
X284000Y324600D03*
X196000Y531400D03*
X196000Y480600D03*
D16*
X12000Y369200D03*
X12000Y470800D03*
D19*
X872360Y506640D02*
X872360Y518510D01*
X266000Y59000D02*
X240000Y33000D01*
X74000Y33000D02*
X12300Y94700D01*
X74000Y33000D02*
X240000Y33000D01*
X872360Y349560D02*
X872360Y518510D01*
X872360Y349560D02*
X872360Y310560D01*
X872360Y221360D01*
X755000Y104000D01*
X551000Y104000D01*
X515900Y68900D01*
X515900Y14100D01*
X515900Y-18100D01*
X500000Y-34000D02*
X430000Y-34000D01*
X414300Y-18300D01*
X414300Y14100D01*
X500000Y-34000D02*
X515900Y-18100D01*
X414300Y14100D02*
X414300Y43700D01*
X399000Y59000D01*
X266000Y59000D01*
X263000Y59000D01*
X243555Y78445D02*
X209332Y78445D01*
X243555Y78445D02*
X263000Y59000D01*
X12300Y368900D02*
X12000Y369200D01*
X12300Y368900D02*
X12300Y94700D01*
X960000Y398200D02*
X960000Y437200D01*
X960000Y398200D02*
X872360Y310560D01*
X454900Y531000D02*
X382800Y531000D01*
X382000Y531800D01*
X284400Y531800D01*
X284000Y531400D01*
X198000Y531400D01*
X196000Y531400D01*
X134460Y493460D02*
X104450Y493460D01*
X172400Y531400D02*
X196000Y531400D01*
X172400Y531400D02*
X134460Y493460D01*
X104450Y447740D02*
X106450Y445740D01*
X106450Y156000D01*
X106450Y131000D01*
X106450Y104000D01*
X106450Y89550D01*
X121100Y74900D01*
X410000Y197480D02*
X699480Y197480D01*
X490500Y79500D02*
X490500Y14100D01*
X490500Y79500D02*
X409000Y161000D01*
X409000Y196480D01*
X410000Y197480D01*
X148000Y78900D02*
X144000Y74900D01*
X121100Y74900D01*
X106750Y104300D02*
X148000Y104300D01*
D20*
X106750Y104300D02*
X106450Y104000D01*
D19*
X107750Y129700D02*
X148000Y129700D01*
D20*
X107750Y129700D02*
X106450Y131000D01*
D19*
X107350Y155100D02*
X148000Y155100D01*
D20*
X107350Y155100D02*
X106450Y156000D01*
D19*
X745000Y443600D02*
X768000Y443600D01*
X768000Y266000D01*
X699480Y197480D01*
X703300Y485300D02*
X672901Y485300D01*
X703300Y485300D02*
X745000Y443600D01*
X220400Y480600D02*
X196000Y480600D01*
X237000Y464000D02*
X237000Y342000D01*
X254400Y324600D01*
X284000Y324600D01*
X237000Y464000D02*
X220400Y480600D01*
X381000Y271200D02*
X409000Y243200D01*
X409000Y196480D01*
X381000Y271200D02*
X359800Y271200D01*
X306400Y324600D02*
X284000Y324600D01*
X306400Y324600D02*
X359800Y271200D01*
X196000Y480600D02*
X180600Y480600D01*
X147740Y447740D02*
X104450Y447740D01*
X147740Y447740D02*
X180600Y480600D01*
X672901Y494800D02*
X767600Y494800D01*
D21*
X672901Y475800D02*
X663200Y475800D01*
X658000Y481000D01*
X658000Y492000D01*
X661000Y495000D01*
X672701Y495000D01*
X672901Y494800D01*
D19*
X767600Y494800D02*
X768000Y494400D01*
X800400Y494400D01*
X833400Y527400D02*
X852040Y527400D01*
X833400Y527400D02*
X800400Y494400D01*
X567699Y531000D02*
X531100Y531000D01*
X603899Y494800D02*
X646899Y494800D01*
X603899Y494800D02*
X567699Y531000D01*
X284000Y480600D02*
X284000Y375400D01*
X284000Y480600D02*
X311400Y480600D01*
X361800Y430200D02*
X382000Y430200D01*
X361800Y430200D02*
X311400Y480600D01*
X381000Y429200D02*
X381000Y372800D01*
X381000Y429200D02*
X382000Y430200D01*
X553200Y430200D01*
X598800Y475800D02*
X646899Y475800D01*
X598800Y475800D02*
X553200Y430200D01*
X439700Y72300D02*
X439700Y14100D01*
X382755Y129245D02*
X209332Y129245D01*
X382755Y129245D02*
X439700Y72300D01*
X388355Y154645D02*
X209332Y154645D01*
X465100Y77900D02*
X465100Y14100D01*
X465100Y77900D02*
X388355Y154645D01*
D20*
X261000Y155000D02*
X260645Y154645D01*
D19*
X209332Y154645D01*
X338100Y14100D02*
X338100Y-38900D01*
X296000Y-81000D02*
X110000Y-81000D01*
X-47000Y76000D01*
X296000Y-81000D02*
X338100Y-38900D01*
X-47000Y76000D02*
X-47000Y452800D01*
X12000Y470800D02*
X128380Y470800D01*
X128580Y470600D01*
X12000Y470800D02*
X-29000Y470800D01*
X-47000Y452800D01*
X872360Y536290D02*
X873790Y537720D01*
X1019280Y537720D02*
X1045000Y512000D01*
X1045000Y174000D01*
X809000Y-62000D02*
X415000Y-62000D01*
X388900Y-35900D01*
X388900Y14100D01*
X809000Y-62000D02*
X1045000Y174000D01*
D20*
X1019280Y537720D02*
X1018200Y538800D01*
D19*
X960000Y538800D01*
X959000Y537800D01*
X873870Y537800D01*
D20*
X872360Y536290D01*
M02*
