G04 EAGLE Gerber RS-274X export*
G75*
%MOMM*%
%FSLAX34Y34*%
%LPD*%
%INTop Copper*%
%IPPOS*%
%AMOC8*
5,1,8,0,0,1.08239X$1,22.5*%
G01*
%ADD10R,1.651000X1.651000*%
%ADD11C,1.651000*%
%ADD12C,1.308000*%
%ADD13C,1.524000*%
%ADD14P,1.429621X8X112.500000*%
%ADD15P,1.429621X8X292.500000*%
%ADD16C,1.320800*%


D10*
X515900Y14100D03*
D11*
X490500Y14100D03*
X465100Y14100D03*
X439700Y14100D03*
X414300Y14100D03*
X388900Y14100D03*
X363500Y14100D03*
X338100Y14100D03*
D12*
X128580Y470600D03*
X104450Y493460D03*
X104450Y447740D03*
D13*
X140380Y155100D02*
X155620Y155100D01*
X155620Y129700D02*
X140380Y129700D01*
X140380Y104300D02*
X155620Y104300D01*
X155620Y78900D02*
X140380Y78900D01*
D14*
X960000Y437200D03*
X960000Y538800D03*
D13*
X216952Y78445D02*
X201712Y78445D01*
X201712Y103845D02*
X216952Y103845D01*
X216952Y129245D02*
X201712Y129245D01*
X201712Y154645D02*
X216952Y154645D01*
D15*
X768000Y494400D03*
X768000Y443600D03*
D16*
X537704Y531000D02*
X524496Y531000D01*
X461504Y531000D02*
X448296Y531000D01*
D14*
X382000Y430200D03*
X382000Y531800D03*
X381000Y271200D03*
X381000Y372800D03*
D15*
X284000Y531400D03*
X284000Y480600D03*
X284000Y375400D03*
X284000Y324600D03*
X196000Y531400D03*
X196000Y480600D03*
D14*
X12000Y369200D03*
X12000Y470800D03*
M02*
