G04 EAGLE Gerber RS-274X export*
G75*
%MOMM*%
%FSLAX34Y34*%
%LPD*%
%INSoldermask Bottom*%
%IPPOS*%
%AMOC8*
5,1,8,0,0,1.08239X$1,22.5*%
G01*
%ADD10C,0.463294*%
%ADD11R,1.573200X1.323200*%
%ADD12R,0.903200X1.753200*%
%ADD13C,2.717800*%
%ADD14R,8.203200X3.503200*%
%ADD15R,0.838200X1.473200*%


D10*
X468015Y485210D02*
X468015Y492770D01*
X479385Y492770D01*
X479385Y485210D01*
X468015Y485210D01*
X468015Y489611D02*
X479385Y489611D01*
X468015Y474990D02*
X468015Y467430D01*
X468015Y474990D02*
X479385Y474990D01*
X479385Y467430D01*
X468015Y467430D01*
X468015Y471831D02*
X479385Y471831D01*
D11*
X400200Y460100D03*
X400200Y490100D03*
D12*
X568950Y440150D03*
X556250Y440150D03*
X543550Y440150D03*
X530850Y440150D03*
X530850Y494650D03*
X543550Y494650D03*
X556250Y494650D03*
X568950Y494650D03*
D13*
X828227Y447588D02*
X853373Y447588D01*
X853373Y487212D02*
X828227Y487212D01*
X181473Y372912D02*
X156327Y372912D01*
X156327Y333288D02*
X181473Y333288D01*
D14*
X308600Y427400D03*
X308600Y380400D03*
D15*
X476000Y368900D03*
X466000Y408900D03*
X486000Y408900D03*
D10*
X363890Y304515D02*
X356330Y304515D01*
X356330Y315885D01*
X363890Y315885D01*
X363890Y304515D01*
X363890Y308916D02*
X356330Y308916D01*
X356330Y313317D02*
X363890Y313317D01*
X374110Y304515D02*
X381670Y304515D01*
X374110Y304515D02*
X374110Y315885D01*
X381670Y315885D01*
X381670Y304515D01*
X381670Y308916D02*
X374110Y308916D01*
X374110Y313317D02*
X381670Y313317D01*
X658315Y475310D02*
X658315Y482870D01*
X669685Y482870D01*
X669685Y475310D01*
X658315Y475310D01*
X658315Y479711D02*
X669685Y479711D01*
X658315Y465090D02*
X658315Y457530D01*
X658315Y465090D02*
X669685Y465090D01*
X669685Y457530D01*
X658315Y457530D01*
X658315Y461931D02*
X669685Y461931D01*
M02*
