G04 EAGLE Gerber RS-274X export*
G75*
%MOMM*%
%FSLAX34Y34*%
%LPD*%
%INSolderpaste Bottom*%
%IPPOS*%
%AMOC8*
5,1,8,0,0,1.08239X$1,22.5*%
G01*
%ADD10C,0.254000*%
%ADD11R,1.370000X1.120000*%
%ADD12R,0.700000X1.550000*%
%ADD13R,8.000000X3.300000*%
%ADD14R,0.635000X1.270000*%


D10*
X467985Y485180D02*
X467985Y492800D01*
X479415Y492800D01*
X479415Y485180D01*
X467985Y485180D01*
X467985Y487593D02*
X479415Y487593D01*
X479415Y490006D02*
X467985Y490006D01*
X467985Y492419D02*
X479415Y492419D01*
X467985Y475020D02*
X467985Y467400D01*
X467985Y475020D02*
X479415Y475020D01*
X479415Y467400D01*
X467985Y467400D01*
X467985Y469813D02*
X479415Y469813D01*
X479415Y472226D02*
X467985Y472226D01*
X467985Y474639D02*
X479415Y474639D01*
D11*
X400200Y460100D03*
X400200Y490100D03*
D12*
X568950Y440150D03*
X556250Y440150D03*
X543550Y440150D03*
X530850Y440150D03*
X530850Y494650D03*
X543550Y494650D03*
X556250Y494650D03*
X568950Y494650D03*
D13*
X308600Y427400D03*
X308600Y380400D03*
D14*
X476000Y368900D03*
X466000Y408900D03*
X486000Y408900D03*
D10*
X363920Y304485D02*
X356300Y304485D01*
X356300Y315915D01*
X363920Y315915D01*
X363920Y304485D01*
X363920Y306898D02*
X356300Y306898D01*
X356300Y309311D02*
X363920Y309311D01*
X363920Y311724D02*
X356300Y311724D01*
X356300Y314137D02*
X363920Y314137D01*
X374080Y304485D02*
X381700Y304485D01*
X374080Y304485D02*
X374080Y315915D01*
X381700Y315915D01*
X381700Y304485D01*
X381700Y306898D02*
X374080Y306898D01*
X374080Y309311D02*
X381700Y309311D01*
X381700Y311724D02*
X374080Y311724D01*
X374080Y314137D02*
X381700Y314137D01*
X658285Y475280D02*
X658285Y482900D01*
X669715Y482900D01*
X669715Y475280D01*
X658285Y475280D01*
X658285Y477693D02*
X669715Y477693D01*
X669715Y480106D02*
X658285Y480106D01*
X658285Y482519D02*
X669715Y482519D01*
X658285Y465120D02*
X658285Y457500D01*
X658285Y465120D02*
X669715Y465120D01*
X669715Y457500D01*
X658285Y457500D01*
X658285Y459913D02*
X669715Y459913D01*
X669715Y462326D02*
X658285Y462326D01*
X658285Y464739D02*
X669715Y464739D01*
M02*
