%TF.GenerationSoftware,Altium Limited,Altium Designer,25.6.2 (33)*%
G04 Layer_Color=8388736*
%FSLAX45Y45*%
%MOMM*%
%TF.SameCoordinates,A7DCC95B-C82A-44D7-B00A-882B20F37DA3*%
%TF.FilePolarity,Negative*%
%TF.FileFunction,Soldermask,Top*%
%TF.Part,Single*%
G01*
G75*
%TA.AperFunction,SMDPad,CuDef*%
%ADD10R,1.80000X0.80000*%
%ADD12R,4.00000X2.50000*%
%ADD19R,2.50000X4.00000*%
%ADD43R,1.55320X1.05320*%
%ADD44R,0.85320X1.72820*%
%ADD45R,1.60320X1.70320*%
%ADD46R,1.72820X0.85320*%
%ADD47R,1.05320X1.55320*%
G04:AMPARAMS|DCode=48|XSize=2.2732mm|YSize=3.2132mm|CornerRadius=0.36035mm|HoleSize=0mm|Usage=FLASHONLY|Rotation=0.000|XOffset=0mm|YOffset=0mm|HoleType=Round|Shape=RoundedRectangle|*
%AMROUNDEDRECTD48*
21,1,2.27320,2.49250,0,0,0.0*
21,1,1.55250,3.21320,0,0,0.0*
1,1,0.72070,0.77625,-1.24625*
1,1,0.72070,-0.77625,-1.24625*
1,1,0.72070,-0.77625,1.24625*
1,1,0.72070,0.77625,1.24625*
%
%ADD48ROUNDEDRECTD48*%
%ADD49R,1.70320X1.60320*%
G04:AMPARAMS|DCode=50|XSize=2.2732mm|YSize=3.2132mm|CornerRadius=0.36035mm|HoleSize=0mm|Usage=FLASHONLY|Rotation=90.000|XOffset=0mm|YOffset=0mm|HoleType=Round|Shape=RoundedRectangle|*
%AMROUNDEDRECTD50*
21,1,2.27320,2.49250,0,0,90.0*
21,1,1.55250,3.21320,0,0,90.0*
1,1,0.72070,1.24625,0.77625*
1,1,0.72070,1.24625,-0.77625*
1,1,0.72070,-1.24625,-0.77625*
1,1,0.72070,-1.24625,0.77625*
%
%ADD50ROUNDEDRECTD50*%
%ADD51R,1.10320X1.00320*%
%ADD52R,3.10320X5.60320*%
%ADD53R,1.40320X1.40320*%
%ADD54R,5.60320X3.10320*%
%ADD55R,1.40320X1.40320*%
%TA.AperFunction,ViaPad*%
%ADD56C,1.72720*%
%TA.AperFunction,ComponentPad*%
%ADD57C,1.60320*%
%ADD58C,5.00320*%
%ADD59R,1.60320X1.60320*%
%ADD60C,1.72320*%
%ADD61R,1.72320X1.72320*%
%ADD62C,3.20320*%
%TA.AperFunction,ViaPad*%
%ADD63C,1.47320*%
D10*
X10750000Y5440000D02*
D03*
X10050000D02*
D03*
Y5120000D02*
D03*
X10750000D02*
D03*
Y5660000D02*
D03*
Y5880000D02*
D03*
X10050000D02*
D03*
Y5660000D02*
D03*
D12*
X3650000Y8600000D02*
D03*
X5650000Y4900000D02*
D03*
X6250000Y8550000D02*
D03*
X8250000Y4900000D02*
D03*
X8900000Y8550000D02*
D03*
X5450000Y8550000D02*
D03*
X4450000Y8600000D02*
D03*
X8100000Y8550000D02*
D03*
X9050000Y4900000D02*
D03*
X6450000D02*
D03*
D19*
X6900000Y10510000D02*
D03*
Y11310000D02*
D03*
D43*
X5100000Y5517500D02*
D03*
X7700000Y5403807D02*
D03*
Y5568807D02*
D03*
X5100000Y5682500D02*
D03*
D44*
X5920000Y5800000D02*
D03*
X6047000D02*
D03*
X6174000D02*
D03*
X5793000Y6342401D02*
D03*
Y5800000D02*
D03*
X8359500Y6342401D02*
D03*
X8486500Y5800000D02*
D03*
X8613500D02*
D03*
X8359500D02*
D03*
X8740500D02*
D03*
X5920000Y6342401D02*
D03*
X8613500D02*
D03*
X8486500D02*
D03*
X8740500D02*
D03*
X6047000D02*
D03*
X6174000D02*
D03*
D45*
X6665000Y6350000D02*
D03*
X9245000D02*
D03*
X11200001Y7049999D02*
D03*
X12645000Y8250000D02*
D03*
X11700001Y8399999D02*
D03*
X12455000Y8250000D02*
D03*
X11890001Y8399999D02*
D03*
X11390001Y7049999D02*
D03*
X8155000Y9550000D02*
D03*
X8345000D02*
D03*
X6475000Y6350000D02*
D03*
X9055000D02*
D03*
D46*
X3928800Y10973500D02*
D03*
Y10846500D02*
D03*
Y10719500D02*
D03*
Y11100500D02*
D03*
X4471200D02*
D03*
X12266200Y7917500D02*
D03*
Y8044500D02*
D03*
Y7790500D02*
D03*
Y7663500D02*
D03*
Y7536500D02*
D03*
Y7409500D02*
D03*
Y7282500D02*
D03*
Y7155500D02*
D03*
X11723800D02*
D03*
Y7282500D02*
D03*
Y7409500D02*
D03*
Y7536500D02*
D03*
Y7663500D02*
D03*
Y7790500D02*
D03*
Y7917500D02*
D03*
Y8044500D02*
D03*
X4471200Y10973500D02*
D03*
Y10846500D02*
D03*
Y10719500D02*
D03*
D47*
X3567500Y11660000D02*
D03*
X8517500Y9300000D02*
D03*
X12172879Y4895222D02*
D03*
X12007879D02*
D03*
X3732500Y11660000D02*
D03*
X9082500Y9550000D02*
D03*
X8917500D02*
D03*
X8682500Y9300000D02*
D03*
D48*
X6252500Y9660000D02*
D03*
X5547500D02*
D03*
D49*
X4477496Y10225585D02*
D03*
X11395000Y7405000D02*
D03*
Y7595000D02*
D03*
Y7899999D02*
D03*
Y8089999D02*
D03*
X4477496Y10415585D02*
D03*
D50*
X7070000Y7852500D02*
D03*
X9750000D02*
D03*
X11900000Y6152500D02*
D03*
Y5447500D02*
D03*
X9750000Y7147500D02*
D03*
X7070000D02*
D03*
D51*
X12700000Y5545000D02*
D03*
X12500000Y5450000D02*
D03*
X12700000Y5355000D02*
D03*
D52*
X5375000Y7250000D02*
D03*
X6365000D02*
D03*
X9044999D02*
D03*
X8054999D02*
D03*
D53*
X5100000Y6255000D02*
D03*
X7700000Y6205000D02*
D03*
Y5995000D02*
D03*
X5100000Y6045000D02*
D03*
D54*
X5500000Y11405000D02*
D03*
Y10415000D02*
D03*
D55*
X4355000Y11660000D02*
D03*
X4145000D02*
D03*
D56*
X9700000Y9550000D02*
D03*
X10800000Y9950000D02*
D03*
X10950000Y11300000D02*
D03*
D57*
X8715000Y3754000D02*
D03*
X8852000Y3500000D02*
D03*
X9126000D02*
D03*
X9400000D02*
D03*
X9674000D02*
D03*
X8989000Y3754000D02*
D03*
X9537000D02*
D03*
X9263000D02*
D03*
D58*
X8013000Y3627000D02*
D03*
X10513000D02*
D03*
D59*
X9811000Y3754000D02*
D03*
D60*
X5599999Y3500001D02*
D03*
X5299999Y3200001D02*
D03*
X11850000Y3400000D02*
D03*
Y3700000D02*
D03*
X12450000Y3400000D02*
D03*
X12750000Y3700000D02*
D03*
X12150000Y3400000D02*
D03*
X12450000Y3700000D02*
D03*
X12150000D02*
D03*
X5299999Y3500001D02*
D03*
X5599999Y3200001D02*
D03*
X5899999Y3500001D02*
D03*
D61*
Y3200001D02*
D03*
X12750000Y3400000D02*
D03*
D62*
X12534000Y2968000D02*
D03*
X12066000D02*
D03*
X5599999Y2768001D02*
D03*
D63*
X3950000Y7222726D02*
D03*
Y6418181D02*
D03*
Y4809090D02*
D03*
Y4004545D02*
D03*
X12773799Y9532500D02*
D03*
X11250000Y2950000D02*
D03*
X6923799Y3732500D02*
D03*
X7073799Y5382500D02*
D03*
X7273799Y6432500D02*
D03*
X5528727Y3953285D02*
D03*
X4823799Y4982500D02*
D03*
Y6732500D02*
D03*
Y7582500D02*
D03*
X4873799Y9532500D02*
D03*
X7023799D02*
D03*
X7323799Y8482500D02*
D03*
X10493799Y6202500D02*
D03*
X11223799Y5582500D02*
D03*
X10723799Y4482500D02*
D03*
X11773799Y4532500D02*
D03*
X12873799Y6582500D02*
D03*
Y7432500D02*
D03*
X10623799Y7732500D02*
D03*
X11873798Y8932500D02*
D03*
X10773799D02*
D03*
X9673799D02*
D03*
X7699999Y10650000D02*
D03*
X8799999D02*
D03*
X9899999D02*
D03*
X10999999D02*
D03*
X12099998D02*
D03*
X13600000Y4250000D02*
D03*
Y3100000D02*
D03*
X12049999Y12100000D02*
D03*
X10949999D02*
D03*
X9849999D02*
D03*
X8749999D02*
D03*
X7649999D02*
D03*
X6549999D02*
D03*
X5450000D02*
D03*
X4350000D02*
D03*
X3250000D02*
D03*
X13600000Y5400000D02*
D03*
Y6450000D02*
D03*
Y7650000D02*
D03*
Y8800000D02*
D03*
Y9950000D02*
D03*
Y10950000D02*
D03*
X13099998Y2950000D02*
D03*
X10457142D02*
D03*
X9135714D02*
D03*
X7814285D02*
D03*
X6492857D02*
D03*
X4700000Y2900000D02*
D03*
X3850000Y2950000D02*
D03*
X3250000Y3200000D02*
D03*
Y4004545D02*
D03*
Y4809090D02*
D03*
Y5613636D02*
D03*
Y6418181D02*
D03*
Y7222726D02*
D03*
Y8027271D02*
D03*
Y9636362D02*
D03*
X3250000Y10440907D02*
D03*
X3250000Y11245452D02*
D03*
X12700000Y5750000D02*
D03*
X5100000Y5350000D02*
D03*
X5250000Y4900000D02*
D03*
X5620000Y6350000D02*
D03*
Y5800000D02*
D03*
X6870000Y6350000D02*
D03*
X3250000Y8600000D02*
D03*
X3350000Y11660000D02*
D03*
X3929737Y11372432D02*
D03*
X4479190Y9946268D02*
D03*
X6650000Y8550000D02*
D03*
X6550000Y9660000D02*
D03*
X4470324Y11369185D02*
D03*
X7700000Y5200000D02*
D03*
X7800000Y4850000D02*
D03*
X8150000Y5800000D02*
D03*
Y6350000D02*
D03*
X10945000Y7049999D02*
D03*
X9500000Y6350000D02*
D03*
X7070000Y8100000D02*
D03*
X8300000Y9300000D02*
D03*
X6900000Y10110000D02*
D03*
X9300000Y8550000D02*
D03*
X9750000Y8150000D02*
D03*
X11445000Y8399999D02*
D03*
X12556372Y7926658D02*
D03*
X12650000Y8550000D02*
D03*
%TF.MD5,d78667211bf6321f05cb604b3cee16c3*%
M02*
