%TF.GenerationSoftware,Altium Limited,Altium Designer,25.6.2 (33)*%
G04 Layer_Color=0*
%FSLAX45Y45*%
%MOMM*%
%TF.SameCoordinates,A7DCC95B-C82A-44D7-B00A-882B20F37DA3*%
%TF.FilePolarity,Positive*%
%TF.FileFunction,Plated,1,2,PTH,Drill*%
%TF.Part,Single*%
G01*
G75*
%TA.AperFunction,OtherDrill,Pad Free-4 (97mm,95.5mm)*%
%ADD66C,0.76200*%
%TA.AperFunction,OtherDrill,Pad Free-3 (108mm,99.5mm)*%
%ADD67C,0.76200*%
%TA.AperFunction,OtherDrill,Pad Free-2 (109.5mm,113mm)*%
%ADD68C,0.76200*%
%TA.AperFunction,ComponentDrill*%
%ADD69C,0.90000*%
%ADD70C,3.20000*%
%ADD71C,1.02000*%
%TA.AperFunction,ViaDrill,NotFilled*%
%ADD72C,0.71120*%
D66*
X9700000Y9550000D02*
D03*
D67*
X10800000Y9950000D02*
D03*
D68*
X10950000Y11300000D02*
D03*
D69*
X8715000Y3754000D02*
D03*
X8852000Y3500000D02*
D03*
X9126000D02*
D03*
X9400000D02*
D03*
X9674000D02*
D03*
X8989000Y3754000D02*
D03*
X9811000D02*
D03*
X9537000D02*
D03*
X9263000D02*
D03*
D70*
X8013000Y3627000D02*
D03*
X10513000D02*
D03*
D71*
X5599999Y3500001D02*
D03*
X5299999Y3200001D02*
D03*
X11850000Y3400000D02*
D03*
X5899999Y3200001D02*
D03*
X11850000Y3700000D02*
D03*
X12450000Y3400000D02*
D03*
X12750000Y3700000D02*
D03*
Y3400000D02*
D03*
X12150000D02*
D03*
X12450000Y3700000D02*
D03*
X12150000D02*
D03*
X5299999Y3500001D02*
D03*
X5599999Y3200001D02*
D03*
X5899999Y3500001D02*
D03*
D72*
X3950000Y7222726D02*
D03*
Y6418181D02*
D03*
Y4809090D02*
D03*
Y4004545D02*
D03*
X12773799Y9532500D02*
D03*
X11250000Y2950000D02*
D03*
X6923799Y3732500D02*
D03*
X7073799Y5382500D02*
D03*
X7273799Y6432500D02*
D03*
X5528727Y3953285D02*
D03*
X4823799Y4982500D02*
D03*
Y6732500D02*
D03*
Y7582500D02*
D03*
X4873799Y9532500D02*
D03*
X7023799D02*
D03*
X7323799Y8482500D02*
D03*
X10493799Y6202500D02*
D03*
X11223799Y5582500D02*
D03*
X10723799Y4482500D02*
D03*
X11773799Y4532500D02*
D03*
X12873799Y6582500D02*
D03*
Y7432500D02*
D03*
X10623799Y7732500D02*
D03*
X11873798Y8932500D02*
D03*
X10773799D02*
D03*
X9673799D02*
D03*
X7699999Y10650000D02*
D03*
X8799999D02*
D03*
X9899999D02*
D03*
X10999999D02*
D03*
X12099998D02*
D03*
X13600000Y4250000D02*
D03*
Y3100000D02*
D03*
X12049999Y12100000D02*
D03*
X10949999D02*
D03*
X9849999D02*
D03*
X8749999D02*
D03*
X7649999D02*
D03*
X6549999D02*
D03*
X5450000D02*
D03*
X4350000D02*
D03*
X3250000D02*
D03*
X13600000Y5400000D02*
D03*
Y6450000D02*
D03*
Y7650000D02*
D03*
Y8800000D02*
D03*
Y9950000D02*
D03*
Y10950000D02*
D03*
X13099998Y2950000D02*
D03*
X10457142D02*
D03*
X9135714D02*
D03*
X7814285D02*
D03*
X6492857D02*
D03*
X4700000Y2900000D02*
D03*
X3850000Y2950000D02*
D03*
X3250000Y3200000D02*
D03*
Y4004545D02*
D03*
Y4809090D02*
D03*
Y5613636D02*
D03*
Y6418181D02*
D03*
Y7222726D02*
D03*
Y8027271D02*
D03*
Y9636362D02*
D03*
X3250000Y10440907D02*
D03*
X3250000Y11245452D02*
D03*
X12700000Y5750000D02*
D03*
X5100000Y5350000D02*
D03*
X5250000Y4900000D02*
D03*
X5620000Y6350000D02*
D03*
Y5800000D02*
D03*
X6870000Y6350000D02*
D03*
X3250000Y8600000D02*
D03*
X3350000Y11660000D02*
D03*
X3929737Y11372432D02*
D03*
X4479190Y9946268D02*
D03*
X6650000Y8550000D02*
D03*
X6550000Y9660000D02*
D03*
X4470324Y11369185D02*
D03*
X7700000Y5200000D02*
D03*
X7800000Y4850000D02*
D03*
X8150000Y5800000D02*
D03*
Y6350000D02*
D03*
X10945000Y7049999D02*
D03*
X9500000Y6350000D02*
D03*
X7070000Y8100000D02*
D03*
X8300000Y9300000D02*
D03*
X6900000Y10110000D02*
D03*
X9300000Y8550000D02*
D03*
X9750000Y8150000D02*
D03*
X11445000Y8399999D02*
D03*
X12556372Y7926658D02*
D03*
X12650000Y8550000D02*
D03*
%TF.MD5,527632206e4c01d4576020ac19c6312c*%
M02*
