%TF.GenerationSoftware,Altium Limited,Altium Designer,25.6.2 (33)*%
G04 Layer_Color=8421504*
%FSLAX45Y45*%
%MOMM*%
%TF.SameCoordinates,A7DCC95B-C82A-44D7-B00A-882B20F37DA3*%
%TF.FilePolarity,Positive*%
%TF.FileFunction,Paste,Top*%
%TF.Part,Single*%
G01*
G75*
%TA.AperFunction,SMDPad,CuDef*%
%ADD10R,1.80000X0.80000*%
%ADD11R,1.35000X0.85000*%
%ADD12R,4.00000X2.50000*%
%ADD13R,0.65000X1.52500*%
%ADD14R,1.40000X1.50000*%
%ADD15R,1.52500X0.65000*%
%ADD16R,0.85000X1.35000*%
G04:AMPARAMS|DCode=17|XSize=2.07mm|YSize=3.01mm|CornerRadius=0.25875mm|HoleSize=0mm|Usage=FLASHONLY|Rotation=0.000|XOffset=0mm|YOffset=0mm|HoleType=Round|Shape=RoundedRectangle|*
%AMROUNDEDRECTD17*
21,1,2.07000,2.49250,0,0,0.0*
21,1,1.55250,3.01000,0,0,0.0*
1,1,0.51750,0.77625,-1.24625*
1,1,0.51750,-0.77625,-1.24625*
1,1,0.51750,-0.77625,1.24625*
1,1,0.51750,0.77625,1.24625*
%
%ADD17ROUNDEDRECTD17*%
%ADD18R,1.50000X1.40000*%
%ADD19R,2.50000X4.00000*%
G04:AMPARAMS|DCode=20|XSize=2.07mm|YSize=3.01mm|CornerRadius=0.25875mm|HoleSize=0mm|Usage=FLASHONLY|Rotation=90.000|XOffset=0mm|YOffset=0mm|HoleType=Round|Shape=RoundedRectangle|*
%AMROUNDEDRECTD20*
21,1,2.07000,2.49250,0,0,90.0*
21,1,1.55250,3.01000,0,0,90.0*
1,1,0.51750,1.24625,0.77625*
1,1,0.51750,1.24625,-0.77625*
1,1,0.51750,-1.24625,-0.77625*
1,1,0.51750,-1.24625,0.77625*
%
%ADD20ROUNDEDRECTD20*%
%ADD21R,0.90000X0.80000*%
%ADD22R,2.90000X5.40000*%
%ADD23R,1.20000X1.20000*%
%ADD24R,5.40000X2.90000*%
%ADD25R,1.20000X1.20000*%
D10*
X10750000Y5440000D02*
D03*
X10050000D02*
D03*
Y5120000D02*
D03*
X10750000D02*
D03*
Y5660000D02*
D03*
Y5880000D02*
D03*
X10050000D02*
D03*
Y5660000D02*
D03*
D11*
X5100000Y5517500D02*
D03*
X7700000Y5403807D02*
D03*
Y5568807D02*
D03*
X5100000Y5682500D02*
D03*
D12*
X3650000Y8600000D02*
D03*
X5650000Y4900000D02*
D03*
X6250000Y8550000D02*
D03*
X8250000Y4900000D02*
D03*
X8900000Y8550000D02*
D03*
X5450000Y8550000D02*
D03*
X4450000Y8600000D02*
D03*
X8100000Y8550000D02*
D03*
X9050000Y4900000D02*
D03*
X6450000D02*
D03*
D13*
X5920000Y5800000D02*
D03*
X6047000D02*
D03*
X6174000D02*
D03*
X5793000Y6342401D02*
D03*
Y5800000D02*
D03*
X8359500Y6342401D02*
D03*
X8486500Y5800000D02*
D03*
X8613500D02*
D03*
X8359500D02*
D03*
X8740500D02*
D03*
X5920000Y6342401D02*
D03*
X8613500D02*
D03*
X8486500D02*
D03*
X8740500D02*
D03*
X6047000D02*
D03*
X6174000D02*
D03*
D14*
X6665000Y6350000D02*
D03*
X9245000D02*
D03*
X11200001Y7049999D02*
D03*
X12645000Y8250000D02*
D03*
X11700001Y8399999D02*
D03*
X12455000Y8250000D02*
D03*
X11890001Y8399999D02*
D03*
X11390001Y7049999D02*
D03*
X8155000Y9550000D02*
D03*
X8345000D02*
D03*
X6475000Y6350000D02*
D03*
X9055000D02*
D03*
D15*
X3928800Y10973500D02*
D03*
Y10846500D02*
D03*
Y10719500D02*
D03*
Y11100500D02*
D03*
X4471200D02*
D03*
X12266200Y7917500D02*
D03*
Y8044500D02*
D03*
Y7790500D02*
D03*
Y7663500D02*
D03*
Y7536500D02*
D03*
Y7409500D02*
D03*
Y7282500D02*
D03*
Y7155500D02*
D03*
X11723800D02*
D03*
Y7282500D02*
D03*
Y7409500D02*
D03*
Y7536500D02*
D03*
Y7663500D02*
D03*
Y7790500D02*
D03*
Y7917500D02*
D03*
Y8044500D02*
D03*
X4471200Y10973500D02*
D03*
Y10846500D02*
D03*
Y10719500D02*
D03*
D16*
X3567500Y11660000D02*
D03*
X8517500Y9300000D02*
D03*
X12172879Y4895222D02*
D03*
X12007879D02*
D03*
X3732500Y11660000D02*
D03*
X9082500Y9550000D02*
D03*
X8917500D02*
D03*
X8682500Y9300000D02*
D03*
D17*
X6252500Y9660000D02*
D03*
X5547500D02*
D03*
D18*
X4477496Y10225585D02*
D03*
X11395000Y7405000D02*
D03*
Y7595000D02*
D03*
Y7899999D02*
D03*
Y8089999D02*
D03*
X4477496Y10415585D02*
D03*
D19*
X6900000Y10510000D02*
D03*
Y11310000D02*
D03*
D20*
X7070000Y7852500D02*
D03*
X9750000D02*
D03*
X11900000Y6152500D02*
D03*
Y5447500D02*
D03*
X9750000Y7147500D02*
D03*
X7070000D02*
D03*
D21*
X12700000Y5545000D02*
D03*
X12500000Y5450000D02*
D03*
X12700000Y5355000D02*
D03*
D22*
X5375000Y7250000D02*
D03*
X6365000D02*
D03*
X9044999D02*
D03*
X8054999D02*
D03*
D23*
X5100000Y6255000D02*
D03*
X7700000Y6205000D02*
D03*
Y5995000D02*
D03*
X5100000Y6045000D02*
D03*
D24*
X5500000Y11405000D02*
D03*
Y10415000D02*
D03*
D25*
X4355000Y11660000D02*
D03*
X4145000D02*
D03*
%TF.MD5,2802f0e50b2500a4fef1acbdd87a03a5*%
M02*
