%TF.GenerationSoftware,Altium Limited,Altium Designer,25.6.2 (33)*%
G04 Layer_Physical_Order=1*
G04 Layer_Color=255*
%FSLAX45Y45*%
%MOMM*%
%TF.SameCoordinates,A7DCC95B-C82A-44D7-B00A-882B20F37DA3*%
%TF.FilePolarity,Positive*%
%TF.FileFunction,Copper,L1,Top,Signal*%
%TF.Part,Single*%
G01*
G75*
%TA.AperFunction,SMDPad,CuDef*%
%ADD10R,1.80000X0.80000*%
%ADD11R,1.35000X0.85000*%
%ADD12R,4.00000X2.50000*%
%ADD13R,0.65000X1.52500*%
%ADD14R,1.40000X1.50000*%
%ADD15R,1.52500X0.65000*%
%ADD16R,0.85000X1.35000*%
G04:AMPARAMS|DCode=17|XSize=2.07mm|YSize=3.01mm|CornerRadius=0.25875mm|HoleSize=0mm|Usage=FLASHONLY|Rotation=0.000|XOffset=0mm|YOffset=0mm|HoleType=Round|Shape=RoundedRectangle|*
%AMROUNDEDRECTD17*
21,1,2.07000,2.49250,0,0,0.0*
21,1,1.55250,3.01000,0,0,0.0*
1,1,0.51750,0.77625,-1.24625*
1,1,0.51750,-0.77625,-1.24625*
1,1,0.51750,-0.77625,1.24625*
1,1,0.51750,0.77625,1.24625*
%
%ADD17ROUNDEDRECTD17*%
%ADD18R,1.50000X1.40000*%
%ADD19R,2.50000X4.00000*%
G04:AMPARAMS|DCode=20|XSize=2.07mm|YSize=3.01mm|CornerRadius=0.25875mm|HoleSize=0mm|Usage=FLASHONLY|Rotation=90.000|XOffset=0mm|YOffset=0mm|HoleType=Round|Shape=RoundedRectangle|*
%AMROUNDEDRECTD20*
21,1,2.07000,2.49250,0,0,90.0*
21,1,1.55250,3.01000,0,0,90.0*
1,1,0.51750,1.24625,0.77625*
1,1,0.51750,1.24625,-0.77625*
1,1,0.51750,-1.24625,-0.77625*
1,1,0.51750,-1.24625,0.77625*
%
%ADD20ROUNDEDRECTD20*%
%ADD21R,0.90000X0.80000*%
%ADD22R,2.90000X5.40000*%
%ADD23R,1.20000X1.20000*%
%ADD24R,5.40000X2.90000*%
%ADD25R,1.20000X1.20000*%
%TA.AperFunction,Conductor*%
%ADD26C,0.60000*%
%ADD27C,1.00000*%
%ADD28C,0.30000*%
%TA.AperFunction,ViaPad*%
%ADD29C,1.52400*%
%TA.AperFunction,ComponentPad*%
%ADD30C,1.40000*%
%ADD31C,4.80000*%
%ADD32R,1.40000X1.40000*%
%ADD33C,1.52000*%
%ADD34R,1.52000X1.52000*%
%ADD35C,3.00000*%
%TA.AperFunction,ViaPad*%
%ADD36C,1.27000*%
D10*
X10750000Y5440000D02*
D03*
X10050000D02*
D03*
Y5120000D02*
D03*
X10750000D02*
D03*
Y5660000D02*
D03*
Y5880000D02*
D03*
X10050000D02*
D03*
Y5660000D02*
D03*
D11*
X5100000Y5517500D02*
D03*
X7700000Y5403807D02*
D03*
Y5568807D02*
D03*
X5100000Y5682500D02*
D03*
D12*
X3650000Y8600000D02*
D03*
X5650000Y4900000D02*
D03*
X6250000Y8550000D02*
D03*
X8250000Y4900000D02*
D03*
X8900000Y8550000D02*
D03*
X5450000Y8550000D02*
D03*
X4450000Y8600000D02*
D03*
X8100000Y8550000D02*
D03*
X9050000Y4900000D02*
D03*
X6450000D02*
D03*
D13*
X5920000Y5800000D02*
D03*
X6047000D02*
D03*
X6174000D02*
D03*
X5793000Y6342401D02*
D03*
Y5800000D02*
D03*
X8359500Y6342401D02*
D03*
X8486500Y5800000D02*
D03*
X8613500D02*
D03*
X8359500D02*
D03*
X8740500D02*
D03*
X5920000Y6342401D02*
D03*
X8613500D02*
D03*
X8486500D02*
D03*
X8740500D02*
D03*
X6047000D02*
D03*
X6174000D02*
D03*
D14*
X6665000Y6350000D02*
D03*
X9245000D02*
D03*
X11200001Y7049999D02*
D03*
X12645000Y8250000D02*
D03*
X11700001Y8399999D02*
D03*
X12455000Y8250000D02*
D03*
X11890001Y8399999D02*
D03*
X11390001Y7049999D02*
D03*
X8155000Y9550000D02*
D03*
X8345000D02*
D03*
X6475000Y6350000D02*
D03*
X9055000D02*
D03*
D15*
X3928800Y10973500D02*
D03*
Y10846500D02*
D03*
Y10719500D02*
D03*
Y11100500D02*
D03*
X4471200D02*
D03*
X12266200Y7917500D02*
D03*
Y8044500D02*
D03*
Y7790500D02*
D03*
Y7663500D02*
D03*
Y7536500D02*
D03*
Y7409500D02*
D03*
Y7282500D02*
D03*
Y7155500D02*
D03*
X11723800D02*
D03*
Y7282500D02*
D03*
Y7409500D02*
D03*
Y7536500D02*
D03*
Y7663500D02*
D03*
Y7790500D02*
D03*
Y7917500D02*
D03*
Y8044500D02*
D03*
X4471200Y10973500D02*
D03*
Y10846500D02*
D03*
Y10719500D02*
D03*
D16*
X3567500Y11660000D02*
D03*
X8517500Y9300000D02*
D03*
X12172879Y4895222D02*
D03*
X12007879D02*
D03*
X3732500Y11660000D02*
D03*
X9082500Y9550000D02*
D03*
X8917500D02*
D03*
X8682500Y9300000D02*
D03*
D17*
X6252500Y9660000D02*
D03*
X5547500D02*
D03*
D18*
X4477496Y10225585D02*
D03*
X11395000Y7405000D02*
D03*
Y7595000D02*
D03*
Y7899999D02*
D03*
Y8089999D02*
D03*
X4477496Y10415585D02*
D03*
D19*
X6900000Y10510000D02*
D03*
Y11310000D02*
D03*
D20*
X7070000Y7852500D02*
D03*
X9750000D02*
D03*
X11900000Y6152500D02*
D03*
Y5447500D02*
D03*
X9750000Y7147500D02*
D03*
X7070000D02*
D03*
D21*
X12700000Y5545000D02*
D03*
X12500000Y5450000D02*
D03*
X12700000Y5355000D02*
D03*
D22*
X5375000Y7250000D02*
D03*
X6365000D02*
D03*
X9044999D02*
D03*
X8054999D02*
D03*
D23*
X5100000Y6255000D02*
D03*
X7700000Y6205000D02*
D03*
Y5995000D02*
D03*
X5100000Y6045000D02*
D03*
D24*
X5500000Y11405000D02*
D03*
Y10415000D02*
D03*
D25*
X4355000Y11660000D02*
D03*
X4145000D02*
D03*
D26*
X9700000Y9550000D02*
Y9550000D01*
X9082500D02*
X9700000D01*
X12600000Y3250000D02*
Y4050000D01*
X10750000Y5120000D02*
X11180000D01*
X5100000Y8600000D02*
X5150000Y8550000D01*
X5100000Y8600000D02*
Y8950000D01*
X5200000Y9050000D01*
X7350000D01*
X5135147Y7250000D02*
X5150000D01*
X12266200Y8916200D02*
X12350000Y9000000D01*
X12266200Y8044500D02*
Y8916200D01*
X13247501Y6152500D02*
X13400000Y6000000D01*
X11900000Y6152500D02*
X13247501D01*
X11500000Y3200000D02*
X12550000D01*
X12600000Y3250000D01*
X7850000Y9750000D02*
X9049999D01*
X7835147Y7200000D02*
X7889999D01*
X7800000Y9700000D02*
X7850000Y9750000D01*
X7800000Y9500000D02*
Y9700000D01*
X12266200Y8044500D02*
X12309950D01*
X12312450Y8047000D01*
Y8102450D01*
X12455000Y8245000D01*
Y8250000D01*
X11853000Y5447500D02*
X11900000D01*
X11655500Y5250000D02*
X11853000Y5447500D01*
X10600000Y5250000D02*
X11655500D01*
X10470000Y5120000D02*
X10600000Y5250000D01*
X10050000Y5120000D02*
X10470000D01*
X12498750Y5448750D02*
X12500000Y5450000D01*
X11901250Y5448750D02*
X12498750D01*
X11900000Y5447500D02*
X11901250Y5448750D01*
X12700000Y5545000D02*
Y5750000D01*
X5250000Y4900000D02*
X5650000D01*
X5100000Y5350000D02*
Y5517500D01*
X5620000Y5800000D02*
X5792999D01*
X5620000Y6350000D02*
X5623800Y6346200D01*
X5790499D01*
X5792999Y5800000D02*
X5793000Y5800000D01*
X5920000D01*
X6047000D01*
X6174000D01*
X5790499Y6346200D02*
X5793000Y6343700D01*
Y6342401D02*
Y6343700D01*
X6665000Y6350000D02*
X6870000D01*
X3928800Y10719500D02*
Y10846500D01*
Y10973500D02*
Y11100500D01*
Y10846500D02*
Y10973500D01*
X3350000Y11660000D02*
X3567500D01*
X3929269Y11100969D02*
Y11371963D01*
X3928800Y11100500D02*
X3929269Y11100969D01*
Y11371963D02*
X3929737Y11372432D01*
X4478343Y9947115D02*
Y10224738D01*
Y9947115D02*
X4479190Y9946268D01*
X6250000Y8550000D02*
X6650000D01*
X6252500Y9660000D02*
X6550000D01*
X4470324Y11369185D02*
X4470762Y11368746D01*
X4477496Y10225585D02*
X4478343Y10224738D01*
X4470762Y11100938D02*
Y11368746D01*
Y11100938D02*
X4471200Y11100500D01*
X7700000Y5200000D02*
Y5403807D01*
X8486500Y5800000D02*
X8613500D01*
X8150000D02*
X8359500D01*
X8486500D01*
X8613500D02*
X8740500D01*
X10945000Y7049999D02*
X11200001D01*
X8150000Y6350000D02*
X8153800Y6346200D01*
X7070000Y7852500D02*
Y8100000D01*
X8357000Y6346200D02*
X8359500Y6343700D01*
Y6342401D02*
Y6343700D01*
X8153800Y6346200D02*
X8357000D01*
X9245000Y6350000D02*
X9245000Y6350000D01*
X8300000Y9300000D02*
X8517500D01*
X6900000Y10110000D02*
Y10510000D01*
X8900000Y8550000D02*
X9300000D01*
X9245000Y6350000D02*
X9500000D01*
X9750000Y7852500D02*
Y8150000D01*
X11445000Y8399999D02*
X11700001D01*
X12266200Y7917500D02*
X12268700Y7920000D01*
X12549714D01*
X12556372Y7926658D01*
X12645000Y8250000D02*
X12647500Y8252500D01*
Y8547500D01*
X12650000Y8550000D01*
X8710121Y3758879D02*
X8715000Y3754000D01*
X5920000Y6342401D02*
Y6514853D01*
X5150000Y8550000D02*
X5450000D01*
X5150000Y7250000D02*
X5375000D01*
X5100000Y7300000D02*
Y8500000D01*
X5150000Y8550000D01*
X5100000Y7214853D02*
X5135147Y7250000D01*
X5100000Y7300000D02*
X5150000Y7250000D01*
X5150000Y6550000D02*
X5884852D01*
X5100000Y6500000D02*
X5150000Y6550000D01*
X5884852D02*
X5920000Y6514853D01*
X5100000Y6600000D02*
X5150000Y6550000D01*
X5100000Y6600000D02*
Y7214853D01*
Y6255000D02*
Y6500000D01*
X5550000Y11660000D02*
X6850000D01*
X5500000Y11610000D02*
X5550000Y11660000D01*
X6850000D02*
X6900000Y11610000D01*
X5500000Y11405000D02*
Y11610000D01*
X5450000Y11660000D02*
X5500000Y11610000D01*
Y11405000D02*
Y11610000D01*
X6900000Y11310000D02*
Y11610000D01*
X4700000Y11610000D02*
X4750000Y11660000D01*
X4650000D02*
X4700000Y11610000D01*
X4750000Y11660000D02*
X5450000D01*
X4355000D02*
X4650000D01*
X4700000Y11060000D02*
Y11610000D01*
X4613500Y10973500D02*
X4700000Y11060000D01*
X4471200Y10973500D02*
X4613500D01*
X4700000Y10210000D02*
X4750000Y10160000D01*
X4700000Y10210000D02*
Y10760000D01*
X4471200Y10846500D02*
X4613500D01*
X4474348Y10418733D02*
Y10716352D01*
X4613500Y10846500D02*
X4700000Y10760000D01*
X3732500Y11660000D02*
X4145000D01*
X4471200Y10719500D02*
X4474348Y10716352D01*
X4750000Y10160000D02*
X5300000D01*
X5350000Y10210000D01*
X5547500Y9660000D02*
Y10367500D01*
X5350000Y10210000D02*
Y10300000D01*
X5500000Y10415000D02*
X5547500Y10367500D01*
X5465000Y10415000D02*
X5500000D01*
X5350000Y10300000D02*
X5465000Y10415000D01*
X8744300Y6346200D02*
X9051200D01*
X9055000Y4905000D02*
Y6350000D01*
X6471200Y6346200D02*
X6475000Y6350000D01*
Y4925000D02*
Y6350000D01*
X6450000Y4900000D02*
X6475000Y4925000D01*
X6176500Y6346200D02*
X6471200D01*
X6174000Y6343700D02*
X6176500Y6346200D01*
X6174000Y6342401D02*
Y6343700D01*
X7700000Y6205000D02*
Y6414853D01*
X9147499Y7147500D02*
X9750000D01*
X7700000Y5568807D02*
Y5995000D01*
X5100000Y5682500D02*
Y6045000D01*
X6468750Y7021250D02*
Y7146250D01*
X6480000Y7010000D02*
X6540000D01*
X6600000Y6585147D02*
Y6950000D01*
X6468750Y7021250D02*
X6480000Y7010000D01*
X6365000Y7250000D02*
X6468750Y7146250D01*
X6540000Y7010000D02*
X6600000Y6950000D01*
X6564853Y6550000D02*
X6600000Y6585147D01*
X6082147Y6550000D02*
X6564853D01*
X8650000Y6550000D02*
X9250000D01*
X9044999Y7150147D02*
X9159999Y7035147D01*
X9264852D02*
X9300000Y7000000D01*
X9250000Y6550000D02*
X9300000Y6600000D01*
Y7000000D01*
X9044999Y7250000D02*
X9147499Y7147500D01*
X9159999Y7035147D02*
X9264852D01*
X9082500Y9550000D02*
X9095000Y9562500D01*
Y9705000D01*
X9049999Y9750000D02*
X9095000Y9705000D01*
X6470000Y7147500D02*
X7070000D01*
X6047000Y6342401D02*
Y6514853D01*
X6082147Y6550000D01*
X8750000Y9550000D02*
X8917500D01*
X7800000Y9500000D02*
X7850000Y9550000D01*
X8155000D01*
X8345000D02*
X8750000D01*
X8682500Y9482500D02*
X8750000Y9550000D01*
X8682500Y9300000D02*
Y9482500D01*
X7835147Y8535148D02*
X8085147D01*
X8100000Y8550000D01*
X7800000Y8570295D02*
Y9500000D01*
Y8500000D02*
X7835147Y8535148D01*
X7800000Y8570295D02*
X7835147Y8535148D01*
X7800000Y6585148D02*
Y7164853D01*
X7835147Y6550000D02*
X8450000D01*
X8486500Y6342401D02*
Y6513500D01*
X8613500Y6342401D02*
Y6513500D01*
X8450000Y6550000D02*
X8486500Y6513500D01*
X9044999Y7150147D02*
Y7250000D01*
X7800000Y6585148D02*
X7835147Y6550000D01*
X7700000Y6414853D02*
X7835147Y6550000D01*
X8613500Y6513500D02*
X8650000Y6550000D01*
X7889999Y7200000D02*
X8005000D01*
X7850000D02*
X7889999D01*
X8005000D02*
X8054999Y7250000D01*
X7800000Y7250000D02*
Y8500000D01*
Y7250000D02*
X7850000Y7200000D01*
X7800000Y7164853D02*
X7835147Y7200000D01*
D27*
X13800000Y4900000D02*
Y11100000D01*
X6900000Y11310000D02*
X13589999D01*
X13800000Y11100000D01*
X13400000Y4850000D02*
Y6000000D01*
X12600000Y4050000D02*
X13400000Y4850000D01*
X11180000Y5120000D02*
X11433248Y4866752D01*
Y3816752D02*
Y4866752D01*
Y3816752D02*
X11550000Y3700000D01*
X7350000Y9050000D02*
X7450000Y9150000D01*
Y9850000D01*
X7549999Y9949999D01*
X7646550D01*
X12150000Y9950000D02*
X12266609Y9833391D01*
Y9083391D02*
X12350000Y9000000D01*
X12266609Y9083391D02*
Y9833391D01*
X7646550Y9949999D02*
X12150000Y9950000D01*
X12350000Y9000000D02*
X13300000D01*
X13400000Y8900000D01*
Y6000000D02*
Y8900000D01*
X12750000Y3850000D02*
X13800000Y4900000D01*
X12750000Y3700000D02*
Y3850000D01*
X11450000Y3250000D02*
X11500000Y3200000D01*
X11450000Y3250000D02*
Y3600000D01*
X11550000Y3700000D01*
X11850000D01*
X5299999Y3200000D02*
X5299999Y3200001D01*
X3250000Y8600000D02*
X3650000D01*
X7800000Y4850000D02*
X8250000D01*
X4050000Y9400000D02*
X4450000Y9000000D01*
X4150000Y10400000D02*
X4452496D01*
Y10415585D01*
X4050000Y10300000D02*
X4150000Y10400000D01*
X4050000Y9400000D02*
Y10300000D01*
X4450000Y4600000D02*
Y8600000D01*
X5299999Y3500001D02*
Y3750000D01*
X4450000Y4600000D02*
X5299999Y3750000D01*
X4450000Y8600000D02*
Y9000000D01*
X6250000Y4250000D02*
X6450000Y4450000D01*
X6250000Y4250000D02*
X8750000D01*
X5900000Y3900000D02*
X6250000Y4250000D01*
X9050000Y4550000D02*
Y4900000D01*
X8750000Y4250000D02*
X9050000Y4550000D01*
X9051200Y6346200D02*
X9055000Y6350000D01*
X9050000Y4900000D02*
X9055000Y4905000D01*
X6450000Y4450000D02*
Y4900000D01*
X5900000Y3500001D02*
Y3900000D01*
X5899999Y3500001D02*
X5900000Y3500001D01*
D28*
X5525713Y3050000D02*
X9900000D01*
X5454928Y3120785D02*
Y3286724D01*
Y3120785D02*
X5525713Y3050000D01*
X5454928Y3286724D02*
X5518203Y3350000D01*
X5565584D01*
X5600675Y3378240D02*
Y3499325D01*
Y3378240D02*
X5628915Y3350000D01*
X5565584D02*
X5593824Y3378240D01*
X5600675D01*
X5628915Y3350000D02*
X9200000D01*
X9900000Y3050000D02*
X10000000Y3150000D01*
X12007879Y4292121D02*
Y4895222D01*
Y4292121D02*
X12150000Y4150000D01*
Y3700000D02*
Y4150000D01*
X10061145Y6511145D02*
X11411145D01*
X11950000Y7050000D02*
Y7700000D01*
X11411145Y6511145D02*
X11950000Y7050000D01*
X9850000Y6300000D02*
X10061145Y6511145D01*
X9850000Y5700000D02*
Y6300000D01*
Y5700000D02*
X9890000Y5660000D01*
X10050000D01*
X10950000Y5900000D02*
X12050000Y7000000D01*
X10950000Y5702574D02*
Y5900000D01*
X12050000Y7000000D02*
Y7600000D01*
X10932426Y5685000D02*
X10950000Y5702574D01*
X10775000Y5685000D02*
X10932426D01*
X10750000Y5660000D02*
X10775000Y5685000D01*
X10590000Y5660000D02*
X10750000D01*
X11950000Y7700000D02*
X12040500Y7790500D01*
X12266200D01*
X12050000Y7600000D02*
X12113500Y7663500D01*
X12050840Y6015000D02*
X13035001D01*
X13135001Y5915000D01*
Y4785000D02*
Y5915000D01*
X11550000Y5900000D02*
X12950000D01*
X13000000Y5850000D01*
X11500000Y5950000D02*
X11550000Y5900000D01*
X12450000Y4100000D02*
X13135001Y4785000D01*
X13000000Y4850000D02*
Y5850000D01*
X12296054Y4146054D02*
X13000000Y4850000D01*
X12296054Y3546054D02*
Y4146054D01*
X11585000Y6032574D02*
X11603574Y6014000D01*
X12049840D01*
X11585000Y6032574D02*
Y6292103D01*
X12049840Y6014000D02*
X12050840Y6015000D01*
X11500000Y5950000D02*
Y6320240D01*
X11585000Y6292103D02*
X12392450Y7099553D01*
X11500000Y6320240D02*
X12139950Y6960190D01*
X12113500Y7663500D02*
X12266200D01*
X11445001Y7105000D02*
Y7174451D01*
X11680050Y7409500D01*
X11723800D01*
X11390001Y7049999D02*
X11445001Y7105000D01*
X12222450Y7409500D02*
X12266200D01*
X12177950Y7365000D02*
X12222450Y7409500D01*
X12169240Y7365000D02*
X12177950D01*
X12139950Y7335710D02*
X12169240Y7365000D01*
X12139950Y6960190D02*
Y7335710D01*
X12150000Y3400000D02*
X12296054Y3546054D01*
X12266200Y7536500D02*
X12309950D01*
X12354450Y7492000D01*
X12363161D01*
X12392450Y7462710D01*
Y7099553D02*
Y7462710D01*
X12450000Y3700000D02*
Y4100000D01*
X12562722Y4895222D02*
X12700000Y5032500D01*
Y5355000D01*
X12172879Y4895222D02*
X12562722D01*
X10700000Y5440000D02*
X10725000Y5415000D01*
X10490000Y5440000D02*
X10700000D01*
X10350000Y5300000D02*
X10490000Y5440000D01*
X9900000Y5300000D02*
X10350000D01*
X9800000Y5200000D02*
X9900000Y5300000D01*
X9800000Y4850000D02*
Y5200000D01*
Y4850000D02*
X10000000Y4650000D01*
Y3150000D02*
Y4650000D01*
X9790000Y5440000D02*
X10050000D01*
X9650000Y5300000D02*
X9790000Y5440000D01*
X9650000Y4050000D02*
Y5300000D01*
X9263000Y3413000D02*
Y3754000D01*
X9200000Y3350000D02*
X9263000Y3413000D01*
X9537574Y3287574D02*
Y3495093D01*
X9537000Y3937000D02*
X9650000Y4050000D01*
X9537000Y3754000D02*
Y3937000D01*
Y3495667D02*
Y3754000D01*
Y3495667D02*
X9537574Y3495093D01*
X9450001Y3200001D02*
X9537574Y3287574D01*
X5899999Y3200001D02*
X9450001D01*
X11395000Y7899999D02*
X11445000Y7850000D01*
X11862501Y7917500D02*
X11895000Y7949999D01*
X11723800Y7917500D02*
X11862501D01*
X11395000Y8089999D02*
X11582827D01*
X11706300Y8062000D02*
X11723800Y8044500D01*
X11610826Y8062000D02*
X11706300D01*
X11582827Y8089999D02*
X11610826Y8062000D01*
X11895000Y7949999D02*
Y8395000D01*
X11890001Y8399999D02*
X11895000Y8395000D01*
X11395000Y7405000D02*
X11415535Y7425535D01*
X11497427D01*
X11590892Y7519000D01*
X11706300D01*
X11723800Y7536500D01*
X11395000Y7595000D02*
X11400000D01*
X11468501Y7663500D01*
X11723800D01*
X11445000Y7850000D02*
X11545001D01*
X11604500Y7790500D02*
X11723800D01*
X11545001Y7850000D02*
X11604500Y7790500D01*
X10050000Y5880000D02*
X10370000D01*
X10590000Y5660000D01*
X12700000Y5355000D02*
X12700000Y5355000D01*
D29*
X9700000Y9550000D02*
D03*
X10800000Y9950000D02*
D03*
X10950000Y11300000D02*
D03*
D30*
X8715000Y3754000D02*
D03*
X8852000Y3500000D02*
D03*
X9126000D02*
D03*
X9400000D02*
D03*
X9674000D02*
D03*
X8989000Y3754000D02*
D03*
X9537000D02*
D03*
X9263000D02*
D03*
D31*
X8013000Y3627000D02*
D03*
X10513000D02*
D03*
D32*
X9811000Y3754000D02*
D03*
D33*
X5599999Y3500001D02*
D03*
X5299999Y3200001D02*
D03*
X11850000Y3400000D02*
D03*
Y3700000D02*
D03*
X12450000Y3400000D02*
D03*
X12750000Y3700000D02*
D03*
X12150000Y3400000D02*
D03*
X12450000Y3700000D02*
D03*
X12150000D02*
D03*
X5299999Y3500001D02*
D03*
X5599999Y3200001D02*
D03*
X5899999Y3500001D02*
D03*
D34*
Y3200001D02*
D03*
X12750000Y3400000D02*
D03*
D35*
X12534000Y2968000D02*
D03*
X12066000D02*
D03*
X5599999Y2768001D02*
D03*
D36*
X3950000Y7222726D02*
D03*
Y6418181D02*
D03*
Y4809090D02*
D03*
Y4004545D02*
D03*
X12773799Y9532500D02*
D03*
X11250000Y2950000D02*
D03*
X6923799Y3732500D02*
D03*
X7073799Y5382500D02*
D03*
X7273799Y6432500D02*
D03*
X5528727Y3953285D02*
D03*
X4823799Y4982500D02*
D03*
Y6732500D02*
D03*
Y7582500D02*
D03*
X4873799Y9532500D02*
D03*
X7023799D02*
D03*
X7323799Y8482500D02*
D03*
X10493799Y6202500D02*
D03*
X11223799Y5582500D02*
D03*
X10723799Y4482500D02*
D03*
X11773799Y4532500D02*
D03*
X12873799Y6582500D02*
D03*
Y7432500D02*
D03*
X10623799Y7732500D02*
D03*
X11873798Y8932500D02*
D03*
X10773799D02*
D03*
X9673799D02*
D03*
X7699999Y10650000D02*
D03*
X8799999D02*
D03*
X9899999D02*
D03*
X10999999D02*
D03*
X12099998D02*
D03*
X13600000Y4250000D02*
D03*
Y3100000D02*
D03*
X12049999Y12100000D02*
D03*
X10949999D02*
D03*
X9849999D02*
D03*
X8749999D02*
D03*
X7649999D02*
D03*
X6549999D02*
D03*
X5450000D02*
D03*
X4350000D02*
D03*
X3250000D02*
D03*
X13600000Y5400000D02*
D03*
Y6450000D02*
D03*
Y7650000D02*
D03*
Y8800000D02*
D03*
Y9950000D02*
D03*
Y10950000D02*
D03*
X13099998Y2950000D02*
D03*
X10457142D02*
D03*
X9135714D02*
D03*
X7814285D02*
D03*
X6492857D02*
D03*
X4700000Y2900000D02*
D03*
X3850000Y2950000D02*
D03*
X3250000Y3200000D02*
D03*
Y4004545D02*
D03*
Y4809090D02*
D03*
Y5613636D02*
D03*
Y6418181D02*
D03*
Y7222726D02*
D03*
Y8027271D02*
D03*
Y9636362D02*
D03*
X3250000Y10440907D02*
D03*
X3250000Y11245452D02*
D03*
X12700000Y5750000D02*
D03*
X5100000Y5350000D02*
D03*
X5250000Y4900000D02*
D03*
X5620000Y6350000D02*
D03*
Y5800000D02*
D03*
X6870000Y6350000D02*
D03*
X3250000Y8600000D02*
D03*
X3350000Y11660000D02*
D03*
X3929737Y11372432D02*
D03*
X4479190Y9946268D02*
D03*
X6650000Y8550000D02*
D03*
X6550000Y9660000D02*
D03*
X4470324Y11369185D02*
D03*
X7700000Y5200000D02*
D03*
X7800000Y4850000D02*
D03*
X8150000Y5800000D02*
D03*
Y6350000D02*
D03*
X10945000Y7049999D02*
D03*
X9500000Y6350000D02*
D03*
X7070000Y8100000D02*
D03*
X8300000Y9300000D02*
D03*
X6900000Y10110000D02*
D03*
X9300000Y8550000D02*
D03*
X9750000Y8150000D02*
D03*
X11445000Y8399999D02*
D03*
X12556372Y7926658D02*
D03*
X12650000Y8550000D02*
D03*
%TF.MD5,7fb65c51ed8eb864e14696ba780a127d*%
M02*
