M48
;GenerationSoftware,Autodesk,EAGLE,9.6.2*%
;CreationDate,2023-08-01T20:18:02Z*%
FMAT,2
ICI,OFF
METRIC,TZ,000.000
T4C0.800
T3C0.813
T2C0.889
T1C1.016
%
G90
M71
T1
X20933Y10385
X20933Y15465
X20933Y12925
X20933Y7845
X14800Y15510
X14800Y12970
X14800Y10430
X14800Y7890
T2
X49050Y1410
X46510Y1410
X43970Y1410
X41430Y1410
X38890Y1410
X36350Y1410
X33810Y1410
X51590Y1410
T3
X96000Y53880
X96000Y43720
X76800Y49440
X76800Y44360
X53110Y53100
X45490Y53100
X38200Y43020
X38200Y53180
X38100Y27120
X38100Y37280
X28400Y53140
X28400Y48060
X28400Y37540
X28400Y32460
X19600Y53140
X19600Y48060
X1200Y36920
X1200Y47080
T4
X12858Y47060
X10445Y49346
X10445Y44774
M30