M48
;GenerationSoftware,Autodesk,EAGLE,9.7.0*%
;CreationDate,2024-06-06T14:06:18Z*%
FMAT,2
ICI,OFF
METRIC,TZ,000.000
T3C0.350
T2C0.750
T1C0.900
%
G90
M71
T1
X81470Y32810
X81780Y57040
X83780Y57040
X81780Y59040
X83780Y59040
X81780Y61040
X83780Y61040
X81780Y81180
X83780Y81180
X81780Y83180
X83780Y83180
X81780Y85180
X83780Y85180
X4030Y85190
X83470Y32810
X81470Y34810
X83470Y34810
X81470Y36810
X83470Y36810
X81170Y8810
X83170Y8810
X81170Y10810
X83170Y10810
X81170Y12810
X83170Y12810
X4130Y13190
X2130Y13190
X4130Y11190
X2130Y11190
X4130Y9190
X2130Y9190
X3930Y37190
X1930Y37190
X3930Y35190
X1930Y35190
X3930Y33190
X1930Y33190
X4030Y61090
X2030Y61090
X4030Y59090
X2030Y59090
X4030Y57090
X2030Y57090
X2030Y85190
X4030Y83190
X2030Y83190
X4030Y81190
X2030Y81190
X29000Y2000
X29000Y0
X31000Y2000
X31000Y0
X33000Y2000
X33000Y0
X56000Y2000
X56000Y0
X58000Y2000
X58000Y0
X60000Y2000
X60000Y0
T2
X20520Y70800
X28760Y91320
X26750Y91320
X28760Y93330
X26750Y93330
X36760Y91320
X34750Y91320
X36760Y93330
X34750Y93330
X40760Y91330
X20520Y40790
X40760Y93340
X38750Y93340
X44760Y91330
X42750Y91330
X44760Y93340
X42750Y93340
X48760Y91320
X46750Y91320
X48760Y93330
X46750Y93330
X52760Y91320
X50750Y91320
X52760Y93330
X50750Y93330
X56770Y91320
X54760Y91320
X56770Y93330
X54760Y93330
X64760Y91320
X62750Y91320
X64760Y93330
X62750Y93330
X22530Y64790
X22530Y36790
X22530Y38790
X20530Y36790
X20530Y38790
X22520Y66800
X20530Y64790
X20540Y66790
X32750Y91320
X30750Y91320
X30750Y93310
X32750Y93310
X58750Y93320
X58760Y91330
X60740Y93320
X60750Y91300
X22520Y32790
X22530Y34800
X20530Y32800
X20540Y34790
X22520Y40800
X22520Y42800
X20520Y42790
X20520Y44790
X22520Y44800
X22520Y46800
X20520Y46810
X22530Y48800
X20520Y48790
X38750Y91330
X22520Y50790
X20530Y50800
X22520Y52800
X20520Y52790
X22530Y54800
X20530Y54800
X22530Y56800
X20520Y56800
X22530Y58790
X20520Y58790
X22530Y60790
X20520Y60790
X22530Y62800
X20520Y62800
X22530Y68790
X20520Y68790
X22530Y70800
T3
X81760Y85200
M30