M48
;GenerationSoftware,Autodesk,EAGLE,9.6.2*%
;CreationDate,2024-03-05T18:03:00Z*%
FMAT,2
ICI,OFF
METRIC,TZ,000.000
T7C0.350
T6C0.600
T5C0.750
T4C0.800
T3C0.900
T2C0.914
T1C1.020
%
G90
M71
T1
X5080Y19650
X5080Y10650
X2080Y16650
X5080Y16650
X2080Y13650
X5080Y13650
X2080Y10650
X2080Y19650
T2
X7900Y45851
X7900Y39349
T3
X70200Y39200
X72200Y39200
X70200Y37200
X72200Y37200
X70200Y35200
X72200Y35200
T4
X56600Y33190
X56600Y40810
X56600Y38270
X56600Y35730
T5
X20550Y13370
X20550Y15370
X20540Y41370
X22530Y41380
X20540Y43360
X22560Y43370
X81070Y5140
X79060Y5150
X81060Y3150
X73060Y5140
X73070Y3140
X71060Y5140
X71070Y3140
X69070Y3140
X69060Y5140
X67060Y5140
X67050Y3140
X65060Y5150
X65070Y3140
X63070Y5140
X63060Y3150
X61060Y5140
X61070Y3140
X59060Y5150
X59060Y3150
X57060Y5150
X57060Y3140
X55070Y5150
X55070Y3140
X53070Y5150
X53070Y3140
X51060Y5150
X51060Y3140
X45070Y5150
X45070Y3140
X43060Y5150
X43060Y3140
X22540Y11380
X22540Y9370
X20530Y11380
X20530Y9370
X22540Y19380
X22540Y17370
X20530Y19380
X20530Y17370
X22530Y23380
X22530Y21370
X20520Y23380
X20520Y21370
X22530Y27380
X22530Y25370
X20520Y27380
X20520Y25370
X22540Y31380
X22540Y29370
X20530Y31380
X20530Y29370
X22540Y35380
X22540Y33370
X20530Y35380
X20530Y33370
X22540Y39390
X22540Y37380
X20530Y39390
X20530Y37380
X22540Y47380
X20530Y47380
X20530Y45370
X47060Y5140
X77070Y5150
X22540Y45370
X75070Y5150
X77070Y3150
X75070Y3150
X49070Y5150
X79070Y3160
X49070Y3150
X47070Y3160
X22540Y15370
X22540Y13370
T6
X84400Y3320
X95480Y3320
X95480Y5320
X95480Y7320
X84400Y7320
X84400Y5320
T7
X43220Y10740
X36350Y36400
X44350Y40550
X31450Y42800
X27250Y28800
X13199Y39349
X5050Y22360
X7959Y45910
X34100Y3450
M30