M48
;GenerationSoftware,Autodesk,EAGLE,9.6.2*%
;CreationDate,2023-11-30T16:49:49Z*%
FMAT,2
ICI,OFF
METRIC,TZ,000.000
T5C0.350
T4C1.016
T3C1.020
T2C2.000
T1C3.302
%
G90
M71
T1
X95522Y11000
X70478Y11000
T2
X51200Y63100
X64200Y63100
X64200Y35100
X51200Y35100
T3
X54562Y12965
X60562Y9965
X51562Y9965
X60562Y12965
X51562Y12965
X40000Y9942
X40000Y12942
X37000Y9942
X34000Y9942
X37000Y12942
X34000Y12942
X57562Y9965
X57562Y12965
X54562Y9965
T4
X88486Y12270
X85743Y12270
X83000Y12270
X80257Y12270
X77514Y12270
X87115Y9730
X78885Y9730
X81628Y9730
X84372Y9730
T5
X70000Y25000
X12000Y49100
X4000Y2000
X7900Y5100
X11900Y29400
X27200Y26600
M30