G04 EAGLE Gerber RS-274X export*
G75*
%MOMM*%
%FSLAX34Y34*%
%LPD*%
%INBottom Copper*%
%IPPOS*%
%AMOC8*
5,1,8,0,0,1.08239X$1,22.5*%
G01*
%ADD10C,0.254000*%
%ADD11C,0.222250*%
%ADD12R,1.651000X1.651000*%
%ADD13C,1.651000*%
%ADD14R,3.300000X8.000000*%
%ADD15R,1.143000X1.016000*%
%ADD16R,1.500000X0.300000*%
%ADD17R,1.200000X0.690000*%
%ADD18C,1.308000*%
%ADD19C,0.609600*%
%ADD20C,0.304800*%


D10*
X740385Y490380D02*
X740385Y498000D01*
X751815Y498000D01*
X751815Y490380D01*
X740385Y490380D01*
X740385Y492793D02*
X751815Y492793D01*
X751815Y495206D02*
X740385Y495206D01*
X740385Y497619D02*
X751815Y497619D01*
X740385Y480220D02*
X740385Y472600D01*
X740385Y480220D02*
X751815Y480220D01*
X751815Y472600D01*
X740385Y472600D01*
X740385Y475013D02*
X751815Y475013D01*
X751815Y477426D02*
X740385Y477426D01*
X740385Y479839D02*
X751815Y479839D01*
D11*
X316334Y481314D02*
X316334Y474646D01*
X309666Y474646D01*
X309666Y481314D01*
X316334Y481314D01*
X316334Y476758D02*
X309666Y476758D01*
X309666Y478870D02*
X316334Y478870D01*
X316334Y480982D02*
X309666Y480982D01*
X316334Y489886D02*
X316334Y496554D01*
X316334Y489886D02*
X309666Y489886D01*
X309666Y496554D01*
X316334Y496554D01*
X316334Y491998D02*
X309666Y491998D01*
X309666Y494110D02*
X316334Y494110D01*
X316334Y496222D02*
X309666Y496222D01*
X316534Y402014D02*
X316534Y395346D01*
X309866Y395346D01*
X309866Y402014D01*
X316534Y402014D01*
X316534Y397458D02*
X309866Y397458D01*
X309866Y399570D02*
X316534Y399570D01*
X316534Y401682D02*
X309866Y401682D01*
X316534Y410586D02*
X316534Y417254D01*
X316534Y410586D02*
X309866Y410586D01*
X309866Y417254D01*
X316534Y417254D01*
X316534Y412698D02*
X309866Y412698D01*
X309866Y414810D02*
X316534Y414810D01*
X316534Y416922D02*
X309866Y416922D01*
D10*
X249715Y473000D02*
X249715Y480620D01*
X249715Y473000D02*
X238285Y473000D01*
X238285Y480620D01*
X249715Y480620D01*
X249715Y475413D02*
X238285Y475413D01*
X238285Y477826D02*
X249715Y477826D01*
X249715Y480239D02*
X238285Y480239D01*
X249715Y490780D02*
X249715Y498400D01*
X249715Y490780D02*
X238285Y490780D01*
X238285Y498400D01*
X249715Y498400D01*
X249715Y493193D02*
X238285Y493193D01*
X238285Y495606D02*
X249715Y495606D01*
X249715Y498019D02*
X238285Y498019D01*
D12*
X513900Y215100D03*
D13*
X488500Y215100D03*
X463100Y215100D03*
X437700Y215100D03*
X412300Y215100D03*
X386900Y215100D03*
X361500Y215100D03*
X336100Y215100D03*
D14*
X539600Y494700D03*
X492600Y494700D03*
D15*
X819040Y528400D03*
X839360Y519510D03*
X839360Y537290D03*
D11*
X909366Y535386D02*
X909366Y542054D01*
X916034Y542054D01*
X916034Y535386D01*
X909366Y535386D01*
X909366Y537498D02*
X916034Y537498D01*
X916034Y539610D02*
X909366Y539610D01*
X909366Y541722D02*
X916034Y541722D01*
X909366Y526814D02*
X909366Y520146D01*
X909366Y526814D02*
X916034Y526814D01*
X916034Y520146D01*
X909366Y520146D01*
X909366Y522258D02*
X916034Y522258D01*
X916034Y524370D02*
X909366Y524370D01*
X909366Y526482D02*
X916034Y526482D01*
X403766Y497054D02*
X403766Y490386D01*
X403766Y497054D02*
X410434Y497054D01*
X410434Y490386D01*
X403766Y490386D01*
X403766Y492498D02*
X410434Y492498D01*
X410434Y494610D02*
X403766Y494610D01*
X403766Y496722D02*
X410434Y496722D01*
X403766Y481814D02*
X403766Y475146D01*
X403766Y481814D02*
X410434Y481814D01*
X410434Y475146D01*
X403766Y475146D01*
X403766Y477258D02*
X410434Y477258D01*
X410434Y479370D02*
X403766Y479370D01*
X403766Y481482D02*
X410434Y481482D01*
X403866Y417054D02*
X403866Y410386D01*
X403866Y417054D02*
X410534Y417054D01*
X410534Y410386D01*
X403866Y410386D01*
X403866Y412498D02*
X410534Y412498D01*
X410534Y414610D02*
X403866Y414610D01*
X403866Y416722D02*
X410534Y416722D01*
X403866Y401814D02*
X403866Y395146D01*
X403866Y401814D02*
X410534Y401814D01*
X410534Y395146D01*
X403866Y395146D01*
X403866Y397258D02*
X410534Y397258D01*
X410534Y399370D02*
X403866Y399370D01*
X403866Y401482D02*
X410534Y401482D01*
X21966Y467386D02*
X21966Y474054D01*
X28634Y474054D01*
X28634Y467386D01*
X21966Y467386D01*
X21966Y469498D02*
X28634Y469498D01*
X28634Y471610D02*
X21966Y471610D01*
X21966Y473722D02*
X28634Y473722D01*
X21966Y458814D02*
X21966Y452146D01*
X21966Y458814D02*
X28634Y458814D01*
X28634Y452146D01*
X21966Y452146D01*
X21966Y454258D02*
X28634Y454258D01*
X28634Y456370D02*
X21966Y456370D01*
X21966Y458482D02*
X28634Y458482D01*
D16*
X148300Y275900D03*
X148300Y282400D03*
X148300Y288900D03*
X148300Y295400D03*
X203800Y275900D03*
X203800Y282400D03*
X203800Y288900D03*
X203800Y295400D03*
D17*
X672901Y494800D03*
X672901Y485300D03*
X672901Y475800D03*
X646899Y475800D03*
X646899Y494800D03*
D18*
X128580Y470600D03*
X104450Y493460D03*
X104450Y447740D03*
D19*
X912700Y505700D02*
X912700Y523480D01*
X912700Y505700D02*
X907000Y500000D01*
X839360Y507640D02*
X839360Y519510D01*
X847000Y500000D02*
X907000Y500000D01*
X847000Y500000D02*
X839360Y507640D01*
X25300Y455480D02*
X25300Y280700D01*
X238000Y234000D02*
X252000Y248000D01*
X252000Y262000D01*
D20*
X238000Y276000D01*
X203900Y276000D01*
D19*
X72000Y234000D02*
X25300Y280700D01*
X72000Y234000D02*
X238000Y234000D01*
X839360Y425360D02*
X839360Y519510D01*
X839360Y425360D02*
X719000Y305000D01*
X549000Y305000D01*
X513900Y269900D01*
X513900Y215100D01*
X513900Y182900D01*
X498000Y167000D02*
X428000Y167000D01*
X412300Y182700D01*
X412300Y215100D01*
X498000Y167000D02*
X513900Y182900D01*
X412300Y215100D02*
X412300Y244700D01*
X397000Y260000D01*
X264000Y260000D01*
X252000Y248000D01*
X408080Y494700D02*
X492600Y494700D01*
X408080Y494700D02*
X407100Y493720D01*
X313500Y493720D01*
X313000Y493220D01*
X244870Y493720D02*
X244000Y494590D01*
X244870Y493720D02*
X313500Y493720D01*
X244610Y493460D02*
X104450Y493460D01*
X244610Y493460D02*
X244870Y493720D01*
X313400Y398480D02*
X407200Y398480D01*
X313400Y398480D02*
X313200Y398680D01*
X244000Y417000D02*
X244000Y476810D01*
X262520Y398480D02*
X313400Y398480D01*
X262520Y398480D02*
X244000Y417000D01*
X148300Y275900D02*
X119100Y275900D01*
X104450Y290550D02*
X104450Y447740D01*
X104450Y290550D02*
X119100Y275900D01*
X148300Y275900D02*
X148300Y282400D01*
X148300Y288900D01*
X148300Y295400D01*
X148300Y431300D01*
X193810Y476810D02*
X244000Y476810D01*
X193810Y476810D02*
X148300Y431300D01*
X672901Y485300D02*
X694700Y485300D01*
X705000Y475000D01*
X744690Y475000D01*
X746100Y476410D01*
X746100Y422100D01*
X722480Y398480D01*
X408000Y398480D01*
X407200Y398480D01*
X488500Y280500D02*
X488500Y215100D01*
X488500Y280500D02*
X407000Y362000D01*
X407000Y397480D01*
X408000Y398480D01*
X746100Y494190D02*
X746100Y514100D01*
X760400Y528400D02*
X819040Y528400D01*
X760400Y528400D02*
X746100Y514100D01*
X745490Y494800D02*
X746100Y494190D01*
X745490Y494800D02*
X672901Y494800D01*
D20*
X672901Y475800D02*
X663200Y475800D01*
X658000Y481000D01*
X658000Y492000D01*
X661000Y495000D01*
X672701Y495000D01*
X672901Y494800D01*
D19*
X646899Y494800D02*
X539700Y494800D01*
X539600Y494700D01*
X407200Y478380D02*
X407200Y413720D01*
X407200Y478380D02*
X407100Y478480D01*
X407200Y413720D02*
X633720Y413720D01*
X647000Y427000D01*
X647000Y475699D01*
X646899Y475800D01*
X407100Y478480D02*
X313500Y478480D01*
X313000Y477980D01*
X313000Y414120D01*
X313200Y413920D01*
X437700Y264100D02*
X437700Y215100D01*
X437700Y264100D02*
X412900Y288900D01*
D20*
X203800Y288900D01*
X203800Y295400D02*
X203800Y309800D01*
X210000Y316000D01*
D19*
X426000Y316000D01*
X463100Y278900D02*
X463100Y215100D01*
X463100Y278900D02*
X426000Y316000D01*
X128580Y470600D02*
X128460Y470720D01*
X29000Y470720D01*
X25300Y470720D01*
X336100Y215100D02*
X336100Y162100D01*
X294000Y120000D02*
X108000Y120000D01*
X-13000Y241000D01*
X-13000Y465000D02*
X-6000Y472000D01*
X27720Y472000D01*
X29000Y470720D01*
X336100Y162100D02*
X294000Y120000D01*
X-13000Y241000D02*
X-13000Y465000D01*
X840790Y538720D02*
X912700Y538720D01*
X840790Y538720D02*
X839360Y537290D01*
X912700Y538720D02*
X938280Y538720D01*
X959000Y518000D01*
X959000Y291000D01*
X807000Y139000D02*
X413000Y139000D01*
X386900Y165100D01*
X386900Y215100D01*
X807000Y139000D02*
X959000Y291000D01*
M02*
