G04 EAGLE Gerber RS-274X export*
G75*
%MOMM*%
%FSLAX34Y34*%
%LPD*%
%INSilkscreen Bottom*%
%IPPOS*%
%AMOC8*
5,1,8,0,0,1.08239X$1,22.5*%
G01*
%ADD10C,0.127000*%
%ADD11C,0.101600*%
%ADD12C,0.025400*%
%ADD13C,0.152400*%


D10*
X737210Y468790D02*
X754990Y468790D01*
X754990Y501810D01*
X737210Y501810D01*
X737210Y468790D01*
X319350Y471630D02*
X319350Y499570D01*
X306650Y499570D01*
X306650Y471630D01*
X319350Y471630D01*
X319550Y420270D02*
X319550Y392330D01*
X319550Y420270D02*
X306850Y420270D01*
X306850Y392330D01*
X319550Y392330D01*
X252890Y502210D02*
X235110Y502210D01*
X235110Y469190D01*
X252890Y469190D01*
X252890Y502210D01*
X526600Y227800D02*
X526600Y202400D01*
X526600Y227800D02*
X323400Y227800D01*
X323400Y202400D01*
X526600Y202400D01*
D11*
X530974Y192833D02*
X540062Y192833D01*
X530974Y192832D02*
X530875Y192830D01*
X530775Y192824D01*
X530676Y192815D01*
X530578Y192802D01*
X530480Y192785D01*
X530382Y192764D01*
X530286Y192739D01*
X530191Y192711D01*
X530097Y192679D01*
X530004Y192644D01*
X529912Y192605D01*
X529822Y192562D01*
X529734Y192517D01*
X529647Y192467D01*
X529563Y192415D01*
X529480Y192359D01*
X529400Y192301D01*
X529322Y192239D01*
X529247Y192174D01*
X529174Y192106D01*
X529104Y192036D01*
X529036Y191963D01*
X528971Y191888D01*
X528909Y191810D01*
X528851Y191730D01*
X528795Y191647D01*
X528743Y191563D01*
X528693Y191476D01*
X528648Y191388D01*
X528605Y191298D01*
X528566Y191206D01*
X528531Y191113D01*
X528499Y191019D01*
X528471Y190924D01*
X528446Y190828D01*
X528425Y190730D01*
X528408Y190632D01*
X528395Y190534D01*
X528386Y190435D01*
X528380Y190335D01*
X528378Y190236D01*
X528378Y188938D01*
X537466Y198106D02*
X540062Y201352D01*
X528378Y201352D01*
X528378Y204597D02*
X528378Y198106D01*
D10*
X536100Y459700D02*
X496100Y459700D01*
X496100Y529700D02*
X536100Y529700D01*
X555100Y504700D02*
X554856Y504697D01*
X554613Y504688D01*
X554370Y504673D01*
X554127Y504653D01*
X553885Y504626D01*
X553644Y504593D01*
X553404Y504555D01*
X553164Y504511D01*
X552926Y504461D01*
X552689Y504405D01*
X552453Y504343D01*
X552219Y504276D01*
X551987Y504203D01*
X551756Y504124D01*
X551528Y504040D01*
X551301Y503950D01*
X551077Y503855D01*
X550855Y503754D01*
X550636Y503648D01*
X550420Y503537D01*
X550206Y503420D01*
X549995Y503299D01*
X549787Y503172D01*
X549582Y503040D01*
X549381Y502903D01*
X549183Y502761D01*
X548988Y502615D01*
X548797Y502464D01*
X548610Y502308D01*
X548427Y502148D01*
X548247Y501983D01*
X548072Y501814D01*
X547901Y501641D01*
X547734Y501463D01*
X547572Y501282D01*
X547414Y501097D01*
X547260Y500908D01*
X547111Y500715D01*
X546967Y500519D01*
X546828Y500319D01*
X546693Y500116D01*
X546564Y499909D01*
X546440Y499700D01*
X546321Y499488D01*
X546207Y499272D01*
X546098Y499055D01*
X545995Y498834D01*
X545897Y498611D01*
X545804Y498386D01*
X545717Y498158D01*
X545636Y497929D01*
X545560Y497697D01*
X545490Y497464D01*
X545425Y497229D01*
X545366Y496993D01*
X545313Y496755D01*
X545266Y496516D01*
X545225Y496276D01*
X545190Y496035D01*
X545160Y495794D01*
X545136Y495551D01*
X545119Y495308D01*
X545107Y495065D01*
X545101Y494822D01*
X545101Y494578D01*
X545107Y494335D01*
X545119Y494092D01*
X545136Y493849D01*
X545160Y493606D01*
X545190Y493365D01*
X545225Y493124D01*
X545266Y492884D01*
X545313Y492645D01*
X545366Y492407D01*
X545425Y492171D01*
X545490Y491936D01*
X545560Y491703D01*
X545636Y491471D01*
X545717Y491242D01*
X545804Y491014D01*
X545897Y490789D01*
X545995Y490566D01*
X546098Y490345D01*
X546207Y490128D01*
X546321Y489912D01*
X546440Y489700D01*
X546564Y489491D01*
X546693Y489284D01*
X546828Y489081D01*
X546967Y488881D01*
X547111Y488685D01*
X547260Y488492D01*
X547414Y488303D01*
X547572Y488118D01*
X547734Y487937D01*
X547901Y487759D01*
X548072Y487586D01*
X548247Y487417D01*
X548427Y487252D01*
X548610Y487092D01*
X548797Y486936D01*
X548988Y486785D01*
X549183Y486639D01*
X549381Y486497D01*
X549582Y486360D01*
X549787Y486228D01*
X549995Y486101D01*
X550206Y485980D01*
X550420Y485863D01*
X550636Y485752D01*
X550855Y485646D01*
X551077Y485545D01*
X551301Y485450D01*
X551528Y485360D01*
X551756Y485276D01*
X551987Y485197D01*
X552219Y485124D01*
X552453Y485057D01*
X552689Y484995D01*
X552926Y484939D01*
X553164Y484889D01*
X553404Y484845D01*
X553644Y484807D01*
X553885Y484774D01*
X554127Y484747D01*
X554370Y484727D01*
X554613Y484712D01*
X554856Y484703D01*
X555100Y484700D01*
X477100Y484700D02*
X477344Y484703D01*
X477587Y484712D01*
X477830Y484727D01*
X478073Y484747D01*
X478315Y484774D01*
X478556Y484807D01*
X478796Y484845D01*
X479036Y484889D01*
X479274Y484939D01*
X479511Y484995D01*
X479747Y485057D01*
X479981Y485124D01*
X480213Y485197D01*
X480444Y485276D01*
X480672Y485360D01*
X480899Y485450D01*
X481123Y485545D01*
X481345Y485646D01*
X481564Y485752D01*
X481780Y485863D01*
X481994Y485980D01*
X482205Y486101D01*
X482413Y486228D01*
X482618Y486360D01*
X482819Y486497D01*
X483017Y486639D01*
X483212Y486785D01*
X483403Y486936D01*
X483590Y487092D01*
X483773Y487252D01*
X483953Y487417D01*
X484128Y487586D01*
X484299Y487759D01*
X484466Y487937D01*
X484628Y488118D01*
X484786Y488303D01*
X484940Y488492D01*
X485089Y488685D01*
X485233Y488881D01*
X485372Y489081D01*
X485507Y489284D01*
X485636Y489491D01*
X485760Y489700D01*
X485879Y489912D01*
X485993Y490128D01*
X486102Y490345D01*
X486205Y490566D01*
X486303Y490789D01*
X486396Y491014D01*
X486483Y491242D01*
X486564Y491471D01*
X486640Y491703D01*
X486710Y491936D01*
X486775Y492171D01*
X486834Y492407D01*
X486887Y492645D01*
X486934Y492884D01*
X486975Y493124D01*
X487010Y493365D01*
X487040Y493606D01*
X487064Y493849D01*
X487081Y494092D01*
X487093Y494335D01*
X487099Y494578D01*
X487099Y494822D01*
X487093Y495065D01*
X487081Y495308D01*
X487064Y495551D01*
X487040Y495794D01*
X487010Y496035D01*
X486975Y496276D01*
X486934Y496516D01*
X486887Y496755D01*
X486834Y496993D01*
X486775Y497229D01*
X486710Y497464D01*
X486640Y497697D01*
X486564Y497929D01*
X486483Y498158D01*
X486396Y498386D01*
X486303Y498611D01*
X486205Y498834D01*
X486102Y499055D01*
X485993Y499272D01*
X485879Y499488D01*
X485760Y499700D01*
X485636Y499909D01*
X485507Y500116D01*
X485372Y500319D01*
X485233Y500519D01*
X485089Y500715D01*
X484940Y500908D01*
X484786Y501097D01*
X484628Y501282D01*
X484466Y501463D01*
X484299Y501641D01*
X484128Y501814D01*
X483953Y501983D01*
X483773Y502148D01*
X483590Y502308D01*
X483403Y502464D01*
X483212Y502615D01*
X483017Y502761D01*
X482819Y502903D01*
X482618Y503040D01*
X482413Y503172D01*
X482205Y503299D01*
X481994Y503420D01*
X481780Y503537D01*
X481564Y503648D01*
X481345Y503754D01*
X481123Y503855D01*
X480899Y503950D01*
X480672Y504040D01*
X480444Y504124D01*
X480213Y504203D01*
X479981Y504276D01*
X479747Y504343D01*
X479511Y504405D01*
X479274Y504461D01*
X479036Y504511D01*
X478796Y504555D01*
X478556Y504593D01*
X478315Y504626D01*
X478073Y504653D01*
X477830Y504673D01*
X477587Y504688D01*
X477344Y504697D01*
X477100Y504700D01*
X536100Y459700D02*
X536639Y459780D01*
X537176Y459873D01*
X537710Y459980D01*
X538242Y460100D01*
X538771Y460233D01*
X539296Y460378D01*
X539817Y460537D01*
X540334Y460708D01*
X540847Y460892D01*
X541356Y461088D01*
X541859Y461297D01*
X542357Y461518D01*
X542850Y461751D01*
X543336Y461997D01*
X543817Y462254D01*
X544291Y462523D01*
X544758Y462803D01*
X545218Y463095D01*
X545671Y463398D01*
X546117Y463712D01*
X546554Y464037D01*
X546984Y464372D01*
X547405Y464718D01*
X547817Y465074D01*
X548221Y465441D01*
X548615Y465817D01*
X549000Y466202D01*
X549376Y466597D01*
X549742Y467001D01*
X550097Y467414D01*
X550443Y467835D01*
X550778Y468265D01*
X551102Y468703D01*
X551416Y469149D01*
X551718Y469602D01*
X552010Y470063D01*
X552289Y470530D01*
X552558Y471004D01*
X552814Y471485D01*
X553059Y471972D01*
X553292Y472465D01*
X553513Y472963D01*
X553721Y473467D01*
X553917Y473975D01*
X554100Y474488D01*
X554271Y475006D01*
X554429Y475528D01*
X554574Y476053D01*
X554706Y476582D01*
X554825Y477113D01*
X554931Y477648D01*
X555024Y478185D01*
X555104Y478724D01*
X555170Y479265D01*
X555223Y479807D01*
X555263Y480351D01*
X555289Y480895D01*
X555302Y481440D01*
X555302Y481985D01*
X555289Y482529D01*
X555262Y483074D01*
X555221Y483617D01*
X555167Y484159D01*
X555101Y484700D01*
X555101Y504700D02*
X555167Y505241D01*
X555221Y505783D01*
X555262Y506326D01*
X555289Y506871D01*
X555302Y507415D01*
X555302Y507960D01*
X555289Y508505D01*
X555263Y509049D01*
X555223Y509593D01*
X555170Y510135D01*
X555104Y510676D01*
X555024Y511215D01*
X554931Y511752D01*
X554825Y512287D01*
X554706Y512818D01*
X554574Y513347D01*
X554429Y513872D01*
X554271Y514394D01*
X554100Y514912D01*
X553917Y515425D01*
X553721Y515933D01*
X553513Y516437D01*
X553292Y516935D01*
X553059Y517428D01*
X552814Y517915D01*
X552558Y518396D01*
X552289Y518870D01*
X552010Y519337D01*
X551718Y519798D01*
X551416Y520251D01*
X551102Y520697D01*
X550778Y521135D01*
X550443Y521565D01*
X550097Y521986D01*
X549742Y522399D01*
X549376Y522803D01*
X549000Y523198D01*
X548615Y523583D01*
X548221Y523959D01*
X547817Y524326D01*
X547405Y524682D01*
X546984Y525028D01*
X546554Y525363D01*
X546117Y525688D01*
X545671Y526002D01*
X545218Y526305D01*
X544758Y526597D01*
X544291Y526877D01*
X543817Y527146D01*
X543336Y527403D01*
X542850Y527649D01*
X542357Y527882D01*
X541859Y528103D01*
X541356Y528312D01*
X540847Y528508D01*
X540334Y528692D01*
X539817Y528863D01*
X539296Y529022D01*
X538771Y529167D01*
X538242Y529300D01*
X537710Y529420D01*
X537176Y529527D01*
X536639Y529620D01*
X536100Y529700D01*
X477100Y484700D02*
X477033Y484160D01*
X476980Y483617D01*
X476939Y483074D01*
X476912Y482530D01*
X476899Y481985D01*
X476899Y481440D01*
X476912Y480895D01*
X476938Y480351D01*
X476978Y479807D01*
X477031Y479265D01*
X477098Y478724D01*
X477177Y478185D01*
X477270Y477648D01*
X477376Y477114D01*
X477495Y476582D01*
X477627Y476053D01*
X477773Y475528D01*
X477930Y475007D01*
X478101Y474489D01*
X478284Y473976D01*
X478480Y473467D01*
X478689Y472964D01*
X478909Y472466D01*
X479142Y471973D01*
X479387Y471486D01*
X479643Y471005D01*
X479912Y470531D01*
X480192Y470063D01*
X480483Y469603D01*
X480785Y469150D01*
X481099Y468704D01*
X481423Y468266D01*
X481758Y467836D01*
X482104Y467415D01*
X482459Y467002D01*
X482825Y466598D01*
X483201Y466203D01*
X483586Y465818D01*
X483980Y465442D01*
X484384Y465076D01*
X484796Y464719D01*
X485217Y464374D01*
X485647Y464038D01*
X486084Y463713D01*
X486529Y463399D01*
X486982Y463096D01*
X487443Y462804D01*
X487910Y462524D01*
X488384Y462255D01*
X488864Y461998D01*
X489351Y461753D01*
X489843Y461519D01*
X490341Y461298D01*
X490845Y461089D01*
X491353Y460893D01*
X491866Y460709D01*
X492383Y460538D01*
X492905Y460379D01*
X493430Y460234D01*
X493958Y460101D01*
X494490Y459981D01*
X495024Y459875D01*
X495561Y459781D01*
X496100Y459701D01*
X477099Y504700D02*
X477033Y505241D01*
X476979Y505783D01*
X476938Y506326D01*
X476911Y506871D01*
X476898Y507415D01*
X476898Y507960D01*
X476911Y508505D01*
X476937Y509049D01*
X476977Y509593D01*
X477030Y510135D01*
X477096Y510676D01*
X477176Y511215D01*
X477269Y511752D01*
X477375Y512287D01*
X477494Y512818D01*
X477626Y513347D01*
X477771Y513872D01*
X477929Y514394D01*
X478100Y514912D01*
X478283Y515425D01*
X478479Y515933D01*
X478687Y516437D01*
X478908Y516935D01*
X479141Y517428D01*
X479386Y517915D01*
X479642Y518396D01*
X479911Y518870D01*
X480190Y519337D01*
X480482Y519798D01*
X480784Y520251D01*
X481098Y520697D01*
X481422Y521135D01*
X481757Y521565D01*
X482103Y521986D01*
X482458Y522399D01*
X482824Y522803D01*
X483200Y523198D01*
X483585Y523583D01*
X483979Y523959D01*
X484383Y524326D01*
X484795Y524682D01*
X485216Y525028D01*
X485646Y525363D01*
X486083Y525688D01*
X486529Y526002D01*
X486982Y526305D01*
X487442Y526597D01*
X487909Y526877D01*
X488383Y527146D01*
X488864Y527403D01*
X489350Y527649D01*
X489843Y527882D01*
X490341Y528103D01*
X490844Y528312D01*
X491353Y528508D01*
X491866Y528692D01*
X492383Y528863D01*
X492904Y529022D01*
X493429Y529167D01*
X493958Y529300D01*
X494490Y529420D01*
X495024Y529527D01*
X495561Y529620D01*
X496100Y529700D01*
X835550Y530305D02*
X835550Y526495D01*
X831740Y513795D02*
X822850Y513795D01*
X822850Y521415D01*
X822850Y535385D02*
X822850Y543005D01*
X831740Y543005D01*
X906350Y545070D02*
X906350Y517130D01*
X919050Y517130D01*
X919050Y545070D01*
X906350Y545070D01*
X400750Y500070D02*
X400750Y472130D01*
X413450Y472130D01*
X413450Y500070D01*
X400750Y500070D01*
X400850Y420070D02*
X400850Y392130D01*
X413550Y392130D01*
X413550Y420070D01*
X400850Y420070D01*
X18950Y449130D02*
X18950Y477070D01*
X18950Y449130D02*
X31650Y449130D01*
X31650Y477070D01*
X18950Y477070D01*
X153800Y271900D02*
X197800Y271900D01*
X197800Y299900D01*
X153800Y299900D01*
X153800Y271900D01*
D12*
X189761Y283963D02*
X188491Y287773D01*
X187221Y283963D01*
X187539Y284916D02*
X189444Y284916D01*
X185077Y283963D02*
X185077Y287773D01*
X184019Y287773D02*
X186136Y287773D01*
X181558Y287774D02*
X181498Y287772D01*
X181439Y287766D01*
X181379Y287757D01*
X181321Y287744D01*
X181264Y287727D01*
X181207Y287707D01*
X181152Y287683D01*
X181099Y287656D01*
X181047Y287626D01*
X180998Y287592D01*
X180951Y287555D01*
X180906Y287516D01*
X180863Y287473D01*
X180824Y287428D01*
X180787Y287381D01*
X180753Y287332D01*
X180723Y287280D01*
X180696Y287227D01*
X180672Y287172D01*
X180652Y287115D01*
X180635Y287058D01*
X180622Y287000D01*
X180613Y286940D01*
X180607Y286881D01*
X180605Y286821D01*
X181558Y287773D02*
X181625Y287771D01*
X181692Y287766D01*
X181758Y287757D01*
X181824Y287744D01*
X181888Y287728D01*
X181952Y287708D01*
X182015Y287684D01*
X182077Y287658D01*
X182136Y287628D01*
X182194Y287595D01*
X182251Y287558D01*
X182305Y287519D01*
X182357Y287477D01*
X182406Y287432D01*
X182453Y287384D01*
X182497Y287334D01*
X182539Y287281D01*
X182577Y287226D01*
X182613Y287170D01*
X182645Y287111D01*
X182674Y287051D01*
X182700Y286989D01*
X182722Y286926D01*
X180922Y286080D02*
X180881Y286122D01*
X180842Y286167D01*
X180805Y286213D01*
X180771Y286262D01*
X180740Y286312D01*
X180713Y286364D01*
X180688Y286418D01*
X180666Y286473D01*
X180647Y286529D01*
X180632Y286586D01*
X180620Y286644D01*
X180612Y286703D01*
X180607Y286762D01*
X180605Y286821D01*
X180923Y286080D02*
X182722Y283963D01*
X180605Y283963D01*
X179064Y284810D02*
X178218Y287773D01*
X179064Y284810D02*
X176948Y284810D01*
X177583Y285656D02*
X177583Y283963D01*
X174570Y283963D02*
X173723Y283963D01*
X174570Y283963D02*
X174625Y283965D01*
X174681Y283970D01*
X174735Y283979D01*
X174789Y283992D01*
X174842Y284008D01*
X174894Y284027D01*
X174945Y284050D01*
X174994Y284076D01*
X175041Y284106D01*
X175086Y284138D01*
X175128Y284173D01*
X175169Y284211D01*
X175207Y284252D01*
X175242Y284294D01*
X175274Y284339D01*
X175304Y284387D01*
X175330Y284435D01*
X175353Y284486D01*
X175372Y284538D01*
X175388Y284591D01*
X175401Y284645D01*
X175410Y284699D01*
X175415Y284755D01*
X175417Y284810D01*
X175416Y284810D02*
X175416Y286926D01*
X175417Y286926D02*
X175415Y286984D01*
X175409Y287041D01*
X175399Y287098D01*
X175386Y287155D01*
X175368Y287210D01*
X175347Y287263D01*
X175322Y287316D01*
X175294Y287366D01*
X175262Y287414D01*
X175227Y287461D01*
X175189Y287504D01*
X175148Y287545D01*
X175105Y287583D01*
X175058Y287618D01*
X175010Y287650D01*
X174960Y287678D01*
X174907Y287703D01*
X174854Y287724D01*
X174799Y287742D01*
X174742Y287755D01*
X174685Y287765D01*
X174628Y287771D01*
X174570Y287773D01*
X173723Y287773D01*
X171195Y287774D02*
X171135Y287772D01*
X171076Y287766D01*
X171016Y287757D01*
X170958Y287744D01*
X170901Y287727D01*
X170844Y287707D01*
X170789Y287683D01*
X170736Y287656D01*
X170684Y287626D01*
X170635Y287592D01*
X170588Y287555D01*
X170543Y287516D01*
X170500Y287473D01*
X170461Y287428D01*
X170424Y287381D01*
X170390Y287332D01*
X170360Y287280D01*
X170333Y287227D01*
X170309Y287172D01*
X170289Y287115D01*
X170272Y287058D01*
X170259Y287000D01*
X170250Y286940D01*
X170244Y286881D01*
X170242Y286821D01*
X171195Y287773D02*
X171262Y287771D01*
X171329Y287766D01*
X171395Y287757D01*
X171461Y287744D01*
X171525Y287728D01*
X171589Y287708D01*
X171652Y287684D01*
X171714Y287658D01*
X171773Y287628D01*
X171831Y287595D01*
X171888Y287558D01*
X171942Y287519D01*
X171994Y287477D01*
X172043Y287432D01*
X172090Y287384D01*
X172134Y287334D01*
X172176Y287281D01*
X172214Y287226D01*
X172250Y287170D01*
X172282Y287111D01*
X172311Y287051D01*
X172337Y286989D01*
X172359Y286926D01*
X170559Y286080D02*
X170518Y286122D01*
X170479Y286167D01*
X170442Y286213D01*
X170408Y286262D01*
X170377Y286312D01*
X170350Y286364D01*
X170325Y286418D01*
X170303Y286473D01*
X170284Y286529D01*
X170269Y286586D01*
X170257Y286644D01*
X170249Y286703D01*
X170244Y286762D01*
X170242Y286821D01*
X170560Y286080D02*
X172359Y283963D01*
X170242Y283963D01*
X168701Y283963D02*
X167431Y283963D01*
X167376Y283965D01*
X167320Y283970D01*
X167266Y283979D01*
X167212Y283992D01*
X167159Y284008D01*
X167107Y284027D01*
X167056Y284050D01*
X167008Y284076D01*
X166960Y284106D01*
X166915Y284138D01*
X166873Y284173D01*
X166832Y284211D01*
X166794Y284252D01*
X166759Y284294D01*
X166727Y284339D01*
X166697Y284387D01*
X166671Y284435D01*
X166648Y284486D01*
X166629Y284538D01*
X166613Y284591D01*
X166600Y284645D01*
X166591Y284699D01*
X166586Y284755D01*
X166584Y284810D01*
X166585Y284810D02*
X166585Y285233D01*
X166584Y285233D02*
X166586Y285288D01*
X166591Y285344D01*
X166600Y285398D01*
X166613Y285452D01*
X166629Y285505D01*
X166648Y285557D01*
X166671Y285608D01*
X166697Y285657D01*
X166727Y285704D01*
X166759Y285749D01*
X166794Y285791D01*
X166832Y285832D01*
X166873Y285870D01*
X166915Y285905D01*
X166960Y285937D01*
X167008Y285967D01*
X167056Y285993D01*
X167107Y286016D01*
X167159Y286035D01*
X167212Y286051D01*
X167266Y286064D01*
X167320Y286073D01*
X167376Y286078D01*
X167431Y286080D01*
X168701Y286080D01*
X168701Y287773D01*
X166585Y287773D01*
X165044Y286080D02*
X163774Y286080D01*
X163716Y286078D01*
X163659Y286072D01*
X163602Y286062D01*
X163545Y286049D01*
X163490Y286031D01*
X163437Y286010D01*
X163384Y285985D01*
X163334Y285957D01*
X163286Y285925D01*
X163239Y285890D01*
X163196Y285852D01*
X163155Y285811D01*
X163117Y285768D01*
X163082Y285721D01*
X163050Y285673D01*
X163022Y285623D01*
X162997Y285570D01*
X162976Y285517D01*
X162958Y285462D01*
X162945Y285405D01*
X162935Y285348D01*
X162929Y285291D01*
X162927Y285233D01*
X162927Y285021D01*
X162929Y284957D01*
X162935Y284893D01*
X162944Y284830D01*
X162958Y284768D01*
X162975Y284706D01*
X162996Y284646D01*
X163020Y284587D01*
X163048Y284529D01*
X163080Y284474D01*
X163114Y284420D01*
X163152Y284369D01*
X163193Y284319D01*
X163237Y284273D01*
X163283Y284229D01*
X163333Y284188D01*
X163384Y284150D01*
X163438Y284116D01*
X163493Y284084D01*
X163551Y284056D01*
X163610Y284032D01*
X163670Y284011D01*
X163732Y283994D01*
X163794Y283980D01*
X163857Y283971D01*
X163921Y283965D01*
X163985Y283963D01*
X164049Y283965D01*
X164113Y283971D01*
X164176Y283980D01*
X164238Y283994D01*
X164300Y284011D01*
X164360Y284032D01*
X164419Y284056D01*
X164477Y284084D01*
X164532Y284116D01*
X164586Y284150D01*
X164637Y284188D01*
X164687Y284229D01*
X164733Y284273D01*
X164777Y284319D01*
X164818Y284369D01*
X164856Y284420D01*
X164890Y284474D01*
X164922Y284529D01*
X164950Y284587D01*
X164974Y284646D01*
X164995Y284706D01*
X165012Y284768D01*
X165026Y284830D01*
X165035Y284893D01*
X165041Y284957D01*
X165043Y285021D01*
X165044Y285021D02*
X165044Y286080D01*
X165043Y286080D02*
X165041Y286161D01*
X165035Y286241D01*
X165026Y286321D01*
X165012Y286400D01*
X164995Y286479D01*
X164974Y286557D01*
X164950Y286634D01*
X164922Y286709D01*
X164890Y286783D01*
X164855Y286856D01*
X164816Y286927D01*
X164774Y286995D01*
X164729Y287062D01*
X164681Y287127D01*
X164629Y287189D01*
X164575Y287248D01*
X164518Y287305D01*
X164459Y287359D01*
X164397Y287411D01*
X164332Y287459D01*
X164265Y287504D01*
X164197Y287546D01*
X164126Y287585D01*
X164053Y287620D01*
X163979Y287652D01*
X163904Y287680D01*
X163827Y287704D01*
X163749Y287725D01*
X163670Y287742D01*
X163591Y287756D01*
X163511Y287765D01*
X163431Y287771D01*
X163350Y287773D01*
D10*
X156564Y276900D02*
X156566Y276994D01*
X156572Y277088D01*
X156582Y277182D01*
X156596Y277275D01*
X156614Y277368D01*
X156635Y277460D01*
X156661Y277550D01*
X156690Y277640D01*
X156723Y277728D01*
X156760Y277815D01*
X156800Y277900D01*
X156844Y277984D01*
X156892Y278065D01*
X156942Y278145D01*
X156997Y278222D01*
X157054Y278297D01*
X157114Y278369D01*
X157178Y278439D01*
X157244Y278506D01*
X157313Y278570D01*
X157385Y278631D01*
X157459Y278689D01*
X157536Y278744D01*
X157615Y278796D01*
X157696Y278844D01*
X157779Y278889D01*
X157863Y278930D01*
X157950Y278968D01*
X158038Y279002D01*
X158127Y279032D01*
X158217Y279059D01*
X158309Y279081D01*
X158401Y279100D01*
X158495Y279115D01*
X158588Y279126D01*
X158682Y279133D01*
X158776Y279136D01*
X158871Y279135D01*
X158965Y279130D01*
X159059Y279121D01*
X159152Y279108D01*
X159245Y279091D01*
X159337Y279071D01*
X159428Y279046D01*
X159518Y279018D01*
X159606Y278986D01*
X159694Y278950D01*
X159779Y278910D01*
X159863Y278867D01*
X159945Y278821D01*
X160025Y278771D01*
X160103Y278717D01*
X160178Y278661D01*
X160251Y278601D01*
X160322Y278538D01*
X160389Y278473D01*
X160454Y278404D01*
X160516Y278333D01*
X160575Y278260D01*
X160631Y278184D01*
X160683Y278105D01*
X160732Y278025D01*
X160778Y277942D01*
X160820Y277858D01*
X160859Y277772D01*
X160894Y277684D01*
X160925Y277595D01*
X160953Y277505D01*
X160976Y277414D01*
X160996Y277322D01*
X161012Y277229D01*
X161024Y277135D01*
X161032Y277041D01*
X161036Y276947D01*
X161036Y276853D01*
X161032Y276759D01*
X161024Y276665D01*
X161012Y276571D01*
X160996Y276478D01*
X160976Y276386D01*
X160953Y276295D01*
X160925Y276205D01*
X160894Y276116D01*
X160859Y276028D01*
X160820Y275942D01*
X160778Y275858D01*
X160732Y275775D01*
X160683Y275695D01*
X160631Y275616D01*
X160575Y275540D01*
X160516Y275467D01*
X160454Y275396D01*
X160389Y275327D01*
X160322Y275262D01*
X160251Y275199D01*
X160178Y275139D01*
X160103Y275083D01*
X160025Y275029D01*
X159945Y274979D01*
X159863Y274933D01*
X159779Y274890D01*
X159694Y274850D01*
X159606Y274814D01*
X159518Y274782D01*
X159428Y274754D01*
X159337Y274729D01*
X159245Y274709D01*
X159152Y274692D01*
X159059Y274679D01*
X158965Y274670D01*
X158871Y274665D01*
X158776Y274664D01*
X158682Y274667D01*
X158588Y274674D01*
X158495Y274685D01*
X158401Y274700D01*
X158309Y274719D01*
X158217Y274741D01*
X158127Y274768D01*
X158038Y274798D01*
X157950Y274832D01*
X157863Y274870D01*
X157779Y274911D01*
X157696Y274956D01*
X157615Y275004D01*
X157536Y275056D01*
X157459Y275111D01*
X157385Y275169D01*
X157313Y275230D01*
X157244Y275294D01*
X157178Y275361D01*
X157114Y275431D01*
X157054Y275503D01*
X156997Y275578D01*
X156942Y275655D01*
X156892Y275735D01*
X156844Y275816D01*
X156800Y275900D01*
X156760Y275985D01*
X156723Y276072D01*
X156690Y276160D01*
X156661Y276250D01*
X156635Y276340D01*
X156614Y276432D01*
X156596Y276525D01*
X156582Y276618D01*
X156572Y276712D01*
X156566Y276806D01*
X156564Y276900D01*
D13*
X651796Y470800D02*
X668004Y470800D01*
X668004Y499800D02*
X651796Y499800D01*
X651796Y490524D02*
X651796Y480076D01*
X668004Y489576D02*
X668004Y490524D01*
X668004Y481024D02*
X668004Y480076D01*
X668004Y498576D02*
X668004Y499800D01*
X668004Y472024D02*
X668004Y470800D01*
X651796Y470800D02*
X651796Y472024D01*
X651796Y498576D02*
X651796Y499800D01*
D10*
X67620Y470600D02*
X67633Y471660D01*
X67672Y472719D01*
X67737Y473777D01*
X67828Y474832D01*
X67945Y475886D01*
X68087Y476936D01*
X68256Y477982D01*
X68450Y479024D01*
X68669Y480061D01*
X68914Y481092D01*
X69184Y482117D01*
X69479Y483134D01*
X69799Y484145D01*
X70144Y485147D01*
X70513Y486140D01*
X70907Y487124D01*
X71324Y488098D01*
X71766Y489062D01*
X72231Y490014D01*
X72719Y490955D01*
X73230Y491883D01*
X73763Y492799D01*
X74319Y493701D01*
X74897Y494590D01*
X75497Y495463D01*
X76117Y496322D01*
X76759Y497166D01*
X77421Y497993D01*
X78104Y498804D01*
X78806Y499598D01*
X79527Y500374D01*
X80267Y501133D01*
X81026Y501873D01*
X81802Y502594D01*
X82596Y503296D01*
X83407Y503979D01*
X84234Y504641D01*
X85078Y505283D01*
X85937Y505903D01*
X86810Y506503D01*
X87699Y507081D01*
X88601Y507637D01*
X89517Y508170D01*
X90445Y508681D01*
X91386Y509169D01*
X92338Y509634D01*
X93302Y510076D01*
X94276Y510493D01*
X95260Y510887D01*
X96253Y511256D01*
X97255Y511601D01*
X98266Y511921D01*
X99283Y512216D01*
X100308Y512486D01*
X101339Y512731D01*
X102376Y512950D01*
X103418Y513144D01*
X104464Y513313D01*
X105514Y513455D01*
X106568Y513572D01*
X107623Y513663D01*
X108681Y513728D01*
X109740Y513767D01*
X110800Y513780D01*
X111860Y513767D01*
X112919Y513728D01*
X113977Y513663D01*
X115032Y513572D01*
X116086Y513455D01*
X117136Y513313D01*
X118182Y513144D01*
X119224Y512950D01*
X120261Y512731D01*
X121292Y512486D01*
X122317Y512216D01*
X123334Y511921D01*
X124345Y511601D01*
X125347Y511256D01*
X126340Y510887D01*
X127324Y510493D01*
X128298Y510076D01*
X129262Y509634D01*
X130214Y509169D01*
X131155Y508681D01*
X132083Y508170D01*
X132999Y507637D01*
X133901Y507081D01*
X134790Y506503D01*
X135663Y505903D01*
X136522Y505283D01*
X137366Y504641D01*
X138193Y503979D01*
X139004Y503296D01*
X139798Y502594D01*
X140574Y501873D01*
X141333Y501133D01*
X142073Y500374D01*
X142794Y499598D01*
X143496Y498804D01*
X144179Y497993D01*
X144841Y497166D01*
X145483Y496322D01*
X146103Y495463D01*
X146703Y494590D01*
X147281Y493701D01*
X147837Y492799D01*
X148370Y491883D01*
X148881Y490955D01*
X149369Y490014D01*
X149834Y489062D01*
X150276Y488098D01*
X150693Y487124D01*
X151087Y486140D01*
X151456Y485147D01*
X151801Y484145D01*
X152121Y483134D01*
X152416Y482117D01*
X152686Y481092D01*
X152931Y480061D01*
X153150Y479024D01*
X153344Y477982D01*
X153513Y476936D01*
X153655Y475886D01*
X153772Y474832D01*
X153863Y473777D01*
X153928Y472719D01*
X153967Y471660D01*
X153980Y470600D01*
X153967Y469540D01*
X153928Y468481D01*
X153863Y467423D01*
X153772Y466368D01*
X153655Y465314D01*
X153513Y464264D01*
X153344Y463218D01*
X153150Y462176D01*
X152931Y461139D01*
X152686Y460108D01*
X152416Y459083D01*
X152121Y458066D01*
X151801Y457055D01*
X151456Y456053D01*
X151087Y455060D01*
X150693Y454076D01*
X150276Y453102D01*
X149834Y452138D01*
X149369Y451186D01*
X148881Y450245D01*
X148370Y449317D01*
X147837Y448401D01*
X147281Y447499D01*
X146703Y446610D01*
X146103Y445737D01*
X145483Y444878D01*
X144841Y444034D01*
X144179Y443207D01*
X143496Y442396D01*
X142794Y441602D01*
X142073Y440826D01*
X141333Y440067D01*
X140574Y439327D01*
X139798Y438606D01*
X139004Y437904D01*
X138193Y437221D01*
X137366Y436559D01*
X136522Y435917D01*
X135663Y435297D01*
X134790Y434697D01*
X133901Y434119D01*
X132999Y433563D01*
X132083Y433030D01*
X131155Y432519D01*
X130214Y432031D01*
X129262Y431566D01*
X128298Y431124D01*
X127324Y430707D01*
X126340Y430313D01*
X125347Y429944D01*
X124345Y429599D01*
X123334Y429279D01*
X122317Y428984D01*
X121292Y428714D01*
X120261Y428469D01*
X119224Y428250D01*
X118182Y428056D01*
X117136Y427887D01*
X116086Y427745D01*
X115032Y427628D01*
X113977Y427537D01*
X112919Y427472D01*
X111860Y427433D01*
X110800Y427420D01*
X109740Y427433D01*
X108681Y427472D01*
X107623Y427537D01*
X106568Y427628D01*
X105514Y427745D01*
X104464Y427887D01*
X103418Y428056D01*
X102376Y428250D01*
X101339Y428469D01*
X100308Y428714D01*
X99283Y428984D01*
X98266Y429279D01*
X97255Y429599D01*
X96253Y429944D01*
X95260Y430313D01*
X94276Y430707D01*
X93302Y431124D01*
X92338Y431566D01*
X91386Y432031D01*
X90445Y432519D01*
X89517Y433030D01*
X88601Y433563D01*
X87699Y434119D01*
X86810Y434697D01*
X85937Y435297D01*
X85078Y435917D01*
X84234Y436559D01*
X83407Y437221D01*
X82596Y437904D01*
X81802Y438606D01*
X81026Y439327D01*
X80267Y440067D01*
X79527Y440826D01*
X78806Y441602D01*
X78104Y442396D01*
X77421Y443207D01*
X76759Y444034D01*
X76117Y444878D01*
X75497Y445737D01*
X74897Y446610D01*
X74319Y447499D01*
X73763Y448401D01*
X73230Y449317D01*
X72719Y450245D01*
X72231Y451186D01*
X71766Y452138D01*
X71324Y453102D01*
X70907Y454076D01*
X70513Y455060D01*
X70144Y456053D01*
X69799Y457055D01*
X69479Y458066D01*
X69184Y459083D01*
X68914Y460108D01*
X68669Y461139D01*
X68450Y462176D01*
X68256Y463218D01*
X68087Y464264D01*
X67945Y465314D01*
X67828Y466368D01*
X67737Y467423D01*
X67672Y468481D01*
X67633Y469540D01*
X67620Y470600D01*
X86670Y511240D02*
X86672Y511340D01*
X86678Y511441D01*
X86688Y511540D01*
X86702Y511640D01*
X86719Y511739D01*
X86741Y511837D01*
X86767Y511934D01*
X86796Y512030D01*
X86829Y512124D01*
X86866Y512218D01*
X86906Y512310D01*
X86950Y512400D01*
X86998Y512488D01*
X87049Y512575D01*
X87103Y512659D01*
X87161Y512741D01*
X87222Y512821D01*
X87286Y512898D01*
X87353Y512973D01*
X87423Y513045D01*
X87496Y513114D01*
X87571Y513180D01*
X87649Y513244D01*
X87729Y513304D01*
X87812Y513361D01*
X87897Y513414D01*
X87984Y513464D01*
X88073Y513511D01*
X88163Y513554D01*
X88255Y513594D01*
X88349Y513630D01*
X88444Y513662D01*
X88540Y513690D01*
X88638Y513715D01*
X88736Y513735D01*
X88835Y513752D01*
X88935Y513765D01*
X89034Y513774D01*
X89135Y513779D01*
X89235Y513780D01*
X89335Y513777D01*
X89436Y513770D01*
X89535Y513759D01*
X89635Y513744D01*
X89733Y513726D01*
X89831Y513703D01*
X89928Y513676D01*
X90023Y513646D01*
X90118Y513612D01*
X90211Y513574D01*
X90302Y513533D01*
X90392Y513488D01*
X90480Y513440D01*
X90566Y513388D01*
X90650Y513333D01*
X90731Y513274D01*
X90810Y513212D01*
X90887Y513148D01*
X90961Y513080D01*
X91032Y513009D01*
X91101Y512936D01*
X91166Y512860D01*
X91229Y512781D01*
X91288Y512700D01*
X91344Y512617D01*
X91397Y512532D01*
X91446Y512444D01*
X91492Y512355D01*
X91534Y512264D01*
X91573Y512171D01*
X91608Y512077D01*
X91639Y511982D01*
X91667Y511885D01*
X91690Y511788D01*
X91710Y511689D01*
X91726Y511590D01*
X91738Y511491D01*
X91746Y511390D01*
X91750Y511290D01*
X91750Y511190D01*
X91746Y511090D01*
X91738Y510989D01*
X91726Y510890D01*
X91710Y510791D01*
X91690Y510692D01*
X91667Y510595D01*
X91639Y510498D01*
X91608Y510403D01*
X91573Y510309D01*
X91534Y510216D01*
X91492Y510125D01*
X91446Y510036D01*
X91397Y509948D01*
X91344Y509863D01*
X91288Y509780D01*
X91229Y509699D01*
X91166Y509620D01*
X91101Y509544D01*
X91032Y509471D01*
X90961Y509400D01*
X90887Y509332D01*
X90810Y509268D01*
X90731Y509206D01*
X90650Y509147D01*
X90566Y509092D01*
X90480Y509040D01*
X90392Y508992D01*
X90302Y508947D01*
X90211Y508906D01*
X90118Y508868D01*
X90023Y508834D01*
X89928Y508804D01*
X89831Y508777D01*
X89733Y508754D01*
X89635Y508736D01*
X89535Y508721D01*
X89436Y508710D01*
X89335Y508703D01*
X89235Y508700D01*
X89135Y508701D01*
X89034Y508706D01*
X88935Y508715D01*
X88835Y508728D01*
X88736Y508745D01*
X88638Y508765D01*
X88540Y508790D01*
X88444Y508818D01*
X88349Y508850D01*
X88255Y508886D01*
X88163Y508926D01*
X88073Y508969D01*
X87984Y509016D01*
X87897Y509066D01*
X87812Y509119D01*
X87729Y509176D01*
X87649Y509236D01*
X87571Y509300D01*
X87496Y509366D01*
X87423Y509435D01*
X87353Y509507D01*
X87286Y509582D01*
X87222Y509659D01*
X87161Y509739D01*
X87103Y509821D01*
X87049Y509905D01*
X86998Y509992D01*
X86950Y510080D01*
X86906Y510170D01*
X86866Y510262D01*
X86829Y510356D01*
X86796Y510450D01*
X86767Y510546D01*
X86741Y510643D01*
X86719Y510741D01*
X86702Y510840D01*
X86688Y510940D01*
X86678Y511039D01*
X86672Y511140D01*
X86670Y511240D01*
M02*
