G04 EAGLE Gerber RS-274X export*
G75*
%MOMM*%
%FSLAX34Y34*%
%LPD*%
%INSoldermask Bottom*%
%IPPOS*%
%AMOC8*
5,1,8,0,0,1.08239X$1,22.5*%
G01*
%ADD10C,0.463294*%
%ADD11C,0.425956*%
%ADD12R,1.854200X1.854200*%
%ADD13C,1.854200*%
%ADD14R,3.503200X8.203200*%
%ADD15R,1.346200X1.219200*%
%ADD16R,1.703200X0.503200*%
%ADD17R,1.403200X0.893200*%
%ADD18C,1.511200*%


D10*
X740415Y490410D02*
X740415Y497970D01*
X751785Y497970D01*
X751785Y490410D01*
X740415Y490410D01*
X740415Y494811D02*
X751785Y494811D01*
X740415Y480190D02*
X740415Y472630D01*
X740415Y480190D02*
X751785Y480190D01*
X751785Y472630D01*
X740415Y472630D01*
X740415Y477031D02*
X751785Y477031D01*
D11*
X316331Y474649D02*
X316331Y481311D01*
X316331Y474649D02*
X309669Y474649D01*
X309669Y481311D01*
X316331Y481311D01*
X316331Y478696D02*
X309669Y478696D01*
X316331Y489889D02*
X316331Y496551D01*
X316331Y489889D02*
X309669Y489889D01*
X309669Y496551D01*
X316331Y496551D01*
X316331Y493936D02*
X309669Y493936D01*
X316531Y402011D02*
X316531Y395349D01*
X309869Y395349D01*
X309869Y402011D01*
X316531Y402011D01*
X316531Y399396D02*
X309869Y399396D01*
X316531Y410589D02*
X316531Y417251D01*
X316531Y410589D02*
X309869Y410589D01*
X309869Y417251D01*
X316531Y417251D01*
X316531Y414636D02*
X309869Y414636D01*
D10*
X249685Y473030D02*
X249685Y480590D01*
X249685Y473030D02*
X238315Y473030D01*
X238315Y480590D01*
X249685Y480590D01*
X249685Y477431D02*
X238315Y477431D01*
X249685Y490810D02*
X249685Y498370D01*
X249685Y490810D02*
X238315Y490810D01*
X238315Y498370D01*
X249685Y498370D01*
X249685Y495211D02*
X238315Y495211D01*
D12*
X513900Y215100D03*
D13*
X488500Y215100D03*
X463100Y215100D03*
X437700Y215100D03*
X412300Y215100D03*
X386900Y215100D03*
X361500Y215100D03*
X336100Y215100D03*
D14*
X539600Y494700D03*
X492600Y494700D03*
D15*
X819040Y528400D03*
X839360Y519510D03*
X839360Y537290D03*
D11*
X909369Y535389D02*
X909369Y542051D01*
X916031Y542051D01*
X916031Y535389D01*
X909369Y535389D01*
X909369Y539436D02*
X916031Y539436D01*
X909369Y526811D02*
X909369Y520149D01*
X909369Y526811D02*
X916031Y526811D01*
X916031Y520149D01*
X909369Y520149D01*
X909369Y524196D02*
X916031Y524196D01*
X403769Y497051D02*
X403769Y490389D01*
X403769Y497051D02*
X410431Y497051D01*
X410431Y490389D01*
X403769Y490389D01*
X403769Y494436D02*
X410431Y494436D01*
X403769Y481811D02*
X403769Y475149D01*
X403769Y481811D02*
X410431Y481811D01*
X410431Y475149D01*
X403769Y475149D01*
X403769Y479196D02*
X410431Y479196D01*
X403869Y417051D02*
X403869Y410389D01*
X403869Y417051D02*
X410531Y417051D01*
X410531Y410389D01*
X403869Y410389D01*
X403869Y414436D02*
X410531Y414436D01*
X403869Y401811D02*
X403869Y395149D01*
X403869Y401811D02*
X410531Y401811D01*
X410531Y395149D01*
X403869Y395149D01*
X403869Y399196D02*
X410531Y399196D01*
X21969Y467389D02*
X21969Y474051D01*
X28631Y474051D01*
X28631Y467389D01*
X21969Y467389D01*
X21969Y471436D02*
X28631Y471436D01*
X21969Y458811D02*
X21969Y452149D01*
X21969Y458811D02*
X28631Y458811D01*
X28631Y452149D01*
X21969Y452149D01*
X21969Y456196D02*
X28631Y456196D01*
D16*
X148300Y275900D03*
X148300Y282400D03*
X148300Y288900D03*
X148300Y295400D03*
X203800Y275900D03*
X203800Y282400D03*
X203800Y288900D03*
X203800Y295400D03*
D17*
X672901Y494800D03*
X672901Y485300D03*
X672901Y475800D03*
X646899Y475800D03*
X646899Y494800D03*
D18*
X128580Y470600D03*
X104450Y493460D03*
X104450Y447740D03*
M02*
