G04 EAGLE Gerber RS-274X export*
G75*
%MOMM*%
%FSLAX34Y34*%
%LPD*%
%INSolderpaste Bottom*%
%IPPOS*%
%AMOC8*
5,1,8,0,0,1.08239X$1,22.5*%
G01*
%ADD10C,0.254000*%
%ADD11C,0.222250*%
%ADD12R,3.300000X8.000000*%
%ADD13R,1.143000X1.016000*%
%ADD14R,1.500000X0.300000*%
%ADD15R,1.200000X0.690000*%


D10*
X740385Y490380D02*
X740385Y498000D01*
X751815Y498000D01*
X751815Y490380D01*
X740385Y490380D01*
X740385Y492793D02*
X751815Y492793D01*
X751815Y495206D02*
X740385Y495206D01*
X740385Y497619D02*
X751815Y497619D01*
X740385Y480220D02*
X740385Y472600D01*
X740385Y480220D02*
X751815Y480220D01*
X751815Y472600D01*
X740385Y472600D01*
X740385Y475013D02*
X751815Y475013D01*
X751815Y477426D02*
X740385Y477426D01*
X740385Y479839D02*
X751815Y479839D01*
D11*
X316334Y481314D02*
X316334Y474646D01*
X309666Y474646D01*
X309666Y481314D01*
X316334Y481314D01*
X316334Y476758D02*
X309666Y476758D01*
X309666Y478870D02*
X316334Y478870D01*
X316334Y480982D02*
X309666Y480982D01*
X316334Y489886D02*
X316334Y496554D01*
X316334Y489886D02*
X309666Y489886D01*
X309666Y496554D01*
X316334Y496554D01*
X316334Y491998D02*
X309666Y491998D01*
X309666Y494110D02*
X316334Y494110D01*
X316334Y496222D02*
X309666Y496222D01*
X316534Y402014D02*
X316534Y395346D01*
X309866Y395346D01*
X309866Y402014D01*
X316534Y402014D01*
X316534Y397458D02*
X309866Y397458D01*
X309866Y399570D02*
X316534Y399570D01*
X316534Y401682D02*
X309866Y401682D01*
X316534Y410586D02*
X316534Y417254D01*
X316534Y410586D02*
X309866Y410586D01*
X309866Y417254D01*
X316534Y417254D01*
X316534Y412698D02*
X309866Y412698D01*
X309866Y414810D02*
X316534Y414810D01*
X316534Y416922D02*
X309866Y416922D01*
D10*
X249715Y473000D02*
X249715Y480620D01*
X249715Y473000D02*
X238285Y473000D01*
X238285Y480620D01*
X249715Y480620D01*
X249715Y475413D02*
X238285Y475413D01*
X238285Y477826D02*
X249715Y477826D01*
X249715Y480239D02*
X238285Y480239D01*
X249715Y490780D02*
X249715Y498400D01*
X249715Y490780D02*
X238285Y490780D01*
X238285Y498400D01*
X249715Y498400D01*
X249715Y493193D02*
X238285Y493193D01*
X238285Y495606D02*
X249715Y495606D01*
X249715Y498019D02*
X238285Y498019D01*
D12*
X539600Y494700D03*
X492600Y494700D03*
D13*
X819040Y528400D03*
X839360Y519510D03*
X839360Y537290D03*
D11*
X909366Y535386D02*
X909366Y542054D01*
X916034Y542054D01*
X916034Y535386D01*
X909366Y535386D01*
X909366Y537498D02*
X916034Y537498D01*
X916034Y539610D02*
X909366Y539610D01*
X909366Y541722D02*
X916034Y541722D01*
X909366Y526814D02*
X909366Y520146D01*
X909366Y526814D02*
X916034Y526814D01*
X916034Y520146D01*
X909366Y520146D01*
X909366Y522258D02*
X916034Y522258D01*
X916034Y524370D02*
X909366Y524370D01*
X909366Y526482D02*
X916034Y526482D01*
X403766Y497054D02*
X403766Y490386D01*
X403766Y497054D02*
X410434Y497054D01*
X410434Y490386D01*
X403766Y490386D01*
X403766Y492498D02*
X410434Y492498D01*
X410434Y494610D02*
X403766Y494610D01*
X403766Y496722D02*
X410434Y496722D01*
X403766Y481814D02*
X403766Y475146D01*
X403766Y481814D02*
X410434Y481814D01*
X410434Y475146D01*
X403766Y475146D01*
X403766Y477258D02*
X410434Y477258D01*
X410434Y479370D02*
X403766Y479370D01*
X403766Y481482D02*
X410434Y481482D01*
X403866Y417054D02*
X403866Y410386D01*
X403866Y417054D02*
X410534Y417054D01*
X410534Y410386D01*
X403866Y410386D01*
X403866Y412498D02*
X410534Y412498D01*
X410534Y414610D02*
X403866Y414610D01*
X403866Y416722D02*
X410534Y416722D01*
X403866Y401814D02*
X403866Y395146D01*
X403866Y401814D02*
X410534Y401814D01*
X410534Y395146D01*
X403866Y395146D01*
X403866Y397258D02*
X410534Y397258D01*
X410534Y399370D02*
X403866Y399370D01*
X403866Y401482D02*
X410534Y401482D01*
X21966Y467386D02*
X21966Y474054D01*
X28634Y474054D01*
X28634Y467386D01*
X21966Y467386D01*
X21966Y469498D02*
X28634Y469498D01*
X28634Y471610D02*
X21966Y471610D01*
X21966Y473722D02*
X28634Y473722D01*
X21966Y458814D02*
X21966Y452146D01*
X21966Y458814D02*
X28634Y458814D01*
X28634Y452146D01*
X21966Y452146D01*
X21966Y454258D02*
X28634Y454258D01*
X28634Y456370D02*
X21966Y456370D01*
X21966Y458482D02*
X28634Y458482D01*
D14*
X148300Y275900D03*
X148300Y282400D03*
X148300Y288900D03*
X148300Y295400D03*
X203800Y275900D03*
X203800Y282400D03*
X203800Y288900D03*
X203800Y295400D03*
D15*
X672901Y494800D03*
X672901Y485300D03*
X672901Y475800D03*
X646899Y475800D03*
X646899Y494800D03*
M02*
