G04 EAGLE Gerber RS-274X export*
G75*
%MOMM*%
%FSLAX34Y34*%
%LPD*%
%INSilkscreen Top*%
%IPPOS*%
%AMOC8*
5,1,8,0,0,1.08239X$1,22.5*%
G01*
%ADD10C,0.228600*%
%ADD11R,1.600000X0.020000*%
%ADD12R,1.720000X0.020000*%
%ADD13R,1.780000X0.020000*%
%ADD14R,1.820000X0.020000*%
%ADD15R,1.840000X0.020000*%
%ADD16R,1.860000X0.020000*%
%ADD17R,1.880000X0.020000*%
%ADD18R,1.900000X0.020000*%
%ADD19R,1.920000X0.020000*%
%ADD20R,1.800000X0.020000*%
%ADD21R,1.760000X0.020000*%
%ADD22R,1.680000X0.020000*%
%ADD23R,1.660000X0.020000*%
%ADD24R,1.740000X0.020000*%
%ADD25R,1.620000X0.020000*%
%ADD26R,1.560000X0.020000*%
%ADD27R,1.700000X0.020000*%
%ADD28R,0.260000X0.020000*%
%ADD29R,0.480000X0.020000*%
%ADD30R,0.620000X0.020000*%
%ADD31R,0.740000X0.020000*%
%ADD32R,0.840000X0.020000*%
%ADD33R,0.920000X0.020000*%
%ADD34R,1.000000X0.020000*%
%ADD35R,1.080000X0.020000*%
%ADD36R,1.140000X0.020000*%
%ADD37R,1.200000X0.020000*%
%ADD38R,1.260000X0.020000*%
%ADD39R,1.320000X0.020000*%
%ADD40R,1.360000X0.020000*%
%ADD41R,1.400000X0.020000*%
%ADD42R,1.440000X0.020000*%
%ADD43R,1.480000X0.020000*%
%ADD44R,1.520000X0.020000*%
%ADD45R,1.640000X0.020000*%
%ADD46R,1.960000X0.020000*%
%ADD47R,2.000000X0.020000*%
%ADD48R,2.040000X0.020000*%
%ADD49R,2.060000X0.020000*%
%ADD50R,2.080000X0.020000*%
%ADD51R,2.100000X0.020000*%
%ADD52R,2.120000X0.020000*%
%ADD53R,1.940000X0.020000*%
%ADD54R,1.580000X0.020000*%
%ADD55R,1.540000X0.020000*%
%ADD56R,1.500000X0.020000*%
%ADD57R,1.460000X0.020000*%
%ADD58R,1.420000X0.020000*%
%ADD59R,1.280000X0.020000*%
%ADD60R,1.220000X0.020000*%
%ADD61R,1.160000X0.020000*%
%ADD62R,1.040000X0.020000*%
%ADD63R,0.960000X0.020000*%
%ADD64R,0.880000X0.020000*%
%ADD65C,0.127000*%
%ADD66C,0.203200*%
%ADD67C,0.050800*%
%ADD68C,0.025400*%
%ADD69C,0.101600*%


D10*
X502600Y143559D02*
X506838Y130845D01*
X511076Y143559D01*
X518732Y130845D02*
X522263Y130845D01*
X518732Y130845D02*
X518642Y130847D01*
X518552Y130853D01*
X518463Y130862D01*
X518374Y130875D01*
X518286Y130893D01*
X518198Y130913D01*
X518112Y130938D01*
X518026Y130966D01*
X517942Y130998D01*
X517859Y131033D01*
X517778Y131072D01*
X517699Y131114D01*
X517621Y131160D01*
X517545Y131208D01*
X517472Y131260D01*
X517401Y131315D01*
X517332Y131373D01*
X517266Y131434D01*
X517202Y131498D01*
X517141Y131564D01*
X517083Y131633D01*
X517028Y131704D01*
X516976Y131777D01*
X516928Y131853D01*
X516882Y131931D01*
X516840Y132010D01*
X516801Y132091D01*
X516766Y132174D01*
X516734Y132258D01*
X516706Y132344D01*
X516681Y132430D01*
X516661Y132518D01*
X516643Y132606D01*
X516630Y132695D01*
X516621Y132784D01*
X516615Y132874D01*
X516613Y132964D01*
X516613Y136496D01*
X516615Y136602D01*
X516621Y136707D01*
X516631Y136812D01*
X516645Y136917D01*
X516662Y137021D01*
X516684Y137125D01*
X516709Y137227D01*
X516739Y137329D01*
X516772Y137429D01*
X516808Y137528D01*
X516849Y137626D01*
X516893Y137722D01*
X516940Y137816D01*
X516991Y137909D01*
X517046Y137999D01*
X517104Y138087D01*
X517165Y138174D01*
X517229Y138257D01*
X517297Y138339D01*
X517367Y138417D01*
X517440Y138494D01*
X517517Y138567D01*
X517595Y138637D01*
X517677Y138705D01*
X517760Y138769D01*
X517847Y138830D01*
X517935Y138888D01*
X518026Y138943D01*
X518118Y138994D01*
X518212Y139041D01*
X518308Y139085D01*
X518406Y139126D01*
X518505Y139162D01*
X518605Y139195D01*
X518707Y139225D01*
X518809Y139250D01*
X518913Y139272D01*
X519017Y139289D01*
X519122Y139303D01*
X519227Y139313D01*
X519332Y139319D01*
X519438Y139321D01*
X519544Y139319D01*
X519649Y139313D01*
X519754Y139303D01*
X519859Y139289D01*
X519963Y139272D01*
X520067Y139250D01*
X520169Y139225D01*
X520271Y139195D01*
X520371Y139162D01*
X520470Y139126D01*
X520568Y139085D01*
X520664Y139041D01*
X520758Y138994D01*
X520851Y138943D01*
X520941Y138888D01*
X521029Y138830D01*
X521116Y138769D01*
X521199Y138705D01*
X521281Y138637D01*
X521359Y138567D01*
X521436Y138494D01*
X521509Y138417D01*
X521579Y138339D01*
X521647Y138257D01*
X521711Y138174D01*
X521772Y138087D01*
X521830Y137999D01*
X521885Y137909D01*
X521936Y137816D01*
X521983Y137722D01*
X522027Y137626D01*
X522068Y137528D01*
X522104Y137429D01*
X522137Y137329D01*
X522167Y137227D01*
X522192Y137125D01*
X522214Y137021D01*
X522231Y136917D01*
X522245Y136812D01*
X522255Y136707D01*
X522261Y136602D01*
X522263Y136496D01*
X522263Y135083D01*
X516613Y135083D01*
X528876Y130845D02*
X528876Y139321D01*
X533114Y139321D01*
X533114Y137909D01*
X538822Y135790D02*
X542354Y134377D01*
X538822Y135790D02*
X538744Y135823D01*
X538668Y135860D01*
X538593Y135900D01*
X538521Y135944D01*
X538450Y135991D01*
X538382Y136041D01*
X538316Y136095D01*
X538253Y136151D01*
X538193Y136210D01*
X538135Y136272D01*
X538080Y136337D01*
X538028Y136404D01*
X537979Y136473D01*
X537934Y136544D01*
X537892Y136618D01*
X537853Y136693D01*
X537818Y136770D01*
X537787Y136849D01*
X537759Y136929D01*
X537735Y137010D01*
X537715Y137092D01*
X537698Y137175D01*
X537686Y137259D01*
X537677Y137343D01*
X537672Y137428D01*
X537671Y137513D01*
X537674Y137597D01*
X537681Y137682D01*
X537692Y137766D01*
X537707Y137849D01*
X537725Y137932D01*
X537747Y138013D01*
X537773Y138094D01*
X537803Y138173D01*
X537837Y138251D01*
X537874Y138327D01*
X537914Y138402D01*
X537958Y138474D01*
X538005Y138544D01*
X538055Y138613D01*
X538109Y138678D01*
X538165Y138741D01*
X538225Y138802D01*
X538287Y138860D01*
X538351Y138914D01*
X538418Y138966D01*
X538488Y139014D01*
X538559Y139060D01*
X538633Y139102D01*
X538708Y139140D01*
X538786Y139175D01*
X538864Y139206D01*
X538944Y139234D01*
X539026Y139258D01*
X539108Y139278D01*
X539191Y139294D01*
X539275Y139307D01*
X539359Y139315D01*
X539443Y139320D01*
X539528Y139321D01*
X539529Y139321D02*
X539721Y139316D01*
X539914Y139306D01*
X540106Y139292D01*
X540298Y139273D01*
X540490Y139250D01*
X540680Y139221D01*
X540871Y139189D01*
X541060Y139151D01*
X541248Y139110D01*
X541435Y139063D01*
X541621Y139012D01*
X541806Y138957D01*
X541989Y138897D01*
X542171Y138833D01*
X542352Y138765D01*
X542530Y138692D01*
X542707Y138615D01*
X542353Y134376D02*
X542431Y134343D01*
X542507Y134306D01*
X542582Y134266D01*
X542654Y134222D01*
X542725Y134175D01*
X542793Y134125D01*
X542859Y134071D01*
X542922Y134015D01*
X542982Y133956D01*
X543040Y133894D01*
X543095Y133829D01*
X543147Y133762D01*
X543196Y133693D01*
X543241Y133622D01*
X543283Y133548D01*
X543322Y133473D01*
X543357Y133396D01*
X543388Y133317D01*
X543416Y133237D01*
X543440Y133156D01*
X543460Y133074D01*
X543477Y132991D01*
X543489Y132907D01*
X543498Y132823D01*
X543503Y132738D01*
X543504Y132653D01*
X543501Y132569D01*
X543494Y132484D01*
X543483Y132400D01*
X543468Y132317D01*
X543450Y132234D01*
X543428Y132153D01*
X543402Y132072D01*
X543372Y131993D01*
X543338Y131915D01*
X543301Y131839D01*
X543261Y131764D01*
X543217Y131692D01*
X543170Y131622D01*
X543120Y131553D01*
X543066Y131488D01*
X543010Y131425D01*
X542950Y131364D01*
X542888Y131307D01*
X542824Y131252D01*
X542757Y131200D01*
X542687Y131152D01*
X542616Y131106D01*
X542542Y131064D01*
X542467Y131026D01*
X542389Y130991D01*
X542311Y130960D01*
X542231Y130932D01*
X542149Y130908D01*
X542067Y130888D01*
X541984Y130872D01*
X541900Y130859D01*
X541816Y130851D01*
X541732Y130846D01*
X541647Y130845D01*
X541364Y130853D01*
X541081Y130867D01*
X540798Y130887D01*
X540516Y130915D01*
X540235Y130949D01*
X539955Y130990D01*
X539675Y131037D01*
X539397Y131091D01*
X539120Y131152D01*
X538845Y131219D01*
X538572Y131292D01*
X538300Y131372D01*
X538030Y131459D01*
X537762Y131552D01*
X549138Y130845D02*
X549138Y139321D01*
X548785Y142853D02*
X548785Y143559D01*
X549491Y143559D01*
X549491Y142853D01*
X548785Y142853D01*
X554862Y136496D02*
X554862Y133671D01*
X554863Y136496D02*
X554865Y136602D01*
X554871Y136707D01*
X554881Y136812D01*
X554895Y136917D01*
X554912Y137021D01*
X554934Y137125D01*
X554959Y137227D01*
X554989Y137329D01*
X555022Y137429D01*
X555058Y137528D01*
X555099Y137626D01*
X555143Y137722D01*
X555190Y137816D01*
X555241Y137909D01*
X555296Y137999D01*
X555354Y138087D01*
X555415Y138174D01*
X555479Y138257D01*
X555547Y138339D01*
X555617Y138417D01*
X555690Y138494D01*
X555767Y138567D01*
X555845Y138637D01*
X555927Y138705D01*
X556010Y138769D01*
X556097Y138830D01*
X556185Y138888D01*
X556276Y138943D01*
X556368Y138994D01*
X556462Y139041D01*
X556558Y139085D01*
X556656Y139126D01*
X556755Y139162D01*
X556855Y139195D01*
X556957Y139225D01*
X557059Y139250D01*
X557163Y139272D01*
X557267Y139289D01*
X557372Y139303D01*
X557477Y139313D01*
X557582Y139319D01*
X557688Y139321D01*
X557794Y139319D01*
X557899Y139313D01*
X558004Y139303D01*
X558109Y139289D01*
X558213Y139272D01*
X558317Y139250D01*
X558419Y139225D01*
X558521Y139195D01*
X558621Y139162D01*
X558720Y139126D01*
X558818Y139085D01*
X558914Y139041D01*
X559008Y138994D01*
X559101Y138943D01*
X559191Y138888D01*
X559279Y138830D01*
X559366Y138769D01*
X559449Y138705D01*
X559531Y138637D01*
X559609Y138567D01*
X559686Y138494D01*
X559759Y138417D01*
X559829Y138339D01*
X559897Y138257D01*
X559961Y138174D01*
X560022Y138087D01*
X560080Y137999D01*
X560135Y137909D01*
X560186Y137816D01*
X560233Y137722D01*
X560277Y137626D01*
X560318Y137528D01*
X560354Y137429D01*
X560387Y137329D01*
X560417Y137227D01*
X560442Y137125D01*
X560464Y137021D01*
X560481Y136917D01*
X560495Y136812D01*
X560505Y136707D01*
X560511Y136602D01*
X560513Y136496D01*
X560513Y133671D01*
X560511Y133565D01*
X560505Y133460D01*
X560495Y133355D01*
X560481Y133250D01*
X560464Y133146D01*
X560442Y133042D01*
X560417Y132940D01*
X560387Y132838D01*
X560354Y132738D01*
X560318Y132639D01*
X560277Y132541D01*
X560233Y132445D01*
X560186Y132351D01*
X560135Y132258D01*
X560080Y132168D01*
X560022Y132080D01*
X559961Y131993D01*
X559897Y131910D01*
X559829Y131828D01*
X559759Y131750D01*
X559686Y131673D01*
X559609Y131600D01*
X559531Y131530D01*
X559449Y131462D01*
X559366Y131398D01*
X559279Y131337D01*
X559191Y131279D01*
X559101Y131224D01*
X559008Y131173D01*
X558914Y131126D01*
X558818Y131082D01*
X558720Y131041D01*
X558621Y131005D01*
X558521Y130972D01*
X558419Y130942D01*
X558317Y130917D01*
X558213Y130895D01*
X558109Y130878D01*
X558004Y130864D01*
X557899Y130854D01*
X557794Y130848D01*
X557688Y130846D01*
X557582Y130848D01*
X557477Y130854D01*
X557372Y130864D01*
X557267Y130878D01*
X557163Y130895D01*
X557059Y130917D01*
X556957Y130942D01*
X556855Y130972D01*
X556755Y131005D01*
X556656Y131041D01*
X556558Y131082D01*
X556462Y131126D01*
X556368Y131173D01*
X556276Y131224D01*
X556185Y131279D01*
X556097Y131337D01*
X556010Y131398D01*
X555927Y131462D01*
X555845Y131530D01*
X555767Y131600D01*
X555690Y131673D01*
X555617Y131750D01*
X555547Y131828D01*
X555479Y131910D01*
X555415Y131993D01*
X555354Y132080D01*
X555296Y132168D01*
X555241Y132259D01*
X555190Y132351D01*
X555143Y132445D01*
X555099Y132541D01*
X555058Y132639D01*
X555022Y132738D01*
X554989Y132838D01*
X554959Y132940D01*
X554934Y133042D01*
X554912Y133146D01*
X554895Y133250D01*
X554881Y133355D01*
X554871Y133460D01*
X554865Y133565D01*
X554863Y133671D01*
X567012Y130845D02*
X567012Y139321D01*
X570544Y139321D01*
X570634Y139319D01*
X570724Y139313D01*
X570813Y139304D01*
X570902Y139291D01*
X570990Y139273D01*
X571078Y139253D01*
X571164Y139228D01*
X571250Y139200D01*
X571334Y139168D01*
X571417Y139133D01*
X571498Y139094D01*
X571577Y139052D01*
X571655Y139006D01*
X571731Y138958D01*
X571804Y138906D01*
X571875Y138851D01*
X571944Y138793D01*
X572010Y138732D01*
X572074Y138668D01*
X572135Y138602D01*
X572193Y138533D01*
X572248Y138462D01*
X572300Y138389D01*
X572348Y138313D01*
X572394Y138235D01*
X572436Y138156D01*
X572475Y138075D01*
X572510Y137992D01*
X572542Y137908D01*
X572570Y137822D01*
X572595Y137736D01*
X572615Y137648D01*
X572633Y137560D01*
X572646Y137471D01*
X572655Y137382D01*
X572661Y137292D01*
X572663Y137202D01*
X572663Y130845D01*
X586556Y137909D02*
X590794Y137909D01*
X590794Y137908D02*
X590900Y137906D01*
X591005Y137900D01*
X591110Y137890D01*
X591215Y137876D01*
X591319Y137859D01*
X591423Y137837D01*
X591525Y137812D01*
X591627Y137782D01*
X591727Y137749D01*
X591826Y137713D01*
X591924Y137672D01*
X592020Y137628D01*
X592114Y137581D01*
X592207Y137530D01*
X592297Y137475D01*
X592385Y137417D01*
X592472Y137356D01*
X592555Y137292D01*
X592637Y137224D01*
X592715Y137154D01*
X592792Y137081D01*
X592865Y137004D01*
X592935Y136926D01*
X593003Y136844D01*
X593067Y136761D01*
X593128Y136674D01*
X593186Y136586D01*
X593241Y136496D01*
X593292Y136403D01*
X593339Y136309D01*
X593383Y136213D01*
X593424Y136115D01*
X593460Y136016D01*
X593493Y135916D01*
X593523Y135814D01*
X593548Y135712D01*
X593570Y135608D01*
X593587Y135504D01*
X593601Y135399D01*
X593611Y135294D01*
X593617Y135189D01*
X593619Y135083D01*
X593619Y134377D01*
X593620Y134377D02*
X593618Y134259D01*
X593612Y134141D01*
X593602Y134023D01*
X593588Y133906D01*
X593571Y133790D01*
X593549Y133673D01*
X593524Y133558D01*
X593495Y133444D01*
X593461Y133331D01*
X593425Y133218D01*
X593384Y133108D01*
X593340Y132998D01*
X593292Y132890D01*
X593240Y132784D01*
X593185Y132680D01*
X593127Y132577D01*
X593065Y132476D01*
X593000Y132378D01*
X592932Y132282D01*
X592860Y132188D01*
X592785Y132097D01*
X592708Y132008D01*
X592627Y131922D01*
X592543Y131838D01*
X592457Y131757D01*
X592368Y131680D01*
X592277Y131605D01*
X592183Y131533D01*
X592087Y131465D01*
X591989Y131400D01*
X591888Y131338D01*
X591785Y131280D01*
X591681Y131225D01*
X591575Y131173D01*
X591467Y131125D01*
X591357Y131081D01*
X591247Y131040D01*
X591134Y131004D01*
X591021Y130970D01*
X590907Y130941D01*
X590792Y130916D01*
X590675Y130894D01*
X590559Y130877D01*
X590442Y130863D01*
X590324Y130853D01*
X590206Y130847D01*
X590088Y130845D01*
X589970Y130847D01*
X589852Y130853D01*
X589734Y130863D01*
X589617Y130877D01*
X589501Y130894D01*
X589384Y130916D01*
X589269Y130941D01*
X589155Y130970D01*
X589042Y131004D01*
X588929Y131040D01*
X588819Y131081D01*
X588709Y131125D01*
X588601Y131173D01*
X588495Y131225D01*
X588391Y131280D01*
X588288Y131338D01*
X588187Y131400D01*
X588089Y131465D01*
X587993Y131533D01*
X587899Y131605D01*
X587808Y131680D01*
X587719Y131757D01*
X587633Y131838D01*
X587549Y131922D01*
X587468Y132008D01*
X587391Y132097D01*
X587316Y132188D01*
X587244Y132282D01*
X587176Y132378D01*
X587111Y132476D01*
X587049Y132577D01*
X586991Y132680D01*
X586936Y132784D01*
X586884Y132890D01*
X586836Y132998D01*
X586792Y133108D01*
X586751Y133218D01*
X586715Y133331D01*
X586681Y133444D01*
X586652Y133558D01*
X586627Y133673D01*
X586605Y133790D01*
X586588Y133906D01*
X586574Y134023D01*
X586564Y134141D01*
X586558Y134259D01*
X586556Y134377D01*
X586556Y137909D01*
X586558Y138057D01*
X586564Y138205D01*
X586573Y138352D01*
X586587Y138500D01*
X586604Y138647D01*
X586626Y138793D01*
X586651Y138939D01*
X586679Y139084D01*
X586712Y139228D01*
X586749Y139372D01*
X586789Y139514D01*
X586833Y139655D01*
X586880Y139795D01*
X586931Y139934D01*
X586986Y140072D01*
X587045Y140207D01*
X587106Y140342D01*
X587172Y140474D01*
X587241Y140605D01*
X587313Y140734D01*
X587389Y140862D01*
X587468Y140987D01*
X587550Y141110D01*
X587635Y141231D01*
X587724Y141349D01*
X587815Y141465D01*
X587910Y141579D01*
X588007Y141690D01*
X588108Y141799D01*
X588211Y141905D01*
X588317Y142008D01*
X588426Y142109D01*
X588537Y142206D01*
X588651Y142301D01*
X588767Y142392D01*
X588885Y142481D01*
X589006Y142566D01*
X589129Y142648D01*
X589254Y142727D01*
X589381Y142803D01*
X589511Y142875D01*
X589641Y142944D01*
X589774Y143009D01*
X589909Y143071D01*
X590044Y143130D01*
X590182Y143185D01*
X590321Y143236D01*
X590461Y143283D01*
X590602Y143327D01*
X590744Y143367D01*
X590888Y143404D01*
X591032Y143437D01*
X591177Y143465D01*
X591323Y143490D01*
X591469Y143512D01*
X591616Y143529D01*
X591764Y143543D01*
X591911Y143552D01*
X592059Y143558D01*
X592207Y143560D01*
X599185Y131552D02*
X599185Y130845D01*
X599185Y131552D02*
X599891Y131552D01*
X599891Y130845D01*
X599185Y130845D01*
X605456Y137202D02*
X605459Y137452D01*
X605468Y137702D01*
X605483Y137952D01*
X605504Y138201D01*
X605531Y138450D01*
X605563Y138698D01*
X605602Y138945D01*
X605647Y139191D01*
X605697Y139436D01*
X605753Y139680D01*
X605815Y139922D01*
X605883Y140163D01*
X605957Y140402D01*
X606036Y140639D01*
X606121Y140874D01*
X606211Y141107D01*
X606307Y141338D01*
X606409Y141567D01*
X606515Y141793D01*
X606516Y141793D02*
X606551Y141889D01*
X606589Y141982D01*
X606631Y142075D01*
X606677Y142165D01*
X606726Y142254D01*
X606778Y142340D01*
X606834Y142425D01*
X606893Y142507D01*
X606955Y142587D01*
X607020Y142665D01*
X607088Y142740D01*
X607159Y142812D01*
X607233Y142882D01*
X607309Y142948D01*
X607388Y143012D01*
X607469Y143072D01*
X607553Y143130D01*
X607638Y143184D01*
X607726Y143234D01*
X607816Y143281D01*
X607907Y143325D01*
X608000Y143365D01*
X608095Y143402D01*
X608191Y143434D01*
X608288Y143463D01*
X608386Y143489D01*
X608485Y143510D01*
X608584Y143528D01*
X608685Y143541D01*
X608786Y143551D01*
X608887Y143557D01*
X608988Y143559D01*
X609089Y143557D01*
X609190Y143551D01*
X609291Y143541D01*
X609392Y143528D01*
X609491Y143510D01*
X609590Y143489D01*
X609688Y143463D01*
X609785Y143434D01*
X609881Y143402D01*
X609976Y143365D01*
X610069Y143325D01*
X610160Y143281D01*
X610250Y143234D01*
X610338Y143184D01*
X610423Y143130D01*
X610507Y143072D01*
X610588Y143012D01*
X610667Y142948D01*
X610743Y142882D01*
X610817Y142812D01*
X610888Y142740D01*
X610956Y142665D01*
X611021Y142587D01*
X611083Y142507D01*
X611142Y142425D01*
X611198Y142340D01*
X611250Y142254D01*
X611299Y142165D01*
X611345Y142075D01*
X611387Y141982D01*
X611425Y141889D01*
X611460Y141793D01*
X611566Y141567D01*
X611668Y141338D01*
X611764Y141107D01*
X611854Y140874D01*
X611939Y140639D01*
X612018Y140402D01*
X612092Y140163D01*
X612160Y139922D01*
X612222Y139680D01*
X612278Y139436D01*
X612328Y139191D01*
X612373Y138945D01*
X612412Y138698D01*
X612444Y138450D01*
X612471Y138201D01*
X612492Y137952D01*
X612507Y137702D01*
X612516Y137452D01*
X612519Y137202D01*
X605456Y137202D02*
X605459Y136952D01*
X605468Y136702D01*
X605483Y136452D01*
X605504Y136203D01*
X605531Y135954D01*
X605563Y135706D01*
X605602Y135459D01*
X605647Y135213D01*
X605697Y134968D01*
X605753Y134724D01*
X605815Y134482D01*
X605883Y134241D01*
X605957Y134002D01*
X606036Y133765D01*
X606121Y133530D01*
X606211Y133297D01*
X606307Y133066D01*
X606409Y132837D01*
X606515Y132611D01*
X606516Y132612D02*
X606551Y132516D01*
X606589Y132423D01*
X606631Y132330D01*
X606677Y132240D01*
X606726Y132151D01*
X606778Y132065D01*
X606834Y131980D01*
X606893Y131898D01*
X606955Y131818D01*
X607020Y131740D01*
X607088Y131665D01*
X607159Y131593D01*
X607233Y131523D01*
X607309Y131457D01*
X607388Y131393D01*
X607469Y131333D01*
X607553Y131275D01*
X607638Y131221D01*
X607726Y131171D01*
X607816Y131124D01*
X607907Y131080D01*
X608000Y131040D01*
X608095Y131003D01*
X608191Y130971D01*
X608288Y130942D01*
X608386Y130916D01*
X608485Y130895D01*
X608584Y130877D01*
X608685Y130864D01*
X608786Y130854D01*
X608887Y130848D01*
X608988Y130846D01*
X611460Y132611D02*
X611566Y132837D01*
X611668Y133066D01*
X611764Y133297D01*
X611854Y133530D01*
X611939Y133765D01*
X612018Y134002D01*
X612092Y134241D01*
X612160Y134482D01*
X612222Y134724D01*
X612278Y134968D01*
X612328Y135213D01*
X612373Y135459D01*
X612412Y135706D01*
X612444Y135954D01*
X612471Y136203D01*
X612492Y136452D01*
X612507Y136702D01*
X612516Y136952D01*
X612519Y137202D01*
X611460Y132612D02*
X611425Y132516D01*
X611387Y132423D01*
X611345Y132330D01*
X611299Y132240D01*
X611250Y132151D01*
X611198Y132065D01*
X611142Y131980D01*
X611083Y131898D01*
X611021Y131818D01*
X610956Y131740D01*
X610888Y131665D01*
X610817Y131593D01*
X610743Y131523D01*
X610667Y131457D01*
X610588Y131393D01*
X610507Y131333D01*
X610423Y131275D01*
X610338Y131221D01*
X610250Y131171D01*
X610160Y131124D01*
X610069Y131080D01*
X609976Y131040D01*
X609881Y131003D01*
X609785Y130971D01*
X609688Y130942D01*
X609590Y130916D01*
X609491Y130895D01*
X609392Y130877D01*
X609291Y130864D01*
X609190Y130854D01*
X609089Y130848D01*
X608988Y130846D01*
X606162Y133671D02*
X611813Y140734D01*
X618085Y131552D02*
X618085Y130845D01*
X618085Y131552D02*
X618791Y131552D01*
X618791Y130845D01*
X618085Y130845D01*
X624356Y142147D02*
X624356Y143559D01*
X631419Y143559D01*
X627888Y130845D01*
X506487Y119293D02*
X506381Y119067D01*
X506279Y118838D01*
X506183Y118607D01*
X506093Y118374D01*
X506008Y118139D01*
X505929Y117902D01*
X505855Y117663D01*
X505787Y117422D01*
X505725Y117180D01*
X505669Y116936D01*
X505619Y116691D01*
X505574Y116445D01*
X505535Y116198D01*
X505503Y115950D01*
X505476Y115701D01*
X505455Y115452D01*
X505440Y115202D01*
X505431Y114952D01*
X505428Y114702D01*
X506488Y119293D02*
X506523Y119389D01*
X506561Y119482D01*
X506603Y119575D01*
X506649Y119665D01*
X506698Y119754D01*
X506750Y119840D01*
X506806Y119925D01*
X506865Y120007D01*
X506927Y120087D01*
X506992Y120165D01*
X507060Y120240D01*
X507131Y120312D01*
X507205Y120382D01*
X507281Y120448D01*
X507360Y120512D01*
X507441Y120572D01*
X507525Y120630D01*
X507610Y120684D01*
X507698Y120734D01*
X507788Y120781D01*
X507879Y120825D01*
X507972Y120865D01*
X508067Y120902D01*
X508163Y120934D01*
X508260Y120963D01*
X508358Y120989D01*
X508457Y121010D01*
X508556Y121028D01*
X508657Y121041D01*
X508758Y121051D01*
X508859Y121057D01*
X508960Y121059D01*
X509061Y121057D01*
X509162Y121051D01*
X509263Y121041D01*
X509364Y121028D01*
X509463Y121010D01*
X509562Y120989D01*
X509660Y120963D01*
X509757Y120934D01*
X509853Y120902D01*
X509948Y120865D01*
X510041Y120825D01*
X510132Y120781D01*
X510222Y120734D01*
X510310Y120684D01*
X510395Y120630D01*
X510479Y120572D01*
X510560Y120512D01*
X510639Y120448D01*
X510715Y120382D01*
X510789Y120312D01*
X510860Y120240D01*
X510928Y120165D01*
X510993Y120087D01*
X511055Y120007D01*
X511114Y119925D01*
X511170Y119840D01*
X511222Y119754D01*
X511271Y119665D01*
X511317Y119575D01*
X511359Y119482D01*
X511397Y119389D01*
X511432Y119293D01*
X511538Y119067D01*
X511640Y118838D01*
X511736Y118607D01*
X511826Y118374D01*
X511911Y118139D01*
X511990Y117902D01*
X512064Y117663D01*
X512132Y117422D01*
X512194Y117180D01*
X512250Y116936D01*
X512300Y116691D01*
X512345Y116445D01*
X512384Y116198D01*
X512416Y115950D01*
X512443Y115701D01*
X512464Y115452D01*
X512479Y115202D01*
X512488Y114952D01*
X512491Y114702D01*
X505428Y114702D02*
X505431Y114452D01*
X505440Y114202D01*
X505455Y113952D01*
X505476Y113703D01*
X505503Y113454D01*
X505535Y113206D01*
X505574Y112959D01*
X505619Y112713D01*
X505669Y112468D01*
X505725Y112224D01*
X505787Y111982D01*
X505855Y111741D01*
X505929Y111502D01*
X506008Y111265D01*
X506093Y111030D01*
X506183Y110797D01*
X506279Y110566D01*
X506381Y110337D01*
X506487Y110111D01*
X506488Y110112D02*
X506523Y110016D01*
X506561Y109923D01*
X506603Y109830D01*
X506649Y109740D01*
X506698Y109651D01*
X506750Y109565D01*
X506806Y109480D01*
X506865Y109398D01*
X506927Y109318D01*
X506992Y109240D01*
X507060Y109165D01*
X507131Y109093D01*
X507205Y109023D01*
X507281Y108957D01*
X507360Y108893D01*
X507441Y108833D01*
X507525Y108775D01*
X507610Y108721D01*
X507698Y108671D01*
X507788Y108624D01*
X507879Y108580D01*
X507972Y108540D01*
X508067Y108503D01*
X508163Y108471D01*
X508260Y108442D01*
X508358Y108416D01*
X508457Y108395D01*
X508556Y108377D01*
X508657Y108364D01*
X508758Y108354D01*
X508859Y108348D01*
X508960Y108346D01*
X511432Y110111D02*
X511538Y110337D01*
X511640Y110566D01*
X511736Y110797D01*
X511826Y111030D01*
X511911Y111265D01*
X511990Y111502D01*
X512064Y111741D01*
X512132Y111982D01*
X512194Y112224D01*
X512250Y112468D01*
X512300Y112713D01*
X512345Y112959D01*
X512384Y113206D01*
X512416Y113454D01*
X512443Y113703D01*
X512464Y113952D01*
X512479Y114202D01*
X512488Y114452D01*
X512491Y114702D01*
X511432Y110112D02*
X511397Y110016D01*
X511359Y109923D01*
X511317Y109830D01*
X511271Y109740D01*
X511222Y109651D01*
X511170Y109565D01*
X511114Y109480D01*
X511055Y109398D01*
X510993Y109318D01*
X510928Y109240D01*
X510860Y109165D01*
X510789Y109093D01*
X510715Y109023D01*
X510639Y108957D01*
X510560Y108893D01*
X510479Y108833D01*
X510395Y108775D01*
X510310Y108721D01*
X510222Y108671D01*
X510132Y108624D01*
X510041Y108580D01*
X509948Y108540D01*
X509853Y108503D01*
X509757Y108471D01*
X509660Y108442D01*
X509562Y108416D01*
X509463Y108395D01*
X509364Y108377D01*
X509263Y108364D01*
X509162Y108354D01*
X509061Y108348D01*
X508960Y108346D01*
X506134Y111171D02*
X511785Y118234D01*
X518928Y108345D02*
X523166Y108345D01*
X523166Y108346D02*
X523272Y108348D01*
X523377Y108354D01*
X523482Y108364D01*
X523587Y108378D01*
X523691Y108395D01*
X523795Y108417D01*
X523897Y108442D01*
X523999Y108472D01*
X524099Y108505D01*
X524198Y108541D01*
X524296Y108582D01*
X524392Y108626D01*
X524486Y108673D01*
X524579Y108724D01*
X524669Y108779D01*
X524757Y108837D01*
X524844Y108898D01*
X524927Y108962D01*
X525009Y109030D01*
X525087Y109100D01*
X525164Y109173D01*
X525237Y109250D01*
X525307Y109328D01*
X525375Y109410D01*
X525439Y109493D01*
X525500Y109580D01*
X525558Y109668D01*
X525613Y109758D01*
X525664Y109851D01*
X525711Y109945D01*
X525755Y110041D01*
X525796Y110139D01*
X525832Y110238D01*
X525865Y110338D01*
X525895Y110440D01*
X525920Y110542D01*
X525942Y110646D01*
X525959Y110750D01*
X525973Y110855D01*
X525983Y110960D01*
X525989Y111065D01*
X525991Y111171D01*
X525991Y112583D01*
X525989Y112689D01*
X525983Y112794D01*
X525973Y112899D01*
X525959Y113004D01*
X525942Y113108D01*
X525920Y113212D01*
X525895Y113314D01*
X525865Y113416D01*
X525832Y113516D01*
X525796Y113615D01*
X525755Y113713D01*
X525711Y113809D01*
X525664Y113903D01*
X525613Y113996D01*
X525558Y114086D01*
X525500Y114174D01*
X525439Y114261D01*
X525375Y114344D01*
X525307Y114426D01*
X525237Y114504D01*
X525164Y114581D01*
X525087Y114654D01*
X525009Y114724D01*
X524927Y114792D01*
X524844Y114856D01*
X524757Y114917D01*
X524669Y114975D01*
X524579Y115030D01*
X524486Y115081D01*
X524392Y115128D01*
X524296Y115172D01*
X524198Y115213D01*
X524099Y115249D01*
X523999Y115282D01*
X523897Y115312D01*
X523795Y115337D01*
X523691Y115359D01*
X523587Y115376D01*
X523482Y115390D01*
X523377Y115400D01*
X523272Y115406D01*
X523166Y115408D01*
X523166Y115409D02*
X518928Y115409D01*
X518928Y121059D01*
X525991Y121059D01*
X537435Y122472D02*
X531784Y106933D01*
X543228Y114702D02*
X543231Y114952D01*
X543240Y115202D01*
X543255Y115452D01*
X543276Y115701D01*
X543303Y115950D01*
X543335Y116198D01*
X543374Y116445D01*
X543419Y116691D01*
X543469Y116936D01*
X543525Y117180D01*
X543587Y117422D01*
X543655Y117663D01*
X543729Y117902D01*
X543808Y118139D01*
X543893Y118374D01*
X543983Y118607D01*
X544079Y118838D01*
X544181Y119067D01*
X544287Y119293D01*
X544288Y119293D02*
X544323Y119389D01*
X544361Y119482D01*
X544403Y119575D01*
X544449Y119665D01*
X544498Y119754D01*
X544550Y119840D01*
X544606Y119925D01*
X544665Y120007D01*
X544727Y120087D01*
X544792Y120165D01*
X544860Y120240D01*
X544931Y120312D01*
X545005Y120382D01*
X545081Y120448D01*
X545160Y120512D01*
X545241Y120572D01*
X545325Y120630D01*
X545410Y120684D01*
X545498Y120734D01*
X545588Y120781D01*
X545679Y120825D01*
X545772Y120865D01*
X545867Y120902D01*
X545963Y120934D01*
X546060Y120963D01*
X546158Y120989D01*
X546257Y121010D01*
X546356Y121028D01*
X546457Y121041D01*
X546558Y121051D01*
X546659Y121057D01*
X546760Y121059D01*
X546861Y121057D01*
X546962Y121051D01*
X547063Y121041D01*
X547164Y121028D01*
X547263Y121010D01*
X547362Y120989D01*
X547460Y120963D01*
X547557Y120934D01*
X547653Y120902D01*
X547748Y120865D01*
X547841Y120825D01*
X547932Y120781D01*
X548022Y120734D01*
X548110Y120684D01*
X548195Y120630D01*
X548279Y120572D01*
X548360Y120512D01*
X548439Y120448D01*
X548515Y120382D01*
X548589Y120312D01*
X548660Y120240D01*
X548728Y120165D01*
X548793Y120087D01*
X548855Y120007D01*
X548914Y119925D01*
X548970Y119840D01*
X549022Y119754D01*
X549071Y119665D01*
X549117Y119575D01*
X549159Y119482D01*
X549197Y119389D01*
X549232Y119293D01*
X549338Y119067D01*
X549440Y118838D01*
X549536Y118607D01*
X549626Y118374D01*
X549711Y118139D01*
X549790Y117902D01*
X549864Y117663D01*
X549932Y117422D01*
X549994Y117180D01*
X550050Y116936D01*
X550100Y116691D01*
X550145Y116445D01*
X550184Y116198D01*
X550216Y115950D01*
X550243Y115701D01*
X550264Y115452D01*
X550279Y115202D01*
X550288Y114952D01*
X550291Y114702D01*
X543228Y114702D02*
X543231Y114452D01*
X543240Y114202D01*
X543255Y113952D01*
X543276Y113703D01*
X543303Y113454D01*
X543335Y113206D01*
X543374Y112959D01*
X543419Y112713D01*
X543469Y112468D01*
X543525Y112224D01*
X543587Y111982D01*
X543655Y111741D01*
X543729Y111502D01*
X543808Y111265D01*
X543893Y111030D01*
X543983Y110797D01*
X544079Y110566D01*
X544181Y110337D01*
X544287Y110111D01*
X544288Y110112D02*
X544323Y110016D01*
X544361Y109923D01*
X544403Y109830D01*
X544449Y109740D01*
X544498Y109651D01*
X544550Y109565D01*
X544606Y109480D01*
X544665Y109398D01*
X544727Y109318D01*
X544792Y109240D01*
X544860Y109165D01*
X544931Y109093D01*
X545005Y109023D01*
X545081Y108957D01*
X545160Y108893D01*
X545241Y108833D01*
X545325Y108775D01*
X545410Y108721D01*
X545498Y108671D01*
X545588Y108624D01*
X545679Y108580D01*
X545772Y108540D01*
X545867Y108503D01*
X545963Y108471D01*
X546060Y108442D01*
X546158Y108416D01*
X546257Y108395D01*
X546356Y108377D01*
X546457Y108364D01*
X546558Y108354D01*
X546659Y108348D01*
X546760Y108346D01*
X549232Y110111D02*
X549338Y110337D01*
X549440Y110566D01*
X549536Y110797D01*
X549626Y111030D01*
X549711Y111265D01*
X549790Y111502D01*
X549864Y111741D01*
X549932Y111982D01*
X549994Y112224D01*
X550050Y112468D01*
X550100Y112713D01*
X550145Y112959D01*
X550184Y113206D01*
X550216Y113454D01*
X550243Y113703D01*
X550264Y113952D01*
X550279Y114202D01*
X550288Y114452D01*
X550291Y114702D01*
X549232Y110112D02*
X549197Y110016D01*
X549159Y109923D01*
X549117Y109830D01*
X549071Y109740D01*
X549022Y109651D01*
X548970Y109565D01*
X548914Y109480D01*
X548855Y109398D01*
X548793Y109318D01*
X548728Y109240D01*
X548660Y109165D01*
X548589Y109093D01*
X548515Y109023D01*
X548439Y108957D01*
X548360Y108893D01*
X548279Y108833D01*
X548195Y108775D01*
X548110Y108721D01*
X548022Y108671D01*
X547932Y108624D01*
X547841Y108580D01*
X547748Y108540D01*
X547653Y108503D01*
X547557Y108471D01*
X547460Y108442D01*
X547362Y108416D01*
X547263Y108395D01*
X547164Y108377D01*
X547063Y108364D01*
X546962Y108354D01*
X546861Y108348D01*
X546760Y108346D01*
X543934Y111171D02*
X549585Y118234D01*
X556728Y108345D02*
X560260Y108345D01*
X560378Y108347D01*
X560496Y108353D01*
X560614Y108363D01*
X560731Y108377D01*
X560847Y108394D01*
X560964Y108416D01*
X561079Y108441D01*
X561193Y108470D01*
X561306Y108504D01*
X561419Y108540D01*
X561529Y108581D01*
X561639Y108625D01*
X561747Y108673D01*
X561853Y108725D01*
X561957Y108780D01*
X562060Y108838D01*
X562161Y108900D01*
X562259Y108965D01*
X562355Y109033D01*
X562449Y109105D01*
X562540Y109180D01*
X562629Y109257D01*
X562715Y109338D01*
X562799Y109422D01*
X562880Y109508D01*
X562957Y109597D01*
X563032Y109688D01*
X563104Y109782D01*
X563172Y109878D01*
X563237Y109976D01*
X563299Y110077D01*
X563357Y110180D01*
X563412Y110284D01*
X563464Y110390D01*
X563512Y110498D01*
X563556Y110608D01*
X563597Y110718D01*
X563633Y110831D01*
X563667Y110944D01*
X563696Y111058D01*
X563721Y111173D01*
X563743Y111290D01*
X563760Y111406D01*
X563774Y111523D01*
X563784Y111641D01*
X563790Y111759D01*
X563792Y111877D01*
X563790Y111995D01*
X563784Y112113D01*
X563774Y112231D01*
X563760Y112348D01*
X563743Y112464D01*
X563721Y112581D01*
X563696Y112696D01*
X563667Y112810D01*
X563633Y112923D01*
X563597Y113036D01*
X563556Y113146D01*
X563512Y113256D01*
X563464Y113364D01*
X563412Y113470D01*
X563357Y113574D01*
X563299Y113677D01*
X563237Y113778D01*
X563172Y113876D01*
X563104Y113972D01*
X563032Y114066D01*
X562957Y114157D01*
X562880Y114246D01*
X562799Y114332D01*
X562715Y114416D01*
X562629Y114497D01*
X562540Y114574D01*
X562449Y114649D01*
X562355Y114721D01*
X562259Y114789D01*
X562161Y114854D01*
X562060Y114916D01*
X561957Y114974D01*
X561853Y115029D01*
X561747Y115081D01*
X561639Y115129D01*
X561529Y115173D01*
X561419Y115214D01*
X561306Y115250D01*
X561193Y115284D01*
X561079Y115313D01*
X560964Y115338D01*
X560847Y115360D01*
X560731Y115377D01*
X560614Y115391D01*
X560496Y115401D01*
X560378Y115407D01*
X560260Y115409D01*
X560966Y121059D02*
X556728Y121059D01*
X560966Y121059D02*
X561072Y121057D01*
X561177Y121051D01*
X561282Y121041D01*
X561387Y121027D01*
X561491Y121010D01*
X561595Y120988D01*
X561697Y120963D01*
X561799Y120933D01*
X561899Y120900D01*
X561998Y120864D01*
X562096Y120823D01*
X562192Y120779D01*
X562286Y120732D01*
X562379Y120681D01*
X562469Y120626D01*
X562557Y120568D01*
X562644Y120507D01*
X562727Y120443D01*
X562809Y120375D01*
X562887Y120305D01*
X562964Y120232D01*
X563037Y120155D01*
X563107Y120077D01*
X563175Y119995D01*
X563239Y119912D01*
X563300Y119825D01*
X563358Y119737D01*
X563413Y119646D01*
X563464Y119554D01*
X563511Y119460D01*
X563555Y119364D01*
X563596Y119266D01*
X563632Y119167D01*
X563665Y119067D01*
X563695Y118965D01*
X563720Y118863D01*
X563742Y118759D01*
X563759Y118655D01*
X563773Y118550D01*
X563783Y118445D01*
X563789Y118340D01*
X563791Y118234D01*
X563789Y118128D01*
X563783Y118023D01*
X563773Y117918D01*
X563759Y117813D01*
X563742Y117709D01*
X563720Y117605D01*
X563695Y117503D01*
X563665Y117401D01*
X563632Y117301D01*
X563596Y117202D01*
X563555Y117104D01*
X563511Y117008D01*
X563464Y116914D01*
X563413Y116821D01*
X563358Y116731D01*
X563300Y116643D01*
X563239Y116556D01*
X563175Y116473D01*
X563107Y116391D01*
X563037Y116313D01*
X562964Y116236D01*
X562887Y116163D01*
X562809Y116093D01*
X562727Y116025D01*
X562644Y115961D01*
X562557Y115900D01*
X562469Y115842D01*
X562379Y115787D01*
X562286Y115736D01*
X562192Y115689D01*
X562096Y115645D01*
X561998Y115604D01*
X561899Y115568D01*
X561799Y115535D01*
X561697Y115505D01*
X561595Y115480D01*
X561491Y115458D01*
X561387Y115441D01*
X561282Y115427D01*
X561177Y115417D01*
X561072Y115411D01*
X560966Y115409D01*
X558141Y115409D01*
X569584Y106933D02*
X575235Y122472D01*
X584913Y121060D02*
X585024Y121058D01*
X585135Y121052D01*
X585245Y121043D01*
X585355Y121029D01*
X585465Y121012D01*
X585574Y120991D01*
X585682Y120966D01*
X585789Y120937D01*
X585895Y120904D01*
X586000Y120868D01*
X586104Y120829D01*
X586206Y120785D01*
X586307Y120738D01*
X586405Y120688D01*
X586503Y120634D01*
X586598Y120577D01*
X586691Y120517D01*
X586782Y120453D01*
X586870Y120386D01*
X586956Y120316D01*
X587040Y120243D01*
X587121Y120168D01*
X587200Y120089D01*
X587275Y120008D01*
X587348Y119924D01*
X587418Y119838D01*
X587485Y119750D01*
X587549Y119659D01*
X587609Y119566D01*
X587666Y119471D01*
X587720Y119373D01*
X587770Y119275D01*
X587817Y119174D01*
X587861Y119072D01*
X587900Y118968D01*
X587936Y118863D01*
X587969Y118757D01*
X587998Y118650D01*
X588023Y118542D01*
X588044Y118433D01*
X588061Y118323D01*
X588075Y118213D01*
X588084Y118103D01*
X588090Y117992D01*
X588092Y117881D01*
X584913Y121059D02*
X584788Y121057D01*
X584663Y121051D01*
X584538Y121042D01*
X584413Y121028D01*
X584289Y121011D01*
X584166Y120990D01*
X584043Y120965D01*
X583921Y120937D01*
X583800Y120904D01*
X583680Y120868D01*
X583561Y120829D01*
X583444Y120786D01*
X583328Y120739D01*
X583213Y120688D01*
X583100Y120634D01*
X582989Y120577D01*
X582879Y120516D01*
X582772Y120452D01*
X582666Y120385D01*
X582562Y120315D01*
X582461Y120241D01*
X582362Y120164D01*
X582266Y120084D01*
X582171Y120002D01*
X582080Y119916D01*
X581991Y119828D01*
X581905Y119737D01*
X581822Y119643D01*
X581741Y119547D01*
X581664Y119449D01*
X581590Y119348D01*
X581519Y119245D01*
X581451Y119140D01*
X581386Y119033D01*
X581324Y118924D01*
X581266Y118813D01*
X581212Y118700D01*
X581161Y118586D01*
X581113Y118470D01*
X581069Y118353D01*
X581029Y118234D01*
X587032Y115409D02*
X587114Y115490D01*
X587193Y115573D01*
X587269Y115659D01*
X587343Y115748D01*
X587413Y115839D01*
X587480Y115933D01*
X587545Y116028D01*
X587605Y116126D01*
X587663Y116226D01*
X587717Y116328D01*
X587768Y116431D01*
X587815Y116536D01*
X587859Y116643D01*
X587899Y116751D01*
X587935Y116860D01*
X587967Y116971D01*
X587996Y117082D01*
X588021Y117195D01*
X588043Y117308D01*
X588060Y117422D01*
X588074Y117536D01*
X588083Y117651D01*
X588089Y117766D01*
X588091Y117881D01*
X587032Y115409D02*
X581028Y108345D01*
X588091Y108345D01*
X594528Y114702D02*
X594531Y114952D01*
X594540Y115202D01*
X594555Y115452D01*
X594576Y115701D01*
X594603Y115950D01*
X594635Y116198D01*
X594674Y116445D01*
X594719Y116691D01*
X594769Y116936D01*
X594825Y117180D01*
X594887Y117422D01*
X594955Y117663D01*
X595029Y117902D01*
X595108Y118139D01*
X595193Y118374D01*
X595283Y118607D01*
X595379Y118838D01*
X595481Y119067D01*
X595587Y119293D01*
X595588Y119293D02*
X595623Y119389D01*
X595661Y119482D01*
X595703Y119575D01*
X595749Y119665D01*
X595798Y119754D01*
X595850Y119840D01*
X595906Y119925D01*
X595965Y120007D01*
X596027Y120087D01*
X596092Y120165D01*
X596160Y120240D01*
X596231Y120312D01*
X596305Y120382D01*
X596381Y120448D01*
X596460Y120512D01*
X596541Y120572D01*
X596625Y120630D01*
X596710Y120684D01*
X596798Y120734D01*
X596888Y120781D01*
X596979Y120825D01*
X597072Y120865D01*
X597167Y120902D01*
X597263Y120934D01*
X597360Y120963D01*
X597458Y120989D01*
X597557Y121010D01*
X597656Y121028D01*
X597757Y121041D01*
X597858Y121051D01*
X597959Y121057D01*
X598060Y121059D01*
X598161Y121057D01*
X598262Y121051D01*
X598363Y121041D01*
X598464Y121028D01*
X598563Y121010D01*
X598662Y120989D01*
X598760Y120963D01*
X598857Y120934D01*
X598953Y120902D01*
X599048Y120865D01*
X599141Y120825D01*
X599232Y120781D01*
X599322Y120734D01*
X599410Y120684D01*
X599495Y120630D01*
X599579Y120572D01*
X599660Y120512D01*
X599739Y120448D01*
X599815Y120382D01*
X599889Y120312D01*
X599960Y120240D01*
X600028Y120165D01*
X600093Y120087D01*
X600155Y120007D01*
X600214Y119925D01*
X600270Y119840D01*
X600322Y119754D01*
X600371Y119665D01*
X600417Y119575D01*
X600459Y119482D01*
X600497Y119389D01*
X600532Y119293D01*
X600638Y119067D01*
X600740Y118838D01*
X600836Y118607D01*
X600926Y118374D01*
X601011Y118139D01*
X601090Y117902D01*
X601164Y117663D01*
X601232Y117422D01*
X601294Y117180D01*
X601350Y116936D01*
X601400Y116691D01*
X601445Y116445D01*
X601484Y116198D01*
X601516Y115950D01*
X601543Y115701D01*
X601564Y115452D01*
X601579Y115202D01*
X601588Y114952D01*
X601591Y114702D01*
X594528Y114702D02*
X594531Y114452D01*
X594540Y114202D01*
X594555Y113952D01*
X594576Y113703D01*
X594603Y113454D01*
X594635Y113206D01*
X594674Y112959D01*
X594719Y112713D01*
X594769Y112468D01*
X594825Y112224D01*
X594887Y111982D01*
X594955Y111741D01*
X595029Y111502D01*
X595108Y111265D01*
X595193Y111030D01*
X595283Y110797D01*
X595379Y110566D01*
X595481Y110337D01*
X595587Y110111D01*
X595588Y110112D02*
X595623Y110016D01*
X595661Y109923D01*
X595703Y109830D01*
X595749Y109740D01*
X595798Y109651D01*
X595850Y109565D01*
X595906Y109480D01*
X595965Y109398D01*
X596027Y109318D01*
X596092Y109240D01*
X596160Y109165D01*
X596231Y109093D01*
X596305Y109023D01*
X596381Y108957D01*
X596460Y108893D01*
X596541Y108833D01*
X596625Y108775D01*
X596710Y108721D01*
X596798Y108671D01*
X596888Y108624D01*
X596979Y108580D01*
X597072Y108540D01*
X597167Y108503D01*
X597263Y108471D01*
X597360Y108442D01*
X597458Y108416D01*
X597557Y108395D01*
X597656Y108377D01*
X597757Y108364D01*
X597858Y108354D01*
X597959Y108348D01*
X598060Y108346D01*
X600532Y110111D02*
X600638Y110337D01*
X600740Y110566D01*
X600836Y110797D01*
X600926Y111030D01*
X601011Y111265D01*
X601090Y111502D01*
X601164Y111741D01*
X601232Y111982D01*
X601294Y112224D01*
X601350Y112468D01*
X601400Y112713D01*
X601445Y112959D01*
X601484Y113206D01*
X601516Y113454D01*
X601543Y113703D01*
X601564Y113952D01*
X601579Y114202D01*
X601588Y114452D01*
X601591Y114702D01*
X600532Y110112D02*
X600497Y110016D01*
X600459Y109923D01*
X600417Y109830D01*
X600371Y109740D01*
X600322Y109651D01*
X600270Y109565D01*
X600214Y109480D01*
X600155Y109398D01*
X600093Y109318D01*
X600028Y109240D01*
X599960Y109165D01*
X599889Y109093D01*
X599815Y109023D01*
X599739Y108957D01*
X599660Y108893D01*
X599579Y108833D01*
X599495Y108775D01*
X599410Y108721D01*
X599322Y108671D01*
X599232Y108624D01*
X599141Y108580D01*
X599048Y108540D01*
X598953Y108503D01*
X598857Y108471D01*
X598760Y108442D01*
X598662Y108416D01*
X598563Y108395D01*
X598464Y108377D01*
X598363Y108364D01*
X598262Y108354D01*
X598161Y108348D01*
X598060Y108346D01*
X595234Y111171D02*
X600885Y118234D01*
X611913Y121060D02*
X612024Y121058D01*
X612135Y121052D01*
X612245Y121043D01*
X612355Y121029D01*
X612465Y121012D01*
X612574Y120991D01*
X612682Y120966D01*
X612789Y120937D01*
X612895Y120904D01*
X613000Y120868D01*
X613104Y120829D01*
X613206Y120785D01*
X613307Y120738D01*
X613405Y120688D01*
X613503Y120634D01*
X613598Y120577D01*
X613691Y120517D01*
X613782Y120453D01*
X613870Y120386D01*
X613956Y120316D01*
X614040Y120243D01*
X614121Y120168D01*
X614200Y120089D01*
X614275Y120008D01*
X614348Y119924D01*
X614418Y119838D01*
X614485Y119750D01*
X614549Y119659D01*
X614609Y119566D01*
X614666Y119471D01*
X614720Y119373D01*
X614770Y119275D01*
X614817Y119174D01*
X614861Y119072D01*
X614900Y118968D01*
X614936Y118863D01*
X614969Y118757D01*
X614998Y118650D01*
X615023Y118542D01*
X615044Y118433D01*
X615061Y118323D01*
X615075Y118213D01*
X615084Y118103D01*
X615090Y117992D01*
X615092Y117881D01*
X611913Y121059D02*
X611788Y121057D01*
X611663Y121051D01*
X611538Y121042D01*
X611413Y121028D01*
X611289Y121011D01*
X611166Y120990D01*
X611043Y120965D01*
X610921Y120937D01*
X610800Y120904D01*
X610680Y120868D01*
X610561Y120829D01*
X610444Y120786D01*
X610328Y120739D01*
X610213Y120688D01*
X610100Y120634D01*
X609989Y120577D01*
X609879Y120516D01*
X609772Y120452D01*
X609666Y120385D01*
X609562Y120315D01*
X609461Y120241D01*
X609362Y120164D01*
X609266Y120084D01*
X609171Y120002D01*
X609080Y119916D01*
X608991Y119828D01*
X608905Y119737D01*
X608822Y119643D01*
X608741Y119547D01*
X608664Y119449D01*
X608590Y119348D01*
X608519Y119245D01*
X608451Y119140D01*
X608386Y119033D01*
X608324Y118924D01*
X608266Y118813D01*
X608212Y118700D01*
X608161Y118586D01*
X608113Y118470D01*
X608069Y118353D01*
X608029Y118234D01*
X614032Y115409D02*
X614114Y115490D01*
X614193Y115573D01*
X614269Y115659D01*
X614343Y115748D01*
X614413Y115839D01*
X614480Y115933D01*
X614545Y116028D01*
X614605Y116126D01*
X614663Y116226D01*
X614717Y116328D01*
X614768Y116431D01*
X614815Y116536D01*
X614859Y116643D01*
X614899Y116751D01*
X614935Y116860D01*
X614967Y116971D01*
X614996Y117082D01*
X615021Y117195D01*
X615043Y117308D01*
X615060Y117422D01*
X615074Y117536D01*
X615083Y117651D01*
X615089Y117766D01*
X615091Y117881D01*
X614032Y115409D02*
X608028Y108345D01*
X615091Y108345D01*
X621528Y111171D02*
X624353Y121059D01*
X621528Y111171D02*
X628591Y111171D01*
X626472Y113996D02*
X626472Y108345D01*
D11*
X542687Y155700D03*
X565887Y155700D03*
D12*
X542687Y155900D03*
X565887Y155900D03*
D13*
X542787Y156100D03*
X565787Y156100D03*
D14*
X542787Y156300D03*
X565787Y156300D03*
D15*
X542687Y156500D03*
D16*
X565787Y156500D03*
D17*
X542687Y156700D03*
X565887Y156700D03*
X542687Y156900D03*
D18*
X565787Y156900D03*
D19*
X542687Y157100D03*
D18*
X565787Y157100D03*
D19*
X542687Y157300D03*
D18*
X565787Y157300D03*
D19*
X542687Y157500D03*
X565887Y157500D03*
X542687Y157700D03*
X565887Y157700D03*
X542687Y157900D03*
X565887Y157900D03*
X542687Y158100D03*
X565887Y158100D03*
X542687Y158300D03*
X565887Y158300D03*
X542687Y158500D03*
X565887Y158500D03*
X542687Y158700D03*
X565887Y158700D03*
X542687Y158900D03*
X565887Y158900D03*
X542687Y159100D03*
X565887Y159100D03*
X542687Y159300D03*
X565887Y159300D03*
X542687Y159500D03*
X565887Y159500D03*
X542687Y159700D03*
X565887Y159700D03*
X542687Y159900D03*
X565887Y159900D03*
X542687Y160100D03*
X565887Y160100D03*
X542687Y160300D03*
X565887Y160300D03*
X542687Y160500D03*
X565887Y160500D03*
X542687Y160700D03*
X565887Y160700D03*
X542687Y160900D03*
X565887Y160900D03*
X542687Y161100D03*
X565887Y161100D03*
X542687Y161300D03*
X565887Y161300D03*
X542687Y161500D03*
X565887Y161500D03*
X542687Y161700D03*
X565887Y161700D03*
X542687Y161900D03*
X565887Y161900D03*
X542687Y162100D03*
X565887Y162100D03*
X542687Y162300D03*
X565887Y162300D03*
X542687Y162500D03*
X565887Y162500D03*
X542687Y162700D03*
X565887Y162700D03*
X542687Y162900D03*
X565887Y162900D03*
X542687Y163100D03*
X565887Y163100D03*
X542687Y163300D03*
X565887Y163300D03*
X542687Y163500D03*
X565887Y163500D03*
X542687Y163700D03*
X565887Y163700D03*
X542687Y163900D03*
X565887Y163900D03*
X542687Y164100D03*
X565887Y164100D03*
X542687Y164300D03*
X565887Y164300D03*
X542687Y164500D03*
X565887Y164500D03*
X542687Y164700D03*
X565887Y164700D03*
X542687Y164900D03*
X565887Y164900D03*
X542687Y165100D03*
X565887Y165100D03*
X542687Y165300D03*
X565887Y165300D03*
X542687Y165500D03*
X565887Y165500D03*
X542687Y165700D03*
X565887Y165700D03*
X542687Y165900D03*
X565887Y165900D03*
X542687Y166100D03*
X565887Y166100D03*
X542687Y166300D03*
X565887Y166300D03*
X542687Y166500D03*
X565887Y166500D03*
X542687Y166700D03*
X565887Y166700D03*
X542687Y166900D03*
X565887Y166900D03*
X542687Y167100D03*
X565887Y167100D03*
X542687Y167300D03*
X565887Y167300D03*
X542687Y167500D03*
X565887Y167500D03*
X542687Y167700D03*
X565887Y167700D03*
X542687Y167900D03*
X565887Y167900D03*
X542687Y168100D03*
X565887Y168100D03*
X542687Y168300D03*
X565887Y168300D03*
X542687Y168500D03*
X565887Y168500D03*
X542687Y168700D03*
X565887Y168700D03*
X542687Y168900D03*
X565887Y168900D03*
X542687Y169100D03*
X565887Y169100D03*
X542687Y169300D03*
X565887Y169300D03*
X542687Y169500D03*
X565887Y169500D03*
X542687Y169700D03*
X565887Y169700D03*
X542687Y169900D03*
X565887Y169900D03*
X542687Y170100D03*
X565887Y170100D03*
X542687Y170300D03*
X565887Y170300D03*
X542687Y170500D03*
X565887Y170500D03*
X542687Y170700D03*
X565887Y170700D03*
X542687Y170900D03*
X565887Y170900D03*
X542687Y171100D03*
X565887Y171100D03*
X542687Y171300D03*
X565887Y171300D03*
X542687Y171500D03*
X565887Y171500D03*
X542687Y171700D03*
X565887Y171700D03*
X542687Y171900D03*
X565887Y171900D03*
X542687Y172100D03*
X565887Y172100D03*
X542687Y172300D03*
X565887Y172300D03*
X542687Y172500D03*
X565887Y172500D03*
X542687Y172700D03*
X565887Y172700D03*
X542687Y172900D03*
X565887Y172900D03*
X542687Y173100D03*
X565887Y173100D03*
X542687Y173300D03*
D18*
X565787Y173300D03*
X542787Y173500D03*
X565787Y173500D03*
D17*
X542687Y173700D03*
X565887Y173700D03*
X542687Y173900D03*
D16*
X565787Y173900D03*
D15*
X542687Y174100D03*
X565887Y174100D03*
D20*
X542687Y174300D03*
X565887Y174300D03*
D21*
X542687Y174500D03*
X565887Y174500D03*
D22*
X542687Y174700D03*
X565887Y174700D03*
D23*
X542787Y178900D03*
X565787Y178900D03*
X588787Y178900D03*
D21*
X542687Y179100D03*
D24*
X565787Y179100D03*
X588787Y179100D03*
D20*
X542687Y179300D03*
X565887Y179300D03*
X588687Y179300D03*
D15*
X542687Y179500D03*
X565887Y179500D03*
X588687Y179500D03*
D16*
X542787Y179700D03*
X565787Y179700D03*
X588787Y179700D03*
D17*
X542687Y179900D03*
X565887Y179900D03*
X588687Y179900D03*
D18*
X542787Y180100D03*
X565787Y180100D03*
X588787Y180100D03*
D19*
X542687Y180300D03*
D18*
X565787Y180300D03*
X588787Y180300D03*
D19*
X542687Y180500D03*
X565887Y180500D03*
X588687Y180500D03*
X542687Y180700D03*
X565887Y180700D03*
X588687Y180700D03*
X542687Y180900D03*
X565887Y180900D03*
X588687Y180900D03*
X542687Y181100D03*
X565887Y181100D03*
X588687Y181100D03*
X542687Y181300D03*
X565887Y181300D03*
X588687Y181300D03*
X542687Y181500D03*
X565887Y181500D03*
X588687Y181500D03*
X542687Y181700D03*
X565887Y181700D03*
X588687Y181700D03*
X542687Y181900D03*
X565887Y181900D03*
X588687Y181900D03*
X542687Y182100D03*
X565887Y182100D03*
X588687Y182100D03*
X542687Y182300D03*
X565887Y182300D03*
X588687Y182300D03*
X542687Y182500D03*
X565887Y182500D03*
X588687Y182500D03*
X542687Y182700D03*
X565887Y182700D03*
X588687Y182700D03*
X542687Y182900D03*
X565887Y182900D03*
X588687Y182900D03*
X542687Y183100D03*
X565887Y183100D03*
X588687Y183100D03*
X542687Y183300D03*
X565887Y183300D03*
X588687Y183300D03*
X542687Y183500D03*
X565887Y183500D03*
X588687Y183500D03*
X542687Y183700D03*
X565887Y183700D03*
X588687Y183700D03*
X542687Y183900D03*
X565887Y183900D03*
X588687Y183900D03*
X542687Y184100D03*
X565887Y184100D03*
X588687Y184100D03*
X542687Y184300D03*
X565887Y184300D03*
X588687Y184300D03*
X542687Y184500D03*
X565887Y184500D03*
X588687Y184500D03*
X542687Y184700D03*
X565887Y184700D03*
X588687Y184700D03*
X542687Y184900D03*
X565887Y184900D03*
X542687Y185100D03*
X565887Y185100D03*
X588687Y185100D03*
X542687Y185300D03*
X565887Y185300D03*
X588687Y185300D03*
X542687Y185500D03*
X565887Y185500D03*
X588687Y185500D03*
X542687Y185700D03*
X565887Y185700D03*
X588687Y185700D03*
X542687Y185900D03*
X565887Y185900D03*
X588687Y185900D03*
X542687Y186100D03*
X565887Y186100D03*
X588687Y186100D03*
X542687Y186300D03*
X565887Y186300D03*
X588687Y186300D03*
X542687Y186500D03*
X565887Y186500D03*
X588687Y186500D03*
X542687Y186700D03*
X565887Y186700D03*
X588687Y186700D03*
X542687Y186900D03*
X565887Y186900D03*
X588687Y186900D03*
X542687Y187100D03*
X565887Y187100D03*
X588687Y187100D03*
X542687Y187300D03*
X565887Y187300D03*
X588687Y187300D03*
X542687Y187500D03*
X565887Y187500D03*
X588687Y187500D03*
X542687Y187700D03*
X565887Y187700D03*
X588687Y187700D03*
X542687Y187900D03*
X565887Y187900D03*
X588687Y187900D03*
X542687Y188100D03*
X565887Y188100D03*
X588687Y188100D03*
X542687Y188300D03*
X565887Y188300D03*
X588687Y188300D03*
X542687Y188500D03*
X565887Y188500D03*
X588687Y188500D03*
X542687Y188700D03*
X565887Y188700D03*
X588687Y188700D03*
X542687Y188900D03*
X565887Y188900D03*
X588687Y188900D03*
X542687Y189100D03*
X565887Y189100D03*
X588687Y189100D03*
X542687Y189300D03*
X565887Y189300D03*
X588687Y189300D03*
X542687Y189500D03*
X565887Y189500D03*
X588687Y189500D03*
X542687Y189700D03*
X565887Y189700D03*
X588687Y189700D03*
X542687Y189900D03*
X565887Y189900D03*
X588687Y189900D03*
X542687Y190100D03*
X588687Y190100D03*
X542687Y190300D03*
X565887Y190300D03*
X588687Y190300D03*
X542687Y190500D03*
X565887Y190500D03*
X588687Y190500D03*
X542687Y190700D03*
X565887Y190700D03*
X588687Y190700D03*
X542687Y190900D03*
X565887Y190900D03*
X588687Y190900D03*
X542687Y191100D03*
X565887Y191100D03*
X588687Y191100D03*
X542687Y191300D03*
X565887Y191300D03*
X588687Y191300D03*
X542687Y191500D03*
X565887Y191500D03*
X588687Y191500D03*
X542687Y191700D03*
X565887Y191700D03*
X588687Y191700D03*
X542687Y191900D03*
X565887Y191900D03*
X588687Y191900D03*
X542687Y192100D03*
X565887Y192100D03*
X588687Y192100D03*
X542687Y192300D03*
X565887Y192300D03*
X588687Y192300D03*
X542687Y192500D03*
X565887Y192500D03*
X588687Y192500D03*
X542687Y192700D03*
X565887Y192700D03*
X588687Y192700D03*
X542687Y192900D03*
X565887Y192900D03*
X588687Y192900D03*
X542687Y193100D03*
X565887Y193100D03*
X588687Y193100D03*
X542687Y193300D03*
X565887Y193300D03*
X588687Y193300D03*
X542687Y193500D03*
X565887Y193500D03*
X588687Y193500D03*
X542687Y193700D03*
X565887Y193700D03*
X588687Y193700D03*
X542687Y193900D03*
X565887Y193900D03*
X588687Y193900D03*
X542687Y194100D03*
X565887Y194100D03*
X588687Y194100D03*
X542687Y194300D03*
X565887Y194300D03*
X588687Y194300D03*
X542687Y194500D03*
X565887Y194500D03*
X588687Y194500D03*
X542687Y194700D03*
X565887Y194700D03*
X588687Y194700D03*
X542687Y194900D03*
X565887Y194900D03*
X588687Y194900D03*
X542687Y195100D03*
X565887Y195100D03*
X588687Y195100D03*
X542687Y195300D03*
X565887Y195300D03*
X588687Y195300D03*
X542687Y195500D03*
X565887Y195500D03*
X588687Y195500D03*
X542687Y195700D03*
X565887Y195700D03*
X588687Y195700D03*
X542687Y195900D03*
X565887Y195900D03*
X588687Y195900D03*
X542687Y196100D03*
X565887Y196100D03*
X588687Y196100D03*
X542687Y196300D03*
D18*
X588787Y196300D03*
D19*
X542687Y196500D03*
D18*
X565787Y196500D03*
X588787Y196500D03*
D17*
X542687Y196700D03*
D18*
X565787Y196700D03*
X588787Y196700D03*
D17*
X542687Y196900D03*
X565887Y196900D03*
X588687Y196900D03*
D15*
X542687Y197100D03*
D16*
X565787Y197100D03*
X588787Y197100D03*
D15*
X542687Y197300D03*
D14*
X565787Y197300D03*
X588787Y197300D03*
D20*
X542687Y197500D03*
D13*
X565787Y197500D03*
X588787Y197500D03*
D12*
X542687Y197700D03*
D24*
X565787Y197700D03*
X588787Y197700D03*
D25*
X542787Y197900D03*
X565787Y197900D03*
X588787Y197900D03*
D26*
X565887Y201900D03*
D12*
X542687Y202100D03*
D27*
X565787Y202100D03*
D21*
X542687Y202300D03*
D13*
X565787Y202300D03*
D20*
X542687Y202500D03*
D14*
X565787Y202500D03*
D15*
X542687Y202700D03*
D16*
X565787Y202700D03*
D17*
X542687Y202900D03*
D16*
X565787Y202900D03*
D17*
X542687Y203100D03*
D18*
X565787Y203100D03*
X542787Y203300D03*
X565787Y203300D03*
D19*
X542687Y203500D03*
D18*
X565787Y203500D03*
D19*
X542687Y203700D03*
X565887Y203700D03*
X542687Y203900D03*
X565887Y203900D03*
X565887Y204100D03*
X542687Y204300D03*
X565887Y204300D03*
X542687Y204500D03*
X565887Y204500D03*
X542687Y204700D03*
X565887Y204700D03*
X542687Y204900D03*
X565887Y204900D03*
X542687Y205100D03*
X565887Y205100D03*
X542687Y205300D03*
X565887Y205300D03*
X542687Y205500D03*
X565887Y205500D03*
X542687Y205700D03*
X565887Y205700D03*
X542687Y205900D03*
X565887Y205900D03*
X542687Y206100D03*
X565887Y206100D03*
X542687Y206300D03*
X568173Y178868D03*
X542687Y206500D03*
X565887Y206500D03*
X542687Y206700D03*
X565887Y206700D03*
X542687Y206900D03*
X565887Y206900D03*
X542687Y207100D03*
X565887Y207100D03*
X542687Y207300D03*
X565887Y207300D03*
X542687Y207500D03*
X565887Y207500D03*
X542687Y207700D03*
X565887Y207700D03*
X542687Y207900D03*
X565887Y207900D03*
X542687Y208100D03*
X565887Y208100D03*
X542687Y208300D03*
X565887Y208300D03*
X542687Y208500D03*
X565887Y208500D03*
X542687Y208700D03*
X565887Y208700D03*
X542687Y208900D03*
X565887Y208900D03*
X542687Y209100D03*
X565887Y209100D03*
X542687Y209300D03*
X565887Y209300D03*
X542687Y209500D03*
X565887Y209500D03*
X542687Y209700D03*
X565887Y209700D03*
X542687Y209900D03*
X565887Y209900D03*
X542687Y210100D03*
X565887Y210100D03*
X542687Y210300D03*
X565887Y210300D03*
X542687Y210500D03*
X565887Y210500D03*
X542687Y210700D03*
X565887Y210700D03*
X542687Y210900D03*
X565887Y210900D03*
X542687Y211100D03*
X565887Y211100D03*
X542687Y211300D03*
X565887Y211300D03*
X542687Y211500D03*
X565887Y211500D03*
X542687Y211700D03*
X565887Y211700D03*
X542687Y211900D03*
X565887Y211900D03*
X542687Y212100D03*
X565887Y212100D03*
X542687Y212300D03*
X565887Y212300D03*
X542687Y212500D03*
X565887Y212500D03*
X542687Y212700D03*
X565887Y212700D03*
X542687Y212900D03*
X565887Y212900D03*
X542687Y213100D03*
X565887Y213100D03*
X542687Y213300D03*
X565887Y213300D03*
X542687Y213500D03*
X565887Y213500D03*
X542687Y213700D03*
X565887Y213700D03*
X542687Y213900D03*
X565887Y213900D03*
X542687Y214100D03*
X565887Y214100D03*
X542687Y214300D03*
X565887Y214300D03*
X542687Y214500D03*
X565887Y214500D03*
X542687Y214700D03*
X565887Y214700D03*
X542687Y214900D03*
X565887Y214900D03*
X542687Y215100D03*
X565887Y215100D03*
X542687Y215300D03*
X565887Y215300D03*
X542687Y215500D03*
X565887Y215500D03*
X542687Y215700D03*
X565887Y215700D03*
X542687Y215900D03*
X565887Y215900D03*
X542687Y216100D03*
X565887Y216100D03*
X542687Y216300D03*
X565887Y216300D03*
X542687Y216500D03*
X565887Y216500D03*
X542687Y216700D03*
X565887Y216700D03*
X542687Y216900D03*
X565887Y216900D03*
X542687Y217100D03*
X565887Y217100D03*
X542687Y217300D03*
X542687Y217500D03*
X565887Y217500D03*
X542687Y217700D03*
X565887Y217700D03*
X542687Y217900D03*
X565887Y217900D03*
X542687Y218100D03*
X565887Y218100D03*
X542687Y218300D03*
X565887Y218300D03*
X542687Y218500D03*
X565887Y218500D03*
X542687Y218700D03*
X565887Y218700D03*
X542687Y218900D03*
X565887Y218900D03*
X542687Y219100D03*
X565887Y219100D03*
X542687Y219300D03*
X565887Y219300D03*
X542687Y219500D03*
D18*
X565787Y219500D03*
X542787Y219700D03*
X565787Y219700D03*
D17*
X542687Y219900D03*
D18*
X565787Y219900D03*
D17*
X542687Y220100D03*
D16*
X565787Y220100D03*
D15*
X542687Y220300D03*
X565887Y220300D03*
D20*
X542687Y220500D03*
D14*
X565787Y220500D03*
D21*
X542687Y220700D03*
X565887Y220700D03*
D22*
X542687Y220900D03*
D27*
X565787Y220900D03*
D28*
X542787Y223900D03*
D29*
X542687Y224100D03*
D30*
X542787Y224300D03*
D31*
X542787Y224500D03*
D32*
X542687Y224700D03*
D33*
X542687Y224900D03*
D25*
X565787Y224900D03*
X588787Y224900D03*
D34*
X542687Y225100D03*
D24*
X565787Y225100D03*
X588787Y225100D03*
D35*
X542687Y225300D03*
D13*
X565787Y225300D03*
X588787Y225300D03*
D36*
X542787Y225500D03*
D14*
X565787Y225500D03*
X588787Y225500D03*
D37*
X542687Y225700D03*
D16*
X565787Y225700D03*
X588787Y225700D03*
D38*
X542787Y225900D03*
D17*
X565887Y225900D03*
X588687Y225900D03*
D39*
X542687Y226100D03*
D18*
X565787Y226100D03*
X588787Y226100D03*
D40*
X542687Y226300D03*
D18*
X565787Y226300D03*
X588787Y226300D03*
D41*
X542687Y226500D03*
D19*
X565887Y226500D03*
D18*
X588787Y226500D03*
D42*
X542687Y226700D03*
D19*
X565887Y226700D03*
X588687Y226700D03*
D43*
X542687Y226900D03*
D19*
X565887Y226900D03*
X588687Y226900D03*
D44*
X542687Y227100D03*
D19*
X565887Y227100D03*
X588687Y227100D03*
D26*
X542687Y227300D03*
D19*
X565887Y227300D03*
X588687Y227300D03*
D11*
X542687Y227500D03*
D19*
X565887Y227500D03*
X588687Y227500D03*
D45*
X542687Y227700D03*
D19*
X565887Y227700D03*
X588687Y227700D03*
D22*
X542687Y227900D03*
D19*
X565887Y227900D03*
X588687Y227900D03*
D27*
X542787Y228100D03*
D19*
X565887Y228100D03*
X588687Y228100D03*
D12*
X542687Y228300D03*
D19*
X565887Y228300D03*
X588687Y228300D03*
D21*
X542687Y228500D03*
D19*
X565887Y228500D03*
X588687Y228500D03*
D13*
X542787Y228700D03*
D19*
X565887Y228700D03*
X588687Y228700D03*
D20*
X542687Y228900D03*
D19*
X565887Y228900D03*
X588687Y228900D03*
D15*
X542687Y229100D03*
D19*
X565887Y229100D03*
X588687Y229100D03*
D15*
X542687Y229300D03*
D19*
X565887Y229300D03*
X588687Y229300D03*
D17*
X542687Y229500D03*
D19*
X565887Y229500D03*
X588687Y229500D03*
D18*
X542787Y229700D03*
D19*
X565887Y229700D03*
X588687Y229700D03*
X542687Y229900D03*
X565887Y229900D03*
X588687Y229900D03*
X542687Y230100D03*
X565887Y230100D03*
X588687Y230100D03*
D46*
X542687Y230300D03*
D19*
X565887Y230300D03*
X588687Y230300D03*
D46*
X542687Y230500D03*
D19*
X565887Y230500D03*
X588687Y230500D03*
D47*
X542687Y230700D03*
D19*
X565887Y230700D03*
X588687Y230700D03*
D47*
X542687Y230900D03*
D19*
X565887Y230900D03*
X588687Y230900D03*
D47*
X542687Y231100D03*
D19*
X565887Y231100D03*
X588687Y231100D03*
D48*
X542687Y231300D03*
D19*
X565887Y231300D03*
X588687Y231300D03*
D48*
X542687Y231500D03*
D19*
X565887Y231500D03*
X588687Y231500D03*
D48*
X542687Y231700D03*
D19*
X565887Y231700D03*
X588687Y231700D03*
D49*
X542787Y231900D03*
D19*
X565887Y231900D03*
X588687Y231900D03*
D50*
X542687Y232100D03*
D19*
X565887Y232100D03*
X588687Y232100D03*
D50*
X542687Y232300D03*
D19*
X565887Y232300D03*
X588687Y232300D03*
D50*
X542687Y232500D03*
D19*
X565887Y232500D03*
X588687Y232500D03*
D50*
X542687Y232700D03*
D19*
X565887Y232700D03*
X588687Y232700D03*
D51*
X542787Y232900D03*
D19*
X565887Y232900D03*
X588687Y232900D03*
D52*
X542687Y233100D03*
D19*
X565887Y233100D03*
X588687Y233100D03*
D52*
X542687Y233300D03*
D19*
X565887Y233300D03*
X588687Y233300D03*
D52*
X542687Y233500D03*
D19*
X565887Y233500D03*
X588687Y233500D03*
D52*
X542687Y233700D03*
D19*
X565887Y233700D03*
X588687Y233700D03*
D52*
X542687Y233900D03*
D19*
X565887Y233900D03*
X588687Y233900D03*
D52*
X542687Y234100D03*
D19*
X565887Y234100D03*
X588687Y234100D03*
D52*
X542687Y234300D03*
D19*
X565887Y234300D03*
X588687Y234300D03*
D52*
X542687Y234500D03*
D19*
X565887Y234500D03*
X588687Y234500D03*
D52*
X542687Y234700D03*
D19*
X565887Y234700D03*
X588687Y234700D03*
D52*
X542687Y234900D03*
D19*
X565887Y234900D03*
X588687Y234900D03*
D52*
X542687Y235100D03*
D19*
X565887Y235100D03*
X588687Y235100D03*
D52*
X542687Y235300D03*
D19*
X565887Y235300D03*
X588687Y235300D03*
D52*
X542687Y235500D03*
D19*
X565887Y235500D03*
X588687Y235500D03*
D52*
X542687Y235700D03*
D19*
X565887Y235700D03*
X588687Y235700D03*
D51*
X542787Y235900D03*
D19*
X565887Y235900D03*
X588687Y235900D03*
D50*
X542687Y236100D03*
D19*
X565887Y236100D03*
X588687Y236100D03*
D50*
X542687Y236300D03*
D19*
X565887Y236300D03*
X588687Y236300D03*
D50*
X542687Y236500D03*
D19*
X565887Y236500D03*
X588687Y236500D03*
D50*
X542687Y236700D03*
D19*
X565887Y236700D03*
X588687Y236700D03*
D49*
X542787Y236900D03*
D19*
X565887Y236900D03*
X588687Y236900D03*
D48*
X542687Y237100D03*
D19*
X565887Y237100D03*
X588687Y237100D03*
D48*
X542687Y237300D03*
D19*
X565887Y237300D03*
X588687Y237300D03*
D48*
X542687Y237500D03*
D19*
X565887Y237500D03*
X588687Y237500D03*
D47*
X542687Y237700D03*
D19*
X565887Y237700D03*
X588687Y237700D03*
D47*
X542687Y237900D03*
D19*
X565887Y237900D03*
X588687Y237900D03*
X565887Y238100D03*
X588687Y238100D03*
D46*
X542687Y238300D03*
D19*
X565887Y238300D03*
X588687Y238300D03*
D46*
X542687Y238500D03*
D19*
X565887Y238500D03*
X588687Y238500D03*
D53*
X542787Y238700D03*
D19*
X565887Y238700D03*
X588687Y238700D03*
X542687Y238900D03*
X565887Y238900D03*
X588687Y238900D03*
D18*
X542787Y239100D03*
D19*
X565887Y239100D03*
X588687Y239100D03*
D17*
X542687Y239300D03*
D19*
X565887Y239300D03*
X588687Y239300D03*
D16*
X542787Y239500D03*
D19*
X565887Y239500D03*
X588687Y239500D03*
D15*
X542687Y239700D03*
D19*
X565887Y239700D03*
X588687Y239700D03*
D20*
X542687Y239900D03*
D19*
X565887Y239900D03*
X588687Y239900D03*
D20*
X542687Y240100D03*
D19*
X565887Y240100D03*
X588687Y240100D03*
D21*
X542687Y240300D03*
D19*
X565887Y240300D03*
X588687Y240300D03*
D24*
X542787Y240500D03*
D19*
X565887Y240500D03*
X588687Y240500D03*
D12*
X542687Y240700D03*
D19*
X565887Y240700D03*
X588687Y240700D03*
D22*
X542687Y240900D03*
D19*
X565887Y240900D03*
X588687Y240900D03*
D45*
X542687Y241100D03*
D19*
X565887Y241100D03*
X588687Y241100D03*
D11*
X542687Y241300D03*
D19*
X565887Y241300D03*
X588687Y241300D03*
D54*
X542787Y241500D03*
D19*
X565887Y241500D03*
X588687Y241500D03*
D55*
X542787Y241700D03*
D19*
X565887Y241700D03*
X588687Y241700D03*
D56*
X542787Y241900D03*
D19*
X565887Y241900D03*
X588687Y241900D03*
D57*
X542787Y242100D03*
D19*
X565887Y242100D03*
X588687Y242100D03*
D58*
X542787Y242300D03*
D19*
X565887Y242300D03*
D18*
X588787Y242300D03*
D40*
X542687Y242500D03*
D18*
X565787Y242500D03*
X588787Y242500D03*
D39*
X542687Y242700D03*
D18*
X565787Y242700D03*
X588787Y242700D03*
D59*
X542687Y242900D03*
D17*
X565887Y242900D03*
X588687Y242900D03*
D60*
X542787Y243100D03*
D16*
X565787Y243100D03*
X588787Y243100D03*
D61*
X542687Y243300D03*
D15*
X565887Y243300D03*
D14*
X588787Y243300D03*
D35*
X542687Y243500D03*
D20*
X565887Y243500D03*
X588687Y243500D03*
D62*
X542687Y243700D03*
D24*
X565787Y243700D03*
X588787Y243700D03*
D63*
X542687Y243900D03*
D23*
X565787Y243900D03*
X588787Y243900D03*
D64*
X542687Y244100D03*
D19*
X565887Y217300D03*
D47*
X542687Y238100D03*
D65*
X859400Y93200D02*
X859400Y13200D01*
X939400Y13200D01*
X939400Y93200D01*
X859400Y93200D01*
X889400Y53200D02*
X889403Y53445D01*
X889412Y53691D01*
X889427Y53936D01*
X889448Y54180D01*
X889475Y54424D01*
X889508Y54667D01*
X889547Y54910D01*
X889592Y55151D01*
X889643Y55391D01*
X889700Y55630D01*
X889762Y55867D01*
X889831Y56103D01*
X889905Y56337D01*
X889985Y56569D01*
X890070Y56799D01*
X890161Y57027D01*
X890258Y57252D01*
X890360Y57476D01*
X890468Y57696D01*
X890581Y57914D01*
X890699Y58129D01*
X890823Y58341D01*
X890951Y58550D01*
X891085Y58756D01*
X891224Y58958D01*
X891368Y59157D01*
X891517Y59352D01*
X891670Y59544D01*
X891828Y59732D01*
X891990Y59916D01*
X892158Y60095D01*
X892329Y60271D01*
X892505Y60442D01*
X892684Y60610D01*
X892868Y60772D01*
X893056Y60930D01*
X893248Y61083D01*
X893443Y61232D01*
X893642Y61376D01*
X893844Y61515D01*
X894050Y61649D01*
X894259Y61777D01*
X894471Y61901D01*
X894686Y62019D01*
X894904Y62132D01*
X895124Y62240D01*
X895348Y62342D01*
X895573Y62439D01*
X895801Y62530D01*
X896031Y62615D01*
X896263Y62695D01*
X896497Y62769D01*
X896733Y62838D01*
X896970Y62900D01*
X897209Y62957D01*
X897449Y63008D01*
X897690Y63053D01*
X897933Y63092D01*
X898176Y63125D01*
X898420Y63152D01*
X898664Y63173D01*
X898909Y63188D01*
X899155Y63197D01*
X899400Y63200D01*
X899645Y63197D01*
X899891Y63188D01*
X900136Y63173D01*
X900380Y63152D01*
X900624Y63125D01*
X900867Y63092D01*
X901110Y63053D01*
X901351Y63008D01*
X901591Y62957D01*
X901830Y62900D01*
X902067Y62838D01*
X902303Y62769D01*
X902537Y62695D01*
X902769Y62615D01*
X902999Y62530D01*
X903227Y62439D01*
X903452Y62342D01*
X903676Y62240D01*
X903896Y62132D01*
X904114Y62019D01*
X904329Y61901D01*
X904541Y61777D01*
X904750Y61649D01*
X904956Y61515D01*
X905158Y61376D01*
X905357Y61232D01*
X905552Y61083D01*
X905744Y60930D01*
X905932Y60772D01*
X906116Y60610D01*
X906295Y60442D01*
X906471Y60271D01*
X906642Y60095D01*
X906810Y59916D01*
X906972Y59732D01*
X907130Y59544D01*
X907283Y59352D01*
X907432Y59157D01*
X907576Y58958D01*
X907715Y58756D01*
X907849Y58550D01*
X907977Y58341D01*
X908101Y58129D01*
X908219Y57914D01*
X908332Y57696D01*
X908440Y57476D01*
X908542Y57252D01*
X908639Y57027D01*
X908730Y56799D01*
X908815Y56569D01*
X908895Y56337D01*
X908969Y56103D01*
X909038Y55867D01*
X909100Y55630D01*
X909157Y55391D01*
X909208Y55151D01*
X909253Y54910D01*
X909292Y54667D01*
X909325Y54424D01*
X909352Y54180D01*
X909373Y53936D01*
X909388Y53691D01*
X909397Y53445D01*
X909400Y53200D01*
X909397Y52955D01*
X909388Y52709D01*
X909373Y52464D01*
X909352Y52220D01*
X909325Y51976D01*
X909292Y51733D01*
X909253Y51490D01*
X909208Y51249D01*
X909157Y51009D01*
X909100Y50770D01*
X909038Y50533D01*
X908969Y50297D01*
X908895Y50063D01*
X908815Y49831D01*
X908730Y49601D01*
X908639Y49373D01*
X908542Y49148D01*
X908440Y48924D01*
X908332Y48704D01*
X908219Y48486D01*
X908101Y48271D01*
X907977Y48059D01*
X907849Y47850D01*
X907715Y47644D01*
X907576Y47442D01*
X907432Y47243D01*
X907283Y47048D01*
X907130Y46856D01*
X906972Y46668D01*
X906810Y46484D01*
X906642Y46305D01*
X906471Y46129D01*
X906295Y45958D01*
X906116Y45790D01*
X905932Y45628D01*
X905744Y45470D01*
X905552Y45317D01*
X905357Y45168D01*
X905158Y45024D01*
X904956Y44885D01*
X904750Y44751D01*
X904541Y44623D01*
X904329Y44499D01*
X904114Y44381D01*
X903896Y44268D01*
X903676Y44160D01*
X903452Y44058D01*
X903227Y43961D01*
X902999Y43870D01*
X902769Y43785D01*
X902537Y43705D01*
X902303Y43631D01*
X902067Y43562D01*
X901830Y43500D01*
X901591Y43443D01*
X901351Y43392D01*
X901110Y43347D01*
X900867Y43308D01*
X900624Y43275D01*
X900380Y43248D01*
X900136Y43227D01*
X899891Y43212D01*
X899645Y43203D01*
X899400Y43200D01*
X899155Y43203D01*
X898909Y43212D01*
X898664Y43227D01*
X898420Y43248D01*
X898176Y43275D01*
X897933Y43308D01*
X897690Y43347D01*
X897449Y43392D01*
X897209Y43443D01*
X896970Y43500D01*
X896733Y43562D01*
X896497Y43631D01*
X896263Y43705D01*
X896031Y43785D01*
X895801Y43870D01*
X895573Y43961D01*
X895348Y44058D01*
X895124Y44160D01*
X894904Y44268D01*
X894686Y44381D01*
X894471Y44499D01*
X894259Y44623D01*
X894050Y44751D01*
X893844Y44885D01*
X893642Y45024D01*
X893443Y45168D01*
X893248Y45317D01*
X893056Y45470D01*
X892868Y45628D01*
X892684Y45790D01*
X892505Y45958D01*
X892329Y46129D01*
X892158Y46305D01*
X891990Y46484D01*
X891828Y46668D01*
X891670Y46856D01*
X891517Y47048D01*
X891368Y47243D01*
X891224Y47442D01*
X891085Y47644D01*
X890951Y47850D01*
X890823Y48059D01*
X890699Y48271D01*
X890581Y48486D01*
X890468Y48704D01*
X890360Y48924D01*
X890258Y49148D01*
X890161Y49373D01*
X890070Y49601D01*
X889985Y49831D01*
X889905Y50063D01*
X889831Y50297D01*
X889762Y50533D01*
X889700Y50770D01*
X889643Y51009D01*
X889592Y51249D01*
X889547Y51490D01*
X889508Y51733D01*
X889475Y51976D01*
X889448Y52220D01*
X889427Y52464D01*
X889412Y52709D01*
X889403Y52955D01*
X889400Y53200D01*
X885900Y92100D02*
X885904Y91791D01*
X885915Y91482D01*
X885934Y91173D01*
X885960Y90865D01*
X885994Y90557D01*
X886035Y90251D01*
X886084Y89945D01*
X886140Y89641D01*
X886204Y89339D01*
X886275Y89038D01*
X886353Y88738D01*
X886438Y88441D01*
X886531Y88146D01*
X886631Y87853D01*
X886738Y87563D01*
X886852Y87276D01*
X886973Y86991D01*
X887101Y86709D01*
X887235Y86431D01*
X887377Y86156D01*
X887525Y85884D01*
X887680Y85617D01*
X887841Y85353D01*
X888008Y85093D01*
X888182Y84837D01*
X888362Y84585D01*
X888548Y84338D01*
X888740Y84096D01*
X888938Y83858D01*
X889141Y83625D01*
X889351Y83397D01*
X889565Y83175D01*
X889785Y82957D01*
X890011Y82745D01*
X890241Y82539D01*
X890476Y82338D01*
X890716Y82143D01*
X890961Y81954D01*
X891210Y81771D01*
X891464Y81594D01*
X891722Y81424D01*
X891984Y81259D01*
X892250Y81101D01*
X892520Y80950D01*
X892793Y80805D01*
X893070Y80667D01*
X893350Y80536D01*
X893633Y80412D01*
X893919Y80294D01*
X894208Y80184D01*
X894499Y80080D01*
X894793Y79984D01*
X895089Y79895D01*
X895388Y79813D01*
X895688Y79738D01*
X895990Y79671D01*
X896293Y79611D01*
X896598Y79559D01*
X896904Y79514D01*
X897211Y79476D01*
X897519Y79446D01*
X897827Y79424D01*
X898136Y79408D01*
X898445Y79401D01*
X898755Y79401D01*
X899064Y79408D01*
X899373Y79424D01*
X899681Y79446D01*
X899989Y79476D01*
X900296Y79514D01*
X900602Y79559D01*
X900907Y79611D01*
X901210Y79671D01*
X901512Y79738D01*
X901812Y79813D01*
X902111Y79895D01*
X902407Y79984D01*
X902701Y80080D01*
X902992Y80184D01*
X903281Y80294D01*
X903567Y80412D01*
X903850Y80536D01*
X904130Y80667D01*
X904407Y80805D01*
X904680Y80950D01*
X904950Y81101D01*
X905216Y81259D01*
X905478Y81424D01*
X905736Y81594D01*
X905990Y81771D01*
X906239Y81954D01*
X906484Y82143D01*
X906724Y82338D01*
X906959Y82539D01*
X907189Y82745D01*
X907415Y82957D01*
X907635Y83175D01*
X907849Y83397D01*
X908059Y83625D01*
X908262Y83858D01*
X908460Y84096D01*
X908652Y84338D01*
X908838Y84585D01*
X909018Y84837D01*
X909192Y85093D01*
X909359Y85353D01*
X909520Y85617D01*
X909675Y85884D01*
X909823Y86156D01*
X909965Y86431D01*
X910099Y86709D01*
X910227Y86991D01*
X910348Y87276D01*
X910462Y87563D01*
X910569Y87853D01*
X910669Y88146D01*
X910762Y88441D01*
X910847Y88738D01*
X910925Y89038D01*
X910996Y89339D01*
X911060Y89641D01*
X911116Y89945D01*
X911165Y90251D01*
X911206Y90557D01*
X911240Y90865D01*
X911266Y91173D01*
X911285Y91482D01*
X911296Y91791D01*
X911300Y92100D01*
D66*
X370000Y381500D02*
X370000Y409500D01*
X398000Y409500D01*
X398000Y381500D01*
X370000Y381500D01*
X389000Y387500D02*
X389002Y387392D01*
X389008Y387284D01*
X389018Y387176D01*
X389031Y387068D01*
X389049Y386961D01*
X389070Y386855D01*
X389095Y386750D01*
X389124Y386645D01*
X389157Y386542D01*
X389193Y386440D01*
X389234Y386339D01*
X389277Y386240D01*
X389325Y386143D01*
X389375Y386047D01*
X389429Y385953D01*
X389487Y385862D01*
X389548Y385772D01*
X389612Y385684D01*
X389679Y385599D01*
X389749Y385517D01*
X389822Y385437D01*
X389898Y385360D01*
X389977Y385285D01*
X390058Y385214D01*
X390142Y385145D01*
X390228Y385079D01*
X390316Y385017D01*
X390407Y384958D01*
X390500Y384902D01*
X390595Y384849D01*
X390691Y384800D01*
X390790Y384755D01*
X390890Y384713D01*
X390991Y384675D01*
X391094Y384640D01*
X391197Y384609D01*
X391302Y384582D01*
X391408Y384559D01*
X391515Y384540D01*
X391622Y384524D01*
X391730Y384512D01*
X391838Y384504D01*
X391946Y384500D01*
X392054Y384500D01*
X392162Y384504D01*
X392270Y384512D01*
X392378Y384524D01*
X392485Y384540D01*
X392592Y384559D01*
X392698Y384582D01*
X392803Y384609D01*
X392906Y384640D01*
X393009Y384675D01*
X393110Y384713D01*
X393210Y384755D01*
X393309Y384800D01*
X393405Y384849D01*
X393500Y384902D01*
X393593Y384958D01*
X393684Y385017D01*
X393772Y385079D01*
X393858Y385145D01*
X393942Y385214D01*
X394023Y385285D01*
X394102Y385360D01*
X394178Y385437D01*
X394251Y385517D01*
X394321Y385599D01*
X394388Y385684D01*
X394452Y385772D01*
X394513Y385862D01*
X394571Y385953D01*
X394625Y386047D01*
X394675Y386143D01*
X394723Y386240D01*
X394766Y386339D01*
X394807Y386440D01*
X394843Y386542D01*
X394876Y386645D01*
X394905Y386750D01*
X394930Y386855D01*
X394951Y386961D01*
X394969Y387068D01*
X394982Y387176D01*
X394992Y387284D01*
X394998Y387392D01*
X395000Y387500D01*
X389000Y387500D01*
D67*
X387375Y377466D02*
X385513Y371878D01*
X389238Y371878D02*
X387375Y377466D01*
X388772Y373275D02*
X385978Y373275D01*
X391071Y371257D02*
X393555Y378087D01*
X395882Y377466D02*
X395882Y371878D01*
X395882Y377466D02*
X397434Y377466D01*
X397510Y377464D01*
X397586Y377459D01*
X397662Y377449D01*
X397737Y377436D01*
X397811Y377419D01*
X397885Y377399D01*
X397957Y377375D01*
X398028Y377348D01*
X398098Y377317D01*
X398166Y377283D01*
X398232Y377245D01*
X398296Y377204D01*
X398359Y377161D01*
X398419Y377114D01*
X398476Y377064D01*
X398531Y377011D01*
X398584Y376956D01*
X398634Y376899D01*
X398681Y376839D01*
X398724Y376776D01*
X398765Y376712D01*
X398803Y376646D01*
X398837Y376578D01*
X398868Y376508D01*
X398895Y376437D01*
X398919Y376364D01*
X398939Y376291D01*
X398956Y376217D01*
X398969Y376142D01*
X398979Y376066D01*
X398984Y375990D01*
X398986Y375914D01*
X398986Y373430D01*
X398984Y373351D01*
X398978Y373273D01*
X398968Y373195D01*
X398954Y373118D01*
X398936Y373041D01*
X398915Y372965D01*
X398889Y372891D01*
X398860Y372818D01*
X398827Y372747D01*
X398791Y372677D01*
X398751Y372609D01*
X398708Y372543D01*
X398661Y372480D01*
X398612Y372419D01*
X398559Y372361D01*
X398503Y372305D01*
X398445Y372252D01*
X398384Y372203D01*
X398321Y372156D01*
X398255Y372113D01*
X398187Y372073D01*
X398118Y372037D01*
X398046Y372004D01*
X397973Y371975D01*
X397899Y371949D01*
X397823Y371928D01*
X397746Y371910D01*
X397669Y371896D01*
X397591Y371886D01*
X397513Y371880D01*
X397434Y371878D01*
X395882Y371878D01*
D65*
X287000Y347500D02*
X287000Y329500D01*
X287000Y347500D02*
X323000Y347500D01*
X323000Y329500D01*
X287000Y329500D01*
D67*
X301316Y320294D02*
X302558Y320294D01*
X301316Y320294D02*
X301246Y320296D01*
X301177Y320302D01*
X301108Y320312D01*
X301040Y320325D01*
X300972Y320343D01*
X300906Y320364D01*
X300841Y320389D01*
X300777Y320417D01*
X300715Y320449D01*
X300655Y320484D01*
X300597Y320523D01*
X300542Y320565D01*
X300488Y320610D01*
X300438Y320658D01*
X300390Y320708D01*
X300345Y320762D01*
X300303Y320817D01*
X300264Y320875D01*
X300229Y320935D01*
X300197Y320997D01*
X300169Y321061D01*
X300144Y321126D01*
X300123Y321192D01*
X300105Y321260D01*
X300092Y321328D01*
X300082Y321397D01*
X300076Y321466D01*
X300074Y321536D01*
X300074Y324640D01*
X300076Y324710D01*
X300082Y324779D01*
X300092Y324848D01*
X300105Y324916D01*
X300123Y324984D01*
X300144Y325050D01*
X300169Y325115D01*
X300197Y325179D01*
X300229Y325241D01*
X300264Y325301D01*
X300303Y325359D01*
X300345Y325414D01*
X300390Y325468D01*
X300438Y325518D01*
X300488Y325566D01*
X300542Y325611D01*
X300597Y325653D01*
X300655Y325692D01*
X300715Y325727D01*
X300777Y325759D01*
X300841Y325787D01*
X300906Y325812D01*
X300972Y325833D01*
X301040Y325851D01*
X301108Y325864D01*
X301177Y325874D01*
X301246Y325880D01*
X301316Y325882D01*
X302558Y325882D01*
X304662Y321846D02*
X304664Y321923D01*
X304670Y322001D01*
X304679Y322077D01*
X304693Y322154D01*
X304710Y322229D01*
X304731Y322303D01*
X304756Y322377D01*
X304784Y322449D01*
X304816Y322519D01*
X304851Y322588D01*
X304890Y322655D01*
X304932Y322720D01*
X304977Y322783D01*
X305025Y322844D01*
X305076Y322902D01*
X305130Y322957D01*
X305187Y323010D01*
X305246Y323059D01*
X305308Y323106D01*
X305372Y323150D01*
X305438Y323190D01*
X305506Y323227D01*
X305576Y323261D01*
X305647Y323291D01*
X305720Y323317D01*
X305794Y323340D01*
X305869Y323359D01*
X305944Y323374D01*
X306021Y323386D01*
X306098Y323394D01*
X306175Y323398D01*
X306253Y323398D01*
X306330Y323394D01*
X306407Y323386D01*
X306484Y323374D01*
X306559Y323359D01*
X306634Y323340D01*
X306708Y323317D01*
X306781Y323291D01*
X306852Y323261D01*
X306922Y323227D01*
X306990Y323190D01*
X307056Y323150D01*
X307120Y323106D01*
X307182Y323059D01*
X307241Y323010D01*
X307298Y322957D01*
X307352Y322902D01*
X307403Y322844D01*
X307451Y322783D01*
X307496Y322720D01*
X307538Y322655D01*
X307577Y322588D01*
X307612Y322519D01*
X307644Y322449D01*
X307672Y322377D01*
X307697Y322303D01*
X307718Y322229D01*
X307735Y322154D01*
X307749Y322077D01*
X307758Y322001D01*
X307764Y321923D01*
X307766Y321846D01*
X307764Y321769D01*
X307758Y321691D01*
X307749Y321615D01*
X307735Y321538D01*
X307718Y321463D01*
X307697Y321389D01*
X307672Y321315D01*
X307644Y321243D01*
X307612Y321173D01*
X307577Y321104D01*
X307538Y321037D01*
X307496Y320972D01*
X307451Y320909D01*
X307403Y320848D01*
X307352Y320790D01*
X307298Y320735D01*
X307241Y320682D01*
X307182Y320633D01*
X307120Y320586D01*
X307056Y320542D01*
X306990Y320502D01*
X306922Y320465D01*
X306852Y320431D01*
X306781Y320401D01*
X306708Y320375D01*
X306634Y320352D01*
X306559Y320333D01*
X306484Y320318D01*
X306407Y320306D01*
X306330Y320298D01*
X306253Y320294D01*
X306175Y320294D01*
X306098Y320298D01*
X306021Y320306D01*
X305944Y320318D01*
X305869Y320333D01*
X305794Y320352D01*
X305720Y320375D01*
X305647Y320401D01*
X305576Y320431D01*
X305506Y320465D01*
X305438Y320502D01*
X305372Y320542D01*
X305308Y320586D01*
X305246Y320633D01*
X305187Y320682D01*
X305130Y320735D01*
X305076Y320790D01*
X305025Y320848D01*
X304977Y320909D01*
X304932Y320972D01*
X304890Y321037D01*
X304851Y321104D01*
X304816Y321173D01*
X304784Y321243D01*
X304756Y321315D01*
X304731Y321389D01*
X304710Y321463D01*
X304693Y321538D01*
X304679Y321615D01*
X304670Y321691D01*
X304664Y321769D01*
X304662Y321846D01*
X304972Y324640D02*
X304974Y324710D01*
X304980Y324779D01*
X304990Y324848D01*
X305003Y324916D01*
X305021Y324984D01*
X305042Y325050D01*
X305067Y325115D01*
X305095Y325179D01*
X305127Y325241D01*
X305162Y325301D01*
X305201Y325359D01*
X305243Y325414D01*
X305288Y325468D01*
X305336Y325518D01*
X305386Y325566D01*
X305440Y325611D01*
X305495Y325653D01*
X305553Y325692D01*
X305613Y325727D01*
X305675Y325759D01*
X305739Y325787D01*
X305804Y325812D01*
X305870Y325833D01*
X305938Y325851D01*
X306006Y325864D01*
X306075Y325874D01*
X306144Y325880D01*
X306214Y325882D01*
X306284Y325880D01*
X306353Y325874D01*
X306422Y325864D01*
X306490Y325851D01*
X306558Y325833D01*
X306624Y325812D01*
X306689Y325787D01*
X306753Y325759D01*
X306815Y325727D01*
X306875Y325692D01*
X306933Y325653D01*
X306988Y325611D01*
X307042Y325566D01*
X307092Y325518D01*
X307140Y325468D01*
X307185Y325414D01*
X307227Y325359D01*
X307266Y325301D01*
X307301Y325241D01*
X307333Y325179D01*
X307361Y325115D01*
X307386Y325050D01*
X307407Y324984D01*
X307425Y324916D01*
X307438Y324848D01*
X307448Y324779D01*
X307454Y324710D01*
X307456Y324640D01*
X307454Y324570D01*
X307448Y324501D01*
X307438Y324432D01*
X307425Y324364D01*
X307407Y324296D01*
X307386Y324230D01*
X307361Y324165D01*
X307333Y324101D01*
X307301Y324039D01*
X307266Y323979D01*
X307227Y323921D01*
X307185Y323866D01*
X307140Y323812D01*
X307092Y323762D01*
X307042Y323714D01*
X306988Y323669D01*
X306933Y323627D01*
X306875Y323588D01*
X306815Y323553D01*
X306753Y323521D01*
X306689Y323493D01*
X306624Y323468D01*
X306558Y323447D01*
X306490Y323429D01*
X306422Y323416D01*
X306353Y323406D01*
X306284Y323400D01*
X306214Y323398D01*
X306144Y323400D01*
X306075Y323406D01*
X306006Y323416D01*
X305938Y323429D01*
X305870Y323447D01*
X305804Y323468D01*
X305739Y323493D01*
X305675Y323521D01*
X305613Y323553D01*
X305553Y323588D01*
X305495Y323627D01*
X305440Y323669D01*
X305386Y323714D01*
X305336Y323762D01*
X305288Y323812D01*
X305243Y323866D01*
X305201Y323921D01*
X305162Y323979D01*
X305127Y324039D01*
X305095Y324101D01*
X305067Y324165D01*
X305042Y324230D01*
X305021Y324296D01*
X305003Y324364D01*
X304990Y324432D01*
X304980Y324501D01*
X304974Y324570D01*
X304972Y324640D01*
D65*
X322000Y363500D02*
X322000Y381500D01*
X322000Y363500D02*
X286000Y363500D01*
X286000Y381500D01*
X322000Y381500D01*
D67*
X300574Y360882D02*
X300574Y355294D01*
X300574Y360882D02*
X302126Y360882D01*
X302203Y360880D01*
X302281Y360874D01*
X302357Y360865D01*
X302434Y360851D01*
X302509Y360834D01*
X302583Y360813D01*
X302657Y360788D01*
X302729Y360760D01*
X302799Y360728D01*
X302868Y360693D01*
X302935Y360654D01*
X303000Y360612D01*
X303063Y360567D01*
X303124Y360519D01*
X303182Y360468D01*
X303237Y360414D01*
X303290Y360357D01*
X303339Y360298D01*
X303386Y360236D01*
X303430Y360172D01*
X303470Y360106D01*
X303507Y360038D01*
X303541Y359968D01*
X303571Y359897D01*
X303597Y359824D01*
X303620Y359750D01*
X303639Y359675D01*
X303654Y359600D01*
X303666Y359523D01*
X303674Y359446D01*
X303678Y359369D01*
X303678Y359291D01*
X303674Y359214D01*
X303666Y359137D01*
X303654Y359060D01*
X303639Y358985D01*
X303620Y358910D01*
X303597Y358836D01*
X303571Y358763D01*
X303541Y358692D01*
X303507Y358622D01*
X303470Y358554D01*
X303430Y358488D01*
X303386Y358424D01*
X303339Y358362D01*
X303290Y358303D01*
X303237Y358246D01*
X303182Y358192D01*
X303124Y358141D01*
X303063Y358093D01*
X303000Y358048D01*
X302935Y358006D01*
X302868Y357967D01*
X302799Y357932D01*
X302729Y357900D01*
X302657Y357872D01*
X302583Y357847D01*
X302509Y357826D01*
X302434Y357809D01*
X302357Y357795D01*
X302281Y357786D01*
X302203Y357780D01*
X302126Y357778D01*
X300574Y357778D01*
X302437Y357778D02*
X303678Y355294D01*
X306024Y356536D02*
X307266Y360882D01*
X306024Y356536D02*
X309129Y356536D01*
X308197Y357778D02*
X308197Y355294D01*
D65*
X322500Y394500D02*
X322500Y412500D01*
X322500Y394500D02*
X286500Y394500D01*
X286500Y412500D01*
X322500Y412500D01*
D67*
X300574Y392382D02*
X300574Y386794D01*
X300574Y392382D02*
X302126Y392382D01*
X302203Y392380D01*
X302281Y392374D01*
X302357Y392365D01*
X302434Y392351D01*
X302509Y392334D01*
X302583Y392313D01*
X302657Y392288D01*
X302729Y392260D01*
X302799Y392228D01*
X302868Y392193D01*
X302935Y392154D01*
X303000Y392112D01*
X303063Y392067D01*
X303124Y392019D01*
X303182Y391968D01*
X303237Y391914D01*
X303290Y391857D01*
X303339Y391798D01*
X303386Y391736D01*
X303430Y391672D01*
X303470Y391606D01*
X303507Y391538D01*
X303541Y391468D01*
X303571Y391397D01*
X303597Y391324D01*
X303620Y391250D01*
X303639Y391175D01*
X303654Y391100D01*
X303666Y391023D01*
X303674Y390946D01*
X303678Y390869D01*
X303678Y390791D01*
X303674Y390714D01*
X303666Y390637D01*
X303654Y390560D01*
X303639Y390485D01*
X303620Y390410D01*
X303597Y390336D01*
X303571Y390263D01*
X303541Y390192D01*
X303507Y390122D01*
X303470Y390054D01*
X303430Y389988D01*
X303386Y389924D01*
X303339Y389862D01*
X303290Y389803D01*
X303237Y389746D01*
X303182Y389692D01*
X303124Y389641D01*
X303063Y389593D01*
X303000Y389548D01*
X302935Y389506D01*
X302868Y389467D01*
X302799Y389432D01*
X302729Y389400D01*
X302657Y389372D01*
X302583Y389347D01*
X302509Y389326D01*
X302434Y389309D01*
X302357Y389295D01*
X302281Y389286D01*
X302203Y389280D01*
X302126Y389278D01*
X300574Y389278D01*
X302437Y389278D02*
X303678Y386794D01*
X306024Y386794D02*
X307887Y386794D01*
X307957Y386796D01*
X308026Y386802D01*
X308095Y386812D01*
X308163Y386825D01*
X308231Y386843D01*
X308297Y386864D01*
X308362Y386889D01*
X308426Y386917D01*
X308488Y386949D01*
X308548Y386984D01*
X308606Y387023D01*
X308661Y387065D01*
X308715Y387110D01*
X308765Y387158D01*
X308813Y387208D01*
X308858Y387262D01*
X308900Y387317D01*
X308939Y387375D01*
X308974Y387435D01*
X309006Y387497D01*
X309034Y387561D01*
X309059Y387626D01*
X309080Y387692D01*
X309098Y387760D01*
X309111Y387828D01*
X309121Y387897D01*
X309127Y387966D01*
X309129Y388036D01*
X309129Y388657D01*
X309127Y388727D01*
X309121Y388796D01*
X309111Y388865D01*
X309098Y388933D01*
X309080Y389001D01*
X309059Y389067D01*
X309034Y389132D01*
X309006Y389196D01*
X308974Y389258D01*
X308939Y389318D01*
X308900Y389376D01*
X308858Y389431D01*
X308813Y389485D01*
X308765Y389535D01*
X308715Y389583D01*
X308661Y389628D01*
X308606Y389670D01*
X308548Y389709D01*
X308488Y389744D01*
X308426Y389776D01*
X308362Y389804D01*
X308297Y389829D01*
X308231Y389850D01*
X308163Y389868D01*
X308095Y389881D01*
X308026Y389891D01*
X307957Y389897D01*
X307887Y389899D01*
X307887Y389898D02*
X306024Y389898D01*
X306024Y392382D01*
X309129Y392382D01*
D65*
X431500Y332000D02*
X449500Y332000D01*
X431500Y332000D02*
X431500Y368000D01*
X449500Y368000D01*
X449500Y332000D01*
D67*
X429882Y346371D02*
X424294Y346371D01*
X424294Y347924D01*
X424296Y348001D01*
X424302Y348079D01*
X424311Y348155D01*
X424325Y348232D01*
X424342Y348307D01*
X424363Y348381D01*
X424388Y348455D01*
X424416Y348527D01*
X424448Y348597D01*
X424483Y348666D01*
X424522Y348733D01*
X424564Y348798D01*
X424609Y348861D01*
X424657Y348922D01*
X424708Y348980D01*
X424762Y349035D01*
X424819Y349088D01*
X424878Y349137D01*
X424940Y349184D01*
X425004Y349228D01*
X425070Y349268D01*
X425138Y349305D01*
X425208Y349339D01*
X425279Y349369D01*
X425352Y349395D01*
X425426Y349418D01*
X425501Y349437D01*
X425576Y349452D01*
X425653Y349464D01*
X425730Y349472D01*
X425807Y349476D01*
X425885Y349476D01*
X425962Y349472D01*
X426039Y349464D01*
X426116Y349452D01*
X426191Y349437D01*
X426266Y349418D01*
X426340Y349395D01*
X426413Y349369D01*
X426484Y349339D01*
X426554Y349305D01*
X426622Y349268D01*
X426688Y349228D01*
X426752Y349184D01*
X426814Y349137D01*
X426873Y349088D01*
X426930Y349035D01*
X426984Y348980D01*
X427035Y348922D01*
X427083Y348861D01*
X427128Y348798D01*
X427170Y348733D01*
X427209Y348666D01*
X427244Y348597D01*
X427276Y348527D01*
X427304Y348455D01*
X427329Y348381D01*
X427350Y348307D01*
X427367Y348232D01*
X427381Y348155D01*
X427390Y348079D01*
X427396Y348001D01*
X427398Y347924D01*
X427398Y346371D01*
X427398Y348234D02*
X429882Y349476D01*
X426778Y351822D02*
X426778Y353684D01*
X426777Y353684D02*
X426779Y353754D01*
X426785Y353823D01*
X426795Y353892D01*
X426808Y353960D01*
X426826Y354028D01*
X426847Y354094D01*
X426872Y354159D01*
X426900Y354223D01*
X426932Y354285D01*
X426967Y354345D01*
X427006Y354403D01*
X427048Y354458D01*
X427093Y354512D01*
X427141Y354562D01*
X427191Y354610D01*
X427245Y354655D01*
X427300Y354697D01*
X427358Y354736D01*
X427418Y354771D01*
X427480Y354803D01*
X427544Y354831D01*
X427609Y354856D01*
X427675Y354877D01*
X427743Y354895D01*
X427811Y354908D01*
X427880Y354918D01*
X427949Y354924D01*
X428019Y354926D01*
X428330Y354926D01*
X428407Y354924D01*
X428485Y354918D01*
X428561Y354909D01*
X428638Y354895D01*
X428713Y354878D01*
X428787Y354857D01*
X428861Y354832D01*
X428933Y354804D01*
X429003Y354772D01*
X429072Y354737D01*
X429139Y354698D01*
X429204Y354656D01*
X429267Y354611D01*
X429328Y354563D01*
X429386Y354512D01*
X429441Y354458D01*
X429494Y354401D01*
X429543Y354342D01*
X429590Y354280D01*
X429634Y354216D01*
X429674Y354150D01*
X429711Y354082D01*
X429745Y354012D01*
X429775Y353941D01*
X429801Y353868D01*
X429824Y353794D01*
X429843Y353719D01*
X429858Y353644D01*
X429870Y353567D01*
X429878Y353490D01*
X429882Y353413D01*
X429882Y353335D01*
X429878Y353258D01*
X429870Y353181D01*
X429858Y353104D01*
X429843Y353029D01*
X429824Y352954D01*
X429801Y352880D01*
X429775Y352807D01*
X429745Y352736D01*
X429711Y352666D01*
X429674Y352598D01*
X429634Y352532D01*
X429590Y352468D01*
X429543Y352406D01*
X429494Y352347D01*
X429441Y352290D01*
X429386Y352236D01*
X429328Y352185D01*
X429267Y352137D01*
X429204Y352092D01*
X429139Y352050D01*
X429072Y352011D01*
X429003Y351976D01*
X428933Y351944D01*
X428861Y351916D01*
X428787Y351891D01*
X428713Y351870D01*
X428638Y351853D01*
X428561Y351839D01*
X428485Y351830D01*
X428407Y351824D01*
X428330Y351822D01*
X426778Y351822D01*
X426778Y351821D02*
X426680Y351823D01*
X426583Y351829D01*
X426486Y351838D01*
X426389Y351852D01*
X426293Y351869D01*
X426198Y351890D01*
X426104Y351914D01*
X426010Y351943D01*
X425918Y351975D01*
X425827Y352010D01*
X425738Y352049D01*
X425650Y352092D01*
X425564Y352138D01*
X425480Y352187D01*
X425398Y352240D01*
X425318Y352295D01*
X425240Y352354D01*
X425165Y352416D01*
X425092Y352481D01*
X425022Y352549D01*
X424954Y352619D01*
X424889Y352692D01*
X424827Y352767D01*
X424768Y352845D01*
X424713Y352925D01*
X424660Y353007D01*
X424611Y353091D01*
X424565Y353177D01*
X424522Y353265D01*
X424483Y353354D01*
X424448Y353445D01*
X424416Y353537D01*
X424387Y353631D01*
X424363Y353725D01*
X424342Y353820D01*
X424325Y353916D01*
X424311Y354013D01*
X424302Y354110D01*
X424296Y354207D01*
X424294Y354305D01*
D65*
X478500Y425500D02*
X478500Y443500D01*
X514500Y443500D01*
X514500Y425500D01*
X478500Y425500D01*
D67*
X492574Y447794D02*
X492574Y453382D01*
X494126Y453382D01*
X494203Y453380D01*
X494281Y453374D01*
X494357Y453365D01*
X494434Y453351D01*
X494509Y453334D01*
X494583Y453313D01*
X494657Y453288D01*
X494729Y453260D01*
X494799Y453228D01*
X494868Y453193D01*
X494935Y453154D01*
X495000Y453112D01*
X495063Y453067D01*
X495124Y453019D01*
X495182Y452968D01*
X495237Y452914D01*
X495290Y452857D01*
X495339Y452798D01*
X495386Y452736D01*
X495430Y452672D01*
X495470Y452606D01*
X495507Y452538D01*
X495541Y452468D01*
X495571Y452397D01*
X495597Y452324D01*
X495620Y452250D01*
X495639Y452175D01*
X495654Y452100D01*
X495666Y452023D01*
X495674Y451946D01*
X495678Y451869D01*
X495678Y451791D01*
X495674Y451714D01*
X495666Y451637D01*
X495654Y451560D01*
X495639Y451485D01*
X495620Y451410D01*
X495597Y451336D01*
X495571Y451263D01*
X495541Y451192D01*
X495507Y451122D01*
X495470Y451054D01*
X495430Y450988D01*
X495386Y450924D01*
X495339Y450862D01*
X495290Y450803D01*
X495237Y450746D01*
X495182Y450692D01*
X495124Y450641D01*
X495063Y450593D01*
X495000Y450548D01*
X494935Y450506D01*
X494868Y450467D01*
X494799Y450432D01*
X494729Y450400D01*
X494657Y450372D01*
X494583Y450347D01*
X494509Y450326D01*
X494434Y450309D01*
X494357Y450295D01*
X494281Y450286D01*
X494203Y450280D01*
X494126Y450278D01*
X492574Y450278D01*
X494437Y450278D02*
X495678Y447794D01*
X498024Y452761D02*
X498024Y453382D01*
X501129Y453382D01*
X499577Y447794D01*
D65*
X497000Y363500D02*
X515000Y363500D01*
X497000Y363500D02*
X497000Y399500D01*
X515000Y399500D01*
X515000Y363500D01*
D67*
X523382Y380475D02*
X523382Y381717D01*
X523382Y380475D02*
X523380Y380405D01*
X523374Y380336D01*
X523364Y380267D01*
X523351Y380199D01*
X523333Y380131D01*
X523312Y380065D01*
X523287Y380000D01*
X523259Y379936D01*
X523227Y379874D01*
X523192Y379814D01*
X523153Y379756D01*
X523111Y379701D01*
X523066Y379647D01*
X523018Y379597D01*
X522968Y379549D01*
X522914Y379504D01*
X522859Y379462D01*
X522801Y379423D01*
X522741Y379388D01*
X522679Y379356D01*
X522615Y379328D01*
X522550Y379303D01*
X522484Y379282D01*
X522416Y379264D01*
X522348Y379251D01*
X522279Y379241D01*
X522210Y379235D01*
X522140Y379233D01*
X519036Y379233D01*
X518966Y379235D01*
X518897Y379241D01*
X518828Y379251D01*
X518760Y379264D01*
X518692Y379282D01*
X518626Y379303D01*
X518561Y379328D01*
X518497Y379356D01*
X518435Y379388D01*
X518375Y379423D01*
X518317Y379462D01*
X518262Y379504D01*
X518208Y379549D01*
X518158Y379597D01*
X518110Y379647D01*
X518065Y379701D01*
X518023Y379756D01*
X517984Y379814D01*
X517949Y379874D01*
X517917Y379936D01*
X517889Y380000D01*
X517864Y380065D01*
X517843Y380131D01*
X517825Y380199D01*
X517812Y380267D01*
X517802Y380336D01*
X517796Y380405D01*
X517794Y380475D01*
X517794Y381717D01*
X520898Y385063D02*
X520898Y386926D01*
X520899Y385063D02*
X520897Y384993D01*
X520891Y384924D01*
X520881Y384855D01*
X520868Y384787D01*
X520850Y384719D01*
X520829Y384653D01*
X520804Y384588D01*
X520776Y384524D01*
X520744Y384462D01*
X520709Y384402D01*
X520670Y384344D01*
X520628Y384289D01*
X520583Y384235D01*
X520535Y384185D01*
X520485Y384137D01*
X520431Y384092D01*
X520376Y384050D01*
X520318Y384011D01*
X520258Y383976D01*
X520196Y383944D01*
X520132Y383916D01*
X520067Y383891D01*
X520001Y383870D01*
X519933Y383852D01*
X519865Y383839D01*
X519796Y383829D01*
X519727Y383823D01*
X519657Y383821D01*
X519657Y383822D02*
X519346Y383822D01*
X519269Y383824D01*
X519191Y383830D01*
X519115Y383839D01*
X519038Y383853D01*
X518963Y383870D01*
X518889Y383891D01*
X518815Y383916D01*
X518743Y383944D01*
X518673Y383976D01*
X518604Y384011D01*
X518537Y384050D01*
X518472Y384092D01*
X518409Y384137D01*
X518348Y384185D01*
X518290Y384236D01*
X518235Y384290D01*
X518182Y384347D01*
X518133Y384406D01*
X518086Y384468D01*
X518042Y384532D01*
X518002Y384598D01*
X517965Y384666D01*
X517931Y384736D01*
X517901Y384807D01*
X517875Y384880D01*
X517852Y384954D01*
X517833Y385029D01*
X517818Y385104D01*
X517806Y385181D01*
X517798Y385258D01*
X517794Y385335D01*
X517794Y385413D01*
X517798Y385490D01*
X517806Y385567D01*
X517818Y385644D01*
X517833Y385719D01*
X517852Y385794D01*
X517875Y385868D01*
X517901Y385941D01*
X517931Y386012D01*
X517965Y386082D01*
X518002Y386150D01*
X518042Y386216D01*
X518086Y386280D01*
X518133Y386342D01*
X518182Y386401D01*
X518235Y386458D01*
X518290Y386512D01*
X518348Y386563D01*
X518409Y386611D01*
X518472Y386656D01*
X518537Y386698D01*
X518604Y386737D01*
X518673Y386772D01*
X518743Y386804D01*
X518815Y386832D01*
X518889Y386857D01*
X518963Y386878D01*
X519038Y386895D01*
X519115Y386909D01*
X519191Y386918D01*
X519269Y386924D01*
X519346Y386926D01*
X520898Y386926D01*
X520996Y386924D01*
X521093Y386918D01*
X521190Y386909D01*
X521287Y386895D01*
X521383Y386878D01*
X521478Y386857D01*
X521572Y386833D01*
X521666Y386804D01*
X521758Y386772D01*
X521849Y386737D01*
X521938Y386698D01*
X522026Y386655D01*
X522112Y386609D01*
X522196Y386560D01*
X522278Y386507D01*
X522358Y386452D01*
X522436Y386393D01*
X522511Y386331D01*
X522584Y386266D01*
X522654Y386198D01*
X522722Y386128D01*
X522787Y386055D01*
X522849Y385980D01*
X522908Y385902D01*
X522963Y385822D01*
X523016Y385740D01*
X523065Y385656D01*
X523111Y385570D01*
X523154Y385482D01*
X523193Y385393D01*
X523228Y385302D01*
X523260Y385210D01*
X523289Y385116D01*
X523313Y385022D01*
X523334Y384927D01*
X523351Y384831D01*
X523365Y384734D01*
X523374Y384637D01*
X523380Y384539D01*
X523382Y384442D01*
D66*
X693000Y400500D02*
X693000Y343500D01*
X708000Y343500D01*
X716000Y343500D02*
X731000Y343500D01*
X731000Y400500D01*
X716000Y400500D01*
X708000Y400500D02*
X693000Y400500D01*
X708000Y400500D02*
X708058Y400382D01*
X708120Y400266D01*
X708185Y400152D01*
X708253Y400040D01*
X708325Y399930D01*
X708400Y399822D01*
X708478Y399716D01*
X708559Y399613D01*
X708643Y399512D01*
X708730Y399414D01*
X708820Y399318D01*
X708913Y399225D01*
X709009Y399135D01*
X709107Y399048D01*
X709208Y398963D01*
X709311Y398882D01*
X709416Y398804D01*
X709524Y398729D01*
X709634Y398657D01*
X709746Y398588D01*
X709860Y398523D01*
X709976Y398462D01*
X710094Y398403D01*
X710213Y398348D01*
X710334Y398297D01*
X710457Y398250D01*
X710580Y398206D01*
X710706Y398165D01*
X710832Y398129D01*
X710959Y398096D01*
X711087Y398067D01*
X711216Y398042D01*
X711346Y398021D01*
X711476Y398003D01*
X711606Y397990D01*
X711737Y397980D01*
X711869Y397974D01*
X712000Y397972D01*
X712131Y397974D01*
X712263Y397980D01*
X712394Y397990D01*
X712524Y398003D01*
X712654Y398021D01*
X712784Y398042D01*
X712913Y398067D01*
X713041Y398096D01*
X713168Y398129D01*
X713294Y398165D01*
X713420Y398206D01*
X713543Y398250D01*
X713666Y398297D01*
X713787Y398348D01*
X713906Y398403D01*
X714024Y398462D01*
X714140Y398523D01*
X714254Y398588D01*
X714366Y398657D01*
X714476Y398729D01*
X714584Y398804D01*
X714689Y398882D01*
X714792Y398963D01*
X714893Y399048D01*
X714991Y399135D01*
X715087Y399225D01*
X715180Y399318D01*
X715270Y399414D01*
X715357Y399512D01*
X715441Y399613D01*
X715522Y399716D01*
X715600Y399822D01*
X715675Y399930D01*
X715747Y400040D01*
X715815Y400152D01*
X715880Y400266D01*
X715942Y400382D01*
X716000Y400500D01*
X716000Y343500D02*
X715942Y343618D01*
X715880Y343734D01*
X715815Y343848D01*
X715747Y343960D01*
X715675Y344070D01*
X715600Y344178D01*
X715522Y344284D01*
X715441Y344387D01*
X715357Y344488D01*
X715270Y344586D01*
X715180Y344682D01*
X715087Y344775D01*
X714991Y344865D01*
X714893Y344952D01*
X714792Y345037D01*
X714689Y345118D01*
X714584Y345196D01*
X714476Y345271D01*
X714366Y345343D01*
X714254Y345412D01*
X714140Y345477D01*
X714024Y345538D01*
X713906Y345597D01*
X713787Y345652D01*
X713666Y345703D01*
X713543Y345750D01*
X713420Y345794D01*
X713294Y345835D01*
X713168Y345871D01*
X713041Y345904D01*
X712913Y345933D01*
X712784Y345958D01*
X712654Y345979D01*
X712524Y345997D01*
X712394Y346010D01*
X712263Y346020D01*
X712131Y346026D01*
X712000Y346028D01*
X711869Y346026D01*
X711737Y346020D01*
X711606Y346010D01*
X711476Y345997D01*
X711346Y345979D01*
X711216Y345958D01*
X711087Y345933D01*
X710959Y345904D01*
X710832Y345871D01*
X710706Y345835D01*
X710580Y345794D01*
X710457Y345750D01*
X710334Y345703D01*
X710213Y345652D01*
X710094Y345597D01*
X709976Y345538D01*
X709860Y345477D01*
X709746Y345412D01*
X709634Y345343D01*
X709524Y345271D01*
X709416Y345196D01*
X709311Y345118D01*
X709208Y345037D01*
X709107Y344952D01*
X709009Y344865D01*
X708913Y344775D01*
X708820Y344682D01*
X708730Y344586D01*
X708643Y344488D01*
X708559Y344387D01*
X708478Y344284D01*
X708400Y344178D01*
X708325Y344070D01*
X708253Y343960D01*
X708185Y343848D01*
X708120Y343734D01*
X708058Y343618D01*
X708000Y343500D01*
D68*
X695248Y396821D02*
X694627Y397597D01*
X697421Y397597D01*
X697421Y396821D02*
X697421Y398373D01*
D69*
X734408Y386911D02*
X746092Y379122D01*
X746092Y386911D02*
X734408Y379122D01*
X734408Y394771D02*
X734410Y394878D01*
X734416Y394984D01*
X734426Y395090D01*
X734439Y395196D01*
X734457Y395302D01*
X734478Y395406D01*
X734503Y395510D01*
X734532Y395613D01*
X734564Y395714D01*
X734601Y395814D01*
X734641Y395913D01*
X734684Y396011D01*
X734731Y396107D01*
X734782Y396201D01*
X734836Y396293D01*
X734893Y396383D01*
X734953Y396471D01*
X735017Y396556D01*
X735084Y396639D01*
X735154Y396720D01*
X735226Y396798D01*
X735302Y396874D01*
X735380Y396946D01*
X735461Y397016D01*
X735544Y397083D01*
X735629Y397147D01*
X735717Y397207D01*
X735807Y397264D01*
X735899Y397318D01*
X735993Y397369D01*
X736089Y397416D01*
X736187Y397459D01*
X736286Y397499D01*
X736386Y397536D01*
X736487Y397568D01*
X736590Y397597D01*
X736694Y397622D01*
X736798Y397643D01*
X736904Y397661D01*
X737010Y397674D01*
X737116Y397684D01*
X737222Y397690D01*
X737329Y397692D01*
X734408Y394771D02*
X734410Y394650D01*
X734416Y394529D01*
X734426Y394409D01*
X734439Y394288D01*
X734457Y394169D01*
X734478Y394049D01*
X734503Y393931D01*
X734532Y393814D01*
X734565Y393697D01*
X734601Y393582D01*
X734642Y393468D01*
X734685Y393355D01*
X734733Y393243D01*
X734784Y393134D01*
X734839Y393026D01*
X734897Y392919D01*
X734958Y392815D01*
X735023Y392713D01*
X735091Y392613D01*
X735162Y392515D01*
X735236Y392419D01*
X735313Y392326D01*
X735394Y392236D01*
X735477Y392148D01*
X735563Y392063D01*
X735652Y391980D01*
X735743Y391901D01*
X735837Y391824D01*
X735933Y391751D01*
X736031Y391681D01*
X736132Y391614D01*
X736235Y391550D01*
X736340Y391490D01*
X736447Y391432D01*
X736555Y391379D01*
X736665Y391329D01*
X736777Y391283D01*
X736890Y391240D01*
X737005Y391201D01*
X739601Y396718D02*
X739523Y396797D01*
X739443Y396873D01*
X739360Y396946D01*
X739274Y397016D01*
X739187Y397083D01*
X739096Y397147D01*
X739004Y397207D01*
X738910Y397265D01*
X738813Y397319D01*
X738715Y397369D01*
X738615Y397416D01*
X738514Y397460D01*
X738411Y397500D01*
X738306Y397536D01*
X738201Y397568D01*
X738094Y397597D01*
X737987Y397622D01*
X737878Y397644D01*
X737769Y397661D01*
X737660Y397675D01*
X737550Y397684D01*
X737439Y397690D01*
X737329Y397692D01*
X739601Y396718D02*
X746092Y391201D01*
X746092Y397692D01*
D67*
X627542Y396541D02*
X621954Y396541D01*
X621954Y398094D01*
X621956Y398171D01*
X621962Y398249D01*
X621971Y398325D01*
X621985Y398402D01*
X622002Y398477D01*
X622023Y398551D01*
X622048Y398625D01*
X622076Y398697D01*
X622108Y398767D01*
X622143Y398836D01*
X622182Y398903D01*
X622224Y398968D01*
X622269Y399031D01*
X622317Y399092D01*
X622368Y399150D01*
X622422Y399205D01*
X622479Y399258D01*
X622538Y399307D01*
X622600Y399354D01*
X622664Y399398D01*
X622730Y399438D01*
X622798Y399475D01*
X622868Y399509D01*
X622939Y399539D01*
X623012Y399565D01*
X623086Y399588D01*
X623161Y399607D01*
X623236Y399622D01*
X623313Y399634D01*
X623390Y399642D01*
X623467Y399646D01*
X623545Y399646D01*
X623622Y399642D01*
X623699Y399634D01*
X623776Y399622D01*
X623851Y399607D01*
X623926Y399588D01*
X624000Y399565D01*
X624073Y399539D01*
X624144Y399509D01*
X624214Y399475D01*
X624282Y399438D01*
X624348Y399398D01*
X624412Y399354D01*
X624474Y399307D01*
X624533Y399258D01*
X624590Y399205D01*
X624644Y399150D01*
X624695Y399092D01*
X624743Y399031D01*
X624788Y398968D01*
X624830Y398903D01*
X624869Y398836D01*
X624904Y398767D01*
X624936Y398697D01*
X624964Y398625D01*
X624989Y398551D01*
X625010Y398477D01*
X625027Y398402D01*
X625041Y398325D01*
X625050Y398249D01*
X625056Y398171D01*
X625058Y398094D01*
X625058Y396541D01*
X625058Y398404D02*
X627542Y399646D01*
X627542Y401992D02*
X627542Y403544D01*
X627540Y403621D01*
X627534Y403699D01*
X627525Y403775D01*
X627511Y403852D01*
X627494Y403927D01*
X627473Y404001D01*
X627448Y404075D01*
X627420Y404147D01*
X627388Y404217D01*
X627353Y404286D01*
X627314Y404353D01*
X627272Y404418D01*
X627227Y404481D01*
X627179Y404542D01*
X627128Y404600D01*
X627074Y404655D01*
X627017Y404708D01*
X626958Y404757D01*
X626896Y404804D01*
X626832Y404848D01*
X626766Y404888D01*
X626698Y404925D01*
X626628Y404959D01*
X626557Y404989D01*
X626484Y405015D01*
X626410Y405038D01*
X626335Y405057D01*
X626260Y405072D01*
X626183Y405084D01*
X626106Y405092D01*
X626029Y405096D01*
X625951Y405096D01*
X625874Y405092D01*
X625797Y405084D01*
X625720Y405072D01*
X625645Y405057D01*
X625570Y405038D01*
X625496Y405015D01*
X625423Y404989D01*
X625352Y404959D01*
X625282Y404925D01*
X625214Y404888D01*
X625148Y404848D01*
X625084Y404804D01*
X625022Y404757D01*
X624963Y404708D01*
X624906Y404655D01*
X624852Y404600D01*
X624801Y404542D01*
X624753Y404481D01*
X624708Y404418D01*
X624666Y404353D01*
X624627Y404286D01*
X624592Y404217D01*
X624560Y404147D01*
X624532Y404075D01*
X624507Y404001D01*
X624486Y403927D01*
X624469Y403852D01*
X624455Y403775D01*
X624446Y403699D01*
X624440Y403621D01*
X624438Y403544D01*
X621954Y403854D02*
X621954Y401992D01*
X621954Y403854D02*
X621956Y403924D01*
X621962Y403993D01*
X621972Y404062D01*
X621985Y404130D01*
X622003Y404198D01*
X622024Y404264D01*
X622049Y404329D01*
X622077Y404393D01*
X622109Y404455D01*
X622144Y404515D01*
X622183Y404573D01*
X622225Y404628D01*
X622270Y404682D01*
X622318Y404732D01*
X622368Y404780D01*
X622422Y404825D01*
X622477Y404867D01*
X622535Y404906D01*
X622595Y404941D01*
X622657Y404973D01*
X622721Y405001D01*
X622786Y405026D01*
X622852Y405047D01*
X622920Y405065D01*
X622988Y405078D01*
X623057Y405088D01*
X623126Y405094D01*
X623196Y405096D01*
X623266Y405094D01*
X623335Y405088D01*
X623404Y405078D01*
X623472Y405065D01*
X623540Y405047D01*
X623606Y405026D01*
X623671Y405001D01*
X623735Y404973D01*
X623797Y404941D01*
X623857Y404906D01*
X623915Y404867D01*
X623970Y404825D01*
X624024Y404780D01*
X624074Y404732D01*
X624122Y404682D01*
X624167Y404628D01*
X624209Y404573D01*
X624248Y404515D01*
X624283Y404455D01*
X624315Y404393D01*
X624343Y404329D01*
X624368Y404264D01*
X624389Y404198D01*
X624407Y404130D01*
X624420Y404062D01*
X624430Y403993D01*
X624436Y403924D01*
X624438Y403854D01*
X624438Y402612D01*
M02*
